ply
format ascii 1.0
element vertex 1000
property float x
property float y
property float z
end_header
-0.304912 0.347816 -0.299173
-0.275918 0.349720 -0.303176
-0.289083 0.349496 -0.288143
-0.262599 0.386041 -0.338558
-0.284415 0.424157 -0.336146
-0.293822 0.466354 -0.336223
-0.269313 0.479592 -0.340198
-0.273550 0.360128 -0.330187
-0.310771 0.362945 -0.261113
-0.300867 0.417506 -0.256038
-0.269741 0.360835 -0.260403
-0.290144 0.406939 -0.255658
-0.295397 0.438921 -0.335554
-0.313327 0.455119 -0.256119
-0.297885 0.449064 -0.255262
-0.284072 0.461686 -0.254004
-0.268031 0.479265 -0.253243
-0.156545 0.349924 -0.335795
-0.252229 0.351265 -0.317571
-0.265630 0.349528 -0.290531
-0.238652 0.354088 -0.273573
-0.203363 0.349921 -0.323805
-0.209712 0.351529 -0.291906
-0.176852 0.350223 -0.310500
-0.160099 0.349530 -0.326159
-0.138118 0.353228 -0.303399
-0.249013 0.383640 -0.342619
-0.249797 0.402829 -0.343033
-0.226468 0.366955 -0.347515
-0.218097 0.374462 -0.351592
-0.198207 0.387188 -0.357702
-0.248343 0.447670 -0.344836
-0.257870 0.471021 -0.342732
-0.223937 0.411381 -0.351507
-0.202599 0.421173 -0.357683
-0.229630 0.476939 -0.351336
-0.191084 0.359221 -0.353487
-0.172449 0.378688 -0.363470
-0.179179 0.396877 -0.362720
-0.151651 0.375184 -0.367684
-0.145434 0.395361 -0.369758
-0.163582 0.391292 -0.365915
-0.170675 0.431632 -0.365712
-0.178343 0.453115 -0.364429
-0.152358 0.428382 -0.369455
-0.164156 0.465027 -0.367800
-0.143295 0.461574 -0.371931
-0.215850 0.356891 -0.277601
-0.254918 0.381825 -0.256970
-0.254238 0.393430 -0.256522
-0.217083 0.366913 -0.270274
-0.232395 0.392095 -0.261936
-0.265835 0.421946 -0.254372
-0.241955 0.442794 -0.257523
-0.239753 0.481151 -0.257361
-0.197810 0.434709 -0.271650
-0.222188 0.465253 -0.263271
-0.197921 0.486231 -0.270525
-0.175423 0.368113 -0.280858
-0.190428 0.418417 -0.274137
-0.151311 0.356658 -0.295168
-0.143524 0.364160 -0.290585
-0.152505 0.416012 -0.283552
-0.192487 0.425276 -0.273382
-0.196980 0.472083 -0.271127
-0.146750 0.423377 -0.284624
-0.141345 0.438760 -0.285354
-0.158150 0.476744 -0.280885
-0.123633 0.349598 -0.336609
-0.099512 0.349570 -0.345541
-0.080662 0.354571 -0.367156
-0.038030 0.350931 -0.358877
-0.021982 0.349480 -0.338225
-0.120966 0.349464 -0.332256
-0.112613 0.350915 -0.316626
-0.081268 0.349671 -0.332380
-0.041377 0.349937 -0.331138
-0.112257 0.363650 -0.372232
-0.109575 0.383912 -0.375166
-0.114387 0.402069 -0.375183
-0.089581 0.385616 -0.377767
-0.092043 0.396621 -0.377881
-0.115423 0.426107 -0.375760
-0.108354 0.436191 -0.376996
-0.109409 0.468398 -0.377510
-0.098467 0.444606 -0.378516
-0.084260 0.477235 -0.380750
-0.060527 0.354822 -0.369298
-0.033620 0.375994 -0.381742
-0.035368 0.398947 -0.382560
-0.028236 0.374351 -0.381842
-0.019458 0.387439 -0.382706
-0.009594 0.410859 -0.383656
-0.046253 0.432983 -0.382999
-0.033891 0.456474 -0.384171
-0.021909 0.441587 -0.384255
-0.024055 0.457316 -0.384515
-0.004660 0.481292 -0.385252
-0.107500 0.359790 -0.298256
-0.130276 0.404980 -0.288339
-0.087597 0.360470 -0.299862
-0.069210 0.376441 -0.298158
-0.069264 0.394677 -0.297364
-0.125789 0.440161 -0.288248
-0.120612 0.473470 -0.288493
-0.089329 0.427839 -0.294031
-0.099783 0.461846 -0.291912
-0.078208 0.477084 -0.294343
-0.061080 0.359128 -0.303067
-0.059417 0.393799 -0.298221
-0.045904 0.403969 -0.298889
-0.015806 0.356890 -0.310951
-0.023794 0.418964 -0.299609
-0.051334 0.423194 -0.297933
-0.047730 0.438722 -0.297748
-0.040747 0.485232 -0.297332
-0.008561 0.429109 -0.299630
-0.022242 0.483485 -0.298221
-0.299111 0.492722 -0.336071
-0.279238 0.498526 -0.338537
-0.298951 0.538899 -0.336228
-0.294727 0.561278 -0.336463
-0.276783 0.561093 -0.338996
-0.284514 0.615003 -0.336683
-0.306441 0.502154 -0.254955
-0.292503 0.511158 -0.253998
-0.297759 0.528522 -0.254302
-0.270941 0.546817 -0.253037
-0.312489 0.573774 -0.255496
-0.290634 0.551764 -0.253888
-0.271662 0.575420 -0.253275
-0.274443 0.612053 -0.253927
-0.278531 0.641622 -0.336610
-0.289528 0.642884 -0.335380
-0.310885 0.633234 -0.256423
-0.313205 0.677700 -0.257954
-0.276727 0.631146 -0.254417
-0.288008 0.669743 -0.256076
-0.289729 0.705138 -0.322237
-0.278911 0.705350 -0.322415
-0.292684 0.706788 -0.272898
-0.295270 0.686375 -0.257416
-0.269196 0.699112 -0.259810
-0.238139 0.497485 -0.348944
-0.244846 0.522671 -0.346852
-0.213933 0.517304 -0.356219
-0.213697 0.529752 -0.356297
-0.200465 0.536650 -0.359848
-0.237098 0.558645 -0.349313
-0.261314 0.607548 -0.341454
-0.231231 0.578302 -0.350913
-0.224824 0.591081 -0.352658
-0.209063 0.588381 -0.357087
-0.196383 0.504475 -0.360834
-0.197271 0.539430 -0.360689
-0.158537 0.505170 -0.369462
-0.144165 0.511568 -0.372348
-0.153257 0.549022 -0.370565
-0.183455 0.576366 -0.363727
-0.187239 0.607216 -0.362334
-0.167853 0.550872 -0.367514
-0.137939 0.567139 -0.373323
-0.151155 0.608347 -0.370217
-0.261237 0.485811 -0.253612
-0.260933 0.527592 -0.253414
-0.248670 0.539071 -0.254917
-0.217543 0.488652 -0.264307
-0.231087 0.547699 -0.259574
-0.215967 0.541179 -0.264774
-0.239046 0.557240 -0.257325
-0.253694 0.610324 -0.254979
-0.225506 0.579549 -0.261756
-0.216104 0.580380 -0.264906
-0.214778 0.590835 -0.265598
-0.195547 0.511072 -0.270969
-0.186608 0.523868 -0.273391
-0.163788 0.492725 -0.279398
-0.130895 0.507396 -0.286482
-0.161221 0.541123 -0.279755
-0.195567 0.566424 -0.271073
-0.179308 0.571686 -0.275498
-0.175729 0.616587 -0.277155
-0.130463 0.560920 -0.286510
-0.152993 0.599854 -0.282261
-0.137333 0.614723 -0.285935
-0.259723 0.650272 -0.340396
-0.259159 0.685412 -0.338679
-0.229255 0.626921 -0.350548
-0.204980 0.627015 -0.357365
-0.197823 0.663618 -0.358134
-0.253243 0.690932 -0.340196
-0.218205 0.691522 -0.349877
-0.209663 0.705708 -0.339189
-0.166949 0.620574 -0.366639
-0.192265 0.674734 -0.359072
-0.145197 0.630409 -0.370836
-0.145891 0.663665 -0.369685
-0.160461 0.657203 -0.366971
-0.184834 0.706567 -0.342974
-0.142009 0.690320 -0.369021
-0.152169 0.708267 -0.342178
-0.204729 0.679345 -0.271263
-0.246068 0.640994 -0.257167
-0.239450 0.660768 -0.259416
-0.204299 0.622059 -0.269661
-0.227517 0.659705 -0.263214
-0.211741 0.670032 -0.268872
-0.246291 0.706731 -0.324256
-0.241918 0.708994 -0.290283
-0.201872 0.709530 -0.320900
-0.206058 0.694271 -0.272067
-0.260430 0.705777 -0.270386
-0.230216 0.693053 -0.263737
-0.185314 0.642401 -0.275440
-0.192056 0.680652 -0.274911
-0.160474 0.627698 -0.281209
-0.136719 0.646762 -0.286885
-0.140524 0.664472 -0.286734
-0.171484 0.709463 -0.329635
-0.199099 0.708564 -0.300067
-0.178694 0.704057 -0.288083
-0.144877 0.709695 -0.321710
-0.164940 0.707453 -0.302889
-0.120646 0.497336 -0.376225
-0.125873 0.520330 -0.375534
-0.100187 0.541137 -0.379236
-0.071305 0.500819 -0.382269
-0.097133 0.540670 -0.379608
-0.121393 0.568732 -0.376053
-0.116036 0.595922 -0.376513
-0.104970 0.616725 -0.377613
-0.082974 0.551684 -0.381202
-0.066898 0.586036 -0.382383
-0.052464 0.508949 -0.383793
-0.060365 0.524709 -0.383270
-0.043834 0.543263 -0.384323
-0.011153 0.500821 -0.385388
-0.026139 0.549837 -0.385086
-0.065003 0.568948 -0.382742
-0.052193 0.585869 -0.383461
-0.040213 0.615312 -0.383587
-0.015838 0.556245 -0.385353
-0.024830 0.610792 -0.384320
-0.126301 0.519080 -0.287255
-0.122352 0.552362 -0.287844
-0.099330 0.485510 -0.291606
-0.071250 0.503152 -0.294831
-0.079205 0.519922 -0.293890
-0.114041 0.553814 -0.289216
-0.107039 0.598689 -0.290836
-0.091755 0.572886 -0.292587
-0.085136 0.584765 -0.293594
-0.063186 0.499337 -0.295607
-0.048427 0.513671 -0.296679
-0.039067 0.532401 -0.297205
-0.030408 0.505913 -0.297826
-0.017852 0.522940 -0.298231
-0.001665 0.545224 -0.298461
-0.034324 0.553034 -0.297702
-0.053536 0.612325 -0.297157
-0.030463 0.576114 -0.298027
-0.032761 0.590243 -0.298008
-0.016716 0.609742 -0.298988
-0.112386 0.629731 -0.376281
-0.129514 0.672827 -0.372244
-0.087031 0.637435 -0.379271
-0.087158 0.654238 -0.378742
-0.069896 0.683263 -0.379380
-0.110267 0.704074 -0.365509
-0.113030 0.708827 -0.346740
-0.073027 0.704055 -0.369751
-0.070294 0.707146 -0.360244
-0.064761 0.649471 -0.381081
-0.057265 0.676230 -0.380642
-0.019402 0.622543 -0.384231
-0.000699 0.648151 -0.383766
-0.016427 0.658743 -0.383263
-0.037221 0.692628 -0.380322
-0.060859 0.709779 -0.342455
-0.021896 0.704656 -0.371374
-0.021358 0.707183 -0.363672
-0.130947 0.632938 -0.287614
-0.102289 0.638076 -0.292487
-0.101950 0.656192 -0.293105
-0.078637 0.627082 -0.295176
-0.099746 0.677507 -0.294183
-0.123334 0.709615 -0.327402
-0.128224 0.694170 -0.290626
-0.116965 0.698560 -0.294843
-0.074366 0.706595 -0.314334
-0.066128 0.701276 -0.301777
-0.040392 0.630352 -0.298426
-0.057254 0.677886 -0.299092
-0.018309 0.631302 -0.299456
-0.013186 0.639040 -0.299816
-0.010304 0.666037 -0.300869
-0.061867 0.704864 -0.309165
-0.062798 0.684237 -0.298843
-0.019688 0.707332 -0.320151
-0.013193 0.704748 -0.312531
0.026781 0.349727 -0.350928
0.039681 0.352427 -0.363909
0.077024 0.350153 -0.351391
0.089276 0.349297 -0.339667
0.134073 0.349827 -0.339855
0.043421 0.353026 -0.314951
0.065967 0.349481 -0.333504
0.115703 0.349538 -0.322926
0.129765 0.349878 -0.318714
0.027495 0.361033 -0.377410
0.001951 0.411938 -0.383755
0.041622 0.366947 -0.379296
0.043634 0.392486 -0.381838
0.064725 0.416676 -0.381207
0.024991 0.426952 -0.383753
0.006258 0.484044 -0.385265
0.035757 0.424363 -0.383266
0.045440 0.460881 -0.383587
0.055365 0.471335 -0.383117
0.091263 0.357697 -0.370012
0.070760 0.412690 -0.380525
0.116576 0.365600 -0.372129
0.120384 0.385477 -0.373484
0.116805 0.400930 -0.374612
0.070249 0.451956 -0.381586
0.079062 0.481833 -0.381239
0.103365 0.422214 -0.377155
0.130006 0.441227 -0.373683
0.114376 0.464186 -0.376613
0.012482 0.380747 -0.301317
0.010173 0.414041 -0.300098
0.022833 0.407262 -0.299913
0.040136 0.367771 -0.301607
0.050396 0.390592 -0.299151
0.006685 0.431548 -0.299545
0.021081 0.447562 -0.298839
0.019923 0.467400 -0.298506
0.049099 0.440665 -0.297564
0.038763 0.454465 -0.297882
0.064637 0.475458 -0.295680
0.095588 0.362997 -0.297220
0.072942 0.412116 -0.296265
0.107399 0.359837 -0.297761
0.128902 0.379868 -0.289386
0.122366 0.387358 -0.290168
0.084765 0.434538 -0.294307
0.080666 0.484342 -0.293857
0.112749 0.425141 -0.290602
0.129833 0.439330 -0.287412
0.121566 0.482873 -0.288045
0.167514 0.349665 -0.333461
0.137211 0.352626 -0.304626
0.166115 0.349393 -0.329127
0.178840 0.352694 -0.294700
0.204451 0.350679 -0.330736
0.203861 0.353996 -0.283868
0.234955 0.354275 -0.334293
0.247183 0.349336 -0.295375
0.264421 0.350491 -0.281481
0.144825 0.354698 -0.356936
0.130108 0.400873 -0.372512
0.170558 0.354955 -0.353017
0.188159 0.377342 -0.359469
0.185684 0.401025 -0.361072
0.145436 0.446661 -0.371034
0.144380 0.452607 -0.371380
0.167493 0.484054 -0.367172
0.184718 0.420565 -0.361931
0.192703 0.453568 -0.360776
0.198018 0.354095 -0.344084
0.226721 0.378779 -0.348877
0.211256 0.418857 -0.354988
0.235573 0.383109 -0.346427
0.238073 0.399785 -0.346360
0.246814 0.403884 -0.343822
0.220094 0.425508 -0.352744
0.207482 0.476013 -0.357299
0.211689 0.482342 -0.356265
0.259461 0.448478 -0.341606
0.256912 0.466438 -0.342635
0.151615 0.355744 -0.295306
0.140937 0.398364 -0.286352
0.167999 0.418918 -0.279474
0.186157 0.365533 -0.278097
0.169543 0.417993 -0.279118
0.145057 0.447883 -0.284156
0.161236 0.448694 -0.280422
0.128398 0.471512 -0.287035
0.173758 0.422944 -0.277922
0.168725 0.462996 -0.278246
0.190354 0.475238 -0.272492
0.264162 0.358680 -0.331535
0.216533 0.416324 -0.265825
0.225678 0.411358 -0.262928
0.255539 0.370062 -0.257641
0.244975 0.412595 -0.257354
0.199526 0.428935 -0.270833
0.220850 0.441027 -0.263720
0.197668 0.479940 -0.270424
0.245349 0.426983 -0.256842
0.243548 0.462358 -0.256488
0.256633 0.470772 -0.254188
0.269259 0.349419 -0.292891
0.297158 0.351558 -0.276441
0.273747 0.408943 -0.336793
0.266944 0.436507 -0.339505
0.295425 0.473159 -0.336070
0.271603 0.380394 -0.336167
0.287705 0.401030 -0.335003
0.301237 0.375313 -0.332975
0.273809 0.356183 -0.265412
0.266007 0.395503 -0.255154
0.286989 0.411516 -0.255405
0.297678 0.427218 -0.334954
0.311175 0.441721 -0.334366
0.274099 0.424744 -0.254491
0.293280 0.435844 -0.255157
0.283538 0.484431 -0.253688
0.307243 0.468567 -0.255442
0.008903 0.514264 -0.385475
0.002844 0.523848 -0.385560
0.024040 0.549386 -0.385122
0.053488 0.504059 -0.383618
0.055099 0.519690 -0.383578
0.013127 0.570963 -0.385244
-0.000480 0.600235 -0.384957
0.017381 0.611269 -0.384521
0.064594 0.571663 -0.382666
0.051384 0.585597 -0.383451
0.079191 0.504981 -0.381446
0.079100 0.534125 -0.381534
0.083861 0.543939 -0.381010
0.119551 0.501822 -0.376274
0.125955 0.526977 -0.375359
0.075204 0.582988 -0.381537
0.068545 0.592577 -0.382021
0.101193 0.551948 -0.378917
0.127620 0.570366 -0.374885
0.124640 0.599888 -0.374926
0.012310 0.512559 -0.298226
0.005830 0.519878 -0.298361
0.037113 0.499319 -0.297357
0.060630 0.512573 -0.295649
0.056176 0.525218 -0.295973
0.002719 0.584026 -0.298701
0.009412 0.586442 -0.298730
0.029373 0.601847 -0.298334
0.064633 0.565051 -0.295450
0.036265 0.602470 -0.297973
0.069394 0.517508 -0.294843
0.073203 0.525803 -0.294416
0.087511 0.546899 -0.292799
0.126075 0.494184 -0.287164
0.123929 0.528465 -0.287362
0.086952 0.560887 -0.292960
0.067664 0.604491 -0.295753
0.100632 0.563448 -0.291187
0.103932 0.596140 -0.291107
0.127713 0.606823 -0.287383
0.024072 0.633040 -0.383781
0.029950 0.660135 -0.382753
0.048133 0.649833 -0.382190
0.035596 0.660364 -0.382498
0.049249 0.682844 -0.380861
0.018908 0.705239 -0.369892
0.023622 0.708697 -0.356170
0.056527 0.684805 -0.380215
0.032940 0.709746 -0.350101
0.072082 0.639982 -0.380607
0.077621 0.658524 -0.379496
0.081723 0.678654 -0.378305
0.123048 0.627767 -0.374548
0.123814 0.655345 -0.373612
0.077793 0.700710 -0.374297
0.071926 0.709573 -0.348970
0.106336 0.702302 -0.370344
0.098878 0.708506 -0.352388
0.013080 0.631640 -0.299535
0.015327 0.645427 -0.300162
0.028316 0.666982 -0.300394
0.051108 0.630926 -0.297716
0.042111 0.678481 -0.300162
0.002946 0.686694 -0.302093
0.029373 0.695947 -0.303291
0.039925 0.709184 -0.328912
0.054658 0.706177 -0.314245
0.081635 0.626690 -0.294723
0.094885 0.642480 -0.293477
0.086922 0.672948 -0.295561
0.123596 0.630120 -0.288620
0.108532 0.677838 -0.292728
0.071416 0.708696 -0.322568
0.096177 0.705577 -0.307551
0.110855 0.709874 -0.326773
0.124020 0.707187 -0.308624
0.118209 0.703996 -0.300176
0.157889 0.497426 -0.369335
0.132606 0.527719 -0.374262
0.159827 0.545709 -0.369026
0.192225 0.506163 -0.361592
0.183719 0.529342 -0.363719
0.165812 0.554920 -0.367714
0.135167 0.596182 -0.373226
0.161926 0.605508 -0.367887
0.183732 0.556049 -0.363623
0.191336 0.592989 -0.361343
0.202114 0.516755 -0.359111
0.213986 0.508770 -0.355861
0.219822 0.529221 -0.354286
0.239971 0.514099 -0.348108
0.241679 0.535241 -0.347572
0.201961 0.567906 -0.358980
0.225527 0.573292 -0.352391
0.227922 0.592821 -0.351383
0.238442 0.567815 -0.348455
0.241117 0.593267 -0.347206
0.141090 0.497795 -0.284178
0.161235 0.499663 -0.279537
0.144128 0.550802 -0.283581
0.164597 0.542265 -0.278729
0.187761 0.514978 -0.272860
0.192754 0.524142 -0.271536
0.129463 0.572048 -0.286764
0.146355 0.586495 -0.283458
0.164417 0.588847 -0.279309
0.190603 0.566513 -0.272325
0.182213 0.602094 -0.274989
0.203534 0.492518 -0.268481
0.232831 0.515520 -0.258596
0.202587 0.542699 -0.268885
0.243400 0.515510 -0.255932
0.243587 0.526369 -0.255868
0.254686 0.536323 -0.253946
0.225489 0.567325 -0.261432
0.201714 0.590845 -0.269392
0.230789 0.606425 -0.260073
0.254272 0.575874 -0.254259
0.252684 0.586638 -0.254561
0.146994 0.636432 -0.370160
0.137945 0.658296 -0.371149
0.159103 0.677206 -0.366266
0.191691 0.639633 -0.360188
0.182325 0.663122 -0.361730
0.146721 0.707686 -0.348911
0.151542 0.700838 -0.362112
0.168567 0.706976 -0.346792
0.191837 0.707960 -0.337144
0.215775 0.628295 -0.354118
0.197397 0.664702 -0.357924
0.237046 0.624770 -0.347870
0.238231 0.655035 -0.346501
0.249236 0.668162 -0.342554
0.214282 0.703866 -0.344349
0.237701 0.705029 -0.334116
0.138242 0.623441 -0.285757
0.148178 0.644053 -0.284294
0.153609 0.655685 -0.283493
0.175723 0.635595 -0.277552
0.173331 0.681192 -0.279599
0.147725 0.710124 -0.320431
0.145720 0.693873 -0.288083
0.163771 0.707046 -0.300392
0.197905 0.709287 -0.328181
0.169644 0.706145 -0.295809
0.178969 0.702331 -0.283006
0.213429 0.639368 -0.267035
0.211529 0.660009 -0.268311
0.214751 0.673769 -0.267609
0.253610 0.640176 -0.255605
0.256419 0.652345 -0.255666
0.229959 0.707399 -0.328507
0.213207 0.706118 -0.283952
0.244504 0.707325 -0.324142
0.241549 0.710187 -0.297523
0.258088 0.707502 -0.276696
0.237541 0.703361 -0.268084
0.263749 0.493811 -0.341257
0.295678 0.507132 -0.336349
0.297195 0.522682 -0.336288
0.276430 0.553100 -0.338916
0.298991 0.569785 -0.335993
0.280144 0.606469 -0.337327
0.312711 0.533365 -0.335079
0.286746 0.490610 -0.253839
0.271876 0.547171 -0.253092
0.302479 0.486546 -0.254901
0.305276 0.537848 -0.254870
0.311833 0.585595 -0.334820
0.273164 0.573382 -0.253321
0.279045 0.592332 -0.253723
0.301221 0.557356 -0.254690
0.310785 0.614440 -0.256072
0.272341 0.646536 -0.337139
0.298297 0.639729 -0.334726
0.281354 0.672555 -0.335176
0.313806 0.683126 -0.332240
0.285101 0.627108 -0.254718
0.280427 0.673094 -0.255827
0.310294 0.621910 -0.256200
0.276770 0.687096 -0.334775
0.295341 0.695551 -0.331438
0.272464 0.709861 -0.290698
0.298137 0.686193 -0.332917
0.303182 0.709200 -0.284855
0.288664 0.687227 -0.257036
0.336430 -0.086823 -0.322020
0.341528 -0.059167 -0.324268
0.353627 -0.075696 -0.326322
0.331215 -0.069402 -0.281315
0.367196 -0.079246 -0.326482
0.386407 -0.103749 -0.273484
0.370632 -0.077925 -0.326441
0.386302 -0.057784 -0.318549
0.386846 -0.069252 -0.278668
0.335826 -0.062501 -0.261072
0.336647 -0.046695 -0.251992
0.385188 -0.075774 -0.256743
0.384149 -0.048557 -0.241933
0.339745 -0.040185 -0.323792
0.357649 -0.038659 -0.326385
0.334271 -0.032360 -0.283308
0.336053 -0.003429 -0.318552
0.334223 0.008892 -0.310319
0.334498 0.001825 -0.278236
0.366842 -0.033061 -0.326486
0.386807 -0.028009 -0.316718
0.386318 -0.037386 -0.277765
0.368972 0.003960 -0.326461
0.384739 0.005493 -0.323729
0.386874 0.016573 -0.288905
0.337427 -0.030854 -0.241674
0.336116 -0.011380 -0.266257
0.335766 0.016544 -0.270079
0.385421 -0.037085 -0.263517
0.383707 -0.039763 -0.220199
0.384478 -0.004374 -0.260646
0.383263 -0.011804 -0.233589
0.344096 0.043572 -0.324937
0.334110 0.025937 -0.301867
0.334236 0.041533 -0.277437
0.343682 0.081952 -0.324828
0.334111 0.066044 -0.293426
0.371550 0.028155 -0.326430
0.387142 0.035397 -0.312071
0.386223 0.020831 -0.277826
0.373656 0.070821 -0.326405
0.379926 0.075519 -0.325413
0.386941 0.078700 -0.292134
0.342478 0.040213 -0.265146
0.342555 0.054935 -0.265129
0.355221 0.072643 -0.263898
0.385022 0.044792 -0.269882
0.384620 0.070368 -0.268247
0.335792 0.113944 -0.318085
0.351729 0.114483 -0.326268
0.334231 0.117868 -0.277781
0.335103 0.139964 -0.316846
0.349756 0.148760 -0.326229
0.334126 0.144022 -0.284498
0.387144 0.092806 -0.303870
0.387132 0.089304 -0.301336
0.365917 0.134313 -0.326497
0.385290 0.139758 -0.322221
0.386028 0.133241 -0.276459
0.342312 0.109798 -0.265172
0.347367 0.124854 -0.264292
0.356016 0.153329 -0.263883
0.385126 0.104592 -0.270131
0.385337 0.134910 -0.271833
0.338418 0.175259 -0.322805
0.359917 0.183617 -0.326430
0.334210 0.186250 -0.279142
0.336595 0.208959 -0.319528
0.350083 0.206959 -0.326235
0.334133 0.206316 -0.284071
0.387144 0.160326 -0.303795
0.387063 0.166071 -0.298025
0.371725 0.193840 -0.326428
0.385619 0.205389 -0.321027
0.386463 0.192660 -0.280884
0.346182 0.183984 -0.264498
0.344213 0.193787 -0.264841
0.356220 0.216546 -0.263880
0.383627 0.163801 -0.266492
0.384394 0.199308 -0.269269
0.299365 0.349083 -0.291505
0.317738 0.351925 -0.269680
0.337554 0.254121 -0.321253
0.357981 0.244244 -0.326391
0.334111 0.243506 -0.287272
0.338474 0.277896 -0.322906
0.354909 0.276878 -0.326331
0.334164 0.277695 -0.282050
0.383450 0.235768 -0.324180
0.387148 0.223780 -0.285936
0.372795 0.253712 -0.326415
0.387203 0.258965 -0.313011
0.385976 0.265959 -0.274908
0.335303 0.219968 -0.271424
0.343084 0.264742 -0.265037
0.350529 0.281957 -0.263987
0.383808 0.243747 -0.267168
0.377418 0.252374 -0.264927
0.337653 0.318118 -0.321417
0.358471 0.309971 -0.326401
0.334146 0.310028 -0.289797
0.331975 0.338839 -0.319986
0.330620 0.327333 -0.299565
0.371740 0.316954 -0.326428
0.387247 0.303287 -0.311224
0.387247 0.318460 -0.290765
0.384695 0.330732 -0.323745
0.387301 0.320411 -0.293384
0.344427 0.302443 -0.264804
0.353265 0.315046 -0.263935
0.346287 0.343724 -0.263886
0.369993 0.291453 -0.264161
0.369479 0.323387 -0.264122
0.325204 0.351937 -0.324349
0.317066 0.403211 -0.332731
0.321372 0.364804 -0.261706
0.330467 0.418146 -0.259525
0.325796 0.464131 -0.332406
0.324959 0.466145 -0.256634
0.337182 0.379275 -0.329136
0.343482 0.411670 -0.328899
0.375778 0.367118 -0.326380
0.387170 0.362417 -0.314352
0.386050 0.354447 -0.275580
0.372225 0.410548 -0.326420
0.379514 0.407610 -0.325557
0.387413 0.416135 -0.298786
0.349155 0.366657 -0.262679
0.346523 0.417700 -0.261721
0.374842 0.363997 -0.264529
0.370880 0.401052 -0.264227
0.336360 0.420164 -0.330028
0.361249 0.443062 -0.326896
0.363374 0.467378 -0.326643
0.385763 0.421855 -0.320505
0.387156 0.442506 -0.314912
0.385989 0.448285 -0.275026
0.387368 0.461545 -0.306390
0.387328 0.467996 -0.294655
0.335664 0.426811 -0.260130
0.354777 0.443624 -0.262507
0.355530 0.465784 -0.261743
0.384296 0.416545 -0.268727
0.375980 0.483080 -0.264595
0.326804 0.507968 -0.332452
0.321764 0.499494 -0.256141
0.330694 0.562686 -0.331815
0.330461 0.614902 -0.331405
0.328310 0.586115 -0.257728
0.360309 0.494096 -0.327083
0.347342 0.541849 -0.328929
0.368507 0.494312 -0.326459
0.387102 0.514574 -0.315649
0.386690 0.497194 -0.281407
0.365706 0.540078 -0.326374
0.387426 0.541145 -0.304050
0.387391 0.542219 -0.297755
0.355782 0.496860 -0.260921
0.331175 0.539144 -0.257174
0.363282 0.496625 -0.262091
0.379276 0.504056 -0.265373
0.384419 0.545586 -0.268153
0.356982 0.554743 -0.327594
0.331762 0.607562 -0.331275
0.371778 0.566045 -0.326423
0.383652 0.577019 -0.324110
0.387340 0.569215 -0.295253
0.385723 0.588723 -0.320650
0.387174 0.611194 -0.314180
0.386672 0.610491 -0.275261
0.346583 0.564196 -0.259980
0.347284 0.616960 -0.261795
0.372276 0.562184 -0.263786
0.362340 0.591985 -0.262584
0.319265 0.622368 -0.333258
0.322065 0.669036 -0.331697
0.318362 0.662011 -0.258072
0.322782 0.702668 -0.325068
0.318072 0.702686 -0.264100
0.361679 0.632176 -0.326866
0.338416 0.676944 -0.329467
0.367215 0.641202 -0.326475
0.387347 0.635007 -0.307210
0.387476 0.638524 -0.298004
0.380841 0.652171 -0.325093
0.387472 0.665638 -0.293276
0.341209 0.619182 -0.260817
0.354208 0.639956 -0.262812
0.349606 0.652395 -0.262360
0.381719 0.617361 -0.265496
0.384052 0.644788 -0.265921
0.341682 0.702139 -0.305871
0.346308 0.699967 -0.293332
0.358272 0.694534 -0.285364
0.378058 0.682199 -0.325907
0.386658 0.680660 -0.273545
0.350528 0.691599 -0.264546
-0.388347 -0.102794 -0.308633
-0.388509 -0.104712 -0.297197
-0.388048 -0.079877 -0.279315
-0.384289 -0.051988 -0.324266
-0.388510 -0.064892 -0.287610
-0.387591 -0.059200 -0.273279
-0.348529 -0.063337 -0.325950
-0.335529 -0.058026 -0.312947
-0.335691 -0.058825 -0.279444
-0.386230 -0.072141 -0.255383
-0.387033 -0.012749 -0.319713
-0.377918 -0.024806 -0.326364
-0.388404 -0.015528 -0.284059
-0.387557 0.010328 -0.317796
-0.388507 -0.003015 -0.294436
-0.388394 0.005093 -0.282728
-0.350185 -0.029990 -0.326387
-0.335139 -0.040139 -0.293067
-0.336197 -0.026334 -0.271546
-0.348180 -0.010820 -0.325858
-0.335422 0.018928 -0.310291
-0.335510 0.009207 -0.275390
-0.386306 -0.010336 -0.261089
-0.369827 0.019645 -0.259569
-0.336345 -0.005738 -0.268954
-0.388124 0.033538 -0.315723
-0.388308 0.039769 -0.310218
-0.388428 0.021593 -0.279601
-0.388286 0.062672 -0.311113
-0.369152 0.081971 -0.326472
-0.388503 0.077332 -0.292072
-0.339853 0.035334 -0.323163
-0.335201 0.038248 -0.303791
-0.335141 0.052582 -0.291794
-0.338602 0.061485 -0.321082
-0.335232 0.087014 -0.308514
-0.335310 0.082348 -0.274716
-0.367000 0.028902 -0.261751
-0.370829 0.064621 -0.263861
-0.352104 0.050435 -0.263980
-0.359039 0.056051 -0.263842
-0.345139 0.074104 -0.264863
-0.388440 0.119772 -0.304808
-0.388501 0.091613 -0.288850
-0.379152 0.121974 -0.326044
-0.375723 0.120940 -0.326391
-0.388401 0.120805 -0.277541
-0.359368 0.112159 -0.326402
-0.346974 0.108293 -0.325423
-0.335141 0.106926 -0.290479
-0.362648 0.145765 -0.326466
-0.348688 0.151685 -0.325877
-0.335140 0.139934 -0.297937
-0.386434 0.107402 -0.266878
-0.387962 0.151327 -0.271860
-0.364733 0.104563 -0.263911
-0.355534 0.135804 -0.264245
-0.339706 0.147703 -0.266152
-0.378417 0.172283 -0.326298
-0.388500 0.159742 -0.287085
-0.387479 0.203888 -0.318080
-0.388351 0.209179 -0.308473
-0.388366 0.202323 -0.274717
-0.354939 0.179362 -0.326316
-0.338484 0.179241 -0.321023
-0.335187 0.169761 -0.282556
-0.351390 0.206776 -0.326247
-0.338230 0.216327 -0.320569
-0.335204 0.201264 -0.281460
-0.382956 0.174557 -0.265155
-0.383408 0.209128 -0.265239
-0.358381 0.160928 -0.264190
-0.346906 0.173081 -0.264791
-0.338584 0.199329 -0.267884
-0.387900 0.244574 -0.316539
-0.388507 0.229466 -0.298281
-0.388422 0.237257 -0.279253
-0.388261 0.282330 -0.312156
-0.388501 0.261536 -0.289058
-0.360535 0.231019 -0.326425
-0.336114 0.247669 -0.316789
-0.335298 0.225194 -0.275487
-0.360410 0.268127 -0.326423
-0.337608 0.269834 -0.319459
-0.335318 0.265287 -0.274246
-0.382725 0.244063 -0.265077
-0.386415 0.262083 -0.266817
-0.355152 0.228645 -0.263917
-0.349962 0.244468 -0.264023
-0.347373 0.254490 -0.264474
-0.388493 0.297073 -0.302640
-0.375380 0.309565 -0.326395
-0.388397 0.314223 -0.277223
-0.385108 0.345487 -0.323983
-0.388501 0.326665 -0.289150
-0.352245 0.288046 -0.326263
-0.335266 0.296557 -0.310960
-0.335140 0.298139 -0.297164
-0.362813 0.331831 -0.326588
-0.331798 0.327097 -0.306402
-0.333149 0.326957 -0.277202
-0.367072 0.300549 -0.263764
-0.376722 0.322058 -0.264014
-0.359625 0.307016 -0.263831
-0.350679 0.321677 -0.263899
-0.338881 0.347336 -0.263284
-0.319715 0.342025 -0.294095
-0.388431 0.364128 -0.305181
-0.374741 0.384997 -0.326402
-0.388473 0.377157 -0.283403
-0.385149 0.420299 -0.323969
-0.388501 0.391831 -0.288758
-0.349291 0.359516 -0.327876
-0.340533 0.376490 -0.329129
-0.345547 0.391898 -0.328730
-0.386235 0.384130 -0.266230
-0.387699 0.410136 -0.271002
-0.359954 0.378065 -0.263166
-0.358207 0.397815 -0.262917
-0.340891 0.403275 -0.260857
-0.381203 0.450578 -0.325334
-0.388502 0.422071 -0.289700
-0.386935 0.458249 -0.320070
-0.388357 0.477000 -0.308226
-0.388469 0.453529 -0.283136
-0.352908 0.445400 -0.328190
-0.350415 0.458104 -0.328571
-0.341586 0.478124 -0.330080
-0.370443 0.450790 -0.263396
-0.373769 0.456026 -0.263417
-0.361079 0.436414 -0.263268
-0.352544 0.458215 -0.261300
-0.326732 0.353808 -0.325630
-0.310361 0.368368 -0.331114
-0.307973 0.389240 -0.333228
-0.320742 0.383257 -0.258673
-0.326623 0.423883 -0.331933
-0.307686 0.444475 -0.334787
-0.309036 0.470068 -0.335077
-0.317949 0.462012 -0.256500
-0.386304 0.519652 -0.322376
-0.368742 0.515510 -0.326469
-0.388450 0.508986 -0.281529
-0.385621 0.553495 -0.323804
-0.388500 0.520529 -0.286849
-0.357616 0.485247 -0.327632
-0.348141 0.504830 -0.329048
-0.343763 0.528049 -0.329807
-0.386135 0.515029 -0.265902
-0.380271 0.551177 -0.264485
-0.351976 0.500876 -0.260235
-0.338708 0.506922 -0.258195
-0.332209 0.525668 -0.257092
-0.388433 0.551900 -0.305074
-0.375500 0.581265 -0.326337
-0.388461 0.579437 -0.282421
-0.383452 0.612066 -0.324522
-0.388505 0.591181 -0.295417
-0.360012 0.555915 -0.327281
-0.341510 0.571780 -0.330060
-0.338938 0.599704 -0.330281
-0.386637 0.578659 -0.267540
-0.385344 0.609981 -0.265700
-0.353958 0.555469 -0.260551
-0.333954 0.574742 -0.257605
-0.333702 0.595474 -0.258387
-0.325475 0.511148 -0.333062
-0.330455 0.540230 -0.332107
-0.318792 0.502822 -0.255802
-0.322946 0.577651 -0.333347
-0.321112 0.601509 -0.333419
-0.320552 0.562618 -0.255986
-0.386508 0.627846 -0.321631
-0.388431 0.645498 -0.305157
-0.388477 0.625038 -0.283728
-0.385295 0.664195 -0.323917
-0.371706 0.670320 -0.326507
-0.388369 0.671758 -0.282381
-0.342738 0.627759 -0.329384
-0.361923 0.676960 -0.326975
-0.382027 0.649497 -0.264910
-0.386658 0.660078 -0.267629
-0.357706 0.622831 -0.262813
-0.336616 0.642642 -0.260260
-0.341037 0.679308 -0.261397
-0.373899 0.691980 -0.310888
-0.368167 0.692381 -0.279163
-0.343480 0.694823 -0.325054
-0.361621 0.693546 -0.294362
-0.346357 0.699186 -0.282795
-0.343676 0.684475 -0.261602
-0.329175 0.648118 -0.331103
-0.318422 0.677777 -0.331928
-0.330095 0.621790 -0.258956
-0.324275 0.675830 -0.259309
-0.308952 0.686538 -0.332171
-0.324310 0.709402 -0.287673
-0.320192 0.705013 -0.269586
