ply
format ascii 1.0
element vertex 1000
property float x
property float y
property float z
end_header
-0.226350 -0.089971 -0.317165
0.236719 -0.090119 -0.317097
-0.096676 -0.085204 -0.319332
0.266973 -0.085670 -0.319121
0.089842 -0.090977 -0.316707
-0.337298 -0.092129 -0.289432
-0.337298 -0.087810 -0.058354
0.306418 -0.078127 -0.322244
0.095860 -0.083126 -0.320271
0.214666 -0.079655 -0.321641
0.336268 -0.083644 -0.294963
0.336268 -0.088998 0.093444
-0.101752 -0.092804 -0.283041
0.245313 -0.092804 0.333653
-0.225983 -0.092804 -0.237482
0.179593 -0.092804 -0.239273
0.269896 -0.092804 0.300601
0.216074 -0.092804 -0.203845
0.244634 -0.092804 -0.005815
0.054198 -0.092804 -0.093365
0.287805 -0.092804 0.184433
-0.022339 -0.092804 -0.242003
0.323302 -0.092804 0.098613
0.132051 -0.092804 0.100335
-0.006516 -0.092804 -0.133833
0.165580 -0.092804 0.092464
0.279449 -0.092804 0.133014
0.107896 -0.092804 0.143136
-0.122398 -0.092804 -0.252809
0.089270 -0.092804 0.078142
-0.055704 -0.092804 -0.121861
0.275012 -0.092804 0.014547
0.163297 -0.092804 0.184320
0.200505 -0.092804 -0.099150
-0.159042 -0.092804 -0.211938
0.218199 -0.092804 -0.009190
0.085901 -0.092804 -0.259625
-0.148778 -0.092804 -0.220417
-0.144536 -0.092804 -0.281777
0.226236 -0.092804 -0.136413
0.190094 -0.092804 -0.311371
0.318669 -0.092804 0.348611
0.264362 -0.092804 0.317615
0.111455 -0.092804 0.162042
0.000079 -0.092804 -0.183305
-0.206177 -0.092804 -0.162631
-0.013262 -0.092804 -0.086382
-0.040389 -0.092804 -0.304727
0.212591 -0.092804 0.079820
0.197399 -0.092804 0.210728
-0.090422 -0.092804 -0.199514
0.298185 -0.092804 -0.194094
0.256556 -0.092804 -0.192133
0.206494 -0.092804 0.001909
-0.146431 -0.092804 -0.102841
0.133630 -0.092804 0.189336
-0.118187 -0.092804 -0.249296
-0.214274 -0.092804 -0.293483
-0.028900 -0.092804 -0.098290
0.163553 -0.092804 -0.203837
-0.076403 -0.092804 -0.280719
0.241534 -0.092804 0.022495
-0.101644 -0.092804 -0.112671
0.238685 -0.092804 0.121133
-0.079482 -0.092804 -0.044806
0.121278 -0.092804 -0.229696
0.178049 -0.092804 -0.168169
-0.107139 -0.092804 -0.306479
-0.016964 -0.092804 -0.167038
-0.038771 -0.092804 -0.083313
0.072691 -0.092804 0.164344
0.305394 -0.092804 -0.057088
0.318306 -0.092804 0.474317
-0.177921 -0.092804 -0.284709
0.280576 -0.092804 0.092222
0.263208 -0.092804 -0.228137
-0.144183 -0.092804 -0.267355
0.236011 -0.092804 -0.080732
0.090503 -0.092804 -0.044084
0.002227 -0.092804 -0.306969
0.220085 -0.092804 -0.128691
0.090636 -0.092804 -0.143449
0.044947 -0.092804 -0.152546
0.107215 -0.092804 0.114620
0.219084 -0.092804 -0.275709
0.307436 -0.092804 0.240093
0.220072 -0.092804 0.120955
0.325483 -0.092804 -0.228689
-0.071235 -0.092804 -0.231882
-0.226135 -0.092804 -0.315298
0.132586 -0.092804 -0.142815
0.232347 -0.092804 0.310043
0.218202 -0.092804 -0.256883
-0.018386 -0.092804 -0.211100
-0.126139 -0.092804 -0.114144
-0.212733 -0.092804 -0.242376
-0.035240 -0.092804 -0.219482
0.042353 -0.092804 -0.039454
0.157798 -0.092804 0.158593
0.119783 -0.092804 -0.284171
0.233639 -0.092804 -0.079398
0.204539 -0.092804 -0.200139
0.245404 -0.092804 0.154571
0.084675 -0.092804 -0.129573
0.248877 -0.092804 -0.072977
0.129416 -0.092804 -0.119961
-0.309449 -0.092804 -0.309872
0.152037 -0.092804 -0.308153
0.219946 -0.092804 0.220307
0.224533 -0.092804 0.102775
0.065860 -0.092804 -0.036334
0.269627 -0.092804 0.027234
-0.095332 -0.092804 -0.196402
-0.030408 -0.092804 -0.194540
0.329222 -0.092804 0.368992
0.213359 -0.092804 -0.146147
0.255052 -0.092804 0.022163
0.179744 -0.092804 -0.155505
0.002982 -0.092804 -0.074319
-0.110089 -0.092804 -0.155142
0.062189 -0.092804 -0.214439
-0.076094 -0.092804 -0.123363
0.071474 -0.092804 0.076196
0.192954 -0.092804 0.002401
0.117698 -0.092804 0.101966
0.215681 -0.092804 -0.191198
0.014543 -0.092804 -0.055156
0.202358 -0.092804 0.173097
0.251731 -0.092804 0.107425
0.113419 -0.092804 -0.129727
-0.271199 -0.092804 -0.259539
-0.133905 -0.092804 -0.099999
-0.153326 -0.092804 -0.233746
0.255205 -0.092804 0.317676
-0.063297 -0.092804 -0.018676
0.328735 -0.092804 -0.052714
0.159230 -0.092804 0.184780
-0.278260 -0.092804 -0.290539
0.091029 -0.092804 -0.252977
0.064028 -0.092804 0.131197
0.221852 -0.092804 -0.028670
0.316068 -0.092804 0.458543
-0.033063 -0.092804 -0.172745
0.266725 -0.092804 -0.086805
0.177503 -0.092804 0.051167
-0.141647 -0.092804 -0.314519
-0.112666 -0.092804 -0.282289
0.171834 -0.092804 -0.184037
-0.118193 -0.092804 -0.085474
-0.161008 -0.092804 -0.191331
0.228458 -0.092804 0.177380
0.308363 -0.092804 0.340536
0.161918 -0.092804 0.129602
0.202273 -0.092804 0.316698
-0.169712 -0.092804 -0.179084
0.084306 -0.092804 -0.022337
0.005452 -0.092804 0.056786
0.329322 -0.092804 0.002364
0.235245 -0.092804 -0.060773
0.233079 -0.092804 -0.135172
0.047198 -0.092804 0.121840
0.248783 -0.092804 -0.164497
0.171175 -0.092804 -0.119380
0.324687 -0.092804 0.064155
0.066731 -0.092804 -0.057882
0.244263 -0.092804 0.158206
0.180606 -0.092804 -0.146192
-0.005342 -0.092804 -0.313910
0.195853 -0.092804 0.047398
0.097615 -0.092804 0.034663
-0.026940 -0.092804 -0.227305
0.172705 -0.092804 0.089675
0.285890 -0.092804 0.034039
-0.207585 -0.092804 -0.297707
-0.013744 -0.092804 -0.082607
-0.213778 -0.092804 -0.212610
0.181616 -0.092804 -0.050487
0.303414 -0.092804 0.207514
0.309652 -0.092804 0.244227
-0.124381 -0.092804 -0.141946
0.180226 -0.092804 0.160470
0.236219 -0.092804 -0.112945
0.162768 -0.092804 -0.267961
-0.033435 -0.092804 -0.106072
0.104659 -0.092804 -0.109967
0.194578 -0.092804 -0.063054
0.079705 -0.092804 0.133702
-0.005170 -0.092804 0.072816
0.161182 -0.092804 -0.305336
0.057428 -0.092804 -0.276513
0.285309 -0.092804 0.053471
0.127020 -0.092804 -0.220423
-0.092981 -0.092804 -0.029859
-0.337298 -0.088638 0.196734
-0.337298 -0.090839 0.099935
-0.337298 -0.092481 0.070711
-0.337298 -0.082389 -0.119313
-0.337298 -0.081354 0.425249
-0.337298 -0.079362 0.310530
-0.233382 -0.079298 -0.321782
-0.282540 -0.081134 -0.321057
0.336268 -0.075942 0.077889
0.336268 -0.073658 0.231083
0.336268 -0.073752 0.107568
0.336268 -0.085472 0.269653
0.336268 -0.089323 0.501176
-0.170639 -0.092804 0.217845
-0.088551 -0.092804 0.380295
0.112178 -0.092804 0.460223
0.012775 -0.092804 0.391091
0.085411 -0.092804 0.476276
-0.062063 -0.092804 0.476505
-0.112167 -0.092804 0.469478
-0.011675 -0.092804 0.474434
-0.168975 -0.092804 0.226150
0.272839 -0.092804 0.492732
-0.191402 -0.092804 0.134699
-0.307170 -0.092804 0.409543
-0.278093 -0.092804 0.107553
-0.166815 -0.092804 0.477275
-0.132506 -0.092804 0.437265
0.074230 -0.092804 0.194727
-0.304219 -0.092804 -0.037612
-0.032662 -0.092804 0.226948
0.119902 -0.092804 0.336277
0.073540 -0.092804 0.342309
-0.167653 -0.092804 0.364141
-0.228228 -0.092804 0.102488
0.091375 -0.092804 0.391351
-0.258399 -0.092804 0.445180
-0.011286 -0.092804 0.399152
0.179658 -0.092804 0.470899
-0.212299 -0.092804 0.266740
-0.334070 -0.092804 0.449701
-0.268614 -0.092804 0.243306
-0.118967 -0.092804 0.298626
-0.084669 -0.092804 0.454618
-0.108997 -0.092804 0.256050
0.162496 -0.092804 0.379451
-0.042401 -0.092804 0.314288
-0.288084 -0.092804 0.372487
-0.054596 -0.092804 0.393366
-0.020060 -0.092804 0.086319
-0.054988 -0.092804 0.122187
-0.188945 -0.092804 -0.024302
0.168070 -0.092804 0.378375
-0.312328 -0.092804 -0.249466
-0.310897 -0.092804 -0.248217
-0.314487 -0.092804 -0.127077
-0.089824 -0.092804 -0.007248
0.112155 -0.092804 0.339422
0.190246 -0.092804 0.392546
-0.222373 -0.092804 0.416200
0.126877 -0.092804 0.438698
-0.041315 -0.092804 0.067119
-0.271792 -0.092804 -0.146949
-0.206519 -0.092804 0.340170
0.141339 -0.092804 0.384801
-0.249963 -0.092804 0.125649
0.022600 -0.092804 0.262424
0.296509 -0.092804 0.463480
-0.210631 -0.092804 -0.056952
0.130828 -0.092804 0.428738
-0.037824 -0.092804 0.284410
-0.267048 -0.092804 -0.180966
-0.151463 -0.092804 0.072649
-0.249693 -0.092804 -0.202811
0.061493 -0.092804 0.443203
0.004243 -0.092804 0.241899
0.223603 -0.092804 0.405311
-0.100390 -0.092804 0.208399
0.103114 -0.092804 0.279616
-0.134369 -0.092804 0.291502
-0.157550 -0.092804 0.446046
0.064079 -0.092804 0.499218
-0.055447 -0.092804 0.148993
0.009116 -0.092804 0.191135
0.018214 -0.092804 0.410848
-0.091526 -0.092804 0.496982
-0.247818 -0.092804 0.060504
-0.270349 -0.092804 0.477130
0.151323 -0.092804 0.303910
-0.043591 -0.092804 0.228229
-0.051106 -0.092804 0.272312
-0.138120 -0.092804 0.248055
-0.332155 -0.092804 0.235228
-0.227650 -0.092804 -0.143723
-0.207832 -0.092804 0.362634
0.044615 -0.092804 0.387780
-0.257777 -0.092804 -0.201037
-0.215883 -0.092804 0.030010
-0.314005 -0.092804 -0.147488
0.150845 -0.092804 0.352861
-0.217359 -0.092804 0.470300
0.074388 -0.092804 0.445271
-0.237597 -0.092804 -0.067435
-0.125264 -0.092804 0.395224
-0.273568 -0.092804 0.114989
-0.124413 -0.092804 -0.034341
-0.141511 -0.092804 0.131101
0.147181 -0.092804 0.284041
-0.253988 -0.092804 0.438006
0.195149 -0.092804 0.429604
-0.226753 -0.092804 -0.033965
-0.061583 -0.092804 0.041585
-0.262438 -0.092804 -0.189652
-0.326626 -0.092804 0.201056
-0.285222 -0.092804 0.066719
-0.120355 -0.092804 0.209589
-0.334901 -0.092804 0.192596
-0.117746 -0.092804 -0.037803
-0.112113 -0.092804 0.494061
0.016787 -0.092804 0.445538
-0.132881 -0.092804 0.500043
-0.050133 -0.092804 0.205097
0.277920 -0.092804 0.490684
-0.267422 -0.092804 -0.155164
-0.173719 -0.092804 0.454203
-0.289691 -0.092804 0.419656
-0.249320 -0.092804 -0.003324
-0.308334 -0.092804 -0.242453
0.036355 -0.092804 0.447712
0.199080 -0.092804 0.451078
-0.054185 -0.092804 0.079543
-0.012708 -0.092804 0.257498
-0.210752 -0.092804 0.484310
-0.166567 -0.092804 -0.033961
-0.157481 -0.092804 0.279232
0.223382 -0.092804 0.382832
-0.216579 -0.092804 -0.129498
-0.171547 -0.092804 0.168258
-0.316124 -0.092804 0.500584
0.014664 -0.092804 0.385899
-0.301595 -0.092804 0.225000
-0.256776 -0.092804 0.241386
0.233189 -0.092804 0.474498
-0.165122 -0.092804 0.475200
0.048598 -0.092804 0.280744
-0.285538 -0.092804 -0.033569
0.024108 -0.092804 0.398373
0.019123 -0.092804 0.377721
-0.274035 -0.092804 0.138521
0.032076 -0.092804 0.373023
-0.004429 -0.092804 0.391764
-0.227521 -0.092804 0.070089
-0.130363 -0.092804 0.353471
-0.273638 -0.092804 0.145634
0.065605 -0.092804 0.181748
-0.236905 -0.092804 0.389515
-0.335183 -0.092804 -0.115615
0.229161 -0.092804 0.481349
0.024422 -0.092804 0.401048
-0.076270 -0.092804 0.245350
0.034080 -0.092804 0.346155
-0.066388 -0.092804 0.054066
-0.321696 -0.092804 0.013424
-0.195266 -0.092804 0.441088
-0.294678 -0.092804 -0.029513
-0.215449 -0.092804 0.500516
-0.000769 -0.092804 0.184857
0.198985 -0.092804 0.408891
-0.145482 -0.092804 0.207864
0.055628 -0.092804 0.190790
-0.280836 -0.092804 0.477516
-0.125732 -0.092804 0.064745
-0.033152 -0.092804 0.275809
0.094154 -0.092804 0.363129
0.156759 -0.092804 0.374505
0.088126 -0.092804 0.419741
0.097265 -0.092804 0.261787
-0.085158 -0.092804 0.271671
-0.004672 -0.092804 0.369123
-0.250157 -0.092804 0.130531
-0.158973 -0.092804 0.303134
-0.041390 -0.092804 0.199141
0.189722 -0.092804 0.445252
-0.057743 -0.092804 0.093736
-0.102862 -0.092804 0.293361
-0.317691 -0.092804 0.312114
-0.116256 -0.092804 0.414446
-0.333518 -0.092804 0.052022
-0.320381 -0.092804 0.064101
-0.152812 -0.092804 0.046374
-0.098600 -0.092804 0.035041
-0.309247 -0.092804 0.414914
-0.174477 -0.092804 -0.111387
-0.046052 -0.092804 0.210947
0.034363 -0.092237 0.501339
0.284522 -0.092226 0.501344
-0.051999 -0.092508 0.501216
0.040925 -0.083041 0.505510
0.077251 -0.081310 0.506193
-0.337298 -0.080237 -0.129237
-0.337298 -0.077134 0.030556
-0.337298 -0.080008 -0.123295
0.314014 -0.071539 -0.324737
0.027045 -0.071860 -0.324629
0.336268 -0.080342 0.477950
0.336268 -0.083193 0.000423
0.336268 -0.081519 0.217413
0.336268 -0.069073 0.343345
0.336268 -0.073352 -0.032249
0.336268 -0.067867 0.416823
0.318002 -0.089308 0.502671
-0.105877 -0.085790 0.504271
0.298691 -0.074450 0.508901
0.235234 -0.081169 0.506249
-0.337298 -0.071586 0.342098
-0.337298 -0.071079 0.362162
-0.337298 -0.070730 0.162708
-0.027966 -0.065720 -0.326699
0.018662 -0.064610 -0.327074
0.336268 -0.066615 0.020159
0.336268 -0.065523 0.253203
0.336268 -0.065606 -0.060395
-0.136569 -0.063442 0.512673
0.105609 -0.069138 0.510752
0.010118 -0.066790 0.511544
-0.303593 -0.071872 0.509830
-0.047185 -0.073391 0.509318
-0.337298 -0.064313 -0.141739
-0.337298 -0.070971 -0.303998
-0.337298 -0.069544 -0.153864
0.038036 -0.057850 -0.329049
0.310934 -0.053950 -0.330150
0.336268 -0.060786 -0.077372
0.336268 -0.063052 0.460374
0.336268 -0.060395 0.445547
-0.020575 -0.059998 0.513649
0.122567 -0.061816 0.513136
-0.337298 -0.059555 0.292532
-0.337298 -0.058879 0.263277
-0.337298 -0.058347 0.480730
-0.325233 -0.053552 -0.330262
-0.093893 -0.054519 -0.329989
0.336268 -0.054539 -0.010997
0.336268 -0.055154 -0.291704
0.336268 -0.060232 -0.079588
0.314540 -0.055774 0.514841
0.263358 -0.061911 0.513109
0.177353 -0.059564 0.513771
-0.337298 -0.058290 -0.075152
-0.337298 -0.057049 0.058507
0.033364 -0.051510 -0.330751
0.245588 -0.046775 -0.331835
-0.136937 -0.052664 -0.330487
0.336268 -0.049656 -0.019836
0.336268 -0.051714 0.491901
0.336268 -0.051303 -0.070221
-0.156420 -0.047788 0.516809
-0.254416 -0.049803 0.516348
-0.337298 -0.048420 0.428296
-0.337298 -0.051660 -0.087678
-0.337298 -0.047897 0.273863
0.255090 -0.042815 -0.332742
-0.319203 -0.048160 -0.331518
0.336268 -0.050641 -0.272560
0.336268 -0.044883 -0.209358
0.336268 -0.044003 -0.200041
0.311392 -0.047805 0.516805
-0.024588 -0.044221 0.517625
-0.097125 -0.045643 0.517300
-0.337298 -0.048329 -0.139630
-0.337298 -0.051154 -0.206442
-0.337298 -0.050244 -0.329271
-0.152888 -0.042119 -0.332868
-0.238399 -0.041569 -0.332965
0.336268 -0.040639 0.052571
0.336268 -0.040545 -0.028189
0.336268 -0.040769 -0.026092
-0.115253 -0.039389 0.518556
-0.127192 -0.037436 0.518902
-0.337298 -0.039893 -0.064177
-0.337298 -0.037178 0.224394
-0.337298 -0.040753 -0.059714
-0.331570 -0.033345 -0.334421
0.099418 -0.033530 -0.334388
0.336268 -0.036583 -0.206464
0.336268 -0.038141 -0.279518
0.336268 -0.037694 -0.239315
0.271617 -0.032542 0.519768
0.028206 -0.034262 0.519464
0.309995 -0.041216 0.518233
-0.337298 -0.034973 -0.194113
-0.337298 -0.033717 0.103977
-0.337298 -0.040239 -0.187211
0.054921 -0.028003 -0.335151
0.029899 -0.030649 -0.334817
0.336268 -0.031402 0.136988
0.336268 -0.027272 -0.064691
0.336268 -0.030431 0.295558
-0.127159 -0.028014 0.520355
-0.327214 -0.031268 0.519944
-0.337298 -0.032000 0.397387
-0.337298 -0.031759 0.183857
-0.337298 -0.027038 0.463443
-0.216680 -0.028638 -0.335071
-0.299011 -0.025860 -0.335422
-0.159899 -0.026259 -0.335371
0.336268 -0.022006 0.141308
0.336268 -0.025431 0.070076
0.336268 -0.022261 0.098295
0.093200 -0.021860 0.521131
-0.045042 -0.026200 0.520584
-0.337298 -0.026526 0.067312
-0.337298 -0.027907 -0.331022
-0.337298 -0.021912 -0.005532
-0.081493 -0.018929 -0.336161
0.107539 -0.021297 -0.335980
-0.078236 -0.019161 -0.336143
0.336268 -0.017724 -0.167063
0.336268 -0.019520 0.277848
0.336268 -0.021115 -0.030691
-0.043545 -0.021640 0.521159
-0.203577 -0.018701 0.521383
-0.337298 -0.020321 0.507188
-0.337298 -0.015039 0.449506
-0.337298 -0.020611 0.402592
-0.070927 -0.012473 -0.336653
-0.076336 -0.015052 -0.336456
0.336268 -0.013893 0.111502
0.336268 -0.015647 0.449952
0.336268 -0.012992 0.435703
0.262483 -0.011675 0.521919
0.059404 -0.016839 0.521525
-0.110885 -0.011769 0.521912
-0.337298 -0.017420 -0.035462
-0.337298 -0.014947 0.057365
-0.337298 -0.011857 0.072663
0.307042 -0.006905 -0.336876
0.096920 -0.005769 -0.336906
0.336268 -0.004982 -0.266342
0.336268 -0.002556 -0.282033
0.336268 -0.006238 -0.222174
-0.234129 -0.005659 0.522115
-0.294544 -0.004440 0.522148
-0.107905 -0.005443 0.522121
-0.337298 -0.007316 0.099036
-0.337298 -0.004007 0.367709
-0.337298 -0.009491 -0.105899
-0.174139 -0.000638 -0.337043
-0.309370 -0.007259 -0.336866
0.336268 -0.002943 0.313982
0.336268 -0.001905 -0.043541
0.336268 -0.001107 0.075707
0.330020 -0.005899 0.522109
0.298248 -0.004065 0.522158
-0.337298 -0.003793 0.207647
-0.337298 -0.004917 0.046576
-0.337298 -0.000486 -0.121108
0.078256 0.000500 -0.337004
0.336268 0.002594 -0.248745
-0.277798 0.001008 0.522177
-0.337298 0.001538 0.465785
-0.142488 0.003001 -0.336844
0.336268 0.001892 0.244372
-0.337298 0.001569 -0.056227
0.312865 0.005210 -0.336516
0.336268 0.004300 -0.111493
-0.117175 0.003744 0.521953
-0.337298 0.003869 -0.079541
-0.199677 0.004259 -0.336667
0.336268 0.006626 0.106555
-0.337298 0.005473 -0.311415
-0.121483 0.007391 -0.336103
0.336268 0.007261 0.235946
-0.256425 0.007466 0.521289
-0.337298 0.008970 0.378620
0.040367 0.009786 -0.335492
0.336268 0.007773 0.510156
-0.337298 0.007570 -0.135863
0.323933 0.011254 -0.334996
0.336268 0.011147 0.485882
-0.336788 0.011404 0.520147
-0.337298 0.013129 0.496506
-0.271041 0.012926 -0.334396
-0.016846 0.012797 0.519647
-0.337298 0.013217 0.056414
0.333501 0.013459 -0.334191
0.336268 0.015970 0.442905
-0.271738 0.013801 0.519236
-0.267014 0.015259 -0.333346
0.336268 0.015166 -0.262592
0.248157 0.014192 0.519052
-0.337298 0.015893 -0.231423
0.336268 0.017268 0.254794
0.112527 0.016640 0.517878
-0.337298 0.016528 -0.264109
-0.212988 0.018802 -0.331390
0.149095 0.018013 0.517064
-0.337298 0.018326 -0.314665
0.089156 0.020393 -0.330303
0.336268 0.020186 0.136080
-0.337298 0.021537 0.500315
0.027503 0.021135 -0.329757
0.336268 0.020588 0.005759
-0.337298 0.021088 0.012057
0.070720 0.022442 -0.328741
-0.293800 0.022382 0.514001
-0.337298 0.023950 0.302163
-0.327571 0.022255 -0.328910
0.210073 0.024015 0.512528
-0.337298 0.023240 -0.255817
-0.190836 0.025768 -0.325502
-0.033907 0.025332 0.511192
0.182334 0.025422 -0.325886
-0.337298 0.026596 -0.292045
-0.009903 0.025753 0.510725
0.040697 0.027237 -0.323771
0.336268 0.027017 -0.098380
0.213707 0.027592 0.508490
-0.337298 0.028506 0.308106
-0.017975 0.027886 0.508087
-0.315889 0.029933 -0.319663
0.253033 0.029146 0.506228
0.336268 0.028977 0.499128
-0.337298 0.030283 -0.100554
0.336268 0.029894 -0.009809
-0.167612 0.031337 -0.316743
0.140695 0.031312 0.502006
-0.091050 0.031592 -0.316168
-0.271055 0.031412 0.501779
-0.127158 0.033268 -0.299298
0.083490 0.033973 -0.291738
-0.083165 0.032501 -0.307521
-0.301186 0.037278 -0.256314
-0.333515 0.033597 -0.295765
0.070417 0.033321 -0.298725
-0.177072 0.036349 -0.266277
-0.278509 0.032511 -0.307409
-0.084681 0.034156 -0.289773
-0.188229 0.032798 -0.304331
-0.139026 0.034363 -0.287563
-0.063495 0.035249 -0.278059
0.004135 0.032739 -0.304964
0.150516 0.032417 -0.308420
-0.325201 0.032284 -0.309846
-0.337298 0.032390 0.468969
-0.337298 0.033719 0.477340
-0.063705 0.031962 0.498499
0.104101 0.035555 0.459991
0.215761 0.036655 0.448197
-0.215886 0.032512 0.492604
0.179597 0.036196 0.453120
0.267619 0.036160 0.453502
0.244315 0.035841 0.456925
0.048028 0.032585 0.491823
0.253384 0.035081 0.465073
0.231646 0.035917 0.456105
0.296298 0.032499 0.492743
-0.164739 0.033087 0.486441
0.186062 0.031886 0.499309
-0.165100 0.032049 0.497563
0.322143 0.032035 0.497720
0.336268 0.032119 0.200517
0.336268 0.035592 -0.084711
0.208236 0.033093 -0.301174
0.230947 0.037997 -0.248607
0.040236 0.037521 -0.253708
0.146067 0.037178 -0.257390
0.267588 0.036172 -0.268165
0.076356 0.035899 -0.271093
0.181184 0.034224 -0.289045
0.307285 0.032444 -0.308132
-0.059651 0.037256 -0.256547
0.291075 0.032742 -0.304928
0.022951 0.035966 -0.270373
0.300486 0.032480 -0.307737
0.075136 0.035613 -0.274160
-0.152606 0.037051 -0.258753
0.016464 0.037480 -0.254146
-0.337298 0.036627 -0.170212
0.038735 0.037927 0.434562
-0.006724 0.035183 0.463972
0.132946 0.036997 0.444533
-0.228049 0.033697 0.479905
-0.163304 0.034129 0.475269
-0.322459 0.036722 0.447482
0.193020 0.037484 0.439309
-0.170841 0.034065 0.475957
-0.322546 0.032214 0.495798
-0.126009 0.035644 0.459035
-0.279124 0.032745 0.490104
-0.253744 0.032924 0.488187
-0.034321 0.034611 0.470106
-0.194122 0.033520 0.481798
-0.055308 0.036970 0.444825
-0.211709 0.037995 0.433833
0.336268 0.034594 0.182098
-0.007789 0.038368 -0.243891
-0.235572 0.040322 -0.218272
-0.080606 0.039756 -0.225701
0.046648 0.040282 -0.218806
-0.222742 0.038781 -0.238476
-0.100423 0.040444 -0.216672
-0.253037 0.038881 -0.237167
-0.149291 0.038599 -0.240863
0.031087 0.038600 -0.240847
-0.203977 0.040125 -0.220860
-0.005301 0.040235 -0.219421
-0.091117 0.038310 -0.244648
0.161713 0.039108 -0.234198
0.071178 0.039203 -0.232940
-0.264802 0.038197 -0.246138
-0.337298 0.039108 0.066249
0.328847 0.041214 0.391794
-0.019045 0.039144 0.418920
-0.041582 0.039713 0.411463
0.129708 0.038953 0.421424
0.326665 0.041356 0.389933
0.328747 0.042454 0.375534
0.038759 0.039801 0.410307
0.075978 0.038176 0.431622
0.071424 0.039445 0.414975
0.055051 0.038829 0.423048
-0.050261 0.038614 0.425875
0.185954 0.041219 0.391723
-0.107895 0.039480 0.414517
-0.032123 0.039903 0.408970
0.179671 0.041888 0.382953
0.336268 0.038434 -0.065971
0.336268 0.042363 0.335379
0.170147 0.042908 -0.184381
0.209769 0.043164 -0.181016
0.104570 0.042287 -0.192521
0.013294 0.042358 -0.191587
0.204163 0.042359 -0.191575
-0.121127 0.042385 -0.191225
-0.104711 0.042429 -0.190651
-0.167253 0.042326 -0.191999
0.028730 0.042457 -0.190288
0.328249 0.039125 -0.233968
0.329552 0.041571 -0.201907
0.191049 0.040073 -0.221535
-0.131286 0.042210 -0.193527
0.292292 0.038954 -0.236211
0.241758 0.040875 -0.211029
-0.337298 0.041531 -0.037196
-0.013315 0.043243 0.365195
-0.055482 0.042921 0.369416
-0.229241 0.042929 0.369301
-0.317286 0.039879 0.409288
-0.172576 0.042261 0.378069
-0.162970 0.039411 0.415426
-0.043113 0.041742 0.384864
-0.203071 0.041628 0.386366
0.111590 0.041845 0.383514
-0.217468 0.042225 0.378539
-0.265643 0.041275 0.390993
-0.072330 0.040891 0.396022
-0.221595 0.041045 0.394010
-0.212875 0.042373 0.376593
-0.330829 0.042900 0.369688
0.336268 0.040857 0.015542
-0.293865 0.045591 -0.140397
-0.147927 0.044281 -0.162485
-0.172517 0.043835 -0.170008
-0.164467 0.044805 -0.153657
-0.253080 0.043290 -0.179199
-0.151988 0.043532 -0.175124
-0.319429 0.043646 -0.173202
0.192415 0.043735 -0.171691
-0.002817 0.044122 -0.165167
-0.266607 0.045693 -0.138676
0.073339 0.044317 -0.161882
-0.170061 0.045673 -0.139015
0.048726 0.044016 -0.166968
0.230633 0.043283 -0.179332
-0.005298 0.044437 -0.159865
-0.337298 0.044749 0.066279
0.207952 0.044087 0.350962
-0.129570 0.044401 0.345666
-0.173878 0.043345 0.363478
-0.176758 0.044125 0.350326
0.220774 0.043481 0.361190
-0.030919 0.043906 0.354016
-0.138117 0.043798 0.355841
0.292352 0.046538 0.309629
0.136630 0.044371 0.346173
-0.202331 0.043587 0.359409
0.120459 0.043940 0.353451
0.224153 0.046383 0.312245
-0.015121 0.043345 0.363476
0.165065 0.044955 0.336319
0.039573 0.045068 0.334421
-0.077733 0.045737 -0.137935
0.133130 0.046123 -0.131425
0.217982 0.045231 -0.146465
0.199535 0.046715 -0.121429
0.258992 0.046667 -0.122245
0.318321 0.045007 -0.150252
0.107007 0.045378 -0.143987
-0.024828 0.046227 -0.129661
0.022065 0.045813 -0.136645
0.058732 0.046666 -0.122263
0.282002 0.046218 -0.129824
-0.081687 0.046709 -0.121543
0.232222 0.044346 -0.161394
0.125220 0.046705 -0.121606
-0.012332 0.045509 -0.141769
-0.076739 0.047187 -0.113478
-0.295009 0.046171 0.315820
-0.163904 0.046477 0.310661
-0.242598 0.046767 0.305764
-0.262438 0.046933 0.302960
0.207728 0.046558 0.309286
0.084127 0.047038 0.301195
-0.295188 0.045093 0.334003
-0.013645 0.046471 0.310763
-0.058094 0.046849 0.304378
0.175958 0.046971 0.302329
-0.096661 0.045929 0.319904
-0.320944 0.047084 0.300419
-0.101153 0.046083 0.317300
-0.083390 0.046288 0.313839
-0.177845 0.047165 0.299048
0.336268 0.044886 0.173538
-0.227580 0.049245 -0.065502
-0.293671 0.048604 -0.080651
-0.203962 0.049586 -0.057451
-0.116397 0.048774 -0.076640
-0.127557 0.048683 -0.078781
-0.184643 0.047706 -0.101861
0.039668 0.048302 -0.087772
-0.121195 0.048934 -0.072860
-0.208886 0.048727 -0.077749
-0.192905 0.047435 -0.108261
0.052593 0.047531 -0.105993
-0.144279 0.047559 -0.105346
0.017545 0.047750 -0.100826
0.010542 0.047666 -0.102815
0.019016 0.047730 -0.101284
-0.032040 0.048367 0.271458
-0.095883 0.048305 0.272926
0.079511 0.048670 0.264304
0.211518 0.048228 0.274733
0.306045 0.049817 0.237197
-0.084016 0.047649 0.288416
0.146770 0.049119 0.253683
-0.025389 0.047417 0.293893
0.159898 0.047677 0.287743
-0.079503 0.047560 0.290519
0.161367 0.049401 0.247027
0.263511 0.047706 0.287070
-0.020684 0.047972 0.280793
-0.053618 0.048419 0.270223
-0.089177 0.047791 0.285052
0.336268 0.049261 0.019154
0.177714 0.049797 -0.052460
0.320248 0.048826 -0.075414
0.173957 0.048895 -0.073784
0.056120 0.048517 -0.082702
0.284327 0.048214 -0.089864
0.043050 0.049446 -0.060770
0.152175 0.048906 -0.073517
-0.102552 0.049717 -0.054347
-0.143443 0.049751 -0.053566
0.109284 0.048906 -0.073517
0.103516 0.049343 -0.063204
0.029201 0.049837 -0.051522
-0.026448 0.049583 -0.057521
0.214582 0.048920 -0.073195
-0.014434 0.049584 -0.057506
0.209291 0.049882 0.235659
-0.259578 0.049214 0.251447
-0.307233 0.050162 0.229044
-0.170681 0.049865 0.236061
-0.151234 0.049188 0.252061
0.139597 0.049633 0.241547
0.136885 0.049357 0.248073
0.007142 0.048792 0.261409
-0.304369 0.049890 0.235485
-0.326749 0.047602 0.289513
-0.240053 0.048709 0.263365
0.158900 0.049437 0.246168
-0.175634 0.049508 0.244494
-0.312146 0.049217 0.251371
-0.335652 0.047842 0.283858
0.336268 0.048899 0.214444
-0.303492 0.050911 -0.014440
0.018646 0.050753 -0.020651
-0.333045 0.051134 -0.005640
-0.156914 0.051024 -0.010000
0.095090 0.050357 -0.036252
-0.194726 0.051317 0.001571
-0.203468 0.051533 0.010060
-0.083875 0.050860 -0.016426
-0.045644 0.050663 -0.024189
0.092425 0.050182 -0.043141
-0.302521 0.051500 0.008741
-0.331031 0.050680 -0.023517
0.028004 0.050762 -0.020309
-0.249920 0.050422 -0.033688
-0.167741 0.050292 -0.038815
-0.183061 0.050364 0.221176
0.317064 0.051075 0.193168
-0.029116 0.050939 0.198526
0.270664 0.050478 0.216695
0.272182 0.051222 0.187386
0.278742 0.051320 0.183527
0.255129 0.051197 0.188360
0.270012 0.050851 0.202000
0.314236 0.051110 0.191810
0.101743 0.050554 0.213714
-0.137882 0.050403 0.219629
-0.104496 0.050636 0.210464
-0.203066 0.050309 0.223358
-0.244340 0.050382 0.220454
0.131717 0.050463 0.217273
0.260565 0.051336 0.002301
0.120805 0.050886 -0.015411
0.001084 0.051886 0.023967
0.281975 0.051581 0.011957
-0.217747 0.051866 0.023179
-0.079700 0.051771 0.019417
0.114882 0.051502 0.008842
0.252220 0.050504 -0.030475
0.292993 0.051859 0.022876
0.268745 0.050870 -0.016067
0.057787 0.050948 -0.012987
0.055411 0.051640 0.014285
0.061631 0.051578 0.011823
0.101759 0.051112 -0.006505
-0.143670 0.051472 0.007638
0.008154 0.051274 0.185342
-0.111726 0.051710 0.168178
0.088299 0.051292 0.184626
0.274845 0.051870 0.161897
-0.262974 0.050899 0.200095
0.092649 0.051649 0.170583
-0.159843 0.050964 0.197561
-0.108525 0.051260 0.185907
-0.294551 0.050606 0.211643
0.029863 0.051291 0.184696
0.013138 0.051750 0.166603
-0.005630 0.051855 0.162465
-0.176917 0.051440 0.178820
-0.049498 0.051385 0.180972
-0.314342 0.050421 0.218945
0.047461 0.052145 0.053602
0.059230 0.052013 0.037986
-0.158895 0.052182 0.057971
-0.206052 0.052028 0.039780
-0.280974 0.051929 0.028103
-0.011211 0.052089 0.046986
-0.161944 0.052064 0.044070
-0.159153 0.052301 0.072015
-0.069109 0.051926 0.027772
-0.065989 0.052186 0.058496
-0.185543 0.052250 0.065981
-0.242488 0.052321 0.074378
0.143661 0.051910 0.025838
-0.154024 0.052124 0.051137
-0.213803 0.052235 0.064262
-0.019525 0.052006 0.037209
0.012977 0.052185 0.126861
0.102481 0.052155 0.130443
0.009232 0.052001 0.148604
0.233945 0.052237 0.120674
-0.206955 0.051997 0.149081
0.033784 0.052199 0.125163
-0.028475 0.052015 0.146895
0.297798 0.052279 0.115776
0.117539 0.052232 0.121318
-0.007971 0.051993 0.149608
0.100549 0.052175 0.128070
0.108592 0.052075 0.139906
0.103169 0.052209 0.124012
0.062725 0.052231 0.121406
-0.217211 0.051965 0.152918
0.071685 0.052450 0.089626
-0.070324 0.052273 0.068699
0.093157 0.052306 0.072669
0.265149 0.051965 0.032321
0.167489 0.052351 0.078001
0.167841 0.052057 0.043210
0.249647 0.052121 0.050749
-0.030941 0.052363 0.079340
0.091568 0.052396 0.083219
-0.049129 0.052329 0.075400
-0.031382 0.052294 0.071198
-0.002498 0.052474 0.092497
0.106256 0.052329 0.075304
0.302892 0.052014 0.038182
0.267788 0.052096 0.047777
-0.093483 0.052198 0.125272
0.017547 0.052442 0.096479
-0.317330 0.051981 0.150985
-0.304452 0.052175 0.128099
0.001683 0.052393 0.102276
-0.310012 0.052121 0.134395
-0.127870 0.052366 0.105431
-0.038820 0.052409 0.100413
-0.072592 0.052399 0.101524
-0.148469 0.052361 0.106035
-0.136654 0.052128 0.133633
-0.037785 0.052352 0.107104
-0.310656 0.052046 0.143307
0.067613 0.052400 0.101475
0.278639 0.052461 0.094287
