ply
format ascii 1.0
element vertex 1000
property float x
property float y
property float z
end_header
0.334597 -0.778398 -0.315887
0.335189 -0.791327 -0.280376
0.369831 -0.785491 -0.326226
0.386564 -0.792192 -0.300036
0.360299 -0.799262 -0.266962
0.334241 -0.768456 -0.311688
0.334111 -0.764199 -0.287013
0.344678 -0.721698 -0.325091
0.334111 -0.722119 -0.291096
0.380198 -0.751750 -0.325318
0.373446 -0.725082 -0.326408
0.387474 -0.726901 -0.292110
0.361865 -0.769213 -0.263772
0.361391 -0.721068 -0.263782
0.381069 -0.736316 -0.265069
0.364023 -0.706035 -0.326511
0.337943 -0.656563 -0.321953
0.355418 -0.653237 -0.326341
0.369797 -0.682885 -0.326451
0.387294 -0.696766 -0.282472
0.386435 -0.652216 -0.318066
0.344417 -0.697042 -0.264805
0.346613 -0.646388 -0.264423
0.384851 -0.695875 -0.267112
0.339654 -0.634059 -0.323768
0.334111 -0.638922 -0.293015
0.336630 -0.584701 -0.319591
0.334110 -0.585946 -0.299855
0.385830 -0.610179 -0.320262
0.366853 -0.601254 -0.326486
0.387474 -0.600055 -0.293160
0.349490 -0.631899 -0.264007
0.360794 -0.583646 -0.263793
0.384495 -0.601725 -0.266009
0.334275 -0.544961 -0.314166
0.334182 -0.550752 -0.280938
0.356243 -0.530544 -0.326357
0.376242 -0.545103 -0.326374
0.387477 -0.569069 -0.300427
0.387415 -0.542171 -0.304473
0.386774 -0.513475 -0.273315
0.335375 -0.536579 -0.271308
0.386139 -0.565498 -0.271195
0.334966 -0.503283 -0.316599
0.334110 -0.500349 -0.298230
0.334138 -0.472593 -0.304081
0.334138 -0.464104 -0.283468
0.387204 -0.505035 -0.312954
0.387422 -0.479366 -0.284730
0.387474 -0.471403 -0.293740
0.336462 -0.478152 -0.269579
0.356404 -0.472901 -0.263879
0.363941 -0.451305 -0.261597
0.347971 -0.419075 -0.325957
0.334111 -0.424025 -0.286490
0.363407 -0.395871 -0.326498
0.375010 -0.437349 -0.326389
0.387475 -0.438183 -0.296072
0.382747 -0.400894 -0.324426
0.387472 -0.379413 -0.288172
0.341747 -0.397505 -0.255030
0.375170 -0.416100 -0.250065
0.384127 -0.410715 -0.269181
0.344812 -0.357137 -0.325126
0.334111 -0.357468 -0.286045
0.353929 -0.340317 -0.326311
0.375446 -0.364075 -0.326384
0.387476 -0.373727 -0.296764
0.380137 -0.341589 -0.325339
0.387477 -0.316819 -0.299702
0.348460 -0.372123 -0.252299
0.360161 -0.323531 -0.263806
0.369901 -0.342119 -0.262441
0.348735 -0.284518 -0.326158
0.334110 -0.282358 -0.297756
0.334163 -0.253193 -0.305899
0.334175 -0.257852 -0.281354
0.387475 -0.305399 -0.295560
0.385100 -0.263118 -0.322910
0.387475 -0.257328 -0.295476
0.356915 -0.289304 -0.263866
0.371570 -0.282504 -0.263991
0.378752 -0.253601 -0.264636
0.355733 -0.227206 -0.326347
0.345301 -0.195351 -0.325268
0.334126 -0.208071 -0.296947
0.378018 -0.230843 -0.326081
0.387476 -0.214208 -0.298100
0.387255 -0.189881 -0.310940
0.346363 -0.212910 -0.264467
0.336326 -0.192116 -0.269781
0.370028 -0.200741 -0.263935
0.321714 -0.155809 -0.319388
0.327182 -0.128894 -0.268412
0.315860 -0.086426 -0.301440
0.356156 -0.175745 -0.326363
0.350555 -0.132411 -0.326304
0.377705 -0.145920 -0.326190
0.367457 -0.127819 -0.326479
0.387095 -0.139298 -0.280244
0.353581 -0.168167 -0.263930
0.351554 -0.112828 -0.260068
0.374423 -0.120518 -0.261876
0.372502 -0.109002 -0.326419
0.385319 -0.114130 -0.268171
0.353175 -0.782821 0.449094
0.346829 -0.749250 0.449982
0.356250 -0.726009 0.449005
0.372175 -0.734941 0.449033
0.347537 -0.801386 0.494392
0.346467 -0.783486 0.509901
0.384362 -0.798731 0.463151
0.385432 -0.788165 0.503310
0.345982 -0.765677 0.509679
0.334171 -0.728423 0.484891
0.338246 -0.722105 0.504125
0.387460 -0.755318 0.480529
0.387224 -0.732945 0.465498
0.383340 -0.730829 0.506705
0.362460 -0.689213 0.448945
0.375758 -0.696394 0.449081
0.386766 -0.671761 0.460966
0.355431 -0.632421 0.449013
0.361741 -0.577562 0.448952
0.365381 -0.580055 0.448941
0.334311 -0.692293 0.468765
0.351408 -0.684075 0.511382
0.335008 -0.672299 0.496027
0.387348 -0.692782 0.493255
0.386985 -0.682799 0.495928
0.367147 -0.674646 0.511311
0.334233 -0.637516 0.492170
0.351222 -0.641610 0.511382
0.346476 -0.595613 0.509967
0.387331 -0.631376 0.470551
0.379664 -0.636796 0.509347
0.387452 -0.580479 0.481051
0.339926 -0.559339 0.452726
0.347594 -0.513618 0.449678
0.386062 -0.553994 0.457933
0.345983 -0.504384 0.450319
0.335997 -0.446513 0.459350
0.384569 -0.509545 0.452925
0.334413 -0.569785 0.464282
0.339402 -0.558409 0.505866
0.334406 -0.515744 0.464620
0.359174 -0.540540 0.511391
0.375726 -0.573402 0.511041
0.387369 -0.528014 0.490752
0.386811 -0.513125 0.496823
0.336289 -0.495921 0.499232
0.334237 -0.476116 0.492595
0.351412 -0.469626 0.511309
0.387474 -0.483233 0.478448
0.387369 -0.470295 0.490755
0.378424 -0.476776 0.510291
0.347828 -0.420707 0.438608
0.371487 -0.436218 0.446174
0.380267 -0.394392 0.440732
0.336122 -0.348609 0.459058
0.348735 -0.324798 0.449225
0.383549 -0.357478 0.451229
0.334133 -0.438617 0.480328
0.338253 -0.414516 0.504140
0.334190 -0.382791 0.487072
0.358721 -0.389393 0.511541
0.373808 -0.417346 0.510859
0.387256 -0.385349 0.468160
0.334347 -0.369607 0.465566
0.339145 -0.358499 0.505717
0.334157 -0.322670 0.475457
0.349798 -0.319997 0.511399
0.373409 -0.370710 0.511422
0.387466 -0.315748 0.476910
0.386986 -0.318788 0.496097
0.337497 -0.264779 0.456261
0.371940 -0.286775 0.449029
0.385871 -0.257909 0.457111
0.358360 -0.213513 0.448985
0.373206 -0.221407 0.449046
0.382109 -0.205556 0.451639
0.339295 -0.306805 0.505804
0.334127 -0.262623 0.476761
0.334391 -0.254517 0.494484
0.387430 -0.289475 0.485246
0.387468 -0.272151 0.476990
0.386220 -0.278654 0.500145
0.334204 -0.211957 0.488713
0.363817 -0.214037 0.511717
0.335485 -0.181432 0.504606
0.387413 -0.226126 0.474376
0.385758 -0.217115 0.502588
0.365494 -0.187939 0.511693
0.362247 -0.169996 0.448940
0.371571 -0.144027 0.449024
0.335986 -0.067153 0.441171
0.387131 -0.078198 0.461074
0.325217 -0.149950 0.507145
0.334692 -0.150612 0.509006
0.359913 -0.143821 0.511678
0.371767 -0.176317 0.511478
0.387446 -0.131054 0.482874
0.386135 -0.130797 0.500591
0.328282 -0.075540 0.471205
0.341215 -0.051072 0.506904
0.387238 -0.089001 0.463165
0.383862 -0.087372 0.506466
0.370017 -0.055283 0.511538
0.336757 -0.041362 0.430323
0.336747 -0.005099 0.449505
0.386192 -0.017828 0.448318
0.334252 -0.028006 0.465528
0.360009 -0.016616 0.511630
0.349490 0.007079 0.486955
0.387433 -0.030215 0.484683
0.385326 -0.031699 0.504811
0.379544 0.006845 0.488255
-0.386744 -0.796211 -0.299414
-0.378500 -0.802110 -0.296249
-0.350192 -0.802120 -0.304544
-0.355899 -0.802215 -0.273394
-0.388167 -0.786298 -0.272855
-0.386334 -0.754535 -0.322267
-0.388506 -0.770372 -0.297817
-0.387693 -0.713417 -0.317297
-0.388505 -0.718558 -0.294853
-0.338686 -0.751088 -0.321081
-0.351197 -0.735780 -0.326415
-0.335563 -0.715059 -0.314429
-0.387138 -0.743695 -0.269175
-0.360335 -0.766343 -0.263818
-0.355294 -0.710897 -0.263914
-0.378630 -0.687295 -0.326224
-0.388500 -0.683736 -0.287289
-0.369396 -0.648908 -0.326469
-0.356383 -0.687836 -0.326453
-0.335140 -0.696170 -0.301334
-0.348968 -0.674531 -0.326066
-0.335141 -0.658992 -0.290496
-0.378854 -0.661852 -0.264155
-0.335594 -0.698414 -0.272604
-0.348718 -0.649055 -0.264240
-0.367605 -0.621745 -0.326491
-0.388262 -0.608510 -0.312128
-0.388358 -0.599029 -0.274097
-0.335495 -0.630112 -0.312426
-0.335231 -0.621798 -0.279770
-0.347259 -0.585483 -0.325615
-0.386928 -0.639946 -0.268489
-0.369317 -0.581093 -0.263822
-0.359991 -0.605715 -0.263824
-0.388449 -0.563022 -0.304433
-0.388508 -0.557917 -0.300889
-0.368474 -0.536287 -0.326481
-0.353993 -0.564022 -0.326435
-0.335313 -0.548903 -0.307071
-0.360919 -0.513725 -0.326486
-0.335299 -0.542150 -0.275406
-0.365427 -0.552633 -0.263722
-0.351590 -0.550285 -0.263985
-0.341061 -0.538951 -0.265573
-0.369525 -0.506511 -0.326468
-0.379565 -0.465530 -0.325901
-0.388501 -0.471459 -0.288947
-0.345881 -0.508612 -0.325251
-0.335235 -0.488972 -0.290396
-0.337454 -0.457815 -0.318507
-0.386094 -0.503837 -0.265878
-0.385595 -0.449930 -0.265208
-0.343390 -0.481146 -0.265167
-0.381937 -0.433595 -0.325080
-0.388504 -0.438029 -0.294330
-0.380201 -0.377612 -0.325681
-0.388488 -0.380467 -0.284385
-0.346547 -0.412000 -0.325427
-0.358719 -0.402033 -0.326470
-0.335475 -0.400444 -0.289082
-0.386519 -0.412930 -0.268391
-0.351574 -0.428029 -0.255116
-0.348195 -0.399253 -0.237862
-0.388215 -0.374286 -0.314025
-0.388482 -0.363659 -0.284191
-0.388371 -0.316155 -0.307620
-0.388359 -0.321476 -0.274138
-0.335145 -0.347983 -0.302135
-0.351741 -0.321126 -0.326419
-0.335140 -0.337949 -0.298506
-0.386692 -0.348801 -0.267717
-0.346558 -0.372327 -0.252399
-0.352534 -0.327070 -0.263971
-0.384123 -0.283661 -0.324324
-0.388457 -0.279145 -0.282094
-0.370984 -0.254406 -0.326450
-0.359554 -0.289784 -0.326476
-0.335140 -0.296302 -0.300731
-0.346359 -0.272487 -0.325377
-0.335141 -0.256901 -0.289634
-0.387033 -0.265890 -0.268831
-0.346382 -0.297661 -0.264647
-0.345789 -0.251229 -0.264750
-0.374309 -0.219658 -0.326408
-0.388475 -0.204652 -0.303352
-0.388450 -0.211186 -0.281569
-0.335485 -0.240386 -0.312131
-0.335312 -0.227629 -0.274609
-0.348168 -0.182377 -0.325858
-0.386541 -0.240287 -0.267227
-0.378297 -0.190888 -0.264054
-0.360702 -0.210732 -0.263811
-0.388354 -0.169767 -0.308340
-0.388505 -0.146636 -0.296072
-0.388262 -0.125789 -0.312106
-0.363239 -0.176162 -0.326510
-0.353028 -0.126895 -0.326471
-0.387822 -0.157901 -0.271403
-0.353414 -0.163861 -0.263950
-0.351271 -0.139851 -0.263998
-0.353449 -0.104651 -0.326456
-0.376573 -0.107849 -0.256692
-0.324658 -0.120947 -0.319863
-0.366065 -0.800462 0.457958
-0.387172 -0.760648 0.457576
-0.382978 -0.716382 0.451636
-0.336540 -0.747816 0.460447
-0.349372 -0.710712 0.449388
-0.369415 -0.802343 0.480018
-0.354809 -0.802380 0.478542
-0.355924 -0.800694 0.499188
-0.388479 -0.751745 0.473796
-0.368651 -0.756885 0.511511
-0.381380 -0.715266 0.509231
-0.335384 -0.751601 0.466938
-0.349377 -0.754654 0.510863
-0.364153 -0.711269 0.511717
-0.387150 -0.688626 0.457480
-0.366456 -0.650970 0.448956
-0.353732 -0.668379 0.449039
-0.387187 -0.606826 0.457639
-0.375230 -0.596143 0.449208
-0.347098 -0.612944 0.450296
-0.388485 -0.708062 0.474474
-0.387214 -0.691901 0.499633
-0.388320 -0.653233 0.488740
-0.335425 -0.705064 0.465126
-0.335768 -0.701118 0.495072
-0.335233 -0.657967 0.482348
-0.340827 -0.662187 0.506175
-0.380968 -0.611082 0.509544
-0.388507 -0.577289 0.477261
-0.367250 -0.586084 0.511700
-0.350324 -0.620420 0.511570
-0.335147 -0.578521 0.477250
-0.338311 -0.589073 0.501426
-0.387096 -0.538938 0.457245
-0.336069 -0.566271 0.461429
-0.347190 -0.532140 0.450259
-0.387361 -0.464014 0.458390
-0.361329 -0.486334 0.448965
-0.338208 -0.466106 0.456974
-0.388430 -0.549175 0.482255
-0.388498 -0.538209 0.476035
-0.386536 -0.516747 0.503211
-0.335184 -0.551990 0.479804
-0.335292 -0.538006 0.470946
-0.350153 -0.524131 0.511568
-0.388480 -0.490295 0.473902
-0.371445 -0.487874 0.511632
-0.386057 -0.456391 0.505682
-0.335400 -0.479742 0.466239
-0.349693 -0.489739 0.511325
-0.356536 -0.468079 0.511636
-0.388098 -0.422335 0.461435
-0.380142 -0.400193 0.436487
-0.348614 -0.438751 0.448352
-0.336391 -0.378464 0.460362
-0.369521 -0.348717 0.447890
-0.364551 -0.349456 0.446440
-0.338336 -0.332751 0.456653
-0.388508 -0.426487 0.477664
-0.388437 -0.405446 0.468203
-0.387093 -0.377718 0.500270
-0.335349 -0.423424 0.488267
-0.335151 -0.408866 0.476981
-0.360786 -0.393299 0.511681
-0.388425 -0.345161 0.466935
-0.371355 -0.358052 0.511633
-0.386132 -0.331869 0.505339
-0.335354 -0.353763 0.466962
-0.338095 -0.350178 0.500886
-0.352942 -0.339318 0.511598
-0.386562 -0.283284 0.454929
-0.367813 -0.263293 0.448995
-0.358376 -0.274851 0.448994
-0.384036 -0.232688 0.452186
-0.369777 -0.200654 0.449052
-0.340592 -0.218119 0.452893
-0.388446 -0.297494 0.469726
-0.379591 -0.282349 0.510589
-0.388464 -0.245740 0.480271
-0.335230 -0.308974 0.473650
-0.338793 -0.309908 0.502630
-0.335317 -0.245285 0.469872
-0.349274 -0.258543 0.511082
-0.387336 -0.235404 0.498986
-0.388418 -0.181283 0.466190
-0.377197 -0.191655 0.511508
-0.365261 -0.224577 0.511728
-0.335417 -0.198981 0.486507
-0.336555 -0.189056 0.504620
-0.386540 -0.130992 0.454813
-0.360510 -0.153436 0.448926
-0.337904 -0.123580 0.451079
-0.386597 -0.069666 0.438292
-0.362027 -0.095605 0.429310
-0.333159 -0.075163 0.450438
-0.326100 -0.082657 0.457802
-0.387261 -0.168576 0.499385
-0.388365 -0.144828 0.486075
-0.377370 -0.127012 0.511510
-0.355089 -0.141889 0.511395
-0.388483 -0.087024 0.469845
-0.366887 -0.087473 0.511411
-0.386843 -0.071768 0.501588
-0.334650 -0.104183 0.508604
-0.357515 -0.070168 0.511322
-0.318237 -0.169908 0.502693
-0.326812 -0.078557 0.487207
-0.386436 -0.025529 0.435890
-0.337669 -0.032191 0.431879
-0.338072 -0.000969 0.452135
-0.381399 -0.034923 0.509216
-0.378555 0.007181 0.468873
-0.371438 0.006872 0.498278
-0.351665 -0.036548 0.511422
-0.363851 0.007244 0.492514
-0.357256 0.004460 0.506899
-0.316358 -0.173561 -0.310944
-0.311368 -0.173095 -0.281608
-0.310772 -0.126619 -0.271255
-0.292823 -0.173976 -0.293175
-0.278714 -0.158478 -0.272511
-0.283505 -0.133433 -0.272211
-0.308676 -0.105030 -0.271531
-0.273400 -0.103175 -0.317867
-0.278054 -0.090921 -0.297922
-0.246383 -0.158389 -0.317888
-0.241842 -0.167952 -0.276097
-0.242481 -0.120334 -0.318034
-0.224138 -0.166175 -0.314495
-0.219811 -0.173446 -0.285482
-0.224058 -0.128419 -0.318034
-0.209846 -0.132344 -0.272211
-0.240883 -0.093586 -0.313273
-0.243179 -0.093188 -0.276447
-0.223129 -0.090920 -0.298460
-0.186602 -0.165910 -0.314641
-0.196900 -0.170353 -0.278092
-0.190555 -0.134251 -0.318034
-0.169146 -0.130955 -0.272211
-0.140324 -0.164043 -0.315666
-0.139196 -0.167152 -0.275732
-0.142224 -0.118827 -0.318034
-0.184336 -0.091980 -0.308859
-0.196724 -0.094001 -0.275941
-0.136429 -0.108132 -0.317961
-0.148985 -0.091038 -0.295719
-0.100052 -0.157010 -0.317903
-0.110134 -0.170278 -0.277914
-0.116264 -0.124529 -0.318034
-0.096048 -0.162865 -0.316313
-0.092074 -0.172108 -0.282285
-0.085525 -0.127388 -0.318034
-0.075848 -0.135747 -0.272544
-0.113113 -0.096959 -0.315806
-0.092039 -0.108608 -0.317970
-0.093471 -0.091881 -0.286246
-0.058660 -0.159736 -0.317873
-0.060610 -0.154340 -0.272752
-0.055803 -0.116704 -0.318034
-0.043924 -0.139363 -0.272544
-0.001831 -0.145528 -0.318030
-0.014686 -0.173585 -0.285813
-0.032254 -0.131592 -0.272558
-0.053018 -0.099578 -0.317773
-0.038594 -0.103961 -0.273717
-0.004013 -0.091076 -0.302718
-0.017098 -0.092135 -0.284118
0.010694 -0.174018 -0.289966
0.025528 -0.146801 -0.272302
0.006767 -0.143352 -0.272377
0.032751 -0.146288 -0.318021
0.044907 -0.153181 -0.272392
0.058549 -0.137839 -0.318034
0.049578 -0.127148 -0.272239
0.013638 -0.090952 -0.296869
0.042392 -0.091615 -0.306382
0.040234 -0.096158 -0.276954
0.086019 -0.171453 -0.308033
0.084737 -0.173933 -0.297050
0.084970 -0.142456 -0.318034
0.097884 -0.113632 -0.272513
0.113327 -0.174003 -0.291252
0.130778 -0.151664 -0.272358
0.107878 -0.112670 -0.272532
0.090170 -0.100201 -0.317810
0.082352 -0.090967 -0.295010
0.098813 -0.105450 -0.273706
0.135878 -0.172502 -0.305295
0.141195 -0.161488 -0.273143
0.146724 -0.133556 -0.318034
0.144215 -0.117210 -0.272326
0.197955 -0.161932 -0.316825
0.187627 -0.173905 -0.299415
0.192302 -0.133017 -0.318034
0.142890 -0.111391 -0.318023
0.145993 -0.091240 -0.287379
0.170666 -0.094104 -0.313662
0.193341 -0.104604 -0.273432
0.221596 -0.167596 -0.313715
0.225215 -0.161354 -0.273082
0.226379 -0.117362 -0.318034
0.251530 -0.171236 -0.308600
0.247739 -0.169805 -0.276944
0.232579 -0.137515 -0.318034
0.243494 -0.125894 -0.272211
0.215676 -0.091455 -0.305295
0.220012 -0.092229 -0.281193
0.237216 -0.090929 -0.299537
0.277179 -0.160527 -0.317596
0.270026 -0.172608 -0.283480
0.277665 -0.115953 -0.318034
0.286223 -0.136112 -0.272212
0.312601 -0.172970 -0.280998
0.280939 -0.109659 -0.317990
0.268832 -0.091007 -0.295598
0.298177 -0.092121 -0.310061
-0.321347 -0.135662 -0.269802
-0.317578 -0.145835 0.454534
-0.313570 -0.122315 0.455166
-0.291912 -0.129596 0.457420
-0.297974 -0.102763 0.457514
-0.308973 -0.175035 0.483194
-0.291588 -0.173819 0.466770
-0.279374 -0.172389 0.494483
-0.268134 -0.127595 0.503239
-0.291002 -0.091120 0.488943
-0.255707 -0.171962 0.462517
-0.259677 -0.120174 0.457421
-0.212683 -0.160665 0.457589
-0.263511 -0.108963 0.457454
-0.211622 -0.091489 0.465073
-0.196441 -0.129659 0.457414
-0.141058 -0.173488 0.464996
-0.146482 -0.117239 0.457424
-0.138713 -0.108284 0.457459
-0.254738 -0.170233 0.497530
-0.243062 -0.130806 0.503239
-0.224005 -0.167515 0.499351
-0.217715 -0.117104 0.503235
-0.248549 -0.091020 0.480659
-0.210646 -0.091343 0.467074
-0.186279 -0.174093 0.474488
-0.181336 -0.169666 0.495116
-0.160497 -0.174030 0.472714
-0.146294 -0.169213 0.496044
-0.133884 -0.116262 0.503235
-0.169077 -0.104300 0.503004
-0.156329 -0.091230 0.491997
-0.109723 -0.159997 0.457504
-0.080652 -0.170719 0.460499
-0.097712 -0.120870 0.457421
-0.113153 -0.093812 0.458631
-0.042865 -0.173441 0.464921
-0.048652 -0.121054 0.457420
-0.022228 -0.132609 0.457414
-0.047029 -0.105927 0.457478
-0.119702 -0.173969 0.478972
-0.100226 -0.157367 0.501620
-0.086415 -0.172482 0.487873
-0.082801 -0.145366 0.503041
-0.126583 -0.090998 0.477829
-0.115177 -0.097437 0.501941
-0.075888 -0.104009 0.502995
-0.060338 -0.170035 0.494105
-0.045243 -0.130588 0.503198
-0.020563 -0.164547 0.499253
-0.024412 -0.125406 0.503082
-0.059431 -0.105900 0.503051
-0.012235 -0.090708 0.476182
0.011749 -0.164067 0.458026
0.021578 -0.140557 0.457414
0.052065 -0.156415 0.457478
-0.000102 -0.091561 0.463567
0.054557 -0.094775 0.458456
0.077489 -0.118765 0.457422
0.128583 -0.162521 0.457828
0.079651 -0.108512 0.457457
0.131782 -0.092332 0.460531
0.013963 -0.145668 0.502813
0.030561 -0.144777 0.503186
0.034950 -0.156702 0.501883
0.062569 -0.133928 0.503014
0.007292 -0.092082 0.496973
0.058081 -0.090725 0.485247
0.090765 -0.174056 0.473459
0.098786 -0.149013 0.502785
0.112056 -0.173297 0.483010
0.130234 -0.150717 0.502585
0.070616 -0.090677 0.479570
0.092584 -0.093233 0.500056
0.123111 -0.101550 0.502581
0.154056 -0.152229 0.457454
0.174750 -0.154149 0.457465
0.182199 -0.136878 0.457414
0.180492 -0.092674 0.459186
0.226778 -0.154744 0.457468
0.241406 -0.169286 0.458696
0.238366 -0.120768 0.457421
0.235396 -0.110135 0.457444
0.154215 -0.172599 0.487202
0.142351 -0.143451 0.503205
0.191789 -0.173934 0.469958
0.168818 -0.131681 0.503138
0.161845 -0.090773 0.474205
0.172648 -0.090823 0.472695
0.181419 -0.092386 0.499376
0.210510 -0.150638 0.502595
0.218184 -0.122099 0.503237
0.236691 -0.150883 0.502566
0.253966 -0.140739 0.503239
0.206482 -0.092044 0.497733
0.260183 -0.090756 0.489079
0.265771 -0.152598 0.457456
0.297499 -0.119225 0.457428
0.307604 -0.091435 0.457899
0.293156 -0.161725 0.500793
0.292702 -0.123454 0.503232
0.267091 -0.090696 0.481890
0.301545 -0.090152 0.467014
0.331850 -0.163495 0.452349
0.327179 -0.113734 0.452106
0.334185 -0.133560 0.451523
0.345064 -0.091587 0.424898
0.298741 -0.174081 0.472210
0.345188 -0.091558 -0.216266
0.337944 -0.069630 -0.202779
0.383566 -0.077653 -0.202075
0.348374 -0.093498 -0.183762
0.361815 -0.094895 -0.160423
0.337901 -0.064246 -0.158688
0.382989 -0.084526 -0.198047
0.378795 -0.090364 -0.141954
0.383704 -0.065300 -0.138227
0.355363 -0.094730 -0.126544
0.353650 -0.094686 -0.070256
0.337946 -0.069920 -0.091628
0.377341 -0.091576 -0.122969
0.383695 -0.075775 -0.118460
0.383707 -0.050927 -0.090174
0.362160 -0.094904 -0.061449
0.337910 -0.065372 -0.062969
0.337920 -0.066646 -0.004658
0.383060 -0.083683 -0.041518
0.383706 -0.062439 -0.066876
0.383707 -0.046551 -0.027507
0.357154 -0.094776 0.014232
0.337994 -0.075886 -0.000812
0.337884 -0.056355 0.033541
0.380809 -0.088687 0.031093
0.383701 -0.068980 0.029281
0.383706 -0.060619 0.050209
0.338577 -0.080139 0.102240
0.337906 -0.064875 0.080258
0.337884 -0.056514 0.111960
0.365485 -0.094720 0.104602
0.383694 -0.052103 0.074314
0.383357 -0.046456 0.118575
0.341591 -0.089371 0.180984
0.337947 -0.069990 0.156628
0.337884 -0.048221 0.192512
0.366095 -0.094583 0.190400
0.383265 -0.051033 0.129804
0.341061 -0.088329 0.207614
0.339956 -0.084685 0.249412
0.337884 -0.049050 0.200870
0.337884 -0.055485 0.257287
0.382251 -0.085407 0.242168
0.383608 -0.050418 0.228569
0.346148 -0.092143 0.272136
0.344996 -0.091442 0.325722
0.337884 -0.057824 0.282381
0.370294 -0.093641 0.267260
0.376293 -0.092124 0.308190
0.383122 -0.072552 0.307207
0.340308 -0.085846 0.355342
0.355715 -0.094739 0.372186
0.337884 -0.061649 0.346845
0.375170 -0.092576 0.349974
0.382724 -0.084016 0.386378
0.383616 -0.065896 0.369815
0.363428 -0.094937 0.400694
0.383334 -0.077968 0.405447
0.384715 -0.064293 0.428892
0.337885 -0.032727 -0.220727
0.337992 -0.014247 -0.217844
0.376101 0.000581 -0.221921
0.337884 -0.029906 -0.160376
0.338466 -0.012835 -0.184483
0.350978 0.001594 -0.162322
0.383707 -0.041958 -0.160933
0.382437 -0.006221 -0.203221
0.337884 -0.032868 -0.134972
0.337884 -0.036627 -0.074426
0.354604 0.001772 -0.127383
0.383707 -0.043734 -0.127060
0.383707 -0.030410 -0.077358
0.378880 -0.001966 -0.118201
0.337884 -0.033141 -0.048353
0.337975 -0.015568 -0.016377
0.345123 -0.001592 -0.029979
0.383658 -0.043148 -0.041749
0.383221 -0.023283 -0.005498
0.369758 0.001573 -0.012984
0.337913 -0.024778 0.012989
0.341988 -0.003510 0.009049
0.344400 -0.002035 0.057588
0.383074 -0.017747 0.008895
0.365189 0.002094 0.011669
0.377988 -0.001359 0.036620
0.337884 -0.043373 0.097845
0.342997 -0.002893 0.090265
0.359751 0.002024 0.105875
0.383548 -0.041854 0.102872
0.382389 -0.010348 0.066350
0.337884 -0.029750 0.133088
0.337884 -0.039339 0.191460
0.356839 0.001881 0.141692
0.383470 -0.040856 0.137527
0.383607 -0.034008 0.182038
0.381691 -0.004287 0.152644
0.337884 -0.031562 0.224287
0.337955 -0.018504 0.256151
0.347934 0.000127 0.231333
0.383696 -0.039938 0.227646
0.383649 -0.026920 0.251735
0.375007 0.000996 0.249663
0.337896 -0.027299 0.275287
0.343374 -0.002662 0.274466
0.349894 0.001326 0.320506
0.383358 -0.016285 0.272205
0.373713 0.001141 0.277237
0.378381 -0.001554 0.299197
0.337884 -0.032564 0.368709
0.343456 -0.002612 0.360364
0.358251 0.001951 0.368603
0.383707 -0.035745 0.377949
0.382326 -0.007740 0.330428
0.377661 -0.000960 0.388218
0.355900 0.001785 0.416779
0.385523 -0.045345 0.439386
0.375495 0.002032 0.429500
-0.384628 -0.078929 -0.209594
-0.384735 -0.062877 -0.219138
-0.339317 -0.080704 -0.238217
-0.342813 -0.089287 -0.214575
-0.339278 -0.074992 -0.205093
-0.367299 -0.094882 -0.190076
-0.384699 -0.076190 -0.197965
-0.384737 -0.053671 -0.165286
-0.341264 -0.084518 -0.182719
-0.339232 -0.073374 -0.191756
-0.339214 -0.072738 -0.151268
-0.368534 -0.094829 -0.129381
-0.384703 -0.074938 -0.126370
-0.384737 -0.045912 -0.088074
-0.340430 -0.081770 -0.108550
-0.339196 -0.072126 -0.126911
-0.339103 -0.068834 -0.077399
-0.372640 -0.094655 -0.044762
-0.384706 -0.073675 -0.057308
-0.384737 -0.054697 -0.029536
-0.345008 -0.090626 -0.039836
-0.339008 -0.065502 -0.054622
-0.339083 -0.068127 -0.015075
-0.376798 -0.094478 0.014185
-0.384718 -0.069325 0.019845
-0.384737 -0.048139 0.045379
-0.349853 -0.093579 0.017644
-0.339015 -0.065733 -0.001969
-0.338914 -0.054434 0.044382
-0.371960 -0.094684 0.086706
-0.384697 -0.077041 0.079807
-0.384737 -0.059385 0.111388
-0.343201 -0.089387 0.085960
-0.339227 -0.072619 0.064621
-0.339381 -0.060300 0.104670
-0.365499 -0.094958 0.152355
-0.384711 -0.071902 0.154491
-0.384737 -0.060476 0.165021
-0.363791 -0.094919 0.175796
-0.339593 -0.062709 0.162419
-0.339319 -0.049218 0.170587
-0.384312 -0.082679 0.235830
-0.384697 -0.076944 0.216522
-0.384737 -0.055071 0.245568
-0.359904 -0.094815 0.236521
-0.339453 -0.069481 0.227694
-0.339029 -0.051332 0.233355
-0.384105 -0.085135 0.314638
-0.384737 -0.053837 0.261996
-0.384737 -0.052786 0.316586
-0.352200 -0.094610 0.298787
-0.339433 -0.068760 0.282213
-0.339213 -0.060488 0.321857
-0.383854 -0.088107 0.374109
-0.384737 -0.046490 0.343176
-0.384737 -0.057801 0.389586
-0.357692 -0.094756 0.361796
-0.339242 -0.068523 0.346750
-0.338914 -0.059475 0.386286
-0.384700 -0.075846 0.399989
-0.342685 -0.089196 0.394893
-0.338915 -0.046303 0.406028
-0.384703 -0.020755 -0.232357
-0.374617 0.001086 -0.235283
-0.338916 -0.030660 -0.224749
-0.341784 -0.006106 -0.230061
-0.384708 -0.021123 -0.185552
-0.384356 -0.012113 -0.196184
-0.376061 0.001010 -0.154855
-0.338914 -0.040949 -0.168847
-0.342393 -0.004284 -0.202127
-0.341362 -0.007335 -0.147883
-0.384737 -0.036123 -0.092097
-0.367233 0.001996 -0.131773
-0.338914 -0.041344 -0.121340
-0.338914 -0.031064 -0.080692
-0.342432 -0.004168 -0.119112
-0.384737 -0.041464 -0.068771
-0.384737 -0.037680 -0.008242
-0.375705 0.001049 -0.048212
-0.338914 -0.031790 -0.042186
-0.338959 -0.022688 -0.006670
-0.357761 0.001875 -0.023845
-0.384737 -0.035688 0.027972
-0.384717 -0.023436 0.046811
-0.384147 -0.010689 0.041822
-0.338974 -0.020544 0.002359
-0.360115 0.001989 0.005967
-0.362654 0.002112 0.062226
-0.384725 -0.025831 0.079013
-0.384257 -0.011439 0.066645
-0.368367 0.001869 0.105640
-0.339059 -0.042673 0.099831
-0.341511 -0.006892 0.071984
-0.349534 0.000431 0.105709
-0.384737 -0.032297 0.175618
-0.384018 -0.009804 0.152616
-0.372561 0.001401 0.191223
-0.338952 -0.030943 0.195225
-0.341172 -0.007896 0.156274
-0.349445 0.000377 0.193468
-0.384737 -0.035357 0.246383
-0.371643 0.001503 0.219033
-0.338928 -0.040063 0.227415
-0.338964 -0.022060 0.233012
-0.350482 0.001006 0.216330
-0.384737 -0.030106 0.287110
-0.384724 -0.025521 0.300383
-0.384433 -0.012638 0.295835
-0.338962 -0.022341 0.270682
-0.363988 0.002177 0.262710
-0.359701 0.001969 0.315860
-0.384711 -0.021752 0.336374
-0.377728 0.000158 0.328541
-0.384379 -0.012270 0.381134
-0.339013 -0.015068 0.352339
-0.358927 0.001932 0.352458
-0.343356 -0.003317 0.367431
-0.385192 -0.022633 0.418408
-0.338915 -0.030587 0.411123
-0.362416 0.002202 0.422401
0.351840 -0.421760 -0.236171
0.347777 -0.400168 -0.210945
0.373906 -0.398151 -0.233442
0.364969 -0.372531 -0.238937
0.347705 -0.409806 -0.152622
0.347678 -0.409613 -0.152942
0.370936 -0.419184 -0.161474
0.372632 -0.384205 -0.172503
0.356202 -0.421689 -0.100371
0.347887 -0.394331 -0.123367
0.364688 -0.423353 -0.123142
0.373976 -0.408378 -0.117007
0.359554 -0.374145 -0.190835
0.364163 -0.374434 -0.181424
0.354278 -0.376272 -0.082129
0.361693 -0.424637 -0.062337
0.347827 -0.395376 -0.052380
0.371411 -0.417696 -0.058822
0.373980 -0.406290 -0.055989
0.372976 -0.386985 -0.003765
0.357683 -0.422485 0.063175
0.347680 -0.409513 0.047279
0.370148 -0.420356 0.031512
0.373997 -0.397117 0.030639
0.350503 -0.381695 -0.025452
0.353089 -0.377979 0.000250
0.370217 -0.379168 0.034385
0.359900 -0.423675 0.107434
0.347727 -0.404934 0.109843
0.370711 -0.419888 0.110595
0.372996 -0.387144 0.082723
0.350939 -0.415746 0.161446
0.349364 -0.386299 0.132051
0.362283 -0.424673 0.140785
0.373976 -0.407970 0.160121
0.357398 -0.374546 0.066880
0.368503 -0.376173 0.085226
0.357699 -0.374490 0.194551
0.356431 -0.421812 0.206590
0.347738 -0.403860 0.217017
0.349350 -0.386376 0.260738
0.373986 -0.403135 0.211321
0.372776 -0.385366 0.238922
0.352114 -0.417904 0.320361
0.347798 -0.398170 0.319140
0.368739 -0.421129 0.311681
0.373981 -0.405510 0.311367
0.353600 -0.377246 0.230148
0.358148 -0.374407 0.276257
0.367282 -0.375684 0.290273
0.354348 -0.420694 0.380136
0.347812 -0.396860 0.370926
0.370156 -0.420352 0.348804
0.373439 -0.390726 0.358670
0.350877 -0.415532 0.420962
0.366137 -0.422554 0.407786
0.378227 -0.387582 0.434724
0.368970 -0.376830 0.340308
0.370066 -0.378892 0.399890
-0.365549 -0.423282 -0.230077
-0.374138 -0.388185 -0.223781
-0.349643 -0.390604 -0.222993
-0.351587 -0.381764 -0.230795
-0.368655 -0.421666 -0.151470
-0.375067 -0.398828 -0.164197
-0.356300 -0.421122 -0.184756
-0.350051 -0.388192 -0.170669
-0.374265 -0.412368 -0.106893
-0.375169 -0.409085 -0.116169
-0.362557 -0.424291 -0.129157
-0.348770 -0.402926 -0.129987
-0.349316 -0.392180 -0.078386
-0.352312 -0.380592 -0.179594
-0.372960 -0.382356 -0.091569
-0.373139 -0.415915 -0.052955
-0.375164 -0.408594 -0.066885
-0.374099 -0.387657 -0.008790
-0.354730 -0.420327 -0.010479
-0.349232 -0.392635 -0.032627
-0.374798 -0.410690 0.051372
-0.375047 -0.396825 0.054501
-0.360439 -0.423218 0.041444
-0.348704 -0.408720 0.042294
-0.369113 -0.375998 -0.033484
-0.362626 -0.373780 -0.006889
-0.357644 -0.374697 0.015985
-0.372315 -0.418511 0.114815
-0.375045 -0.396682 0.103411
-0.361325 -0.423667 0.079511
-0.350726 -0.384527 0.073616
-0.367051 -0.422543 0.134512
-0.375091 -0.401287 0.155744
-0.348706 -0.409776 0.136598
-0.348797 -0.400653 0.138723
-0.349476 -0.391309 0.187750
-0.351170 -0.382225 0.085366
-0.372074 -0.380680 0.166246
-0.373650 -0.414305 0.201442
-0.375147 -0.406921 0.203775
-0.374941 -0.394518 0.259183
-0.357007 -0.421480 0.256789
-0.348852 -0.395869 0.258563
-0.374924 -0.410292 0.312229
-0.375113 -0.403442 0.313811
-0.349816 -0.411807 0.296117
-0.350623 -0.385083 0.283984
-0.365564 -0.374572 0.237111
-0.361081 -0.374065 0.244108
-0.353379 -0.379068 0.277927
-0.372117 -0.419134 0.373423
-0.375068 -0.399016 0.364651
-0.363210 -0.424622 0.346540
-0.350874 -0.383725 0.337345
-0.363895 -0.424270 0.399205
-0.353713 -0.418935 0.400656
-0.350624 -0.383624 0.414298
-0.354582 -0.377349 0.344989
-0.351558 -0.381670 0.394893
