ply
format ascii 1.0
element vertex 1000
property float x
property float y
property float z
end_header
0.337685 -0.794684 -0.315623
0.346990 -0.795464 -0.323624
0.335767 -0.792502 -0.307218
0.343703 -0.800338 -0.302598
0.337343 -0.772379 -0.320869
0.341800 -0.780167 -0.324308
0.334181 -0.778071 -0.305403
0.349782 -0.801604 -0.316416
0.355174 -0.797706 -0.323788
0.349464 -0.802163 -0.303239
0.359374 -0.786273 -0.326216
0.353084 -0.779702 -0.326236
0.336084 -0.793222 -0.284441
0.341145 -0.799462 -0.291536
0.337787 -0.796382 -0.275959
0.347662 -0.801633 -0.278957
0.334269 -0.788834 -0.285695
0.334262 -0.780951 -0.280043
0.359216 -0.802376 -0.288421
0.361321 -0.802420 -0.296564
0.352905 -0.802060 -0.273100
0.370273 -0.800092 -0.320494
0.366221 -0.790227 -0.326050
0.374822 -0.802222 -0.312422
0.370316 -0.781327 -0.326313
0.382264 -0.799827 -0.315606
0.385983 -0.794455 -0.310544
0.381627 -0.800255 -0.308917
0.379085 -0.789267 -0.325406
0.387043 -0.789159 -0.312828
0.368875 -0.802422 -0.293515
0.373844 -0.802357 -0.292267
0.370223 -0.802398 -0.284607
0.386652 -0.791830 -0.293821
0.383792 -0.799353 -0.301433
0.379310 -0.801283 -0.273339
0.387218 -0.786702 -0.290328
0.387322 -0.782114 -0.294281
0.387283 -0.783431 -0.285024
0.338715 -0.790324 -0.266576
0.344440 -0.788082 -0.264885
0.334737 -0.788978 -0.272597
0.359635 -0.794881 -0.265060
0.351733 -0.787025 -0.264080
0.357362 -0.784157 -0.263971
0.377040 -0.798629 -0.266006
0.365199 -0.775615 -0.263753
0.371012 -0.784590 -0.264094
0.378809 -0.801518 -0.272813
0.378974 -0.781077 -0.264532
0.334829 -0.764739 -0.316353
0.341040 -0.757152 -0.324133
0.334198 -0.763998 -0.308499
0.338657 -0.740876 -0.323236
0.334311 -0.754883 -0.315421
0.341442 -0.738337 -0.324239
0.334150 -0.757236 -0.304940
0.357447 -0.769144 -0.326381
0.353428 -0.768001 -0.326301
0.363135 -0.752459 -0.326493
0.334111 -0.760522 -0.294871
0.334112 -0.775075 -0.290571
0.334231 -0.762840 -0.277790
0.334161 -0.771583 -0.282318
0.334111 -0.746978 -0.289102
0.334196 -0.746449 -0.280039
0.334198 -0.753870 -0.279873
0.335185 -0.740913 -0.316993
0.340872 -0.721258 -0.324089
0.334219 -0.738540 -0.310032
0.337952 -0.716165 -0.321968
0.348800 -0.716780 -0.326175
0.334153 -0.710751 -0.305210
0.334143 -0.718272 -0.304478
0.359711 -0.739277 -0.326425
0.361667 -0.717371 -0.326464
0.350617 -0.717864 -0.326246
0.334110 -0.731429 -0.301275
0.334111 -0.731579 -0.287988
0.334193 -0.730930 -0.280191
0.334110 -0.713633 -0.299109
0.334111 -0.713318 -0.288582
0.334152 -0.712655 -0.282821
0.376369 -0.775286 -0.326374
0.364921 -0.762608 -0.326509
0.369532 -0.747191 -0.326454
0.385722 -0.774782 -0.320643
0.381143 -0.764436 -0.324988
0.387256 -0.772090 -0.310826
0.387101 -0.757559 -0.315650
0.381031 -0.753738 -0.325026
0.387295 -0.756722 -0.309308
0.387400 -0.744768 -0.305090
0.387473 -0.770845 -0.293319
0.387345 -0.770276 -0.275639
0.387370 -0.761067 -0.277581
0.387471 -0.756505 -0.288205
0.387478 -0.747172 -0.301331
0.387203 -0.743659 -0.276883
0.376512 -0.737710 -0.326371
0.374671 -0.720292 -0.326393
0.366728 -0.719100 -0.326487
0.385026 -0.728281 -0.323178
0.387376 -0.731671 -0.306055
0.387145 -0.731432 -0.315361
0.385153 -0.714118 -0.322714
0.379163 -0.720594 -0.325680
0.387334 -0.709159 -0.307728
0.387473 -0.738550 -0.291491
0.387474 -0.728491 -0.291455
0.387157 -0.741233 -0.276410
0.387474 -0.725328 -0.292268
0.387473 -0.711968 -0.291301
0.387186 -0.725809 -0.280201
0.346243 -0.761654 -0.264488
0.337894 -0.762030 -0.267298
0.342376 -0.751804 -0.265160
0.334676 -0.748246 -0.272422
0.350323 -0.772739 -0.263992
0.351929 -0.774952 -0.263961
0.352467 -0.742671 -0.263950
0.358384 -0.750974 -0.263838
0.341467 -0.740292 -0.265319
0.337580 -0.731546 -0.267797
0.347822 -0.711450 -0.264213
0.338836 -0.712962 -0.265796
0.359403 -0.737240 -0.263819
0.356308 -0.711708 -0.263878
0.358666 -0.724194 -0.263833
0.366528 -0.764670 -0.263782
0.366116 -0.747585 -0.263783
0.374913 -0.755345 -0.264013
0.387251 -0.772245 -0.272907
0.385804 -0.760278 -0.268368
0.380941 -0.749853 -0.264997
0.366354 -0.727182 -0.263803
0.367919 -0.711932 -0.263859
0.374207 -0.716848 -0.264089
0.378581 -0.740427 -0.264473
0.384629 -0.720431 -0.266065
0.377905 -0.727329 -0.264425
0.335653 -0.707123 -0.317835
0.344603 -0.695017 -0.325071
0.334230 -0.695744 -0.310864
0.337394 -0.680840 -0.320965
0.341344 -0.684305 -0.324213
0.343305 -0.677098 -0.324729
0.334191 -0.690198 -0.308021
0.355170 -0.705886 -0.326336
0.355746 -0.700546 -0.326347
0.349280 -0.687635 -0.326220
0.334110 -0.700890 -0.298948
0.334111 -0.701797 -0.292305
0.334143 -0.705686 -0.283395
0.334110 -0.677457 -0.294454
0.334110 -0.690408 -0.298141
0.334179 -0.680602 -0.281125
0.334206 -0.690336 -0.279362
0.335797 -0.667617 -0.318094
0.340593 -0.667447 -0.324015
0.334153 -0.672637 -0.305181
0.336672 -0.640831 -0.319665
0.339847 -0.654314 -0.323819
0.334256 -0.655605 -0.312782
0.334156 -0.656172 -0.305430
0.355265 -0.673547 -0.326338
0.359153 -0.652955 -0.326414
0.357101 -0.649348 -0.326374
0.334110 -0.666990 -0.300853
0.334110 -0.673781 -0.299525
0.334270 -0.670925 -0.275242
0.334111 -0.643450 -0.289015
0.334111 -0.652015 -0.292923
0.334120 -0.650795 -0.284934
0.374055 -0.700751 -0.326400
0.374526 -0.692973 -0.326395
0.370758 -0.682129 -0.326439
0.386757 -0.699763 -0.316898
0.380212 -0.698982 -0.325313
0.387300 -0.708702 -0.309130
0.386595 -0.691174 -0.317486
0.377693 -0.692277 -0.326194
0.387398 -0.692309 -0.305161
0.387246 -0.678532 -0.311265
0.387476 -0.694543 -0.296252
0.387310 -0.707061 -0.282736
0.387304 -0.705024 -0.282647
0.387471 -0.682251 -0.286164
0.386929 -0.694194 -0.276197
0.386969 -0.680847 -0.276914
0.368779 -0.662290 -0.326463
0.372243 -0.651365 -0.326422
0.365169 -0.649211 -0.326506
0.384786 -0.671535 -0.323713
0.387396 -0.668377 -0.305230
0.387218 -0.659924 -0.312407
0.385762 -0.649706 -0.320509
0.382929 -0.644517 -0.324362
0.387233 -0.646796 -0.311819
0.387474 -0.668041 -0.291608
0.387477 -0.667505 -0.298646
0.386966 -0.676137 -0.276860
0.387472 -0.649642 -0.287408
0.387472 -0.644848 -0.288532
0.387062 -0.655755 -0.278505
0.347038 -0.693482 -0.264349
0.334978 -0.701360 -0.271940
0.345898 -0.676523 -0.264548
0.334701 -0.689922 -0.272382
0.354574 -0.692543 -0.263911
0.353431 -0.708698 -0.263932
0.349640 -0.686424 -0.264004
0.363633 -0.676798 -0.263739
0.348323 -0.667953 -0.264126
0.336636 -0.669628 -0.269300
0.342212 -0.658413 -0.265189
0.337152 -0.656270 -0.268478
0.353870 -0.668472 -0.263924
0.359797 -0.644641 -0.263812
0.359339 -0.648536 -0.263821
0.367607 -0.698165 -0.263848
0.374449 -0.680654 -0.264096
0.372527 -0.684091 -0.264026
0.386094 -0.697603 -0.271091
0.384520 -0.693996 -0.266053
0.376923 -0.680690 -0.264208
0.367026 -0.668724 -0.263827
0.369792 -0.648701 -0.263927
0.376800 -0.659840 -0.264181
0.385773 -0.671827 -0.270081
0.384918 -0.656174 -0.267347
0.381363 -0.649838 -0.265257
0.337883 -0.630663 -0.321843
0.342160 -0.638445 -0.324428
0.334250 -0.635375 -0.312365
0.334189 -0.634535 -0.307828
0.335508 -0.617450 -0.317574
0.341116 -0.612365 -0.324153
0.334179 -0.623519 -0.307124
0.359068 -0.634368 -0.326413
0.351859 -0.639383 -0.326271
0.352876 -0.624109 -0.326291
0.354218 -0.610434 -0.326317
0.334111 -0.640724 -0.287712
0.334150 -0.630475 -0.282981
0.334304 -0.633016 -0.273079
0.334110 -0.614435 -0.297122
0.334171 -0.619528 -0.281630
0.334289 -0.614752 -0.274035
0.335628 -0.604240 -0.317789
0.344783 -0.593929 -0.325118
0.334244 -0.595972 -0.311937
0.335768 -0.575300 -0.318040
0.347882 -0.591056 -0.325934
0.334236 -0.577640 -0.311286
0.334115 -0.592950 -0.302367
0.359894 -0.609235 -0.326429
0.351832 -0.595277 -0.326270
0.351818 -0.576750 -0.326270
0.334111 -0.597209 -0.289912
0.334111 -0.597021 -0.287359
0.334264 -0.595996 -0.275662
0.334110 -0.584308 -0.301673
0.334110 -0.592662 -0.294413
0.334147 -0.588989 -0.283194
0.334255 -0.585776 -0.276196
0.368626 -0.633481 -0.326465
0.373786 -0.617886 -0.326404
0.386222 -0.642093 -0.318838
0.382220 -0.639519 -0.324610
0.387295 -0.641259 -0.309324
0.387348 -0.628809 -0.307175
0.380407 -0.620798 -0.325245
0.387298 -0.618699 -0.309172
0.387362 -0.614744 -0.306616
0.387472 -0.633599 -0.288229
0.387477 -0.632846 -0.299480
0.387160 -0.635579 -0.280182
0.387475 -0.624580 -0.294339
0.387477 -0.619042 -0.300012
0.387435 -0.622120 -0.285008
0.367868 -0.609224 -0.326474
0.372959 -0.583289 -0.326413
0.374175 -0.577180 -0.326399
0.386482 -0.595187 -0.317896
0.377535 -0.595053 -0.326250
0.387145 -0.608519 -0.315363
0.385733 -0.585634 -0.320612
0.377588 -0.583683 -0.326231
0.387327 -0.585830 -0.308005
0.387473 -0.604254 -0.289607
0.387477 -0.598937 -0.300317
0.387037 -0.608405 -0.279316
0.387473 -0.587378 -0.290260
0.387474 -0.577315 -0.292585
0.386777 -0.581179 -0.273751
0.342497 -0.631701 -0.265139
0.348921 -0.629319 -0.264022
0.336917 -0.633982 -0.268854
0.340037 -0.625821 -0.265567
0.338733 -0.618624 -0.265960
0.361103 -0.638455 -0.263787
0.350466 -0.612216 -0.263988
0.361393 -0.618526 -0.263782
0.346275 -0.602151 -0.264482
0.338188 -0.605744 -0.266828
0.346066 -0.584750 -0.264518
0.337115 -0.592902 -0.268537
0.359568 -0.593873 -0.263816
0.355408 -0.605603 -0.263895
0.353604 -0.590417 -0.263929
0.367466 -0.638413 -0.263842
0.373151 -0.643375 -0.264049
0.374599 -0.620846 -0.264171
0.386465 -0.631373 -0.272289
0.384294 -0.635037 -0.265949
0.379230 -0.615916 -0.264914
0.364892 -0.595834 -0.263757
0.375671 -0.603978 -0.264284
0.369783 -0.588337 -0.263945
0.386402 -0.600350 -0.272598
0.382094 -0.614588 -0.265599
0.386601 -0.594277 -0.273271
0.337081 -0.557921 -0.320403
0.348805 -0.575056 -0.326177
0.341894 -0.558494 -0.324358
0.334255 -0.576079 -0.312700
0.334939 -0.552944 -0.316551
0.347181 -0.548791 -0.325749
0.334184 -0.548107 -0.307457
0.334173 -0.554794 -0.306660
0.352804 -0.569367 -0.326289
0.361342 -0.550393 -0.326458
0.350354 -0.553254 -0.326241
0.334110 -0.565498 -0.300913
0.334111 -0.565040 -0.289824
0.334225 -0.574768 -0.278166
0.334111 -0.549700 -0.292596
0.334111 -0.552818 -0.289182
0.334251 -0.552211 -0.276502
0.335398 -0.527380 -0.317375
0.344771 -0.537334 -0.325115
0.334260 -0.537095 -0.313097
0.334116 -0.528778 -0.302461
0.335862 -0.515966 -0.318210
0.338860 -0.509804 -0.323559
0.334160 -0.511913 -0.305665
0.362499 -0.539963 -0.326480
0.354959 -0.527473 -0.326332
0.357862 -0.521513 -0.326389
0.355384 -0.515311 -0.326340
0.334111 -0.539579 -0.291838
0.334200 -0.534894 -0.279739
0.334250 -0.535676 -0.276535
0.334110 -0.517687 -0.294369
0.334208 -0.513316 -0.279250
0.334188 -0.520851 -0.280542
0.377198 -0.560352 -0.326363
0.375859 -0.547129 -0.326379
0.371604 -0.545712 -0.326429
0.385730 -0.559815 -0.320625
0.387447 -0.576039 -0.303217
0.387253 -0.562139 -0.311000
0.386163 -0.547839 -0.319053
0.382403 -0.543855 -0.324547
0.387237 -0.549042 -0.311644
0.387476 -0.574934 -0.297893
0.387475 -0.563008 -0.294001
0.387068 -0.569185 -0.278428
0.387472 -0.556299 -0.286741
0.387477 -0.554916 -0.299036
0.387241 -0.556481 -0.281475
0.367702 -0.540207 -0.326476
0.371671 -0.529250 -0.326429
0.366415 -0.519145 -0.326491
0.386568 -0.535442 -0.317583
0.378912 -0.536505 -0.325768
0.387264 -0.538364 -0.310565
0.386963 -0.522525 -0.316152
0.381309 -0.519001 -0.324929
0.387305 -0.524786 -0.308929
0.387237 -0.515687 -0.311648
0.387472 -0.532244 -0.288569
0.386842 -0.544364 -0.274457
0.387304 -0.529290 -0.282584
0.387476 -0.524682 -0.297619
0.386841 -0.514088 -0.274490
0.387066 -0.515417 -0.278426
0.348473 -0.560621 -0.264100
0.336345 -0.572148 -0.269763
0.345534 -0.554663 -0.264611
0.336703 -0.553217 -0.269194
0.349275 -0.566683 -0.264011
0.358566 -0.569665 -0.263835
0.359555 -0.557924 -0.263816
0.340475 -0.539133 -0.265491
0.335021 -0.535096 -0.271873
0.343180 -0.516544 -0.265021
0.336580 -0.511704 -0.269389
0.359009 -0.529776 -0.263827
0.356258 -0.538740 -0.263879
0.352907 -0.513624 -0.263942
0.358462 -0.516543 -0.263837
0.372687 -0.576849 -0.264032
0.375256 -0.545095 -0.264125
0.385282 -0.578439 -0.268731
0.379718 -0.571013 -0.264864
0.386758 -0.555482 -0.273174
0.383062 -0.564697 -0.265654
0.372059 -0.538209 -0.264009
0.371973 -0.516210 -0.264006
0.385052 -0.544037 -0.267721
0.376843 -0.539054 -0.264185
0.385183 -0.517111 -0.268146
0.382564 -0.531638 -0.265537
0.334884 -0.508462 -0.316451
0.345624 -0.495904 -0.325340
0.334208 -0.493600 -0.309228
0.338790 -0.486577 -0.323474
0.345777 -0.490894 -0.325380
0.334161 -0.478311 -0.305787
0.334221 -0.490683 -0.310190
0.359542 -0.504402 -0.326422
0.355240 -0.490667 -0.326337
0.353551 -0.486408 -0.326304
0.334111 -0.499843 -0.292196
0.334110 -0.505884 -0.297253
0.334146 -0.504015 -0.283233
0.334110 -0.484505 -0.294628
0.334111 -0.486365 -0.289028
0.334152 -0.480059 -0.282891
0.337862 -0.463916 -0.321807
0.348200 -0.465976 -0.326018
0.334277 -0.460836 -0.314328
0.334168 -0.473379 -0.306323
0.337129 -0.456104 -0.320488
0.348010 -0.448500 -0.325968
0.334169 -0.444991 -0.306351
0.334152 -0.451626 -0.305093
0.357039 -0.467602 -0.326373
0.362165 -0.458631 -0.326474
0.354811 -0.453778 -0.326329
0.334110 -0.470182 -0.295518
0.334111 -0.471932 -0.289569
0.334202 -0.471469 -0.279032
0.334110 -0.448164 -0.295386
0.334110 -0.455352 -0.295465
0.334201 -0.449729 -0.275659
0.374262 -0.501869 -0.326398
0.372755 -0.488414 -0.326416
0.371896 -0.477307 -0.326426
0.384993 -0.506403 -0.323295
0.377682 -0.509008 -0.326198
0.387170 -0.502163 -0.314327
0.386697 -0.484225 -0.317116
0.382575 -0.480170 -0.324486
0.387235 -0.490552 -0.311741
0.387471 -0.507787 -0.285777
0.387476 -0.494268 -0.298190
0.387277 -0.508341 -0.282149
0.387473 -0.489812 -0.289896
0.387477 -0.484591 -0.299570
0.387122 -0.487898 -0.279864
0.386950 -0.480895 -0.277191
0.364733 -0.470535 -0.326511
0.374628 -0.459673 -0.326394
0.385867 -0.475456 -0.320128
0.382416 -0.469297 -0.324542
0.387464 -0.473442 -0.302530
0.387232 -0.464837 -0.311857
0.385159 -0.452778 -0.322693
0.387365 -0.453512 -0.306478
0.387230 -0.444394 -0.311913
0.387472 -0.462745 -0.287598
0.387476 -0.460543 -0.296570
0.387321 -0.468065 -0.283633
0.387472 -0.451889 -0.287599
0.387476 -0.452735 -0.297567
0.387259 -0.453303 -0.283510
0.347081 -0.494071 -0.264342
0.334591 -0.499110 -0.272558
0.346245 -0.478787 -0.264487
0.338586 -0.477750 -0.266195
0.349436 -0.501295 -0.264008
0.364254 -0.503230 -0.263728
0.352948 -0.487605 -0.263941
0.338862 -0.469918 -0.265788
0.334407 -0.466956 -0.272842
0.345098 -0.447943 -0.261970
0.340996 -0.458565 -0.264996
0.337619 -0.448804 -0.266469
0.352275 -0.476792 -0.263954
0.358225 -0.444555 -0.260036
0.354527 -0.459874 -0.263791
0.366852 -0.501038 -0.263820
0.365637 -0.482793 -0.263776
0.375872 -0.479681 -0.264149
0.386689 -0.503979 -0.272979
0.384756 -0.497957 -0.266829
0.381759 -0.486099 -0.265358
0.368111 -0.465391 -0.263912
0.366240 -0.450625 -0.261837
0.373390 -0.451811 -0.262883
0.386302 -0.463899 -0.272633
0.384704 -0.464196 -0.267527
0.379792 -0.449667 -0.264231
0.337185 -0.432567 -0.320588
0.346151 -0.434017 -0.325478
0.334290 -0.427948 -0.315331
0.334131 -0.432468 -0.303560
0.338171 -0.421544 -0.322362
0.347916 -0.411044 -0.325943
0.334260 -0.414329 -0.313080
0.361612 -0.435687 -0.326463
0.358923 -0.430608 -0.326410
0.356432 -0.426346 -0.326361
0.355862 -0.414197 -0.326350
0.334111 -0.428761 -0.289206
0.334129 -0.432738 -0.282129
0.334177 -0.440927 -0.276703
0.334110 -0.412912 -0.294351
0.334111 -0.411813 -0.285663
0.334155 -0.418442 -0.277042
0.336177 -0.406364 -0.318776
0.340071 -0.397867 -0.323878
0.334237 -0.398383 -0.311393
0.337547 -0.377988 -0.321240
0.340710 -0.387606 -0.324046
0.340207 -0.385805 -0.323914
0.334117 -0.383570 -0.302518
0.360978 -0.407682 -0.326450
0.350455 -0.400023 -0.326243
0.353617 -0.388545 -0.326305
0.334110 -0.396752 -0.294665
0.334110 -0.407031 -0.295449
0.334127 -0.394913 -0.283079
0.334110 -0.385935 -0.297061
0.334111 -0.390930 -0.287277
0.334150 -0.379888 -0.282203
0.334183 -0.391091 -0.276452
0.372138 -0.433203 -0.326423
0.376560 -0.425960 -0.326371
0.385716 -0.440227 -0.320673
0.381222 -0.439422 -0.324960
0.387476 -0.431063 -0.302012
0.387278 -0.434544 -0.309981
0.384472 -0.416917 -0.323823
0.387264 -0.424093 -0.310560
0.387216 -0.413942 -0.312501
0.387474 -0.435056 -0.291795
0.387477 -0.436850 -0.300080
0.387417 -0.431862 -0.285116
0.387472 -0.426682 -0.287671
0.387476 -0.421883 -0.297974
0.386455 -0.412564 -0.278681
0.373082 -0.400268 -0.326412
0.375684 -0.384569 -0.326381
0.367151 -0.379374 -0.326482
0.385172 -0.404943 -0.322646
0.379442 -0.394565 -0.325582
0.387200 -0.402156 -0.313147
0.386167 -0.390132 -0.319039
0.381191 -0.382128 -0.324971
0.387428 -0.382790 -0.303953
0.387472 -0.398760 -0.288977
0.387474 -0.398157 -0.293511
0.386443 -0.409045 -0.278541
0.386316 -0.400863 -0.277462
0.387475 -0.382997 -0.295747
0.386210 -0.390654 -0.276157
0.387141 -0.384132 -0.282754
0.341069 -0.440749 -0.261487
0.334974 -0.428884 -0.271247
0.339525 -0.420604 -0.260054
0.345700 -0.419709 -0.251321
0.338634 -0.424472 -0.262317
0.354380 -0.432891 -0.252878
0.360232 -0.438886 -0.256384
0.341286 -0.405995 -0.255740
0.334233 -0.405475 -0.273042
0.340269 -0.381178 -0.260811
0.334337 -0.389278 -0.272879
0.337867 -0.389151 -0.265016
0.345991 -0.383284 -0.247199
0.346247 -0.391539 -0.243365
0.363919 -0.434414 -0.253837
0.371554 -0.439713 -0.259357
0.375077 -0.414082 -0.247647
0.373469 -0.423978 -0.248923
0.385096 -0.447188 -0.269552
0.377628 -0.432773 -0.259359
0.382113 -0.420704 -0.263809
0.382342 -0.419066 -0.264485
0.382211 -0.431736 -0.263485
0.374586 -0.405627 -0.239352
0.373788 -0.389742 -0.238138
0.375367 -0.381287 -0.245610
0.384448 -0.405715 -0.269980
0.378212 -0.396969 -0.254540
0.383472 -0.390894 -0.267250
0.377297 -0.382602 -0.252267
0.380854 -0.396491 -0.260828
0.334426 -0.366258 -0.315627
0.342603 -0.362450 -0.324544
0.334222 -0.376497 -0.310277
0.335786 -0.342847 -0.318074
0.347457 -0.348215 -0.325822
0.334253 -0.349932 -0.312599
0.334203 -0.355732 -0.308891
0.361838 -0.366385 -0.326467
0.355471 -0.360378 -0.326342
0.361180 -0.344550 -0.326454
0.334110 -0.368963 -0.293921
0.334111 -0.362819 -0.287273
0.334126 -0.364645 -0.284502
0.334110 -0.356489 -0.298678
0.334111 -0.359917 -0.288360
0.334270 -0.346552 -0.275254
0.337277 -0.329994 -0.320754
0.342302 -0.340322 -0.324465
0.334273 -0.341622 -0.314017
0.334131 -0.342126 -0.303580
0.334642 -0.326678 -0.316015
0.343750 -0.309664 -0.324846
0.334247 -0.316056 -0.312120
0.334116 -0.324003 -0.302421
0.352776 -0.333342 -0.326289
0.362106 -0.319314 -0.326473
0.351032 -0.323205 -0.326254
0.334111 -0.327929 -0.289707
0.334111 -0.338299 -0.290960
0.334287 -0.334854 -0.274184
0.334110 -0.317610 -0.300739
0.334111 -0.319949 -0.286191
0.334158 -0.324349 -0.282431
0.374622 -0.366287 -0.326394
0.374755 -0.359992 -0.326392
0.368703 -0.352658 -0.326464
0.385543 -0.363192 -0.321303
0.380410 -0.370120 -0.325244
0.387387 -0.363125 -0.305595
0.386700 -0.354848 -0.317107
0.381969 -0.347133 -0.324698
0.387333 -0.360606 -0.307788
0.387475 -0.374146 -0.296069
0.387474 -0.361655 -0.291908
0.386667 -0.370311 -0.276761
0.387474 -0.356165 -0.291840
0.387475 -0.348630 -0.294371
0.386647 -0.354929 -0.273874
0.387266 -0.352102 -0.282153
0.368045 -0.338798 -0.326472
0.376902 -0.326674 -0.326367
0.386851 -0.329978 -0.316559
0.380262 -0.340144 -0.325295
0.387466 -0.338307 -0.302427
0.387215 -0.335345 -0.312543
0.385995 -0.316890 -0.319662
0.387432 -0.319121 -0.303796
0.387150 -0.315985 -0.315150
0.387474 -0.341071 -0.291650
0.387476 -0.333673 -0.298212
0.387149 -0.334389 -0.279990
0.387474 -0.320849 -0.292802
0.387477 -0.318826 -0.298850
0.387431 -0.319869 -0.284834
0.340996 -0.373271 -0.262419
0.347418 -0.373091 -0.253523
0.337293 -0.372395 -0.267598
0.344153 -0.356713 -0.262982
0.337125 -0.346872 -0.268523
0.357653 -0.363618 -0.253062
0.352112 -0.366263 -0.251762
0.349550 -0.372856 -0.248682
0.353304 -0.355636 -0.258204
0.360417 -0.361919 -0.254184
0.346184 -0.327930 -0.264498
0.334682 -0.329261 -0.272413
0.340457 -0.317862 -0.265494
0.335469 -0.315262 -0.271159
0.349676 -0.341315 -0.264036
0.363884 -0.341569 -0.262196
0.350295 -0.325660 -0.263992
0.361824 -0.316218 -0.263774
0.376222 -0.372651 -0.252271
0.367964 -0.368755 -0.245515
0.373714 -0.360842 -0.255984
0.385240 -0.379467 -0.271122
0.380403 -0.371820 -0.259001
0.384792 -0.361295 -0.268382
0.382230 -0.350999 -0.264739
0.367029 -0.336674 -0.262883
0.376687 -0.337433 -0.263342
0.376095 -0.325254 -0.264157
0.386040 -0.339300 -0.270982
0.383153 -0.340217 -0.265330
0.384590 -0.319131 -0.266298
0.338786 -0.293648 -0.323467
0.334613 -0.301797 -0.315963
0.341281 -0.290582 -0.324196
0.334182 -0.301112 -0.307345
0.338446 -0.281556 -0.322857
0.342184 -0.290576 -0.324434
0.334202 -0.279129 -0.308809
0.334227 -0.291716 -0.310675
0.350392 -0.302819 -0.326242
0.362369 -0.280451 -0.326478
0.350789 -0.289367 -0.326249
0.334111 -0.299038 -0.292223
0.334111 -0.309207 -0.290350
0.334239 -0.310847 -0.277256
0.334110 -0.280724 -0.299157
0.334111 -0.287832 -0.293384
0.334147 -0.282347 -0.283173
0.337717 -0.258372 -0.321546
0.347854 -0.272160 -0.325926
0.334233 -0.262035 -0.311097
0.334162 -0.273010 -0.305836
0.337274 -0.256430 -0.320748
0.341979 -0.243681 -0.324380
0.334262 -0.255883 -0.313208
0.358538 -0.274818 -0.326402
0.353224 -0.262224 -0.326297
0.359903 -0.251072 -0.326429
0.351584 -0.256536 -0.326265
0.334110 -0.265395 -0.297830
0.334202 -0.266519 -0.279651
0.334180 -0.274082 -0.281051
0.334110 -0.251901 -0.301276
0.334110 -0.260104 -0.295896
0.334143 -0.258853 -0.283408
0.372667 -0.307751 -0.326417
0.364786 -0.294336 -0.326510
0.365660 -0.291703 -0.326500
0.385228 -0.295878 -0.322444
0.378240 -0.298777 -0.326003
0.387298 -0.295379 -0.309185
0.385525 -0.282072 -0.321368
0.378880 -0.286372 -0.325779
0.387184 -0.287751 -0.313793
0.387471 -0.296610 -0.285670
0.387476 -0.303941 -0.296852
0.386839 -0.308901 -0.274667
0.387474 -0.285668 -0.291681
0.387478 -0.283715 -0.301207
0.386765 -0.282853 -0.273298
0.375815 -0.275381 -0.326380
0.368958 -0.271045 -0.326461
0.376257 -0.252770 -0.326374
0.385476 -0.277592 -0.321545
0.382036 -0.270248 -0.324675
0.387374 -0.270850 -0.306126
0.386970 -0.253696 -0.316126
0.382153 -0.260114 -0.324634
0.387461 -0.254382 -0.302651
0.387262 -0.251178 -0.310649
0.387472 -0.270919 -0.288143
0.387302 -0.274569 -0.282551
0.387372 -0.270018 -0.283788
0.387471 -0.248930 -0.285615
0.387475 -0.248950 -0.295163
0.387439 -0.249250 -0.284949
0.345286 -0.296113 -0.264654
0.335974 -0.303403 -0.270355
0.341053 -0.287235 -0.265391
0.334678 -0.280742 -0.272418
0.354470 -0.299800 -0.263913
0.362636 -0.310626 -0.263758
0.356059 -0.291426 -0.263883
0.343258 -0.261972 -0.265007
0.336215 -0.265953 -0.269971
0.343067 -0.252375 -0.265040
0.335164 -0.256805 -0.271645
0.359891 -0.264020 -0.263810
0.362919 -0.262887 -0.263753
0.356640 -0.246585 -0.263872
0.363057 -0.254733 -0.263750
0.372171 -0.312020 -0.264013
0.367896 -0.279325 -0.263858
0.384958 -0.305530 -0.267473
0.377408 -0.311343 -0.264322
0.386658 -0.285542 -0.272892
0.378803 -0.296626 -0.264652
0.369591 -0.273605 -0.263919
0.370494 -0.252617 -0.263952
0.385111 -0.282769 -0.267939
0.378929 -0.275603 -0.264680
0.384512 -0.258986 -0.266005
0.382159 -0.260695 -0.265442
0.334475 -0.239817 -0.315715
0.344305 -0.226769 -0.324992
0.334239 -0.229269 -0.311549
0.337270 -0.209225 -0.320741
0.346366 -0.222791 -0.325535
0.343530 -0.209229 -0.324788
0.334222 -0.224931 -0.310254
0.358543 -0.236260 -0.326402
0.359790 -0.232874 -0.326427
0.363077 -0.214525 -0.326492
0.334111 -0.229227 -0.287178
0.334111 -0.236142 -0.292716
0.334233 -0.232707 -0.277621
0.334111 -0.218506 -0.292716
0.334111 -0.222453 -0.291872
0.334160 -0.211726 -0.282332
0.334211 -0.226747 -0.279034
0.334785 -0.206842 -0.316253
0.339347 -0.197629 -0.323718
0.334150 -0.210464 -0.304410
0.337714 -0.181911 -0.322954
0.340499 -0.189816 -0.324045
0.331934 -0.187334 -0.315691
0.363122 -0.198178 -0.326493
0.353984 -0.195870 -0.326312
0.360535 -0.189740 -0.326442
0.354692 -0.186344 -0.326328
0.334194 -0.197692 -0.294099
0.334151 -0.202885 -0.289582
0.334312 -0.201236 -0.273173
0.330731 -0.188568 -0.300942
0.329782 -0.179661 -0.276905
0.332845 -0.189914 -0.277638
0.374266 -0.241570 -0.326398
0.373416 -0.221651 -0.326408
0.366475 -0.217729 -0.326490
0.385102 -0.230990 -0.322902
0.379279 -0.237027 -0.325639
0.387195 -0.239427 -0.313336
0.385286 -0.214309 -0.322234
0.383259 -0.214881 -0.324247
0.387432 -0.216369 -0.303781
0.387472 -0.232829 -0.287974
0.387473 -0.229716 -0.290648
0.387041 -0.244507 -0.277956
0.387471 -0.224586 -0.286142
0.387473 -0.214428 -0.289080
0.386873 -0.218798 -0.275015
0.377009 -0.198324 -0.326365
0.373046 -0.199861 -0.326412
0.376590 -0.179262 -0.326370
0.386863 -0.198067 -0.316513
0.384849 -0.211401 -0.323691
0.387456 -0.209113 -0.302830
0.386454 -0.184023 -0.317998
0.384501 -0.194053 -0.323813
0.387317 -0.194118 -0.308431
0.387190 -0.187836 -0.313533
0.387476 -0.209177 -0.296318
0.387476 -0.197140 -0.296884
0.387031 -0.197511 -0.277810
0.387471 -0.182591 -0.286459
0.387477 -0.184561 -0.299194
0.387428 -0.182582 -0.284766
0.342681 -0.239903 -0.265107
0.335204 -0.235314 -0.271582
0.341497 -0.219280 -0.265313
0.335648 -0.217003 -0.270874
0.351792 -0.228122 -0.263963
0.358633 -0.240009 -0.263834
0.362685 -0.215243 -0.263757
0.341161 -0.204454 -0.265372
0.336614 -0.200217 -0.269333
0.340907 -0.189109 -0.265410
0.332066 -0.185472 -0.273405
0.338842 -0.187765 -0.265779
0.360961 -0.205909 -0.263790
0.349086 -0.189530 -0.264015
0.361972 -0.184804 -0.263771
0.367781 -0.240399 -0.263854
0.367438 -0.224052 -0.263841
0.373292 -0.221152 -0.264054
0.380248 -0.239578 -0.264990
0.385309 -0.228166 -0.268540
0.377765 -0.225232 -0.264403
0.370156 -0.195605 -0.263940
0.372850 -0.183760 -0.264038
0.375117 -0.190918 -0.264120
0.385586 -0.199963 -0.269433
0.385343 -0.193547 -0.268667
0.383112 -0.184521 -0.265668
0.306685 -0.170070 -0.312504
0.324146 -0.176867 -0.310068
0.325482 -0.170808 -0.317195
0.325138 -0.158793 -0.320147
0.315900 -0.146215 -0.318227
0.324242 -0.180686 -0.297015
0.317711 -0.167251 -0.273562
0.318233 -0.175993 -0.283784
0.324315 -0.177163 -0.279847
0.324813 -0.155470 -0.269094
0.316270 -0.143788 -0.318310
0.325207 -0.119741 -0.320193
0.316475 -0.126061 -0.318353
0.326756 -0.139009 -0.268493
0.316611 -0.121414 -0.270438
0.317815 -0.111041 -0.318652
0.314766 -0.107357 -0.318002
0.316337 -0.086664 -0.305923
0.327162 -0.084977 -0.316346
0.300256 -0.106828 -0.272109
0.311037 -0.103056 -0.271247
0.319921 -0.097218 -0.268718
0.325027 -0.105615 -0.266689
0.323868 -0.079971 -0.290750
0.323075 -0.082374 -0.279862
0.316488 -0.086334 -0.283590
0.317751 -0.092326 -0.271400
0.337341 -0.164790 -0.323239
0.345281 -0.169410 -0.325296
0.340795 -0.166710 -0.324139
0.334201 -0.157445 -0.322418
0.342322 -0.145957 -0.324534
0.357934 -0.169510 -0.326396
0.356037 -0.166315 -0.326369
0.364272 -0.155446 -0.326516
0.333636 -0.127454 -0.322294
0.331789 -0.140140 -0.321819
0.338589 -0.131984 -0.323569
0.331184 -0.118941 -0.321665
0.344871 -0.120944 -0.325200
0.358069 -0.139287 -0.326420
0.351055 -0.140258 -0.326312
0.355649 -0.122944 -0.326383
0.353626 -0.120427 -0.326352
0.367931 -0.167166 -0.326473
0.375224 -0.154589 -0.326387
0.368462 -0.148580 -0.326467
0.380145 -0.175196 -0.325336
0.387464 -0.173808 -0.302532
0.387175 -0.164533 -0.314124
0.385208 -0.156967 -0.322516
0.380010 -0.151642 -0.325384
0.387151 -0.153626 -0.315114
0.387475 -0.174564 -0.294229
0.387473 -0.163059 -0.290730
0.387288 -0.166379 -0.282541
0.387473 -0.154780 -0.290142
0.387478 -0.161174 -0.301459
0.387374 -0.159907 -0.284033
0.367241 -0.143039 -0.326481
0.372540 -0.129572 -0.326418
0.371284 -0.115813 -0.326433
0.385275 -0.139448 -0.322273
0.381395 -0.129656 -0.324899
0.387338 -0.136144 -0.307580
0.385817 -0.127209 -0.320306
0.381445 -0.127857 -0.324882
0.387373 -0.124228 -0.306182
0.387154 -0.116919 -0.314984
0.387477 -0.142223 -0.299460
0.386912 -0.135809 -0.277723
0.387072 -0.136270 -0.279965
0.387477 -0.127630 -0.298999
0.386538 -0.117101 -0.275152
0.386802 -0.116497 -0.278081
0.343989 -0.176790 -0.264860
0.333235 -0.168552 -0.269882
0.343140 -0.148022 -0.264858
0.334850 -0.148527 -0.266535
0.328790 -0.160136 -0.268286
0.361016 -0.176827 -0.263789
0.349528 -0.147678 -0.264006
0.362447 -0.148675 -0.263762
0.341427 -0.137056 -0.265093
0.328130 -0.134752 -0.268198
0.345908 -0.114264 -0.260921
0.329754 -0.114279 -0.265836
0.333067 -0.125430 -0.266183
0.363159 -0.128923 -0.263770
0.360432 -0.115726 -0.260608
0.364337 -0.118397 -0.261193
0.364360 -0.162198 -0.263730
0.365485 -0.148015 -0.263771
0.370914 -0.154801 -0.263968
0.386592 -0.176679 -0.272705
0.386103 -0.161448 -0.271263
0.378699 -0.159547 -0.264637
0.371371 -0.136086 -0.263881
0.366026 -0.125811 -0.263073
0.375278 -0.117079 -0.261094
0.385616 -0.136969 -0.269918
0.381921 -0.139114 -0.265293
0.380290 -0.123296 -0.263876
0.336766 -0.101721 -0.323117
0.331553 -0.104099 -0.321798
0.339615 -0.099180 -0.323851
0.328541 -0.098746 -0.320814
0.353200 -0.103342 -0.326343
0.372823 -0.109098 -0.326415
0.365172 -0.101010 -0.326506
0.383031 -0.111493 -0.324327
0.387414 -0.104278 -0.304507
0.387413 -0.095567 -0.304558
0.344227 -0.100655 -0.252714
0.331294 -0.095403 -0.261183
0.339305 -0.104849 -0.257224
0.353520 -0.111725 -0.259676
0.365156 -0.104048 -0.253101
0.384022 -0.117042 -0.263699
0.379067 -0.111929 -0.260407
