ply
format ascii 1.0
element vertex 1000
property float x
property float y
property float z
end_header
0.337713 -0.793079 0.459142
0.345386 -0.798220 0.456125
0.338311 -0.775662 0.454599
0.342759 -0.784607 0.451661
0.363759 -0.802128 0.462617
0.363646 -0.792664 0.450446
0.356840 -0.787591 0.449114
0.374569 -0.800782 0.459366
0.371846 -0.793050 0.450683
0.373176 -0.779320 0.449091
0.381793 -0.799406 0.460154
0.385793 -0.781878 0.456822
0.379937 -0.783860 0.450597
0.338026 -0.767744 0.455152
0.346851 -0.758754 0.449973
0.336075 -0.756424 0.459237
0.339563 -0.740963 0.452870
0.361880 -0.772805 0.448951
0.356782 -0.754495 0.449000
0.356157 -0.749131 0.449006
0.336145 -0.726593 0.459090
0.347505 -0.740923 0.449713
0.338022 -0.712873 0.455161
0.347379 -0.720712 0.449763
0.363363 -0.735084 0.448936
0.349659 -0.734208 0.449069
0.360434 -0.714605 0.448965
0.371967 -0.773019 0.449031
0.365338 -0.771850 0.448941
0.368058 -0.744766 0.448977
0.385826 -0.761219 0.456917
0.381434 -0.761207 0.451286
0.385670 -0.749042 0.456245
0.377651 -0.755611 0.449308
0.365694 -0.735979 0.448945
0.371531 -0.724620 0.449024
0.386940 -0.742125 0.461715
0.380283 -0.737950 0.450684
0.387064 -0.713041 0.462247
0.382819 -0.711646 0.452010
0.335481 -0.792027 0.478842
0.346848 -0.801258 0.465298
0.338001 -0.796547 0.498387
0.345552 -0.800891 0.484915
0.334424 -0.783941 0.467252
0.334226 -0.782202 0.481820
0.334331 -0.786240 0.488571
0.362424 -0.802303 0.470416
0.349300 -0.802048 0.484435
0.355548 -0.802214 0.483980
0.340097 -0.796046 0.504388
0.340029 -0.775435 0.506226
0.335714 -0.777590 0.497727
0.357765 -0.791297 0.510399
0.353436 -0.800431 0.499390
0.353802 -0.782433 0.511456
0.361974 -0.783570 0.511591
0.368402 -0.802116 0.465334
0.373543 -0.802258 0.488105
0.386311 -0.792823 0.462937
0.384895 -0.798654 0.471004
0.386366 -0.793247 0.479230
0.387248 -0.788420 0.476055
0.387330 -0.778414 0.471903
0.387461 -0.776032 0.479010
0.366444 -0.790556 0.510929
0.375080 -0.800038 0.501322
0.376166 -0.778982 0.511293
0.380457 -0.794187 0.507070
0.386270 -0.790336 0.498704
0.377545 -0.783352 0.511153
0.334376 -0.761736 0.465920
0.334255 -0.772104 0.471204
0.334209 -0.768607 0.489265
0.334315 -0.751070 0.468567
0.334172 -0.750843 0.474830
0.334158 -0.748295 0.483314
0.342387 -0.769021 0.507595
0.341268 -0.773837 0.506945
0.335584 -0.772533 0.497465
0.344744 -0.749257 0.508962
0.336401 -0.744058 0.499509
0.357703 -0.760571 0.511578
0.354898 -0.774439 0.511514
0.356076 -0.744660 0.511464
0.334408 -0.737086 0.464512
0.334250 -0.732620 0.471389
0.334187 -0.727110 0.486706
0.334412 -0.719676 0.464346
0.334200 -0.715128 0.473601
0.334137 -0.718320 0.480873
0.334183 -0.722608 0.486305
0.342965 -0.736141 0.507931
0.337457 -0.732335 0.502152
0.339485 -0.710626 0.505914
0.335001 -0.722739 0.496009
0.355567 -0.727534 0.511387
0.359920 -0.736459 0.511452
0.351816 -0.717373 0.511382
0.361185 -0.719401 0.511393
0.387223 -0.768124 0.465425
0.387419 -0.769603 0.486814
0.387436 -0.761072 0.484312
0.387386 -0.746459 0.473122
0.387371 -0.751551 0.493588
0.387406 -0.745151 0.487959
0.371951 -0.771610 0.511473
0.367840 -0.746135 0.511488
0.386004 -0.773815 0.501163
0.385234 -0.764451 0.505340
0.383824 -0.778052 0.506534
0.386137 -0.751727 0.500556
0.383118 -0.751259 0.507036
0.387168 -0.735013 0.462857
0.387370 -0.738223 0.492368
0.387430 -0.733062 0.483840
0.387386 -0.725425 0.473101
0.387371 -0.715283 0.490654
0.387469 -0.712039 0.478975
0.366466 -0.726143 0.511362
0.366542 -0.715110 0.511330
0.368656 -0.722624 0.511286
0.386184 -0.733825 0.500186
0.382459 -0.735233 0.507374
0.387328 -0.722141 0.494179
0.383853 -0.720997 0.506226
0.336801 -0.705970 0.457718
0.346224 -0.694563 0.450223
0.337255 -0.677154 0.456767
0.348114 -0.678970 0.449472
0.364122 -0.696993 0.448929
0.350565 -0.699515 0.449060
0.354400 -0.677649 0.449023
0.337337 -0.664314 0.456595
0.346616 -0.668808 0.450067
0.338394 -0.650949 0.454384
0.341569 -0.654350 0.452073
0.343208 -0.641530 0.451421
0.359802 -0.659543 0.448971
0.361912 -0.649097 0.448950
0.353726 -0.645769 0.449029
0.368132 -0.702585 0.448978
0.369678 -0.685739 0.448999
0.386140 -0.702647 0.458271
0.380485 -0.703866 0.450790
0.385532 -0.690729 0.455654
0.378101 -0.687067 0.449543
0.374385 -0.670279 0.449062
0.371814 -0.655638 0.449028
0.386134 -0.670402 0.458242
0.384821 -0.669778 0.453057
0.386323 -0.656240 0.459057
0.384299 -0.652314 0.452784
0.338533 -0.628890 0.454092
0.346235 -0.631164 0.450218
0.336739 -0.606988 0.457848
0.348780 -0.616157 0.449207
0.356422 -0.638052 0.449003
0.352298 -0.634748 0.449043
0.350860 -0.625413 0.449057
0.362230 -0.610991 0.448947
0.335715 -0.596180 0.459991
0.343009 -0.592122 0.451500
0.337031 -0.583373 0.457237
0.347139 -0.576440 0.449859
0.362412 -0.605556 0.448946
0.361248 -0.580721 0.448957
0.352534 -0.584217 0.449041
0.366891 -0.641855 0.448961
0.375304 -0.621195 0.449075
0.386699 -0.631569 0.460676
0.384890 -0.633659 0.453093
0.386882 -0.612265 0.461464
0.383648 -0.613584 0.452443
0.376888 -0.595260 0.449096
0.371634 -0.584841 0.449025
0.365985 -0.586753 0.448949
0.384991 -0.597295 0.453324
0.377843 -0.607209 0.449408
0.385298 -0.582974 0.454647
0.334346 -0.699146 0.467223
0.334218 -0.699672 0.472827
0.334111 -0.707797 0.477821
0.334214 -0.703512 0.489947
0.334161 -0.686531 0.475314
0.334154 -0.686132 0.482861
0.334238 -0.686180 0.492698
0.343424 -0.706330 0.508197
0.336405 -0.693515 0.499519
0.339751 -0.690850 0.506068
0.335389 -0.684783 0.496979
0.335962 -0.690973 0.498413
0.359307 -0.703401 0.511391
0.349864 -0.686382 0.511380
0.354514 -0.686535 0.511386
0.334130 -0.661041 0.476652
0.334131 -0.660393 0.480193
0.334222 -0.667396 0.490872
0.334367 -0.655236 0.466281
0.334142 -0.650847 0.481464
0.334179 -0.658226 0.485816
0.342390 -0.669708 0.507598
0.336621 -0.659380 0.500061
0.345677 -0.647389 0.509503
0.348462 -0.650493 0.511118
0.338207 -0.655736 0.504025
0.351703 -0.667964 0.511382
0.363581 -0.643378 0.511396
0.360118 -0.653291 0.511392
0.387366 -0.701270 0.472181
0.387376 -0.704017 0.489957
0.387448 -0.695585 0.481449
0.387458 -0.678223 0.476491
0.387165 -0.687136 0.462739
0.387421 -0.682117 0.484720
0.365751 -0.697005 0.511355
0.368853 -0.707597 0.511257
0.376565 -0.684801 0.511015
0.386500 -0.701791 0.498422
0.384985 -0.703719 0.505295
0.386192 -0.694078 0.500006
0.379725 -0.689166 0.509301
0.387460 -0.666869 0.476625
0.387246 -0.663999 0.466527
0.387410 -0.667305 0.485953
0.387345 -0.652477 0.471204
0.387193 -0.653940 0.464033
0.387363 -0.645792 0.491533
0.364955 -0.673551 0.511380
0.369779 -0.669356 0.511228
0.375723 -0.657560 0.511041
0.385511 -0.669027 0.503505
0.378773 -0.660750 0.510026
0.386343 -0.658761 0.499228
0.380724 -0.653610 0.508540
0.334373 -0.636803 0.466055
0.334247 -0.634071 0.471533
0.334168 -0.632392 0.484550
0.334426 -0.619491 0.463749
0.334291 -0.618916 0.469637
0.334123 -0.615175 0.479246
0.345297 -0.626404 0.509283
0.343990 -0.636445 0.508525
0.335236 -0.639451 0.496598
0.344626 -0.617046 0.508894
0.335362 -0.616801 0.496912
0.350862 -0.627233 0.511381
0.357515 -0.642677 0.511389
0.350403 -0.622897 0.511381
0.334341 -0.602681 0.467455
0.334205 -0.605009 0.473366
0.334191 -0.595922 0.487152
0.334243 -0.597052 0.493329
0.334281 -0.586532 0.470068
0.334165 -0.580223 0.484151
0.334175 -0.586184 0.485337
0.347395 -0.597411 0.510500
0.334343 -0.599393 0.494364
0.340266 -0.578440 0.506367
0.337081 -0.576573 0.501211
0.336580 -0.588338 0.499958
0.359536 -0.607148 0.511391
0.351238 -0.585118 0.511382
0.360730 -0.583256 0.511393
0.387191 -0.631246 0.463937
0.387389 -0.637188 0.488426
0.387441 -0.627263 0.482345
0.387267 -0.623782 0.467515
0.387350 -0.615467 0.493015
0.387480 -0.617548 0.477740
0.367714 -0.637114 0.511293
0.373923 -0.612073 0.511098
0.375530 -0.615353 0.511047
0.385725 -0.632821 0.502405
0.384525 -0.637957 0.505647
0.387159 -0.618571 0.495034
0.380813 -0.624083 0.508473
0.387271 -0.608693 0.467715
0.387415 -0.602209 0.485392
0.387426 -0.594660 0.484022
0.387395 -0.587179 0.473529
0.387427 -0.591679 0.483923
0.387426 -0.578013 0.484110
0.367657 -0.595768 0.511295
0.372473 -0.578793 0.511144
0.372994 -0.583495 0.511127
0.386962 -0.595460 0.496045
0.384952 -0.613212 0.505322
0.386519 -0.584700 0.498324
0.382738 -0.589910 0.507007
0.336291 -0.567527 0.458785
0.342612 -0.566722 0.451658
0.337995 -0.550973 0.455219
0.348929 -0.552755 0.449148
0.355379 -0.571637 0.449014
0.361094 -0.563357 0.448958
0.360053 -0.544643 0.448968
0.338748 -0.534203 0.453642
0.340996 -0.536842 0.452301
0.337835 -0.511417 0.455552
0.348451 -0.514630 0.449338
0.340979 -0.516082 0.452307
0.352911 -0.535333 0.449037
0.353185 -0.523213 0.449035
0.355575 -0.519182 0.449012
0.371453 -0.566644 0.449023
0.375935 -0.552205 0.449083
0.386359 -0.567453 0.459214
0.383353 -0.568345 0.452289
0.386893 -0.551904 0.461513
0.380658 -0.549565 0.450880
0.374644 -0.535883 0.449066
0.374740 -0.516239 0.449067
0.386523 -0.535774 0.459918
0.380842 -0.538744 0.450976
0.385322 -0.526080 0.454746
0.378230 -0.525187 0.449611
0.338912 -0.501662 0.453298
0.344918 -0.502969 0.450742
0.338697 -0.479330 0.453749
0.348788 -0.478993 0.449204
0.363875 -0.501233 0.448931
0.361291 -0.496303 0.448956
0.358132 -0.486977 0.448987
0.350576 -0.478837 0.449060
0.336513 -0.471788 0.458320
0.341017 -0.462291 0.452300
0.334460 -0.444403 0.462604
0.342850 -0.445958 0.450664
0.359117 -0.475090 0.448978
0.349171 -0.475041 0.449074
0.357536 -0.443254 0.447650
0.374894 -0.505005 0.449069
0.375053 -0.491190 0.449071
0.369311 -0.484505 0.448994
0.385197 -0.498423 0.454211
0.379819 -0.499912 0.450442
0.385486 -0.476970 0.455455
0.372817 -0.472716 0.449041
0.368525 -0.469549 0.448984
0.366174 -0.456190 0.448859
0.386097 -0.465504 0.458086
0.378058 -0.462724 0.449521
0.385006 -0.446678 0.453411
0.377385 -0.448871 0.449161
0.334182 -0.566076 0.474367
0.334115 -0.569631 0.478316
0.334247 -0.575075 0.493720
0.334352 -0.546160 0.466953
0.334211 -0.545142 0.489594
0.334178 -0.555535 0.485708
0.342991 -0.562831 0.507946
0.335616 -0.564033 0.497548
0.343109 -0.546430 0.508015
0.342582 -0.556115 0.507710
0.337750 -0.557241 0.502883
0.354189 -0.566176 0.511385
0.351588 -0.550854 0.511382
0.361597 -0.554248 0.511394
0.334233 -0.526809 0.472161
0.334143 -0.537399 0.481517
0.334190 -0.534785 0.487037
0.334414 -0.512028 0.464251
0.334196 -0.519345 0.473762
0.334237 -0.523266 0.492615
0.348350 -0.526912 0.511053
0.335354 -0.535349 0.496894
0.335693 -0.542893 0.497739
0.348191 -0.511369 0.510961
0.338590 -0.520618 0.504983
0.349726 -0.540591 0.511380
0.362843 -0.538914 0.511395
0.359038 -0.516383 0.511391
0.387460 -0.569314 0.476622
0.387212 -0.562232 0.464926
0.387409 -0.561887 0.486039
0.387268 -0.558187 0.467562
0.387261 -0.544973 0.467251
0.387373 -0.557524 0.490268
0.370521 -0.560774 0.511205
0.373476 -0.567984 0.511112
0.368971 -0.558169 0.511254
0.386787 -0.577539 0.496945
0.381065 -0.565803 0.508281
0.385315 -0.553341 0.504514
0.378970 -0.550172 0.509875
0.387407 -0.541076 0.474095
0.387326 -0.527266 0.470291
0.387361 -0.535560 0.491794
0.387393 -0.525574 0.473457
0.387181 -0.514668 0.463477
0.387461 -0.525114 0.479948
0.387447 -0.515481 0.481621
0.372813 -0.540826 0.511133
0.371271 -0.514380 0.511181
0.386560 -0.544158 0.498115
0.381795 -0.530564 0.507725
0.386521 -0.526200 0.498313
0.379481 -0.521530 0.509486
0.334277 -0.499113 0.470230
0.334136 -0.508783 0.476377
0.334122 -0.498875 0.479131
0.334237 -0.501617 0.492615
0.334254 -0.490044 0.471233
0.334227 -0.478692 0.491447
0.334198 -0.484328 0.487978
0.343542 -0.509123 0.508266
0.338781 -0.495783 0.505461
0.339825 -0.484923 0.506111
0.334344 -0.491656 0.494367
0.336282 -0.493308 0.499214
0.356755 -0.505524 0.511388
0.351902 -0.478227 0.511382
0.356163 -0.485994 0.511387
0.334211 -0.470904 0.473104
0.334118 -0.472334 0.478635
0.334245 -0.474869 0.493508
0.334287 -0.450083 0.469710
0.334113 -0.448308 0.478001
0.334154 -0.458784 0.482907
0.340609 -0.462623 0.506535
0.336879 -0.466746 0.500705
0.341459 -0.454286 0.506970
0.335267 -0.446122 0.496674
0.338131 -0.447548 0.503836
0.362861 -0.466953 0.511295
0.361924 -0.444851 0.511212
0.359222 -0.454142 0.511224
0.387408 -0.499067 0.474156
0.387396 -0.500535 0.487629
0.387441 -0.501180 0.482314
0.387474 -0.485053 0.477244
0.387384 -0.492321 0.489073
0.387481 -0.492213 0.477639
0.368937 -0.494868 0.511255
0.365553 -0.486583 0.511361
0.373911 -0.489170 0.511098
0.385611 -0.498881 0.502991
0.382700 -0.511771 0.507036
0.387145 -0.480436 0.495105
0.383058 -0.495365 0.506764
0.387314 -0.473996 0.469755
0.387355 -0.474400 0.492404
0.387431 -0.463255 0.483516
0.387246 -0.452516 0.470205
0.387249 -0.450822 0.471141
0.387391 -0.450105 0.484994
0.372517 -0.465110 0.511127
0.371781 -0.471953 0.511165
0.377314 -0.451162 0.510897
0.387243 -0.469253 0.494600
0.384566 -0.481477 0.505616
0.385847 -0.461026 0.501776
0.380153 -0.456207 0.508968
0.338445 -0.424375 0.453043
0.348914 -0.441051 0.446722
0.338224 -0.407564 0.453091
0.343696 -0.419976 0.442956
0.339691 -0.410100 0.449596
0.351111 -0.433640 0.443814
0.345902 -0.422117 0.441109
0.357303 -0.422248 0.431313
0.335781 -0.402417 0.459187
0.340706 -0.406900 0.447112
0.335567 -0.377023 0.460046
0.340321 -0.388837 0.448542
0.339544 -0.387268 0.450476
0.345007 -0.412328 0.436118
0.344037 -0.393337 0.439143
0.372585 -0.439220 0.447246
0.366245 -0.440289 0.447085
0.379301 -0.410651 0.438878
0.369617 -0.423632 0.431779
0.385795 -0.428943 0.457350
0.380398 -0.435071 0.450271
0.386797 -0.420514 0.462194
0.377060 -0.424234 0.445038
0.380294 -0.403158 0.441130
0.377891 -0.404058 0.433838
0.386801 -0.403111 0.461424
0.382595 -0.406466 0.447139
0.385794 -0.389617 0.456304
0.384525 -0.382761 0.451742
0.381093 -0.388848 0.443147
0.335180 -0.365078 0.460981
0.342809 -0.364355 0.449307
0.337229 -0.347520 0.456735
0.349386 -0.358854 0.444975
0.342212 -0.347067 0.451815
0.349975 -0.376627 0.430399
0.345688 -0.378269 0.440229
0.358643 -0.347741 0.447965
0.334691 -0.328123 0.462135
0.334484 -0.330281 0.462569
0.344564 -0.325498 0.450882
0.335125 -0.325760 0.461226
0.341358 -0.310684 0.452156
0.361403 -0.342168 0.449019
0.364073 -0.326295 0.448930
0.351953 -0.312650 0.449047
0.367042 -0.358474 0.442294
0.386979 -0.363847 0.461913
0.382528 -0.377277 0.446872
0.387011 -0.353243 0.462022
0.380139 -0.355027 0.446840
0.381476 -0.349752 0.449300
0.370690 -0.330572 0.449028
0.371314 -0.319570 0.449021
0.385871 -0.338830 0.456900
0.382391 -0.334464 0.451792
0.386500 -0.323738 0.459823
0.384452 -0.321311 0.452864
0.334315 -0.431048 0.467450
0.334276 -0.437852 0.469953
0.334241 -0.431845 0.493103
0.334372 -0.413316 0.463137
0.334273 -0.424361 0.469181
0.334120 -0.414919 0.478842
0.345524 -0.429539 0.509190
0.346295 -0.438521 0.509613
0.336066 -0.441147 0.498672
0.343308 -0.427109 0.507980
0.336347 -0.411627 0.499376
0.353642 -0.433794 0.511051
0.362108 -0.435871 0.511124
0.361026 -0.425865 0.511085
0.334244 -0.395749 0.470043
0.334171 -0.399828 0.474142
0.334182 -0.401286 0.486199
0.334363 -0.380372 0.464058
0.334216 -0.388945 0.471593
0.334130 -0.387768 0.480048
0.334156 -0.390556 0.483112
0.344810 -0.403437 0.508972
0.336866 -0.405740 0.500673
0.344644 -0.384010 0.508905
0.335711 -0.380028 0.497786
0.353933 -0.394156 0.511436
0.357911 -0.403856 0.511386
0.355216 -0.379963 0.511522
0.387173 -0.438255 0.470970
0.387201 -0.427841 0.473865
0.387303 -0.442239 0.479940
0.387301 -0.432532 0.479169
0.387001 -0.412793 0.464440
0.387175 -0.423110 0.489554
0.387157 -0.414888 0.486382
0.371534 -0.437662 0.510945
0.364556 -0.421682 0.511166
0.385250 -0.433142 0.504777
0.381009 -0.436378 0.508199
0.385612 -0.420229 0.502758
0.386111 -0.414950 0.499644
0.384537 -0.428308 0.505591
0.387188 -0.399079 0.471112
0.387158 -0.401070 0.492070
0.387302 -0.396705 0.479392
0.387168 -0.381215 0.464579
0.387325 -0.383676 0.491394
0.387370 -0.379530 0.491090
0.377074 -0.401758 0.510904
0.369994 -0.381073 0.511502
0.385681 -0.406612 0.502247
0.387149 -0.397802 0.494119
0.383697 -0.411054 0.506258
0.386427 -0.385296 0.498737
0.382077 -0.389935 0.507663
0.334140 -0.364528 0.475916
0.334139 -0.368943 0.481064
0.334205 -0.373186 0.488831
0.334445 -0.345163 0.462891
0.334120 -0.352097 0.478850
0.334174 -0.359401 0.485219
0.339311 -0.373239 0.505813
0.335831 -0.369908 0.498085
0.346043 -0.344806 0.509716
0.348692 -0.359126 0.511251
0.336972 -0.356068 0.500937
0.351063 -0.367919 0.511428
0.354764 -0.350956 0.511512
0.358557 -0.359953 0.511597
0.334418 -0.330154 0.464078
0.334112 -0.334235 0.477953
0.334249 -0.334464 0.493995
0.334429 -0.313074 0.463601
0.334231 -0.324476 0.472225
0.334191 -0.320290 0.487191
0.340324 -0.337131 0.506400
0.335363 -0.331828 0.496915
0.335503 -0.340732 0.497266
0.348023 -0.326115 0.510863
0.335861 -0.325985 0.498160
0.354243 -0.329223 0.511500
0.364295 -0.332280 0.511727
0.355964 -0.321534 0.511539
0.387326 -0.367972 0.471172
0.387220 -0.365697 0.466526
0.387451 -0.364867 0.482129
0.387368 -0.349587 0.472732
0.387161 -0.349774 0.463181
0.387395 -0.349000 0.490649
0.366236 -0.364091 0.511668
0.376183 -0.372507 0.511327
0.369371 -0.357555 0.511560
0.387252 -0.377569 0.494689
0.381430 -0.365403 0.508317
0.385778 -0.356887 0.502478
0.378250 -0.347317 0.510738
0.387314 -0.337672 0.469915
0.387278 -0.332864 0.468158
0.387408 -0.341428 0.488614
0.387384 -0.318753 0.473056
0.387388 -0.312172 0.473232
0.387377 -0.314477 0.493252
0.387420 -0.312022 0.486757
0.367047 -0.341114 0.511640
0.367243 -0.316370 0.511633
0.386262 -0.345451 0.499921
0.381450 -0.338267 0.508303
0.385462 -0.330108 0.504148
0.387368 -0.320169 0.494082
0.337947 -0.300456 0.455319
0.334657 -0.300465 0.462207
0.344156 -0.294397 0.451044
0.334647 -0.293813 0.462226
0.340570 -0.275304 0.452470
0.358919 -0.305584 0.448979
0.362555 -0.285831 0.448944
0.357249 -0.280235 0.448995
0.334746 -0.275359 0.462019
0.347402 -0.261801 0.449754
0.336177 -0.243336 0.459025
0.344285 -0.255012 0.450993
0.359910 -0.267549 0.448970
0.352652 -0.262561 0.449040
0.351498 -0.252182 0.449051
0.375833 -0.307133 0.449082
0.369006 -0.302385 0.448990
0.364846 -0.288809 0.448934
0.385090 -0.300487 0.453749
0.380292 -0.296566 0.450689
0.385468 -0.279302 0.455376
0.382859 -0.280664 0.452031
0.365276 -0.262926 0.448940
0.368070 -0.256442 0.448977
0.386500 -0.274805 0.459818
0.382257 -0.274971 0.451716
0.385628 -0.251137 0.456065
0.380218 -0.249021 0.450650
0.337167 -0.241288 0.456952
0.339739 -0.225942 0.452800
0.336922 -0.223200 0.457464
0.346990 -0.220912 0.449918
0.352575 -0.241676 0.449041
0.350034 -0.236456 0.449065
0.354399 -0.215687 0.449023
0.338010 -0.193030 0.455453
0.344512 -0.207744 0.450903
0.334785 -0.183062 0.454809
0.347776 -0.190412 0.449606
0.358947 -0.207710 0.448979
0.351323 -0.194935 0.449054
0.360847 -0.183282 0.448961
0.374238 -0.242764 0.449060
0.369461 -0.236975 0.448996
0.372241 -0.213205 0.449033
0.386627 -0.232133 0.460366
0.380932 -0.232731 0.451024
0.386076 -0.214411 0.457992
0.378595 -0.224324 0.449801
0.371154 -0.197431 0.449019
0.373836 -0.192532 0.449055
0.386045 -0.208548 0.457861
0.383697 -0.205732 0.452469
0.386949 -0.192478 0.461751
0.381187 -0.186890 0.451157
0.334266 -0.301745 0.470704
0.334110 -0.304104 0.477512
0.334149 -0.307396 0.482290
0.334338 -0.287614 0.467558
0.334198 -0.285971 0.473688
0.334153 -0.282881 0.482698
0.339407 -0.299022 0.505869
0.346009 -0.308408 0.509696
0.336447 -0.309868 0.499626
0.348515 -0.279002 0.511149
0.336503 -0.285808 0.499766
0.362095 -0.296360 0.511678
0.357316 -0.304612 0.511569
0.350057 -0.287159 0.511405
0.334309 -0.264213 0.468847
0.334228 -0.269964 0.472381
0.334119 -0.274935 0.478765
0.334439 -0.255535 0.463169
0.334149 -0.256903 0.475833
0.334214 -0.247433 0.489844
0.334186 -0.254413 0.486643
0.347428 -0.268823 0.510519
0.336323 -0.275915 0.499315
0.342617 -0.246733 0.507730
0.337004 -0.246789 0.501019
0.350260 -0.269657 0.511410
0.359189 -0.267243 0.511612
0.357294 -0.248666 0.511569
0.358588 -0.252260 0.511598
0.387352 -0.299331 0.471539
0.387425 -0.304465 0.486115
0.387414 -0.298516 0.487785
0.387232 -0.289222 0.465898
0.387417 -0.289635 0.487207
0.387434 -0.285190 0.484652
0.375421 -0.297507 0.511353
0.373959 -0.279253 0.511403
0.386116 -0.308316 0.500693
0.386267 -0.305279 0.499894
0.381200 -0.306342 0.508493
0.387310 -0.287862 0.494383
0.385140 -0.291151 0.505493
0.387376 -0.265665 0.472669
0.387389 -0.268015 0.491505
0.387413 -0.262119 0.487911
0.387365 -0.254233 0.472133
0.387409 -0.254015 0.488398
0.387434 -0.253191 0.484665
0.367119 -0.265997 0.511637
0.373082 -0.249566 0.511433
0.375225 -0.247849 0.511360
0.385497 -0.267888 0.503964
0.381537 -0.275561 0.508236
0.386271 -0.250241 0.499876
0.380973 -0.261491 0.508666
0.334364 -0.230417 0.466418
0.334237 -0.228512 0.492616
0.334220 -0.234773 0.490626
0.334375 -0.215720 0.465960
0.334386 -0.228028 0.465456
0.334151 -0.225174 0.482544
0.342789 -0.233066 0.507830
0.336948 -0.228490 0.500877
0.338497 -0.234722 0.504751
0.341491 -0.226292 0.507077
0.337555 -0.217951 0.502397
0.349989 -0.233475 0.511403
0.354125 -0.243694 0.511497
0.350505 -0.226950 0.511415
0.334319 -0.197424 0.473116
0.334217 -0.204950 0.475043
0.334195 -0.208171 0.484791
0.329698 -0.186044 0.463783
0.329405 -0.185977 0.483821
0.330835 -0.188656 0.486031
0.346928 -0.208036 0.510229
0.335075 -0.205792 0.496126
0.341553 -0.179042 0.507720
0.348671 -0.190081 0.511237
0.337693 -0.194544 0.502916
0.351708 -0.195030 0.511442
0.360284 -0.205446 0.511637
0.356621 -0.187955 0.511554
0.387469 -0.229816 0.477044
0.387277 -0.238271 0.468016
0.387386 -0.241451 0.491898
0.387371 -0.218918 0.472430
0.387225 -0.224647 0.465545
0.387403 -0.225708 0.489310
0.387468 -0.214631 0.479544
0.374986 -0.239825 0.511368
0.367977 -0.212935 0.511608
0.386289 -0.242271 0.499781
0.381393 -0.231345 0.508346
0.386534 -0.227059 0.498485
0.377821 -0.218418 0.511065
0.387430 -0.208193 0.475169
0.387401 -0.197752 0.473844
0.387380 -0.198975 0.492783
0.387456 -0.204003 0.481407
0.387282 -0.182943 0.468252
0.387393 -0.189665 0.490878
0.387463 -0.180247 0.480252
0.375720 -0.202917 0.511343
0.374538 -0.181029 0.511384
0.385998 -0.206410 0.501317
0.386245 -0.199790 0.500012
0.386582 -0.192480 0.498230
0.387181 -0.190260 0.495067
0.383897 -0.186078 0.506439
0.309030 -0.170777 0.458987
0.329734 -0.178165 0.456476
0.348780 -0.167315 0.449113
0.356010 -0.176851 0.448978
0.364052 -0.161781 0.448928
0.374349 -0.172802 0.449062
0.373379 -0.166506 0.449049
0.371464 -0.148686 0.449023
0.385419 -0.171300 0.455167
0.377445 -0.173077 0.449200
0.386742 -0.146089 0.460863
0.380008 -0.153535 0.450540
0.385738 -0.140272 0.456537
0.383564 -0.138592 0.452400
0.387091 -0.112997 0.462364
0.337283 -0.064363 0.421797
0.337238 -0.072495 0.423857
0.337583 -0.050187 0.416367
0.337330 -0.060302 0.420698
0.336075 -0.062745 0.439544
0.335563 -0.068353 0.441737
0.334843 -0.062476 0.454987
0.329428 -0.079426 0.455822
0.336481 -0.049372 0.433955
0.336188 -0.061489 0.437946
0.335222 -0.048796 0.450601
0.386423 -0.106956 0.459392
0.384715 -0.096503 0.449084
0.384787 -0.090976 0.447723
0.387050 -0.071188 0.459919
0.386200 -0.072895 0.449221
0.386251 -0.060920 0.448994
0.386511 -0.045958 0.452421
0.322838 -0.180008 0.473088
0.320929 -0.178505 0.487717
0.319259 -0.177984 0.476498
0.320624 -0.167804 0.503661
0.325908 -0.174054 0.502684
0.322226 -0.151366 0.506540
0.332302 -0.160229 0.508424
0.318739 -0.132128 0.506359
0.317689 -0.124937 0.506180
0.330909 -0.127360 0.508438
0.319286 -0.097443 0.506287
0.320114 -0.108813 0.506588
0.333372 -0.172483 0.505150
0.345181 -0.172773 0.509561
0.345012 -0.148170 0.510795
0.339956 -0.157575 0.509843
0.349656 -0.165736 0.511481
0.357383 -0.150532 0.511629
0.364355 -0.156682 0.511729
0.334945 -0.133495 0.509126
0.340892 -0.142654 0.510137
0.342042 -0.119609 0.510333
0.353335 -0.138829 0.511602
0.356958 -0.140875 0.511644
0.349293 -0.115862 0.511556
0.387424 -0.177385 0.474931
0.387332 -0.167856 0.470563
0.387466 -0.176442 0.479819
0.387357 -0.159250 0.471779
0.387273 -0.148759 0.467796
0.387375 -0.149768 0.493570
0.387457 -0.149888 0.481181
0.374468 -0.168267 0.511386
0.374211 -0.146062 0.511395
0.386402 -0.173956 0.499183
0.382925 -0.166251 0.507179
0.386257 -0.160925 0.499950
0.387105 -0.148089 0.495467
0.384135 -0.153007 0.506259
0.387209 -0.133125 0.464776
0.387397 -0.140087 0.490239
0.387474 -0.134600 0.478724
0.387176 -0.122401 0.463237
0.387425 -0.120360 0.486106
0.387427 -0.112430 0.485777
0.376301 -0.130689 0.511323
0.376057 -0.112228 0.511332
0.385812 -0.144779 0.502300
0.387187 -0.138881 0.495033
0.379399 -0.144444 0.509864
0.387309 -0.124923 0.494391
0.379712 -0.129955 0.509625
0.338330 -0.102246 0.509696
0.339735 -0.080958 0.508345
0.338640 -0.093740 0.509736
0.353347 -0.099680 0.511603
0.359158 -0.104670 0.511669
0.357986 -0.090000 0.511656
0.332747 -0.065352 0.473668
0.333065 -0.064551 0.476227
0.329701 -0.072488 0.491566
0.334272 -0.047826 0.464881
0.334258 -0.055067 0.469208
0.334312 -0.054816 0.493785
0.344330 -0.062585 0.508822
0.348800 -0.066279 0.511366
0.330579 -0.070898 0.494530
0.339297 -0.060986 0.505771
0.348750 -0.047399 0.511283
0.338678 -0.060578 0.504898
0.355643 -0.064068 0.511571
0.353614 -0.055658 0.511517
0.358218 -0.061404 0.511611
0.387411 -0.107983 0.474280
0.387386 -0.102873 0.492008
0.387425 -0.102981 0.486033
0.387349 -0.086919 0.470499
0.387446 -0.095310 0.482878
0.387465 -0.090987 0.480015
0.367133 -0.101746 0.511637
0.365342 -0.088312 0.511698
0.370338 -0.093971 0.511527
0.386723 -0.105003 0.497489
0.382166 -0.110328 0.507757
0.386363 -0.084825 0.499388
0.384003 -0.085040 0.506359
0.387442 -0.071973 0.474822
0.387377 -0.070326 0.493367
0.387419 -0.066713 0.486940
0.387444 -0.055636 0.474488
0.387407 -0.051912 0.471383
0.387426 -0.052387 0.485806
0.365930 -0.064275 0.511678
0.372959 -0.076575 0.511438
0.375255 -0.057963 0.511359
0.385760 -0.066516 0.502572
0.381047 -0.068674 0.508609
0.385774 -0.055671 0.502501
0.379105 -0.056803 0.510087
0.337459 -0.029055 0.418490
0.337709 -0.044167 0.414209
0.337525 -0.019865 0.418310
0.337020 -0.017975 0.426997
0.336432 -0.040704 0.434595
0.334552 -0.031850 0.459396
0.334518 -0.032766 0.459856
0.336307 -0.018655 0.436607
0.335618 -0.028943 0.445330
0.334516 -0.019446 0.459890
0.338696 -0.009164 0.426814
0.342811 0.000626 0.440909
0.339256 -0.006729 0.430100
0.334731 -0.002438 0.460176
0.334619 -0.007106 0.460173
0.337766 0.002115 0.457226
0.354479 0.003537 0.439346
0.350917 0.006372 0.456193
0.353215 0.004355 0.444060
0.387204 -0.033777 0.461585
0.386320 -0.034712 0.449892
0.386237 -0.019564 0.448895
0.371785 0.006515 0.457908
0.375048 0.004312 0.442576
0.386907 -0.008891 0.458580
0.384924 0.000832 0.451658
0.381686 0.004639 0.449842
0.334186 -0.039944 0.471140
0.334155 -0.029220 0.483000
0.334224 -0.038406 0.491113
0.334246 -0.022811 0.466106
0.334118 -0.013507 0.478382
0.334247 -0.025410 0.493614
0.347981 -0.044806 0.510839
0.334535 -0.033942 0.494844
0.339614 -0.021854 0.505989
0.338107 -0.014559 0.503772
0.338214 -0.028875 0.504045
0.356460 -0.045412 0.511550
0.355464 -0.019151 0.511527
0.362700 -0.022128 0.511691
0.334240 -0.011318 0.468667
0.334320 -0.006886 0.493703
0.346275 0.006891 0.467581
0.335462 0.000998 0.476306
0.339701 0.006085 0.482643
0.335324 0.000751 0.489115
0.349241 0.007210 0.476828
0.363665 0.007398 0.480976
0.345563 -0.002032 0.509191
0.334742 -0.009467 0.495255
0.339070 0.005654 0.499578
0.355219 -0.004051 0.511322
0.362188 -0.004029 0.511480
0.349687 0.006016 0.505274
0.387371 -0.041740 0.468354
0.387395 -0.031020 0.470361
0.387396 -0.041343 0.490397
0.387422 -0.024651 0.472980
0.387329 -0.025670 0.465089
0.387344 -0.023764 0.493510
0.387400 -0.013351 0.483248
0.365652 -0.044529 0.511688
0.366548 -0.013534 0.511677
0.386258 -0.046624 0.499942
0.380987 -0.040624 0.508655
0.385913 -0.028501 0.501671
0.379493 -0.020171 0.509824
0.370687 0.007330 0.469810
0.368565 0.007365 0.468819
0.367856 0.007330 0.486278
0.387195 -0.004194 0.468691
0.387207 -0.007735 0.487695
0.385952 0.002841 0.465350
0.387042 -0.000232 0.479019
0.381349 0.006565 0.485945
0.367495 -0.011273 0.511637
0.372958 0.006196 0.505189
0.385719 -0.008823 0.502125
0.380259 -0.003096 0.509030
0.385487 0.002313 0.497976
0.375862 0.003143 0.507882
