ply
format ascii 1.0
element vertex 1000
property float x
property float y
property float z
end_header
-0.387102 -0.791993 -0.317371
-0.381084 -0.795408 -0.323615
-0.386695 -0.796135 -0.306893
-0.379342 -0.801495 -0.314081
-0.379870 -0.788598 -0.325704
-0.388438 -0.776447 -0.304550
-0.374788 -0.800739 -0.318493
-0.364989 -0.791421 -0.325843
-0.371557 -0.802271 -0.304765
-0.369145 -0.788543 -0.326357
-0.388230 -0.790185 -0.298486
-0.384811 -0.799232 -0.292170
-0.387646 -0.792122 -0.275449
-0.379773 -0.801496 -0.282347
-0.388385 -0.788263 -0.292929
-0.388381 -0.785325 -0.283492
-0.375786 -0.802196 -0.293653
-0.370798 -0.802335 -0.294808
-0.374557 -0.802211 -0.284417
-0.349295 -0.800770 -0.318248
-0.356388 -0.789968 -0.326216
-0.357213 -0.802022 -0.315021
-0.355053 -0.785221 -0.326348
-0.364196 -0.788071 -0.326388
-0.341048 -0.791405 -0.323470
-0.339429 -0.797284 -0.313681
-0.344469 -0.799968 -0.315419
-0.339879 -0.787787 -0.323006
-0.341780 -0.776339 -0.324161
-0.335690 -0.784278 -0.314600
-0.363949 -0.802462 -0.295882
-0.358358 -0.802355 -0.298530
-0.351177 -0.802182 -0.274281
-0.337733 -0.794352 -0.299349
-0.342454 -0.799602 -0.300693
-0.339396 -0.797617 -0.285061
-0.340753 -0.798994 -0.281414
-0.335371 -0.789677 -0.296515
-0.335460 -0.788541 -0.277813
-0.382379 -0.791746 -0.265043
-0.384992 -0.779974 -0.265618
-0.387751 -0.777273 -0.271234
-0.375522 -0.796683 -0.265450
-0.373898 -0.777110 -0.263958
-0.367464 -0.784884 -0.263954
-0.351122 -0.791942 -0.264712
-0.352001 -0.775888 -0.263988
-0.352632 -0.788590 -0.264246
-0.348501 -0.793151 -0.265089
-0.335690 -0.784594 -0.272703
-0.343780 -0.785130 -0.265231
-0.386949 -0.765929 -0.320018
-0.383434 -0.758298 -0.324562
-0.388486 -0.762006 -0.302901
-0.387681 -0.742995 -0.317341
-0.385182 -0.744821 -0.323958
-0.388294 -0.743404 -0.310811
-0.366586 -0.767180 -0.326504
-0.373620 -0.760599 -0.326417
-0.365702 -0.749918 -0.326515
-0.388506 -0.759204 -0.296848
-0.388502 -0.765114 -0.291040
-0.388494 -0.762259 -0.285148
-0.388506 -0.749532 -0.296348
-0.388500 -0.751762 -0.287970
-0.388491 -0.755072 -0.284873
-0.388369 -0.746915 -0.274950
-0.386872 -0.733171 -0.320299
-0.388293 -0.725856 -0.310838
-0.388249 -0.740151 -0.312665
-0.387159 -0.717351 -0.319251
-0.378783 -0.709773 -0.326171
-0.388306 -0.723804 -0.310320
-0.368696 -0.735567 -0.326478
-0.376253 -0.733980 -0.326384
-0.375938 -0.716588 -0.326388
-0.388506 -0.735764 -0.296502
-0.388500 -0.727491 -0.286771
-0.388420 -0.726026 -0.279104
-0.388504 -0.717567 -0.294048
-0.388500 -0.725131 -0.286535
-0.388421 -0.713569 -0.279203
-0.359708 -0.770058 -0.326477
-0.358243 -0.761519 -0.326467
-0.356965 -0.755476 -0.326457
-0.357926 -0.744504 -0.326464
-0.339971 -0.773108 -0.323370
-0.343072 -0.760358 -0.324510
-0.335253 -0.772426 -0.305306
-0.336056 -0.748265 -0.316389
-0.343262 -0.755778 -0.324560
-0.349232 -0.746642 -0.326136
-0.335549 -0.743229 -0.314021
-0.335141 -0.764803 -0.287906
-0.335140 -0.765868 -0.299611
-0.335269 -0.769399 -0.277378
-0.335141 -0.750634 -0.292018
-0.335141 -0.742535 -0.291929
-0.335309 -0.746743 -0.274781
-0.352949 -0.739013 -0.326428
-0.357202 -0.732779 -0.326459
-0.351818 -0.718494 -0.326419
-0.352645 -0.709893 -0.326426
-0.337671 -0.728575 -0.319271
-0.345496 -0.731684 -0.325150
-0.335215 -0.736149 -0.304218
-0.336823 -0.721235 -0.317757
-0.348747 -0.725531 -0.326008
-0.346080 -0.716665 -0.325304
-0.335296 -0.711739 -0.306587
-0.335140 -0.741621 -0.297928
-0.335140 -0.732664 -0.301790
-0.335224 -0.738042 -0.280232
-0.335141 -0.720766 -0.288714
-0.335140 -0.716556 -0.298219
-0.335235 -0.724792 -0.279530
-0.383454 -0.764253 -0.265251
-0.387845 -0.761080 -0.271481
-0.382742 -0.746364 -0.265081
-0.386167 -0.756732 -0.266009
-0.368178 -0.774148 -0.263793
-0.376950 -0.752955 -0.264019
-0.368950 -0.752298 -0.263813
-0.384822 -0.741633 -0.265576
-0.380870 -0.714105 -0.264635
-0.387681 -0.719987 -0.270942
-0.375132 -0.736216 -0.263972
-0.366781 -0.710709 -0.263757
-0.365913 -0.715578 -0.263735
-0.365366 -0.766947 -0.263721
-0.353313 -0.773797 -0.263953
-0.350589 -0.754898 -0.264004
-0.339455 -0.772539 -0.266505
-0.346572 -0.763558 -0.264614
-0.339771 -0.762721 -0.266001
-0.348508 -0.755121 -0.264276
-0.361954 -0.734952 -0.263787
-0.350983 -0.731867 -0.263996
-0.363838 -0.723464 -0.263751
-0.355783 -0.725406 -0.263905
-0.337031 -0.728118 -0.270332
-0.347302 -0.743038 -0.264486
-0.337708 -0.715221 -0.269263
-0.340086 -0.730895 -0.265742
-0.387716 -0.702954 -0.317214
-0.382772 -0.696826 -0.324792
-0.388430 -0.708312 -0.305219
-0.387447 -0.678964 -0.318197
-0.380226 -0.689484 -0.325672
-0.388219 -0.684752 -0.313858
-0.388410 -0.686479 -0.306051
-0.369096 -0.693676 -0.326473
-0.374329 -0.691246 -0.326408
-0.388509 -0.695926 -0.301752
-0.388503 -0.707777 -0.292893
-0.388454 -0.702876 -0.281869
-0.388459 -0.707703 -0.282274
-0.388500 -0.685772 -0.287402
-0.388455 -0.687607 -0.281977
-0.388442 -0.692373 -0.280913
-0.386859 -0.672189 -0.320346
-0.384484 -0.666153 -0.324199
-0.388237 -0.675729 -0.313134
-0.387496 -0.652558 -0.318019
-0.381786 -0.647666 -0.325132
-0.388332 -0.651563 -0.309249
-0.368911 -0.667299 -0.326475
-0.372692 -0.664074 -0.326428
-0.376794 -0.648042 -0.326378
-0.388509 -0.661534 -0.301863
-0.388504 -0.672773 -0.294492
-0.388479 -0.672669 -0.283927
-0.388505 -0.645678 -0.295957
-0.388501 -0.647962 -0.288402
-0.388489 -0.648738 -0.284747
-0.356482 -0.702679 -0.326454
-0.362334 -0.703248 -0.326497
-0.353510 -0.688533 -0.326432
-0.362797 -0.676236 -0.326500
-0.339359 -0.702223 -0.322280
-0.349179 -0.695186 -0.326122
-0.335287 -0.700901 -0.306312
-0.339421 -0.692206 -0.322392
-0.338249 -0.681355 -0.320301
-0.349549 -0.688297 -0.326219
-0.335532 -0.684791 -0.313510
-0.335141 -0.709093 -0.292457
-0.335140 -0.695363 -0.300711
-0.335333 -0.704183 -0.273298
-0.335141 -0.678079 -0.286292
-0.335140 -0.683256 -0.298333
-0.335175 -0.690370 -0.283309
-0.335227 -0.682024 -0.280035
-0.361969 -0.666180 -0.326494
-0.353724 -0.657690 -0.326433
-0.362017 -0.655191 -0.326494
-0.337969 -0.661211 -0.319802
-0.348394 -0.665778 -0.325915
-0.335314 -0.672293 -0.307125
-0.335825 -0.650395 -0.315979
-0.339837 -0.647781 -0.323134
-0.346172 -0.643481 -0.325328
-0.335516 -0.646803 -0.313040
-0.335140 -0.673846 -0.296120
-0.335140 -0.661530 -0.298889
-0.335294 -0.664397 -0.275760
-0.335141 -0.645500 -0.286893
-0.335140 -0.652214 -0.297151
-0.335206 -0.653977 -0.281341
-0.335317 -0.643162 -0.274268
-0.388096 -0.700221 -0.272297
-0.385506 -0.686500 -0.265738
-0.386982 -0.683285 -0.268664
-0.366920 -0.692676 -0.263761
-0.376958 -0.678554 -0.264020
-0.371316 -0.684930 -0.263874
-0.379074 -0.664377 -0.264208
-0.384420 -0.649945 -0.265480
-0.387806 -0.651926 -0.271350
-0.368846 -0.662432 -0.263810
-0.366566 -0.671284 -0.263751
-0.376294 -0.657820 -0.264002
-0.359126 -0.700844 -0.263841
-0.359747 -0.703540 -0.263829
-0.363086 -0.685446 -0.263765
-0.337104 -0.706919 -0.270217
-0.347717 -0.698449 -0.264414
-0.337440 -0.693482 -0.269686
-0.347934 -0.681302 -0.264376
-0.340320 -0.689093 -0.265702
-0.350716 -0.671998 -0.264001
-0.359559 -0.652169 -0.263832
-0.351915 -0.657284 -0.263979
-0.339462 -0.664935 -0.266490
-0.342294 -0.672225 -0.265358
-0.336309 -0.645969 -0.271475
-0.344904 -0.659849 -0.264904
-0.387072 -0.626084 -0.319567
-0.381524 -0.625294 -0.325223
-0.388217 -0.638752 -0.313955
-0.386409 -0.616917 -0.321994
-0.381622 -0.620465 -0.325189
-0.388316 -0.618052 -0.309899
-0.388434 -0.618496 -0.305051
-0.373662 -0.632286 -0.326416
-0.369739 -0.616597 -0.326465
-0.373199 -0.615948 -0.326422
-0.388506 -0.641543 -0.297496
-0.388496 -0.635546 -0.285300
-0.388463 -0.639593 -0.282641
-0.388509 -0.611206 -0.301685
-0.388410 -0.614487 -0.278281
-0.388415 -0.619284 -0.278754
-0.386593 -0.605575 -0.321320
-0.385691 -0.596146 -0.323782
-0.388497 -0.603927 -0.302472
-0.387770 -0.575618 -0.317016
-0.383426 -0.586479 -0.324565
-0.388411 -0.576623 -0.305991
-0.372833 -0.605552 -0.326427
-0.374911 -0.600307 -0.326401
-0.365701 -0.584523 -0.326515
-0.388505 -0.596502 -0.295722
-0.388501 -0.602225 -0.289352
-0.388471 -0.605500 -0.283284
-0.388507 -0.578885 -0.299336
-0.388502 -0.586602 -0.290592
-0.388387 -0.577253 -0.276428
-0.388417 -0.591535 -0.278844
-0.356330 -0.630565 -0.326453
-0.350543 -0.624753 -0.326410
-0.356410 -0.614909 -0.326453
-0.339152 -0.629604 -0.321913
-0.340281 -0.628218 -0.323773
-0.335348 -0.642656 -0.308104
-0.335273 -0.626518 -0.305922
-0.340121 -0.617282 -0.323640
-0.349580 -0.612846 -0.326228
-0.335303 -0.619736 -0.306781
-0.335141 -0.638133 -0.287744
-0.335141 -0.626454 -0.288120
-0.335159 -0.641508 -0.284336
-0.335141 -0.620334 -0.291027
-0.335140 -0.617536 -0.297002
-0.335181 -0.625400 -0.282924
-0.335160 -0.618122 -0.284267
-0.363360 -0.600302 -0.326504
-0.357186 -0.585278 -0.326459
-0.364315 -0.581915 -0.326511
-0.337738 -0.593086 -0.319390
-0.341668 -0.596429 -0.324139
-0.335166 -0.605406 -0.302759
-0.335349 -0.593078 -0.308155
-0.339862 -0.579078 -0.323177
-0.344581 -0.583481 -0.324908
-0.335272 -0.589601 -0.305884
-0.335141 -0.600584 -0.288769
-0.335141 -0.596709 -0.293226
-0.335334 -0.603715 -0.273220
-0.335140 -0.591605 -0.298061
-0.335140 -0.576547 -0.296863
-0.335259 -0.587679 -0.277946
-0.335202 -0.586789 -0.281593
-0.379223 -0.631543 -0.264243
-0.383988 -0.619814 -0.265377
-0.388120 -0.611674 -0.272374
-0.369246 -0.630490 -0.263821
-0.377833 -0.624551 -0.264042
-0.366544 -0.617679 -0.263751
-0.379539 -0.595716 -0.264318
-0.386334 -0.608263 -0.266552
-0.387066 -0.580570 -0.268939
-0.371474 -0.595189 -0.263878
-0.366738 -0.605203 -0.263756
-0.367119 -0.584977 -0.263766
-0.363215 -0.632564 -0.263763
-0.357254 -0.642402 -0.263877
-0.359045 -0.617076 -0.263842
-0.358796 -0.620622 -0.263847
-0.349241 -0.631000 -0.264149
-0.342108 -0.639486 -0.265390
-0.336469 -0.615529 -0.271222
-0.341414 -0.621852 -0.265511
-0.354376 -0.593571 -0.263932
-0.365103 -0.587555 -0.263726
-0.352619 -0.583001 -0.263965
-0.338691 -0.604844 -0.267708
-0.346247 -0.599837 -0.264670
-0.338714 -0.589360 -0.267673
-0.345567 -0.579261 -0.264788
-0.386085 -0.570078 -0.323178
-0.382391 -0.570018 -0.324923
-0.388368 -0.560557 -0.307765
-0.387431 -0.545504 -0.318256
-0.381671 -0.552536 -0.325172
-0.388358 -0.547354 -0.308183
-0.388257 -0.557209 -0.312312
-0.373107 -0.570287 -0.326423
-0.366690 -0.558414 -0.326503
-0.374190 -0.549700 -0.326410
-0.388507 -0.571546 -0.298108
-0.388423 -0.566457 -0.279367
-0.388451 -0.574106 -0.281658
-0.388506 -0.552315 -0.297553
-0.388501 -0.548676 -0.288691
-0.388392 -0.549878 -0.276822
-0.387149 -0.538250 -0.319286
-0.384854 -0.529099 -0.324071
-0.388237 -0.528978 -0.313119
-0.387060 -0.510935 -0.319614
-0.379708 -0.518612 -0.325851
-0.388282 -0.514933 -0.311294
-0.388295 -0.524396 -0.310775
-0.377087 -0.527638 -0.326374
-0.365796 -0.526445 -0.326514
-0.388508 -0.535280 -0.300491
-0.388505 -0.540016 -0.295669
-0.388419 -0.527032 -0.279036
-0.388349 -0.530902 -0.273359
-0.388508 -0.521605 -0.301109
-0.388486 -0.511999 -0.284438
-0.388403 -0.525674 -0.277745
-0.359395 -0.574670 -0.326475
-0.358627 -0.554938 -0.326470
-0.364084 -0.545783 -0.326510
-0.336663 -0.568861 -0.317473
-0.346493 -0.576191 -0.325413
-0.335271 -0.567381 -0.305847
-0.335405 -0.560554 -0.309776
-0.339131 -0.548243 -0.321875
-0.348800 -0.544987 -0.326022
-0.335381 -0.555344 -0.309071
-0.335140 -0.575602 -0.298000
-0.335140 -0.561772 -0.294769
-0.335289 -0.574453 -0.276054
-0.335142 -0.571004 -0.285394
-0.335140 -0.552635 -0.298660
-0.335318 -0.558769 -0.274243
-0.335308 -0.543977 -0.274866
-0.352730 -0.535186 -0.326426
-0.355078 -0.524790 -0.326443
-0.355834 -0.515091 -0.326449
-0.336956 -0.535844 -0.317995
-0.342871 -0.538255 -0.324457
-0.335490 -0.542175 -0.312297
-0.335602 -0.538267 -0.315572
-0.337617 -0.515635 -0.319174
-0.349481 -0.510414 -0.326201
-0.335469 -0.522429 -0.311664
-0.335141 -0.534488 -0.285838
-0.335140 -0.538379 -0.300830
-0.335336 -0.538835 -0.273060
-0.335156 -0.541192 -0.284500
-0.335140 -0.521388 -0.294182
-0.335294 -0.522835 -0.275724
-0.335204 -0.511264 -0.281473
-0.378893 -0.570021 -0.264164
-0.384930 -0.550150 -0.265601
-0.387195 -0.545301 -0.269360
-0.377634 -0.569195 -0.264037
-0.371095 -0.575055 -0.263868
-0.367867 -0.553299 -0.263785
-0.379400 -0.537946 -0.264285
-0.386166 -0.542276 -0.266005
-0.384964 -0.524560 -0.265609
-0.369923 -0.528555 -0.263838
-0.368657 -0.532142 -0.263805
-0.377198 -0.513485 -0.264026
-0.355643 -0.564425 -0.263907
-0.353576 -0.574440 -0.263947
-0.353227 -0.546132 -0.263953
-0.352439 -0.552174 -0.263969
-0.335889 -0.564894 -0.272138
-0.343537 -0.578757 -0.265142
-0.335565 -0.545893 -0.272650
-0.348020 -0.559573 -0.264361
-0.351898 -0.526697 -0.263979
-0.358380 -0.537310 -0.263855
-0.352310 -0.521072 -0.263971
-0.338637 -0.538974 -0.267793
-0.349940 -0.527941 -0.264027
-0.339796 -0.521015 -0.265962
-0.345833 -0.516363 -0.264742
-0.386693 -0.498230 -0.320956
-0.382298 -0.500764 -0.324955
-0.388314 -0.498576 -0.309980
-0.388288 -0.506122 -0.311043
-0.387869 -0.488282 -0.316654
-0.388252 -0.484258 -0.312541
-0.388388 -0.489026 -0.306933
-0.367481 -0.507734 -0.326493
-0.367343 -0.482338 -0.326494
-0.370915 -0.481927 -0.326450
-0.388505 -0.502862 -0.295261
-0.388507 -0.509595 -0.299017
-0.388367 -0.507557 -0.274790
-0.388506 -0.480650 -0.297281
-0.388504 -0.489236 -0.293748
-0.388402 -0.492346 -0.277657
-0.386780 -0.458126 -0.320638
-0.385654 -0.465986 -0.323794
-0.388209 -0.469653 -0.314304
-0.386364 -0.444085 -0.322157
-0.382532 -0.456511 -0.324874
-0.388282 -0.452850 -0.311277
-0.388399 -0.459621 -0.306495
-0.376704 -0.466856 -0.326379
-0.366251 -0.445805 -0.326508
-0.377830 -0.451053 -0.326365
-0.388500 -0.465766 -0.287129
-0.388477 -0.462306 -0.283415
-0.388438 -0.475736 -0.280522
-0.388506 -0.446079 -0.296732
-0.388502 -0.456967 -0.290806
-0.388427 -0.454980 -0.277235
-0.351027 -0.500092 -0.326414
-0.359555 -0.494647 -0.326476
-0.360129 -0.482322 -0.326481
-0.337308 -0.505142 -0.318537
-0.342406 -0.504531 -0.324334
-0.335316 -0.506515 -0.306143
-0.335633 -0.502694 -0.314325
-0.338954 -0.484589 -0.321390
-0.346763 -0.483756 -0.325484
-0.335410 -0.481599 -0.305023
-0.335549 -0.483013 -0.308568
-0.335195 -0.501943 -0.299356
-0.335323 -0.495105 -0.273911
-0.335255 -0.495671 -0.278257
-0.335193 -0.488735 -0.285893
-0.335308 -0.482976 -0.298834
-0.335305 -0.478688 -0.279221
-0.364384 -0.476648 -0.326512
-0.360874 -0.461687 -0.326486
-0.355018 -0.445990 -0.326443
-0.337586 -0.470553 -0.318763
-0.344556 -0.474086 -0.324902
-0.335605 -0.472463 -0.307489
-0.335750 -0.470109 -0.310138
-0.338125 -0.449235 -0.319798
-0.343918 -0.444375 -0.324733
-0.335608 -0.450939 -0.305969
-0.335407 -0.467020 -0.288487
-0.335357 -0.471974 -0.297622
-0.335320 -0.470970 -0.280531
-0.335375 -0.461160 -0.277242
-0.335475 -0.447391 -0.285960
-0.335451 -0.458755 -0.283762
-0.335356 -0.445419 -0.277424
-0.384870 -0.508306 -0.265587
-0.386486 -0.498231 -0.267049
-0.387767 -0.485825 -0.271226
-0.376120 -0.496209 -0.263998
-0.365798 -0.506711 -0.263732
-0.366664 -0.486629 -0.263754
-0.385446 -0.466253 -0.265745
-0.387929 -0.474072 -0.271747
-0.379197 -0.460201 -0.264204
-0.386619 -0.458571 -0.267630
-0.368238 -0.476517 -0.263795
-0.376819 -0.447653 -0.261030
-0.366704 -0.452668 -0.261901
-0.350806 -0.503014 -0.264000
-0.361490 -0.488685 -0.263796
-0.363617 -0.493086 -0.263755
-0.336906 -0.501557 -0.270531
-0.345473 -0.499860 -0.264805
-0.339603 -0.490937 -0.266267
-0.349578 -0.491823 -0.264090
-0.364218 -0.467681 -0.263751
-0.354272 -0.465102 -0.263937
-0.356929 -0.444439 -0.261184
-0.363547 -0.458663 -0.263556
-0.335468 -0.473041 -0.272821
-0.340257 -0.481455 -0.265713
-0.338234 -0.453224 -0.268403
-0.343340 -0.459779 -0.265187
-0.387936 -0.437798 -0.316408
-0.384234 -0.428655 -0.324286
-0.388506 -0.442040 -0.302105
-0.387119 -0.411660 -0.319398
-0.385581 -0.408724 -0.323820
-0.388339 -0.417870 -0.308968
-0.369465 -0.442399 -0.326468
-0.370172 -0.431601 -0.326460
-0.371158 -0.423281 -0.326447
-0.388504 -0.435200 -0.293934
-0.388504 -0.440538 -0.293898
-0.388482 -0.432045 -0.281701
-0.388508 -0.412951 -0.300547
-0.388502 -0.415887 -0.289880
-0.388499 -0.426230 -0.285526
-0.388449 -0.413174 -0.273975
-0.379489 -0.405736 -0.325927
-0.388383 -0.395461 -0.307145
-0.388367 -0.409467 -0.307783
-0.388096 -0.379459 -0.315823
-0.381946 -0.380996 -0.325077
-0.388352 -0.386671 -0.308429
-0.367752 -0.398824 -0.326489
-0.377546 -0.409447 -0.326369
-0.377501 -0.379881 -0.326369
-0.388508 -0.402524 -0.300988
-0.388500 -0.397210 -0.286499
-0.388457 -0.408403 -0.276349
-0.388509 -0.385697 -0.301949
-0.388500 -0.379464 -0.287348
-0.388440 -0.378725 -0.279306
-0.351243 -0.440761 -0.326415
-0.365322 -0.434511 -0.326519
-0.350273 -0.426046 -0.326408
-0.363581 -0.418511 -0.326506
-0.338554 -0.435809 -0.320621
-0.349452 -0.436124 -0.326194
-0.335520 -0.432522 -0.303407
-0.337184 -0.423391 -0.317987
-0.346586 -0.423386 -0.325437
-0.335484 -0.421084 -0.302342
-0.335904 -0.420211 -0.314645
-0.335474 -0.435728 -0.294012
-0.335474 -0.431999 -0.301466
-0.335410 -0.435495 -0.282304
-0.335475 -0.424387 -0.291626
-0.335475 -0.413274 -0.289696
-0.335259 -0.423872 -0.274974
-0.356347 -0.405902 -0.326453
-0.355230 -0.394983 -0.326445
-0.354295 -0.381839 -0.326438
-0.362037 -0.378629 -0.326495
-0.339974 -0.399120 -0.323364
-0.344830 -0.394147 -0.324974
-0.335700 -0.397876 -0.312390
-0.338190 -0.388048 -0.320168
-0.340826 -0.388993 -0.323917
-0.335504 -0.387015 -0.307804
-0.335596 -0.378537 -0.314778
-0.335474 -0.407728 -0.299088
-0.335450 -0.406155 -0.300073
-0.335426 -0.401366 -0.283254
-0.335416 -0.391726 -0.289069
-0.335308 -0.387128 -0.295532
-0.335252 -0.387226 -0.274540
-0.381704 -0.430909 -0.258421
-0.386254 -0.432263 -0.267817
-0.386850 -0.442933 -0.269004
-0.378509 -0.420074 -0.251627
-0.386947 -0.421078 -0.269472
-0.371995 -0.432451 -0.252782
-0.366077 -0.436690 -0.254664
-0.374681 -0.426330 -0.248766
-0.383166 -0.408366 -0.260012
-0.385626 -0.407078 -0.266215
-0.383272 -0.390181 -0.260563
-0.388254 -0.390266 -0.272766
-0.385595 -0.386594 -0.265902
-0.352423 -0.433038 -0.257160
-0.352921 -0.417390 -0.235559
-0.348191 -0.416393 -0.248777
-0.360331 -0.424884 -0.239957
-0.359084 -0.427792 -0.249141
-0.335924 -0.428226 -0.271788
-0.340406 -0.432111 -0.263397
-0.339033 -0.430307 -0.265478
-0.337211 -0.415730 -0.268326
-0.343783 -0.426163 -0.259464
-0.346528 -0.406199 -0.243135
-0.345200 -0.397220 -0.248184
-0.347903 -0.380443 -0.244674
-0.339229 -0.413556 -0.263375
-0.336472 -0.405763 -0.270024
-0.340726 -0.407383 -0.259546
-0.338406 -0.387129 -0.265594
-0.340591 -0.382475 -0.260760
-0.386287 -0.357444 -0.322438
-0.381025 -0.372783 -0.325396
-0.388205 -0.366224 -0.314469
-0.388416 -0.372571 -0.305802
-0.386812 -0.352267 -0.320521
-0.385338 -0.353060 -0.323904
-0.388391 -0.353254 -0.306834
-0.367832 -0.371273 -0.326488
-0.367672 -0.352984 -0.326490
-0.375937 -0.350480 -0.326388
-0.388509 -0.373433 -0.301767
-0.388501 -0.365550 -0.288615
-0.388456 -0.373403 -0.281898
-0.388508 -0.347836 -0.300868
-0.388499 -0.348660 -0.286063
-0.388489 -0.357676 -0.284704
-0.386073 -0.331162 -0.323221
-0.380148 -0.341807 -0.325699
-0.388275 -0.327905 -0.311571
-0.388425 -0.333734 -0.305419
-0.381589 -0.318922 -0.325201
-0.388213 -0.311816 -0.314115
-0.388455 -0.320119 -0.304185
-0.366808 -0.332393 -0.326501
-0.373941 -0.322552 -0.326413
-0.369084 -0.311642 -0.326473
-0.388508 -0.332232 -0.301092
-0.388500 -0.339111 -0.286977
-0.388369 -0.336384 -0.274958
-0.388502 -0.314340 -0.289956
-0.388501 -0.323571 -0.289250
-0.388405 -0.317743 -0.277910
-0.353407 -0.370925 -0.326431
-0.363970 -0.366457 -0.326509
-0.354352 -0.348849 -0.326438
-0.338584 -0.371861 -0.320899
-0.342520 -0.373051 -0.324364
-0.347269 -0.362347 -0.325618
-0.335254 -0.364888 -0.305351
-0.336312 -0.350186 -0.316846
-0.348856 -0.359449 -0.326036
-0.335312 -0.350633 -0.307065
-0.335448 -0.354530 -0.311050
-0.335234 -0.370070 -0.285684
-0.335302 -0.364849 -0.275254
-0.335232 -0.362635 -0.280076
-0.335141 -0.347189 -0.288351
-0.335141 -0.344660 -0.286137
-0.335173 -0.345329 -0.283443
-0.360958 -0.340798 -0.326487
-0.364237 -0.330766 -0.326511
-0.352795 -0.326639 -0.326427
-0.337846 -0.337348 -0.319583
-0.342140 -0.337081 -0.324264
-0.345458 -0.331707 -0.325140
-0.335561 -0.336387 -0.314389
-0.335735 -0.313080 -0.315817
-0.342748 -0.321539 -0.324424
-0.335183 -0.325451 -0.303262
-0.335431 -0.315555 -0.310564
-0.335141 -0.336807 -0.286863
-0.335302 -0.334521 -0.275193
-0.335163 -0.330113 -0.284061
-0.335140 -0.319924 -0.294017
-0.335140 -0.311633 -0.295671
-0.335145 -0.316775 -0.285259
-0.380767 -0.369717 -0.260020
-0.378088 -0.374713 -0.253713
-0.386981 -0.372140 -0.268938
-0.382471 -0.359317 -0.262994
-0.386284 -0.360272 -0.266169
-0.371664 -0.347821 -0.261610
-0.365345 -0.351094 -0.259223
-0.378575 -0.338689 -0.264095
-0.385391 -0.311769 -0.265711
-0.387683 -0.315326 -0.270949
-0.374109 -0.334666 -0.263958
-0.367938 -0.345249 -0.262211
-0.374244 -0.322314 -0.263950
-0.346076 -0.374781 -0.251214
-0.354444 -0.366955 -0.248674
-0.358866 -0.354012 -0.257246
-0.338500 -0.374494 -0.266215
-0.336362 -0.371109 -0.270960
-0.341036 -0.376605 -0.260683
-0.336326 -0.357953 -0.271407
-0.345411 -0.361318 -0.258360
-0.362662 -0.339504 -0.262439
-0.354992 -0.342044 -0.262301
-0.365252 -0.318684 -0.263725
-0.359798 -0.322923 -0.263830
-0.337872 -0.333339 -0.268976
-0.344498 -0.342723 -0.263978
-0.338240 -0.318479 -0.268422
-0.341030 -0.327697 -0.265577
-0.387135 -0.307749 -0.319339
-0.383240 -0.295424 -0.324629
-0.388259 -0.308672 -0.312240
-0.386867 -0.282188 -0.320318
-0.379733 -0.287645 -0.325843
-0.388246 -0.286230 -0.312772
-0.388466 -0.283858 -0.303755
-0.374070 -0.296605 -0.326411
-0.366029 -0.283928 -0.326511
-0.388506 -0.298066 -0.297828
-0.388507 -0.308408 -0.298895
-0.388422 -0.299346 -0.279270
-0.388388 -0.310988 -0.276553
-0.388504 -0.292182 -0.293743
-0.388385 -0.278353 -0.276296
-0.388431 -0.293763 -0.280010
-0.388115 -0.266631 -0.315755
-0.383868 -0.263272 -0.324412
-0.388326 -0.274889 -0.309467
-0.387823 -0.254141 -0.316821
-0.383259 -0.250210 -0.324623
-0.388337 -0.249771 -0.309019
-0.371679 -0.273279 -0.326441
-0.377060 -0.263612 -0.326375
-0.372325 -0.252998 -0.326433
-0.388508 -0.271777 -0.299926
-0.388502 -0.275477 -0.289864
-0.388478 -0.267774 -0.283867
-0.388500 -0.244704 -0.287396
-0.388499 -0.253363 -0.286231
-0.388484 -0.248129 -0.284295
-0.352359 -0.309954 -0.326423
-0.354119 -0.298459 -0.326436
-0.351099 -0.291414 -0.326414
-0.361453 -0.279602 -0.326490
-0.337794 -0.297085 -0.319489
-0.346684 -0.298824 -0.325463
-0.335195 -0.298423 -0.303612
-0.336432 -0.286921 -0.317060
-0.346334 -0.288342 -0.325371
-0.340904 -0.278391 -0.323938
-0.335215 -0.280303 -0.304205
-0.335141 -0.306559 -0.287478
-0.335141 -0.296165 -0.291327
-0.335328 -0.299577 -0.273598
-0.335141 -0.285647 -0.286275
-0.335140 -0.284010 -0.301077
-0.335246 -0.291993 -0.278801
-0.356501 -0.273662 -0.326454
-0.358332 -0.269368 -0.326467
-0.357694 -0.258466 -0.326463
-0.361541 -0.244808 -0.326491
-0.338922 -0.268760 -0.321501
-0.348150 -0.271565 -0.325850
-0.335224 -0.277277 -0.304482
-0.336431 -0.251738 -0.317058
-0.340223 -0.250114 -0.323758
-0.345671 -0.244882 -0.325196
-0.335360 -0.246427 -0.308472
-0.335140 -0.275149 -0.297064
-0.335140 -0.261367 -0.298795
-0.335236 -0.276472 -0.279468
-0.335140 -0.259061 -0.297915
-0.335140 -0.248906 -0.297862
-0.335214 -0.260931 -0.280851
-0.384522 -0.305250 -0.265504
-0.387400 -0.303733 -0.270026
-0.380824 -0.278049 -0.264624
-0.386322 -0.283316 -0.266512
-0.375726 -0.296175 -0.263988
-0.373612 -0.281917 -0.263933
-0.375769 -0.291875 -0.263989
-0.382260 -0.275398 -0.264966
-0.378592 -0.244891 -0.264093
-0.388255 -0.255396 -0.272815
-0.370559 -0.264354 -0.263854
-0.366696 -0.267655 -0.263755
-0.366561 -0.257684 -0.263751
-0.357322 -0.302174 -0.263875
-0.350750 -0.298715 -0.264001
-0.360245 -0.280223 -0.263819
-0.339614 -0.303529 -0.266250
-0.344474 -0.302677 -0.264979
-0.338670 -0.297432 -0.267742
-0.346171 -0.284813 -0.264683
-0.340183 -0.284967 -0.265725
-0.352981 -0.266596 -0.263958
-0.359389 -0.249540 -0.263836
-0.352656 -0.250991 -0.263964
-0.335390 -0.264153 -0.272927
-0.342482 -0.281914 -0.265325
-0.336959 -0.255964 -0.270448
-0.341189 -0.265163 -0.265550
-0.387007 -0.233584 -0.319806
-0.382741 -0.228537 -0.324802
-0.388273 -0.229321 -0.311660
-0.387738 -0.210993 -0.317133
-0.380661 -0.222953 -0.325522
-0.388343 -0.219544 -0.308789
-0.388435 -0.227291 -0.305014
-0.377337 -0.240592 -0.326371
-0.368093 -0.219484 -0.326485
-0.388503 -0.232274 -0.292393
-0.388499 -0.238799 -0.285903
-0.388445 -0.233539 -0.281134
-0.388395 -0.238381 -0.277056
-0.388505 -0.212953 -0.295717
-0.388459 -0.218833 -0.282296
-0.388368 -0.222773 -0.274865
-0.386970 -0.208031 -0.319943
-0.383578 -0.197782 -0.324513
-0.388379 -0.210866 -0.307298
-0.387196 -0.176082 -0.319115
-0.380694 -0.186245 -0.325510
-0.388332 -0.182299 -0.309253
-0.366166 -0.205724 -0.326509
-0.372204 -0.197957 -0.326434
-0.370652 -0.191391 -0.326454
-0.388500 -0.195519 -0.287820
-0.388499 -0.202550 -0.286097
-0.388483 -0.207155 -0.284219
-0.388506 -0.180943 -0.297453
-0.388499 -0.189593 -0.285947
-0.388488 -0.189032 -0.284609
-0.388366 -0.185187 -0.274748
-0.357589 -0.233302 -0.326462
-0.362189 -0.224945 -0.326496
-0.361013 -0.211515 -0.326487
-0.338901 -0.235140 -0.321465
-0.344269 -0.235550 -0.324826
-0.335490 -0.242674 -0.312284
-0.335376 -0.233173 -0.308938
-0.338906 -0.215094 -0.321472
-0.343736 -0.216968 -0.324685
-0.335223 -0.223071 -0.304433
-0.335141 -0.240978 -0.292416
-0.335141 -0.229191 -0.286688
-0.335328 -0.232866 -0.273602
-0.335141 -0.224757 -0.288328
-0.335141 -0.213356 -0.291302
-0.335333 -0.225306 -0.273283
-0.335249 -0.217081 -0.278638
-0.364267 -0.201352 -0.326512
-0.352483 -0.183107 -0.326448
-0.354941 -0.181251 -0.326464
-0.339123 -0.205485 -0.321842
-0.343691 -0.208509 -0.324692
-0.335299 -0.206170 -0.305426
-0.335557 -0.203742 -0.312665
-0.337634 -0.182786 -0.322262
-0.350187 -0.188065 -0.326399
-0.330982 -0.186966 -0.304677
-0.332488 -0.188730 -0.312738
-0.335192 -0.200731 -0.286579
-0.335317 -0.200241 -0.274846
-0.335260 -0.197385 -0.280461
-0.334682 -0.194145 -0.299145
-0.332034 -0.182181 -0.276215
-0.330238 -0.180507 -0.279353
-0.379459 -0.233425 -0.264299
-0.385664 -0.222017 -0.265776
-0.388327 -0.221349 -0.273049
-0.367948 -0.229120 -0.263787
-0.366450 -0.243829 -0.263748
-0.365624 -0.212829 -0.263727
-0.380577 -0.209339 -0.264565
-0.386861 -0.208852 -0.268271
-0.380280 -0.185733 -0.264494
-0.373612 -0.200043 -0.263933
-0.373342 -0.208759 -0.263926
-0.377513 -0.185309 -0.264034
-0.355523 -0.231748 -0.263910
-0.354107 -0.242780 -0.263937
-0.363353 -0.221873 -0.263760
-0.352424 -0.215014 -0.263969
-0.336664 -0.230309 -0.270914
-0.346559 -0.245122 -0.264616
-0.335624 -0.215862 -0.272557
-0.340112 -0.233098 -0.265738
-0.363643 -0.208613 -0.263754
-0.355491 -0.203493 -0.263910
-0.352096 -0.184359 -0.263974
-0.336920 -0.212606 -0.270508
-0.349909 -0.196981 -0.264032
-0.339684 -0.186819 -0.266074
-0.349136 -0.193888 -0.264158
-0.342633 -0.193733 -0.265268
-0.381863 -0.174823 -0.325106
-0.388331 -0.169422 -0.309287
-0.388359 -0.174209 -0.308140
-0.387467 -0.154177 -0.318123
-0.384388 -0.143627 -0.324232
-0.388502 -0.149432 -0.302251
-0.366460 -0.165127 -0.326505
-0.371349 -0.168523 -0.326445
-0.377481 -0.151221 -0.326369
-0.388509 -0.175009 -0.301957
-0.388508 -0.177360 -0.300129
-0.388355 -0.166588 -0.273855
-0.388507 -0.148232 -0.299185
-0.388499 -0.161615 -0.285931
-0.388480 -0.148028 -0.284003
-0.387773 -0.128399 -0.317006
-0.383523 -0.136288 -0.324531
-0.388285 -0.137202 -0.311187
-0.388499 -0.143187 -0.302400
-0.388169 -0.112379 -0.315557
-0.388364 -0.115450 -0.307922
-0.388494 -0.126664 -0.302606
-0.367729 -0.135474 -0.326490
-0.375398 -0.125548 -0.326395
-0.376367 -0.112356 -0.326383
-0.388505 -0.132856 -0.293452
-0.388504 -0.143983 -0.293709
-0.388374 -0.136213 -0.274767
-0.388509 -0.125628 -0.299754
-0.388509 -0.126974 -0.299839
-0.388233 -0.115676 -0.279871
-0.357104 -0.177114 -0.326477
-0.362897 -0.162230 -0.326509
-0.355424 -0.151989 -0.326480
-0.355327 -0.147106 -0.326480
-0.331889 -0.165616 -0.321564
-0.349787 -0.166044 -0.326294
-0.328663 -0.154821 -0.320719
-0.340997 -0.159891 -0.323759
-0.350160 -0.157412 -0.326408
-0.361489 -0.131457 -0.326504
-0.353189 -0.126624 -0.326472
-0.361888 -0.120075 -0.326504
-0.328329 -0.136584 -0.320605
-0.338953 -0.139983 -0.323377
-0.340300 -0.130029 -0.323843
-0.334785 -0.115375 -0.322426
-0.344170 -0.116305 -0.324849
-0.385066 -0.166751 -0.265634
-0.386793 -0.170322 -0.268048
-0.379659 -0.158727 -0.264347
-0.372003 -0.163326 -0.263892
-0.368725 -0.166746 -0.263807
-0.372838 -0.146363 -0.263913
-0.385759 -0.134653 -0.265820
-0.387852 -0.140154 -0.271501
-0.383026 -0.122576 -0.263681
-0.387904 -0.125943 -0.271253
-0.372184 -0.130026 -0.263919
-0.367246 -0.112823 -0.259904
-0.365625 -0.125593 -0.262985
-0.362878 -0.161870 -0.263769
-0.351792 -0.145957 -0.263983
-0.358774 -0.156160 -0.263848
-0.338079 -0.169654 -0.266957
-0.330251 -0.169529 -0.271203
-0.344172 -0.173226 -0.264888
-0.337111 -0.151429 -0.266164
-0.349801 -0.147480 -0.264046
-0.363466 -0.129458 -0.263781
-0.350418 -0.137762 -0.264017
-0.363638 -0.118539 -0.261281
-0.355049 -0.122663 -0.262445
-0.332750 -0.135126 -0.267259
-0.340927 -0.142351 -0.265284
-0.334901 -0.126134 -0.266378
-0.347465 -0.115339 -0.261347
-0.378487 -0.106798 -0.326274
-0.373467 -0.107774 -0.326419
-0.368438 -0.091742 -0.326481
-0.352635 -0.111150 -0.326464
-0.361627 -0.106382 -0.326496
-0.358647 -0.083417 -0.326470
-0.337320 -0.111771 -0.323072
-0.344747 -0.108101 -0.325005
-0.342621 -0.097353 -0.324461
-0.337145 -0.083504 -0.320950
-0.343967 -0.090724 -0.324799
-0.380251 -0.100196 -0.251838
-0.385603 -0.100945 -0.255827
-0.375872 -0.110755 -0.259070
-0.364106 -0.102543 -0.251869
-0.338498 -0.104349 -0.259125
-0.335050 -0.096901 -0.259803
-0.348133 -0.103870 -0.255218
-0.327740 -0.162593 -0.320309
-0.320562 -0.159895 -0.318914
-0.320816 -0.136487 -0.318927
-0.322929 -0.133983 -0.319400
-0.316377 -0.118483 -0.318064
-0.318239 -0.108798 -0.318485
-0.319047 -0.086077 -0.305339
-0.323187 -0.082030 -0.301191
-0.326931 -0.091673 -0.317479
-0.321215 -0.082902 -0.294195
