ply
format ascii 1.0
element vertex 1000
property float x
property float y
property float z
end_header
-0.385727 -0.796997 0.460795
-0.377148 -0.797609 0.453365
-0.387628 -0.785817 0.460097
-0.375119 -0.799654 0.456062
-0.368808 -0.793545 0.450887
-0.368048 -0.783432 0.449114
-0.356646 -0.801793 0.461793
-0.359399 -0.797256 0.452547
-0.351676 -0.784472 0.449168
-0.338174 -0.792693 0.457206
-0.339403 -0.787724 0.454561
-0.341000 -0.788339 0.452863
-0.386683 -0.758082 0.455451
-0.380938 -0.766147 0.450575
-0.387274 -0.742456 0.458017
-0.382223 -0.746568 0.451243
-0.375967 -0.766739 0.449230
-0.367353 -0.746449 0.448982
-0.386276 -0.721123 0.453689
-0.381924 -0.734427 0.451088
-0.386871 -0.705573 0.456270
-0.379662 -0.716185 0.449911
-0.365509 -0.735995 0.448929
-0.370586 -0.720338 0.449075
-0.372836 -0.709848 0.449140
-0.365235 -0.771407 0.448928
-0.359495 -0.757972 0.448983
-0.336483 -0.770958 0.460568
-0.341282 -0.769435 0.452617
-0.344782 -0.759079 0.451220
-0.338369 -0.746361 0.456640
-0.347480 -0.745981 0.450143
-0.356876 -0.729433 0.449008
-0.351359 -0.717009 0.449061
-0.360113 -0.714269 0.448977
-0.338690 -0.734781 0.455970
-0.343607 -0.731009 0.451689
-0.337632 -0.716324 0.458174
-0.345541 -0.712036 0.450917
-0.386619 -0.796613 0.476907
-0.386947 -0.795245 0.483770
-0.385700 -0.798641 0.493692
-0.388421 -0.778829 0.472269
-0.388324 -0.778524 0.486753
-0.388281 -0.783835 0.486449
-0.368382 -0.802231 0.465034
-0.366416 -0.802291 0.489897
-0.386130 -0.794272 0.501768
-0.384443 -0.778125 0.506815
-0.388070 -0.776208 0.495069
-0.375664 -0.797859 0.506038
-0.365419 -0.800783 0.499043
-0.367763 -0.786296 0.511395
-0.357947 -0.802332 0.472369
-0.361829 -0.802398 0.483258
-0.351826 -0.802319 0.482626
-0.336405 -0.791338 0.466308
-0.337573 -0.793439 0.491583
-0.349780 -0.802057 0.493916
-0.335320 -0.782705 0.477358
-0.335615 -0.788527 0.463201
-0.335150 -0.775555 0.477982
-0.356131 -0.793141 0.509152
-0.363276 -0.800630 0.499515
-0.362436 -0.783969 0.511425
-0.340827 -0.798780 0.496750
-0.348558 -0.799948 0.501567
-0.335839 -0.785515 0.494657
-0.341805 -0.786386 0.506562
-0.388445 -0.766121 0.469572
-0.388487 -0.762143 0.478908
-0.388260 -0.774027 0.492244
-0.388459 -0.743665 0.471323
-0.388411 -0.752171 0.483408
-0.388356 -0.750232 0.486593
-0.379924 -0.766389 0.510158
-0.386193 -0.762698 0.505016
-0.385252 -0.758489 0.506279
-0.387900 -0.756863 0.496015
-0.373335 -0.762896 0.511394
-0.367700 -0.742972 0.511548
-0.370353 -0.758739 0.511484
-0.388492 -0.736326 0.475294
-0.388239 -0.725662 0.493495
-0.388282 -0.738127 0.490980
-0.388484 -0.712822 0.474315
-0.388452 -0.719012 0.481002
-0.388353 -0.719561 0.486765
-0.381076 -0.736505 0.509461
-0.386186 -0.739296 0.505056
-0.384525 -0.723174 0.506845
-0.386171 -0.713396 0.505136
-0.368590 -0.736917 0.511606
-0.378233 -0.718595 0.511521
-0.335142 -0.770060 0.477484
-0.335274 -0.759087 0.471751
-0.335390 -0.775121 0.490341
-0.335245 -0.752203 0.472975
-0.335286 -0.747850 0.471185
-0.335334 -0.758131 0.487471
-0.357550 -0.762679 0.511394
-0.350962 -0.774843 0.511404
-0.362710 -0.746224 0.511535
-0.338751 -0.768957 0.502502
-0.336560 -0.770583 0.497042
-0.342480 -0.773276 0.507089
-0.337707 -0.745458 0.499903
-0.341387 -0.756270 0.506449
-0.335187 -0.738457 0.475547
-0.335456 -0.729503 0.493708
-0.335155 -0.734814 0.478322
-0.335342 -0.720783 0.468774
-0.335352 -0.719341 0.468304
-0.335162 -0.714257 0.478724
-0.359692 -0.729837 0.511628
-0.351936 -0.731579 0.511528
-0.352613 -0.719036 0.511594
-0.337579 -0.743433 0.499585
-0.346390 -0.735693 0.509325
-0.337969 -0.724981 0.500569
-0.337011 -0.715035 0.498178
-0.344276 -0.721082 0.508178
-0.387841 -0.707259 0.460476
-0.386176 -0.693730 0.453299
-0.388314 -0.690491 0.462531
-0.369513 -0.705334 0.449044
-0.377708 -0.694766 0.449280
-0.369945 -0.681262 0.449056
-0.386551 -0.670251 0.454880
-0.381705 -0.659522 0.450974
-0.387916 -0.653245 0.460803
-0.365793 -0.675003 0.448937
-0.365705 -0.659668 0.448935
-0.367678 -0.643816 0.448991
-0.362876 -0.706492 0.448950
-0.363562 -0.706998 0.448944
-0.356307 -0.681911 0.449014
-0.339901 -0.698486 0.453450
-0.340436 -0.704331 0.452955
-0.335928 -0.686292 0.461722
-0.343759 -0.683720 0.451628
-0.356555 -0.669746 0.449011
-0.356858 -0.664150 0.449008
-0.355030 -0.647883 0.449026
-0.335597 -0.667511 0.462410
-0.343276 -0.674198 0.451821
-0.335697 -0.652006 0.462203
-0.341243 -0.647921 0.452633
-0.386416 -0.635385 0.454293
-0.381690 -0.631499 0.450966
-0.386210 -0.604220 0.453402
-0.382923 -0.611023 0.451607
-0.375247 -0.628617 0.449209
-0.369903 -0.618930 0.449055
-0.386888 -0.597669 0.456344
-0.381748 -0.602111 0.450996
-0.386545 -0.580634 0.454853
-0.378525 -0.586100 0.449320
-0.370141 -0.607867 0.449062
-0.367823 -0.587185 0.448995
-0.376179 -0.585978 0.449236
-0.355670 -0.629595 0.449020
-0.354952 -0.616024 0.449027
-0.336964 -0.638353 0.459564
-0.339418 -0.626612 0.454455
-0.341464 -0.626181 0.452545
-0.339536 -0.621442 0.454210
-0.347128 -0.611769 0.450283
-0.355659 -0.597595 0.449020
-0.351423 -0.591851 0.449061
-0.363186 -0.578431 0.448947
-0.338404 -0.596401 0.456566
-0.345664 -0.595417 0.450868
-0.337901 -0.582387 0.457613
-0.343800 -0.577416 0.451612
-0.388499 -0.699556 0.476196
-0.388427 -0.701430 0.482440
-0.388255 -0.706481 0.492531
-0.388439 -0.678168 0.468770
-0.388324 -0.680197 0.488503
-0.388341 -0.690251 0.487506
-0.380630 -0.708457 0.509800
-0.386124 -0.703635 0.505384
-0.380594 -0.686956 0.509827
-0.386624 -0.688291 0.502742
-0.377648 -0.694246 0.511531
-0.376887 -0.676369 0.511543
-0.371778 -0.687334 0.511626
-0.388449 -0.671217 0.470041
-0.388479 -0.661298 0.479401
-0.388318 -0.666662 0.488849
-0.388502 -0.649953 0.476596
-0.388463 -0.650488 0.480313
-0.388426 -0.654452 0.482512
-0.383869 -0.674518 0.507343
-0.386512 -0.664723 0.503335
-0.379623 -0.650877 0.510564
-0.386300 -0.650429 0.504453
-0.366065 -0.662435 0.511719
-0.375201 -0.647414 0.511571
-0.335285 -0.701545 0.471246
-0.335324 -0.692926 0.469553
-0.335195 -0.706648 0.480406
-0.335149 -0.692293 0.477193
-0.335260 -0.677528 0.472349
-0.335290 -0.686687 0.485226
-0.351568 -0.693374 0.511583
-0.352907 -0.708895 0.511598
-0.357826 -0.678807 0.511650
-0.338241 -0.704095 0.501252
-0.338654 -0.701221 0.502284
-0.342515 -0.713043 0.507155
-0.336847 -0.687191 0.497767
-0.345653 -0.688117 0.508978
-0.335176 -0.674129 0.475996
-0.335365 -0.675282 0.489077
-0.335237 -0.665072 0.482511
-0.335145 -0.648628 0.477372
-0.335353 -0.649931 0.468290
-0.335154 -0.648174 0.478278
-0.362695 -0.662208 0.511701
-0.351579 -0.665855 0.511584
-0.353181 -0.648200 0.511601
-0.337445 -0.674264 0.499263
-0.346013 -0.667517 0.509187
-0.338023 -0.655161 0.500706
-0.336612 -0.652653 0.497180
-0.340049 -0.651090 0.505723
-0.388505 -0.632406 0.476935
-0.388488 -0.635604 0.478867
-0.388314 -0.637730 0.489048
-0.388422 -0.611293 0.466667
-0.388316 -0.609989 0.488957
-0.388455 -0.623946 0.480809
-0.379989 -0.641107 0.510286
-0.386328 -0.638973 0.504304
-0.382220 -0.619241 0.508594
-0.386543 -0.624275 0.503170
-0.378213 -0.630289 0.511521
-0.373879 -0.610243 0.511592
-0.367048 -0.617553 0.511703
-0.388471 -0.604663 0.472767
-0.388472 -0.599870 0.479804
-0.388309 -0.599298 0.489355
-0.388506 -0.580087 0.477109
-0.388350 -0.577536 0.486959
-0.388254 -0.583490 0.492569
-0.381319 -0.601579 0.509277
-0.387084 -0.606798 0.500320
-0.380376 -0.590153 0.509993
-0.387320 -0.588230 0.499075
-0.368511 -0.607648 0.511680
-0.369232 -0.577551 0.511668
-0.335198 -0.633028 0.475025
-0.335222 -0.626398 0.474016
-0.335336 -0.639276 0.487609
-0.335148 -0.613663 0.477215
-0.335351 -0.611470 0.468386
-0.335147 -0.626095 0.477945
-0.363707 -0.631188 0.511712
-0.351733 -0.632727 0.511585
-0.359210 -0.616698 0.511664
-0.339249 -0.634909 0.503770
-0.336716 -0.637354 0.497440
-0.341289 -0.633331 0.506443
-0.336951 -0.612636 0.498029
-0.346090 -0.623892 0.509232
-0.335266 -0.606921 0.472057
-0.335320 -0.604316 0.486758
-0.335329 -0.597785 0.487207
-0.335263 -0.589770 0.472212
-0.335265 -0.579144 0.472120
-0.335399 -0.577290 0.490800
-0.363952 -0.605858 0.511715
-0.359716 -0.605023 0.511670
-0.360348 -0.592576 0.511676
-0.337074 -0.606289 0.498334
-0.347320 -0.597247 0.509947
-0.339139 -0.585091 0.503494
-0.336465 -0.586612 0.496813
-0.346287 -0.594149 0.509347
-0.387856 -0.563634 0.460542
-0.385835 -0.557349 0.453121
-0.388069 -0.548989 0.461467
-0.370553 -0.566976 0.449074
-0.366508 -0.560006 0.448958
-0.377265 -0.556037 0.449267
-0.387780 -0.536710 0.460213
-0.381470 -0.528602 0.450852
-0.386648 -0.520861 0.455302
-0.374235 -0.539690 0.449180
-0.377080 -0.532825 0.449261
-0.369671 -0.511617 0.449049
-0.353781 -0.574853 0.449038
-0.357140 -0.555798 0.449006
-0.360625 -0.550092 0.448972
-0.339739 -0.568555 0.453786
-0.349620 -0.576335 0.449289
-0.337506 -0.552998 0.458437
-0.340164 -0.550555 0.453064
-0.355166 -0.536262 0.449025
-0.359550 -0.527297 0.448982
-0.363602 -0.523315 0.448943
-0.337339 -0.537369 0.458784
-0.345330 -0.539625 0.451001
-0.339184 -0.523493 0.454942
-0.344122 -0.520587 0.451483
-0.387504 -0.497358 0.459015
-0.380510 -0.501705 0.450353
-0.386562 -0.483052 0.454930
-0.381397 -0.479470 0.450814
-0.372520 -0.496586 0.449130
-0.366854 -0.491016 0.448968
-0.386249 -0.469227 0.453560
-0.381960 -0.471261 0.451105
-0.387213 -0.445686 0.457642
-0.381470 -0.455521 0.450694
-0.372577 -0.474057 0.449133
-0.366427 -0.450044 0.447824
-0.368988 -0.444929 0.447476
-0.362471 -0.494458 0.448954
-0.352522 -0.492240 0.449050
-0.365092 -0.486747 0.448929
-0.340006 -0.497459 0.453232
-0.346663 -0.499681 0.450469
-0.339498 -0.478730 0.454290
-0.344750 -0.484075 0.451233
-0.359896 -0.470802 0.448979
-0.355799 -0.454378 0.448688
-0.365312 -0.453392 0.448176
-0.336856 -0.461787 0.459790
-0.348971 -0.471900 0.449547
-0.337910 -0.445954 0.457572
-0.346650 -0.448211 0.450150
-0.388485 -0.563083 0.474476
-0.388356 -0.565121 0.486614
-0.388335 -0.574895 0.487835
-0.388491 -0.545555 0.475276
-0.388363 -0.546422 0.486171
-0.388235 -0.549771 0.493685
-0.385522 -0.560967 0.506088
-0.387874 -0.568718 0.496150
-0.385847 -0.554447 0.505842
-0.387561 -0.552411 0.497802
-0.372245 -0.565760 0.511619
-0.376352 -0.545542 0.511552
-0.370290 -0.550178 0.511651
-0.388467 -0.536792 0.472280
-0.388411 -0.533540 0.483392
-0.388441 -0.539412 0.481610
-0.388452 -0.523278 0.470350
-0.388433 -0.519235 0.482080
-0.388281 -0.523349 0.490986
-0.380522 -0.533581 0.509882
-0.387395 -0.541152 0.498679
-0.379205 -0.516648 0.510881
-0.386630 -0.521659 0.502716
-0.370711 -0.529426 0.511644
-0.377582 -0.511774 0.511532
-0.335327 -0.570752 0.469400
-0.335437 -0.560901 0.464600
-0.335203 -0.575237 0.480808
-0.335231 -0.555919 0.473612
-0.335418 -0.547409 0.465433
-0.335204 -0.559706 0.480826
-0.335355 -0.547902 0.488547
-0.355814 -0.566868 0.511628
-0.353497 -0.543684 0.511604
-0.353428 -0.557987 0.511603
-0.337492 -0.564860 0.499380
-0.342777 -0.573681 0.507308
-0.336197 -0.557351 0.496144
-0.345889 -0.548295 0.509116
-0.335441 -0.541625 0.464445
-0.335419 -0.538309 0.465402
-0.335411 -0.527946 0.491392
-0.335305 -0.526530 0.470385
-0.335369 -0.521011 0.467604
-0.335417 -0.517444 0.491739
-0.353637 -0.527301 0.511605
-0.359181 -0.539648 0.511664
-0.355332 -0.515068 0.511623
-0.337394 -0.544335 0.499135
-0.344558 -0.534350 0.508342
-0.340274 -0.539225 0.505854
-0.337360 -0.515532 0.499051
-0.342068 -0.530513 0.506896
-0.388395 -0.509463 0.463319
-0.388460 -0.500104 0.480530
-0.388481 -0.509797 0.479293
-0.388411 -0.478702 0.465400
-0.388464 -0.481884 0.480292
-0.388308 -0.489307 0.489449
-0.384954 -0.498045 0.506519
-0.387431 -0.501671 0.498488
-0.385304 -0.479943 0.506254
-0.387781 -0.488012 0.496641
-0.375697 -0.494548 0.511562
-0.377057 -0.480676 0.511540
-0.369220 -0.485712 0.511668
-0.388424 -0.475747 0.466914
-0.388323 -0.465514 0.488565
-0.388275 -0.470119 0.491387
-0.388477 -0.449163 0.473520
-0.388452 -0.445665 0.480986
-0.388250 -0.457957 0.492856
-0.378876 -0.467308 0.511131
-0.387451 -0.472489 0.498379
-0.383665 -0.455103 0.507497
-0.387614 -0.455605 0.497522
-0.375297 -0.472834 0.511569
-0.372473 -0.448636 0.511615
-0.335205 -0.506597 0.474748
-0.335348 -0.497892 0.468499
-0.335452 -0.502340 0.493499
-0.335170 -0.490898 0.476269
-0.335477 -0.491180 0.462885
-0.335332 -0.490600 0.487371
-0.335310 -0.482818 0.486243
-0.356817 -0.501186 0.511639
-0.362524 -0.480596 0.511699
-0.353128 -0.492890 0.511600
-0.336909 -0.503220 0.497923
-0.348130 -0.508082 0.510417
-0.337058 -0.483709 0.498294
-0.348486 -0.491042 0.510624
-0.335299 -0.471959 0.470656
-0.335441 -0.465130 0.464456
-0.335245 -0.467858 0.482925
-0.335403 -0.456680 0.466103
-0.335439 -0.455708 0.464528
-0.335360 -0.454527 0.488811
-0.361590 -0.464140 0.511690
-0.350519 -0.474030 0.511572
-0.362870 -0.449064 0.511703
-0.339113 -0.473132 0.503431
-0.348816 -0.473820 0.510816
-0.347895 -0.477067 0.510280
-0.336007 -0.452872 0.495668
-0.348285 -0.459843 0.510507
-0.388179 -0.439496 0.461903
-0.382164 -0.430892 0.447525
-0.388244 -0.425470 0.462143
-0.384811 -0.415484 0.449304
-0.378898 -0.430921 0.444800
-0.378875 -0.422216 0.440796
-0.369373 -0.430129 0.438941
-0.387658 -0.407165 0.459134
-0.384682 -0.400793 0.448739
-0.388295 -0.392521 0.462360
-0.383166 -0.381100 0.445319
-0.380387 -0.406522 0.437307
-0.379458 -0.385102 0.435456
-0.354221 -0.438243 0.446198
-0.364409 -0.437044 0.444605
-0.349038 -0.418543 0.440083
-0.360924 -0.426077 0.433791
-0.335745 -0.436935 0.462089
-0.343914 -0.440594 0.451085
-0.348614 -0.429550 0.445960
-0.339985 -0.412258 0.451839
-0.347346 -0.421229 0.445913
-0.348172 -0.407382 0.429475
-0.346569 -0.389081 0.434806
-0.346934 -0.378980 0.435594
-0.337290 -0.396259 0.458078
-0.343019 -0.394779 0.444043
-0.335740 -0.387658 0.461900
-0.342021 -0.390167 0.446557
-0.387292 -0.364628 0.457594
-0.384327 -0.371123 0.450822
-0.385594 -0.368757 0.452514
-0.387990 -0.355347 0.461045
-0.386129 -0.354376 0.453243
-0.376823 -0.377622 0.431742
-0.379127 -0.373823 0.442204
-0.370520 -0.345208 0.448819
-0.386804 -0.329334 0.455978
-0.378806 -0.328738 0.449465
-0.387889 -0.317881 0.460687
-0.383400 -0.310679 0.451855
-0.371647 -0.328148 0.449106
-0.373407 -0.326306 0.449156
-0.349334 -0.379622 0.430138
-0.354686 -0.357340 0.443117
-0.352665 -0.345442 0.448430
-0.339543 -0.367539 0.453306
-0.344862 -0.368622 0.444462
-0.338192 -0.344778 0.456879
-0.340400 -0.361048 0.451987
-0.351293 -0.341648 0.449142
-0.358070 -0.333023 0.449019
-0.355587 -0.319676 0.449021
-0.335784 -0.340288 0.462000
-0.344651 -0.341997 0.451303
-0.336396 -0.320622 0.460747
-0.340946 -0.322155 0.452752
-0.346149 -0.315127 0.450674
-0.388485 -0.437108 0.474448
-0.388434 -0.434874 0.482005
-0.388232 -0.439388 0.493915
-0.388490 -0.422534 0.475104
-0.388428 -0.415904 0.482384
-0.388387 -0.421091 0.484783
-0.378859 -0.431992 0.511144
-0.386207 -0.439573 0.504943
-0.378632 -0.424591 0.511317
-0.387013 -0.425201 0.500690
-0.376243 -0.442432 0.511554
-0.377943 -0.416312 0.511526
-0.388436 -0.395382 0.468003
-0.388476 -0.401882 0.473188
-0.388451 -0.406042 0.481009
-0.388434 -0.386331 0.467794
-0.388477 -0.389714 0.473330
-0.388435 -0.379889 0.481993
-0.385147 -0.398835 0.506373
-0.386944 -0.398193 0.501058
-0.385723 -0.382204 0.505935
-0.386983 -0.379453 0.500852
-0.386948 -0.390691 0.501035
-0.372965 -0.404019 0.511607
-0.367442 -0.383924 0.511697
-0.335224 -0.436432 0.473913
-0.335321 -0.436113 0.486843
-0.335281 -0.430595 0.484753
-0.335261 -0.419606 0.471877
-0.335424 -0.414507 0.462921
-0.335155 -0.416565 0.478344
-0.356774 -0.430165 0.511639
-0.351091 -0.432104 0.511578
-0.357491 -0.424363 0.511646
-0.337312 -0.440709 0.498930
-0.347511 -0.439739 0.510058
-0.338901 -0.422809 0.502899
-0.335813 -0.411543 0.495184
-0.345709 -0.423904 0.509011
-0.335181 -0.402037 0.475399
-0.335438 -0.405588 0.492784
-0.335205 -0.404191 0.480896
-0.335311 -0.389085 0.468010
-0.335376 -0.387302 0.489650
-0.335200 -0.386321 0.480621
-0.365036 -0.407369 0.511726
-0.352657 -0.377784 0.511595
-0.357715 -0.393668 0.511649
-0.336053 -0.398210 0.495783
-0.345587 -0.398870 0.508940
-0.336444 -0.393272 0.496761
-0.346862 -0.389795 0.509681
-0.342226 -0.393177 0.506988
-0.388500 -0.362970 0.476320
-0.388436 -0.366198 0.481937
-0.388268 -0.369738 0.491757
-0.388409 -0.360552 0.464634
-0.388348 -0.350995 0.487100
-0.388245 -0.351946 0.493114
-0.382596 -0.376761 0.508308
-0.386728 -0.367104 0.502195
-0.380282 -0.356503 0.510064
-0.386617 -0.357102 0.502780
-0.366931 -0.367961 0.511705
-0.368891 -0.346241 0.511673
-0.388429 -0.337178 0.467460
-0.388459 -0.343146 0.471135
-0.388496 -0.341356 0.478419
-0.388442 -0.312914 0.469117
-0.388488 -0.318967 0.474845
-0.388506 -0.326859 0.477837
-0.384099 -0.335165 0.507168
-0.388096 -0.333720 0.494980
-0.384683 -0.317525 0.506725
-0.387264 -0.314783 0.499371
-0.375484 -0.333025 0.511566
-0.365641 -0.339652 0.511726
-0.365741 -0.323221 0.511725
-0.335212 -0.373098 0.473591
-0.335221 -0.376983 0.481719
-0.335187 -0.367070 0.479966
-0.335197 -0.354963 0.474678
-0.335397 -0.355237 0.464890
-0.335142 -0.346418 0.477681
-0.364799 -0.368080 0.511723
-0.357143 -0.373707 0.511642
-0.351489 -0.350301 0.511583
-0.338995 -0.376261 0.503135
-0.346724 -0.368491 0.509600
-0.339166 -0.358282 0.503562
-0.338425 -0.349151 0.501711
-0.340290 -0.354579 0.505863
-0.335305 -0.328254 0.470341
-0.335375 -0.337703 0.489569
-0.335147 -0.337817 0.477927
-0.335203 -0.320238 0.474838
-0.335320 -0.324134 0.486779
-0.335274 -0.314426 0.484406
-0.364062 -0.339985 0.511716
-0.364191 -0.311839 0.511717
-0.355669 -0.325382 0.511627
-0.337875 -0.334185 0.500336
-0.346026 -0.339058 0.509195
-0.338400 -0.324347 0.501648
-0.347495 -0.318223 0.510049
-0.340214 -0.330656 0.505819
-0.382291 -0.300629 0.451279
-0.386498 -0.287246 0.454651
-0.383586 -0.286995 0.451952
-0.368526 -0.308460 0.449016
-0.374877 -0.293050 0.449198
-0.376803 -0.288247 0.449254
-0.387048 -0.269479 0.457037
-0.387173 -0.244741 0.457580
-0.380538 -0.251121 0.450367
-0.371993 -0.270628 0.449115
-0.365511 -0.249142 0.448929
-0.376552 -0.257912 0.449246
-0.352859 -0.301319 0.449047
-0.352291 -0.282742 0.449052
-0.355453 -0.280032 0.449022
-0.338702 -0.303115 0.455947
-0.349301 -0.295440 0.449416
-0.339921 -0.280772 0.453408
-0.344556 -0.284031 0.451310
-0.351221 -0.269620 0.449063
-0.350382 -0.254222 0.449071
-0.364982 -0.245026 0.448930
-0.338353 -0.267915 0.456673
-0.349402 -0.274368 0.449375
-0.339803 -0.258108 0.453653
-0.344379 -0.244720 0.451381
-0.388138 -0.235534 0.461767
-0.384852 -0.234011 0.452610
-0.387878 -0.215799 0.460637
-0.386001 -0.207774 0.453208
-0.376535 -0.234391 0.449246
-0.367861 -0.225805 0.448997
-0.387141 -0.200773 0.457440
-0.383435 -0.202798 0.451873
-0.388322 -0.189142 0.462564
-0.383155 -0.175262 0.451728
-0.373905 -0.195226 0.449170
-0.368281 -0.184023 0.449009
-0.352816 -0.232099 0.449047
-0.362625 -0.230238 0.448953
-0.356745 -0.213388 0.449010
-0.337219 -0.235457 0.459034
-0.342271 -0.233497 0.452223
-0.336177 -0.216002 0.461202
-0.340412 -0.213441 0.452965
-0.354775 -0.201215 0.449001
-0.358134 -0.196217 0.448975
-0.355290 -0.194220 0.448991
-0.338471 -0.210501 0.456442
-0.341921 -0.198187 0.452380
-0.332612 -0.189232 0.462342
-0.333548 -0.179422 0.453678
-0.349270 -0.180028 0.449281
-0.388467 -0.299564 0.472282
-0.388468 -0.299182 0.480016
-0.388291 -0.307339 0.490412
-0.388469 -0.278865 0.472467
-0.388303 -0.281284 0.489740
-0.388272 -0.286358 0.491548
-0.382289 -0.307641 0.508542
-0.386150 -0.310174 0.505244
-0.385294 -0.289085 0.506261
-0.387695 -0.278653 0.497093
-0.375716 -0.300809 0.511562
-0.376075 -0.278372 0.511556
-0.367869 -0.289681 0.511690
-0.388487 -0.277048 0.474719
-0.388301 -0.262204 0.489867
-0.388448 -0.274431 0.481189
-0.388450 -0.253109 0.470197
-0.388362 -0.249628 0.486274
-0.388359 -0.253796 0.486435
-0.381964 -0.271545 0.508788
-0.387275 -0.274532 0.499312
-0.379613 -0.260855 0.510572
-0.386533 -0.259299 0.503226
-0.365943 -0.274804 0.511721
-0.375155 -0.254220 0.511571
-0.335144 -0.301351 0.477386
-0.335360 -0.298425 0.467967
-0.335253 -0.308387 0.483352
-0.335374 -0.294018 0.467373
-0.335334 -0.279655 0.469113
-0.335352 -0.286167 0.488379
-0.335163 -0.290183 0.478763
-0.356021 -0.310563 0.511631
-0.360323 -0.280604 0.511676
-0.339037 -0.308839 0.503241
-0.335615 -0.300021 0.494690
-0.342769 -0.313828 0.507303
-0.335826 -0.291233 0.495216
-0.347478 -0.285270 0.510038
-0.335391 -0.274999 0.466631
-0.335234 -0.263350 0.473470
-0.335199 -0.266724 0.480583
-0.335245 -0.257662 0.472995
-0.335210 -0.246160 0.474528
-0.335398 -0.248065 0.490751
-0.358487 -0.262515 0.511657
-0.357230 -0.277634 0.511643
-0.353498 -0.245909 0.511604
-0.338300 -0.278235 0.501398
-0.350007 -0.266654 0.511508
-0.341920 -0.275447 0.506810
-0.335716 -0.251634 0.494941
-0.340966 -0.265791 0.506256
-0.388412 -0.239557 0.465447
-0.388457 -0.232612 0.480686
-0.388256 -0.242930 0.492464
-0.388435 -0.213083 0.468268
-0.388324 -0.214288 0.488492
-0.388334 -0.224262 0.487887
-0.380063 -0.234062 0.510231
-0.387218 -0.240054 0.499611
-0.385417 -0.215048 0.506168
-0.386631 -0.212859 0.502709
-0.372370 -0.228353 0.511617
-0.374697 -0.213974 0.511579
-0.368007 -0.223325 0.511688
-0.388487 -0.204235 0.474721
-0.388259 -0.196227 0.492329
-0.388397 -0.207677 0.484228
-0.388475 -0.194441 0.473249
-0.388397 -0.178374 0.484198
-0.388336 -0.191873 0.487800
-0.382172 -0.210668 0.508630
-0.386380 -0.203549 0.504033
-0.381550 -0.185921 0.509102
-0.386379 -0.182643 0.504036
-0.366758 -0.198409 0.511577
-0.374434 -0.181523 0.511482
-0.335286 -0.238099 0.471192
-0.335352 -0.229454 0.468308
-0.335389 -0.236072 0.490279
-0.335256 -0.224861 0.472494
-0.335202 -0.214259 0.474893
-0.335295 -0.221215 0.485509
-0.335217 -0.215818 0.481502
-0.352160 -0.240876 0.511590
-0.353964 -0.215251 0.511609
-0.339399 -0.241025 0.504144
-0.335902 -0.238903 0.495407
-0.340858 -0.234691 0.506193
-0.337356 -0.219907 0.499040
-0.346992 -0.222183 0.509756
-0.335258 -0.198520 0.476891
-0.335567 -0.196551 0.464101
-0.335354 -0.200822 0.484088
-0.334133 -0.192898 0.472478
-0.330648 -0.185872 0.493108
-0.330978 -0.187144 0.477566
-0.358589 -0.206764 0.511624
-0.360882 -0.188885 0.511543
-0.360387 -0.193832 0.511531
-0.338023 -0.201299 0.500562
-0.346236 -0.210606 0.509318
-0.338297 -0.196866 0.502779
-0.343161 -0.185541 0.508632
-0.341276 -0.186919 0.507840
-0.387469 -0.167476 0.458863
-0.385611 -0.160135 0.453005
-0.387564 -0.153686 0.459276
-0.365830 -0.165503 0.448938
-0.371388 -0.161964 0.449098
-0.374885 -0.152946 0.449198
-0.387552 -0.142170 0.459223
-0.383535 -0.133366 0.451931
-0.387972 -0.122776 0.461022
-0.384533 -0.109277 0.451456
-0.377066 -0.129601 0.449268
-0.370640 -0.128564 0.449075
-0.357825 -0.172835 0.448930
-0.363536 -0.174180 0.448926
-0.363751 -0.155006 0.448926
-0.337826 -0.169476 0.451513
-0.346785 -0.170876 0.449572
-0.342022 -0.154260 0.450370
-0.339953 -0.150174 0.450721
-0.359036 -0.133497 0.448928
-0.352877 -0.120155 0.448475
-0.338008 -0.133064 0.451053
-0.347095 -0.131105 0.449505
-0.335154 -0.127133 0.451541
-0.347917 -0.113611 0.448692
-0.388138 -0.103142 0.461524
-0.386297 -0.101473 0.451041
-0.386923 -0.085258 0.447429
-0.382439 -0.091690 0.433312
-0.387723 -0.084710 0.456985
-0.373492 -0.102868 0.441689
-0.369034 -0.097502 0.433367
-0.386683 -0.066792 0.439299
-0.387918 -0.067586 0.455563
-0.388091 -0.075270 0.457886
-0.386833 -0.045618 0.441042
-0.387118 -0.059891 0.444805
-0.387582 -0.058440 0.450927
-0.356224 -0.109957 0.446476
-0.360895 -0.097871 0.434297
-0.356319 -0.097000 0.432647
-0.349459 -0.101819 0.443381
-0.335950 -0.090796 0.443393
-0.333543 -0.081928 0.444613
-0.354076 -0.099545 0.438382
-0.336364 -0.067299 0.443547
-0.337825 -0.062312 0.429863
-0.334064 -0.065453 0.463680
-0.335676 -0.065597 0.447443
-0.337000 -0.052690 0.440703
-0.337220 -0.045615 0.437785
-0.335901 -0.054797 0.458080
-0.326532 -0.134367 0.453007
-0.324679 -0.122886 0.453328
-0.330805 -0.121566 0.452289
-0.329187 -0.099223 0.449258
-0.323044 -0.084835 0.457785
-0.323233 -0.083642 0.460652
-0.322479 -0.089620 0.453357
-0.388397 -0.171043 0.463613
-0.388482 -0.173492 0.474166
-0.388302 -0.171847 0.489783
-0.388394 -0.145996 0.463194
-0.388489 -0.160792 0.474951
-0.388395 -0.158704 0.484319
-0.385070 -0.166996 0.506431
-0.387171 -0.166449 0.499859
-0.385761 -0.150604 0.505907
-0.386683 -0.149700 0.502434
-0.377718 -0.169557 0.511513
-0.368100 -0.172096 0.511422
-0.369278 -0.161222 0.511433
-0.388474 -0.129743 0.473086
-0.388490 -0.137238 0.478773
-0.388256 -0.137265 0.492464
-0.388430 -0.114314 0.466271
-0.388500 -0.118024 0.478153
-0.388255 -0.114612 0.492517
-0.379767 -0.133908 0.510455
-0.386634 -0.137731 0.502692
-0.380959 -0.127391 0.509551
-0.386244 -0.120633 0.504748
-0.376640 -0.134390 0.511503
-0.369404 -0.113126 0.511435
-0.365457 -0.127023 0.511397
-0.353147 -0.168771 0.511428
-0.362957 -0.148631 0.511397
-0.340576 -0.164239 0.509729
-0.336847 -0.176054 0.506820
-0.348188 -0.146422 0.511011
-0.336413 -0.161462 0.508994
-0.356927 -0.131797 0.511395
-0.364458 -0.120252 0.511397
-0.356389 -0.125329 0.511395
-0.343789 -0.136373 0.510262
-0.341052 -0.118581 0.509793
-0.334695 -0.121870 0.508712
-0.388452 -0.102496 0.467349
-0.388472 -0.108570 0.472106
-0.388230 -0.111892 0.493978
-0.388493 -0.081593 0.466866
-0.388468 -0.095174 0.465955
-0.388485 -0.094826 0.479022
-0.381381 -0.097776 0.509230
-0.387160 -0.099656 0.499919
-0.382498 -0.086467 0.508383
-0.387778 -0.082616 0.496656
-0.371654 -0.101664 0.511456
-0.368914 -0.109915 0.511430
-0.365741 -0.093631 0.511400
-0.388503 -0.065479 0.466026
-0.388485 -0.074004 0.479054
-0.388232 -0.068056 0.493871
-0.388509 -0.046612 0.474105
-0.388483 -0.047354 0.479152
-0.388325 -0.055202 0.488413
-0.384154 -0.077820 0.507126
-0.387084 -0.072757 0.500315
-0.378867 -0.056088 0.511138
-0.386397 -0.061977 0.503940
-0.368522 -0.065378 0.511426
-0.370963 -0.049884 0.511544
-0.360909 -0.104407 0.511390
-0.357583 -0.107996 0.511391
-0.361268 -0.086834 0.511371
-0.340015 -0.102752 0.509503
-0.337459 -0.104868 0.509091
-0.347848 -0.086746 0.510505
-0.332134 -0.069296 0.476811
-0.332419 -0.068918 0.466476
-0.332484 -0.068696 0.490112
-0.335357 -0.048892 0.474818
-0.335402 -0.048784 0.472786
-0.335576 -0.055417 0.489452
-0.364761 -0.067855 0.511391
-0.361222 -0.076592 0.511364
-0.365039 -0.046906 0.511546
-0.333188 -0.077057 0.502000
-0.337161 -0.066202 0.500194
-0.343430 -0.072880 0.507628
-0.337584 -0.054796 0.499240
-0.344240 -0.057875 0.507822
-0.325834 -0.181037 0.483536
-0.319640 -0.163930 0.505731
-0.324576 -0.177084 0.499133
-0.328701 -0.150759 0.507786
-0.329266 -0.160825 0.507845
-0.331318 -0.139774 0.508186
-0.330899 -0.112399 0.508119
-0.320826 -0.123168 0.506604
-0.316709 -0.086889 0.466040
-0.323746 -0.080957 0.483877
-0.324763 -0.080309 0.494773
-0.326949 -0.107431 0.507389
-0.320965 -0.083764 0.494378
-0.332308 -0.095743 0.507540
-0.386093 -0.036227 0.431308
-0.386540 -0.044473 0.437195
-0.387330 -0.040481 0.447602
-0.386645 -0.014596 0.439030
-0.387210 -0.015508 0.446283
-0.387366 -0.020584 0.448222
-0.387531 -0.027003 0.450285
-0.385281 -0.002987 0.441431
-0.386620 -0.007078 0.447930
-0.379698 0.005987 0.454906
-0.382761 0.003610 0.451079
-0.368576 0.007117 0.462159
-0.336836 -0.045101 0.442840
-0.337610 -0.029627 0.432649
-0.335919 -0.039136 0.458050
-0.335708 -0.029354 0.461838
-0.337020 -0.017486 0.440564
-0.335857 -0.027753 0.458939
-0.336032 -0.019743 0.454576
-0.364439 0.006622 0.459121
-0.364679 0.004483 0.446537
-0.335626 -0.011676 0.461075
-0.337489 -0.007300 0.447855
-0.346848 0.006500 0.459010
-0.388506 -0.033211 0.467372
-0.388505 -0.042893 0.465678
-0.388361 -0.043978 0.486333
-0.388503 -0.027675 0.463638
-0.388507 -0.027362 0.473548
-0.388370 -0.026926 0.485661
-0.382810 -0.029916 0.508146
-0.387562 -0.030637 0.497794
-0.380395 -0.016618 0.509979
-0.387738 -0.015681 0.496809
-0.377837 -0.030280 0.511528
-0.367331 -0.035852 0.511655
-0.366979 -0.018367 0.511705
-0.388162 -0.006810 0.473628
-0.388024 -0.004414 0.480070
-0.379246 0.007164 0.475436
-0.379094 0.007173 0.482908
-0.387285 0.001142 0.492855
-0.375054 0.007289 0.470336
-0.371771 0.007332 0.483379
-0.381512 -0.007477 0.508927
-0.386111 -0.009461 0.505171
-0.386156 0.005038 0.502799
-0.368918 -0.009766 0.511566
-0.377670 0.005318 0.506338
-0.335443 -0.037172 0.475324
-0.335523 -0.040526 0.485805
-0.335617 -0.031376 0.486004
-0.335435 -0.020010 0.473248
-0.335791 -0.014218 0.493655
-0.335620 -0.021580 0.484992
-0.355842 -0.031442 0.511501
-0.356286 -0.015486 0.511634
-0.362686 -0.028147 0.511680
-0.338464 -0.046860 0.501441
-0.346109 -0.035017 0.509070
-0.337917 -0.028891 0.499934
-0.347913 -0.021158 0.510210
-0.343625 -0.023710 0.507704
-0.359351 0.007370 0.473615
-0.353600 0.007184 0.489763
-0.335460 -0.009200 0.474857
-0.335665 -0.010046 0.489266
-0.335816 -0.000771 0.490738
-0.340596 0.006166 0.460268
-0.338383 0.003543 0.478730
-0.350031 0.007268 0.482964
-0.351028 -0.009110 0.511464
-0.361725 0.006839 0.498353
-0.354182 0.002484 0.508554
-0.337146 -0.003571 0.497733
-0.344796 -0.009311 0.508400
-0.341074 0.006009 0.492256
-0.342204 0.001482 0.504492
0.338022 -0.079927 -0.238139
0.383521 -0.082868 -0.239505
0.383454 -0.078651 -0.221730
