ply
format ascii 1.0
element vertex 1000
property float x
property float y
property float z
end_header
-0.325506 -0.180887 -0.302131
-0.318083 -0.170922 -0.315091
-0.327288 -0.181863 -0.288537
-0.318762 -0.176961 -0.297405
-0.306306 -0.171547 -0.309593
-0.296653 -0.166672 -0.314283
-0.299811 -0.146007 -0.318026
-0.308134 -0.147774 -0.317823
-0.315035 -0.175613 -0.287631
-0.303626 -0.174418 -0.296280
-0.307629 -0.165691 -0.274295
-0.305538 -0.171362 -0.278870
-0.310263 -0.150899 -0.271387
-0.306489 -0.160013 -0.271892
-0.301893 -0.133237 -0.317949
-0.311663 -0.130369 -0.317772
-0.305219 -0.127224 -0.317916
-0.303534 -0.113865 -0.317975
-0.307678 -0.130196 -0.271507
-0.302605 -0.137043 -0.271920
-0.315736 -0.117262 -0.270848
-0.300881 -0.121144 -0.272061
-0.287027 -0.172537 -0.305200
-0.289438 -0.169665 -0.312578
-0.284697 -0.149374 -0.317987
-0.288872 -0.145912 -0.318025
-0.276448 -0.170455 -0.310635
-0.263071 -0.166667 -0.314225
-0.280525 -0.162676 -0.316416
-0.270616 -0.150056 -0.317980
-0.289099 -0.173983 -0.292698
-0.284630 -0.173899 -0.299849
-0.295849 -0.162662 -0.273685
-0.290165 -0.171491 -0.280817
-0.296424 -0.150117 -0.272327
-0.287554 -0.152075 -0.272368
-0.271355 -0.174012 -0.290498
-0.265923 -0.174043 -0.287877
-0.274414 -0.166897 -0.275615
-0.278218 -0.171996 -0.282018
-0.282375 -0.159027 -0.272523
-0.269084 -0.157728 -0.272494
-0.283140 -0.129449 -0.318034
-0.286706 -0.130447 -0.318034
-0.290633 -0.123512 -0.318034
-0.298263 -0.113920 -0.318034
-0.281485 -0.143026 -0.318034
-0.272617 -0.123780 -0.318034
-0.281077 -0.118383 -0.318034
-0.290825 -0.136914 -0.272213
-0.287862 -0.135818 -0.272212
-0.293816 -0.115343 -0.272216
-0.285692 -0.116155 -0.272214
-0.273764 -0.132045 -0.272211
-0.267388 -0.142319 -0.272211
-0.275868 -0.118734 -0.272213
-0.272584 -0.121212 -0.272212
-0.311786 -0.100676 -0.317714
-0.303701 -0.091186 -0.307609
-0.304623 -0.099129 -0.317389
-0.314749 -0.107082 -0.270996
-0.300248 -0.106120 -0.272207
-0.301610 -0.090278 -0.300544
-0.312146 -0.087726 -0.290832
-0.310425 -0.090885 -0.277379
-0.307811 -0.092968 -0.275976
-0.287096 -0.108220 -0.317963
-0.296835 -0.100226 -0.317811
-0.288811 -0.091040 -0.302417
-0.292628 -0.094101 -0.313660
-0.267843 -0.111517 -0.318025
-0.273176 -0.091827 -0.307816
-0.281470 -0.099392 -0.317634
-0.284891 -0.100948 -0.272388
-0.283055 -0.103600 -0.272346
-0.292246 -0.090937 -0.297064
-0.292504 -0.090952 -0.290084
-0.295438 -0.092195 -0.279280
-0.291130 -0.096826 -0.274185
-0.266321 -0.106044 -0.272307
-0.278533 -0.090920 -0.298261
-0.280335 -0.090944 -0.286833
-0.280162 -0.091537 -0.283170
-0.271740 -0.099035 -0.272808
-0.250842 -0.171115 -0.308915
-0.248871 -0.168294 -0.313332
-0.264012 -0.159560 -0.317875
-0.252333 -0.147340 -0.318010
-0.237103 -0.172664 -0.304874
-0.235280 -0.167573 -0.313728
-0.241104 -0.159030 -0.317881
-0.234543 -0.145287 -0.318032
-0.263014 -0.173952 -0.295530
-0.255550 -0.173954 -0.295358
-0.249323 -0.169795 -0.276940
-0.265272 -0.172384 -0.282945
-0.260597 -0.155369 -0.272441
-0.259279 -0.156125 -0.272458
-0.243367 -0.173964 -0.294493
-0.249031 -0.162645 -0.273672
-0.240754 -0.168217 -0.276218
-0.236418 -0.174028 -0.286872
-0.249103 -0.147675 -0.272268
-0.240304 -0.156021 -0.272456
-0.254160 -0.130326 -0.318034
-0.249778 -0.116510 -0.318034
-0.254482 -0.115705 -0.318034
-0.240036 -0.143488 -0.318034
-0.249050 -0.136865 -0.318034
-0.240359 -0.124026 -0.318034
-0.240529 -0.116177 -0.318034
-0.263629 -0.140569 -0.272211
-0.255890 -0.140106 -0.272211
-0.254415 -0.117115 -0.272213
-0.252039 -0.123962 -0.272212
-0.236320 -0.130312 -0.272211
-0.243184 -0.140038 -0.272211
-0.233640 -0.115676 -0.272213
-0.219482 -0.172825 -0.304453
-0.216377 -0.172512 -0.305268
-0.219041 -0.160921 -0.317380
-0.230798 -0.159980 -0.317871
-0.231274 -0.157926 -0.317893
-0.196931 -0.170997 -0.309221
-0.200901 -0.168678 -0.313121
-0.203938 -0.151554 -0.317963
-0.210910 -0.154643 -0.317929
-0.232083 -0.173893 -0.300443
-0.222450 -0.160801 -0.272829
-0.217449 -0.165882 -0.275151
-0.226177 -0.173996 -0.286798
-0.224397 -0.147258 -0.272259
-0.230530 -0.159519 -0.272534
-0.208744 -0.173888 -0.300880
-0.206122 -0.161961 -0.273359
-0.208695 -0.171482 -0.280791
-0.209691 -0.172633 -0.283540
-0.204937 -0.150643 -0.272335
-0.224342 -0.138305 -0.318034
-0.224171 -0.129287 -0.318034
-0.219108 -0.117013 -0.318034
-0.226611 -0.115595 -0.318034
-0.208211 -0.138610 -0.318034
-0.207827 -0.130347 -0.318034
-0.211240 -0.128121 -0.318034
-0.215886 -0.124019 -0.318034
-0.230502 -0.132556 -0.272211
-0.223519 -0.136934 -0.272211
-0.221115 -0.119194 -0.272213
-0.209757 -0.132778 -0.272211
-0.209221 -0.139042 -0.272211
-0.207830 -0.120261 -0.272212
-0.210785 -0.123967 -0.272212
-0.255188 -0.106426 -0.317929
-0.265040 -0.106377 -0.317928
-0.260172 -0.091593 -0.306226
-0.261226 -0.095872 -0.314989
-0.248414 -0.110956 -0.318015
-0.236414 -0.092224 -0.310513
-0.239399 -0.097584 -0.316275
-0.263961 -0.107924 -0.272278
-0.250501 -0.108949 -0.272262
-0.256089 -0.090920 -0.298333
-0.258254 -0.091686 -0.282270
-0.268549 -0.092494 -0.277376
-0.242264 -0.103650 -0.272345
-0.234645 -0.111363 -0.272224
-0.240282 -0.090929 -0.294393
-0.243083 -0.091860 -0.281212
-0.241453 -0.092358 -0.278199
-0.237858 -0.093871 -0.276022
-0.225016 -0.103210 -0.317867
-0.227472 -0.092060 -0.309400
-0.224530 -0.097684 -0.316351
-0.201383 -0.110967 -0.318015
-0.209255 -0.105154 -0.317904
-0.212596 -0.092083 -0.309559
-0.209924 -0.093651 -0.313321
-0.228421 -0.110126 -0.272243
-0.222977 -0.090924 -0.296660
-0.222596 -0.090933 -0.292462
-0.235835 -0.092306 -0.278510
-0.219936 -0.098898 -0.272893
-0.213991 -0.107094 -0.272291
-0.204838 -0.090922 -0.297383
-0.201669 -0.090942 -0.288162
-0.216565 -0.091456 -0.283665
-0.212113 -0.094596 -0.275570
-0.184522 -0.173716 -0.302130
-0.184169 -0.163375 -0.316033
-0.190181 -0.165282 -0.314986
-0.197192 -0.155919 -0.317915
-0.167460 -0.173545 -0.302573
-0.171688 -0.166342 -0.314404
-0.176383 -0.161910 -0.316837
-0.173553 -0.154078 -0.317935
-0.199454 -0.174031 -0.288874
-0.193764 -0.173912 -0.298846
-0.193291 -0.166071 -0.275238
-0.194468 -0.170346 -0.278075
-0.190749 -0.146387 -0.272240
-0.188221 -0.152956 -0.272387
-0.177208 -0.174004 -0.291115
-0.177790 -0.173884 -0.301215
-0.181542 -0.169135 -0.276638
-0.180859 -0.172374 -0.282920
-0.181219 -0.154438 -0.272420
-0.168512 -0.158588 -0.272513
-0.187365 -0.137832 -0.318034
-0.196950 -0.131070 -0.318034
-0.183448 -0.116513 -0.318034
-0.196177 -0.120188 -0.318034
-0.176762 -0.142313 -0.318034
-0.176856 -0.124615 -0.318034
-0.176002 -0.118269 -0.318034
-0.198474 -0.141786 -0.272211
-0.189818 -0.140971 -0.272211
-0.198504 -0.127054 -0.272211
-0.189602 -0.126104 -0.272211
-0.180555 -0.135772 -0.272211
-0.172223 -0.140292 -0.272211
-0.173380 -0.112392 -0.272214
-0.170758 -0.122822 -0.272212
-0.152332 -0.170655 -0.310115
-0.151888 -0.163095 -0.316186
-0.157778 -0.152601 -0.317952
-0.157781 -0.147360 -0.318009
-0.146187 -0.173772 -0.301983
-0.138804 -0.165546 -0.314841
-0.136630 -0.154313 -0.317933
-0.145816 -0.153483 -0.317942
-0.166034 -0.174048 -0.287413
-0.155681 -0.173975 -0.293603
-0.158761 -0.165574 -0.275011
-0.160048 -0.169894 -0.276998
-0.165133 -0.155901 -0.272453
-0.151916 -0.157507 -0.272489
-0.135849 -0.174037 -0.288329
-0.139756 -0.173978 -0.293275
-0.135668 -0.167584 -0.275929
-0.139407 -0.172785 -0.283904
-0.134120 -0.145281 -0.272215
-0.133756 -0.150031 -0.272321
-0.158995 -0.143601 -0.318034
-0.150102 -0.113397 -0.318034
-0.151825 -0.113480 -0.318034
-0.138167 -0.141871 -0.318034
-0.137975 -0.130105 -0.318034
-0.139695 -0.118620 -0.318034
-0.149505 -0.123648 -0.318034
-0.162623 -0.133289 -0.272211
-0.160180 -0.141213 -0.272211
-0.162433 -0.114004 -0.272213
-0.159248 -0.126689 -0.272211
-0.142071 -0.137379 -0.272211
-0.137171 -0.142113 -0.272211
-0.142723 -0.120125 -0.272212
-0.188836 -0.105729 -0.317915
-0.187663 -0.100019 -0.317807
-0.199285 -0.091805 -0.307669
-0.186782 -0.097791 -0.316431
-0.169106 -0.111557 -0.318026
-0.170375 -0.091744 -0.307250
-0.181480 -0.092150 -0.310010
-0.177367 -0.093635 -0.313309
-0.197609 -0.111362 -0.272224
-0.184634 -0.090915 -0.300839
-0.183697 -0.090944 -0.287431
-0.199635 -0.091200 -0.285215
-0.186947 -0.097094 -0.274016
-0.167501 -0.105448 -0.272317
-0.172161 -0.090927 -0.294989
-0.174501 -0.090938 -0.289801
-0.180501 -0.092045 -0.280095
-0.168921 -0.099173 -0.272722
-0.151664 -0.104166 -0.317886
-0.152618 -0.091233 -0.303782
-0.150396 -0.094079 -0.313643
-0.141240 -0.105773 -0.317916
-0.145803 -0.107567 -0.317950
-0.143431 -0.091426 -0.305094
-0.135864 -0.097343 -0.316094
-0.155302 -0.102126 -0.272968
-0.150410 -0.091023 -0.295375
-0.165638 -0.090945 -0.291175
-0.165234 -0.091352 -0.284617
-0.160975 -0.097185 -0.274423
-0.146464 -0.105068 -0.273057
-0.137587 -0.091052 -0.298051
-0.147048 -0.091163 -0.290961
-0.146089 -0.092391 -0.280360
-0.141793 -0.098201 -0.274800
-0.119961 -0.170529 -0.310444
-0.116597 -0.161925 -0.316829
-0.119101 -0.155080 -0.317924
-0.125892 -0.151698 -0.317962
-0.103794 -0.172983 -0.304040
-0.098547 -0.169161 -0.312856
-0.102105 -0.153311 -0.317944
-0.106981 -0.148021 -0.318002
-0.125920 -0.173981 -0.293037
-0.119513 -0.173911 -0.298942
-0.124823 -0.166139 -0.275333
-0.121790 -0.171168 -0.280039
-0.128817 -0.154201 -0.272458
-0.124173 -0.156843 -0.272564
-0.101861 -0.174050 -0.287302
-0.105486 -0.173909 -0.299140
-0.110029 -0.168491 -0.276392
-0.100205 -0.171147 -0.279991
-0.108098 -0.152283 -0.272538
-0.101714 -0.159804 -0.272853
-0.124641 -0.140830 -0.318034
-0.129588 -0.127286 -0.318034
-0.131234 -0.112223 -0.318034
-0.102148 -0.145126 -0.318034
-0.113206 -0.136490 -0.318034
-0.101155 -0.116795 -0.318034
-0.112941 -0.117301 -0.318034
-0.126712 -0.130174 -0.272211
-0.121210 -0.135122 -0.272231
-0.126570 -0.118807 -0.272212
-0.125110 -0.122057 -0.272212
-0.111166 -0.131159 -0.272292
-0.102816 -0.137787 -0.272377
-0.108171 -0.115010 -0.272213
-0.090971 -0.172358 -0.305672
-0.092918 -0.170136 -0.311468
-0.088069 -0.164005 -0.315687
-0.089658 -0.151203 -0.317967
-0.092127 -0.148437 -0.317998
-0.071515 -0.171590 -0.307674
-0.067956 -0.168360 -0.313296
-0.077573 -0.155373 -0.317921
-0.074966 -0.147064 -0.318013
-0.096065 -0.173975 -0.293562
-0.089233 -0.173906 -0.299361
-0.083935 -0.166956 -0.275744
-0.084448 -0.173127 -0.284720
-0.090959 -0.148779 -0.272591
-0.095237 -0.159594 -0.272870
-0.069918 -0.173951 -0.295569
-0.082130 -0.160588 -0.273055
-0.070067 -0.170350 -0.278085
-0.067503 -0.172231 -0.282579
-0.075942 -0.159144 -0.272860
-0.083744 -0.138563 -0.318034
-0.091160 -0.136266 -0.318034
-0.091456 -0.121163 -0.318034
-0.098161 -0.122088 -0.318034
-0.073773 -0.142272 -0.318034
-0.076813 -0.131561 -0.318034
-0.072290 -0.119150 -0.318034
-0.082134 -0.113981 -0.318034
-0.093786 -0.130924 -0.272440
-0.097587 -0.144189 -0.272401
-0.092981 -0.121348 -0.272306
-0.083340 -0.134025 -0.272544
-0.067849 -0.135042 -0.272544
-0.073027 -0.114932 -0.272271
-0.074000 -0.126893 -0.272511
-0.121808 -0.107155 -0.317942
-0.128582 -0.104988 -0.317901
-0.131981 -0.092100 -0.309675
-0.129380 -0.094052 -0.313622
-0.114888 -0.106771 -0.317935
-0.101068 -0.091851 -0.307980
-0.102681 -0.094922 -0.314276
-0.119614 -0.100266 -0.274396
-0.119738 -0.105488 -0.273433
-0.126607 -0.091229 -0.294078
-0.125568 -0.092547 -0.281802
-0.134883 -0.099248 -0.274733
-0.109210 -0.101591 -0.274164
-0.107406 -0.111575 -0.272293
-0.112115 -0.091345 -0.291531
-0.104267 -0.091767 -0.286939
-0.116626 -0.097698 -0.275951
-0.085186 -0.108229 -0.317963
-0.097801 -0.092369 -0.311498
-0.094293 -0.091026 -0.302379
-0.098775 -0.092648 -0.312568
-0.077136 -0.101730 -0.317839
-0.079902 -0.092332 -0.311252
-0.071851 -0.096107 -0.315166
-0.088684 -0.100951 -0.274284
-0.089728 -0.107828 -0.272996
-0.100954 -0.091450 -0.289081
-0.096332 -0.091942 -0.285870
-0.100858 -0.094500 -0.277974
-0.079948 -0.102355 -0.274021
-0.076099 -0.110203 -0.272552
-0.078031 -0.091159 -0.295876
-0.075215 -0.092682 -0.281366
-0.075459 -0.093350 -0.278690
-0.060870 -0.170468 -0.310602
-0.050710 -0.167279 -0.313889
-0.060863 -0.160532 -0.317593
-0.052993 -0.146853 -0.318015
-0.044518 -0.171897 -0.306875
-0.042294 -0.170210 -0.311275
-0.044550 -0.165056 -0.315110
-0.038955 -0.150387 -0.317976
-0.064299 -0.174046 -0.287625
-0.056728 -0.173933 -0.297079
-0.061189 -0.163241 -0.274175
-0.059863 -0.171162 -0.280025
-0.064288 -0.156948 -0.272810
-0.058016 -0.155980 -0.272788
-0.046958 -0.173993 -0.292083
-0.039829 -0.173903 -0.299619
-0.043254 -0.169089 -0.276644
-0.039474 -0.170067 -0.277409
-0.037407 -0.146992 -0.272586
-0.039445 -0.152248 -0.272704
-0.064875 -0.144523 -0.318034
-0.064815 -0.136913 -0.318034
-0.056726 -0.124527 -0.318034
-0.064194 -0.121628 -0.318034
-0.044883 -0.141294 -0.318034
-0.044580 -0.126035 -0.318034
-0.049195 -0.119122 -0.318034
-0.055168 -0.128983 -0.272544
-0.056828 -0.139307 -0.272544
-0.061139 -0.114996 -0.272273
-0.053476 -0.122546 -0.272424
-0.048257 -0.134654 -0.272544
-0.040535 -0.136296 -0.272544
-0.039224 -0.116479 -0.272302
-0.034327 -0.115573 -0.272284
-0.022609 -0.170955 -0.309331
-0.023903 -0.166717 -0.314197
-0.028580 -0.155558 -0.317919
-0.033353 -0.159256 -0.317878
-0.003032 -0.173177 -0.303535
0.002536 -0.166937 -0.314077
-0.010441 -0.159894 -0.317871
-0.003519 -0.147456 -0.318008
-0.021878 -0.174019 -0.289886
-0.021333 -0.173909 -0.299086
-0.020056 -0.166162 -0.275408
-0.032951 -0.171348 -0.280471
-0.022010 -0.149205 -0.272636
-0.017933 -0.147447 -0.272596
-0.016186 -0.173994 -0.292000
-0.004462 -0.173926 -0.297695
-0.010469 -0.166308 -0.275408
-0.007578 -0.172025 -0.282087
-0.014214 -0.145340 -0.272520
-0.005079 -0.156468 -0.272679
-0.020239 -0.136569 -0.318034
-0.018403 -0.114239 -0.318034
-0.026812 -0.121230 -0.318034
-0.003681 -0.140209 -0.318034
-0.012382 -0.136180 -0.318034
-0.005962 -0.127917 -0.318034
-0.012118 -0.113546 -0.318034
-0.020761 -0.130681 -0.272674
-0.022241 -0.135811 -0.272638
-0.031971 -0.119571 -0.272381
-0.017586 -0.113747 -0.272409
-0.013788 -0.131590 -0.272680
-0.004937 -0.144003 -0.272444
-0.015411 -0.120731 -0.272555
-0.055771 -0.106910 -0.317938
-0.057651 -0.100865 -0.317823
-0.061939 -0.091278 -0.304094
-0.050471 -0.093886 -0.313498
-0.042148 -0.108655 -0.317971
-0.034652 -0.092049 -0.309326
-0.042969 -0.091652 -0.306629
-0.043917 -0.095699 -0.314860
-0.063391 -0.110497 -0.272497
-0.053934 -0.091235 -0.294067
-0.057634 -0.092956 -0.279686
-0.069667 -0.092568 -0.282062
-0.040548 -0.100184 -0.274424
-0.048296 -0.111596 -0.272291
-0.039885 -0.091122 -0.296644
-0.036994 -0.091819 -0.286555
-0.046241 -0.095159 -0.277558
-0.029132 -0.109511 -0.317987
-0.026209 -0.099803 -0.317803
-0.032427 -0.090919 -0.301651
-0.027024 -0.095256 -0.314527
-0.006522 -0.107477 -0.317949
-0.003127 -0.092066 -0.309446
-0.015500 -0.091634 -0.306510
-0.005995 -0.094110 -0.313666
-0.030720 -0.111866 -0.272268
-0.030857 -0.090913 -0.301603
-0.031510 -0.091884 -0.286090
-0.028840 -0.093759 -0.278407
-0.015104 -0.107529 -0.273186
-0.002825 -0.111625 -0.272456
-0.015156 -0.090977 -0.299248
-0.009248 -0.091397 -0.288095
-0.017822 -0.098626 -0.275345
0.001427 -0.173283 -0.303259
0.017473 -0.170595 -0.310271
0.012568 -0.160863 -0.317412
0.015838 -0.149702 -0.317984
0.025531 -0.171340 -0.308326
0.034837 -0.171862 -0.306964
0.022896 -0.166032 -0.314574
0.031398 -0.151050 -0.317969
0.016900 -0.149324 -0.317988
0.008415 -0.174050 -0.287262
0.002294 -0.165782 -0.275149
0.015619 -0.164373 -0.274462
0.010265 -0.172964 -0.284330
0.000946 -0.152630 -0.272546
0.018780 -0.173932 -0.297144
0.025287 -0.173964 -0.294468
0.019671 -0.163430 -0.274031
0.019317 -0.172236 -0.282592
0.019766 -0.156781 -0.272474
0.020320 -0.158233 -0.272505
0.013104 -0.137769 -0.318034
0.003572 -0.136436 -0.318034
0.009388 -0.124505 -0.318034
0.006342 -0.112994 -0.318034
0.024999 -0.138067 -0.318034
0.026822 -0.129418 -0.318034
0.030349 -0.127596 -0.318034
0.023140 -0.119993 -0.318034
0.005993 -0.135173 -0.272447
0.006278 -0.118828 -0.272652
0.010613 -0.126456 -0.272530
0.018643 -0.130480 -0.272352
0.024090 -0.140736 -0.272297
0.018877 -0.117708 -0.272569
0.028101 -0.120535 -0.272419
0.037642 -0.172154 -0.306204
0.050496 -0.164743 -0.315281
0.043638 -0.160287 -0.317728
0.039607 -0.148197 -0.318000
0.054696 -0.170224 -0.311239
0.066022 -0.171584 -0.307689
0.053929 -0.163812 -0.315793
0.064579 -0.155746 -0.317917
0.037355 -0.173996 -0.291795
0.043693 -0.173897 -0.300138
0.039931 -0.160662 -0.272766
0.037697 -0.172418 -0.283027
0.043263 -0.149825 -0.272317
0.037048 -0.157964 -0.272499
0.051484 -0.174001 -0.291358
0.054148 -0.173919 -0.298237
0.058275 -0.169638 -0.276868
0.051709 -0.170904 -0.279409
0.050487 -0.148001 -0.272276
0.063035 -0.156469 -0.272466
0.040698 -0.141162 -0.318034
0.041061 -0.131275 -0.318034
0.046774 -0.120586 -0.318034
0.041070 -0.118961 -0.318034
0.061610 -0.135454 -0.318034
0.057375 -0.121101 -0.318034
0.059894 -0.116293 -0.318034
0.032988 -0.142268 -0.272211
0.038199 -0.142052 -0.272211
0.036684 -0.115531 -0.272474
0.035558 -0.127211 -0.272237
0.053531 -0.136265 -0.272211
0.065829 -0.140091 -0.272211
0.059496 -0.115923 -0.272466
0.064465 -0.127558 -0.272230
0.001968 -0.099811 -0.317803
0.015303 -0.091550 -0.305942
0.008635 -0.097713 -0.316373
0.027628 -0.108345 -0.317965
0.017381 -0.101321 -0.317831
0.016418 -0.092371 -0.311515
0.021822 -0.096618 -0.315550
-0.001409 -0.102996 -0.274110
0.013717 -0.091011 -0.289597
-0.001264 -0.091134 -0.291391
-0.004412 -0.092829 -0.279040
0.006820 -0.096142 -0.276969
0.023130 -0.103585 -0.274085
0.026990 -0.090958 -0.296166
0.017433 -0.091002 -0.290757
0.019975 -0.092115 -0.282387
0.026666 -0.097661 -0.276005
0.033011 -0.108141 -0.317961
0.033059 -0.092488 -0.312312
0.045237 -0.099255 -0.317531
0.054471 -0.111550 -0.318026
0.053032 -0.107318 -0.317945
0.062080 -0.091081 -0.302754
0.054391 -0.093174 -0.312963
0.032934 -0.111574 -0.272619
0.040969 -0.090940 -0.298348
0.033441 -0.091000 -0.291057
0.035391 -0.092373 -0.280758
0.035359 -0.097985 -0.275816
0.062452 -0.101797 -0.274355
0.052078 -0.090922 -0.300466
0.050921 -0.090969 -0.294805
0.044874 -0.092577 -0.279557
0.055819 -0.097106 -0.276363
0.083586 -0.170446 -0.310660
0.079894 -0.168975 -0.312958
0.080955 -0.150697 -0.317973
0.068353 -0.151580 -0.317963
0.100087 -0.170202 -0.311297
0.098380 -0.167631 -0.313696
0.096009 -0.152091 -0.317957
0.083845 -0.146628 -0.318018
0.072450 -0.173976 -0.293518
0.068919 -0.173908 -0.299226
0.071858 -0.168802 -0.276486
0.077161 -0.171303 -0.280363
0.068943 -0.155200 -0.272437
0.080106 -0.151764 -0.272360
0.082732 -0.173946 -0.295997
0.092907 -0.163013 -0.273840
0.095837 -0.163669 -0.274140
0.097886 -0.170189 -0.277700
0.083939 -0.156017 -0.272456
0.079367 -0.142832 -0.318034
0.067625 -0.140772 -0.318034
0.082404 -0.112923 -0.318034
0.072454 -0.113860 -0.318034
0.097367 -0.132292 -0.318034
0.083802 -0.134248 -0.318034
0.092634 -0.128186 -0.318034
0.085329 -0.116079 -0.318034
0.077608 -0.133370 -0.272211
0.070267 -0.142460 -0.272211
0.078686 -0.112896 -0.272528
0.074966 -0.121883 -0.272345
0.083999 -0.130610 -0.272211
0.089618 -0.115815 -0.272468
0.089934 -0.126718 -0.272247
0.104815 -0.173434 -0.302863
0.119226 -0.170746 -0.309876
0.111437 -0.162847 -0.316322
0.109897 -0.151890 -0.317960
0.109288 -0.150358 -0.317976
0.128186 -0.171062 -0.309053
0.123062 -0.162528 -0.316498
0.131853 -0.159227 -0.317879
0.129877 -0.145791 -0.318027
0.099280 -0.174016 -0.290153
0.103563 -0.163273 -0.273959
0.108087 -0.166297 -0.275341
0.105080 -0.173892 -0.286549
0.100427 -0.147636 -0.272268
0.117209 -0.173995 -0.291922
0.124367 -0.173907 -0.299311
0.116113 -0.161199 -0.273011
0.119270 -0.172821 -0.283989
0.129119 -0.173482 -0.285569
0.124562 -0.156445 -0.272465
0.105944 -0.141517 -0.318034
0.102960 -0.130702 -0.318034
0.112030 -0.123473 -0.318034
0.106235 -0.115041 -0.318034
0.125781 -0.145125 -0.318034
0.120900 -0.136041 -0.318034
0.130419 -0.122601 -0.318034
0.118216 -0.119760 -0.318034
0.100385 -0.142478 -0.272211
0.114958 -0.129909 -0.272211
0.115210 -0.118577 -0.272413
0.120695 -0.133908 -0.272211
0.121883 -0.144521 -0.272211
0.118202 -0.117395 -0.272436
0.121584 -0.124770 -0.272287
0.076168 -0.108592 -0.317970
0.077273 -0.091724 -0.307118
0.067287 -0.092090 -0.309604
0.073339 -0.096351 -0.315350
0.086382 -0.106149 -0.317923
0.085419 -0.092232 -0.310570
0.093374 -0.095654 -0.314826
0.068031 -0.101179 -0.274465
0.071529 -0.108597 -0.273149
0.074540 -0.091010 -0.289886
0.075064 -0.092412 -0.280527
0.066199 -0.096189 -0.276935
0.085348 -0.104471 -0.273880
0.097025 -0.107308 -0.273377
0.083995 -0.090979 -0.293609
0.090399 -0.091554 -0.285590
0.077279 -0.093825 -0.278408
0.112737 -0.110491 -0.318006
0.103675 -0.092195 -0.310318
0.100870 -0.091279 -0.304099
0.111066 -0.092866 -0.312732
0.123371 -0.104153 -0.317885
0.121447 -0.092039 -0.309261
0.118205 -0.099057 -0.317382
0.103587 -0.104090 -0.273947
0.104344 -0.110711 -0.272773
0.100479 -0.091018 -0.288856
0.100279 -0.091286 -0.287174
0.095801 -0.094029 -0.278281
0.121305 -0.101118 -0.274470
0.126269 -0.090946 -0.297572
0.120493 -0.091001 -0.290884
0.120917 -0.092577 -0.279551
0.114909 -0.099334 -0.274971
0.147214 -0.173477 -0.302753
0.142275 -0.166923 -0.314085
0.138540 -0.159352 -0.317877
0.133371 -0.146435 -0.318020
0.151903 -0.171945 -0.306749
0.162057 -0.165732 -0.314739
0.157686 -0.160537 -0.317591
0.158464 -0.152025 -0.317958
0.134053 -0.173979 -0.293189
0.143148 -0.173978 -0.293308
0.137145 -0.162020 -0.273386
0.142498 -0.170269 -0.277893
0.133785 -0.153051 -0.272389
0.146854 -0.157238 -0.272483
0.157720 -0.174042 -0.287944
0.153542 -0.173893 -0.300473
0.162804 -0.164968 -0.274734
0.153615 -0.171608 -0.281092
0.162347 -0.145816 -0.272227
0.151823 -0.158971 -0.272522
0.139277 -0.142357 -0.318034
0.135592 -0.140617 -0.318034
0.146571 -0.127811 -0.318034
0.139963 -0.119469 -0.318034
0.154271 -0.137458 -0.318034
0.161046 -0.119759 -0.318034
0.156525 -0.116896 -0.318034
0.134197 -0.138698 -0.272211
0.147375 -0.137670 -0.272211
0.135570 -0.112091 -0.272510
0.146936 -0.114542 -0.272353
0.154968 -0.129495 -0.272211
0.156591 -0.137822 -0.272211
0.157813 -0.114859 -0.272260
0.154374 -0.123454 -0.272212
0.178884 -0.170158 -0.311410
0.182135 -0.166301 -0.314426
0.180228 -0.147549 -0.318007
0.165468 -0.149685 -0.317984
0.186801 -0.170326 -0.310972
0.202420 -0.169194 -0.312838
0.198162 -0.146687 -0.318017
0.189978 -0.152238 -0.317956
0.165600 -0.173993 -0.292054
0.178464 -0.173925 -0.297750
0.176678 -0.166789 -0.275566
0.174921 -0.169895 -0.276999
0.167826 -0.154921 -0.272431
0.174325 -0.154166 -0.272414
0.186555 -0.173985 -0.292684
0.190200 -0.162083 -0.273415
0.196635 -0.169298 -0.276712
0.190897 -0.173673 -0.286026
0.182933 -0.146708 -0.272247
0.189612 -0.156006 -0.272455
0.165428 -0.135092 -0.318034
0.177552 -0.122934 -0.318034
0.168698 -0.121758 -0.318034
0.195114 -0.144312 -0.318034
0.193879 -0.128757 -0.318034
0.198130 -0.122913 -0.318034
0.188792 -0.118443 -0.318034
0.180897 -0.129472 -0.272211
0.172168 -0.141638 -0.272211
0.167120 -0.126282 -0.272211
0.179576 -0.119545 -0.272212
0.185208 -0.139129 -0.272211
0.197602 -0.140413 -0.272211
0.197876 -0.125877 -0.272211
0.141839 -0.110991 -0.318015
0.135348 -0.107865 -0.317956
0.135495 -0.090977 -0.302051
0.147468 -0.097449 -0.316174
0.155967 -0.111644 -0.318028
0.164616 -0.092494 -0.312353
0.155375 -0.091638 -0.306537
0.149557 -0.095880 -0.314996
0.147718 -0.104115 -0.273743
0.147600 -0.090962 -0.295534
0.140313 -0.091308 -0.286995
0.128901 -0.091677 -0.284852
0.148087 -0.101928 -0.274117
0.152041 -0.110294 -0.272652
0.160628 -0.090936 -0.298622
0.156145 -0.091771 -0.284130
0.149246 -0.095679 -0.277067
0.177624 -0.110692 -0.318010
0.172290 -0.099854 -0.317804
0.169309 -0.091842 -0.307921
0.166955 -0.094442 -0.313915
0.195728 -0.107074 -0.317941
0.198113 -0.091618 -0.306398
0.193166 -0.091159 -0.303285
0.182818 -0.094566 -0.314009
0.177682 -0.109659 -0.272599
0.178334 -0.090940 -0.298084
0.167402 -0.091268 -0.287082
0.165610 -0.091890 -0.283342
0.190737 -0.102188 -0.273831
0.193975 -0.108022 -0.272869
0.196147 -0.090953 -0.296434
0.192392 -0.091614 -0.284945
0.180954 -0.095905 -0.276635
0.213969 -0.173759 -0.302015
0.213312 -0.170027 -0.311751
0.206280 -0.164760 -0.315272
0.206826 -0.156443 -0.317909
0.201359 -0.151309 -0.317966
0.225827 -0.169763 -0.312441
0.228503 -0.164059 -0.315657
0.225254 -0.155558 -0.317919
0.215497 -0.146330 -0.318021
0.199845 -0.173963 -0.294579
0.207736 -0.160371 -0.272633
0.213564 -0.165555 -0.275002
0.205108 -0.173634 -0.285931
0.203129 -0.152972 -0.272387
0.210425 -0.157329 -0.272485
0.226467 -0.173926 -0.297694
0.229451 -0.161158 -0.272992
0.219098 -0.172083 -0.282227
0.228060 -0.172390 -0.282959
0.227502 -0.150256 -0.272326
0.214675 -0.144618 -0.318034
0.199633 -0.139921 -0.318034
0.206438 -0.120704 -0.318034
0.199679 -0.118632 -0.318034
0.229633 -0.136558 -0.318034
0.223982 -0.134979 -0.318034
0.229169 -0.121239 -0.318034
0.221844 -0.120410 -0.318034
0.208503 -0.130175 -0.272211
0.211721 -0.140516 -0.272211
0.214890 -0.124565 -0.272211
0.219794 -0.130832 -0.272211
0.225058 -0.138298 -0.272211
0.219967 -0.119848 -0.272212
0.230328 -0.118741 -0.272212
0.238684 -0.171134 -0.308864
0.247607 -0.165745 -0.314732
0.246775 -0.160076 -0.317844
0.239985 -0.159069 -0.317881
0.262680 -0.173644 -0.302317
0.266550 -0.172381 -0.305612
0.257912 -0.162674 -0.316417
0.262474 -0.155674 -0.317918
0.259656 -0.148029 -0.318002
0.234381 -0.173898 -0.300016
0.234779 -0.163483 -0.274055
0.245526 -0.169904 -0.277019
0.240135 -0.173425 -0.285432
0.245345 -0.153720 -0.272404
0.253334 -0.174013 -0.290351
0.260438 -0.173980 -0.293164
0.250878 -0.162577 -0.273641
0.248428 -0.173530 -0.285682
0.251064 -0.147827 -0.272272
0.264542 -0.157414 -0.272487
0.246480 -0.143389 -0.318034
0.236441 -0.134815 -0.318034
0.236030 -0.127019 -0.318034
0.241140 -0.118763 -0.318034
0.263736 -0.135230 -0.318034
0.256533 -0.133918 -0.318034
0.252008 -0.125496 -0.318034
0.239539 -0.133326 -0.272211
0.247524 -0.136093 -0.272211
0.237388 -0.117267 -0.272212
0.232148 -0.128354 -0.272211
0.248659 -0.135748 -0.272211
0.258166 -0.143348 -0.272211
0.258132 -0.116774 -0.272212
0.262938 -0.124747 -0.272211
0.215038 -0.111474 -0.318024
0.203284 -0.092472 -0.312197
0.203486 -0.098115 -0.316675
0.230026 -0.108334 -0.317965
0.217857 -0.100140 -0.317809
0.222443 -0.091788 -0.307555
0.227316 -0.097815 -0.316449
0.197851 -0.102445 -0.273788
0.210051 -0.090963 -0.295120
0.200887 -0.090944 -0.297595
0.197704 -0.092025 -0.282440
0.197888 -0.093872 -0.277894
0.218758 -0.101485 -0.273943
0.225488 -0.090917 -0.301100
0.218761 -0.090963 -0.295186
0.218140 -0.092569 -0.279127
0.224462 -0.099712 -0.274245
0.240757 -0.107267 -0.317945
0.235223 -0.092188 -0.310275
0.232391 -0.091165 -0.303324
0.232568 -0.094537 -0.313987
0.250409 -0.104902 -0.317900
0.260309 -0.092166 -0.310122
0.260671 -0.098763 -0.317161
0.233180 -0.105107 -0.273339
0.245674 -0.102658 -0.273717
0.236793 -0.091013 -0.288665
0.240073 -0.092230 -0.281161
0.239880 -0.093060 -0.278362
0.255946 -0.105027 -0.273304
0.258572 -0.090927 -0.300856
0.254399 -0.091031 -0.294031
0.245603 -0.091768 -0.284020
0.254287 -0.095315 -0.276969
0.275190 -0.173316 -0.303172
0.276583 -0.165365 -0.314940
0.280497 -0.152869 -0.317949
0.266167 -0.152889 -0.317949
0.291865 -0.172881 -0.304298
0.296922 -0.166549 -0.314290
0.283285 -0.161696 -0.316954
0.285284 -0.154443 -0.317931
0.270467 -0.174023 -0.289550
0.274064 -0.173946 -0.296036
0.265575 -0.164168 -0.274368
0.266973 -0.172433 -0.283063
0.265632 -0.154989 -0.272432
0.273200 -0.155967 -0.272454
0.281742 -0.174052 -0.287083
0.294109 -0.173885 -0.300835
0.295819 -0.169661 -0.276882
0.297167 -0.172398 -0.282988
0.282388 -0.153712 -0.272404
0.291662 -0.153286 -0.272396
0.274806 -0.137780 -0.318034
0.265990 -0.138486 -0.318034
0.266966 -0.127046 -0.318034
0.296572 -0.134999 -0.318034
0.294969 -0.128992 -0.318034
0.288769 -0.122041 -0.318034
0.286797 -0.117234 -0.318034
0.266570 -0.130291 -0.272211
0.278992 -0.135369 -0.272211
0.264973 -0.116570 -0.272212
0.273106 -0.122402 -0.272212
0.285316 -0.129133 -0.272212
0.296569 -0.132774 -0.272214
0.284306 -0.112678 -0.272213
0.286907 -0.126003 -0.272212
0.304208 -0.160501 -0.317559
0.303726 -0.156029 -0.317865
0.310273 -0.175237 -0.286993
0.304068 -0.174492 -0.299327
0.302553 -0.160595 -0.272373
0.303635 -0.167448 -0.275390
0.308717 -0.172632 -0.281250
0.303396 -0.153809 -0.271977
0.309432 -0.156386 -0.271548
0.300370 -0.142807 -0.318014
0.303136 -0.131694 -0.317990
0.303756 -0.117647 -0.317985
0.300250 -0.132556 -0.272035
0.308582 -0.143862 -0.271366
0.303667 -0.115188 -0.271755
0.313049 -0.115819 -0.270990
0.272435 -0.110322 -0.318003
0.269844 -0.107892 -0.317956
0.267401 -0.091451 -0.305267
0.266007 -0.096191 -0.315229
0.289579 -0.108307 -0.317965
0.283969 -0.092486 -0.312271
0.286999 -0.091324 -0.304352
0.283502 -0.097538 -0.316239
0.271469 -0.109726 -0.272406
0.277653 -0.091050 -0.291787
0.269885 -0.091690 -0.284341
0.263177 -0.092396 -0.280452
0.279265 -0.099571 -0.273464
0.292205 -0.111799 -0.272218
0.289023 -0.090928 -0.295162
0.287356 -0.091019 -0.289242
0.288928 -0.092551 -0.278860
0.285245 -0.097181 -0.274865
0.309592 -0.102854 -0.318029
0.310358 -0.089347 -0.311589
0.303361 -0.089884 -0.303415
0.305236 -0.091841 -0.313410
0.315423 -0.086661 -0.290611
0.302549 -0.089812 -0.288009
0.301410 -0.091132 -0.279918
-0.330256 -0.173639 -0.272312
-0.324397 -0.170759 -0.272726
-0.322501 -0.173763 -0.275447
-0.328161 -0.156039 -0.268471
-0.327644 -0.126715 -0.268498
-0.324738 -0.113353 -0.268394
-0.320371 -0.116881 -0.270002
-0.321439 -0.098611 -0.268699
-0.326442 -0.078738 -0.291131
-0.324418 -0.081627 -0.281157
-0.330815 -0.086580 -0.265418
-0.317269 -0.174983 -0.283963
