ply
format ascii 1.0
element vertex 1000
property float x
property float y
property float z
end_header
-0.317672 -0.173246 0.457338
-0.322123 -0.172774 0.455389
-0.324295 -0.161869 0.453499
-0.318801 -0.160817 0.454377
-0.304885 -0.174318 0.464871
-0.308055 -0.170359 0.457526
-0.310078 -0.163026 0.456176
-0.308901 -0.148076 0.455895
-0.321249 -0.139308 0.453907
-0.305803 -0.144596 0.456365
-0.310275 -0.138109 0.455671
-0.308261 -0.122396 0.455989
-0.311001 -0.118329 0.455567
-0.291138 -0.171203 0.461291
-0.293032 -0.168970 0.458658
-0.290379 -0.158269 0.457492
-0.291997 -0.148395 0.457438
-0.265644 -0.160606 0.457582
-0.268455 -0.147854 0.457429
-0.278622 -0.147603 0.457428
-0.283451 -0.137589 0.457415
-0.296012 -0.141756 0.457423
-0.287467 -0.119505 0.457425
-0.274433 -0.143705 0.457414
-0.281380 -0.142052 0.457414
-0.274249 -0.126834 0.457415
-0.277118 -0.113499 0.457427
-0.308164 -0.111519 0.456017
-0.310931 -0.091186 0.458255
-0.306041 -0.096855 0.457011
-0.288944 -0.110776 0.457443
-0.290044 -0.102328 0.457513
-0.283014 -0.095485 0.458327
-0.266618 -0.100625 0.457522
-0.273997 -0.092173 0.461722
-0.277189 -0.093277 0.458729
-0.318592 -0.176693 0.465977
-0.319764 -0.177516 0.485308
-0.302141 -0.174384 0.473307
-0.303948 -0.174380 0.489785
-0.309779 -0.175247 0.477852
-0.308528 -0.169463 0.501174
-0.313088 -0.171835 0.499352
-0.312351 -0.147628 0.505293
-0.306430 -0.159029 0.504280
-0.301775 -0.129757 0.503666
-0.302338 -0.137455 0.503753
-0.311260 -0.114460 0.505132
-0.308867 -0.124426 0.504765
-0.285020 -0.173986 0.471466
-0.291669 -0.173907 0.489344
-0.285854 -0.174122 0.480749
-0.271161 -0.173796 0.466025
-0.276658 -0.173955 0.487522
-0.287631 -0.160460 0.502944
-0.289068 -0.169737 0.499916
-0.294983 -0.150448 0.503179
-0.285338 -0.159030 0.503102
-0.268844 -0.168920 0.500267
-0.273281 -0.172186 0.494900
-0.276781 -0.154372 0.503149
-0.277733 -0.159355 0.503101
-0.287016 -0.138514 0.503236
-0.296841 -0.117605 0.503226
-0.287304 -0.126476 0.503235
-0.279590 -0.135822 0.503239
-0.269870 -0.141995 0.503239
-0.280365 -0.114846 0.503233
-0.271039 -0.117237 0.503234
-0.312495 -0.087798 0.475073
-0.305810 -0.089430 0.479092
-0.314966 -0.087100 0.483428
-0.303327 -0.110724 0.503859
-0.303073 -0.090518 0.492595
-0.321272 -0.090621 0.503266
-0.294600 -0.091463 0.467059
-0.298316 -0.091356 0.471783
-0.298418 -0.091145 0.485898
-0.266612 -0.091161 0.472586
-0.271012 -0.091064 0.486700
-0.278160 -0.091080 0.488968
-0.284893 -0.103857 0.502978
-0.291145 -0.091399 0.493066
-0.290721 -0.098022 0.502181
-0.271197 -0.107342 0.503087
-0.281749 -0.091153 0.491571
-0.278712 -0.098258 0.502289
-0.252226 -0.171686 0.462071
-0.251784 -0.161935 0.457752
-0.250359 -0.147540 0.457427
-0.238962 -0.173587 0.465156
-0.231245 -0.163843 0.457997
-0.234240 -0.157518 0.457484
-0.233706 -0.145533 0.457416
-0.257705 -0.141106 0.457414
-0.260777 -0.127368 0.457415
-0.264927 -0.115855 0.457425
-0.238948 -0.141656 0.457414
-0.238821 -0.133594 0.457414
-0.237294 -0.118547 0.457423
-0.240896 -0.112344 0.457428
-0.223845 -0.170848 0.460709
-0.223431 -0.161518 0.457699
-0.222827 -0.148147 0.457431
-0.209999 -0.172257 0.462997
-0.200058 -0.169335 0.458702
-0.208740 -0.154447 0.457467
-0.209904 -0.149491 0.457439
-0.226965 -0.138571 0.457414
-0.221690 -0.122093 0.457420
-0.232434 -0.119883 0.457421
-0.205134 -0.138528 0.457414
-0.202870 -0.129819 0.457414
-0.202153 -0.115844 0.457425
-0.203051 -0.112105 0.457428
-0.262485 -0.107997 0.457462
-0.265568 -0.091866 0.463228
-0.244059 -0.108535 0.457457
-0.248709 -0.104869 0.457487
-0.234359 -0.097030 0.458045
-0.224894 -0.111856 0.457430
-0.216864 -0.092361 0.460806
-0.216273 -0.093731 0.458646
-0.208391 -0.107502 0.457466
-0.201116 -0.092677 0.459259
-0.208758 -0.095805 0.458268
-0.183502 -0.170199 0.459655
-0.195779 -0.162244 0.457792
-0.199315 -0.148471 0.457433
-0.180498 -0.172292 0.463054
-0.175651 -0.164447 0.458075
-0.178077 -0.157887 0.457486
-0.178761 -0.155129 0.457471
-0.190214 -0.135026 0.457414
-0.190480 -0.120288 0.457421
-0.199042 -0.115158 0.457425
-0.169277 -0.144150 0.457414
-0.174275 -0.129954 0.457414
-0.171096 -0.126435 0.457416
-0.173974 -0.117538 0.457423
-0.150734 -0.164079 0.458028
-0.154619 -0.153576 0.457462
-0.162374 -0.150325 0.457443
-0.140286 -0.170906 0.460803
-0.143741 -0.165999 0.458274
-0.139740 -0.152994 0.457458
-0.154353 -0.136155 0.457414
-0.161489 -0.134729 0.457414
-0.152669 -0.122717 0.457419
-0.164964 -0.126631 0.457416
-0.143705 -0.139601 0.457414
-0.143513 -0.138595 0.457414
-0.139351 -0.120722 0.457421
-0.184173 -0.109053 0.457453
-0.197796 -0.108022 0.457461
-0.190385 -0.097541 0.457952
-0.172681 -0.109556 0.457449
-0.167404 -0.092521 0.460019
-0.174000 -0.098107 0.457848
-0.157702 -0.108377 0.457458
-0.156397 -0.092065 0.462253
-0.157255 -0.095310 0.458358
-0.145510 -0.104742 0.457488
-0.145403 -0.091759 0.463750
-0.146190 -0.093347 0.458716
-0.254753 -0.173833 0.467084
-0.257851 -0.173621 0.486674
-0.249116 -0.173974 0.471109
-0.246271 -0.173851 0.467592
-0.232469 -0.173177 0.484256
-0.264868 -0.163848 0.501875
-0.263075 -0.171636 0.495680
-0.261247 -0.155787 0.503136
-0.256922 -0.154678 0.503146
-0.236008 -0.161966 0.501650
-0.232842 -0.172216 0.490488
-0.245144 -0.153578 0.503157
-0.263900 -0.140440 0.503239
-0.250292 -0.134932 0.503239
-0.258674 -0.118361 0.503235
-0.259568 -0.125186 0.503238
-0.247925 -0.129107 0.503239
-0.243324 -0.139569 0.503239
-0.237339 -0.123954 0.503237
-0.232643 -0.173939 0.470118
-0.218301 -0.173904 0.469124
-0.217377 -0.173644 0.480924
-0.206797 -0.174170 0.476692
-0.212207 -0.172482 0.487903
-0.200819 -0.173722 0.480459
-0.225332 -0.165074 0.500189
-0.217720 -0.170476 0.493690
-0.217409 -0.153762 0.502397
-0.211708 -0.159781 0.501349
-0.206407 -0.168222 0.498262
-0.215271 -0.158202 0.501840
-0.200934 -0.146419 0.503100
-0.221579 -0.133420 0.503239
-0.228393 -0.115820 0.503234
-0.225188 -0.126360 0.503238
-0.202347 -0.128920 0.503239
-0.203393 -0.139795 0.503239
-0.203624 -0.115409 0.503234
-0.201951 -0.125133 0.503238
-0.258734 -0.091037 0.476341
-0.251020 -0.091017 0.480252
-0.237716 -0.091318 0.467829
-0.247509 -0.091202 0.471353
-0.238124 -0.091083 0.488188
-0.257962 -0.102558 0.502944
-0.255729 -0.091444 0.493405
-0.263520 -0.096787 0.501647
-0.248021 -0.103796 0.502985
-0.237183 -0.110060 0.503174
-0.250842 -0.096765 0.501641
-0.217509 -0.091151 0.472904
-0.231772 -0.091210 0.471093
-0.231040 -0.091052 0.484330
-0.210740 -0.091390 0.465619
-0.200709 -0.091023 0.480888
-0.205066 -0.091085 0.488307
-0.223003 -0.106423 0.503067
-0.232641 -0.092037 0.497163
-0.221651 -0.093714 0.500311
-0.209274 -0.109676 0.503163
-0.207447 -0.091621 0.494494
-0.214245 -0.098712 0.502499
-0.187277 -0.173826 0.466878
-0.184823 -0.172344 0.488733
-0.177648 -0.173997 0.471759
-0.173351 -0.173813 0.466506
-0.167564 -0.174101 0.478181
-0.186487 -0.158510 0.501625
-0.196044 -0.168171 0.498188
-0.194143 -0.151832 0.502455
-0.187254 -0.150254 0.502639
-0.169111 -0.162735 0.500284
-0.165438 -0.171409 0.491536
-0.166345 -0.148484 0.502847
-0.197812 -0.137477 0.503239
-0.184028 -0.138823 0.503239
-0.191257 -0.115586 0.503234
-0.188544 -0.123152 0.503237
-0.178777 -0.143008 0.503239
-0.173270 -0.114471 0.503234
-0.172994 -0.122568 0.503237
-0.154718 -0.174188 0.477204
-0.162063 -0.173046 0.484515
-0.150422 -0.173025 0.484642
-0.140714 -0.173816 0.466600
-0.149409 -0.173913 0.479307
-0.159981 -0.162311 0.500418
-0.159020 -0.169763 0.494917
-0.157207 -0.151036 0.502548
-0.154043 -0.153207 0.502294
-0.142519 -0.167476 0.498775
-0.139184 -0.171932 0.490456
-0.145140 -0.154408 0.502153
-0.160923 -0.128739 0.503239
-0.161498 -0.144036 0.503239
-0.153864 -0.116036 0.503234
-0.160041 -0.123804 0.503237
-0.143115 -0.132526 0.503239
-0.147067 -0.123448 0.503237
-0.134654 -0.118798 0.503235
-0.183323 -0.091330 0.467460
-0.184074 -0.091027 0.481383
-0.193088 -0.091106 0.490840
-0.169403 -0.091100 0.474437
-0.167696 -0.091053 0.484464
-0.176906 -0.091057 0.484924
-0.186257 -0.105584 0.503042
-0.197690 -0.092353 0.499171
-0.188336 -0.096292 0.501440
-0.171521 -0.104737 0.503017
-0.182727 -0.092396 0.499449
-0.180831 -0.098299 0.502319
-0.155808 -0.091090 0.474766
-0.156656 -0.091053 0.484530
-0.134899 -0.091148 0.473004
-0.147658 -0.091131 0.473515
-0.148260 -0.091088 0.488726
-0.154838 -0.099645 0.502866
-0.163413 -0.110382 0.503184
-0.160310 -0.092954 0.499978
-0.147299 -0.103458 0.502979
-0.140609 -0.111537 0.503218
-0.147284 -0.094502 0.500656
-0.121766 -0.172759 0.463813
-0.114963 -0.165768 0.458244
-0.117603 -0.155627 0.457473
-0.126377 -0.152768 0.457457
-0.097959 -0.170963 0.460895
-0.109513 -0.166020 0.458277
-0.115067 -0.147550 0.457428
-0.116671 -0.132204 0.457414
-0.125236 -0.132660 0.457414
-0.128881 -0.128501 0.457414
-0.132124 -0.116262 0.457424
-0.109506 -0.141227 0.457414
-0.110981 -0.125233 0.457417
-0.107034 -0.116063 0.457425
-0.089236 -0.173181 0.464497
-0.094517 -0.161412 0.457685
-0.083450 -0.157422 0.457484
-0.090829 -0.146945 0.457424
-0.071220 -0.164102 0.458031
-0.076705 -0.154416 0.457467
-0.080633 -0.153008 0.457459
-0.084333 -0.134758 0.457414
-0.092403 -0.135235 0.457414
-0.088402 -0.121113 0.457420
-0.066875 -0.133554 0.457414
-0.079096 -0.139054 0.457414
-0.080107 -0.128405 0.457414
-0.079180 -0.121571 0.457420
-0.126785 -0.108736 0.457456
-0.122165 -0.092205 0.461569
-0.125192 -0.093013 0.458777
-0.115388 -0.104094 0.457493
-0.116263 -0.092107 0.462047
-0.111212 -0.096624 0.458119
-0.085339 -0.100724 0.457521
-0.092347 -0.091731 0.463886
-0.076561 -0.110536 0.457441
-0.082953 -0.110385 0.457442
-0.066848 -0.099095 0.457668
-0.057280 -0.172148 0.462820
-0.062029 -0.168338 0.458574
-0.058220 -0.159779 0.457497
-0.056412 -0.149463 0.457438
-0.039188 -0.167649 0.458486
-0.036214 -0.151362 0.457449
-0.048918 -0.145440 0.457416
-0.054349 -0.135752 0.457414
-0.054671 -0.129950 0.457414
-0.059764 -0.124019 0.457418
-0.043663 -0.142518 0.457414
-0.037962 -0.130562 0.457414
-0.034881 -0.118146 0.457423
-0.047611 -0.123357 0.457418
-0.012833 -0.169960 0.459267
-0.027300 -0.163234 0.457919
-0.029875 -0.157395 0.457483
-0.003505 -0.172681 0.463685
-0.003229 -0.169325 0.458701
-0.002609 -0.147056 0.457425
-0.014332 -0.154919 0.457469
-0.027114 -0.139681 0.457414
-0.024829 -0.132323 0.457414
-0.019595 -0.113745 0.457427
-0.008902 -0.137907 0.457414
-0.008220 -0.133702 0.457414
-0.012878 -0.124400 0.457418
-0.011309 -0.121777 0.457420
-0.059633 -0.103798 0.457496
-0.054509 -0.091276 0.465512
-0.065948 -0.098193 0.457833
-0.045201 -0.101307 0.457516
-0.045400 -0.091476 0.464242
-0.024145 -0.109387 0.457450
-0.033505 -0.104285 0.457492
-0.026743 -0.099260 0.457638
-0.003773 -0.110238 0.457443
-0.000521 -0.092693 0.459109
-0.002211 -0.098026 0.457863
-0.129017 -0.174152 0.476172
-0.120505 -0.172508 0.487744
-0.118348 -0.172952 0.485078
-0.105597 -0.173858 0.467806
-0.104604 -0.172209 0.489527
-0.127664 -0.164853 0.499602
-0.127816 -0.170376 0.493643
-0.130578 -0.156805 0.501870
-0.123833 -0.153917 0.502207
-0.101069 -0.161470 0.500490
-0.107071 -0.171647 0.490967
-0.105384 -0.153565 0.502190
-0.128805 -0.134776 0.503239
-0.120381 -0.137698 0.503239
-0.124946 -0.112231 0.503233
-0.121438 -0.128374 0.503239
-0.115892 -0.133183 0.503239
-0.116399 -0.125059 0.503238
-0.103449 -0.123905 0.503237
-0.089585 -0.174043 0.473084
-0.099820 -0.174111 0.478120
-0.086794 -0.173060 0.484412
-0.070690 -0.173905 0.469139
-0.076752 -0.172632 0.486971
-0.095434 -0.158769 0.501315
-0.086516 -0.168103 0.498029
-0.097294 -0.152497 0.502234
-0.090812 -0.154616 0.501908
-0.065944 -0.161985 0.500049
-0.067787 -0.171592 0.491001
-0.078982 -0.145896 0.502937
-0.089293 -0.130641 0.503239
-0.091101 -0.137286 0.503228
-0.099598 -0.125827 0.503238
-0.087363 -0.126875 0.503238
-0.076558 -0.137699 0.503147
-0.077320 -0.140291 0.503108
-0.068196 -0.114707 0.503234
-0.116943 -0.091128 0.473588
-0.126380 -0.091096 0.474569
-0.129564 -0.091040 0.482905
-0.106521 -0.091196 0.471519
-0.110467 -0.091025 0.481124
-0.114753 -0.091084 0.488212
-0.119575 -0.107124 0.503087
-0.124755 -0.091923 0.496423
-0.123039 -0.094446 0.500631
-0.110580 -0.109591 0.503160
-0.107050 -0.092021 0.497053
-0.112110 -0.098454 0.502386
-0.096884 -0.091111 0.474104
-0.085309 -0.091021 0.480625
-0.099432 -0.091083 0.488050
-0.078207 -0.091265 0.469424
-0.075578 -0.091004 0.478535
-0.090840 -0.100298 0.502885
-0.091393 -0.107654 0.503103
-0.099443 -0.091370 0.492890
-0.081062 -0.104369 0.503006
-0.079806 -0.109624 0.503161
-0.087213 -0.092083 0.497446
-0.065069 -0.173920 0.469562
-0.050279 -0.173809 0.466415
-0.056218 -0.173033 0.484566
-0.043664 -0.174020 0.472414
-0.044450 -0.172562 0.487380
-0.036572 -0.174088 0.478257
-0.060627 -0.167566 0.498270
-0.060728 -0.171946 0.490296
-0.060250 -0.155021 0.501633
-0.042357 -0.161460 0.500216
-0.040667 -0.169362 0.495447
-0.045901 -0.153178 0.501872
-0.059770 -0.135060 0.503108
-0.055352 -0.140116 0.503006
-0.060471 -0.120864 0.503236
-0.055633 -0.124048 0.503237
-0.045533 -0.129214 0.503225
-0.040153 -0.140556 0.502998
-0.041747 -0.116520 0.503234
-0.026059 -0.174044 0.473112
-0.029578 -0.173818 0.466662
-0.017798 -0.172599 0.487155
-0.012405 -0.174124 0.475393
-0.015142 -0.172823 0.485813
-0.002521 -0.172817 0.485861
-0.019277 -0.164743 0.499194
-0.017663 -0.170481 0.493239
-0.027241 -0.156454 0.501427
-0.011518 -0.164043 0.499474
-0.011444 -0.168564 0.497092
-0.006777 -0.146757 0.502452
-0.001552 -0.154942 0.501694
-0.027172 -0.141350 0.502878
-0.026209 -0.115000 0.503157
-0.018417 -0.122275 0.502992
-0.014316 -0.128694 0.502875
-0.007943 -0.144387 0.502653
-0.015564 -0.113081 0.503037
-0.008499 -0.127737 0.502825
-0.062638 -0.091068 0.474130
-0.063334 -0.091017 0.480357
-0.047148 -0.091153 0.467746
-0.046783 -0.091138 0.468242
-0.048127 -0.091059 0.489864
-0.056564 -0.101412 0.502918
-0.059828 -0.091760 0.495385
-0.058632 -0.092916 0.499961
-0.048730 -0.104460 0.503008
-0.037892 -0.091134 0.492117
-0.044969 -0.093990 0.500435
-0.024931 -0.090960 0.468559
-0.023045 -0.090733 0.478251
-0.031596 -0.090846 0.479929
-0.012039 -0.090833 0.472395
-0.012709 -0.090716 0.480390
-0.011005 -0.090837 0.486255
-0.018234 -0.105929 0.502972
-0.035086 -0.091941 0.496785
-0.018810 -0.097561 0.501919
-0.006804 -0.107167 0.502876
-0.021699 -0.092485 0.499163
-0.009838 -0.097138 0.501724
0.015462 -0.172936 0.464101
0.002148 -0.162078 0.457771
0.008731 -0.149219 0.457437
0.024179 -0.172896 0.464035
0.025487 -0.161744 0.457728
0.028143 -0.149896 0.457441
0.020123 -0.154503 0.457467
0.014164 -0.129591 0.457414
0.008837 -0.125410 0.457417
0.007421 -0.117506 0.457423
0.026425 -0.140387 0.457414
0.018032 -0.141608 0.457414
0.028483 -0.122617 0.457419
0.017042 -0.120168 0.457421
0.042321 -0.169288 0.458696
0.042114 -0.151695 0.457451
0.037694 -0.145668 0.457417
0.062979 -0.171076 0.461080
0.057146 -0.162028 0.457764
0.062591 -0.156251 0.457477
0.046605 -0.141115 0.457414
0.037065 -0.133528 0.457414
0.045213 -0.119680 0.457422
0.042638 -0.112517 0.457428
0.063040 -0.135869 0.457414
0.054281 -0.128862 0.457414
0.055158 -0.126738 0.457416
0.012407 -0.104569 0.457490
0.008869 -0.101716 0.457513
0.011174 -0.097373 0.457982
0.017019 -0.111528 0.457433
0.025227 -0.092610 0.459438
0.031647 -0.097846 0.457896
0.049205 -0.111363 0.457434
0.039829 -0.092761 0.458840
0.033973 -0.096736 0.458098
0.055118 -0.104466 0.457490
0.063261 -0.091259 0.464754
0.057205 -0.094885 0.458436
0.081813 -0.168868 0.458642
0.082165 -0.156838 0.457480
0.073864 -0.149982 0.457441
0.098676 -0.170697 0.460464
0.089837 -0.161748 0.457728
0.091395 -0.153125 0.457459
0.081236 -0.135356 0.457414
0.072670 -0.134109 0.457414
0.081304 -0.125044 0.457417
0.068295 -0.123838 0.457418
0.095619 -0.142040 0.457414
0.086563 -0.128710 0.457414
0.088572 -0.123595 0.457418
0.112937 -0.172861 0.463978
0.113635 -0.168425 0.458586
0.108268 -0.158450 0.457489
0.102374 -0.146335 0.457421
0.131511 -0.170097 0.459490
0.129708 -0.161033 0.457636
0.124203 -0.149371 0.457438
0.106215 -0.141723 0.457414
0.102939 -0.134734 0.457414
0.112638 -0.120231 0.457421
0.103253 -0.118642 0.457422
0.131894 -0.142260 0.457414
0.116582 -0.129458 0.457414
0.127504 -0.115838 0.457425
0.072384 -0.111460 0.457433
0.065917 -0.107151 0.457468
0.079353 -0.096625 0.458119
0.090432 -0.111471 0.457433
0.089972 -0.092736 0.458939
0.088360 -0.097068 0.458038
0.099926 -0.105953 0.457478
0.101253 -0.091525 0.463705
0.102678 -0.095991 0.458234
0.119251 -0.105948 0.457478
0.121428 -0.091427 0.464093
0.005649 -0.174121 0.475296
0.011269 -0.174068 0.473795
0.015122 -0.173967 0.478982
0.018315 -0.173934 0.469966
0.019683 -0.172818 0.485879
0.032166 -0.173307 0.482948
0.014195 -0.160362 0.500836
0.010267 -0.170500 0.493365
0.014654 -0.151321 0.502234
0.020542 -0.159671 0.501119
0.021822 -0.170286 0.493830
0.019272 -0.147086 0.502755
0.032443 -0.153073 0.502295
0.014544 -0.144966 0.502871
0.002758 -0.113197 0.502816
0.015301 -0.123093 0.502677
0.020300 -0.137206 0.502824
0.026963 -0.143619 0.503078
0.020409 -0.114355 0.502624
0.026667 -0.122095 0.502732
0.042245 -0.173882 0.468497
0.040461 -0.172376 0.488542
0.050646 -0.173991 0.471579
0.051924 -0.172952 0.485082
0.054032 -0.173881 0.479502
0.039705 -0.165557 0.499387
0.043618 -0.170587 0.493224
0.044513 -0.146067 0.503129
0.064100 -0.159495 0.501312
0.056989 -0.169605 0.495241
0.050014 -0.148397 0.502857
0.058327 -0.153015 0.502316
0.041800 -0.132265 0.502942
0.045930 -0.134807 0.503031
0.040688 -0.120616 0.502812
0.050628 -0.133589 0.503007
0.057227 -0.140294 0.503142
0.060530 -0.112365 0.502892
0.063370 -0.116362 0.502895
0.006599 -0.090686 0.476845
0.013507 -0.090715 0.484156
0.029028 -0.090994 0.467533
0.018591 -0.090956 0.468684
0.027237 -0.090751 0.488387
0.014710 -0.100335 0.502548
0.014081 -0.104686 0.502577
0.004944 -0.096120 0.501198
0.018237 -0.099788 0.502523
0.018474 -0.110415 0.502553
0.015645 -0.092815 0.499853
0.046276 -0.090818 0.472836
0.034596 -0.090845 0.472046
0.037465 -0.090763 0.489694
0.065150 -0.090967 0.468356
0.065638 -0.090735 0.486468
0.052025 -0.090686 0.480699
0.047519 -0.101408 0.502559
0.037498 -0.092093 0.497815
0.046996 -0.099233 0.502379
0.054223 -0.110216 0.502836
0.059841 -0.090910 0.491904
0.058109 -0.099388 0.502440
0.080518 -0.174062 0.473609
0.071748 -0.172597 0.487213
0.097140 -0.174180 0.476973
0.091584 -0.173812 0.466497
0.099015 -0.173835 0.479776
0.068368 -0.161581 0.500650
0.077998 -0.167995 0.498549
0.075834 -0.150161 0.502650
0.082090 -0.154945 0.502091
0.092393 -0.164163 0.499831
0.096100 -0.169770 0.494903
0.094048 -0.150454 0.502616
0.068875 -0.135691 0.503049
0.077266 -0.144543 0.503227
0.076737 -0.114225 0.502894
0.074521 -0.122070 0.502900
0.094921 -0.133643 0.503008
0.084580 -0.112746 0.502893
0.092195 -0.123540 0.502902
0.105697 -0.174127 0.475477
0.105153 -0.173258 0.483244
0.110393 -0.173788 0.480058
0.126966 -0.174046 0.473150
0.120627 -0.173223 0.483456
0.102005 -0.164962 0.499577
0.105432 -0.170567 0.493266
0.103080 -0.149028 0.502783
0.109772 -0.152522 0.502374
0.128540 -0.165615 0.499370
0.125725 -0.171216 0.491933
0.130832 -0.153920 0.502211
0.100724 -0.136029 0.503056
0.106340 -0.141926 0.503175
0.100733 -0.117173 0.502896
0.100753 -0.128213 0.502906
0.116258 -0.141842 0.503173
0.125341 -0.113651 0.502893
0.131388 -0.116517 0.502896
0.080940 -0.091052 0.465777
0.075603 -0.090698 0.482109
0.070238 -0.090718 0.484460
0.091551 -0.091018 0.466810
0.086688 -0.090681 0.480039
0.082597 -0.090664 0.478106
0.079210 -0.104709 0.502674
0.070140 -0.091913 0.496916
0.079040 -0.098692 0.502172
0.087157 -0.111766 0.502882
0.080216 -0.091820 0.496448
0.093755 -0.094012 0.500358
0.103375 -0.090827 0.472577
0.106509 -0.090704 0.482791
0.123800 -0.090975 0.468109
0.120412 -0.090825 0.472636
0.122871 -0.090728 0.485546
0.104557 -0.107364 0.502752
0.101752 -0.091107 0.492887
0.101999 -0.093673 0.500227
0.118389 -0.109497 0.502815
0.127288 -0.106557 0.502729
0.114941 -0.094654 0.500607
0.139566 -0.172644 0.463626
0.143849 -0.165160 0.458166
0.144062 -0.151891 0.457452
0.138388 -0.153349 0.457460
0.164721 -0.170328 0.459864
0.152242 -0.162767 0.457859
0.154658 -0.151907 0.457452
0.140250 -0.142473 0.457414
0.141402 -0.128872 0.457414
0.139349 -0.123434 0.457418
0.134725 -0.119475 0.457422
0.163330 -0.130522 0.457414
0.161764 -0.116771 0.457424
0.150294 -0.124082 0.457418
0.175670 -0.172351 0.463150
0.174277 -0.162635 0.457842
0.172760 -0.158997 0.457493
0.168418 -0.155344 0.457472
0.199031 -0.167845 0.458511
0.195926 -0.148149 0.457431
0.189557 -0.152394 0.457455
0.179353 -0.141694 0.457414
0.168282 -0.129144 0.457414
0.167696 -0.126920 0.457415
0.196357 -0.137760 0.457414
0.193930 -0.131400 0.457414
0.196926 -0.122087 0.457420
0.191966 -0.115114 0.457425
0.144919 -0.111909 0.457430
0.141250 -0.092261 0.460809
0.140547 -0.094226 0.458556
0.161741 -0.100826 0.457520
0.150056 -0.091815 0.462567
0.160427 -0.093243 0.458735
0.176747 -0.101885 0.457511
0.169318 -0.091243 0.464818
0.186325 -0.109034 0.457453
0.196103 -0.100626 0.457522
0.193731 -0.099581 0.457580
0.204363 -0.172323 0.463105
0.204954 -0.167556 0.458474
0.211765 -0.156888 0.457481
0.210270 -0.146918 0.457424
0.231453 -0.161776 0.457732
0.220950 -0.159563 0.457496
0.222880 -0.149707 0.457440
0.204501 -0.141110 0.457414
0.206116 -0.130404 0.457414
0.206445 -0.123747 0.457418
0.222934 -0.144922 0.457414
0.220238 -0.135251 0.457414
0.221612 -0.127452 0.457415
0.224914 -0.117131 0.457424
0.249628 -0.169827 0.459052
0.242962 -0.164597 0.458094
0.241360 -0.157894 0.457486
0.253023 -0.173389 0.464836
0.266880 -0.166466 0.458334
0.252134 -0.158639 0.457491
0.251522 -0.152844 0.457458
0.244855 -0.140425 0.457414
0.241246 -0.132626 0.457414
0.232819 -0.114243 0.457426
0.254655 -0.142194 0.457414
0.258511 -0.131169 0.457414
0.257793 -0.125458 0.457417
0.250647 -0.121737 0.457420
0.205417 -0.103546 0.457498
0.200895 -0.091897 0.462244
0.205123 -0.094376 0.458529
0.217398 -0.108627 0.457456
0.227778 -0.091461 0.463959
0.241057 -0.109179 0.457452
0.235678 -0.101391 0.457516
0.242299 -0.095528 0.458319
0.252331 -0.111848 0.457430
0.258247 -0.092213 0.460999
0.257176 -0.099494 0.457596
0.141323 -0.174029 0.472669
0.142104 -0.172627 0.487034
0.148295 -0.173670 0.480772
0.152185 -0.173841 0.467321
0.154591 -0.172846 0.485719
0.136593 -0.164831 0.499619
0.138383 -0.169859 0.494720
0.136027 -0.153977 0.502204
0.142137 -0.155302 0.502049
0.155657 -0.165933 0.499269
0.157196 -0.172007 0.490309
0.162280 -0.149388 0.502741
0.140948 -0.130306 0.502941
0.145506 -0.135915 0.503054
0.133159 -0.123778 0.502902
0.148744 -0.118146 0.502897
0.157501 -0.129511 0.503013
0.149946 -0.117275 0.502908
0.161643 -0.117106 0.503027
0.172343 -0.173970 0.470993
0.169042 -0.173009 0.484738
0.178397 -0.173209 0.483537
0.187716 -0.173871 0.468161
0.184345 -0.172589 0.487264
0.181671 -0.158710 0.501561
0.175684 -0.168755 0.496987
0.175174 -0.149254 0.502756
0.179306 -0.150142 0.502653
0.191733 -0.164388 0.499760
0.183782 -0.172066 0.490187
0.190975 -0.146949 0.503026
0.169311 -0.136405 0.503191
0.169028 -0.143046 0.503239
0.176362 -0.116003 0.503066
0.178800 -0.125051 0.503170
0.184661 -0.139884 0.503239
0.184869 -0.142470 0.503239
0.192284 -0.119669 0.503236
0.137854 -0.090981 0.467912
0.147499 -0.090688 0.476768
0.139660 -0.090715 0.484131
0.158629 -0.090957 0.468653
0.163497 -0.090679 0.479870
0.161784 -0.090753 0.488661
0.135028 -0.111226 0.502866
0.145378 -0.090828 0.491496
0.140915 -0.098112 0.501947
0.158976 -0.110637 0.502934
0.155815 -0.091098 0.492845
0.157815 -0.094246 0.500449
0.181418 -0.090679 0.477061
0.166848 -0.090660 0.477622
0.178013 -0.090766 0.490279
0.182782 -0.090832 0.472421
0.197951 -0.090759 0.489445
0.170761 -0.105327 0.502827
0.176865 -0.109612 0.502991
0.174121 -0.092312 0.498968
0.186206 -0.101875 0.502806
0.193568 -0.109739 0.503114
0.183847 -0.091967 0.497275
0.200572 -0.174156 0.476290
0.210764 -0.174065 0.473710
0.214227 -0.174180 0.477705
0.215271 -0.173827 0.466925
0.222846 -0.172812 0.485927
0.225093 -0.173973 0.478949
0.215530 -0.166045 0.499234
0.203240 -0.171958 0.490408
0.201386 -0.157628 0.501777
0.218859 -0.163312 0.500101
0.222491 -0.169199 0.496077
0.223660 -0.148778 0.502812
0.223433 -0.155578 0.502017
0.213789 -0.136022 0.503239
0.199804 -0.126796 0.503238
0.210128 -0.119587 0.503236
0.217679 -0.132419 0.503239
0.225061 -0.143570 0.503239
0.224320 -0.112856 0.503233
0.227090 -0.120695 0.503236
0.247912 -0.173799 0.466118
0.246480 -0.172432 0.488239
0.255547 -0.174040 0.472985
0.255139 -0.173785 0.465725
0.251129 -0.174000 0.478803
0.237279 -0.167406 0.498804
0.246509 -0.171601 0.491157
0.233772 -0.151957 0.502440
0.254287 -0.162277 0.500435
0.255394 -0.170411 0.493622
0.249379 -0.145672 0.503176
0.264436 -0.152270 0.502407
0.237525 -0.136740 0.503239
0.247632 -0.134980 0.503239
0.233669 -0.127219 0.503238
0.250652 -0.140774 0.503239
0.258904 -0.139512 0.503239
0.261661 -0.113170 0.503233
0.260267 -0.119089 0.503236
0.207321 -0.090731 0.475477
0.210887 -0.090690 0.481241
0.204028 -0.090771 0.490910
0.218506 -0.090771 0.474282
0.225644 -0.090717 0.484417
0.201296 -0.100410 0.502888
0.210237 -0.109774 0.503166
0.197612 -0.094929 0.500852
0.218625 -0.107072 0.503086
0.230741 -0.105884 0.503051
0.219810 -0.092298 0.499032
0.246485 -0.090787 0.473786
0.234597 -0.090845 0.472024
0.237726 -0.090742 0.487402
0.258162 -0.091012 0.466989
0.263939 -0.090711 0.483739
0.249367 -0.090699 0.482248
0.239953 -0.109553 0.503159
0.237971 -0.091222 0.493526
0.233126 -0.098956 0.502608
0.249138 -0.111265 0.503210
0.257108 -0.090827 0.491502
0.249444 -0.093648 0.500297
0.279927 -0.170205 0.459664
0.271001 -0.166278 0.458310
0.272556 -0.156444 0.457478
0.289825 -0.170910 0.460812
0.301042 -0.166583 0.458365
0.297307 -0.150229 0.457452
0.282113 -0.157297 0.457483
0.271585 -0.139004 0.457414
0.266140 -0.133952 0.457414
0.268984 -0.119798 0.457421
0.296816 -0.139348 0.457423
0.291868 -0.133453 0.457420
0.292649 -0.127920 0.457421
0.287690 -0.112228 0.457429
0.268393 -0.109292 0.457451
0.269239 -0.091960 0.461995
0.265918 -0.095792 0.458271
0.289659 -0.100608 0.457531
0.282685 -0.091896 0.462250
0.306612 -0.100013 0.456232
0.299608 -0.091025 0.464125
0.298233 -0.094736 0.458444
0.270187 -0.173778 0.465510
0.271981 -0.173225 0.483796
0.284447 -0.174046 0.473191
0.297564 -0.174118 0.475313
0.289889 -0.174052 0.478907
0.280127 -0.158978 0.501514
0.274831 -0.169502 0.495677
0.267480 -0.147782 0.502930
0.268879 -0.157007 0.501858
0.298851 -0.163999 0.500454
0.288355 -0.171026 0.493196
0.296791 -0.157878 0.501895
0.276023 -0.129335 0.503239
0.278230 -0.133198 0.503239
0.272039 -0.116366 0.503235
0.280626 -0.123194 0.503237
0.293208 -0.136131 0.503233
0.285722 -0.122539 0.503236
0.286620 -0.123805 0.503236
0.300996 -0.167247 0.499980
0.311821 -0.154115 0.504496
0.307671 -0.130421 0.504662
0.308425 -0.139423 0.504773
0.300620 -0.114660 0.503618
0.315650 -0.116149 0.505838
0.279672 -0.090772 0.474242
0.278547 -0.090672 0.479002
0.270294 -0.090723 0.485190
0.292359 -0.090789 0.474105
0.287039 -0.090668 0.477913
0.293221 -0.090777 0.490521
0.280850 -0.107476 0.503098
0.262438 -0.092149 0.498274
0.275996 -0.092923 0.499981
0.291680 -0.106002 0.503051
0.284027 -0.091568 0.495286
0.288050 -0.096517 0.501543
0.302365 -0.089706 0.474554
0.309945 -0.087810 0.482085
0.304369 -0.089184 0.484446
0.308133 -0.104175 0.504614
0.306709 -0.090004 0.497092
0.303628 -0.093658 0.501612
0.305110 -0.168671 0.458285
0.310758 -0.157018 0.455508
0.309546 -0.146031 0.455629
0.329065 -0.164856 0.453263
0.326561 -0.154600 0.452871
0.317463 -0.148767 0.454398
0.313519 -0.136991 0.455007
0.300869 -0.137913 0.456971
0.312995 -0.116435 0.455103
0.311254 -0.115747 0.455374
0.332013 -0.139935 0.451892
0.318090 -0.132491 0.454268
0.331178 -0.119874 0.451554
0.316511 -0.117346 0.454526
0.328910 -0.101486 0.448899
0.330496 -0.098220 0.447666
0.319691 -0.095610 0.453140
0.340613 -0.163115 0.450621
0.342684 -0.160580 0.450104
0.341376 -0.147551 0.450307
0.357956 -0.146257 0.448928
0.337244 -0.138696 0.451003
0.340619 -0.127887 0.450349
0.338034 -0.116682 0.449913
0.354277 -0.143055 0.448927
0.350201 -0.137477 0.448930
0.359495 -0.126868 0.448737
0.369743 -0.133743 0.449001
0.375399 -0.121676 0.448727
0.384172 -0.112445 0.452688
0.337932 -0.079931 0.422369
0.343939 -0.090965 0.424691
0.343499 -0.105687 0.444531
0.338047 -0.084435 0.434334
0.335694 -0.091790 0.441191
0.340799 -0.090663 0.435574
0.358878 -0.104843 0.442709
0.352687 -0.099101 0.437237
0.367087 -0.111405 0.447065
0.381864 -0.111198 0.450903
0.311079 -0.175428 0.476288
0.314290 -0.175133 0.491349
0.306406 -0.174753 0.483391
0.300052 -0.172068 0.492422
0.315275 -0.096330 0.505108
