ply
format ascii 1.0
element vertex 1000
property float x
property float y
property float z
end_header
0.339785 -0.084559 -0.233083
0.343514 -0.095243 -0.246003
0.354844 -0.096154 -0.239327
0.338625 -0.080320 -0.228945
0.342752 -0.090068 -0.216821
0.338806 -0.080895 -0.210592
0.340781 -0.087407 -0.206341
0.349635 -0.094265 -0.203722
0.358415 -0.094735 -0.227428
0.358206 -0.094803 -0.207667
0.337911 -0.066981 -0.224431
0.337981 -0.076958 -0.228322
0.337887 -0.062557 -0.212385
0.337886 -0.049972 -0.226249
0.337889 -0.061961 -0.235064
0.337884 -0.055606 -0.212906
0.337884 -0.058693 -0.202868
0.367228 -0.100273 -0.250042
0.369387 -0.093870 -0.221382
0.365409 -0.094747 -0.204639
0.382932 -0.084764 -0.223089
0.380107 -0.089488 -0.230203
0.383045 -0.083818 -0.216892
0.380198 -0.089196 -0.208684
0.383700 -0.067996 -0.213985
0.383706 -0.056789 -0.209169
0.383707 -0.050349 -0.219011
0.340039 -0.084961 -0.182671
0.347969 -0.093251 -0.192601
0.341246 -0.088941 -0.179586
0.349132 -0.093959 -0.178100
0.350285 -0.094600 -0.194453
0.354197 -0.094700 -0.170381
0.363864 -0.094948 -0.180132
0.341060 -0.088327 -0.152415
0.343285 -0.090402 -0.162992
0.340878 -0.087726 -0.144690
0.349139 -0.093963 -0.139050
0.363673 -0.094943 -0.154675
0.354096 -0.094697 -0.140405
0.360789 -0.094869 -0.143982
0.337999 -0.076547 -0.197200
0.337982 -0.074458 -0.184721
0.338006 -0.077453 -0.171007
0.337884 -0.053598 -0.191765
0.337884 -0.047688 -0.173449
0.337884 -0.058617 -0.177023
0.337952 -0.070702 -0.165718
0.337912 -0.065695 -0.140381
0.337972 -0.073130 -0.141803
0.337884 -0.046872 -0.157391
0.337884 -0.059179 -0.162951
0.337884 -0.052428 -0.142440
0.373585 -0.092991 -0.185407
0.365652 -0.094695 -0.170233
0.374916 -0.092705 -0.179020
0.383196 -0.082061 -0.195554
0.383203 -0.081981 -0.173620
0.377698 -0.091278 -0.173318
0.364648 -0.094910 -0.153252
0.371721 -0.093391 -0.141642
0.370855 -0.093577 -0.149140
0.383254 -0.081372 -0.163909
0.383032 -0.084012 -0.142014
0.383048 -0.083820 -0.149780
0.383700 -0.070298 -0.187318
0.383702 -0.067471 -0.198737
0.383705 -0.062903 -0.182472
0.383707 -0.048873 -0.188890
0.383707 -0.046949 -0.193447
0.383707 -0.046004 -0.176830
0.383698 -0.072482 -0.158242
0.383703 -0.065812 -0.160177
0.383699 -0.070847 -0.150440
0.383706 -0.060767 -0.157424
0.383707 -0.049708 -0.164281
0.383707 -0.046190 -0.150005
0.338251 -0.079063 -0.131350
0.344778 -0.091310 -0.124589
0.339610 -0.083547 -0.114746
0.343723 -0.090668 -0.109971
0.351345 -0.094627 -0.131575
0.359685 -0.094841 -0.132871
0.363541 -0.094940 -0.107887
0.338356 -0.079410 -0.091580
0.343288 -0.090404 -0.088460
0.338639 -0.080343 -0.072131
0.341583 -0.089366 -0.066834
0.350526 -0.094606 -0.093355
0.358990 -0.094823 -0.094041
0.360029 -0.094850 -0.080257
0.337962 -0.071931 -0.131497
0.337977 -0.073809 -0.126661
0.337943 -0.069531 -0.105246
0.337884 -0.049270 -0.130878
0.337884 -0.050884 -0.124656
0.337884 -0.047188 -0.116726
0.337994 -0.075871 -0.100530
0.337950 -0.070455 -0.087231
0.337931 -0.068089 -0.078948
0.337884 -0.061001 -0.102407
0.337884 -0.052108 -0.089314
0.337884 -0.047144 -0.074229
0.337884 -0.061195 -0.084682
0.376286 -0.092411 -0.132456
0.371761 -0.093383 -0.117409
0.383292 -0.080920 -0.119821
0.382693 -0.087118 -0.129825
0.383517 -0.078244 -0.113423
0.378220 -0.090844 -0.115607
0.374291 -0.092840 -0.093734
0.365086 -0.094816 -0.084947
0.383354 -0.080183 -0.090398
0.377468 -0.091470 -0.098423
0.382877 -0.085853 -0.076467
0.381065 -0.088474 -0.083428
0.383701 -0.068579 -0.124424
0.383700 -0.069712 -0.108142
0.383699 -0.070815 -0.114670
0.383707 -0.047783 -0.135655
0.383706 -0.055494 -0.104545
0.383707 -0.049289 -0.108070
0.383700 -0.069652 -0.095797
0.383703 -0.065448 -0.071927
0.383706 -0.061248 -0.099394
0.383707 -0.046470 -0.100599
0.383706 -0.060360 -0.072012
0.383706 -0.056783 -0.084656
0.338969 -0.081433 -0.052645
0.348300 -0.093452 -0.058966
0.340196 -0.085479 -0.041758
0.346657 -0.092453 -0.046359
0.358676 -0.094815 -0.058697
0.358169 -0.094802 -0.037204
0.364176 -0.094956 -0.046627
0.340062 -0.085036 -0.021193
0.347181 -0.092772 -0.031565
0.341294 -0.089101 -0.008280
0.347922 -0.093223 -0.016104
0.358833 -0.094819 -0.035267
0.362765 -0.094920 -0.004234
0.355315 -0.094729 -0.017960
0.337899 -0.064027 -0.053937
0.337939 -0.069031 -0.045616
0.337943 -0.069607 -0.037636
0.337884 -0.056790 -0.057783
0.337884 -0.048930 -0.048683
0.337884 -0.056378 -0.038613
0.337892 -0.063221 -0.024828
0.337946 -0.069956 -0.019429
0.337931 -0.068007 -0.005856
0.337884 -0.046233 -0.032148
0.337884 -0.061650 -0.025419
0.337884 -0.058163 -0.004668
0.367913 -0.094209 -0.063183
0.370860 -0.093576 -0.042300
0.376014 -0.092469 -0.040318
0.382946 -0.085033 -0.067070
0.382821 -0.086519 -0.043807
0.377499 -0.091444 -0.042955
0.365582 -0.094710 -0.030185
0.369818 -0.093800 -0.005239
0.368695 -0.094041 -0.017033
0.383464 -0.078866 -0.027639
0.383258 -0.081324 -0.008352
0.383549 -0.077858 -0.013022
0.383696 -0.074688 -0.060669
0.383705 -0.063081 -0.055251
0.383698 -0.072435 -0.050707
0.383706 -0.055018 -0.056350
0.383706 -0.056106 -0.065658
0.383707 -0.051732 -0.050970
0.383698 -0.071929 -0.019123
0.383705 -0.063206 -0.033617
0.383705 -0.062922 -0.015027
0.383707 -0.053644 -0.021974
0.383707 -0.047476 -0.029410
0.383707 -0.052811 -0.015606
0.340134 -0.085274 0.002287
0.342796 -0.090104 0.014095
0.338151 -0.078736 0.027779
0.345593 -0.091805 0.027703
0.357963 -0.094797 0.006284
0.358805 -0.094818 0.000839
0.361943 -0.094899 0.025012
0.339012 -0.081575 0.040548
0.341385 -0.089245 0.046042
0.338653 -0.080389 0.050847
0.344254 -0.090991 0.065374
0.357611 -0.094788 0.042089
0.359133 -0.094827 0.038678
0.363196 -0.094931 0.056503
0.337887 -0.062527 0.008593
0.337998 -0.076416 0.006895
0.338005 -0.077330 0.026569
0.337884 -0.046185 0.005374
0.337884 -0.059494 0.010772
0.337884 -0.047264 0.027524
0.337895 -0.063550 0.043982
0.337959 -0.071520 0.045289
0.337919 -0.066610 0.050141
0.337884 -0.046859 0.041923
0.337884 -0.048770 0.044756
0.337884 -0.048779 0.058772
0.337884 -0.051085 0.061639
0.368648 -0.094051 0.000504
0.370712 -0.093608 0.015386
0.383407 -0.079547 0.014427
0.379836 -0.089498 0.001776
0.383235 -0.081597 0.019560
0.381266 -0.088306 0.026699
0.368639 -0.094054 0.031974
0.369002 -0.093979 0.057206
0.382884 -0.085762 0.036125
0.380686 -0.088791 0.044635
0.383040 -0.083911 0.050673
0.380746 -0.088744 0.055382
0.383701 -0.068238 -0.000047
0.383696 -0.074369 0.026174
0.383706 -0.059401 0.003516
0.383707 -0.050906 0.004038
0.383707 -0.053430 0.022639
0.383706 -0.055446 0.013524
0.383704 -0.064951 0.036610
0.383700 -0.069988 0.056491
0.383706 -0.061244 0.038652
0.383707 -0.048341 0.035327
0.383706 -0.058616 0.054924
0.383707 -0.052943 0.054314
0.339939 -0.084631 0.076248
0.347027 -0.092678 0.066755
0.340667 -0.087030 0.100304
0.350122 -0.094561 0.094696
0.363134 -0.094929 0.069762
0.350516 -0.094606 0.081308
0.362570 -0.094915 0.083384
0.341212 -0.088829 0.109994
0.349025 -0.093894 0.097270
0.341114 -0.088504 0.124430
0.344594 -0.091198 0.121704
0.361839 -0.094896 0.101955
0.359013 -0.094824 0.126573
0.357503 -0.094785 0.116332
0.337972 -0.073111 0.072532
0.337925 -0.067324 0.086112
0.338001 -0.076730 0.090926
0.337884 -0.060465 0.078026
0.337884 -0.046773 0.079654
0.337884 -0.057988 0.092642
0.337963 -0.072044 0.099424
0.337944 -0.069685 0.117401
0.338002 -0.076865 0.122872
0.337884 -0.047076 0.103347
0.337884 -0.056232 0.107075
0.337884 -0.058404 0.127944
0.369686 -0.093806 0.076485
0.372599 -0.093122 0.092668
0.382978 -0.082137 0.074579
0.383207 -0.080612 0.069570
0.382564 -0.083108 0.095803
0.377554 -0.091147 0.088036
0.368462 -0.094052 0.103074
0.364867 -0.094859 0.121073
0.382197 -0.086792 0.106998
0.382390 -0.084941 0.098814
0.382165 -0.086109 0.120063
0.376549 -0.091897 0.124118
0.383594 -0.068105 0.073620
0.383641 -0.070083 0.069533
0.383474 -0.065197 0.082512
0.383660 -0.054746 0.075049
0.383467 -0.059021 0.089915
0.383624 -0.047629 0.085688
0.383015 -0.071084 0.103795
0.382858 -0.069733 0.123916
0.383003 -0.063797 0.113851
0.383268 -0.056524 0.107063
0.383061 -0.061192 0.129109
0.383083 -0.060134 0.114049
0.338866 -0.081092 0.139096
0.348276 -0.093438 0.146418
0.339748 -0.084001 0.149246
0.345397 -0.091686 0.160776
0.358492 -0.094810 0.143172
0.358588 -0.094813 0.137746
0.361852 -0.094896 0.150391
0.339371 -0.082757 0.176792
0.343318 -0.090422 0.172732
0.338371 -0.079462 0.182859
0.345290 -0.091622 0.189659
0.360579 -0.094864 0.178818
0.356891 -0.094769 0.168651
0.356007 -0.094746 0.182885
0.337930 -0.067935 0.138563
0.337952 -0.070606 0.151970
0.337980 -0.074163 0.159896
0.337884 -0.049963 0.140624
0.337884 -0.051973 0.144564
0.337884 -0.059131 0.159689
0.337955 -0.071032 0.166023
0.337983 -0.074502 0.177613
0.337900 -0.064190 0.182148
0.337884 -0.052044 0.163777
0.337884 -0.056929 0.172288
0.337884 -0.045794 0.195030
0.337884 -0.059485 0.186925
0.372237 -0.093205 0.139418
0.372963 -0.093042 0.150374
0.382218 -0.085125 0.132252
0.380152 -0.088728 0.131438
0.382682 -0.076454 0.163065
0.365334 -0.094754 0.165776
0.373282 -0.092970 0.175955
0.374544 -0.092687 0.181011
0.382254 -0.084448 0.165282
0.381614 -0.087442 0.176744
0.382797 -0.076907 0.194174
0.382853 -0.069894 0.145104
0.383016 -0.063238 0.133141
0.382839 -0.070489 0.152479
0.383115 -0.058531 0.135589
0.383212 -0.053699 0.134817
0.383115 -0.058513 0.150150
0.382943 -0.066210 0.175450
0.382739 -0.074561 0.164716
0.383134 -0.063720 0.192092
0.383092 -0.059664 0.167058
0.383242 -0.052190 0.170441
0.383324 -0.048102 0.182721
0.340148 -0.085320 0.201890
0.348997 -0.093876 0.210898
0.338948 -0.081364 0.220338
0.341556 -0.089350 0.231731
0.351634 -0.094634 0.211881
0.362595 -0.094916 0.199417
0.354164 -0.094699 0.227441
0.338379 -0.079485 0.235060
0.344118 -0.090908 0.248183
0.338963 -0.081413 0.256198
0.346900 -0.092601 0.260476
0.358365 -0.094807 0.245267
0.354359 -0.094704 0.229489
0.356543 -0.094760 0.250844
0.337982 -0.074381 0.196574
0.338012 -0.078214 0.209911
0.338005 -0.077251 0.219278
0.337884 -0.053830 0.199462
0.337884 -0.059428 0.209773
0.337884 -0.053564 0.213243
0.337973 -0.073254 0.229872
0.337964 -0.072162 0.245336
0.337953 -0.070809 0.247301
0.338004 -0.077213 0.260667
0.337884 -0.049873 0.244553
0.337884 -0.047408 0.257298
0.337884 -0.054581 0.255127
0.366688 -0.094450 0.197501
0.369501 -0.093819 0.213629
0.382128 -0.086869 0.207254
0.378145 -0.090493 0.207195
0.382234 -0.085617 0.214989
0.381908 -0.087184 0.224668
0.369288 -0.093867 0.232000
0.368354 -0.094076 0.249149
0.382457 -0.082968 0.239062
0.377938 -0.090675 0.239370
0.382732 -0.079703 0.252823
0.377535 -0.091030 0.247412
0.382955 -0.072569 0.197318
0.383087 -0.074006 0.215975
0.383401 -0.052594 0.210694
0.383259 -0.059020 0.197482
0.383284 -0.060773 0.216895
0.383450 -0.051012 0.213894
0.383201 -0.069317 0.237551
0.383183 -0.070043 0.260323
0.383392 -0.061309 0.235702
0.383565 -0.052706 0.236171
0.383540 -0.053952 0.260475
0.383693 -0.046294 0.250023
0.340240 -0.085625 0.274764
0.345545 -0.091777 0.271898
0.341070 -0.088359 0.295104
0.346142 -0.092140 0.289054
0.362399 -0.094910 0.271778
0.353752 -0.094689 0.292787
0.338897 -0.081197 0.297169
0.340379 -0.086083 0.309502
0.347688 -0.093081 0.302146
0.341098 -0.088453 0.331908
0.349298 -0.094060 0.314890
0.363512 -0.094939 0.308348
0.357208 -0.094777 0.323619
0.337987 -0.075081 0.263564
0.337985 -0.074785 0.268373
0.337933 -0.068359 0.285374
0.337971 -0.073099 0.286618
0.337884 -0.056024 0.272634
0.337884 -0.045830 0.280825
0.337884 -0.054279 0.286750
0.337892 -0.063154 0.301813
0.337931 -0.067987 0.311800
0.337969 -0.072757 0.319513
0.337884 -0.060863 0.296205
0.337884 -0.046391 0.316309
0.337884 -0.057865 0.321457
0.370835 -0.093520 0.274531
0.366794 -0.094426 0.291764
0.382159 -0.086504 0.268858
0.377683 -0.090899 0.270023
0.382296 -0.084879 0.293500
0.381413 -0.087618 0.296320
0.370770 -0.093536 0.305789
0.365870 -0.094636 0.320827
0.382147 -0.086640 0.307400
0.377178 -0.091344 0.301302
0.382568 -0.083019 0.324642
0.377579 -0.091037 0.322419
0.383080 -0.074274 0.266980
0.383089 -0.073928 0.286427
0.383191 -0.069722 0.286465
0.383576 -0.052124 0.266424
0.383431 -0.059367 0.288643
0.383624 -0.049743 0.280153
0.383056 -0.075258 0.301561
0.383151 -0.073370 0.320969
0.383135 -0.072032 0.312896
0.383675 -0.047200 0.298105
0.383406 -0.060596 0.317768
0.383697 -0.046129 0.315481
0.339107 -0.081888 0.341788
0.348104 -0.093333 0.337205
0.341193 -0.088767 0.366242
0.349641 -0.094268 0.348805
0.354109 -0.094698 0.339750
0.353930 -0.094693 0.358529
0.361481 -0.094887 0.345839
0.341268 -0.089012 0.372599
0.347396 -0.092903 0.367150
0.341067 -0.088350 0.390855
0.348709 -0.093702 0.379297
0.355511 -0.094734 0.370660
0.352055 -0.094645 0.393453
0.358828 -0.094819 0.380210
0.337952 -0.070613 0.341877
0.337909 -0.065363 0.345134
0.338011 -0.078022 0.352787
0.337884 -0.057955 0.330608
0.337884 -0.053473 0.347669
0.337884 -0.061495 0.359155
0.337969 -0.072792 0.365512
0.337952 -0.070711 0.376068
0.337965 -0.072230 0.392838
0.337884 -0.052790 0.369179
0.337884 -0.053979 0.370577
0.337884 -0.046816 0.383564
0.367954 -0.094175 0.339727
0.373653 -0.092914 0.360618
0.370036 -0.093714 0.347506
0.383103 -0.077241 0.341533
0.382494 -0.086459 0.349771
0.382502 -0.086281 0.346679
0.366811 -0.094431 0.377117
0.365140 -0.094805 0.383471
0.370044 -0.093743 0.383705
0.383237 -0.077625 0.373295
0.382063 -0.087363 0.372625
0.382903 -0.081610 0.385401
0.383374 -0.069011 0.341488
0.383369 -0.065005 0.331592
0.383461 -0.067338 0.350015
0.383554 -0.056544 0.340623
0.383555 -0.053199 0.330418
0.383680 -0.048324 0.352585
0.383407 -0.074374 0.369240
0.383588 -0.067041 0.362697
0.383556 -0.068329 0.383109
0.383706 -0.060113 0.365130
0.383707 -0.051738 0.368120
0.383707 -0.047128 0.390448
0.338959 -0.081399 0.396403
0.347493 -0.092963 0.412092
0.341967 -0.089597 0.417363
0.363882 -0.094949 0.399026
0.351435 -0.094519 0.427111
0.352780 -0.095820 0.430166
0.337994 -0.075960 0.395164
0.337972 -0.073073 0.411084
0.337885 -0.060269 0.402981
0.365245 -0.094805 0.401572
0.365606 -0.094873 0.413274
0.373248 -0.093847 0.418725
0.383337 -0.077549 0.402896
0.384103 -0.084486 0.430097
0.383423 -0.082712 0.419092
0.382646 -0.088163 0.419630
0.369460 -0.096265 0.431529
0.384938 -0.081547 0.437583
0.377973 -0.097269 0.440756
0.383553 -0.072969 0.410484
0.383781 -0.075421 0.416271
0.383776 -0.065783 0.413523
0.383706 -0.056603 0.402804
0.384363 -0.053063 0.422448
0.383846 -0.056650 0.413601
0.385831 -0.074245 0.444547
0.385223 -0.064468 0.435727
0.384814 -0.052167 0.430063
0.337887 -0.033540 -0.228419
0.337885 -0.035304 -0.223656
0.337884 -0.029937 -0.213949
0.337936 -0.021899 -0.228938
0.337927 -0.023182 -0.227694
0.337915 -0.024456 -0.218025
0.350024 0.001401 -0.219982
0.340807 -0.005870 -0.224550
0.345971 -0.001074 -0.218257
0.339926 -0.008486 -0.211892
0.352252 0.001567 -0.234105
0.360560 0.002046 -0.222311
0.355243 0.001803 -0.211455
0.383707 -0.034125 -0.207225
0.383707 -0.035494 -0.209410
0.383664 -0.019356 -0.211629
0.370315 0.001456 -0.229136
0.367899 0.001803 -0.218569
0.378215 -0.001228 -0.230913
0.382408 -0.006025 -0.221181
0.376999 -0.000140 -0.214139
0.337884 -0.043097 -0.191973
0.337884 -0.029562 -0.176276
0.337884 -0.041174 -0.170005
0.337887 -0.028636 -0.190439
0.337930 -0.022266 -0.180332
0.337892 -0.027831 -0.182408
0.337884 -0.043395 -0.164550
0.337884 -0.030232 -0.139436
0.337884 -0.041350 -0.140472
0.337900 -0.026726 -0.165682
0.337935 -0.021556 -0.148371
0.337901 -0.026527 -0.141644
0.342063 -0.003464 -0.200780
0.338040 -0.014103 -0.192584
0.348274 0.000335 -0.169856
0.339453 -0.009894 -0.178783
0.354373 0.001760 -0.195741
0.354848 0.001784 -0.185090
0.348240 0.000314 -0.169286
0.338907 -0.011520 -0.165125
0.349860 0.001305 -0.139283
0.338591 -0.012463 -0.151030
0.354668 0.001775 -0.164241
0.354294 0.001756 -0.162578
0.355075 0.001795 -0.141633
0.383707 -0.034281 -0.188539
0.383707 -0.035020 -0.199872
0.383707 -0.038049 -0.174208
0.383676 -0.022151 -0.192811
0.383689 -0.025102 -0.201253
0.383533 -0.016987 -0.174155
0.383707 -0.045042 -0.161781
0.383707 -0.033973 -0.158327
0.383707 -0.038438 -0.139894
0.383459 -0.019988 -0.156577
0.383499 -0.016189 -0.169036
0.383399 -0.017801 -0.136461
0.375650 0.000956 -0.187466
0.374086 0.001119 -0.176888
0.382444 -0.006268 -0.191256
0.380602 -0.003118 -0.198815
0.383518 -0.014014 -0.178544
0.378630 -0.001493 -0.187904
0.365214 0.002094 -0.168262
0.368000 0.001781 -0.151493
0.382393 -0.007272 -0.158374
0.381838 -0.004274 -0.161079
0.382967 -0.012051 -0.140323
0.375354 0.000945 -0.149075
0.337884 -0.033842 -0.125661
0.337884 -0.029234 -0.116983
0.337884 -0.044369 -0.112477
0.337982 -0.014614 -0.126813
0.337966 -0.016855 -0.114382
0.337886 -0.028794 -0.104207
0.337884 -0.035002 -0.095257
0.337884 -0.030152 -0.078305
0.337884 -0.036790 -0.074627
0.337940 -0.020783 -0.101796
0.337968 -0.016578 -0.072835
0.337909 -0.025338 -0.071413
0.346064 -0.001017 -0.125061
0.339369 -0.010145 -0.121214
0.345611 -0.001294 -0.109219
0.339858 -0.008687 -0.110021
0.363459 0.002207 -0.130820
0.354592 0.001771 -0.118128
0.359325 0.002004 -0.105820
0.343563 -0.002547 -0.088166
0.338322 -0.013263 -0.090016
0.347938 0.000129 -0.069895
0.338185 -0.013674 -0.082374
0.355476 0.001814 -0.088569
0.361719 0.002121 -0.081631
0.383707 -0.035377 -0.120027
0.383707 -0.035446 -0.129960
0.383707 -0.045544 -0.117709
0.383707 -0.031691 -0.115968
0.383553 -0.023397 -0.133044
0.383654 -0.027104 -0.112421
0.383707 -0.038879 -0.093275
0.383707 -0.032064 -0.090234
0.383707 -0.043093 -0.071867
0.383707 -0.032960 -0.077781
0.383335 -0.015446 -0.089904
0.383635 -0.026405 -0.078537
0.383434 -0.019071 -0.082249
0.369563 0.001606 -0.122650
0.366044 0.002000 -0.107503
0.382069 -0.006017 -0.135325
0.376551 -0.000044 -0.123630
0.380814 -0.003563 -0.122663
0.371789 0.001356 -0.094959
0.374090 0.001099 -0.080731
0.365051 0.002111 -0.080683
0.381061 -0.003767 -0.099079
0.383155 -0.013315 -0.074448
0.377998 -0.001239 -0.083194
0.337884 -0.030449 -0.065508
0.337884 -0.044054 -0.063371
0.337884 -0.043598 -0.050530
0.337906 -0.025765 -0.069462
0.337913 -0.024797 -0.055505
0.337958 -0.018087 -0.038455
0.337884 -0.029801 -0.032286
0.337884 -0.036843 -0.023666
0.337884 -0.037616 -0.018624
0.337956 -0.018470 -0.028157
0.337949 -0.019390 -0.023247
0.337903 -0.026185 -0.013652
0.347831 0.000064 -0.062775
0.340866 -0.005682 -0.066846
0.349858 0.001304 -0.044622
0.339953 -0.008405 -0.045195
0.359157 0.001995 -0.060559
0.352921 0.001689 -0.057831
0.352155 0.001651 -0.043973
0.341596 -0.003750 -0.034152
0.338519 -0.012678 -0.025453
0.346668 -0.000647 -0.003867
0.341372 -0.004176 -0.011754
0.363036 0.002186 -0.024411
0.353921 0.001738 -0.018717
0.359338 0.002004 -0.004185
0.383644 -0.035429 -0.063521
0.383502 -0.035413 -0.037085
0.383474 -0.030550 -0.045107
0.383517 -0.027764 -0.054356
0.383380 -0.023198 -0.046165
0.383290 -0.019754 -0.048464
0.383523 -0.036441 -0.023397
0.383527 -0.036655 -0.010779
0.383434 -0.031994 -0.010319
0.383249 -0.024348 -0.022012
0.383187 -0.022011 -0.004899
0.383005 -0.015162 -0.019927
0.364979 0.002119 -0.066693
0.368752 0.001689 -0.039532
0.383041 -0.012548 -0.069906
0.377129 -0.000523 -0.062483
0.381893 -0.005505 -0.049656
0.378762 -0.001950 -0.046685
0.366831 0.001907 -0.028790
0.367134 0.001872 -0.010379
0.382815 -0.012253 -0.035486
0.375609 0.000710 -0.026207
0.378337 -0.001662 -0.017981
0.337884 -0.029867 0.003764
0.337884 -0.033585 0.011933
0.337884 -0.032061 0.024801
0.337927 -0.022713 0.001465
0.337891 -0.027975 -0.001666
0.337960 -0.017774 0.022852
0.337884 -0.041656 0.030701
0.337884 -0.043743 0.045525
0.337884 -0.033006 0.055004
0.337884 -0.044798 0.061969
0.337915 -0.024430 0.034957
0.337919 -0.023891 0.046749
0.348528 0.000490 0.001726
0.341102 -0.004980 0.001254
0.346192 -0.000939 0.020760
0.338977 -0.011311 0.017298
0.357508 0.001914 -0.000502
0.355395 0.001810 0.007219
0.353561 0.001720 0.019614
0.348547 0.000502 0.033639
0.340187 -0.007707 0.035427
0.346841 -0.000542 0.052916
0.338689 -0.012169 0.047163
0.360244 0.002049 0.037541
0.352675 0.001677 0.041838
0.355895 0.001835 0.061018
0.383644 -0.042446 0.009041
0.383700 -0.045231 0.029408
0.383461 -0.033382 0.023949
0.383279 -0.025471 0.007354
0.383117 -0.019370 -0.000505
0.383269 -0.025095 0.014048
0.383494 -0.035011 0.042625
0.383631 -0.041834 0.033049
0.383444 -0.032532 0.053238
0.383341 -0.027774 0.040416
0.383000 -0.014960 0.030003
0.383208 -0.022789 0.050744
0.375327 0.000938 -0.002628
0.374964 0.000980 0.022758
0.382538 -0.011342 0.000184
0.376629 -0.000178 -0.001610
0.381870 -0.006853 0.011588
0.375505 0.000800 0.025566
0.367640 0.001814 0.041713
0.370428 0.001497 0.061864
0.382414 -0.010510 0.030255
0.376380 0.000039 0.043200
0.382555 -0.011459 0.048657
0.337884 -0.039827 0.064300
0.337884 -0.041469 0.069684
0.337884 -0.031373 0.080713
0.337884 -0.039485 0.095636
0.337887 -0.028552 0.079162
0.337968 -0.016591 0.089925
0.337884 -0.032077 0.102049
0.337884 -0.031439 0.112408
0.337884 -0.031381 0.123970
0.337884 -0.044476 0.120489
0.337968 -0.016699 0.110638
0.337972 -0.015975 0.115717
0.337892 -0.027820 0.121309
0.341119 -0.004930 0.063624
0.338468 -0.012828 0.072555
0.343354 -0.002674 0.087693
0.338590 -0.012464 0.088406
0.355112 0.001797 0.077849
0.363058 0.002187 0.082199
0.343867 -0.002361 0.099047
0.341142 -0.004862 0.100531
0.349727 0.001223 0.118431
0.340337 -0.007259 0.116110
0.363919 0.002229 0.110333
0.350568 0.001573 0.112047
0.355838 0.001832 0.122576
0.383624 -0.037401 0.072942
0.383653 -0.041712 0.065352
0.383704 -0.034296 0.090572
0.383459 -0.028389 0.073146
0.383090 -0.017636 0.064841
0.383281 -0.019479 0.088524
0.383533 -0.039636 0.108765
0.383673 -0.032460 0.108592
0.383646 -0.032107 0.114985
0.383480 -0.020730 0.105706
0.383372 -0.016885 0.109569
0.383572 -0.024111 0.118115
0.373423 0.001156 0.063689
0.373300 0.001182 0.090424
0.383043 -0.013734 0.078670
0.380156 -0.003241 0.071125
0.382899 -0.012683 0.089048
0.376761 -0.000253 0.089777
0.371226 0.001420 0.108440
0.375305 0.000962 0.122330
0.382360 -0.008408 0.102679
0.375647 0.000701 0.104413
0.382032 -0.005758 0.111516
0.375476 0.000844 0.120388
0.337884 -0.042142 0.145051
0.337884 -0.030659 0.157759
0.337884 -0.037577 0.154803
0.337978 -0.015100 0.133797
0.337953 -0.018909 0.152573
0.337910 -0.025200 0.150780
0.337884 -0.030249 0.178337
0.337884 -0.034919 0.180478
0.337884 -0.039505 0.185836
0.337961 -0.017693 0.173278
0.337966 -0.016911 0.179276
0.337930 -0.022241 0.190215
0.345066 -0.001628 0.143664
0.339468 -0.009849 0.144866
0.343640 -0.002499 0.161470
0.339532 -0.009657 0.155359
0.351671 0.001628 0.139172
0.359404 0.002007 0.156763
0.348982 0.000768 0.162782
0.341369 -0.004185 0.175994
0.338976 -0.011316 0.174091
0.347542 -0.000113 0.194978
0.340090 -0.007997 0.194353
0.353205 0.001703 0.177944
0.360629 0.002068 0.181380
0.383462 -0.041258 0.140535
0.383630 -0.032907 0.140437
0.383440 -0.042333 0.158539
0.383594 -0.024913 0.136030
0.383380 -0.017090 0.136348
0.383618 -0.025805 0.153237
0.383550 -0.036849 0.174427
0.383603 -0.034248 0.164288
0.383538 -0.037442 0.189206
0.383384 -0.017237 0.177446
0.383418 -0.018498 0.168014
0.383596 -0.024986 0.190967
0.367639 0.001821 0.134120
0.373592 0.001154 0.145999
0.365568 0.002053 0.151730
0.382250 -0.007231 0.135211
0.382587 -0.009499 0.152387
0.377945 -0.001195 0.145771
0.370553 0.001495 0.166690
0.372859 0.001237 0.184621
0.382670 -0.010055 0.174177
0.379668 -0.002617 0.162949
0.382156 -0.006597 0.188560
0.376296 0.000167 0.181896
0.337884 -0.037583 0.202988
0.337884 -0.030709 0.221645
0.337884 -0.045409 0.220520
0.337923 -0.023265 0.201909
0.337936 -0.021379 0.204542
0.337897 -0.027091 0.227697
0.337884 -0.034317 0.233601
0.337884 -0.043098 0.241771
0.337884 -0.034902 0.256137
0.337946 -0.019812 0.231751
0.337909 -0.025329 0.236000
0.337899 -0.026751 0.254616
0.343976 -0.002294 0.201038
0.341177 -0.004757 0.196517
0.349783 0.001257 0.226935
0.339246 -0.010510 0.217192
0.362148 0.002142 0.202049
0.359060 0.001991 0.218183
0.352237 0.001655 0.215385
0.342391 -0.003263 0.241000
0.340711 -0.006145 0.243349
0.345583 -0.001311 0.255423
0.339819 -0.008803 0.258861
0.359162 0.001996 0.231575
0.355779 0.001829 0.247332
0.353846 0.001734 0.261669
0.383669 -0.030921 0.198561
0.383670 -0.039532 0.225035
0.383639 -0.035859 0.214735
0.383495 -0.021289 0.201258
0.383693 -0.028542 0.219114
0.383358 -0.016278 0.224087
0.383707 -0.035798 0.236591
0.383707 -0.038246 0.261015
0.383707 -0.030647 0.256214
0.383405 -0.018005 0.237296
0.383534 -0.022717 0.255063
0.383376 -0.016944 0.256014
0.369891 0.001569 0.209521
0.370617 0.001488 0.223756
0.382716 -0.010361 0.195822
0.377230 -0.000605 0.208004
0.382498 -0.008900 0.214371
0.369986 0.001558 0.231195
0.375258 0.000968 0.248489
0.365721 0.002036 0.256745
0.382446 -0.008549 0.231683
0.382560 -0.009317 0.258083
0.378531 -0.001678 0.242837
0.337884 -0.038415 0.262484
0.337884 -0.044780 0.264492
0.337884 -0.032983 0.280139
0.337950 -0.019225 0.263021
0.337914 -0.024638 0.277037
0.337963 -0.017445 0.294490
0.337884 -0.034075 0.296996
0.337884 -0.042685 0.305530
0.337884 -0.033859 0.313974
0.337980 -0.014812 0.308949
0.337952 -0.019014 0.311680
0.337959 -0.017936 0.318964
0.347844 0.000071 0.270881
0.341424 -0.004021 0.273296
0.343991 -0.002285 0.282533
0.339645 -0.009320 0.279041
0.360751 0.002074 0.265464
0.356884 0.001884 0.271046
0.355110 0.001796 0.287145
0.345267 -0.001504 0.308598
0.339064 -0.011053 0.297961
0.345332 -0.001465 0.314866
0.341453 -0.003934 0.319310
0.355043 0.001793 0.295264
0.359272 0.002001 0.322330
0.357885 0.001933 0.325141
0.383707 -0.041611 0.274129
0.383707 -0.039021 0.292580
0.383707 -0.029256 0.279539
0.383622 -0.025937 0.267721
0.383509 -0.021807 0.287428
0.383485 -0.020945 0.283963
0.383707 -0.045470 0.298990
0.383707 -0.033531 0.327170
0.383707 -0.030729 0.324551
0.383706 -0.028995 0.309623
0.383629 -0.026187 0.320407
0.383305 -0.014367 0.317961
0.364123 0.002215 0.270932
0.372432 0.001284 0.289515
0.383165 -0.013380 0.270028
0.376614 -0.000096 0.268793
0.382586 -0.009488 0.282816
0.379349 -0.002354 0.288389
0.371098 0.001434 0.308433
0.374974 0.001000 0.327926
0.382712 -0.010335 0.296904
0.379017 -0.002080 0.306364
0.382433 -0.008462 0.312784
0.337884 -0.037974 0.335659
0.337884 -0.043557 0.343971
0.337884 -0.041133 0.346771
0.337884 -0.037255 0.357113
0.337912 -0.024943 0.343120
0.337964 -0.017150 0.354525
0.337884 -0.039998 0.364534
0.337884 -0.044237 0.376251
0.337884 -0.029999 0.390718
0.337884 -0.042425 0.381873
0.337919 -0.023825 0.369422
0.337945 -0.020015 0.383695
0.345835 -0.001157 0.328707
0.340864 -0.005690 0.335659
0.338288 -0.013366 0.331335
0.344491 -0.001979 0.355466
0.338531 -0.012642 0.356738
0.352978 0.001692 0.333659
0.362291 0.002149 0.351325
0.349235 0.000922 0.370730
0.340274 -0.007447 0.365244
0.346694 -0.000631 0.379316
0.338211 -0.013594 0.378814
0.356966 0.001888 0.368698
0.357740 0.001926 0.377117
0.353339 0.001709 0.384691
0.383707 -0.038751 0.343002
0.383707 -0.029769 0.329051
0.383707 -0.031927 0.357114
0.383641 -0.026612 0.344103
0.383360 -0.016349 0.332846
0.383591 -0.024801 0.349423
0.383707 -0.038327 0.376953
0.383707 -0.038558 0.362694
0.383707 -0.032232 0.381902
0.383609 -0.025443 0.372024
0.383307 -0.014436 0.373791
0.383328 -0.015199 0.383689
0.367405 0.001848 0.331151
0.373395 0.001177 0.352074
0.382049 -0.005877 0.339745
0.376678 -0.000149 0.327475
0.382795 -0.010892 0.357493
0.375496 0.000827 0.350356
0.364671 0.002154 0.372124
0.370728 0.001475 0.384982
0.382806 -0.010969 0.369148
0.379786 -0.002714 0.373296
0.382522 -0.009062 0.383080
0.377608 -0.000916 0.389496
0.337885 -0.034255 0.410419
0.337914 -0.024930 0.397635
0.337945 -0.021061 0.408260
0.344762 -0.001813 0.402525
0.338205 -0.013615 0.397789
0.342467 -0.002865 0.418530
0.361302 0.002101 0.403983
0.351170 0.001603 0.403756
0.358433 0.001836 0.425481
0.383707 -0.045498 0.397021
0.383707 -0.033461 0.396165
0.384693 -0.040452 0.428080
0.383806 -0.036144 0.412909
0.383604 -0.025331 0.410343
0.384478 -0.019611 0.426510
0.384234 -0.014367 0.424371
0.386019 -0.033865 0.445924
0.385708 -0.024054 0.441865
0.385013 -0.015951 0.434198
0.365902 0.002016 0.396502
0.369379 0.001794 0.414257
0.383208 -0.013673 0.395998
0.377922 -0.001176 0.395789
0.383640 -0.008960 0.426234
0.380157 -0.002956 0.407889
0.370495 0.003784 0.439094
0.384749 -0.007437 0.440872
0.381595 -0.001553 0.430682
