ply
format ascii 1.0
element vertex 1000
property float x
property float y
property float z
end_header
-0.385196 -0.082039 -0.243613
-0.384329 -0.089312 -0.236577
-0.375519 -0.098780 -0.246606
-0.367828 -0.098653 -0.245480
-0.383874 -0.087892 -0.220219
-0.384632 -0.078878 -0.208743
-0.381855 -0.090672 -0.203398
-0.370707 -0.094720 -0.221650
-0.375940 -0.094515 -0.207766
-0.385801 -0.069120 -0.249728
-0.385012 -0.077135 -0.239576
-0.385845 -0.046669 -0.250265
-0.384706 -0.075437 -0.235210
-0.384708 -0.073647 -0.223883
-0.384708 -0.072784 -0.217377
-0.384733 -0.045795 -0.230998
-0.384737 -0.059431 -0.220112
-0.384737 -0.050377 -0.213436
-0.363563 -0.096367 -0.239660
-0.352688 -0.098505 -0.246036
-0.333580 -0.078131 -0.265195
-0.341444 -0.090803 -0.242006
-0.338245 -0.079423 -0.248300
-0.341373 -0.095569 -0.250253
-0.356963 -0.094517 -0.231288
-0.363935 -0.094923 -0.204232
-0.340577 -0.082337 -0.222094
-0.349893 -0.093595 -0.219548
-0.342001 -0.086943 -0.205637
-0.350355 -0.093885 -0.216691
-0.336674 -0.069776 -0.255355
-0.336635 -0.062187 -0.266020
-0.338035 -0.067356 -0.247697
-0.337261 -0.060197 -0.257878
-0.336796 -0.053125 -0.264049
-0.338528 -0.054434 -0.240772
-0.339146 -0.071599 -0.222051
-0.338931 -0.062965 -0.231664
-0.339294 -0.075571 -0.204371
-0.338914 -0.052290 -0.220132
-0.338918 -0.050712 -0.232724
-0.338914 -0.055242 -0.205173
-0.384509 -0.080343 -0.199607
-0.382847 -0.089844 -0.189148
-0.384057 -0.085699 -0.178067
-0.381006 -0.091381 -0.169886
-0.367390 -0.094878 -0.197810
-0.370936 -0.094727 -0.175129
-0.384666 -0.078482 -0.159117
-0.380987 -0.091397 -0.151489
-0.383794 -0.088824 -0.138096
-0.377997 -0.093894 -0.144385
-0.370755 -0.094735 -0.160815
-0.372251 -0.094671 -0.146693
-0.384728 -0.065581 -0.192424
-0.384735 -0.062812 -0.184007
-0.384697 -0.077004 -0.170232
-0.384737 -0.048927 -0.192292
-0.384737 -0.047318 -0.176606
-0.384737 -0.056171 -0.172003
-0.384733 -0.063685 -0.167666
-0.384724 -0.066951 -0.151360
-0.384695 -0.077803 -0.140752
-0.384737 -0.045668 -0.162549
-0.384737 -0.048977 -0.155140
-0.384737 -0.052363 -0.138958
-0.359149 -0.094795 -0.186035
-0.354771 -0.094679 -0.171831
-0.357657 -0.094756 -0.181869
-0.340743 -0.082802 -0.194446
-0.344762 -0.090477 -0.192262
-0.340006 -0.080374 -0.176116
-0.344411 -0.090263 -0.173514
-0.357619 -0.094755 -0.161151
-0.356100 -0.094714 -0.136511
-0.341463 -0.085171 -0.156721
-0.347860 -0.092365 -0.152777
-0.342496 -0.088575 -0.138270
-0.345871 -0.091153 -0.140439
-0.338957 -0.063720 -0.186843
-0.339003 -0.065313 -0.201907
-0.339229 -0.073275 -0.173623
-0.338914 -0.052626 -0.190775
-0.338914 -0.050675 -0.199538
-0.338914 -0.058632 -0.173356
-0.339359 -0.077871 -0.165702
-0.339339 -0.077154 -0.168559
-0.339353 -0.077660 -0.146770
-0.338914 -0.060796 -0.153287
-0.338914 -0.052541 -0.166996
-0.338914 -0.060173 -0.137063
-0.384297 -0.082850 -0.130575
-0.382971 -0.089740 -0.119636
-0.384246 -0.083458 -0.113984
-0.382110 -0.090459 -0.108481
-0.372218 -0.094673 -0.122569
-0.373247 -0.094629 -0.109029
-0.384457 -0.080954 -0.100725
-0.378145 -0.093770 -0.087206
-0.384551 -0.079846 -0.078880
-0.378062 -0.093840 -0.072638
-0.374819 -0.094562 -0.100806
-0.374745 -0.094566 -0.081568
-0.384732 -0.063880 -0.133827
-0.384711 -0.071803 -0.120989
-0.384720 -0.068621 -0.107382
-0.384737 -0.050464 -0.132274
-0.384737 -0.058726 -0.127722
-0.384737 -0.059273 -0.108438
-0.384722 -0.067908 -0.097751
-0.384704 -0.074560 -0.092016
-0.384720 -0.068336 -0.072783
-0.384737 -0.046475 -0.100031
-0.384737 -0.047715 -0.086483
-0.384737 -0.057289 -0.071989
-0.362722 -0.094890 -0.129722
-0.359763 -0.094812 -0.112791
-0.357257 -0.094745 -0.117698
-0.340520 -0.082067 -0.129702
-0.349878 -0.093594 -0.133624
-0.340834 -0.083102 -0.114742
-0.345055 -0.090655 -0.113634
-0.354159 -0.094662 -0.102198
-0.364778 -0.094945 -0.070991
-0.341419 -0.085029 -0.096070
-0.346315 -0.091423 -0.091931
-0.342377 -0.088183 -0.074103
-0.347243 -0.091988 -0.076574
-0.339319 -0.076469 -0.125891
-0.339106 -0.068960 -0.129181
-0.339056 -0.067174 -0.104911
-0.338914 -0.058241 -0.128475
-0.338914 -0.051894 -0.133187
-0.338914 -0.046628 -0.103018
-0.339302 -0.075844 -0.087681
-0.338968 -0.064089 -0.095854
-0.339283 -0.075195 -0.074436
-0.338914 -0.060183 -0.088467
-0.338914 -0.047432 -0.092741
-0.338914 -0.057750 -0.080580
-0.338914 -0.046925 -0.085002
-0.384071 -0.085537 -0.053338
-0.384667 -0.078460 -0.050688
-0.379976 -0.092241 -0.034422
-0.372670 -0.094654 -0.053993
-0.375312 -0.094541 -0.043235
-0.384562 -0.079715 -0.027752
-0.381705 -0.090797 -0.023170
-0.384549 -0.079870 -0.012902
-0.383119 -0.089616 -0.010151
-0.369741 -0.094778 -0.023990
-0.372868 -0.094645 -0.013217
-0.384720 -0.068339 -0.064708
-0.384697 -0.077195 -0.056722
-0.384702 -0.075192 -0.039262
-0.384737 -0.051388 -0.065714
-0.384737 -0.054443 -0.058321
-0.384737 -0.061051 -0.038247
-0.384728 -0.065584 -0.032357
-0.384717 -0.069444 -0.025462
-0.384712 -0.071355 -0.006411
-0.384737 -0.055774 -0.031464
-0.384737 -0.057952 -0.021174
-0.384737 -0.052031 -0.013291
-0.361536 -0.094859 -0.055620
-0.358307 -0.094773 -0.065383
-0.357357 -0.094748 -0.052951
-0.341241 -0.084443 -0.063913
-0.350420 -0.093925 -0.069006
-0.340345 -0.081490 -0.048535
-0.345062 -0.090659 -0.050856
-0.353194 -0.094637 -0.021239
-0.362164 -0.094876 -0.014482
-0.341254 -0.084485 -0.021927
-0.339609 -0.079067 -0.033572
-0.342986 -0.089394 -0.026567
-0.340433 -0.081780 -0.014146
-0.345969 -0.091212 -0.014770
-0.338918 -0.062330 -0.053340
-0.339340 -0.077181 -0.036637
-0.338956 -0.063660 -0.042013
-0.338914 -0.054731 -0.066781
-0.338914 -0.060794 -0.045515
-0.338914 -0.048030 -0.045909
-0.339205 -0.072448 -0.036202
-0.339225 -0.073153 -0.014266
-0.339195 -0.072072 -0.016209
-0.338914 -0.055235 -0.032570
-0.338914 -0.057231 -0.010979
-0.338914 -0.045639 -0.015062
-0.384141 -0.084699 0.012491
-0.384261 -0.083278 0.022771
-0.384117 -0.084993 0.028890
-0.373862 -0.094603 0.009331
-0.374127 -0.094592 0.020716
-0.384667 -0.078467 0.035947
-0.384512 -0.080300 0.044770
-0.384569 -0.079633 0.047146
-0.380854 -0.091508 0.063203
-0.375110 -0.094550 0.043431
-0.376820 -0.094477 0.048310
-0.384707 -0.073301 -0.002249
-0.384708 -0.072959 0.012190
-0.384727 -0.065881 0.016050
-0.384737 -0.045693 0.006678
-0.384737 -0.057013 0.004989
-0.384737 -0.047792 0.020597
-0.384735 -0.063018 0.043661
-0.384713 -0.071131 0.038709
-0.384719 -0.068979 0.050186
-0.384737 -0.046116 0.035185
-0.384737 -0.059122 0.044670
-0.384737 -0.049470 0.057860
-0.357307 -0.094746 0.012016
-0.360351 -0.094827 0.001613
-0.362858 -0.094894 0.013291
-0.340590 -0.082296 0.008966
-0.349268 -0.093223 0.002507
-0.342514 -0.088635 0.024743
-0.350604 -0.094037 0.028532
-0.362714 -0.094890 0.043168
-0.362294 -0.094879 0.051231
-0.360304 -0.094826 0.047177
-0.339400 -0.078379 0.045979
-0.347448 -0.092113 0.031788
-0.340347 -0.081495 0.055412
-0.347323 -0.092038 0.051948
-0.338982 -0.064587 -0.000030
-0.339282 -0.075159 0.022340
-0.338938 -0.063024 0.024877
-0.338914 -0.047343 0.005248
-0.338914 -0.059152 0.019938
-0.338914 -0.047299 0.019863
-0.339234 -0.073466 0.033331
-0.339312 -0.076190 0.061685
-0.338944 -0.063261 0.052524
-0.338914 -0.046983 0.032178
-0.338914 -0.057796 0.053252
-0.338914 -0.054751 0.052061
-0.384441 -0.081143 0.077956
-0.379155 -0.092927 0.066086
-0.383804 -0.088697 0.092625
-0.365565 -0.094955 0.079445
-0.370798 -0.094733 0.070531
-0.375011 -0.094554 0.079907
-0.384270 -0.083173 0.109874
-0.384108 -0.085095 0.116347
-0.380276 -0.091991 0.130073
-0.376257 -0.094501 0.110753
-0.372322 -0.094668 0.120521
-0.384730 -0.064846 0.070925
-0.384720 -0.068368 0.076668
-0.384728 -0.065637 0.079983
-0.384737 -0.047412 0.067587
-0.384737 -0.054318 0.071786
-0.384737 -0.051186 0.088489
-0.384724 -0.066859 0.096168
-0.384727 -0.065769 0.109640
-0.384731 -0.064388 0.121606
-0.384737 -0.045933 0.098452
-0.384737 -0.061196 0.110241
-0.384737 -0.049545 0.118692
-0.384737 -0.061917 0.119789
-0.353196 -0.094637 0.075178
-0.355776 -0.094705 0.080326
-0.340280 -0.080315 0.078538
-0.345712 -0.090988 0.076021
-0.341585 -0.084551 0.086841
-0.347119 -0.091806 0.088391
-0.361031 -0.094845 0.107162
-0.357679 -0.094756 0.124277
-0.361554 -0.094859 0.113285
-0.340740 -0.081063 0.102920
-0.346613 -0.091485 0.102020
-0.340277 -0.079166 0.115597
-0.350118 -0.093706 0.114413
-0.339155 -0.070455 0.063570
-0.339709 -0.075304 0.091447
-0.339511 -0.072085 0.084184
-0.338914 -0.047409 0.077689
-0.339128 -0.052078 0.094309
-0.339077 -0.053844 0.087530
-0.339494 -0.063051 0.106780
-0.339766 -0.068767 0.127317
-0.339585 -0.062421 0.128117
-0.339237 -0.052718 0.104595
-0.339572 -0.061849 0.122194
-0.339401 -0.053313 0.116921
-0.383901 -0.087546 0.137340
-0.377557 -0.094262 0.143094
-0.383911 -0.087433 0.158683
-0.374621 -0.094571 0.136264
-0.368634 -0.094825 0.135608
-0.369598 -0.094784 0.153948
-0.383963 -0.086818 0.175682
-0.384148 -0.084625 0.183349
-0.379691 -0.092479 0.197338
-0.376934 -0.094473 0.178353
-0.371836 -0.094689 0.188379
-0.384716 -0.069902 0.132532
-0.384700 -0.075869 0.139736
-0.384729 -0.065160 0.148071
-0.384737 -0.047989 0.131382
-0.384737 -0.060799 0.133741
-0.384737 -0.048922 0.155905
-0.384726 -0.066350 0.173792
-0.384706 -0.073859 0.177145
-0.384716 -0.070063 0.184971
-0.384737 -0.056194 0.167693
-0.384737 -0.062057 0.163826
-0.384737 -0.054119 0.184525
-0.384737 -0.059076 0.193318
-0.358602 -0.094781 0.136382
-0.358466 -0.094777 0.153112
-0.342789 -0.088354 0.130588
-0.351179 -0.094379 0.142443
-0.341686 -0.084317 0.158734
-0.350154 -0.093729 0.153409
-0.354993 -0.094685 0.175920
-0.359444 -0.094803 0.187823
-0.356614 -0.094728 0.186720
-0.340401 -0.079619 0.172216
-0.348439 -0.092642 0.168040
-0.340362 -0.079527 0.180424
-0.343178 -0.089307 0.193950
-0.339744 -0.068000 0.136281
-0.340024 -0.077828 0.154079
-0.339736 -0.067726 0.150707
-0.339514 -0.058947 0.130196
-0.339495 -0.058035 0.162359
-0.339263 -0.046394 0.148692
-0.339721 -0.067205 0.166922
-0.339747 -0.071430 0.188470
-0.339603 -0.064494 0.183081
-0.339399 -0.053199 0.169116
-0.339353 -0.055655 0.195054
-0.339301 -0.048287 0.181006
-0.384464 -0.080873 0.212339
-0.379972 -0.092244 0.205265
-0.384075 -0.085491 0.227553
-0.374960 -0.094556 0.207204
-0.373192 -0.094631 0.226829
-0.368213 -0.094843 0.219716
-0.384344 -0.082298 0.245099
-0.384453 -0.081002 0.248380
-0.381048 -0.091346 0.257469
-0.375050 -0.094553 0.234639
-0.375571 -0.094530 0.258261
-0.384713 -0.071130 0.201898
-0.384719 -0.068998 0.207282
-0.384735 -0.063052 0.215815
-0.384737 -0.056453 0.199634
-0.384737 -0.061049 0.203860
-0.384737 -0.057494 0.214853
-0.384715 -0.070539 0.234248
-0.384714 -0.070805 0.242650
-0.384716 -0.070129 0.251470
-0.384737 -0.047288 0.240563
-0.384737 -0.058499 0.236511
-0.384737 -0.053427 0.249034
-0.358389 -0.094775 0.206257
-0.352909 -0.094629 0.200839
-0.354555 -0.094673 0.224585
-0.342589 -0.087780 0.205852
-0.348364 -0.092594 0.206183
-0.342782 -0.088415 0.214593
-0.349996 -0.093629 0.218956
-0.365172 -0.094956 0.238877
-0.365252 -0.094958 0.258717
-0.362827 -0.094893 0.245952
-0.341426 -0.083956 0.235385
-0.345199 -0.090588 0.237987
-0.339812 -0.078647 0.245974
-0.346624 -0.091491 0.254059
-0.339595 -0.068617 0.203629
-0.339681 -0.077497 0.221598
-0.339524 -0.071740 0.218325
-0.339238 -0.047113 0.197963
-0.339250 -0.056909 0.217876
-0.339187 -0.052884 0.216143
-0.339374 -0.066690 0.229709
-0.339404 -0.067736 0.258635
-0.339263 -0.062756 0.255996
-0.338976 -0.048694 0.237137
-0.339239 -0.061804 0.250786
-0.338987 -0.049233 0.254989
-0.383865 -0.087977 0.282145
-0.380680 -0.091654 0.270266
-0.383777 -0.089026 0.289868
-0.371280 -0.094713 0.277140
-0.374027 -0.094596 0.292832
-0.368004 -0.094852 0.279872
-0.384290 -0.082933 0.310508
-0.384393 -0.081718 0.317796
-0.382021 -0.090533 0.324379
-0.375526 -0.094532 0.310489
-0.370280 -0.094755 0.324215
-0.384726 -0.066206 0.273834
-0.384704 -0.074450 0.266421
-0.384728 -0.065389 0.279586
-0.384737 -0.050954 0.262054
-0.384737 -0.056066 0.275388
-0.384737 -0.049581 0.282748
-0.384735 -0.063065 0.304304
-0.384698 -0.076493 0.297636
-0.384730 -0.064806 0.315340
-0.384737 -0.046618 0.303359
-0.384737 -0.058140 0.306106
-0.384737 -0.053599 0.318228
-0.384737 -0.060619 0.319694
-0.357528 -0.094752 0.269134
-0.356116 -0.094715 0.278646
-0.340008 -0.079294 0.277573
-0.349851 -0.093537 0.269740
-0.342723 -0.088221 0.293251
-0.350612 -0.094019 0.291104
-0.356447 -0.094723 0.311318
-0.363278 -0.094905 0.316917
-0.358963 -0.094790 0.313453
-0.340061 -0.079468 0.301533
-0.345030 -0.090480 0.306370
-0.340930 -0.082585 0.319636
-0.348733 -0.092853 0.315635
-0.339427 -0.068528 0.263631
-0.339351 -0.065875 0.294439
-0.339306 -0.064269 0.287358
-0.339067 -0.053247 0.264333
-0.339173 -0.058522 0.283905
-0.339064 -0.053062 0.280459
-0.339257 -0.062548 0.303509
-0.339567 -0.077337 0.323642
-0.339273 -0.063117 0.312696
-0.338961 -0.047919 0.302728
-0.339062 -0.052965 0.325408
-0.338915 -0.045629 0.320838
-0.383866 -0.087963 0.344937
-0.378649 -0.093349 0.338667
-0.384334 -0.082414 0.358920
-0.377101 -0.094465 0.337832
-0.366659 -0.094909 0.329950
-0.372165 -0.094675 0.347843
-0.384139 -0.084725 0.379768
-0.384393 -0.081715 0.388473
-0.383436 -0.089351 0.393069
-0.376691 -0.094483 0.373258
-0.372696 -0.094653 0.385859
-0.384729 -0.065339 0.330849
-0.384695 -0.077682 0.331002
-0.384725 -0.066478 0.353183
-0.384737 -0.046732 0.335825
-0.384737 -0.053568 0.343313
-0.384737 -0.050812 0.349489
-0.384720 -0.068327 0.366103
-0.384697 -0.077156 0.374511
-0.384737 -0.062284 0.379047
-0.384737 -0.058115 0.361634
-0.384737 -0.057523 0.372160
-0.384737 -0.055856 0.379642
-0.384737 -0.055953 0.384903
-0.353819 -0.094653 0.334842
-0.352171 -0.094609 0.358497
-0.340181 -0.080455 0.343310
-0.349451 -0.093334 0.334407
-0.342630 -0.089016 0.348641
-0.351484 -0.094573 0.346335
-0.365353 -0.094960 0.368161
-0.365112 -0.094954 0.382122
-0.360183 -0.094823 0.378475
-0.340825 -0.083069 0.362303
-0.343280 -0.089573 0.376150
-0.341567 -0.085517 0.379263
-0.344427 -0.090272 0.381700
-0.339495 -0.076802 0.334452
-0.339299 -0.072220 0.351509
-0.339230 -0.068012 0.346484
-0.339045 -0.057827 0.344060
-0.338920 -0.050045 0.360944
-0.338937 -0.047887 0.357155
-0.339130 -0.069805 0.372101
-0.339286 -0.075275 0.386886
-0.339001 -0.065264 0.383376
-0.338914 -0.051100 0.378069
-0.338914 -0.057089 0.384846
-0.338914 -0.055331 0.381051
-0.384138 -0.084693 0.409540
-0.379079 -0.092990 0.407725
-0.385064 -0.082672 0.424904
-0.379574 -0.092565 0.415923
-0.372312 -0.094669 0.395828
-0.374569 -0.094570 0.411706
-0.384714 -0.070610 0.400127
-0.385373 -0.068979 0.420998
-0.385443 -0.069563 0.422072
-0.384735 -0.045822 0.407882
-0.384737 -0.061197 0.396225
-0.385397 -0.054198 0.421080
-0.360760 -0.094839 0.409215
-0.357650 -0.094755 0.395314
-0.356847 -0.094889 0.419334
-0.341623 -0.085701 0.396542
-0.343853 -0.089923 0.396542
-0.339042 -0.080440 0.428455
-0.348009 -0.092989 0.422974
-0.339219 -0.072913 0.405159
-0.338983 -0.064595 0.403938
-0.338534 -0.071772 0.422441
-0.338914 -0.059998 0.398465
-0.338914 -0.053334 0.400676
-0.337845 -0.049715 0.429494
-0.338365 -0.045821 0.420605
-0.385080 -0.040033 -0.240182
-0.385490 -0.014552 -0.246297
-0.385703 -0.028497 -0.248412
-0.384735 -0.034677 -0.224074
-0.384737 -0.043168 -0.216848
-0.384737 -0.038386 -0.209366
-0.384728 -0.026928 -0.224884
-0.384706 -0.020551 -0.209831
-0.382563 -0.000010 -0.244793
-0.385867 -0.013821 -0.252009
-0.378479 -0.000530 -0.234779
-0.384084 -0.010272 -0.224568
-0.381905 -0.003331 -0.202480
-0.384179 -0.010903 -0.210683
-0.374000 0.001199 -0.227914
-0.367222 0.001997 -0.204195
-0.337369 -0.030868 -0.256034
-0.337967 -0.045589 -0.248141
-0.337952 -0.031036 -0.248338
-0.338359 -0.021479 -0.243674
-0.337931 -0.021181 -0.249207
-0.338916 -0.043171 -0.226914
-0.338914 -0.041324 -0.203893
-0.338914 -0.034081 -0.207700
-0.338951 -0.023919 -0.220741
-0.338958 -0.022857 -0.206136
-0.338953 -0.023585 -0.212983
-0.358820 0.001843 -0.229537
-0.358772 0.001924 -0.212771
-0.354318 0.001708 -0.205199
-0.341624 -0.006600 -0.233520
-0.346325 -0.001566 -0.228316
-0.341376 -0.007290 -0.215571
-0.349498 0.000410 -0.215563
-0.384737 -0.043257 -0.187097
-0.384737 -0.038626 -0.184097
-0.384737 -0.032783 -0.170964
-0.384690 -0.016091 -0.185982
-0.384706 -0.020331 -0.176878
-0.384737 -0.034694 -0.159093
-0.384737 -0.043844 -0.158595
-0.384737 -0.033861 -0.143526
-0.384737 -0.042269 -0.146321
-0.384696 -0.017632 -0.152856
-0.384709 -0.021389 -0.147714
-0.379383 -0.001225 -0.194556
-0.383842 -0.008606 -0.187974
-0.380178 -0.001888 -0.169777
-0.384303 -0.011751 -0.177517
-0.373668 0.001277 -0.190858
-0.376170 0.000997 -0.177664
-0.379745 -0.001527 -0.153367
-0.384616 -0.013889 -0.155189
-0.384328 -0.011923 -0.150977
-0.369345 0.001760 -0.169242
-0.365503 0.002189 -0.147802
-0.338914 -0.040568 -0.187420
-0.338914 -0.033516 -0.195378
-0.338914 -0.043534 -0.180365
-0.338914 -0.034415 -0.182853
-0.339008 -0.015856 -0.198356
-0.338972 -0.020935 -0.169887
-0.338914 -0.040592 -0.156385
-0.338914 -0.033711 -0.162054
-0.338914 -0.036661 -0.140352
-0.338925 -0.027540 -0.166296
-0.338973 -0.020756 -0.168732
-0.338997 -0.017401 -0.141226
-0.353767 0.001681 -0.199047
-0.352234 0.001607 -0.182915
-0.356803 0.001829 -0.173205
-0.342163 -0.004963 -0.204366
-0.351171 0.001424 -0.199800
-0.340670 -0.009380 -0.181128
-0.347669 -0.000701 -0.179682
-0.356633 0.001820 -0.157108
-0.355669 0.001774 -0.149974
-0.339031 -0.014227 -0.165750
-0.348163 -0.000401 -0.165270
-0.339141 -0.013902 -0.136997
-0.342596 -0.003779 -0.157679
-0.384737 -0.038298 -0.134717
-0.384737 -0.037794 -0.121319
-0.384737 -0.044759 -0.103526
-0.384688 -0.015458 -0.131508
-0.384706 -0.020387 -0.121127
-0.384712 -0.022228 -0.105247
-0.384737 -0.039463 -0.100211
-0.384737 -0.031688 -0.082313
-0.384737 -0.042158 -0.071083
-0.384706 -0.020476 -0.099269
-0.384695 -0.017323 -0.074248
-0.384736 -0.028694 -0.080851
-0.377920 -0.000002 -0.120905
-0.378075 -0.000132 -0.109927
-0.384013 -0.009773 -0.114224
-0.368820 0.001819 -0.131038
-0.366166 0.002115 -0.114072
-0.379221 -0.001089 -0.095639
-0.383585 -0.006847 -0.097888
-0.378318 -0.000335 -0.070633
-0.384479 -0.012957 -0.075599
-0.375303 0.001094 -0.086571
-0.372615 0.001395 -0.075313
-0.338914 -0.044517 -0.130067
-0.338914 -0.041400 -0.104376
-0.338914 -0.029966 -0.114650
-0.338968 -0.021425 -0.126821
-0.338993 -0.017895 -0.104621
-0.338955 -0.023293 -0.118607
-0.338914 -0.040308 -0.089418
-0.338914 -0.042858 -0.071910
-0.338914 -0.029345 -0.081260
-0.338965 -0.021901 -0.093590
-0.338943 -0.024908 -0.078360
-0.338982 -0.019497 -0.078643
-0.357318 0.001854 -0.124433
-0.352991 0.001644 -0.105192
-0.339936 -0.011552 -0.121315
-0.345437 -0.002055 -0.135479
-0.340424 -0.010109 -0.113168
-0.343581 -0.003181 -0.118203
-0.351839 0.001588 -0.097224
-0.362955 0.002127 -0.084743
-0.363082 0.002133 -0.081437
-0.341450 -0.007073 -0.101725
-0.350939 0.001284 -0.102045
-0.341919 -0.005687 -0.087413
-0.343945 -0.002960 -0.076499
-0.384737 -0.031058 -0.054618
-0.384737 -0.039893 -0.047490
-0.384737 -0.042226 -0.048782
-0.384725 -0.025614 -0.058348
-0.384693 -0.016967 -0.041414
-0.384737 -0.037198 -0.029213
-0.384737 -0.033610 -0.022579
-0.384737 -0.038792 -0.013624
-0.384737 -0.038599 -0.010193
-0.384692 -0.016452 -0.022338
-0.384686 -0.014967 -0.017546
-0.377650 0.000223 -0.059419
-0.384106 -0.010409 -0.061678
-0.380494 -0.002152 -0.045734
-0.384615 -0.013885 -0.040442
-0.375216 0.001104 -0.056069
-0.372079 0.001455 -0.040600
-0.381099 -0.002658 -0.030254
-0.384050 -0.010024 -0.028522
-0.383338 -0.005161 -0.019113
-0.365168 0.002227 -0.032612
-0.369030 0.001795 -0.017527
-0.338914 -0.044806 -0.057080
-0.338914 -0.030737 -0.064711
-0.338914 -0.039549 -0.037785
-0.338914 -0.029450 -0.042542
-0.338969 -0.021333 -0.068119
-0.338927 -0.027158 -0.039424
-0.338914 -0.044747 -0.023377
-0.338914 -0.037354 -0.034531
-0.338914 -0.037493 -0.006268
-0.338929 -0.026968 -0.021895
-0.339014 -0.014957 -0.025416
-0.339009 -0.015631 -0.018457
-0.357610 0.001868 -0.066306
-0.355569 0.001769 -0.049479
-0.358748 0.001923 -0.044043
-0.340776 -0.009067 -0.066785
-0.343218 -0.003402 -0.058925
-0.342406 -0.004248 -0.057614
-0.350282 0.000885 -0.041052
-0.358965 0.001933 -0.022828
-0.352802 0.001635 -0.007607
-0.340475 -0.009957 -0.023566
-0.343826 -0.003033 -0.033478
-0.340151 -0.010915 -0.010135
-0.346605 -0.001346 -0.020593
-0.384737 -0.037629 0.002806
-0.384737 -0.044155 0.001051
-0.384737 -0.043529 0.019858
-0.384712 -0.022091 0.002387
-0.384695 -0.017448 0.012148
-0.384701 -0.018926 0.025503
-0.384737 -0.036146 0.034777
-0.384737 -0.032805 0.054151
-0.384737 -0.044940 0.062304
-0.384719 -0.024014 0.033414
-0.384687 -0.015080 0.058693
-0.384734 -0.028257 0.060928
-0.381603 -0.003079 0.002585
-0.379139 -0.001021 0.023355
-0.383259 -0.004624 0.013536
-0.367157 0.002005 0.000961
-0.367996 0.001911 0.016537
-0.378304 -0.000323 0.037471
-0.383611 -0.007030 0.041117
-0.382806 -0.004083 0.058923
-0.383541 -0.006547 0.062647
-0.376197 0.000994 0.045903
-0.366572 0.002070 0.060918
-0.338914 -0.044152 -0.001372
-0.338914 -0.040302 0.023115
-0.338914 -0.030571 0.014567
-0.338928 -0.027126 0.006122
-0.338921 -0.028116 0.021389
-0.338980 -0.019744 0.017933
-0.338914 -0.038734 0.041729
-0.338914 -0.045374 0.058761
-0.338914 -0.030566 0.060462
-0.338987 -0.018712 0.041887
-0.339005 -0.016184 0.062753
-0.338997 -0.017382 0.049029
-0.363900 0.002173 0.001870
-0.361534 0.002058 0.025472
-0.341776 -0.006111 0.008252
-0.349806 0.000596 -0.001831
-0.341008 -0.008382 0.022960
-0.345426 -0.002062 0.018534
-0.353548 0.001671 0.029922
-0.357381 0.001857 0.055205
-0.365121 0.002232 0.058954
-0.341439 -0.007108 0.030661
-0.350501 0.001018 0.035705
-0.341370 -0.007311 0.047926
-0.346678 -0.001302 0.055540
-0.384737 -0.044494 0.065150
-0.384737 -0.032449 0.092096
-0.384737 -0.042749 0.089107
-0.384731 -0.027270 0.070140
-0.384699 -0.018464 0.084147
-0.384737 -0.030921 0.096226
-0.384737 -0.034299 0.111100
-0.384737 -0.031821 0.117453
-0.384737 -0.035356 0.126069
-0.384717 -0.023549 0.106730
-0.384696 -0.017751 0.124632
-0.377033 0.000738 0.077208
-0.383819 -0.008445 0.073063
-0.381564 -0.003046 0.092827
-0.383893 -0.008953 0.089379
-0.372807 0.001373 0.070320
-0.369395 0.001754 0.094627
-0.380204 -0.001910 0.110166
-0.384192 -0.010996 0.104039
-0.383559 -0.006673 0.119762
-0.366134 0.002119 0.102946
-0.372307 0.001429 0.117787
-0.338914 -0.034663 0.076474
-0.338914 -0.029708 0.066985
-0.338944 -0.040429 0.087677
-0.338914 -0.033157 0.085164
-0.338999 -0.017086 0.074201
-0.338923 -0.027793 0.082389
-0.339023 -0.038336 0.104964
-0.338922 -0.029853 0.101804
-0.339025 -0.034581 0.127792
-0.338971 -0.021089 0.107768
-0.338993 -0.017884 0.098506
-0.338986 -0.018851 0.121874
-0.358104 0.001892 0.068453
-0.353824 0.001684 0.087578
-0.360514 0.002009 0.091986
-0.341759 -0.006161 0.061542
-0.348994 0.000104 0.076980
-0.340680 -0.009350 0.084562
-0.346002 -0.001712 0.090998
-0.359715 0.001970 0.108155
-0.356382 0.001808 0.113121
-0.340565 -0.009692 0.109081
-0.342682 -0.003727 0.091645
-0.339864 -0.011764 0.116202
-0.343223 -0.003399 0.116639
-0.384737 -0.032377 0.139231
-0.384737 -0.039891 0.135582
-0.384737 -0.038868 0.161813
-0.384698 -0.018114 0.139796
-0.384708 -0.020869 0.140995
-0.384719 -0.023996 0.155107
-0.384737 -0.034646 0.166907
-0.384737 -0.029792 0.184794
-0.384737 -0.042795 0.186989
-0.384694 -0.017058 0.175838
-0.384697 -0.017899 0.188391
-0.384735 -0.028556 0.179718
-0.383231 -0.004438 0.141924
-0.381047 -0.002614 0.147839
-0.383985 -0.009581 0.151975
-0.365856 0.002150 0.130915
-0.369414 0.001752 0.149660
-0.378742 -0.000689 0.165464
-0.384353 -0.012093 0.163721
-0.381660 -0.003126 0.194237
-0.383696 -0.007607 0.190769
-0.376391 0.000973 0.168034
-0.370743 0.001604 0.193910
-0.339186 -0.042564 0.135461
-0.339222 -0.044386 0.157905
-0.339060 -0.036316 0.145947
-0.338918 -0.028438 0.131898
-0.338934 -0.026274 0.150563
-0.338965 -0.021829 0.146268
-0.339203 -0.043430 0.168226
-0.339124 -0.039485 0.190383
-0.339131 -0.039835 0.184236
-0.338916 -0.028800 0.163078
-0.338965 -0.021846 0.190103
-0.338977 -0.020172 0.183824
-0.364080 0.002182 0.138639
-0.352119 0.001602 0.155811
-0.339743 -0.012121 0.140450
-0.343078 -0.003486 0.127989
-0.339393 -0.013157 0.148920
-0.344346 -0.002717 0.144089
-0.353897 0.001688 0.169947
-0.352340 0.001612 0.188075
-0.357740 0.001874 0.189652
-0.339805 -0.011938 0.164760
-0.350303 0.000898 0.172837
-0.341057 -0.008236 0.184906
-0.350826 0.001215 0.184745
-0.384737 -0.030122 0.212061
-0.384737 -0.034913 0.220032
-0.384737 -0.039056 0.222687
-0.384710 -0.021467 0.206963
-0.384692 -0.016643 0.220109
-0.384737 -0.038515 0.235072
-0.384737 -0.036461 0.239620
-0.384737 -0.042879 0.246542
-0.384737 -0.037790 0.255085
-0.384687 -0.015129 0.244773
-0.384694 -0.017016 0.253963
-0.382310 -0.003669 0.196434
-0.384359 -0.012137 0.196782
-0.379531 -0.001348 0.223042
-0.384324 -0.011893 0.220770
-0.375024 0.001125 0.210488
-0.374197 0.001218 0.224681
-0.381149 -0.002699 0.234848
-0.383950 -0.009344 0.244389
-0.383304 -0.004933 0.247577
-0.373020 0.001349 0.229606
-0.372669 0.001389 0.248506
-0.339087 -0.045048 0.210974
-0.338931 -0.029882 0.197275
-0.338928 -0.040304 0.227378
-0.339019 -0.039468 0.215242
-0.339001 -0.016846 0.200329
-0.338954 -0.023430 0.226948
-0.338914 -0.041822 0.243689
-0.338914 -0.029461 0.243669
-0.338914 -0.042669 0.248485
-0.338919 -0.028315 0.243837
-0.338939 -0.025469 0.231719
-0.338928 -0.027133 0.247499
-0.353021 0.001645 0.204489
-0.351887 0.001590 0.225614
-0.360082 0.001988 0.225515
-0.341570 -0.006720 0.203397
-0.344077 -0.002880 0.206000
-0.340567 -0.009684 0.209846
-0.346859 -0.001192 0.222985
-0.353089 0.001649 0.244570
-0.358688 0.001920 0.251331
-0.341215 -0.007769 0.237265
-0.349557 0.000445 0.230272
-0.339806 -0.011935 0.248531
-0.342568 -0.003796 0.243030
-0.384737 -0.030066 0.276103
-0.384737 -0.042679 0.268211
-0.384737 -0.032202 0.292489
-0.384685 -0.014619 0.264689
-0.384695 -0.017515 0.276304
-0.384692 -0.016662 0.293288
-0.384737 -0.043038 0.296980
-0.384737 -0.033985 0.313718
-0.384737 -0.041005 0.319602
-0.384715 -0.022968 0.296432
-0.384695 -0.017312 0.314941
-0.384717 -0.023631 0.327577
-0.379791 -0.001565 0.276131
-0.377056 0.000719 0.288397
-0.383943 -0.009296 0.286330
-0.370985 0.001577 0.268153
-0.366403 0.002089 0.284059
-0.377790 0.000106 0.296289
-0.384203 -0.011068 0.297050
-0.380772 -0.002385 0.327935
-0.384191 -0.010987 0.328026
-0.371473 0.001522 0.304778
-0.371926 0.001472 0.324286
-0.338914 -0.042000 0.269973
-0.338914 -0.030206 0.270669
-0.338914 -0.032484 0.283908
-0.338992 -0.018038 0.278473
-0.338934 -0.026179 0.282420
-0.338971 -0.021006 0.282504
-0.338914 -0.044894 0.297367
-0.338914 -0.040946 0.316940
-0.338914 -0.036148 0.320932
-0.338955 -0.023222 0.310598
-0.338918 -0.028522 0.313543
-0.338969 -0.021231 0.318952
-0.362944 0.002126 0.275016
-0.354320 0.001708 0.289095
-0.341100 -0.008110 0.269973
-0.347019 -0.001095 0.264680
-0.341579 -0.006693 0.287327
-0.348924 0.000061 0.277626
-0.354020 0.001694 0.296048
-0.361854 0.002074 0.313841
-0.360565 0.002011 0.321910
-0.340543 -0.009757 0.297465
-0.348114 -0.000431 0.308842
-0.340766 -0.009097 0.316638
-0.347532 -0.000783 0.324143
-0.384737 -0.037132 0.344045
-0.384737 -0.037832 0.346482
-0.384737 -0.037088 0.359295
-0.384699 -0.018568 0.344062
-0.384715 -0.022935 0.348623
-0.384737 -0.032600 0.370244
-0.384737 -0.044384 0.364887
-0.384737 -0.036079 0.379097
-0.384737 -0.036050 0.393975
-0.384713 -0.022346 0.370002
-0.384690 -0.016092 0.391938
-0.379089 -0.000979 0.336243
-0.383349 -0.005240 0.334364
-0.380127 -0.001846 0.357137
-0.384066 -0.010136 0.356179
-0.374267 0.001210 0.332200
-0.375912 0.001026 0.354357
-0.378064 -0.000123 0.377961
-0.384053 -0.010045 0.375318
-0.383673 -0.007447 0.381165
-0.369455 0.001748 0.365900
-0.367601 0.001955 0.381354
-0.338914 -0.043187 0.331740
-0.338914 -0.033731 0.335267
-0.338914 -0.033744 0.357384
-0.338914 -0.044137 0.346132
-0.339000 -0.016947 0.335020
-0.338958 -0.022863 0.357921
-0.338914 -0.038565 0.370779
-0.338914 -0.035712 0.364087
-0.338914 -0.039273 0.391606
-0.338972 -0.020870 0.377137
-0.338993 -0.017857 0.364636
-0.338950 -0.024034 0.378950
-0.357967 0.001885 0.331466
-0.359975 0.001982 0.346562
-0.352410 0.001616 0.361057
-0.342517 -0.003918 0.332403
-0.344613 -0.002555 0.339473
-0.342234 -0.004757 0.348604
-0.347725 -0.000667 0.353005
-0.353647 0.001676 0.376060
-0.361595 0.002061 0.379689
-0.341053 -0.008248 0.369498
-0.348138 -0.000416 0.360225
-0.341784 -0.006087 0.389443
-0.344682 -0.002513 0.384535
-0.384737 -0.032524 0.398081
-0.384736 -0.041962 0.399365
-0.385276 -0.034563 0.419271
-0.384702 -0.019763 0.395824
-0.384735 -0.028907 0.402210
-0.384863 -0.026118 0.413289
-0.377207 0.000591 0.407899
-0.384317 -0.011865 0.397567
-0.379696 -0.001102 0.426234
-0.385281 -0.012024 0.425040
-0.370214 0.001663 0.410444
-0.368905 0.001790 0.413390
-0.370574 0.001738 0.429904
-0.338915 -0.039059 0.410667
-0.338915 -0.032025 0.407524
-0.338520 -0.043636 0.417952
-0.338337 -0.029070 0.421085
-0.339013 -0.015132 0.401117
-0.338327 -0.024307 0.421593
-0.338661 -0.014193 0.417080
-0.364584 0.002206 0.403868
-0.359929 0.002256 0.423681
-0.342172 -0.004939 0.405584
-0.344906 -0.002377 0.395020
-0.341436 -0.004633 0.422352
-0.343631 -0.002642 0.413311
-0.350541 0.003818 0.437107
-0.341130 -0.004944 0.424753
-0.344382 0.000226 0.434812
