ply
format ascii 1.0
element vertex 1000
property float x
property float y
property float z
end_header
0.347243 -0.414694 -0.242445
0.346641 -0.411742 -0.241309
0.351286 -0.417084 -0.232913
0.356492 -0.422589 -0.234134
0.358581 -0.429553 -0.249403
0.354948 -0.425711 -0.243576
0.348610 -0.411316 -0.227825
0.352467 -0.418469 -0.222790
0.361142 -0.424341 -0.218639
0.357977 -0.422525 -0.232048
0.350183 -0.414356 -0.216351
0.352499 -0.418611 -0.208821
0.355220 -0.421163 -0.206584
0.361764 -0.424675 -0.216592
0.346645 -0.409010 -0.239260
0.347814 -0.405096 -0.230602
0.347910 -0.398027 -0.232207
0.347790 -0.401312 -0.222300
0.347738 -0.403942 -0.213471
0.347696 -0.407899 -0.217427
0.347713 -0.406279 -0.207414
0.348345 -0.392491 -0.232911
0.349453 -0.385934 -0.221604
0.348426 -0.391662 -0.224618
0.349645 -0.384770 -0.206848
0.348717 -0.389814 -0.207390
0.369143 -0.421145 -0.236228
0.371173 -0.418218 -0.230044
0.373597 -0.410440 -0.234615
0.370137 -0.420359 -0.219667
0.368034 -0.421421 -0.230442
0.371572 -0.417197 -0.211561
0.373929 -0.409824 -0.207768
0.366183 -0.422532 -0.210594
0.366617 -0.422294 -0.213680
0.373979 -0.404784 -0.219614
0.373930 -0.398298 -0.229315
0.373983 -0.405045 -0.213131
0.373977 -0.407805 -0.203481
0.373997 -0.397339 -0.206551
0.373842 -0.394117 -0.222200
0.372478 -0.383813 -0.234627
0.373425 -0.390607 -0.203309
0.373141 -0.388314 -0.206157
0.373068 -0.387720 -0.215548
0.357994 -0.372281 -0.235491
0.351768 -0.379284 -0.233021
0.354031 -0.376640 -0.221467
0.360340 -0.374004 -0.209076
0.356821 -0.374656 -0.206274
0.350989 -0.380998 -0.211620
0.372045 -0.382748 -0.233608
0.369411 -0.376829 -0.228420
0.367164 -0.373085 -0.240057
0.364051 -0.374226 -0.222454
0.372228 -0.382937 -0.212658
0.366852 -0.375510 -0.218413
0.363077 -0.374001 -0.207099
0.349434 -0.412982 -0.197574
0.352580 -0.418760 -0.195370
0.353751 -0.420374 -0.196202
0.355390 -0.421254 -0.195980
0.348817 -0.411849 -0.174984
0.348617 -0.411481 -0.170747
0.354435 -0.420741 -0.172237
0.360023 -0.423741 -0.177062
0.350214 -0.414414 -0.164782
0.348803 -0.411824 -0.153809
0.357201 -0.422226 -0.153864
0.359312 -0.423359 -0.160538
0.348872 -0.411949 -0.151054
0.353088 -0.419693 -0.134368
0.352808 -0.419179 -0.142115
0.355193 -0.421148 -0.134258
0.347825 -0.395592 -0.188411
0.347716 -0.406009 -0.201408
0.347700 -0.407527 -0.195556
0.347744 -0.403288 -0.180484
0.347834 -0.394749 -0.173888
0.347779 -0.399964 -0.169464
0.349872 -0.383540 -0.201499
0.348390 -0.391595 -0.190106
0.348406 -0.391506 -0.195025
0.348603 -0.390437 -0.183804
0.347946 -0.394009 -0.172662
0.347761 -0.401690 -0.162915
0.347780 -0.399921 -0.169197
0.347711 -0.406478 -0.159463
0.347778 -0.400048 -0.149399
0.347707 -0.406881 -0.145683
0.347726 -0.405055 -0.137846
0.348051 -0.393435 -0.167787
0.349666 -0.384658 -0.154957
0.349383 -0.386194 -0.144619
0.349659 -0.384698 -0.144989
0.348612 -0.390387 -0.139916
0.371302 -0.418039 -0.190437
0.373525 -0.411085 -0.195783
0.362897 -0.424336 -0.196164
0.370032 -0.420419 -0.187872
0.371030 -0.418890 -0.175954
0.372511 -0.414258 -0.180588
0.362225 -0.424705 -0.182639
0.369613 -0.420650 -0.179854
0.370657 -0.420056 -0.156433
0.372338 -0.414799 -0.165848
0.365999 -0.422633 -0.153528
0.367941 -0.421567 -0.166239
0.371710 -0.416762 -0.146898
0.373028 -0.412642 -0.144308
0.366084 -0.422587 -0.143098
0.366301 -0.422468 -0.148062
0.373984 -0.404092 -0.195517
0.373995 -0.398590 -0.200097
0.374000 -0.395820 -0.194411
0.373985 -0.403656 -0.176322
0.374000 -0.395933 -0.172407
0.373851 -0.394048 -0.191900
0.373038 -0.387487 -0.191593
0.373122 -0.388166 -0.200435
0.373669 -0.392584 -0.173898
0.373266 -0.389322 -0.185552
0.373982 -0.405145 -0.161152
0.373980 -0.406194 -0.165365
0.373998 -0.396563 -0.164056
0.373981 -0.405776 -0.143231
0.373992 -0.400075 -0.151260
0.373463 -0.390917 -0.160408
0.372741 -0.385084 -0.153995
0.372607 -0.384002 -0.157323
0.373149 -0.388382 -0.142658
0.372573 -0.383728 -0.138342
0.351288 -0.416388 -0.128836
0.349167 -0.412491 -0.121728
0.353809 -0.420405 -0.129749
0.357775 -0.422534 -0.127508
0.351677 -0.417101 -0.113329
0.351723 -0.417186 -0.107457
0.358345 -0.422840 -0.102525
0.361606 -0.424591 -0.118134
0.349164 -0.412486 -0.092513
0.349284 -0.412706 -0.085936
0.349608 -0.413301 -0.088683
0.359713 -0.423574 -0.092353
0.348661 -0.411562 -0.073802
0.349666 -0.413408 -0.079179
0.353062 -0.419645 -0.070188
0.355988 -0.421575 -0.076015
0.359456 -0.423436 -0.083734
0.347834 -0.394662 -0.129793
0.347682 -0.409298 -0.119675
0.347705 -0.407058 -0.126802
0.347830 -0.395108 -0.111560
0.347717 -0.405887 -0.113986
0.349572 -0.385171 -0.131863
0.350021 -0.382730 -0.131466
0.348284 -0.392172 -0.126851
0.348904 -0.388800 -0.117380
0.349768 -0.384102 -0.105160
0.347834 -0.394685 -0.099261
0.347803 -0.397690 -0.092858
0.347728 -0.404882 -0.088979
0.347801 -0.397867 -0.083262
0.347820 -0.396016 -0.084825
0.347749 -0.402880 -0.073654
0.349164 -0.387387 -0.098261
0.348269 -0.392254 -0.091519
0.349794 -0.383962 -0.076862
0.348484 -0.391083 -0.084671
0.348184 -0.392711 -0.078049
0.371533 -0.417317 -0.119625
0.371948 -0.416019 -0.135198
0.367832 -0.421627 -0.123324
0.368082 -0.421490 -0.128307
0.373202 -0.412097 -0.105029
0.373120 -0.412353 -0.109054
0.367082 -0.422039 -0.107997
0.367661 -0.421721 -0.116366
0.370880 -0.419357 -0.096192
0.372265 -0.415026 -0.095910
0.363860 -0.423807 -0.087408
0.368319 -0.421360 -0.096045
0.371534 -0.417313 -0.074852
0.373045 -0.412587 -0.075084
0.366026 -0.422619 -0.070845
0.368931 -0.421024 -0.073819
0.373981 -0.405457 -0.128849
0.374000 -0.395782 -0.121883
0.373990 -0.401047 -0.127553
0.373975 -0.408694 -0.114291
0.373987 -0.402348 -0.115755
0.373961 -0.394939 -0.119553
0.372800 -0.385558 -0.120788
0.372569 -0.383698 -0.132336
0.373777 -0.393451 -0.110884
0.372955 -0.386815 -0.112237
0.373979 -0.406672 -0.094003
0.373990 -0.400744 -0.102222
0.373996 -0.397606 -0.089154
0.373997 -0.397380 -0.071544
0.373996 -0.397961 -0.078278
0.373996 -0.397668 -0.079660
0.373783 -0.393501 -0.100185
0.372928 -0.386596 -0.102163
0.373791 -0.393564 -0.072064
0.373338 -0.389907 -0.080973
0.361258 -0.373827 -0.199937
0.352023 -0.379512 -0.196472
0.350284 -0.382010 -0.191848
0.361252 -0.373828 -0.181255
0.359912 -0.374078 -0.171875
0.352366 -0.379019 -0.170880
0.362042 -0.373681 -0.164806
0.357487 -0.374530 -0.163113
0.350581 -0.381584 -0.154705
0.360839 -0.373905 -0.151474
0.356926 -0.374634 -0.144230
0.351740 -0.379919 -0.150376
0.370409 -0.379527 -0.195693
0.368859 -0.376622 -0.193824
0.368511 -0.376177 -0.197935
0.371629 -0.381816 -0.171065
0.368819 -0.376545 -0.190837
0.367587 -0.375806 -0.187651
0.370853 -0.380361 -0.163799
0.369716 -0.378229 -0.170710
0.365972 -0.375158 -0.171863
0.371254 -0.381113 -0.141601
0.370139 -0.379021 -0.148959
0.365420 -0.374937 -0.145064
0.361339 -0.373812 -0.122422
0.351784 -0.379854 -0.132773
0.351049 -0.380911 -0.122456
0.360862 -0.373901 -0.117019
0.360836 -0.373906 -0.103979
0.350238 -0.382077 -0.112900
0.357572 -0.374514 -0.098496
0.357903 -0.374452 -0.091895
0.354314 -0.376220 -0.087117
0.362123 -0.373666 -0.084778
0.359359 -0.374181 -0.075573
0.354206 -0.376374 -0.073204
0.371300 -0.381199 -0.123955
0.370361 -0.379437 -0.134518
0.364080 -0.374400 -0.134730
0.371551 -0.381669 -0.112570
0.370943 -0.380530 -0.119812
0.365131 -0.374821 -0.117697
0.371635 -0.381826 -0.093056
0.368819 -0.376545 -0.097000
0.365891 -0.375126 -0.104257
0.371554 -0.381676 -0.076396
0.369811 -0.378407 -0.086455
0.365350 -0.374909 -0.080285
0.349016 -0.412213 -0.062332
0.348352 -0.410995 -0.053286
0.353550 -0.420266 -0.063973
0.361328 -0.424441 -0.068740
0.348813 -0.411842 -0.048055
0.351714 -0.417170 -0.039388
0.351172 -0.416174 -0.034959
0.356502 -0.421850 -0.043351
0.351229 -0.416279 -0.030360
0.347728 -0.409848 -0.031143
0.351737 -0.417211 -0.023473
0.360840 -0.424179 -0.019888
0.358330 -0.422832 -0.027527
0.349128 -0.412420 -0.008604
0.352199 -0.418059 0.000715
0.353555 -0.420269 -0.012866
0.357090 -0.422166 -0.014469
0.347833 -0.394806 -0.053707
0.347726 -0.405073 -0.062102
0.347790 -0.398966 -0.054691
0.347760 -0.401843 -0.050109
0.347687 -0.408831 -0.048023
0.347722 -0.405446 -0.042659
0.348780 -0.389475 -0.063115
0.348115 -0.393087 -0.056501
0.350015 -0.382761 -0.051320
0.348759 -0.389587 -0.039390
0.347779 -0.399979 -0.030972
0.347824 -0.395648 -0.031642
0.347770 -0.400833 -0.024773
0.347726 -0.405021 -0.018301
0.347831 -0.394953 -0.009473
0.347723 -0.405331 -0.006302
0.349362 -0.386311 -0.031505
0.349286 -0.386724 -0.033083
0.348097 -0.393189 -0.026386
0.349715 -0.384394 -0.007015
0.348853 -0.389076 -0.006066
0.371007 -0.418961 -0.057852
0.373047 -0.412581 -0.062665
0.364865 -0.423256 -0.055255
0.368804 -0.421094 -0.058702
0.370869 -0.419394 -0.043307
0.373955 -0.409740 -0.046172
0.362662 -0.424465 -0.051594
0.366123 -0.422565 -0.045782
0.373330 -0.411696 -0.021978
0.371901 -0.416167 -0.035917
0.366081 -0.422589 -0.027947
0.367203 -0.421972 -0.035911
0.372015 -0.415810 -0.006434
0.372048 -0.415705 -0.014829
0.363709 -0.423890 -0.004340
0.365359 -0.422985 -0.017605
0.373981 -0.405344 -0.060962
0.373997 -0.397311 -0.062693
0.374001 -0.395353 -0.066971
0.373975 -0.408652 -0.049790
0.373987 -0.402460 -0.049779
0.373996 -0.397977 -0.048220
0.373631 -0.392275 -0.062387
0.372964 -0.386888 -0.062169
0.372973 -0.386963 -0.040359
0.372830 -0.385806 -0.047374
0.373976 -0.408290 -0.033527
0.373987 -0.402448 -0.024539
0.373999 -0.396291 -0.022764
0.373992 -0.400002 -0.003507
0.374001 -0.395377 -0.005299
0.373996 -0.397745 -0.009122
0.373673 -0.392614 -0.021652
0.372958 -0.386836 -0.031281
0.372662 -0.384451 -0.003667
0.373271 -0.389365 -0.015700
0.349229 -0.412606 0.008520
0.349201 -0.412554 0.011658
0.352239 -0.418134 0.004558
0.359344 -0.423376 0.011206
0.347965 -0.410284 0.016681
0.348859 -0.411927 0.027302
0.353135 -0.419780 0.023038
0.356102 -0.421636 0.029791
0.356858 -0.422042 0.021475
0.347901 -0.410166 0.037741
0.352132 -0.417938 0.040735
0.354452 -0.420750 0.046766
0.361632 -0.424605 0.033866
0.348582 -0.411416 0.059897
0.350766 -0.415428 0.064426
0.358768 -0.423067 0.063215
0.355093 -0.421094 0.051454
0.347812 -0.396799 0.004671
0.347714 -0.406240 0.009260
0.347755 -0.402286 0.007650
0.347802 -0.397761 0.022157
0.347710 -0.406550 0.027086
0.347745 -0.403260 0.025647
0.349851 -0.383653 0.010801
0.348178 -0.392749 0.003986
0.348684 -0.389996 0.014911
0.347964 -0.393911 0.015844
0.349080 -0.387845 0.025093
0.347763 -0.401500 0.033762
0.347696 -0.407888 0.045313
0.347723 -0.405337 0.039152
0.347834 -0.394728 0.061558
0.347740 -0.403700 0.061630
0.348620 -0.390343 0.032726
0.349672 -0.384624 0.041409
0.348291 -0.392131 0.040679
0.350006 -0.382811 0.054002
0.348425 -0.391405 0.051893
0.372047 -0.415710 0.013138
0.373074 -0.412497 0.005688
0.365667 -0.422816 0.004710
0.369341 -0.420799 -0.001804
0.371123 -0.418598 0.026889
0.373231 -0.412006 0.024725
0.367227 -0.421959 0.028326
0.368778 -0.421108 0.013906
0.371271 -0.418135 0.044463
0.372625 -0.413902 0.038995
0.362204 -0.424716 0.035504
0.363034 -0.424261 0.031553
0.371245 -0.418217 0.050749
0.372619 -0.413921 0.051326
0.365253 -0.423043 0.054963
0.369786 -0.420554 0.056439
0.373994 -0.398817 0.012437
0.373992 -0.400086 0.008894
0.373996 -0.398073 0.005560
0.373984 -0.404185 0.023445
0.373990 -0.400810 0.015248
0.373996 -0.397871 0.013877
0.373224 -0.388988 0.009562
0.372982 -0.387036 0.004813
0.373828 -0.393862 0.023538
0.372642 -0.384283 0.022262
0.373995 -0.398550 0.044992
0.373983 -0.404721 0.042082
0.373982 -0.404907 0.033293
0.373981 -0.405546 0.059509
0.373991 -0.400185 0.054747
0.373994 -0.398879 0.048373
0.373885 -0.394328 0.043183
0.372894 -0.386319 0.032291
0.373237 -0.389094 0.058520
0.372664 -0.384465 0.050174
0.359637 -0.374129 -0.061725
0.359526 -0.374150 -0.054364
0.354642 -0.375749 -0.057784
0.353135 -0.377913 -0.056156
0.357495 -0.374528 -0.044442
0.354463 -0.376006 -0.048542
0.352636 -0.378631 -0.044114
0.359427 -0.374168 -0.024501
0.352044 -0.379482 -0.035687
0.353777 -0.376991 -0.020347
0.357496 -0.374528 -0.013857
0.353265 -0.377727 -0.016224
0.351358 -0.380467 -0.003680
0.371873 -0.382274 -0.058096
0.368142 -0.376029 -0.067659
0.367676 -0.375842 -0.059368
0.370930 -0.380505 -0.055294
0.366791 -0.375487 -0.048401
0.366031 -0.375182 -0.042178
0.370262 -0.379252 -0.038025
0.367438 -0.375746 -0.028529
0.365046 -0.374787 -0.024226
0.371464 -0.381506 -0.019665
0.364330 -0.374500 -0.017589
0.359524 -0.374150 0.003689
0.360123 -0.374039 0.010243
0.354836 -0.375470 0.000499
0.354829 -0.375480 0.012909
0.355249 -0.374946 0.019913
0.350655 -0.381477 0.013600
0.350118 -0.382248 0.014657
0.358360 -0.374367 0.038016
0.352348 -0.379045 0.032207
0.350525 -0.381664 0.032143
0.357127 -0.374597 0.052669
0.354560 -0.375866 0.057628
0.352267 -0.379161 0.057523
0.372266 -0.383011 -0.000513
0.363599 -0.374207 -0.003615
0.362796 -0.373885 0.005393
0.371653 -0.381860 0.021040
0.362597 -0.373805 0.012896
0.364041 -0.374384 0.027835
0.368985 -0.376858 0.038187
0.367798 -0.375891 0.034424
0.362777 -0.373878 0.045047
0.369659 -0.378121 0.051940
0.368502 -0.376173 0.056429
0.362874 -0.373917 0.062314
0.349757 -0.413575 0.068633
0.348022 -0.410388 0.079532
0.354771 -0.420921 0.071108
0.360929 -0.424227 0.073808
0.349624 -0.413330 0.086970
0.348346 -0.410984 0.096530
0.355049 -0.421071 0.089116
0.358674 -0.423017 0.088356
0.349643 -0.413365 0.108373
0.351870 -0.417455 0.113624
0.355221 -0.421163 0.111032
0.355900 -0.421527 0.101726
0.347907 -0.410178 0.117504
0.348965 -0.412121 0.128965
0.356146 -0.421659 0.132555
0.357651 -0.422467 0.117223
0.347819 -0.396101 0.072704
0.347785 -0.399357 0.063126
0.347682 -0.409263 0.071104
0.347777 -0.400191 0.086960
0.347780 -0.399866 0.085682
0.347773 -0.400554 0.095804
0.349830 -0.383766 0.066768
0.348261 -0.392294 0.070253
0.349220 -0.387081 0.086970
0.349044 -0.388037 0.085652
0.347972 -0.393866 0.092456
0.347792 -0.398711 0.100973
0.347680 -0.409510 0.107982
0.347757 -0.402126 0.105446
0.347730 -0.404680 0.115479
0.347763 -0.401544 0.128674
0.347808 -0.397173 0.127634
0.350061 -0.382510 0.097942
0.349099 -0.387739 0.112104
0.349849 -0.383665 0.112687
0.349278 -0.386767 0.125574
0.348206 -0.392597 0.123961
0.372206 -0.415212 0.076634
0.371123 -0.418598 0.063256
0.369540 -0.420690 0.078368
0.370424 -0.420204 0.067214
0.373584 -0.410902 0.095249
0.371355 -0.417872 0.080016
0.364753 -0.423317 0.084768
0.364690 -0.423352 0.083186
0.371172 -0.418444 0.106632
0.372942 -0.412910 0.098182
0.364485 -0.423464 0.110960
0.371091 -0.418700 0.124330
0.371319 -0.417985 0.120625
0.372966 -0.412835 0.118092
0.367078 -0.422041 0.126816
0.373987 -0.402556 0.077909
0.373987 -0.402626 0.073822
0.373989 -0.401564 0.072074
0.373981 -0.405623 0.087630
0.373981 -0.405430 0.086433
0.373986 -0.403064 0.084632
0.373899 -0.394436 0.064625
0.372665 -0.384471 0.075629
0.373952 -0.394869 0.083099
0.372724 -0.384946 0.088700
0.372958 -0.386841 0.087696
0.373994 -0.398809 0.110862
0.373995 -0.398257 0.096251
0.373983 -0.404704 0.120420
0.373979 -0.406502 0.127760
0.373982 -0.404974 0.113925
0.373575 -0.391819 0.106002
0.372832 -0.385821 0.108523
0.373812 -0.393733 0.126208
0.373313 -0.389702 0.127686
0.372566 -0.383673 0.128124
0.350916 -0.415704 0.135329
0.353318 -0.420115 0.137952
0.358393 -0.422866 0.141630
0.360796 -0.424156 0.131946
0.349661 -0.413398 0.149435
0.350519 -0.414975 0.159399
0.354703 -0.420885 0.153811
0.361622 -0.424599 0.155368
0.350392 -0.414741 0.169963
0.350260 -0.414500 0.180549
0.357366 -0.422314 0.174453
0.361475 -0.424520 0.177594
0.347876 -0.410120 0.187140
0.351109 -0.416059 0.195833
0.356783 -0.422001 0.197654
0.361547 -0.424559 0.180836
0.347829 -0.395167 0.129986
0.347827 -0.395407 0.131842
0.347718 -0.405790 0.140121
0.347751 -0.402705 0.147658
0.347818 -0.396208 0.160405
0.347734 -0.404255 0.162281
0.348936 -0.388624 0.132739
0.347861 -0.394471 0.143801
0.348154 -0.392878 0.137574
0.348317 -0.391989 0.146057
0.349360 -0.386320 0.161931
0.347813 -0.396709 0.168465
0.347720 -0.405602 0.172692
0.347698 -0.407720 0.174802
0.347743 -0.403429 0.179186
0.347710 -0.406603 0.188966
0.347705 -0.407044 0.187652
0.348973 -0.388424 0.170549
0.348016 -0.393626 0.166087
0.349419 -0.386002 0.179055
0.348647 -0.390198 0.191282
0.348255 -0.392329 0.188339
0.371269 -0.418142 0.134484
0.372672 -0.413754 0.130617
0.362795 -0.424392 0.139269
0.368993 -0.420990 0.138868
0.371590 -0.417137 0.162082
0.372883 -0.413095 0.156472
0.362665 -0.424463 0.157724
0.369357 -0.420790 0.153611
0.372318 -0.414860 0.177423
0.373648 -0.410700 0.170997
0.366650 -0.422276 0.171654
0.369765 -0.420566 0.176961
0.371168 -0.418458 0.190412
0.373664 -0.410653 0.191666
0.365647 -0.422827 0.186235
0.369544 -0.420688 0.190961
0.373983 -0.404548 0.145483
0.373997 -0.397454 0.139893
0.373985 -0.403456 0.153177
0.373979 -0.406852 0.155602
0.373989 -0.401609 0.146920
0.373345 -0.389967 0.141317
0.372841 -0.385896 0.137458
0.373048 -0.387562 0.161485
0.373941 -0.394777 0.154009
0.373618 -0.392165 0.147253
0.373977 -0.407748 0.177499
0.373998 -0.396755 0.175624
0.373988 -0.401906 0.189045
0.373977 -0.407777 0.187953
0.373982 -0.404858 0.181382
0.373895 -0.394408 0.178084
0.373081 -0.387833 0.164268
0.372785 -0.385444 0.172192
0.373393 -0.390352 0.187469
0.372674 -0.384548 0.193178
0.355330 -0.374931 0.079371
0.353251 -0.377748 0.070319
0.352416 -0.378946 0.078428
0.361582 -0.373767 0.091761
0.354019 -0.376644 0.088704
0.354136 -0.376476 0.093467
0.358637 -0.374315 0.099709
0.353066 -0.378013 0.103136
0.353794 -0.376968 0.109775
0.361644 -0.373755 0.127344
0.352366 -0.379019 0.118072
0.350328 -0.381947 0.128879
0.372517 -0.383481 0.066634
0.368706 -0.376335 0.067590
0.363422 -0.374136 0.066608
0.369579 -0.377971 0.089219
0.368924 -0.376743 0.077340
0.362917 -0.373934 0.086748
0.371120 -0.380861 0.102869
0.370068 -0.378888 0.102863
0.362976 -0.373957 0.097855
0.371689 -0.381928 0.120123
0.370740 -0.380148 0.111330
0.365489 -0.374965 0.123053
0.361559 -0.373771 0.139995
0.351703 -0.379971 0.132777
0.352714 -0.378519 0.142770
0.359813 -0.374096 0.156590
0.351677 -0.380009 0.149279
0.350358 -0.381904 0.156103
0.359843 -0.374091 0.170513
0.352213 -0.379238 0.167368
0.350625 -0.381520 0.164190
0.361957 -0.373697 0.191954
0.353824 -0.376924 0.181709
0.350294 -0.381996 0.184165
0.372549 -0.383540 0.131720
0.369215 -0.377289 0.129835
0.364532 -0.374581 0.137502
0.372238 -0.382959 0.157482
0.370572 -0.379833 0.145250
0.363255 -0.374069 0.161049
0.371856 -0.382241 0.164669
0.368758 -0.376432 0.163479
0.363848 -0.374307 0.166679
0.371578 -0.381720 0.183447
0.371257 -0.381118 0.180666
0.363183 -0.374040 0.193918
0.351818 -0.417360 0.200373
0.352765 -0.419099 0.206274
0.353736 -0.420366 0.205740
0.360127 -0.423797 0.204467
0.348131 -0.410589 0.226135
0.351082 -0.416008 0.222252
0.355903 -0.421529 0.224795
0.358913 -0.423145 0.220443
0.347966 -0.410285 0.233652
0.351641 -0.417035 0.240761
0.353334 -0.420145 0.249210
0.360302 -0.423891 0.237018
0.352232 -0.418121 0.250999
0.349034 -0.412248 0.255919
0.349638 -0.413357 0.260196
0.355765 -0.421455 0.254638
0.359070 -0.423229 0.256120
0.347814 -0.396633 0.198025
0.347689 -0.408588 0.203574
0.347785 -0.399406 0.212123
0.347757 -0.402041 0.214652
0.347679 -0.409580 0.216860
0.349850 -0.383656 0.203287
0.349228 -0.387040 0.203069
0.348967 -0.388459 0.203922
0.348501 -0.390993 0.215634
0.348244 -0.392386 0.215484
0.347818 -0.396238 0.236968
0.347739 -0.403841 0.229915
0.347814 -0.396621 0.244705
0.347801 -0.397865 0.251347
0.347797 -0.398298 0.256551
0.347728 -0.404828 0.258538
0.350036 -0.382648 0.231053
0.348959 -0.388503 0.244046
0.349529 -0.385402 0.245443
0.348821 -0.389252 0.252322
0.349312 -0.386584 0.259050
0.370796 -0.419622 0.204779
0.371867 -0.416272 0.196541
0.365252 -0.423043 0.201824
0.368842 -0.421073 0.196215
0.372152 -0.415379 0.224270
0.371041 -0.418854 0.213583
0.364559 -0.423424 0.226604
0.363576 -0.423963 0.213968
0.372732 -0.413566 0.244201
0.373653 -0.410687 0.232725
0.364520 -0.423445 0.239910
0.367822 -0.421632 0.229438
0.372329 -0.414826 0.259377
0.373781 -0.410285 0.254647
0.366504 -0.422356 0.255016
0.369443 -0.420743 0.251202
0.373991 -0.400417 0.209064
0.373977 -0.407728 0.196397
0.373996 -0.398014 0.202411
0.373974 -0.409268 0.219071
0.373993 -0.399229 0.222893
0.372988 -0.387082 0.208765
0.373660 -0.392510 0.210334
0.372923 -0.386554 0.206098
0.373461 -0.390898 0.221768
0.373343 -0.389948 0.215769
0.373980 -0.405836 0.238862
0.374000 -0.395531 0.243869
0.373982 -0.404951 0.233304
0.373974 -0.409373 0.254439
0.373986 -0.402906 0.251408
0.373995 -0.398268 0.246722
0.373776 -0.393445 0.236577
0.372818 -0.385706 0.234486
0.373944 -0.394797 0.256227
0.372870 -0.386128 0.250532
0.350408 -0.414770 0.268350
0.352833 -0.419224 0.268614
0.360030 -0.423745 0.279410
0.357853 -0.422576 0.272561
0.352234 -0.418124 0.283471
0.353081 -0.419680 0.291914
0.353881 -0.420443 0.295638
0.359704 -0.423570 0.289729
0.350012 -0.414044 0.307077
0.347782 -0.409948 0.296645
0.350217 -0.414420 0.313654
0.354033 -0.420525 0.304417
0.356243 -0.421712 0.302904
0.348692 -0.411620 0.326036
0.351794 -0.417317 0.320902
0.361331 -0.424443 0.327773
0.357480 -0.422376 0.315942
0.347796 -0.398354 0.274236
0.347708 -0.406741 0.271517
0.347711 -0.406462 0.274281
0.347828 -0.395306 0.292006
0.347726 -0.405104 0.290252
0.347696 -0.407889 0.289920
0.348777 -0.389488 0.267995
0.348380 -0.391649 0.275279
0.349931 -0.383218 0.292416
0.348385 -0.391624 0.287041
0.347802 -0.397776 0.298570
0.347828 -0.395281 0.296914
0.347740 -0.403697 0.305098
0.347799 -0.398030 0.319630
0.347734 -0.404319 0.312552
0.347704 -0.407164 0.328027
0.350090 -0.382352 0.304407
0.347914 -0.394180 0.308237
0.347892 -0.394300 0.300270
0.349130 -0.387573 0.313604
0.348049 -0.393450 0.323676
0.370961 -0.419107 0.272471
0.373200 -0.412104 0.273648
0.363158 -0.424193 0.277445
0.367766 -0.421663 0.269034
0.372816 -0.413305 0.291649
0.373097 -0.412424 0.282235
0.366093 -0.422581 0.288652
0.368110 -0.421475 0.285266
0.373045 -0.412586 0.308470
0.373624 -0.410778 0.299077
0.366881 -0.422149 0.305031
0.368592 -0.421210 0.300776
0.371374 -0.417813 0.318857
0.373022 -0.412659 0.320989
0.364211 -0.423614 0.319960
0.366913 -0.422132 0.312267
0.373987 -0.402724 0.275650
0.373987 -0.402232 0.269592
0.373996 -0.397670 0.274654
0.373982 -0.405057 0.290530
0.373978 -0.406946 0.279483
0.373990 -0.401101 0.283364
0.373026 -0.387388 0.277646
0.372852 -0.385982 0.261996
0.373420 -0.390566 0.291926
0.372749 -0.385149 0.290679
0.373984 -0.404274 0.304735
0.373989 -0.401567 0.296164
0.374001 -0.395419 0.296668
0.373978 -0.406995 0.322890
0.373995 -0.398338 0.319286
0.373992 -0.399800 0.315198
0.373857 -0.394098 0.303005
0.373212 -0.388888 0.300800
0.373997 -0.395226 0.318220
0.372666 -0.384479 0.324300
0.359940 -0.374073 0.196498
0.356389 -0.374734 0.208356
0.351105 -0.380830 0.212042
0.358956 -0.374256 0.214422
0.358909 -0.374265 0.223686
0.351843 -0.379770 0.219100
0.359016 -0.374245 0.229744
0.356251 -0.374760 0.237187
0.353386 -0.377553 0.229785
0.361758 -0.373734 0.260388
0.356340 -0.374743 0.251732
0.355035 -0.375183 0.256122
0.350721 -0.381382 0.256887
0.369363 -0.377566 0.200047
0.367097 -0.375610 0.195643
0.371127 -0.380875 0.222694
0.371616 -0.381791 0.211015
0.362757 -0.373870 0.212080
0.371840 -0.382212 0.231033
0.369393 -0.377622 0.233721
0.368112 -0.376017 0.237208
0.370449 -0.379603 0.253817
0.371422 -0.381428 0.245554
0.368033 -0.375985 0.254621
0.360078 -0.374047 0.273422
0.360147 -0.374034 0.276408
0.352908 -0.378240 0.277590
0.361752 -0.373735 0.289889
0.355665 -0.374869 0.294814
0.352758 -0.378455 0.283693
0.359662 -0.374124 0.305184
0.355254 -0.374946 0.309852
0.354807 -0.375511 0.298088
0.361827 -0.373721 0.320377
0.355255 -0.374945 0.321668
0.352726 -0.378501 0.316456
0.354281 -0.376268 0.328130
0.369889 -0.378552 0.265740
0.366367 -0.375317 0.260336
0.362408 -0.373730 0.269232
0.370103 -0.378955 0.284906
0.364815 -0.374695 0.276781
0.371962 -0.382440 0.306702
0.369666 -0.378134 0.301083
0.368245 -0.376070 0.298743
0.371496 -0.381567 0.324955
0.369077 -0.377030 0.308104
0.367387 -0.375726 0.313337
0.349840 -0.413728 0.338218
0.353229 -0.419952 0.334357
0.351388 -0.416571 0.346631
0.354745 -0.420907 0.339389
0.348681 -0.411599 0.353908
0.349630 -0.413342 0.347022
0.353045 -0.419614 0.364023
0.354971 -0.421029 0.360371
0.360812 -0.424164 0.358656
0.349458 -0.413027 0.365447
0.351400 -0.416593 0.371272
0.357281 -0.422269 0.375068
0.359480 -0.423449 0.374778
0.347773 -0.409932 0.391111
0.350965 -0.415794 0.397778
0.360032 -0.423746 0.393303
0.359465 -0.423441 0.385703
0.347806 -0.397349 0.335518
0.347678 -0.409661 0.341420
0.347705 -0.407075 0.338202
0.347718 -0.405809 0.345272
0.347690 -0.408470 0.361262
0.347700 -0.407581 0.347695
0.348336 -0.391890 0.328372
0.348755 -0.389612 0.343123
0.349487 -0.385631 0.355745
0.348089 -0.393229 0.354030
0.349277 -0.386771 0.357394
0.347749 -0.402809 0.362618
0.347723 -0.405321 0.367670
0.347691 -0.408419 0.364793
0.347750 -0.402727 0.380926
0.347730 -0.404692 0.386840
0.349673 -0.384621 0.370927
0.348925 -0.388686 0.366166
0.347881 -0.394359 0.375665
0.349485 -0.385640 0.384992
0.349232 -0.387016 0.392564
0.371002 -0.418977 0.344626
0.373923 -0.409840 0.336626
0.362528 -0.424539 0.329314
0.365335 -0.422998 0.330584
0.372469 -0.414390 0.359357
0.373459 -0.411293 0.347267
0.363614 -0.423943 0.348770
0.368145 -0.421455 0.349756
0.371885 -0.416214 0.369268
0.371087 -0.418711 0.362236
0.368364 -0.421335 0.377155
0.366778 -0.422206 0.361887
0.372533 -0.414187 0.393892
0.373922 -0.409845 0.385083
0.363943 -0.423762 0.390774
0.370566 -0.420126 0.382898
0.373976 -0.408317 0.343245
0.373981 -0.405636 0.336749
0.374000 -0.395817 0.344101
0.373975 -0.408686 0.358221
0.373988 -0.401706 0.345533
0.373996 -0.397607 0.352036
0.373238 -0.389097 0.342572
0.372764 -0.385268 0.328576
0.373830 -0.393881 0.360952
0.372733 -0.385022 0.348245
0.373982 -0.404958 0.377662
0.373987 -0.402511 0.375274
0.373999 -0.396087 0.372843
0.373979 -0.406551 0.388371
0.373994 -0.399059 0.382899
0.373996 -0.397649 0.389491
0.373400 -0.390408 0.375985
0.373309 -0.389675 0.361920
0.373370 -0.390161 0.386783
0.372915 -0.386489 0.384348
0.348429 -0.411136 0.399485
0.347757 -0.409901 0.404813
0.351942 -0.417589 0.407251
0.353897 -0.420453 0.414520
0.361743 -0.424667 0.400891
0.349215 -0.412476 0.419385
0.352479 -0.418366 0.424167
0.354927 -0.420934 0.421027
0.360998 -0.424257 0.412955
0.347802 -0.397820 0.407570
0.347741 -0.403580 0.406720
0.347685 -0.409022 0.406192
0.347749 -0.404903 0.414147
0.347870 -0.400360 0.423765
0.347740 -0.407729 0.416399
0.348378 -0.391674 0.398048
0.348835 -0.389206 0.403241
0.349147 -0.382825 0.421015
0.347981 -0.393173 0.417020
0.348169 -0.390765 0.419103
0.372405 -0.414569 0.407977
0.371903 -0.416157 0.397354
0.364219 -0.423606 0.408029
0.367412 -0.421856 0.399176
0.374136 -0.414878 0.424453
0.373010 -0.413301 0.412650
0.363795 -0.424938 0.426298
0.371683 -0.420799 0.423499
0.373981 -0.402627 0.409637
0.373980 -0.404718 0.402651
0.373994 -0.396570 0.407371
0.376078 -0.402506 0.426301
0.375083 -0.405173 0.419093
0.374283 -0.402484 0.413275
0.373976 -0.395082 0.403507
0.372638 -0.384277 0.402961
0.374769 -0.393192 0.417298
0.375364 -0.386742 0.423808
0.374160 -0.389922 0.415245
0.378643 -0.383954 0.436270
0.360020 -0.374058 0.329311
0.358850 -0.374276 0.337549
0.353395 -0.377541 0.329879
0.360389 -0.373989 0.346475
0.358920 -0.374263 0.356602
0.353960 -0.376729 0.346011
0.358163 -0.374404 0.366456
0.357562 -0.374516 0.368307
0.352640 -0.378625 0.361940
0.350426 -0.381806 0.375287
0.358822 -0.374281 0.392769
0.350622 -0.381525 0.379643
0.352855 -0.378317 0.388957
0.369714 -0.378224 0.334917
0.367673 -0.375841 0.326113
0.363069 -0.373995 0.330701
0.371328 -0.381251 0.346452
0.365961 -0.375154 0.346962
0.363706 -0.374250 0.352315
0.370448 -0.379601 0.366705
0.366962 -0.375555 0.362665
0.369477 -0.377780 0.387322
0.370873 -0.380399 0.381845
0.367380 -0.375723 0.373669
0.360981 -0.373887 0.404126
0.357103 -0.374611 0.404289
0.355047 -0.375208 0.409766
0.364193 -0.369393 0.428187
0.357841 -0.371147 0.425263
0.354102 -0.373025 0.422923
0.352170 -0.375952 0.423058
0.360988 -0.367580 0.431934
0.372402 -0.383270 0.402086
0.371897 -0.382321 0.396069
0.368504 -0.376177 0.396702
0.373688 -0.379671 0.422880
0.369640 -0.375758 0.412605
0.365799 -0.374038 0.414141
0.364329 -0.369539 0.427672
0.376534 -0.375137 0.434943
0.375830 -0.380225 0.429537
0.371398 -0.370543 0.428853
0.365952 -0.367287 0.432297
