ply
format ascii 1.0
element vertex 1000
property float x
property float y
property float z
end_header
0.335187 -0.779741 -0.316929
0.337258 -0.795469 -0.279376
0.376612 -0.781775 -0.326229
0.386039 -0.794309 -0.296552
0.351848 -0.800989 -0.270891
0.334218 -0.760681 -0.309966
0.334111 -0.764742 -0.288224
0.343457 -0.721970 -0.324769
0.334111 -0.713986 -0.287023
0.377830 -0.742433 -0.326146
0.369054 -0.720382 -0.326460
0.387474 -0.725889 -0.292203
0.353362 -0.774044 -0.263934
0.358552 -0.721134 -0.263835
0.378994 -0.734130 -0.264617
0.353085 -0.705403 -0.326295
0.336024 -0.661068 -0.318501
0.361182 -0.652479 -0.326455
0.374633 -0.676133 -0.326394
0.386996 -0.696565 -0.277343
0.386979 -0.647728 -0.316093
0.341518 -0.699390 -0.265310
0.339765 -0.645907 -0.265615
0.385337 -0.691038 -0.268676
0.347096 -0.627503 -0.325727
0.334111 -0.631257 -0.286353
0.334571 -0.578795 -0.315888
0.334111 -0.577951 -0.293161
0.386296 -0.610574 -0.318570
0.364535 -0.592972 -0.326513
0.387477 -0.594289 -0.300249
0.361386 -0.628186 -0.263782
0.357051 -0.586303 -0.263864
0.385004 -0.605750 -0.267830
0.334237 -0.545113 -0.311419
0.334173 -0.545619 -0.281485
0.355717 -0.527395 -0.326347
0.376309 -0.549192 -0.326374
0.387474 -0.560617 -0.291752
0.387465 -0.528529 -0.302485
0.386916 -0.516009 -0.275800
0.336604 -0.533057 -0.269351
0.385652 -0.565524 -0.269640
0.334907 -0.504346 -0.316493
0.334110 -0.502716 -0.299045
0.334175 -0.475807 -0.306780
0.334149 -0.469445 -0.282611
0.387310 -0.494021 -0.308718
0.387389 -0.485827 -0.284200
0.387474 -0.469182 -0.291954
0.336739 -0.483318 -0.269137
0.355741 -0.470860 -0.263893
0.367420 -0.447447 -0.261316
0.345130 -0.417288 -0.325209
0.334111 -0.423404 -0.293063
0.360756 -0.404707 -0.326446
0.370550 -0.439768 -0.326442
0.387478 -0.443521 -0.301786
0.384206 -0.408518 -0.323915
0.387476 -0.385734 -0.297209
0.340378 -0.403696 -0.258057
0.375692 -0.413472 -0.251329
0.381884 -0.415224 -0.263414
0.347614 -0.357243 -0.325863
0.334111 -0.347427 -0.287476
0.353248 -0.343737 -0.326298
0.372434 -0.372967 -0.326420
0.387472 -0.363183 -0.287819
0.382977 -0.341686 -0.324346
0.387475 -0.314781 -0.295309
0.350774 -0.370611 -0.248473
0.358698 -0.326096 -0.263834
0.372908 -0.341596 -0.262666
0.346018 -0.286990 -0.325443
0.334111 -0.278055 -0.289297
0.334243 -0.256952 -0.311840
0.334267 -0.249232 -0.275482
0.387471 -0.300636 -0.286283
0.385308 -0.264063 -0.322155
0.387474 -0.254530 -0.291931
0.356544 -0.291989 -0.263873
0.364688 -0.289495 -0.263742
0.378983 -0.250333 -0.264691
0.361779 -0.216643 -0.326466
0.341726 -0.198641 -0.324330
0.334116 -0.210379 -0.291510
0.380260 -0.233908 -0.325296
0.387476 -0.219906 -0.296516
0.387433 -0.189218 -0.303765
0.339327 -0.226793 -0.265691
0.337679 -0.191808 -0.267631
0.369594 -0.197204 -0.263920
0.323426 -0.153784 -0.319771
0.325606 -0.128730 -0.268737
0.326470 -0.077909 -0.291091
0.355344 -0.171477 -0.326347
0.353357 -0.131124 -0.326348
0.380344 -0.146977 -0.325267
0.372122 -0.123594 -0.326423
0.386920 -0.140085 -0.277533
0.350949 -0.164153 -0.263979
0.354783 -0.114522 -0.260422
0.374790 -0.125309 -0.262965
0.376674 -0.097906 -0.326369
0.384766 -0.113993 -0.265631
0.350599 -0.786574 0.449149
0.344997 -0.751639 0.450710
0.351190 -0.734188 0.449054
0.371311 -0.733433 0.449021
0.345416 -0.800661 0.495570
0.341486 -0.788433 0.506996
0.380972 -0.800387 0.469089
0.385643 -0.791351 0.501916
0.346135 -0.765615 0.509768
0.334163 -0.727207 0.483900
0.336837 -0.720092 0.500601
0.387440 -0.749781 0.483321
0.387196 -0.737899 0.464186
0.377756 -0.740363 0.510953
0.357685 -0.684149 0.448991
0.374112 -0.700866 0.449059
0.385625 -0.674065 0.456051
0.351650 -0.635877 0.449050
0.349732 -0.577561 0.449068
0.365580 -0.590135 0.448944
0.334346 -0.687950 0.467220
0.350139 -0.684896 0.511380
0.335229 -0.665372 0.496580
0.387451 -0.700354 0.481179
0.387028 -0.684043 0.495707
0.372791 -0.667212 0.511134
0.334185 -0.639811 0.486516
0.363509 -0.629840 0.511396
0.345945 -0.597363 0.509659
0.387392 -0.630224 0.473400
0.377773 -0.641962 0.510787
0.387411 -0.576900 0.485877
0.342419 -0.559534 0.451735
0.347985 -0.514285 0.449523
0.386265 -0.552630 0.458807
0.347986 -0.495346 0.449522
0.338248 -0.442821 0.454320
0.381914 -0.501780 0.451537
0.334323 -0.564680 0.468230
0.338930 -0.547179 0.505592
0.334336 -0.512074 0.467640
0.363381 -0.529561 0.511396
0.377088 -0.562324 0.510998
0.387458 -0.539353 0.480351
0.386732 -0.522669 0.497229
0.334948 -0.497349 0.495878
0.334177 -0.474482 0.485551
0.359535 -0.462066 0.511242
0.387457 -0.481728 0.480370
0.387357 -0.474026 0.492252
0.381174 -0.478671 0.508198
0.349523 -0.420883 0.437033
0.368992 -0.438094 0.446605
0.379939 -0.396390 0.439805
0.337106 -0.351449 0.456950
0.348231 -0.314327 0.449425
0.382418 -0.359252 0.449774
0.334112 -0.431182 0.477925
0.337835 -0.417588 0.503095
0.334116 -0.385780 0.478404
0.359545 -0.383742 0.511608
0.372991 -0.417049 0.510888
0.387136 -0.388283 0.463161
0.334180 -0.361714 0.474140
0.343140 -0.347504 0.508033
0.334137 -0.320525 0.476336
0.348991 -0.321013 0.511381
0.374623 -0.377066 0.511381
0.387419 -0.324924 0.474678
0.386695 -0.318382 0.497632
0.337400 -0.257963 0.456463
0.371805 -0.291665 0.449028
0.386502 -0.259242 0.459829
0.350790 -0.218887 0.449058
0.373957 -0.225486 0.449057
0.378817 -0.210620 0.449918
0.342664 -0.302165 0.507757
0.334146 -0.270073 0.475958
0.335111 -0.252150 0.496284
0.387423 -0.292196 0.486334
0.387423 -0.265248 0.474875
0.385888 -0.274278 0.501901
0.334153 -0.214103 0.482728
0.354508 -0.227163 0.511506
0.343008 -0.184145 0.508164
0.387437 -0.223559 0.475528
0.386695 -0.215579 0.497636
0.366204 -0.179720 0.511669
0.363865 -0.163821 0.448930
0.376991 -0.135467 0.449098
0.335760 -0.077438 0.434406
0.386691 -0.072880 0.455491
0.325418 -0.149304 0.507223
0.339986 -0.153940 0.509860
0.363399 -0.137179 0.511718
0.374552 -0.176334 0.511383
0.387420 -0.135523 0.486762
0.386360 -0.127040 0.499403
0.330163 -0.071102 0.476745
0.340661 -0.057022 0.506570
0.387364 -0.083608 0.470667
0.381240 -0.095835 0.508462
0.372735 -0.053364 0.511445
0.336509 -0.039623 0.433583
0.335576 -0.004456 0.454739
0.386459 -0.018124 0.451855
0.334112 -0.021845 0.477408
0.354684 -0.014202 0.511510
0.355773 0.007081 0.494059
0.387449 -0.029768 0.482362
0.385944 -0.028401 0.501505
0.378434 0.007041 0.482098
-0.386199 -0.798068 -0.308285
-0.381710 -0.800646 -0.295242
-0.355455 -0.802049 -0.312240
-0.363407 -0.802345 -0.277495
-0.388256 -0.783657 -0.273068
-0.386192 -0.763850 -0.322787
-0.388504 -0.764428 -0.294603
-0.387035 -0.718452 -0.319705
-0.388500 -0.723677 -0.287908
-0.336382 -0.742733 -0.316972
-0.354437 -0.735909 -0.326439
-0.335578 -0.709569 -0.314885
-0.387245 -0.747889 -0.269523
-0.364889 -0.769546 -0.263731
-0.361415 -0.717152 -0.263797
-0.378628 -0.684822 -0.326225
-0.388505 -0.689154 -0.295923
-0.366152 -0.646976 -0.326509
-0.353742 -0.687996 -0.326434
-0.335140 -0.703602 -0.301501
-0.342428 -0.666382 -0.324340
-0.335140 -0.657603 -0.294466
-0.381919 -0.668573 -0.264885
-0.336582 -0.700138 -0.271042
-0.349673 -0.656167 -0.264074
-0.367542 -0.622768 -0.326492
-0.388368 -0.602668 -0.307745
-0.388395 -0.606246 -0.277059
-0.335543 -0.635449 -0.313848
-0.335263 -0.619832 -0.277721
-0.347757 -0.587181 -0.325746
-0.386266 -0.627539 -0.266330
-0.377479 -0.591589 -0.264033
-0.353200 -0.606693 -0.263954
-0.388186 -0.576153 -0.315241
-0.388508 -0.543243 -0.300616
-0.369175 -0.541105 -0.326472
-0.360141 -0.572761 -0.326481
-0.335457 -0.554152 -0.311309
-0.359445 -0.514345 -0.326476
-0.335214 -0.538779 -0.280847
-0.372893 -0.556015 -0.263915
-0.362113 -0.557043 -0.263784
-0.343548 -0.544125 -0.265140
-0.367426 -0.502141 -0.326493
-0.383938 -0.468742 -0.324388
-0.388501 -0.463334 -0.288283
-0.341114 -0.495031 -0.323993
-0.335298 -0.479697 -0.287324
-0.338206 -0.460134 -0.319952
-0.383285 -0.500520 -0.265210
-0.387151 -0.455530 -0.269681
-0.349887 -0.477737 -0.264036
-0.381776 -0.435283 -0.325136
-0.388499 -0.432304 -0.286070
-0.382650 -0.375651 -0.324834
-0.388465 -0.386161 -0.281967
-0.349248 -0.423211 -0.326140
-0.357727 -0.397504 -0.326463
-0.335475 -0.402234 -0.289860
-0.387972 -0.418666 -0.272060
-0.354664 -0.439622 -0.259680
-0.346720 -0.403674 -0.242605
-0.388365 -0.365092 -0.307900
-0.388396 -0.360779 -0.277202
-0.388249 -0.318091 -0.312655
-0.388438 -0.322579 -0.280618
-0.335146 -0.346931 -0.302171
-0.352450 -0.327325 -0.326424
-0.335141 -0.331528 -0.290072
-0.386846 -0.353623 -0.268163
-0.353424 -0.370499 -0.245735
-0.356865 -0.323010 -0.263887
-0.381447 -0.278841 -0.325250
-0.388443 -0.279889 -0.280949
-0.367488 -0.256477 -0.326493
-0.353863 -0.285323 -0.326434
-0.335140 -0.305983 -0.298294
-0.344636 -0.276340 -0.324923
-0.335141 -0.249924 -0.286760
-0.387679 -0.269264 -0.270938
-0.348352 -0.301269 -0.264304
-0.344864 -0.249671 -0.264911
-0.376084 -0.213468 -0.326387
-0.388460 -0.205781 -0.303963
-0.388388 -0.199634 -0.276491
-0.335599 -0.228219 -0.315486
-0.335251 -0.225372 -0.278510
-0.344196 -0.183447 -0.324785
-0.386529 -0.238567 -0.267187
-0.373872 -0.187465 -0.263940
-0.360939 -0.210955 -0.263806
-0.388300 -0.174385 -0.310562
-0.388507 -0.150821 -0.298179
-0.388213 -0.128110 -0.314117
-0.352014 -0.174798 -0.326452
-0.364636 -0.127855 -0.326516
-0.386453 -0.157428 -0.266941
-0.361694 -0.167604 -0.263792
-0.355078 -0.138654 -0.263926
-0.357137 -0.108394 -0.326478
-0.376004 -0.103235 -0.252885
-0.324046 -0.118565 -0.319752
-0.371229 -0.799717 0.456058
-0.386570 -0.754444 0.454962
-0.379235 -0.715055 0.449689
-0.336180 -0.755228 0.461197
-0.345717 -0.717797 0.450847
-0.365949 -0.802362 0.485623
-0.357715 -0.802401 0.479343
-0.359942 -0.801948 0.495138
-0.388436 -0.754167 0.468383
-0.371473 -0.758174 0.511465
-0.385527 -0.718540 0.506085
-0.335364 -0.752613 0.467802
-0.344749 -0.750698 0.508315
-0.356965 -0.710517 0.511641
-0.388169 -0.691576 0.461901
-0.374796 -0.656841 0.449196
-0.360252 -0.671160 0.448976
-0.387672 -0.611068 0.459743
-0.376707 -0.601645 0.449251
-0.347028 -0.618791 0.450323
-0.388484 -0.707165 0.474375
-0.387815 -0.690716 0.496462
-0.388250 -0.654355 0.492852
-0.335418 -0.700690 0.465441
-0.338098 -0.697427 0.500893
-0.335346 -0.651035 0.488090
-0.341792 -0.661930 0.506735
-0.385402 -0.622672 0.506179
-0.388458 -0.585589 0.471209
-0.367682 -0.581485 0.511693
-0.352665 -0.625566 0.511595
-0.335318 -0.585164 0.469817
-0.338287 -0.593500 0.501367
-0.387431 -0.535812 0.458697
-0.337154 -0.569180 0.459169
-0.347314 -0.538282 0.450209
-0.387559 -0.461480 0.459241
-0.359120 -0.482199 0.448987
-0.338763 -0.471885 0.455819
-0.388499 -0.555365 0.478206
-0.388508 -0.532664 0.477363
-0.386200 -0.522207 0.504984
-0.335394 -0.546721 0.490535
-0.335243 -0.541236 0.473068
-0.350530 -0.517661 0.511572
-0.388489 -0.480241 0.474968
-0.367382 -0.485496 0.511698
-0.383046 -0.447268 0.507967
-0.335357 -0.479689 0.468125
-0.348211 -0.488698 0.510465
-0.365202 -0.476639 0.511728
-0.387354 -0.419357 0.457842
-0.377910 -0.404105 0.429972
-0.350202 -0.426923 0.443965
-0.339394 -0.383478 0.453050
-0.368436 -0.345314 0.448734
-0.362667 -0.356391 0.443208
-0.338217 -0.336830 0.456859
-0.388436 -0.414103 0.481888
-0.388499 -0.407420 0.476121
-0.387529 -0.379950 0.497968
-0.335431 -0.416738 0.492426
-0.335140 -0.404154 0.477576
-0.354748 -0.391424 0.511617
-0.388438 -0.345321 0.468468
-0.366620 -0.352769 0.511710
-0.387729 -0.341274 0.496914
-0.335245 -0.347700 0.472497
-0.336143 -0.345348 0.496009
-0.354408 -0.334468 0.511613
-0.386506 -0.282738 0.454686
-0.377926 -0.273133 0.449286
-0.352344 -0.271617 0.449052
-0.384679 -0.235308 0.452520
-0.366523 -0.197888 0.448958
-0.343446 -0.221165 0.451754
-0.388393 -0.302749 0.463100
-0.379998 -0.287052 0.510280
-0.388245 -0.244692 0.493142
-0.335179 -0.308673 0.475891
-0.336567 -0.311251 0.497069
-0.335481 -0.247672 0.462684
-0.348253 -0.250763 0.510489
-0.386636 -0.232207 0.502680
-0.388398 -0.192928 0.463792
-0.377264 -0.181786 0.511509
-0.364807 -0.212251 0.511724
-0.335367 -0.201374 0.484914
-0.336116 -0.187205 0.504956
-0.386462 -0.134233 0.454484
-0.356716 -0.148729 0.448925
-0.346069 -0.126738 0.449683
-0.386314 -0.062299 0.434224
-0.357669 -0.095624 0.429593
-0.333791 -0.072425 0.450951
-0.328179 -0.079343 0.462888
-0.387038 -0.164724 0.500563
-0.388237 -0.136497 0.493616
-0.374912 -0.118408 0.511486
-0.351627 -0.140414 0.511394
-0.388487 -0.085343 0.469496
-0.367344 -0.087756 0.511415
-0.387171 -0.071150 0.499857
-0.338997 -0.105732 0.509364
-0.360850 -0.062446 0.511354
-0.327890 -0.173711 0.505022
-0.327843 -0.077743 0.486891
-0.386806 -0.028180 0.440716
-0.337698 -0.043498 0.431486
-0.336793 -0.001824 0.456819
-0.381491 -0.032635 0.509147
-0.381033 0.006811 0.466811
-0.368868 0.007180 0.494969
-0.357087 -0.041776 0.511479
-0.354960 0.007151 0.493059
-0.353544 0.003540 0.507640
-0.321438 -0.175101 -0.313775
-0.313095 -0.174559 -0.284840
-0.303131 -0.116081 -0.271879
-0.289097 -0.174005 -0.290834
-0.269847 -0.158579 -0.272513
-0.291232 -0.144870 -0.272213
-0.315467 -0.107274 -0.270933
-0.274154 -0.102593 -0.317856
-0.272870 -0.090923 -0.296912
-0.233537 -0.156579 -0.317908
-0.233399 -0.164140 -0.274355
-0.242527 -0.116666 -0.318034
-0.219273 -0.162158 -0.316701
-0.220225 -0.171897 -0.281782
-0.220426 -0.117150 -0.318034
-0.201962 -0.128592 -0.272211
-0.238244 -0.094289 -0.313801
-0.249111 -0.093324 -0.276362
-0.227688 -0.090914 -0.301065
-0.179658 -0.169036 -0.312925
-0.195868 -0.171563 -0.280985
-0.191419 -0.129057 -0.318034
-0.176762 -0.131076 -0.272211
-0.143014 -0.167122 -0.313975
-0.140008 -0.169846 -0.276963
-0.138205 -0.116894 -0.318034
-0.184604 -0.091496 -0.305566
-0.194805 -0.093770 -0.276084
-0.143072 -0.109320 -0.317984
-0.140715 -0.091225 -0.293502
-0.114289 -0.158573 -0.317886
-0.115644 -0.171359 -0.280496
-0.112723 -0.113735 -0.318034
-0.091478 -0.166862 -0.314118
-0.083817 -0.173613 -0.285880
-0.089106 -0.122027 -0.318034
-0.080675 -0.139360 -0.272544
-0.113547 -0.094434 -0.313909
-0.087865 -0.104304 -0.317888
-0.086179 -0.091759 -0.286986
-0.050270 -0.153135 -0.317946
-0.065065 -0.155375 -0.272775
-0.066366 -0.117216 -0.318034
-0.046473 -0.143117 -0.272544
-0.016466 -0.146549 -0.318018
-0.003497 -0.171615 -0.281107
-0.030799 -0.132474 -0.272573
-0.053393 -0.094866 -0.314234
-0.038080 -0.110309 -0.272532
-0.008598 -0.091104 -0.302912
-0.012242 -0.092772 -0.279763
0.000840 -0.173999 -0.291523
0.018942 -0.150990 -0.272416
0.013529 -0.143899 -0.272377
0.035122 -0.151792 -0.317961
0.047799 -0.153246 -0.272393
0.064115 -0.141064 -0.318034
0.061243 -0.116089 -0.272463
0.011200 -0.090951 -0.296911
0.048889 -0.091417 -0.305033
0.045132 -0.097500 -0.276118
0.092874 -0.172485 -0.305340
0.086656 -0.174000 -0.291485
0.086508 -0.140702 -0.318034
0.085120 -0.127349 -0.272235
0.109902 -0.173926 -0.297642
0.123383 -0.155934 -0.272454
0.109694 -0.113328 -0.272519
0.094708 -0.100037 -0.317807
0.085082 -0.090948 -0.297338
0.108185 -0.100631 -0.274561
0.137810 -0.172491 -0.305324
0.136097 -0.165500 -0.274976
0.144167 -0.140236 -0.318034
0.146787 -0.118359 -0.272314
0.193621 -0.167869 -0.313565
0.193065 -0.173948 -0.295839
0.195386 -0.128701 -0.318034
0.135840 -0.111492 -0.318025
0.139047 -0.091229 -0.287468
0.169705 -0.096080 -0.315146
0.195834 -0.111190 -0.272346
0.220292 -0.161448 -0.317090
0.217881 -0.160298 -0.272599
0.230959 -0.128444 -0.318034
0.245650 -0.171193 -0.308711
0.247558 -0.165536 -0.274993
0.238436 -0.133170 -0.318034
0.235540 -0.128363 -0.272211
0.215498 -0.092046 -0.309306
0.213636 -0.092220 -0.281252
0.246624 -0.090961 -0.295346
0.270132 -0.168875 -0.313013
0.267417 -0.170418 -0.278247
0.269080 -0.126616 -0.318034
0.293769 -0.131536 -0.272213
0.310896 -0.172943 -0.281366
0.270917 -0.108872 -0.317975
0.273447 -0.091054 -0.292021
0.304193 -0.090435 -0.308517
-0.318853 -0.134971 -0.270319
-0.317563 -0.152520 0.454561
-0.310376 -0.119096 0.455664
-0.287229 -0.129391 0.457417
-0.298697 -0.110969 0.457447
-0.304912 -0.174604 0.484536
-0.287078 -0.173888 0.468682
-0.273939 -0.171645 0.496010
-0.270534 -0.121639 0.503236
-0.298153 -0.091164 0.481757
-0.258670 -0.173110 0.464383
-0.260835 -0.123160 0.457419
-0.210770 -0.161840 0.457740
-0.263573 -0.109899 0.457446
-0.215773 -0.091917 0.462977
-0.188279 -0.133713 0.457414
-0.148171 -0.173624 0.465217
-0.145696 -0.117214 0.457424
-0.134783 -0.106072 0.457477
-0.264428 -0.172916 0.493223
-0.248697 -0.139176 0.503239
-0.231497 -0.168763 0.499318
-0.218428 -0.126921 0.503238
-0.242879 -0.091061 0.485501
-0.204538 -0.091308 0.468133
-0.184994 -0.174132 0.475626
-0.172002 -0.168554 0.497400
-0.159464 -0.174005 0.471984
-0.146857 -0.169974 0.494480
-0.145232 -0.125014 0.503238
-0.168341 -0.111622 0.503220
-0.156045 -0.092311 0.498904
-0.113478 -0.160360 0.457550
-0.082495 -0.171038 0.461018
-0.090647 -0.118438 0.457423
-0.114072 -0.097753 0.457913
-0.041592 -0.172216 0.462930
-0.048859 -0.121878 0.457420
-0.030565 -0.137080 0.457414
-0.046066 -0.108878 0.457454
-0.123699 -0.173776 0.480130
-0.101539 -0.152649 0.502262
-0.095460 -0.172337 0.488751
-0.073836 -0.146579 0.502800
-0.118251 -0.091014 0.479784
-0.110968 -0.095727 0.501193
-0.079061 -0.106344 0.503064
-0.053309 -0.168768 0.496630
-0.041301 -0.134806 0.503113
-0.019704 -0.164197 0.499365
-0.022534 -0.118428 0.503111
-0.059826 -0.106658 0.503073
-0.013121 -0.090842 0.472140
0.011553 -0.165904 0.458262
0.021708 -0.141235 0.457414
0.050705 -0.152128 0.457454
0.002112 -0.091593 0.463440
0.059426 -0.093935 0.458609
0.071293 -0.123268 0.457419
0.124744 -0.165425 0.458200
0.080677 -0.104671 0.457489
0.128097 -0.091664 0.463159
0.001429 -0.146412 0.502497
0.032426 -0.135366 0.502939
0.043118 -0.147215 0.502994
0.051756 -0.144027 0.503217
0.000959 -0.091022 0.491692
0.052796 -0.090745 0.487573
0.091627 -0.174168 0.476646
0.097588 -0.147370 0.502977
0.103505 -0.173895 0.479419
0.121426 -0.155978 0.501970
0.074198 -0.090691 0.481281
0.089688 -0.095511 0.500939
0.121940 -0.103488 0.502638
0.153045 -0.155844 0.457475
0.181397 -0.147783 0.457429
0.195613 -0.129215 0.457414
0.181045 -0.092572 0.459585
0.223687 -0.158543 0.457490
0.251090 -0.169489 0.458722
0.232828 -0.121856 0.457420
0.245250 -0.104651 0.457489
0.151196 -0.173505 0.481762
0.142987 -0.141426 0.503165
0.196925 -0.173861 0.467881
0.167498 -0.130093 0.503109
0.165058 -0.090820 0.472796
0.166976 -0.090927 0.469565
0.183577 -0.091855 0.496705
0.205479 -0.154550 0.502137
0.223943 -0.115497 0.503234
0.233910 -0.154865 0.502100
0.263582 -0.137392 0.503239
0.196562 -0.091994 0.497455
0.255162 -0.090739 0.487109
0.268645 -0.151961 0.457453
0.288383 -0.128096 0.457418
0.299400 -0.098270 0.457655
0.291729 -0.158446 0.501773
0.292515 -0.118421 0.503232
0.267229 -0.090730 0.485924
0.312370 -0.087255 0.475225
0.326236 -0.169170 0.454516
0.318467 -0.114315 0.454085
0.342018 -0.134517 0.450193
0.344873 -0.091746 0.431362
0.308815 -0.175115 0.473671
0.343862 -0.090735 -0.219909
0.337910 -0.065391 -0.205158
0.383367 -0.080015 -0.206814
0.348242 -0.093417 -0.175876
0.361331 -0.094883 -0.168252
0.337952 -0.070691 -0.168182
0.383516 -0.078249 -0.190142
0.376757 -0.092062 -0.147439
0.383698 -0.072028 -0.145958
0.355701 -0.094739 -0.128333
0.360331 -0.094857 -0.072477
0.337964 -0.072212 -0.096622
0.377510 -0.091435 -0.120819
0.383704 -0.065026 -0.120862
0.383706 -0.060323 -0.096000
0.361801 -0.094895 -0.057452
0.337905 -0.064774 -0.057169
0.337989 -0.075265 -0.014845
0.383447 -0.079075 -0.036963
0.383702 -0.067914 -0.059547
0.383707 -0.048248 -0.035525
0.362477 -0.094912 0.025148
0.337945 -0.069791 0.009701
0.337884 -0.049028 0.037912
0.376378 -0.092378 0.025711
0.383698 -0.071783 0.022484
0.383707 -0.050579 0.062867
0.338077 -0.078491 0.111375
0.337896 -0.063709 0.082842
0.337884 -0.056419 0.102424
0.369814 -0.093749 0.104899
0.383667 -0.059930 0.069134
0.383325 -0.048087 0.117480
0.344431 -0.091099 0.176370
0.337959 -0.071549 0.159691
0.337884 -0.055537 0.184584
0.371067 -0.093467 0.194562
0.383181 -0.055234 0.129520
0.340969 -0.088028 0.211878
0.338143 -0.078707 0.254294
0.337884 -0.049621 0.200785
0.337884 -0.053443 0.257096
0.382205 -0.085954 0.239770
0.383508 -0.055142 0.227965
0.348947 -0.093846 0.268089
0.346890 -0.092595 0.325629
0.337884 -0.058272 0.279413
0.370340 -0.093631 0.267980
0.379174 -0.089589 0.305553
0.383248 -0.067380 0.307724
0.338631 -0.080317 0.361281
0.355368 -0.094730 0.369891
0.337884 -0.054528 0.354779
0.374307 -0.092767 0.347533
0.382791 -0.083767 0.391187
0.383465 -0.071999 0.364469
0.360309 -0.094857 0.403396
0.383242 -0.079466 0.406440
0.384759 -0.070122 0.430263
0.337885 -0.040637 -0.223005
0.339100 -0.010946 -0.205032
0.376438 0.000209 -0.233075
0.337884 -0.038917 -0.163370
0.341465 -0.003899 -0.182007
0.360470 0.002060 -0.153859
0.383707 -0.043237 -0.166161
0.382596 -0.007292 -0.204163
0.337884 -0.035067 -0.127522
0.337884 -0.037267 -0.076963
0.357938 0.001935 -0.124147
0.383707 -0.040670 -0.126842
0.383707 -0.031839 -0.081240
0.379883 -0.002795 -0.114142
0.337884 -0.034694 -0.045903
0.337924 -0.023110 -0.014668
0.348664 0.000573 -0.025922
0.383496 -0.035097 -0.039871
0.383136 -0.020083 -0.006855
0.373000 0.001204 -0.014687
0.337905 -0.025943 0.011310
0.344192 -0.002162 0.003999
0.344164 -0.002179 0.058878
0.383249 -0.024324 -0.002368
0.371153 0.001414 0.010102
0.375813 0.000532 0.045591
0.337884 -0.035116 0.099800
0.343065 -0.002851 0.095362
0.357753 0.001926 0.097325
0.383577 -0.041683 0.100335
0.381614 -0.005146 0.072271
0.337884 -0.029574 0.141844
0.337884 -0.039071 0.194071
0.351966 0.001642 0.143264
0.383443 -0.042182 0.134450
0.383583 -0.035231 0.185891
0.376167 0.000273 0.146492
0.337884 -0.041496 0.215662
0.337947 -0.019763 0.250089
0.349020 0.000791 0.238385
0.383705 -0.041158 0.228597
0.383570 -0.024038 0.255743
0.372144 0.001317 0.246859
0.337897 -0.027156 0.277540
0.341913 -0.003556 0.268372
0.345503 -0.001360 0.312139
0.383335 -0.015435 0.262750
0.370697 0.001479 0.276898
0.378791 -0.001893 0.293770
0.337884 -0.035147 0.370436
0.344272 -0.002113 0.352950
0.363021 0.002185 0.364824
0.383707 -0.036365 0.375766
0.382955 -0.011970 0.328705
0.376880 -0.000316 0.391045
0.361794 0.002124 0.411398
0.385653 -0.038100 0.441107
0.373978 0.003711 0.438050
-0.384428 -0.081296 -0.206577
-0.384727 -0.065813 -0.219423
-0.339138 -0.085442 -0.248323
-0.345695 -0.091044 -0.213625
-0.339325 -0.076654 -0.204062
-0.367532 -0.094872 -0.189487
-0.384716 -0.070074 -0.192479
-0.384737 -0.051226 -0.159948
-0.341956 -0.086796 -0.182307
-0.339333 -0.076939 -0.197600
-0.339207 -0.072520 -0.150053
-0.367985 -0.094853 -0.126214
-0.384701 -0.075624 -0.124505
-0.384737 -0.048774 -0.102434
-0.341093 -0.083955 -0.113754
-0.339222 -0.073052 -0.122365
-0.338992 -0.064948 -0.084302
-0.372229 -0.094672 -0.041335
-0.384696 -0.077352 -0.066603
-0.384737 -0.052177 -0.029817
-0.350114 -0.093738 -0.049464
-0.339270 -0.074735 -0.056525
-0.339179 -0.071521 -0.016101
-0.375560 -0.094531 0.020725
-0.384735 -0.062833 0.025921
-0.384737 -0.049603 0.042503
-0.344854 -0.090533 0.029229
-0.339213 -0.072718 -0.003350
-0.338914 -0.055177 0.038725
-0.368238 -0.094842 0.089949
-0.384734 -0.063449 0.081746
-0.384737 -0.060724 0.098641
-0.346713 -0.091579 0.084286
-0.339135 -0.066764 0.072081
-0.339302 -0.056063 0.104979
-0.376204 -0.094504 0.147130
-0.384704 -0.074412 0.158840
-0.384737 -0.059749 0.170814
-0.358840 -0.094787 0.178044
-0.340017 -0.077579 0.152471
-0.339426 -0.054585 0.163797
-0.384376 -0.081920 0.233614
-0.384720 -0.068569 0.223215
-0.384737 -0.047773 0.246090
-0.362304 -0.094879 0.244631
-0.339631 -0.075732 0.228144
-0.338922 -0.046016 0.240255
-0.384236 -0.083580 0.312123
-0.384737 -0.050264 0.266678
-0.384737 -0.051248 0.321401
-0.352085 -0.094607 0.311006
-0.339413 -0.068065 0.280946
-0.339240 -0.061829 0.315035
-0.384026 -0.086069 0.379543
-0.384737 -0.054620 0.330500
-0.384737 -0.055618 0.388782
-0.360573 -0.094833 0.365629
-0.339154 -0.068007 0.353998
-0.338914 -0.060870 0.382862
-0.384699 -0.076121 0.405805
-0.342255 -0.087777 0.401228
-0.338914 -0.050550 0.400179
-0.384698 -0.019732 -0.235489
-0.367425 0.001950 -0.223512
-0.338920 -0.030278 -0.234557
-0.342019 -0.005439 -0.233728
-0.384699 -0.018550 -0.182728
-0.384286 -0.011636 -0.188135
-0.370804 0.001597 -0.160775
-0.338914 -0.039452 -0.166267
-0.341841 -0.005915 -0.203359
-0.340724 -0.009220 -0.149127
-0.384737 -0.042548 -0.099704
-0.366343 0.002096 -0.126451
-0.338914 -0.042510 -0.132420
-0.338914 -0.029641 -0.070981
-0.339411 -0.013105 -0.119480
-0.384737 -0.034680 -0.067015
-0.384737 -0.041195 -0.013299
-0.368894 0.001810 -0.038554
-0.338914 -0.030303 -0.049017
-0.338960 -0.022563 -0.007485
-0.364249 0.002190 -0.027632
-0.384737 -0.043011 0.027877
-0.384715 -0.022836 0.049246
-0.383787 -0.008229 0.040345
-0.338984 -0.019143 0.006078
-0.364880 0.002220 0.002618
-0.364814 0.002217 0.050170
-0.384708 -0.021033 0.075522
-0.383591 -0.006890 0.063801
-0.369635 0.001728 0.103415
-0.339087 -0.042925 0.102130
-0.340571 -0.009674 0.068772
-0.350776 0.001184 0.098116
-0.384737 -0.035337 0.167215
-0.383271 -0.004705 0.150037
-0.376544 0.000955 0.183132
-0.339144 -0.040470 0.188007
-0.339187 -0.013766 0.154480
-0.349136 0.000189 0.184841
-0.384737 -0.040575 0.250353
-0.372249 0.001435 0.214961
-0.338953 -0.033838 0.224861
-0.339008 -0.015787 0.237557
-0.347597 -0.000744 0.225478
-0.384737 -0.033503 0.283277
-0.384706 -0.020325 0.307717
-0.383291 -0.004842 0.304281
-0.338951 -0.023818 0.277819
-0.362986 0.002128 0.264131
-0.361406 0.002052 0.316081
-0.384698 -0.018170 0.334521
-0.377343 0.000479 0.338341
-0.383368 -0.005371 0.386692
-0.338997 -0.017395 0.348828
-0.359416 0.001955 0.356501
-0.345144 -0.002232 0.362683
-0.384752 -0.020907 0.412016
-0.338915 -0.032267 0.408337
-0.357090 0.002329 0.423842
0.349669 -0.417495 -0.238015
0.347783 -0.399580 -0.212100
0.373873 -0.406541 -0.234635
0.370323 -0.373871 -0.241740
0.347911 -0.410184 -0.142930
0.347722 -0.405439 -0.153167
0.371114 -0.418626 -0.159952
0.372675 -0.384550 -0.173622
0.355274 -0.421191 -0.103285
0.349328 -0.386497 -0.120164
0.362678 -0.424456 -0.121831
0.373976 -0.408170 -0.104617
0.358571 -0.374328 -0.187673
0.362899 -0.373927 -0.177719
0.354336 -0.376189 -0.081957
0.356676 -0.421944 -0.061394
0.347794 -0.398567 -0.043102
0.372285 -0.414966 -0.057386
0.373978 -0.406862 -0.054872
0.373429 -0.390641 -0.007596
0.356822 -0.422023 0.061909
0.347714 -0.406203 0.053086
0.370543 -0.420139 0.035401
0.374000 -0.395953 0.038583
0.352201 -0.379256 -0.021384
0.353545 -0.377325 0.003785
0.371537 -0.381644 0.031471
0.358272 -0.422801 0.106045
0.347749 -0.402865 0.109702
0.373222 -0.412034 0.110420
0.372622 -0.384128 0.086551
0.352612 -0.418818 0.153135
0.349813 -0.383860 0.140787
0.362339 -0.424642 0.140947
0.373979 -0.406422 0.159860
0.361781 -0.373730 0.073581
0.363970 -0.374356 0.079862
0.356697 -0.374677 0.184486
0.353529 -0.420255 0.211230
0.347819 -0.396155 0.214000
0.348131 -0.392999 0.247694
0.373997 -0.397066 0.211064
0.372766 -0.385291 0.231516
0.352178 -0.418022 0.324392
0.347796 -0.398358 0.314980
0.366694 -0.422252 0.306325
0.373983 -0.404722 0.307375
0.354596 -0.375814 0.232589
0.359746 -0.374109 0.272812
0.363145 -0.374025 0.293347
0.356333 -0.421760 0.381090
0.347781 -0.399742 0.365014
0.369185 -0.420885 0.356771
0.373151 -0.388395 0.359965
0.350157 -0.414184 0.421868
0.366023 -0.422617 0.406131
0.379792 -0.380379 0.439716
0.368779 -0.376471 0.352786
0.370181 -0.379108 0.400124
-0.366358 -0.422863 -0.227180
-0.374740 -0.393034 -0.222439
-0.350221 -0.387533 -0.224285
-0.354321 -0.377758 -0.227040
-0.368989 -0.421483 -0.158359
-0.375092 -0.401376 -0.163975
-0.354914 -0.420420 -0.178176
-0.350017 -0.388372 -0.170352
-0.372995 -0.416370 -0.114047
-0.375149 -0.407090 -0.113948
-0.361130 -0.423568 -0.120956
-0.348811 -0.399364 -0.129396
-0.349273 -0.392411 -0.077153
-0.352353 -0.380534 -0.176701
-0.372674 -0.381815 -0.090348
-0.373148 -0.415888 -0.054435
-0.375107 -0.402882 -0.058331
-0.374690 -0.392478 -0.010284
-0.355414 -0.420673 -0.019526
-0.349716 -0.390006 -0.025618
-0.374494 -0.411648 0.052505
-0.375033 -0.395450 0.046388
-0.356250 -0.421097 0.045413
-0.348709 -0.408288 0.039685
-0.366568 -0.374975 -0.025526
-0.362393 -0.373823 -0.009429
-0.357755 -0.374677 0.013529
-0.374115 -0.412842 0.110158
-0.375049 -0.397097 0.103896
-0.356214 -0.421078 0.085792
-0.348990 -0.393949 0.063459
-0.363990 -0.424219 0.130229
-0.375149 -0.407103 0.159119
-0.351592 -0.415054 0.130972
-0.348815 -0.399036 0.131049
-0.350066 -0.388107 0.192455
-0.353082 -0.379492 0.088887
-0.369754 -0.376295 0.167184
-0.372885 -0.416716 0.202840
-0.375156 -0.407813 0.209578
-0.375010 -0.395084 0.248846
-0.359195 -0.422588 0.247657
-0.348817 -0.398866 0.246925
-0.373796 -0.413845 0.321157
-0.375046 -0.396803 0.315256
-0.351239 -0.414409 0.300553
-0.349970 -0.388629 0.282651
-0.366999 -0.375148 0.234956
-0.357769 -0.374674 0.252609
-0.355267 -0.376369 0.279008
-0.372415 -0.418197 0.375170
-0.375043 -0.396463 0.369072
-0.361878 -0.423947 0.351758
-0.350223 -0.387255 0.332427
-0.363951 -0.424239 0.403341
-0.352353 -0.416446 0.403365
-0.350449 -0.381201 0.421460
-0.356056 -0.375242 0.340101
-0.355139 -0.376558 0.401046
