ply
format ascii 1.0
element vertex 1000
property float x
property float y
property float z
end_header
-0.378164 -0.414501 -0.248636
-0.377510 -0.416255 -0.247360
-0.375933 -0.421694 -0.244943
-0.368019 -0.423883 -0.237398
-0.374496 -0.411401 -0.230230
-0.371895 -0.419642 -0.228366
-0.365346 -0.423470 -0.219164
-0.363345 -0.424524 -0.224981
-0.374999 -0.410059 -0.205292
-0.373507 -0.414757 -0.207179
-0.368202 -0.421914 -0.200935
-0.370385 -0.420719 -0.214217
-0.378160 -0.403800 -0.246315
-0.377261 -0.402510 -0.243201
-0.375703 -0.401413 -0.237804
-0.378375 -0.390341 -0.248362
-0.377263 -0.392309 -0.244826
-0.375015 -0.392543 -0.236782
-0.375000 -0.395326 -0.224846
-0.375095 -0.402919 -0.221040
-0.375125 -0.404717 -0.215394
-0.375084 -0.400570 -0.217739
-0.375119 -0.404091 -0.204773
-0.374178 -0.388647 -0.226911
-0.374496 -0.391003 -0.221472
-0.374965 -0.394718 -0.218717
-0.374678 -0.392376 -0.208854
-0.350677 -0.413353 -0.220781
-0.353467 -0.418269 -0.231839
-0.349040 -0.410183 -0.228261
-0.359580 -0.422753 -0.225835
-0.351925 -0.415664 -0.204407
-0.352656 -0.417001 -0.213236
-0.350040 -0.412216 -0.208463
-0.356546 -0.421247 -0.202550
-0.361028 -0.423517 -0.216516
-0.348844 -0.401440 -0.225693
-0.348906 -0.401952 -0.232856
-0.348802 -0.400170 -0.204651
-0.348785 -0.401616 -0.209735
-0.348866 -0.394651 -0.207561
-0.349205 -0.392993 -0.223177
-0.349348 -0.392098 -0.220947
-0.349261 -0.393263 -0.234261
-0.350351 -0.386560 -0.207913
-0.350650 -0.384937 -0.210463
-0.366991 -0.363859 -0.251294
-0.365337 -0.370451 -0.238770
-0.372091 -0.370382 -0.243921
-0.372663 -0.373752 -0.240432
-0.377074 -0.380469 -0.245937
-0.366100 -0.372650 -0.231201
-0.369499 -0.374713 -0.227188
-0.371456 -0.375552 -0.233597
-0.367287 -0.375283 -0.217915
-0.368187 -0.375636 -0.212261
-0.371821 -0.380201 -0.214374
-0.361938 -0.368196 -0.243073
-0.362896 -0.367208 -0.243495
-0.354497 -0.375948 -0.235040
-0.359598 -0.372097 -0.240292
-0.357598 -0.374604 -0.224457
-0.351660 -0.381521 -0.214761
-0.355663 -0.375792 -0.215227
-0.357154 -0.374787 -0.222988
-0.374417 -0.411889 -0.195253
-0.373246 -0.415578 -0.188781
-0.366255 -0.422979 -0.184133
-0.363862 -0.424289 -0.193185
-0.374211 -0.412540 -0.175282
-0.372415 -0.418196 -0.173361
-0.368828 -0.421571 -0.167367
-0.367950 -0.422052 -0.179128
-0.372861 -0.416792 -0.160636
-0.373738 -0.414028 -0.152225
-0.368240 -0.421893 -0.149625
-0.363403 -0.424540 -0.164379
-0.374414 -0.411899 -0.148767
-0.372094 -0.419206 -0.136102
-0.367894 -0.422082 -0.137764
-0.363614 -0.424424 -0.137054
-0.375040 -0.396159 -0.202037
-0.375052 -0.397382 -0.200091
-0.375126 -0.404793 -0.195408
-0.375056 -0.397752 -0.180730
-0.375134 -0.405549 -0.173936
-0.375166 -0.408780 -0.174212
-0.373689 -0.384314 -0.187699
-0.374997 -0.394978 -0.187329
-0.373601 -0.383595 -0.175387
-0.374286 -0.389180 -0.172613
-0.375032 -0.395350 -0.153365
-0.375039 -0.396081 -0.153862
-0.375122 -0.404416 -0.158453
-0.375049 -0.397054 -0.138387
-0.375141 -0.406332 -0.146670
-0.375149 -0.407136 -0.146474
-0.373866 -0.385754 -0.163282
-0.374647 -0.392126 -0.153216
-0.373705 -0.384449 -0.142289
-0.375024 -0.395194 -0.142519
-0.351136 -0.414220 -0.190498
-0.350983 -0.413941 -0.193322
-0.361802 -0.423909 -0.197350
-0.360278 -0.423137 -0.197088
-0.353115 -0.417839 -0.178697
-0.352188 -0.416145 -0.175888
-0.351499 -0.414885 -0.185321
-0.361749 -0.423882 -0.169997
-0.357416 -0.421687 -0.184429
-0.352564 -0.416833 -0.153429
-0.348966 -0.410252 -0.155257
-0.358805 -0.422391 -0.153208
-0.360820 -0.423412 -0.168575
-0.353976 -0.419414 -0.136606
-0.352297 -0.416344 -0.150176
-0.359381 -0.422683 -0.137926
-0.354438 -0.420179 -0.149472
-0.348708 -0.408395 -0.191299
-0.348741 -0.405504 -0.198464
-0.348756 -0.404217 -0.201354
-0.348760 -0.403873 -0.169590
-0.348698 -0.409231 -0.185468
-0.348773 -0.402740 -0.178889
-0.349920 -0.388899 -0.193630
-0.350388 -0.386363 -0.192992
-0.348908 -0.394392 -0.181906
-0.349322 -0.392143 -0.184737
-0.348772 -0.402821 -0.156471
-0.348710 -0.408190 -0.157755
-0.348862 -0.394982 -0.156959
-0.348749 -0.404797 -0.146630
-0.348748 -0.404908 -0.144513
-0.348866 -0.394640 -0.141645
-0.349257 -0.392496 -0.160360
-0.350941 -0.383362 -0.159694
-0.349875 -0.389146 -0.167311
-0.349490 -0.391234 -0.141671
-0.350134 -0.387741 -0.148509
-0.372683 -0.417351 -0.131290
-0.372913 -0.416627 -0.118936
-0.369541 -0.421181 -0.117061
-0.364405 -0.423992 -0.134762
-0.374391 -0.411973 -0.110072
-0.372071 -0.419280 -0.110042
-0.370577 -0.420615 -0.109417
-0.369399 -0.421259 -0.115440
-0.373482 -0.414835 -0.094648
-0.372812 -0.416945 -0.083823
-0.363527 -0.424471 -0.086468
-0.367892 -0.422083 -0.098370
-0.374976 -0.410129 -0.073327
-0.373361 -0.415216 -0.072979
-0.370819 -0.420482 -0.067086
-0.365676 -0.423296 -0.084504
-0.375128 -0.404983 -0.131201
-0.375132 -0.405397 -0.123403
-0.375137 -0.405929 -0.123159
-0.375061 -0.398310 -0.108037
-0.375125 -0.404710 -0.103560
-0.373935 -0.386324 -0.134302
-0.373760 -0.384892 -0.135874
-0.374630 -0.391988 -0.126263
-0.373790 -0.385136 -0.118752
-0.374841 -0.393706 -0.108314
-0.375034 -0.395573 -0.102228
-0.375166 -0.408761 -0.091723
-0.375138 -0.406017 -0.092472
-0.375047 -0.396907 -0.083266
-0.375136 -0.405789 -0.069782
-0.373918 -0.386183 -0.095487
-0.374005 -0.386893 -0.099997
-0.374809 -0.393441 -0.090107
-0.373739 -0.384725 -0.081647
-0.374438 -0.390417 -0.075556
-0.354333 -0.420068 -0.127377
-0.348796 -0.409940 -0.122603
-0.361641 -0.423827 -0.123307
-0.357530 -0.421745 -0.131691
-0.350792 -0.413591 -0.103804
-0.349338 -0.410931 -0.111489
-0.358512 -0.422242 -0.109505
-0.356593 -0.421270 -0.112193
-0.351063 -0.414086 -0.091680
-0.351618 -0.415101 -0.100602
-0.349710 -0.411612 -0.092040
-0.357391 -0.421675 -0.099718
-0.351858 -0.415541 -0.072136
-0.353892 -0.419261 -0.083281
-0.352979 -0.417591 -0.085377
-0.362295 -0.424159 -0.071220
-0.358067 -0.422017 -0.080312
-0.348801 -0.400312 -0.122833
-0.348848 -0.396216 -0.121963
-0.348724 -0.406951 -0.103765
-0.348700 -0.409083 -0.106187
-0.348786 -0.401567 -0.116986
-0.349190 -0.392861 -0.121521
-0.349771 -0.389711 -0.125844
-0.349473 -0.391326 -0.132853
-0.350462 -0.385961 -0.106623
-0.349154 -0.393055 -0.118730
-0.348799 -0.400429 -0.086953
-0.348816 -0.398977 -0.086574
-0.348821 -0.398553 -0.098430
-0.348738 -0.405779 -0.072907
-0.348798 -0.400529 -0.074218
-0.348840 -0.396891 -0.076310
-0.349178 -0.392929 -0.088216
-0.350617 -0.385118 -0.102682
-0.349569 -0.390806 -0.078972
-0.349145 -0.393105 -0.081057
-0.351108 -0.382454 -0.081325
-0.367276 -0.375260 -0.189800
-0.371108 -0.378855 -0.196662
-0.372336 -0.381176 -0.186576
-0.367084 -0.375183 -0.175869
-0.373021 -0.382471 -0.184413
-0.373204 -0.382817 -0.174240
-0.368949 -0.375932 -0.162896
-0.371565 -0.379719 -0.169017
-0.373054 -0.382533 -0.161215
-0.369712 -0.376239 -0.150586
-0.370179 -0.377099 -0.144027
-0.352917 -0.379728 -0.198365
-0.355651 -0.375821 -0.195465
-0.358340 -0.374569 -0.194889
-0.362914 -0.373727 -0.198654
-0.355120 -0.376580 -0.182033
-0.359454 -0.374364 -0.182363
-0.359918 -0.374279 -0.173648
-0.353699 -0.378610 -0.170053
-0.358678 -0.374507 -0.162935
-0.358443 -0.374550 -0.158388
-0.354138 -0.377983 -0.143516
-0.356515 -0.374905 -0.148053
-0.360986 -0.374082 -0.149087
-0.368094 -0.375589 -0.130252
-0.369773 -0.376332 -0.133240
-0.373294 -0.382985 -0.120635
-0.368994 -0.375951 -0.110338
-0.370514 -0.377731 -0.106899
-0.372118 -0.380764 -0.108950
-0.369203 -0.376034 -0.097903
-0.371701 -0.379975 -0.100261
-0.366402 -0.374909 -0.085695
-0.369339 -0.376089 -0.085052
-0.371521 -0.379636 -0.085968
-0.354925 -0.376858 -0.124199
-0.353779 -0.378496 -0.135746
-0.357259 -0.374768 -0.134356
-0.352907 -0.379743 -0.113216
-0.354672 -0.377220 -0.121807
-0.359492 -0.374357 -0.116547
-0.361756 -0.373940 -0.106784
-0.351722 -0.381436 -0.102063
-0.357586 -0.374708 -0.106429
-0.359845 -0.374292 -0.093891
-0.354532 -0.377419 -0.080805
-0.356349 -0.374935 -0.077307
-0.359018 -0.374444 -0.079373
-0.373373 -0.415178 -0.059728
-0.373372 -0.415180 -0.054619
-0.369909 -0.420980 -0.052148
-0.364984 -0.423674 -0.056635
-0.374732 -0.410898 -0.048607
-0.373979 -0.413271 -0.034788
-0.366074 -0.423078 -0.036922
-0.363234 -0.424632 -0.041453
-0.373475 -0.414857 -0.026215
-0.372437 -0.418128 -0.020303
-0.369376 -0.421272 -0.017419
-0.367467 -0.422316 -0.028316
-0.373977 -0.413275 -0.017946
-0.372504 -0.417916 -0.002204
-0.367792 -0.422138 -0.000676
-0.366728 -0.422720 -0.017437
-0.375083 -0.400505 -0.063678
-0.375153 -0.407502 -0.061397
-0.375150 -0.407169 -0.051179
-0.375102 -0.402396 -0.052026
-0.375095 -0.401727 -0.038177
-0.373691 -0.384328 -0.063586
-0.374296 -0.389265 -0.055812
-0.373939 -0.386356 -0.041493
-0.373990 -0.386767 -0.037402
-0.374719 -0.392712 -0.047835
-0.375048 -0.396921 -0.031462
-0.375121 -0.404317 -0.029441
-0.375090 -0.401227 -0.011075
-0.375116 -0.403753 -0.016754
-0.375154 -0.407634 -0.014941
-0.374699 -0.392549 -0.033755
-0.374685 -0.392432 -0.023717
-0.374046 -0.387224 -0.014725
-0.375021 -0.395176 -0.012477
-0.374513 -0.391029 -0.006122
-0.353276 -0.418134 -0.060210
-0.350915 -0.413815 -0.059797
-0.362590 -0.424308 -0.055811
-0.358472 -0.422222 -0.068539
-0.354047 -0.419544 -0.041000
-0.350706 -0.413434 -0.048440
-0.361237 -0.423622 -0.042049
-0.355641 -0.420788 -0.044516
-0.353849 -0.419183 -0.020324
-0.351734 -0.415314 -0.034104
-0.359815 -0.422902 -0.026811
-0.360862 -0.423433 -0.035421
-0.353693 -0.418897 -0.011778
-0.349247 -0.410765 -0.006988
-0.362269 -0.424145 -0.017985
-0.357787 -0.421875 -0.016903
-0.348715 -0.407769 -0.062417
-0.348778 -0.402233 -0.053656
-0.348758 -0.403973 -0.069779
-0.348860 -0.395181 -0.037059
-0.348737 -0.405871 -0.039110
-0.348732 -0.406301 -0.050734
-0.349248 -0.392547 -0.053274
-0.349861 -0.389222 -0.066585
-0.349489 -0.391239 -0.040413
-0.349940 -0.388790 -0.038567
-0.349024 -0.393761 -0.052101
-0.348744 -0.405248 -0.029894
-0.348784 -0.401745 -0.033337
-0.348756 -0.404191 -0.033516
-0.348745 -0.405143 -0.010409
-0.348850 -0.396001 -0.018867
-0.348823 -0.398363 -0.013042
-0.350969 -0.383210 -0.021146
-0.351090 -0.382551 -0.030278
-0.349704 -0.390074 -0.013751
-0.350929 -0.383426 -0.009281
-0.375026 -0.409971 0.008671
-0.372490 -0.417960 0.010105
-0.373504 -0.414767 0.011395
-0.367134 -0.422498 0.007224
-0.373887 -0.413561 0.018964
-0.374639 -0.411190 0.030517
-0.373033 -0.416248 0.025303
-0.363296 -0.424598 0.020992
-0.374382 -0.412002 0.033102
-0.372763 -0.417099 0.048619
-0.369940 -0.420963 0.045289
-0.368945 -0.421507 0.038630
-0.374606 -0.411295 0.053002
-0.372265 -0.418668 0.061936
-0.371839 -0.419924 0.061507
-0.367660 -0.422211 0.050602
-0.375048 -0.396934 -0.000324
-0.375096 -0.401736 0.003762
-0.375164 -0.408599 0.005153
-0.375067 -0.398869 0.025467
-0.375111 -0.403292 0.022058
-0.375093 -0.401499 0.028334
-0.373619 -0.383746 0.012560
-0.374691 -0.392483 0.006652
-0.374637 -0.392044 0.015148
-0.374435 -0.390395 0.025846
-0.375107 -0.402929 0.035149
-0.375108 -0.403020 0.037212
-0.375056 -0.397785 0.044833
-0.375031 -0.395290 0.052612
-0.375173 -0.409498 0.056246
-0.375133 -0.405544 0.051802
-0.373691 -0.384330 0.030635
-0.374922 -0.394369 0.041082
-0.374359 -0.389775 0.051287
-0.374624 -0.391940 0.052260
-0.353191 -0.417980 0.012080
-0.351023 -0.414014 -0.000308
-0.350242 -0.412585 -0.001100
-0.354874 -0.420400 0.009690
-0.352029 -0.415853 0.026951
-0.350329 -0.412744 0.028760
-0.350118 -0.412358 0.019110
-0.360873 -0.423438 0.019744
-0.357306 -0.421632 0.020571
-0.353342 -0.418255 0.040810
-0.349313 -0.410885 0.031439
-0.357987 -0.421977 0.041833
-0.362473 -0.424248 0.029781
-0.353506 -0.418555 0.054900
-0.352312 -0.416370 0.047125
-0.358486 -0.422229 0.057210
-0.355352 -0.420642 0.058342
-0.348846 -0.396346 0.012576
-0.348850 -0.395968 0.010889
-0.348794 -0.400871 0.004370
-0.348780 -0.402098 0.022340
-0.348843 -0.396592 0.015674
-0.348763 -0.403550 0.016028
-0.348986 -0.393968 0.001577
-0.350516 -0.385663 -0.001469
-0.349397 -0.391736 0.021758
-0.349961 -0.388677 0.019822
-0.350839 -0.383915 0.022648
-0.348771 -0.402889 0.039955
-0.348774 -0.402607 0.031793
-0.348755 -0.404296 0.058237
-0.348725 -0.406873 0.057066
-0.348856 -0.395462 0.052089
-0.349560 -0.390854 0.044924
-0.348881 -0.394538 0.041335
-0.350168 -0.387553 0.038139
-0.349344 -0.392023 0.060624
-0.350072 -0.388077 0.050716
-0.364052 -0.373964 -0.062862
-0.371179 -0.378990 -0.060093
-0.372775 -0.382005 -0.056418
-0.365130 -0.374397 -0.042275
-0.369960 -0.376686 -0.048708
-0.373279 -0.382958 -0.041582
-0.366313 -0.374873 -0.029306
-0.370243 -0.377220 -0.029621
-0.373299 -0.382995 -0.033754
-0.368312 -0.375676 -0.018066
-0.370158 -0.377060 -0.015617
-0.373343 -0.383079 -0.003819
-0.355317 -0.376298 -0.058564
-0.354928 -0.376854 -0.063024
-0.361514 -0.373985 -0.056346
-0.354519 -0.377439 -0.040444
-0.353787 -0.378484 -0.048656
-0.357523 -0.374719 -0.041196
-0.354065 -0.378088 -0.027313
-0.354308 -0.377740 -0.039830
-0.362340 -0.373833 -0.028753
-0.352633 -0.380134 -0.008982
-0.354158 -0.377954 -0.018901
-0.363248 -0.373666 -0.015665
-0.365574 -0.374576 0.000761
-0.370927 -0.378513 0.003537
-0.372550 -0.381581 0.003596
-0.363383 -0.373695 0.026174
-0.370904 -0.378469 0.019875
-0.371279 -0.379178 0.025365
-0.363697 -0.373821 0.031651
-0.371300 -0.379219 0.039048
-0.371955 -0.380456 0.046002
-0.364999 -0.374345 0.048144
-0.372679 -0.381823 0.050081
-0.372391 -0.381279 0.062671
-0.352791 -0.379909 0.007947
-0.357147 -0.374789 -0.004900
-0.362348 -0.373832 0.006535
-0.355463 -0.376089 0.022614
-0.353255 -0.379245 0.012959
-0.362281 -0.373844 0.017259
-0.351614 -0.381590 0.042168
-0.355601 -0.375892 0.032935
-0.363016 -0.373709 0.042166
-0.355695 -0.375758 0.057058
-0.353980 -0.378209 0.044497
-0.357486 -0.374726 0.057474
-0.373077 -0.416112 0.072331
-0.373119 -0.415978 0.076569
-0.367154 -0.422487 0.081165
-0.364437 -0.423974 0.072523
-0.372635 -0.417502 0.084549
-0.374518 -0.411573 0.096759
-0.370209 -0.420816 0.088025
-0.363363 -0.424561 0.094832
-0.372586 -0.417658 0.101135
-0.371943 -0.419681 0.103054
-0.369549 -0.421177 0.108420
-0.364699 -0.423831 0.097178
-0.372654 -0.417443 0.120709
-0.372153 -0.419021 0.129027
-0.369817 -0.421030 0.130977
-0.364206 -0.424100 0.115284
-0.375048 -0.396930 0.063856
-0.375164 -0.408611 0.078088
-0.375094 -0.401540 0.075332
-0.375126 -0.404805 0.081972
-0.375143 -0.406526 0.093065
-0.373837 -0.385523 0.064812
-0.374466 -0.390648 0.065924
-0.374475 -0.390718 0.070256
-0.374110 -0.387748 0.088981
-0.375026 -0.395215 0.081415
-0.375062 -0.398337 0.104175
-0.375169 -0.409129 0.097979
-0.375079 -0.400049 0.111079
-0.375119 -0.404067 0.117382
-0.375092 -0.401418 0.122410
-0.374036 -0.387145 0.102145
-0.374216 -0.388609 0.105331
-0.374648 -0.392129 0.102390
-0.374330 -0.389538 0.114705
-0.374923 -0.394373 0.119334
-0.353425 -0.418407 0.074364
-0.350567 -0.413179 0.069126
-0.356947 -0.421449 0.078529
-0.357244 -0.421600 0.063539
-0.351785 -0.415407 0.094752
-0.352522 -0.416756 0.082828
-0.358544 -0.422259 0.089285
-0.359360 -0.422672 0.079879
-0.354316 -0.420037 0.110855
-0.353778 -0.419053 0.097359
-0.348999 -0.410312 0.110396
-0.354961 -0.420444 0.103780
-0.351211 -0.414358 0.122784
-0.351225 -0.414383 0.121892
-0.349190 -0.410662 0.113315
-0.360055 -0.423024 0.122098
-0.358564 -0.422268 0.113688
-0.348751 -0.404618 0.069713
-0.348836 -0.397212 0.076495
-0.348707 -0.408486 0.093606
-0.348711 -0.408094 0.093704
-0.348790 -0.401267 0.087823
-0.349906 -0.388974 0.071646
-0.349745 -0.389852 0.069653
-0.350629 -0.385051 0.070095
-0.349520 -0.391072 0.092685
-0.350136 -0.387727 0.084760
-0.348702 -0.408849 0.110019
-0.348774 -0.402596 0.111812
-0.348827 -0.398016 0.098198
-0.348753 -0.404449 0.122788
-0.348762 -0.403633 0.121341
-0.348763 -0.403578 0.117033
-0.349693 -0.390134 0.108583
-0.349876 -0.389137 0.098691
-0.349193 -0.392844 0.116897
-0.349488 -0.391247 0.127280
-0.350192 -0.387422 0.122117
-0.374858 -0.410500 0.140290
-0.374276 -0.412334 0.144824
-0.371425 -0.420150 0.140643
-0.364977 -0.423678 0.141087
-0.373803 -0.413826 0.153047
-0.373135 -0.415928 0.164618
-0.366485 -0.422853 0.163607
-0.367337 -0.422387 0.151086
-0.374564 -0.411426 0.168654
-0.373989 -0.413238 0.176895
-0.370046 -0.420905 0.175439
-0.368621 -0.421685 0.170018
-0.374881 -0.410428 0.186738
-0.374856 -0.410508 0.195875
-0.367280 -0.422418 0.198193
-0.364167 -0.424121 0.179783
-0.375111 -0.403263 0.133504
-0.375127 -0.404871 0.135502
-0.375147 -0.406855 0.146828
-0.375051 -0.397256 0.155006
-0.375129 -0.405050 0.154148
-0.373713 -0.384507 0.142421
-0.374647 -0.392124 0.138592
-0.374288 -0.389197 0.148434
-0.374588 -0.391640 0.146730
-0.374772 -0.393142 0.153413
-0.375091 -0.401246 0.168662
-0.375072 -0.399396 0.175570
-0.375112 -0.403401 0.180108
-0.375039 -0.396028 0.183798
-0.375172 -0.409391 0.192937
-0.373918 -0.386179 0.172166
-0.375013 -0.395104 0.162929
-0.374109 -0.387740 0.183012
-0.374838 -0.393677 0.187947
-0.374812 -0.393470 0.187588
-0.350728 -0.413475 0.144034
-0.348803 -0.409953 0.132229
-0.358557 -0.422265 0.144149
-0.358352 -0.422161 0.130743
-0.349916 -0.411989 0.161215
-0.348831 -0.410005 0.158153
-0.359045 -0.422512 0.159119
-0.354904 -0.420415 0.152387
-0.353952 -0.419372 0.166827
-0.349346 -0.410947 0.164783
-0.357189 -0.421572 0.176718
-0.355032 -0.420479 0.177743
-0.353626 -0.418775 0.185520
-0.351941 -0.415693 0.179727
-0.356550 -0.421249 0.193440
-0.356933 -0.421443 0.179943
-0.348726 -0.406793 0.145417
-0.348703 -0.408795 0.140118
-0.348823 -0.398365 0.136630
-0.348715 -0.407793 0.159293
-0.348822 -0.398438 0.159581
-0.348830 -0.397708 0.155433
-0.350651 -0.384935 0.144752
-0.351091 -0.382545 0.132921
-0.349646 -0.390389 0.154390
-0.350466 -0.385937 0.158936
-0.350350 -0.386568 0.156167
-0.348813 -0.399191 0.177321
-0.348810 -0.399447 0.170844
-0.348831 -0.397702 0.166811
-0.348729 -0.406543 0.186731
-0.348865 -0.394718 0.188755
-0.348814 -0.399181 0.185771
-0.349659 -0.390314 0.168599
-0.350278 -0.386957 0.163465
-0.349175 -0.392941 0.186383
-0.350396 -0.386315 0.186708
-0.350241 -0.387160 0.179154
-0.368348 -0.375691 0.077751
-0.371614 -0.379811 0.067710
-0.364289 -0.374059 0.090526
-0.366742 -0.375045 0.090718
-0.370333 -0.377391 0.085664
-0.364799 -0.374264 0.106249
-0.366644 -0.375006 0.109417
-0.373033 -0.382493 0.107618
-0.363939 -0.373919 0.124461
-0.365159 -0.374409 0.124972
-0.371231 -0.379088 0.124812
-0.354974 -0.376788 0.073691
-0.354783 -0.377061 0.059437
-0.360045 -0.374255 0.061064
-0.353792 -0.378477 0.091897
-0.352844 -0.379832 0.079708
-0.357487 -0.374726 0.083309
-0.352908 -0.379740 0.103806
-0.356204 -0.375031 0.104627
-0.357023 -0.374811 0.103078
-0.351867 -0.381228 0.124879
-0.351985 -0.381060 0.113830
-0.356891 -0.374836 0.115607
-0.363857 -0.373885 0.135631
-0.369287 -0.376068 0.136052
-0.370551 -0.377803 0.139587
-0.363530 -0.373754 0.159460
-0.369704 -0.376236 0.159402
-0.371850 -0.380258 0.160789
-0.365884 -0.374700 0.163948
-0.368508 -0.375755 0.167332
-0.370722 -0.378125 0.175297
-0.366154 -0.374809 0.183872
-0.366324 -0.374877 0.193606
-0.371844 -0.380246 0.190536
-0.352351 -0.380537 0.135859
-0.353146 -0.379400 0.131820
-0.357172 -0.374784 0.124467
-0.354262 -0.377805 0.157363
-0.353666 -0.378657 0.143598
-0.360484 -0.374175 0.144116
-0.353790 -0.378480 0.172092
-0.352894 -0.379760 0.163646
-0.356548 -0.374899 0.170240
-0.351994 -0.381047 0.185995
-0.354197 -0.377898 0.184603
-0.356374 -0.374931 0.188767
-0.373447 -0.414946 0.200761
-0.374318 -0.412203 0.212338
-0.372391 -0.418273 0.213695
-0.366003 -0.423117 0.208370
-0.373677 -0.414222 0.219472
-0.374858 -0.410501 0.228203
-0.370107 -0.420872 0.224510
-0.366216 -0.423000 0.224941
-0.372793 -0.417004 0.235615
-0.372145 -0.419046 0.242911
-0.364118 -0.424148 0.245637
-0.364224 -0.424090 0.230941
-0.374821 -0.410617 0.252674
-0.372330 -0.418463 0.266078
-0.371246 -0.420249 0.266950
-0.365462 -0.423413 0.257777
-0.375106 -0.402768 0.195770
-0.375060 -0.398179 0.200445
-0.375148 -0.407020 0.205034
-0.375070 -0.399213 0.212526
-0.375133 -0.405504 0.216940
-0.375097 -0.401903 0.228716
-0.374941 -0.394522 0.196507
-0.375008 -0.395070 0.205741
-0.374086 -0.387549 0.221127
-0.374830 -0.393614 0.217272
-0.375100 -0.402192 0.231204
-0.375061 -0.398247 0.230300
-0.375124 -0.404620 0.240250
-0.375151 -0.407296 0.246235
-0.375136 -0.405815 0.253419
-0.375068 -0.399009 0.261747
-0.374134 -0.387942 0.233689
-0.374379 -0.389936 0.239789
-0.374093 -0.387610 0.248772
-0.374241 -0.388818 0.258936
-0.353239 -0.418067 0.199197
-0.349210 -0.410698 0.195861
-0.349933 -0.412020 0.203777
-0.354444 -0.420182 0.206855
-0.350445 -0.412956 0.228536
-0.350353 -0.412788 0.225997
-0.349689 -0.411574 0.214221
-0.360017 -0.423005 0.225210
-0.355889 -0.420914 0.225072
-0.352126 -0.416031 0.238468
-0.351591 -0.415052 0.231749
-0.360210 -0.423102 0.241554
-0.358782 -0.422379 0.233800
-0.353260 -0.418106 0.253389
-0.350578 -0.413199 0.254561
-0.361458 -0.423734 0.255230
-0.357359 -0.421658 0.246130
-0.348697 -0.409304 0.201289
-0.348762 -0.403650 0.196468
-0.348734 -0.406088 0.198121
-0.348742 -0.405445 0.220635
-0.348852 -0.395819 0.226986
-0.348781 -0.402014 0.213798
-0.349742 -0.389864 0.211420
-0.349899 -0.389016 0.196810
-0.350507 -0.385717 0.224984
-0.349179 -0.392922 0.212244
-0.350641 -0.384988 0.219062
-0.348761 -0.403752 0.240161
-0.348777 -0.402343 0.231304
-0.348768 -0.403102 0.255382
-0.348723 -0.407050 0.253453
-0.348807 -0.399760 0.250369
-0.348960 -0.394109 0.237341
-0.349537 -0.390978 0.243990
-0.350896 -0.383601 0.237987
-0.349668 -0.390268 0.258585
-0.351040 -0.382820 0.260095
-0.374448 -0.411793 0.272252
-0.372262 -0.418676 0.278042
-0.368374 -0.421820 0.278615
-0.368901 -0.421531 0.270676
-0.374953 -0.410202 0.282297
-0.371938 -0.419699 0.289705
-0.367824 -0.422121 0.298043
-0.368770 -0.421603 0.283194
-0.375061 -0.409860 0.301503
-0.373755 -0.413975 0.310178
-0.370419 -0.420701 0.305626
-0.368511 -0.421745 0.298532
-0.374179 -0.412639 0.317691
-0.372031 -0.419406 0.321279
-0.369288 -0.421319 0.328006
-0.363625 -0.424418 0.317702
-0.375118 -0.404026 0.263480
-0.375095 -0.401688 0.273117
-0.375061 -0.398254 0.275403
-0.375056 -0.397810 0.288882
-0.375081 -0.400261 0.289567
-0.373862 -0.385728 0.264478
-0.373728 -0.384631 0.265030
-0.374581 -0.391582 0.269243
-0.373833 -0.385492 0.286901
-0.374267 -0.389025 0.292338
-0.375098 -0.402016 0.298112
-0.375117 -0.403893 0.307435
-0.375120 -0.404196 0.304024
-0.375112 -0.403346 0.316397
-0.375155 -0.407735 0.319949
-0.373756 -0.384864 0.298588
-0.373768 -0.384958 0.295986
-0.374784 -0.393240 0.302383
-0.374388 -0.390016 0.315278
-0.374018 -0.386994 0.326009
-0.349147 -0.410582 0.277292
-0.353721 -0.418949 0.262305
-0.362435 -0.424229 0.271087
-0.355651 -0.420793 0.270392
-0.352867 -0.417387 0.291223
-0.349498 -0.411224 0.285951
-0.361041 -0.423523 0.284653
-0.357470 -0.421715 0.288070
-0.352547 -0.416801 0.306612
-0.353586 -0.418702 0.297207
-0.348871 -0.410077 0.307257
-0.362408 -0.424216 0.311358
-0.353321 -0.418216 0.316769
-0.352362 -0.416462 0.317632
-0.351001 -0.413974 0.312710
-0.360806 -0.423404 0.322206
-0.361773 -0.423894 0.313824
-0.348720 -0.407297 0.272555
-0.348848 -0.396159 0.262196
-0.348735 -0.406047 0.263920
-0.348747 -0.404980 0.294901
-0.348855 -0.395606 0.280128
-0.349613 -0.390568 0.276190
-0.348959 -0.394117 0.270280
-0.351117 -0.382402 0.275587
-0.349098 -0.393361 0.288376
-0.350085 -0.388005 0.279939
-0.348757 -0.404121 0.302892
-0.348705 -0.408614 0.299327
-0.348866 -0.394648 0.302012
-0.348820 -0.398589 0.327066
-0.348723 -0.407070 0.316063
-0.348839 -0.396968 0.318966
-0.349891 -0.389058 0.302619
-0.350678 -0.384784 0.307825
-0.350704 -0.384643 0.327915
-0.349954 -0.388714 0.326571
-0.350207 -0.387344 0.314437
-0.365205 -0.374427 0.204775
-0.370339 -0.377402 0.200807
-0.372932 -0.382302 0.200825
-0.367332 -0.375282 0.218659
-0.371255 -0.379133 0.212855
-0.373327 -0.383048 0.226648
-0.366467 -0.374935 0.237941
-0.371041 -0.378728 0.236679
-0.373386 -0.383160 0.239604
-0.368153 -0.375612 0.257679
-0.370771 -0.378218 0.253053
-0.372289 -0.381088 0.256345
-0.354965 -0.376801 0.198291
-0.361271 -0.374030 0.197661
-0.361746 -0.373942 0.209496
-0.355101 -0.376606 0.216848
-0.359238 -0.374404 0.212106
-0.363047 -0.373703 0.227461
-0.354714 -0.377160 0.241092
-0.357395 -0.374743 0.234204
-0.361210 -0.374041 0.237404
-0.353217 -0.379299 0.259559
-0.356524 -0.374903 0.250720
-0.361901 -0.373914 0.251672
-0.367027 -0.375160 0.272936
-0.369947 -0.376661 0.272455
-0.372956 -0.382348 0.275432
-0.369105 -0.375995 0.288256
-0.370751 -0.378180 0.290564
-0.372728 -0.381917 0.286459
-0.366805 -0.375070 0.303218
-0.369947 -0.376661 0.301298
-0.372309 -0.381125 0.305842
-0.369107 -0.375996 0.322534
-0.372885 -0.382214 0.314080
-0.354449 -0.377538 0.271933
-0.353722 -0.378577 0.262397
-0.357301 -0.374760 0.264280
-0.362901 -0.373730 0.267034
-0.354076 -0.378072 0.282286
-0.357591 -0.374707 0.283642
-0.358651 -0.374512 0.288588
-0.355745 -0.375686 0.303698
-0.360269 -0.374214 0.295559
-0.360964 -0.374086 0.305564
-0.352784 -0.379918 0.315474
-0.356712 -0.374869 0.310541
-0.358725 -0.374498 0.324674
-0.373148 -0.415886 0.336927
-0.372101 -0.419186 0.335041
-0.368206 -0.421912 0.342437
-0.368892 -0.421536 0.337241
-0.374130 -0.412793 0.349427
-0.372406 -0.418225 0.356609
-0.365901 -0.423173 0.359288
-0.365476 -0.423405 0.356843
-0.372862 -0.416788 0.367976
-0.373289 -0.415441 0.380810
-0.371127 -0.420314 0.374096
-0.367788 -0.422140 0.369387
-0.373952 -0.413353 0.389517
-0.372103 -0.419177 0.391797
-0.367468 -0.422315 0.394198
-0.364204 -0.424101 0.392747
-0.375081 -0.400282 0.330933
-0.375142 -0.406399 0.337061
-0.375120 -0.404203 0.349271
-0.375040 -0.396173 0.354920
-0.375078 -0.399998 0.357738
-0.373670 -0.384162 0.333669
-0.374520 -0.391085 0.340031
-0.373974 -0.386641 0.350237
-0.373956 -0.386492 0.349992
-0.374462 -0.390615 0.353500
-0.375110 -0.403213 0.365398
-0.375141 -0.406276 0.374651
-0.375100 -0.402202 0.383678
-0.375096 -0.401829 0.380590
-0.375122 -0.404388 0.390210
-0.373789 -0.385134 0.367352
-0.374845 -0.393741 0.375019
-0.374780 -0.393209 0.380099
-0.374809 -0.393446 0.392897
-0.374079 -0.387500 0.390177
-0.351468 -0.414827 0.341158
-0.349922 -0.412000 0.333497
-0.361562 -0.423787 0.333445
-0.358116 -0.422042 0.329414
-0.351915 -0.415645 0.352115
-0.349842 -0.411853 0.348787
-0.361338 -0.423674 0.360399
-0.358631 -0.422303 0.352245
-0.352970 -0.417574 0.376225
-0.352235 -0.416231 0.366486
-0.361654 -0.423834 0.377654
-0.356593 -0.421270 0.363178
-0.353620 -0.418763 0.391649
-0.349854 -0.411875 0.389894
-0.362772 -0.424400 0.389712
-0.361221 -0.423614 0.381661
-0.348714 -0.407833 0.330804
-0.348742 -0.405379 0.342519
-0.348832 -0.397577 0.338709
-0.348730 -0.406424 0.351011
-0.348705 -0.408643 0.351731
-0.348717 -0.407558 0.345116
-0.349176 -0.392940 0.335940
-0.350845 -0.383882 0.341160
-0.349588 -0.390702 0.352942
-0.349496 -0.391198 0.351696
-0.349985 -0.388550 0.345530
-0.348811 -0.399435 0.377008
-0.348789 -0.401306 0.365258
-0.348797 -0.400593 0.368823
-0.348726 -0.406755 0.388821
-0.348816 -0.398944 0.382624
-0.348752 -0.404539 0.380579
-0.348988 -0.393957 0.369662
-0.350642 -0.384982 0.367055
-0.349067 -0.393529 0.388833
-0.350948 -0.383319 0.391685
-0.374815 -0.410632 0.397828
-0.373326 -0.415324 0.398728
-0.374229 -0.412462 0.408043
-0.369123 -0.421410 0.400680
-0.374561 -0.412946 0.416507
-0.375268 -0.409970 0.413197
-0.372218 -0.419801 0.418809
-0.367275 -0.422706 0.425981
-0.366325 -0.422939 0.413533
-0.375056 -0.398170 0.406951
-0.375102 -0.402833 0.406780
-0.375127 -0.405204 0.403256
-0.375226 -0.398569 0.412295
-0.376381 -0.403817 0.419899
-0.376708 -0.404590 0.422267
-0.373588 -0.383658 0.407550
-0.374733 -0.392891 0.408819
-0.375198 -0.386570 0.417268
-0.376569 -0.388469 0.424113
-0.377395 -0.392916 0.427968
-0.353601 -0.418729 0.399989
-0.348938 -0.410200 0.394900
-0.360150 -0.423072 0.406421
-0.361818 -0.423917 0.394783
-0.353561 -0.418600 0.414173
-0.352462 -0.416549 0.416669
-0.358280 -0.422012 0.422792
-0.354768 -0.420278 0.418266
-0.348764 -0.403471 0.406792
-0.348862 -0.394979 0.396425
-0.348832 -0.397563 0.401469
-0.348877 -0.406945 0.427361
-0.348800 -0.400474 0.411494
-0.348976 -0.394830 0.423909
-0.349678 -0.390216 0.405418
-0.350230 -0.387224 0.401223
-0.349517 -0.387582 0.427595
-0.350497 -0.382119 0.418957
-0.349398 -0.389453 0.416068
-0.365025 -0.374355 0.343852
-0.370139 -0.377023 0.334416
-0.372444 -0.381380 0.337884
-0.368467 -0.375738 0.360719
-0.370216 -0.377169 0.349606
-0.364877 -0.374295 0.371229
-0.366432 -0.374921 0.376248
-0.372877 -0.382198 0.363254
-0.364406 -0.374106 0.389208
-0.366182 -0.374820 0.394563
-0.371143 -0.378922 0.382187
-0.351559 -0.381669 0.332637
-0.355623 -0.375861 0.326253
-0.357805 -0.374667 0.333440
-0.354911 -0.376878 0.355856
-0.355901 -0.375464 0.342556
-0.357687 -0.374689 0.344633
-0.351222 -0.382150 0.373576
-0.355409 -0.376166 0.364326
-0.356327 -0.374940 0.357681
-0.360922 -0.374094 0.374370
-0.355539 -0.375981 0.379727
-0.357298 -0.374761 0.383450
-0.359387 -0.374376 0.390014
-0.367914 -0.375527 0.405234
-0.371595 -0.379799 0.400725
-0.363779 -0.371948 0.419971
-0.367679 -0.373071 0.420697
-0.372293 -0.380915 0.411566
-0.374311 -0.381093 0.418740
-0.365938 -0.366980 0.433300
-0.352473 -0.380369 0.406216
-0.355528 -0.376002 0.401972
-0.359303 -0.374392 0.392029
-0.354787 -0.373497 0.422076
-0.354063 -0.376840 0.413253
-0.357426 -0.373608 0.415047
-0.362981 -0.373397 0.412513
-0.351018 -0.367648 0.436670
-0.358129 -0.370169 0.427942
-0.352610 -0.363547 0.440420
