ply
format ascii 1.0
element vertex 1000
property float x
property float y
property float z
end_header
-0.300024 0.350505 -0.313219
-0.301449 0.350228 -0.278685
-0.272691 0.349559 -0.301700
-0.288200 0.349479 -0.296083
-0.265993 0.349504 -0.300213
-0.279376 0.394249 -0.335680
-0.276141 0.418941 -0.336932
-0.284811 0.424192 -0.336102
-0.264440 0.442732 -0.340455
-0.283265 0.477549 -0.337676
-0.271877 0.462794 -0.339348
-0.284687 0.361530 -0.329618
-0.277114 0.366674 -0.334212
-0.293036 0.405521 -0.334784
-0.314380 0.377936 -0.258191
-0.308008 0.417758 -0.256555
-0.292555 0.354694 -0.267199
-0.278532 0.358446 -0.262788
-0.287075 0.391709 -0.255963
-0.269319 0.392560 -0.255313
-0.293590 0.435248 -0.335605
-0.302476 0.429543 -0.255969
-0.299617 0.466984 -0.254919
-0.289981 0.431385 -0.255021
-0.275882 0.427845 -0.254427
-0.297620 0.462212 -0.254919
-0.278180 0.462013 -0.253764
-0.195969 0.350887 -0.333403
-0.164461 0.350220 -0.337044
-0.159064 0.351774 -0.346301
-0.260614 0.350513 -0.312857
-0.235340 0.352650 -0.329158
-0.257783 0.353867 -0.269842
-0.242524 0.349650 -0.300849
-0.219454 0.350178 -0.321268
-0.202331 0.349770 -0.321599
-0.219882 0.351893 -0.287726
-0.209854 0.349940 -0.302400
-0.169817 0.349535 -0.324623
-0.195920 0.350576 -0.301293
-0.157368 0.349529 -0.324721
-0.147584 0.349525 -0.326832
-0.143953 0.349883 -0.318663
-0.269340 0.369028 -0.335915
-0.240361 0.364662 -0.342544
-0.247427 0.403114 -0.343842
-0.242592 0.407985 -0.345581
-0.231259 0.375065 -0.347786
-0.211958 0.357631 -0.345571
-0.228840 0.395248 -0.349404
-0.202239 0.403763 -0.357219
-0.247146 0.433799 -0.344828
-0.242099 0.422960 -0.346213
-0.258857 0.458105 -0.342236
-0.244907 0.455913 -0.346087
-0.216912 0.420358 -0.353760
-0.215072 0.439744 -0.354812
-0.208651 0.440136 -0.356574
-0.226547 0.480543 -0.352315
-0.203013 0.466581 -0.358630
-0.182824 0.360837 -0.357115
-0.162894 0.359243 -0.359068
-0.182921 0.393528 -0.361736
-0.170381 0.395128 -0.364582
-0.144505 0.359844 -0.363888
-0.134579 0.375715 -0.370974
-0.165218 0.385127 -0.365338
-0.138101 0.405127 -0.371436
-0.164982 0.392167 -0.365650
-0.185612 0.446987 -0.362580
-0.170256 0.444047 -0.366114
-0.197009 0.476047 -0.360377
-0.163095 0.449873 -0.367744
-0.145977 0.434159 -0.370869
-0.144492 0.440359 -0.371292
-0.149744 0.456726 -0.370631
-0.153977 0.488050 -0.370247
-0.266632 0.355151 -0.326026
-0.201357 0.356840 -0.281557
-0.264738 0.360878 -0.260553
-0.238889 0.361604 -0.264270
-0.260810 0.400985 -0.255515
-0.244737 0.395226 -0.258384
-0.234446 0.367404 -0.263434
-0.229261 0.369481 -0.264296
-0.228379 0.416884 -0.262312
-0.211521 0.399552 -0.268688
-0.256323 0.444033 -0.254824
-0.236298 0.437762 -0.259014
-0.253124 0.482002 -0.254499
-0.230765 0.434126 -0.260953
-0.208746 0.421017 -0.268796
-0.198331 0.455406 -0.271040
-0.232477 0.474712 -0.259475
-0.216105 0.461106 -0.265312
-0.214332 0.469927 -0.265759
-0.192899 0.378304 -0.274839
-0.177850 0.378120 -0.278739
-0.189871 0.408247 -0.274519
-0.182817 0.413189 -0.276289
-0.166357 0.355653 -0.292004
-0.140089 0.361050 -0.292604
-0.148441 0.403298 -0.284824
-0.164851 0.412968 -0.280775
-0.135402 0.410540 -0.287239
-0.177214 0.432539 -0.277132
-0.188802 0.467333 -0.273452
-0.169954 0.461547 -0.278367
-0.165140 0.429166 -0.280236
-0.160120 0.443756 -0.281025
-0.156216 0.466403 -0.281569
-0.161311 0.472658 -0.280167
-0.133663 0.476788 -0.286098
-0.123459 0.351953 -0.353596
-0.106172 0.353946 -0.362248
-0.096397 0.349370 -0.336358
-0.078058 0.349431 -0.337888
-0.068209 0.354298 -0.367590
-0.042874 0.353863 -0.368165
-0.012356 0.351042 -0.360518
-0.001614 0.351665 -0.362514
-0.121423 0.349462 -0.332560
-0.104065 0.349609 -0.326876
-0.084043 0.349655 -0.332875
-0.066294 0.351776 -0.318610
-0.065835 0.349552 -0.334439
-0.032465 0.351745 -0.320820
-0.008718 0.350543 -0.325853
-0.127556 0.386150 -0.372548
-0.103322 0.381663 -0.375918
-0.123989 0.401574 -0.373669
-0.111614 0.401432 -0.375537
-0.091231 0.364470 -0.374829
-0.064446 0.367566 -0.378184
-0.096325 0.389827 -0.377142
-0.078023 0.391282 -0.379213
-0.123041 0.434175 -0.374779
-0.113412 0.421078 -0.375901
-0.119302 0.460166 -0.375930
-0.101296 0.454477 -0.378358
-0.093285 0.420601 -0.378505
-0.077410 0.421917 -0.380264
-0.092730 0.453622 -0.379375
-0.082002 0.452137 -0.380569
-0.064306 0.355731 -0.370048
-0.048074 0.358525 -0.374153
-0.049860 0.381904 -0.381151
-0.064758 0.407618 -0.380998
-0.041702 0.415580 -0.382756
-0.017379 0.377864 -0.382337
-0.007111 0.377968 -0.382451
-0.021936 0.412881 -0.383484
-0.008787 0.404462 -0.383466
-0.054077 0.439184 -0.382657
-0.040679 0.440408 -0.383471
-0.060527 0.462032 -0.382658
-0.045635 0.457682 -0.383573
-0.031936 0.426630 -0.383550
-0.009899 0.428846 -0.384169
-0.030589 0.456172 -0.384279
-0.015670 0.457129 -0.384754
-0.125369 0.364716 -0.293482
-0.101841 0.368182 -0.295486
-0.132965 0.395510 -0.288202
-0.110418 0.399802 -0.291867
-0.071972 0.353794 -0.310925
-0.085214 0.376171 -0.296406
-0.082846 0.375451 -0.296709
-0.100535 0.409328 -0.293115
-0.076028 0.414633 -0.295961
-0.126377 0.446999 -0.288006
-0.107992 0.450046 -0.290896
-0.126561 0.482814 -0.287356
-0.101405 0.474554 -0.291483
-0.099066 0.441524 -0.292422
-0.071350 0.449908 -0.295569
-0.094318 0.484116 -0.292276
-0.083829 0.470756 -0.293815
-0.049573 0.354088 -0.313335
-0.068182 0.383272 -0.297930
-0.042428 0.369049 -0.301238
-0.053801 0.402876 -0.298346
-0.042994 0.406062 -0.299009
-0.021978 0.371930 -0.302001
-0.015885 0.378692 -0.301738
-0.034141 0.393096 -0.300204
-0.012589 0.416342 -0.300046
-0.063437 0.422231 -0.296985
-0.037376 0.420567 -0.298845
-0.059882 0.457115 -0.296449
-0.042094 0.460233 -0.297640
-0.019579 0.430725 -0.299380
-0.006211 0.434074 -0.299469
-0.028823 0.465023 -0.298239
-0.013172 0.462777 -0.298780
-0.293678 0.504265 -0.336572
-0.280650 0.506594 -0.338330
-0.267471 0.504746 -0.340835
-0.284436 0.529470 -0.337880
-0.270399 0.527701 -0.340349
-0.279103 0.539507 -0.338665
-0.298424 0.578875 -0.336024
-0.263841 0.568078 -0.341424
-0.271697 0.591262 -0.339619
-0.274612 0.620174 -0.337902
-0.302446 0.513353 -0.254638
-0.302236 0.544591 -0.254623
-0.290790 0.510585 -0.253889
-0.276161 0.513267 -0.253167
-0.297604 0.541201 -0.254309
-0.275365 0.548270 -0.253157
-0.310290 0.568050 -0.255289
-0.312429 0.568810 -0.255437
-0.304722 0.607173 -0.255472
-0.287342 0.571745 -0.253833
-0.266571 0.575159 -0.253140
-0.284509 0.606260 -0.254152
-0.277549 0.605382 -0.253873
-0.279732 0.649456 -0.336242
-0.280989 0.652001 -0.335962
-0.296119 0.638410 -0.334990
-0.285082 0.669074 -0.334916
-0.305161 0.620601 -0.255768
-0.301337 0.656388 -0.256461
-0.287427 0.620284 -0.254627
-0.267455 0.632335 -0.254208
-0.288475 0.653487 -0.255568
-0.272910 0.659386 -0.255135
-0.293093 0.691705 -0.332356
-0.288960 0.708615 -0.308868
-0.275607 0.698649 -0.331229
-0.297666 0.709897 -0.299063
-0.279778 0.709762 -0.289472
-0.306834 0.700012 -0.261749
-0.287111 0.700534 -0.261283
-0.247564 0.495663 -0.345800
-0.252263 0.513729 -0.344664
-0.258117 0.522546 -0.343123
-0.243553 0.531416 -0.347286
-0.218747 0.491416 -0.354684
-0.224176 0.515634 -0.353321
-0.209674 0.507545 -0.357320
-0.232086 0.544522 -0.350944
-0.199882 0.532770 -0.360010
-0.263135 0.558928 -0.341665
-0.242389 0.572303 -0.347427
-0.255629 0.606584 -0.342999
-0.245338 0.611714 -0.345771
-0.226795 0.584464 -0.352163
-0.209749 0.559050 -0.357249
-0.235536 0.592623 -0.349392
-0.219502 0.608755 -0.353824
-0.200035 0.617196 -0.358940
-0.193885 0.513061 -0.361481
-0.192039 0.523413 -0.361956
-0.171836 0.522064 -0.366701
-0.168853 0.482440 -0.367070
-0.154338 0.513586 -0.370362
-0.135800 0.516238 -0.373865
-0.163405 0.546918 -0.368474
-0.139851 0.534867 -0.373162
-0.190839 0.559321 -0.362129
-0.172704 0.565750 -0.366339
-0.192362 0.604953 -0.361142
-0.176375 0.615842 -0.364681
-0.164718 0.581165 -0.367887
-0.144768 0.554792 -0.372201
-0.163664 0.587404 -0.368020
-0.152214 0.611008 -0.369941
-0.140101 0.609710 -0.372262
-0.258740 0.505824 -0.253707
-0.238090 0.503556 -0.257539
-0.251538 0.535824 -0.254380
-0.239149 0.536215 -0.257201
-0.225670 0.503438 -0.261467
-0.208286 0.500576 -0.267280
-0.222026 0.529427 -0.262752
-0.215449 0.523870 -0.264873
-0.215360 0.537751 -0.264963
-0.251651 0.581776 -0.254710
-0.243573 0.569227 -0.256333
-0.256564 0.604516 -0.254562
-0.236188 0.603502 -0.258632
-0.227610 0.568702 -0.260905
-0.203222 0.576154 -0.268922
-0.228452 0.586877 -0.260890
-0.217693 0.587660 -0.264536
-0.209191 0.608163 -0.267727
-0.181041 0.493041 -0.274993
-0.187211 0.535431 -0.273230
-0.181288 0.525811 -0.274752
-0.164078 0.493438 -0.279313
-0.129339 0.494394 -0.286782
-0.148052 0.513244 -0.282838
-0.163807 0.542530 -0.279167
-0.146365 0.515844 -0.283180
-0.188623 0.564524 -0.272960
-0.181133 0.554128 -0.274901
-0.187886 0.589405 -0.273484
-0.180622 0.588371 -0.275377
-0.158206 0.554924 -0.280598
-0.146296 0.558099 -0.283365
-0.144289 0.575302 -0.283936
-0.165939 0.603836 -0.279296
-0.139163 0.607479 -0.285427
-0.248210 0.620305 -0.344678
-0.241343 0.617890 -0.346956
-0.251874 0.657115 -0.342507
-0.253900 0.685760 -0.340400
-0.243797 0.674909 -0.344277
-0.227662 0.641022 -0.350621
-0.202300 0.639450 -0.357735
-0.229493 0.673081 -0.348803
-0.210595 0.675749 -0.354178
-0.252834 0.690915 -0.340329
-0.236674 0.693787 -0.344622
-0.222925 0.690189 -0.348892
-0.200510 0.686876 -0.356183
-0.183580 0.626875 -0.362796
-0.174595 0.625236 -0.364831
-0.187070 0.654611 -0.361120
-0.168460 0.655680 -0.365310
-0.153859 0.630523 -0.369132
-0.132301 0.635954 -0.373019
-0.147471 0.667233 -0.369249
-0.143742 0.672582 -0.369774
-0.156276 0.678013 -0.366967
-0.182819 0.697850 -0.357566
-0.168198 0.704016 -0.355113
-0.141555 0.690243 -0.369197
-0.163780 0.705359 -0.352057
-0.146959 0.704184 -0.358289
-0.146390 0.707810 -0.345633
-0.262863 0.638906 -0.254711
-0.250439 0.635051 -0.255926
-0.258861 0.675716 -0.256346
-0.239840 0.671494 -0.259721
-0.221240 0.637072 -0.264652
-0.208329 0.635509 -0.268909
-0.227817 0.658625 -0.263072
-0.207472 0.649796 -0.269533
-0.248448 0.707104 -0.322105
-0.234660 0.706431 -0.329874
-0.259308 0.709420 -0.286894
-0.238538 0.708719 -0.288017
-0.224181 0.709467 -0.315014
-0.203335 0.709800 -0.315504
-0.230955 0.707245 -0.283787
-0.218906 0.704499 -0.277412
-0.267869 0.702143 -0.261996
-0.236479 0.695321 -0.261983
-0.232422 0.704748 -0.273796
-0.194532 0.651272 -0.273389
-0.174315 0.637789 -0.278070
-0.189819 0.675088 -0.275348
-0.172591 0.669969 -0.279579
-0.144840 0.650269 -0.285393
-0.144058 0.643401 -0.285326
-0.155051 0.667596 -0.283799
-0.133418 0.656134 -0.287847
-0.190918 0.709757 -0.315692
-0.171539 0.708745 -0.309341
-0.192496 0.707603 -0.297481
-0.176671 0.707516 -0.300574
-0.178602 0.695935 -0.280206
-0.143427 0.709696 -0.329496
-0.159301 0.689344 -0.283939
-0.160096 0.704659 -0.293712
-0.146632 0.702446 -0.293261
-0.126948 0.511056 -0.375324
-0.110165 0.510924 -0.377854
-0.122106 0.546911 -0.376093
-0.107753 0.544710 -0.378195
-0.096553 0.507160 -0.379627
-0.077189 0.504483 -0.381731
-0.090696 0.537038 -0.380364
-0.069898 0.545445 -0.382472
-0.127081 0.570349 -0.375135
-0.100212 0.569311 -0.379053
-0.130443 0.601836 -0.374142
-0.103558 0.612411 -0.377897
-0.093571 0.569416 -0.379838
-0.073390 0.577406 -0.381876
-0.083922 0.604957 -0.380413
-0.073308 0.605689 -0.381429
-0.064842 0.492203 -0.382763
-0.046519 0.494921 -0.384050
-0.064904 0.521957 -0.382938
-0.042026 0.526594 -0.384444
-0.028760 0.497293 -0.384913
-0.011799 0.496985 -0.385346
-0.027728 0.528274 -0.385082
-0.003662 0.527325 -0.385564
-0.060758 0.552557 -0.383181
-0.033711 0.554072 -0.384811
-0.054853 0.593683 -0.383140
-0.036889 0.594646 -0.384168
-0.018294 0.565404 -0.385232
-0.010970 0.554446 -0.385415
-0.007364 0.581575 -0.385180
-0.030736 0.610101 -0.384141
-0.011953 0.610967 -0.384622
-0.114821 0.493920 -0.289192
-0.127748 0.525074 -0.287012
-0.105191 0.521889 -0.290503
-0.089265 0.488648 -0.292884
-0.076152 0.491709 -0.294393
-0.094265 0.522195 -0.292021
-0.081079 0.533160 -0.293696
-0.120196 0.553946 -0.288219
-0.103635 0.552375 -0.290801
-0.122622 0.618245 -0.288725
-0.112509 0.607286 -0.290167
-0.099300 0.583220 -0.291734
-0.076762 0.579067 -0.294456
-0.097840 0.607024 -0.292336
-0.082277 0.604822 -0.294265
-0.052389 0.500291 -0.296466
-0.044790 0.489295 -0.297092
-0.055900 0.528807 -0.296182
-0.041965 0.519203 -0.297097
-0.026537 0.491019 -0.298030
-0.011723 0.494560 -0.298403
-0.032526 0.532355 -0.297601
-0.010158 0.533555 -0.298524
-0.063730 0.567247 -0.295672
-0.055238 0.574012 -0.296450
-0.037193 0.579263 -0.297669
-0.067121 0.601814 -0.295843
-0.037992 0.609923 -0.298088
-0.017872 0.577507 -0.298595
-0.015636 0.576221 -0.298597
-0.023689 0.613668 -0.298809
-0.011656 0.615364 -0.299156
-0.115873 0.639198 -0.375532
-0.112179 0.636096 -0.376140
-0.122756 0.670790 -0.373398
-0.108087 0.668347 -0.375650
-0.084522 0.635408 -0.379621
-0.077057 0.636976 -0.380320
-0.088131 0.675625 -0.377843
-0.067800 0.670656 -0.380094
-0.128505 0.703698 -0.363772
-0.100400 0.698487 -0.373189
-0.124357 0.709800 -0.336582
-0.095580 0.684501 -0.376591
-0.066517 0.692654 -0.378784
-0.084659 0.706582 -0.361362
-0.082547 0.708412 -0.353679
-0.060879 0.630491 -0.381909
-0.045984 0.633797 -0.382828
-0.063043 0.659447 -0.380873
-0.047747 0.665643 -0.381731
-0.030633 0.625147 -0.383797
-0.006845 0.629026 -0.384247
-0.018854 0.651023 -0.383460
-0.003143 0.656502 -0.383471
-0.055169 0.684874 -0.380349
-0.049360 0.685762 -0.380636
-0.060079 0.707655 -0.358626
-0.038993 0.708722 -0.354929
-0.020376 0.704588 -0.371629
-0.004901 0.704292 -0.372758
-0.022309 0.709658 -0.350975
-0.006274 0.709915 -0.343230
-0.129392 0.646526 -0.288248
-0.114612 0.649949 -0.290873
-0.126179 0.678306 -0.289918
-0.112985 0.682754 -0.292320
-0.098661 0.649477 -0.293329
-0.083534 0.644978 -0.295136
-0.098057 0.674613 -0.294290
-0.081392 0.671504 -0.296277
-0.121388 0.707754 -0.313383
-0.102948 0.708926 -0.320623
-0.133619 0.702461 -0.295259
-0.113843 0.698836 -0.295408
-0.100520 0.706661 -0.311412
-0.071053 0.703314 -0.304856
-0.094683 0.701240 -0.299260
-0.057174 0.627714 -0.297230
-0.044588 0.629541 -0.298154
-0.063490 0.658138 -0.297648
-0.048930 0.657918 -0.298777
-0.028853 0.633666 -0.299092
-0.016294 0.629412 -0.299457
-0.018572 0.648070 -0.299988
-0.008960 0.680738 -0.301412
-0.031386 0.661897 -0.299948
-0.061863 0.705942 -0.312945
-0.053201 0.704917 -0.309923
-0.040735 0.682372 -0.300549
-0.023639 0.688025 -0.301632
-0.021829 0.702341 -0.309076
-0.001082 0.707842 -0.321810
0.010982 0.352080 -0.363704
0.031856 0.350835 -0.358490
0.043416 0.349696 -0.350305
0.055476 0.350308 -0.353672
0.053738 0.349456 -0.345597
0.074483 0.349396 -0.343103
0.096415 0.349629 -0.346807
0.116978 0.349765 -0.341700
0.012809 0.350700 -0.324788
0.030730 0.349898 -0.330951
0.061503 0.350373 -0.324117
0.088786 0.350205 -0.323378
0.099004 0.350175 -0.321211
0.112021 0.350876 -0.315486
0.121018 0.349669 -0.321111
0.002066 0.381767 -0.382673
0.030740 0.383334 -0.382133
0.009865 0.408388 -0.383567
0.031476 0.415676 -0.383224
0.042780 0.367292 -0.379373
0.063858 0.371043 -0.379457
0.033919 0.396621 -0.382499
0.054969 0.400418 -0.381405
-0.000244 0.429926 -0.384289
0.021518 0.430698 -0.383968
0.002196 0.459111 -0.384913
0.019537 0.459346 -0.384665
0.043384 0.420218 -0.382752
0.058455 0.421999 -0.381817
0.036443 0.453138 -0.383921
0.054424 0.452670 -0.382857
0.072421 0.357095 -0.371059
0.084894 0.357172 -0.370055
0.089711 0.379721 -0.377351
0.074219 0.413981 -0.380235
0.082190 0.412149 -0.379410
0.100504 0.372018 -0.375695
0.120972 0.372480 -0.372807
0.111637 0.407931 -0.375600
0.117523 0.402024 -0.374538
0.071505 0.431263 -0.380981
0.094311 0.434873 -0.378654
0.065577 0.462808 -0.382229
0.083550 0.460750 -0.380444
0.104667 0.431114 -0.377220
0.116969 0.422558 -0.375256
0.101635 0.467177 -0.378401
0.121720 0.462473 -0.375425
0.013859 0.363154 -0.305736
0.026509 0.363120 -0.305404
0.008344 0.417240 -0.299992
0.015645 0.395239 -0.300608
0.029255 0.406267 -0.299655
0.050267 0.375110 -0.300231
0.050636 0.368071 -0.301335
0.034329 0.389367 -0.300215
0.059753 0.402540 -0.297799
0.000157 0.421316 -0.299987
0.025096 0.428060 -0.299157
0.003802 0.458537 -0.298937
0.016742 0.456736 -0.298825
0.026997 0.476053 -0.298097
0.047975 0.446650 -0.297497
0.058961 0.442517 -0.296749
0.047878 0.479982 -0.296917
0.058946 0.479022 -0.296086
0.077170 0.355138 -0.307612
0.092884 0.359819 -0.300068
0.082875 0.393835 -0.295783
0.088749 0.395746 -0.294968
0.113907 0.368274 -0.293212
0.123093 0.369794 -0.291272
0.103929 0.397648 -0.292816
0.112098 0.403005 -0.291320
0.076611 0.430226 -0.295344
0.078941 0.444019 -0.294753
0.089301 0.439158 -0.293608
0.073312 0.473878 -0.294815
0.093284 0.473483 -0.292428
0.110724 0.438886 -0.290585
0.125683 0.448586 -0.287913
0.114711 0.477925 -0.289255
0.138266 0.349806 -0.339128
0.157685 0.351199 -0.344529
0.198883 0.352395 -0.339353
0.136557 0.351899 -0.307033
0.152572 0.351858 -0.304158
0.169988 0.350696 -0.305642
0.195405 0.349284 -0.312198
0.198453 0.353570 -0.286933
0.207992 0.351553 -0.332997
0.225141 0.353466 -0.334777
0.200272 0.350759 -0.296445
0.234318 0.349954 -0.317170
0.249492 0.350143 -0.312450
0.236468 0.349170 -0.299641
0.259060 0.349222 -0.300740
0.137305 0.358064 -0.364497
0.140525 0.357552 -0.363027
0.154807 0.372718 -0.366586
0.149624 0.409495 -0.369221
0.157804 0.394046 -0.367026
0.172152 0.370755 -0.362642
0.188978 0.365848 -0.357453
0.170668 0.398637 -0.364426
0.182912 0.397405 -0.361621
0.144076 0.433854 -0.370934
0.159274 0.447618 -0.368288
0.139605 0.458409 -0.372337
0.161645 0.458589 -0.368007
0.152869 0.469035 -0.370001
0.169965 0.437862 -0.365728
0.192293 0.444984 -0.360695
0.170436 0.472494 -0.366365
0.184232 0.479415 -0.363254
0.218133 0.380095 -0.351568
0.225071 0.361903 -0.345469
0.201920 0.386034 -0.356367
0.209843 0.416120 -0.355281
0.245554 0.360032 -0.338400
0.261629 0.366746 -0.336993
0.250459 0.378101 -0.341551
0.234049 0.407373 -0.347874
0.245801 0.408488 -0.344242
0.204139 0.448100 -0.357683
0.228175 0.438693 -0.350720
0.199504 0.462111 -0.359202
0.219278 0.457187 -0.353723
0.215722 0.479567 -0.355095
0.261467 0.430258 -0.340619
0.246657 0.442564 -0.344917
0.258752 0.454713 -0.341924
0.144470 0.362240 -0.290249
0.152824 0.357564 -0.292378
0.167652 0.381368 -0.280925
0.139532 0.407082 -0.286326
0.159473 0.409717 -0.281910
0.168583 0.362304 -0.282622
0.198230 0.362133 -0.276569
0.169261 0.393911 -0.279996
0.186122 0.400837 -0.275421
0.133238 0.430754 -0.287011
0.157394 0.431458 -0.281789
0.162289 0.449218 -0.280143
0.139192 0.456959 -0.285327
0.158952 0.466240 -0.280550
0.170287 0.423593 -0.278772
0.188105 0.430419 -0.274014
0.173985 0.458002 -0.277025
0.195921 0.455073 -0.271457
0.208718 0.354259 -0.282228
0.248560 0.353297 -0.327101
0.227381 0.382413 -0.263568
0.202439 0.406698 -0.270569
0.209221 0.393327 -0.269004
0.243744 0.367408 -0.260198
0.261796 0.371108 -0.256607
0.240589 0.398610 -0.258882
0.253768 0.402196 -0.256105
0.212782 0.429352 -0.266700
0.218897 0.438366 -0.264437
0.224062 0.441831 -0.262614
0.204045 0.455627 -0.268988
0.223127 0.465693 -0.262532
0.239732 0.425117 -0.258261
0.250966 0.428497 -0.255641
0.240494 0.461803 -0.257238
0.258834 0.466662 -0.254024
0.280765 0.349709 -0.303430
0.286736 0.353377 -0.320386
0.265903 0.349707 -0.286839
0.283792 0.350577 -0.280908
0.261962 0.399502 -0.339123
0.282909 0.427962 -0.336290
0.282639 0.449052 -0.336904
0.262389 0.466780 -0.341170
0.299505 0.484594 -0.335906
0.274724 0.360442 -0.330893
0.299039 0.363953 -0.329813
0.294890 0.396215 -0.334349
0.309892 0.359911 -0.327319
0.311794 0.398102 -0.333190
0.266969 0.364136 -0.259158
0.283243 0.369725 -0.257313
0.292668 0.372160 -0.257206
0.275349 0.409994 -0.254935
0.297386 0.404178 -0.256264
0.307824 0.415712 -0.256594
0.296518 0.450106 -0.335589
0.308378 0.436792 -0.334456
0.308857 0.473102 -0.335062
0.270437 0.448996 -0.253834
0.289586 0.444302 -0.254747
0.276829 0.483736 -0.253437
0.289597 0.478961 -0.254159
0.298272 0.451913 -0.255143
0.305024 0.476880 -0.255190
0.003718 0.491297 -0.385363
0.019042 0.494826 -0.385175
0.000275 0.529982 -0.385589
0.028824 0.532205 -0.385014
0.033651 0.497131 -0.384696
0.060982 0.499832 -0.383042
0.046224 0.529605 -0.384170
0.065573 0.519598 -0.382816
0.001412 0.553334 -0.385508
0.031369 0.561727 -0.384796
0.012208 0.595817 -0.384903
0.031437 0.586341 -0.384514
0.041905 0.558839 -0.384287
0.035106 0.576735 -0.384468
0.050928 0.579702 -0.383561
0.043653 0.612432 -0.383413
0.052038 0.608866 -0.382987
0.076319 0.518261 -0.381791
0.085706 0.506068 -0.380754
0.070402 0.549149 -0.382314
0.089829 0.547556 -0.380308
0.103193 0.514393 -0.378677
0.118229 0.510472 -0.376529
0.102381 0.537771 -0.378807
0.129127 0.535775 -0.374860
0.075488 0.574033 -0.381620
0.092890 0.572271 -0.379762
0.079956 0.605215 -0.380708
0.097955 0.603444 -0.378705
0.111189 0.574551 -0.377354
0.126602 0.575845 -0.374977
0.112274 0.601779 -0.376798
0.124682 0.606959 -0.374774
0.003398 0.510786 -0.298375
0.021856 0.489190 -0.298138
0.015465 0.526626 -0.298169
0.029307 0.526767 -0.297633
0.044692 0.488751 -0.297001
0.055192 0.486562 -0.296286
0.039430 0.531197 -0.297101
0.053532 0.527447 -0.296184
0.010913 0.564151 -0.298493
0.021464 0.564475 -0.298208
0.001735 0.589054 -0.298795
0.010424 0.601126 -0.299026
0.030290 0.605166 -0.298358
0.046156 0.568826 -0.296890
0.058536 0.574253 -0.296041
0.040695 0.609612 -0.297859
0.052301 0.607647 -0.297076
0.076469 0.511876 -0.294096
0.086559 0.517307 -0.292894
0.070021 0.542724 -0.294789
0.085965 0.544781 -0.292992
0.100248 0.506812 -0.291165
0.121090 0.509512 -0.287895
0.106631 0.542232 -0.290152
0.118016 0.536305 -0.288378
0.075502 0.575854 -0.294441
0.093269 0.575817 -0.292292
0.073326 0.603842 -0.295117
0.090141 0.603052 -0.293118
0.109215 0.577220 -0.290033
0.109046 0.595034 -0.290301
0.118643 0.594163 -0.288776
0.013970 0.620559 -0.384378
0.030986 0.627459 -0.383694
0.007918 0.658711 -0.383338
0.030481 0.654113 -0.382940
0.042986 0.620750 -0.383260
0.043092 0.648558 -0.382493
0.050719 0.647921 -0.382075
0.037161 0.676222 -0.381795
0.054656 0.675786 -0.380774
0.003178 0.702219 -0.375963
0.028483 0.703038 -0.375090
0.003022 0.709882 -0.346229
0.047224 0.691142 -0.380204
0.053993 0.684799 -0.380401
0.040834 0.707473 -0.361538
0.050449 0.706788 -0.364185
0.065997 0.632253 -0.381407
0.086191 0.633249 -0.379368
0.070902 0.658875 -0.380123
0.094524 0.658000 -0.377644
0.113640 0.630938 -0.375940
0.126917 0.625188 -0.374003
0.103791 0.651149 -0.376688
0.122560 0.654539 -0.373837
0.068628 0.692916 -0.378685
0.082357 0.684936 -0.377928
0.065638 0.706819 -0.362767
0.090343 0.709592 -0.346325
0.106353 0.705290 -0.363413
0.124777 0.698092 -0.370277
0.100411 0.709903 -0.340909
0.007496 0.628624 -0.299514
0.013662 0.639189 -0.299860
0.030807 0.645738 -0.299450
0.020684 0.676236 -0.301206
0.042491 0.628476 -0.298192
0.047781 0.643141 -0.298284
0.063707 0.638820 -0.296923
0.040227 0.671289 -0.299865
0.058316 0.679968 -0.298877
-0.000021 0.708756 -0.327578
0.026504 0.693283 -0.302891
0.023202 0.705183 -0.313284
0.042871 0.705536 -0.313123
0.053824 0.708410 -0.322562
0.036638 0.694544 -0.302352
0.076252 0.617798 -0.295092
0.093810 0.624337 -0.293121
0.077934 0.656803 -0.296017
0.088185 0.659316 -0.294886
0.110526 0.629820 -0.290775
0.128382 0.633171 -0.287876
0.101583 0.663348 -0.293242
0.118841 0.666904 -0.290577
0.077457 0.709900 -0.331991
0.079084 0.703336 -0.304685
0.077294 0.700615 -0.300690
0.086738 0.684355 -0.296063
0.106319 0.708438 -0.316890
0.121237 0.709062 -0.317503
0.101511 0.697927 -0.296620
0.112762 0.700697 -0.296689
0.130646 0.508059 -0.374551
0.162734 0.504081 -0.368365
0.136865 0.534767 -0.373506
0.160022 0.534728 -0.369022
0.150970 0.544889 -0.370838
0.188020 0.489675 -0.362467
0.171761 0.520796 -0.366495
0.190496 0.534868 -0.362085
0.130280 0.556867 -0.374580
0.156969 0.561855 -0.369521
0.146164 0.570338 -0.371631
0.132129 0.614701 -0.373386
0.165658 0.610062 -0.367007
0.175587 0.566697 -0.365443
0.191370 0.570861 -0.361648
0.171543 0.614464 -0.365586
0.186725 0.607789 -0.362177
0.201641 0.511603 -0.359209
0.233983 0.509942 -0.350036
0.197827 0.521776 -0.360269
0.226456 0.523692 -0.352363
0.221180 0.535725 -0.353906
0.242374 0.517289 -0.347329
0.259845 0.518114 -0.342375
0.262193 0.532076 -0.341750
0.207607 0.556189 -0.357562
0.231861 0.551554 -0.350673
0.216490 0.573285 -0.354965
0.204490 0.604979 -0.357730
0.212300 0.586918 -0.355955
0.245851 0.557475 -0.346081
0.251677 0.566118 -0.344412
0.237965 0.591788 -0.348276
0.258951 0.609820 -0.341763
0.131569 0.491517 -0.286154
0.138828 0.514304 -0.284561
0.159299 0.506848 -0.279944
0.144046 0.540497 -0.283456
0.166019 0.532565 -0.278294
0.180534 0.495730 -0.274847
0.185071 0.513866 -0.273568
0.176956 0.549387 -0.275683
0.188560 0.544496 -0.272659
0.139672 0.573186 -0.284668
0.156726 0.559382 -0.280746
0.151335 0.593175 -0.282452
0.149288 0.607180 -0.283143
0.153115 0.611940 -0.282348
0.170669 0.578273 -0.277580
0.193328 0.579488 -0.271631
0.178963 0.604653 -0.275920
0.214582 0.496734 -0.264925
0.211823 0.505704 -0.265717
0.229585 0.486065 -0.259983
0.199116 0.528322 -0.269700
0.205471 0.544054 -0.268030
0.231751 0.548485 -0.259020
0.250240 0.491598 -0.254590
0.243438 0.531058 -0.255902
0.254706 0.524504 -0.253944
0.212677 0.558321 -0.265850
0.210166 0.568070 -0.266559
0.228837 0.552890 -0.260144
0.199255 0.592959 -0.270165
0.200641 0.603760 -0.270006
0.234812 0.565121 -0.258287
0.262298 0.566861 -0.253325
0.235713 0.594342 -0.258398
0.253268 0.596687 -0.254659
0.154313 0.634723 -0.368797
0.147438 0.648431 -0.369707
0.161410 0.650604 -0.366786
0.142886 0.680968 -0.369458
0.159363 0.667617 -0.366630
0.172507 0.649410 -0.364414
0.181160 0.649564 -0.362483
0.167923 0.674687 -0.364478
0.180248 0.679072 -0.361564
0.133850 0.708021 -0.349627
0.154674 0.690838 -0.366113
0.161032 0.707862 -0.344508
0.174163 0.695597 -0.361543
0.181934 0.691720 -0.360128
0.185750 0.707764 -0.339143
0.200632 0.647764 -0.357629
0.228361 0.638417 -0.350194
0.203250 0.653984 -0.356714
0.205841 0.673781 -0.355279
0.236439 0.621385 -0.348159
0.250087 0.624009 -0.343699
0.232080 0.660041 -0.348291
0.270788 0.678613 -0.336270
0.206476 0.686690 -0.354414
0.202638 0.704167 -0.346909
0.216028 0.701649 -0.345546
0.262990 0.688804 -0.336663
0.137046 0.624254 -0.286020
0.162381 0.617661 -0.280214
0.152991 0.639960 -0.283121
0.156617 0.652365 -0.282708
0.163266 0.671249 -0.281722
0.171476 0.645586 -0.278809
0.191693 0.641815 -0.273638
0.176115 0.667346 -0.278301
0.198893 0.683303 -0.272839
0.139792 0.708049 -0.309226
0.153364 0.708103 -0.306249
0.144974 0.699196 -0.291002
0.154947 0.706184 -0.299216
0.181594 0.709993 -0.313449
0.186441 0.710284 -0.314776
0.177189 0.705539 -0.291442
0.191807 0.709443 -0.303414
0.205339 0.683368 -0.270964
0.205101 0.625443 -0.269247
0.231296 0.632049 -0.260575
0.209539 0.659414 -0.268932
0.233690 0.661691 -0.260699
0.244909 0.633367 -0.256955
0.251132 0.618186 -0.255304
0.248147 0.656242 -0.256862
0.261468 0.656537 -0.255274
0.207789 0.709593 -0.323952
0.226776 0.709781 -0.317740
0.199996 0.709111 -0.300124
0.216292 0.710202 -0.302457
0.244753 0.707946 -0.321683
0.252060 0.707767 -0.320489
0.236399 0.709992 -0.295977
0.263321 0.707464 -0.275948
0.221935 0.703386 -0.272968
0.235072 0.702713 -0.267324
0.253569 0.701603 -0.262449
0.269036 0.511612 -0.340369
0.297451 0.505042 -0.336200
0.275488 0.529884 -0.339172
0.292217 0.520019 -0.336678
0.284475 0.535930 -0.337730
0.276047 0.574715 -0.338754
0.281845 0.555548 -0.337998
0.287297 0.600300 -0.336561
0.280639 0.602545 -0.337346
0.306665 0.502310 -0.335465
0.308957 0.543434 -0.335346
0.273262 0.508164 -0.253145
0.290991 0.509797 -0.253976
0.267749 0.536824 -0.252952
0.290163 0.536157 -0.253875
0.313301 0.502158 -0.255475
0.311723 0.546217 -0.255320
0.312778 0.555605 -0.334994
0.310843 0.598159 -0.334757
0.281297 0.559473 -0.253407
0.295616 0.564552 -0.254374
0.267558 0.585843 -0.253327
0.291392 0.593373 -0.254448
0.304225 0.551835 -0.254849
0.301388 0.591005 -0.255059
0.281336 0.619525 -0.336843
0.278482 0.646742 -0.336350
0.273246 0.673631 -0.336130
0.286413 0.649110 -0.335363
0.286272 0.671808 -0.334810
0.313721 0.649024 -0.333439
0.311553 0.673519 -0.332779
0.266291 0.649724 -0.254702
0.283004 0.642760 -0.254992
0.269986 0.676150 -0.255676
0.294405 0.682437 -0.256986
0.298073 0.644453 -0.255989
0.311661 0.651020 -0.257017
0.280486 0.705849 -0.320825
0.288000 0.687919 -0.333483
0.286402 0.701758 -0.327493
0.276878 0.709256 -0.284473
0.297838 0.709534 -0.286186
0.310759 0.699052 -0.328191
0.306978 0.709758 -0.292772
0.273292 0.704594 -0.266529
0.293096 0.704561 -0.267226
0.308788 0.704078 -0.266861
