ply
format ascii 1.0
element vertex 1000
property float x
property float y
property float z
end_header
0.345351 -0.087133 -0.325333
0.358742 -0.082364 -0.326422
0.340281 -0.067342 -0.324002
0.337801 -0.048355 -0.321695
0.334186 -0.051593 -0.307042
0.359986 -0.062238 -0.326431
0.328833 -0.074207 -0.301405
0.330345 -0.071396 -0.281170
0.334131 -0.050030 -0.299943
0.335168 -0.048954 -0.271779
0.386165 -0.088420 -0.319045
0.387219 -0.078966 -0.312385
0.387479 -0.104187 -0.297026
0.387479 -0.089549 -0.292288
0.386904 -0.089818 -0.278111
0.367333 -0.063082 -0.326480
0.385317 -0.075518 -0.322120
0.387170 -0.062531 -0.313216
0.387284 -0.061389 -0.303462
0.387462 -0.077460 -0.301662
0.386795 -0.069902 -0.277690
0.386131 -0.056473 -0.270831
0.329794 -0.088843 -0.263733
0.334775 -0.066777 -0.255779
0.336357 -0.046388 -0.255844
0.336958 -0.057668 -0.248108
0.384439 -0.090981 -0.255085
0.383804 -0.088037 -0.245850
0.383820 -0.076430 -0.239297
0.385219 -0.061950 -0.256157
0.384788 -0.050558 -0.251336
0.383706 -0.062119 -0.219656
0.336024 -0.031199 -0.318501
0.334129 -0.029827 -0.303416
0.343320 -0.023465 -0.324733
0.359528 -0.038574 -0.326422
0.356317 -0.026955 -0.326359
0.334109 -0.033462 -0.289568
0.335100 -0.037183 -0.272374
0.334151 -0.018213 -0.284927
0.334521 -0.003902 -0.315798
0.334225 -0.006506 -0.310471
0.342560 0.015048 -0.324533
0.363873 -0.008346 -0.326508
0.354287 0.012192 -0.326318
0.334110 -0.006726 -0.287275
0.334111 0.017579 -0.289524
0.334204 0.008106 -0.281590
0.374304 -0.018952 -0.326397
0.381929 -0.041392 -0.324712
0.387142 -0.034547 -0.311154
0.387142 -0.025195 -0.311992
0.387145 -0.045308 -0.301939
0.385877 -0.029728 -0.272970
0.386764 -0.028584 -0.284756
0.367273 -0.001557 -0.326481
0.385476 -0.008183 -0.321543
0.387143 -0.008453 -0.308885
0.380043 0.016244 -0.325372
0.386817 -0.009991 -0.285665
0.386453 0.003034 -0.280875
0.386927 0.017205 -0.291480
0.335762 -0.038219 -0.263643
0.337452 -0.036565 -0.241342
0.335953 -0.022854 -0.261689
0.335440 0.002299 -0.269250
0.351730 0.006265 -0.248091
0.340200 -0.007250 -0.237610
0.338539 0.006440 -0.261614
0.361010 0.002543 -0.236625
0.385009 -0.044165 -0.255666
0.384668 -0.040563 -0.250838
0.385452 -0.017822 -0.267234
0.383707 -0.036650 -0.219902
0.383675 -0.022449 -0.233734
0.368718 0.010565 -0.252138
0.382475 -0.006511 -0.240093
0.385444 0.002708 -0.269622
0.383128 -0.010937 -0.237128
0.346101 0.025265 -0.325465
0.335453 0.054814 -0.317475
0.334143 0.052732 -0.304416
0.354890 0.028994 -0.326330
0.349093 0.046657 -0.326216
0.334156 0.036834 -0.282609
0.334111 0.043841 -0.289560
0.337710 0.063081 -0.321533
0.334170 0.067753 -0.306423
0.348199 0.071316 -0.326017
0.334142 0.078463 -0.304378
0.363535 0.075846 -0.326501
0.334111 0.067094 -0.288677
0.334110 0.086544 -0.296664
0.334282 0.072901 -0.274513
0.373594 0.047476 -0.326406
0.383334 0.033412 -0.324221
0.386980 0.051767 -0.316089
0.387144 0.040169 -0.305100
0.387026 0.028706 -0.296224
0.386977 0.037750 -0.293859
0.386418 0.050474 -0.279995
0.374836 0.074400 -0.326391
0.378288 0.054963 -0.325986
0.387079 0.084590 -0.315731
0.387142 0.072842 -0.310567
0.387007 0.062695 -0.295342
0.386979 0.076064 -0.293962
0.386602 0.074836 -0.282604
0.338804 0.023093 -0.264959
0.335113 0.038413 -0.271726
0.353732 0.044321 -0.263934
0.343968 0.055031 -0.264883
0.335852 0.085679 -0.270550
0.362918 0.055252 -0.263753
0.366212 0.033568 -0.262968
0.370646 0.037290 -0.263998
0.384062 0.039346 -0.266289
0.374728 0.065435 -0.264135
0.384179 0.055651 -0.266664
0.379456 0.081814 -0.264901
0.346272 0.103133 -0.325510
0.335452 0.119017 -0.317473
0.334188 0.117731 -0.307781
0.352624 0.092483 -0.326286
0.334110 0.102840 -0.295719
0.334136 0.091820 -0.283873
0.334111 0.109181 -0.288321
0.335633 0.130275 -0.317797
0.334245 0.135052 -0.312001
0.340113 0.141819 -0.323889
0.363049 0.129126 -0.326491
0.363626 0.143071 -0.326503
0.334111 0.132773 -0.289278
0.334110 0.152891 -0.295703
0.334262 0.137497 -0.275805
0.375790 0.106751 -0.326380
0.384240 0.088653 -0.323904
0.386934 0.104605 -0.316256
0.387142 0.105635 -0.311827
0.387125 0.101530 -0.300994
0.386902 0.107852 -0.290275
0.386303 0.117377 -0.278248
0.373240 0.142587 -0.326410
0.378325 0.126300 -0.325973
0.385197 0.136901 -0.322556
0.387144 0.153063 -0.304956
0.387118 0.131868 -0.300659
0.386841 0.147662 -0.287338
0.385701 0.150220 -0.275164
0.343966 0.113617 -0.264884
0.361510 0.102888 -0.263779
0.356189 0.110494 -0.263880
0.336704 0.129268 -0.269192
0.336675 0.137236 -0.269238
0.357843 0.146738 -0.263849
0.376118 0.085806 -0.264191
0.385954 0.088475 -0.273234
0.381435 0.111030 -0.265392
0.364499 0.144909 -0.263743
0.380057 0.117265 -0.265078
0.334974 0.170558 -0.316612
0.334279 0.168621 -0.314478
0.342577 0.174767 -0.324537
0.334120 0.171858 -0.302723
0.358612 0.176131 -0.326404
0.334111 0.153768 -0.286647
0.334110 0.184703 -0.300699
0.334202 0.183432 -0.279639
0.348007 0.193425 -0.325967
0.337353 0.221087 -0.320890
0.334220 0.209701 -0.310151
0.350008 0.200144 -0.326234
0.352602 0.215604 -0.326285
0.334162 0.203093 -0.282233
0.334111 0.204011 -0.292065
0.375033 0.158501 -0.326389
0.364967 0.185353 -0.326508
0.387143 0.156877 -0.310048
0.382663 0.179312 -0.324455
0.387018 0.159340 -0.295848
0.385568 0.158742 -0.274078
0.387226 0.186076 -0.298118
0.376101 0.193188 -0.326376
0.385974 0.187808 -0.319737
0.387366 0.194182 -0.303636
0.380526 0.206864 -0.325203
0.387081 0.191096 -0.290810
0.386704 0.192759 -0.283082
0.387359 0.212529 -0.296188
0.348012 0.155317 -0.264180
0.345274 0.175807 -0.264656
0.355756 0.157253 -0.263888
0.340190 0.189353 -0.265541
0.341203 0.214973 -0.265365
0.361411 0.202908 -0.263781
0.362803 0.214194 -0.263755
0.367816 0.182383 -0.263997
0.382534 0.156378 -0.266103
0.369321 0.198384 -0.264111
0.383581 0.184775 -0.266478
0.385252 0.207103 -0.272119
0.313231 0.347622 -0.309757
0.323938 0.343699 -0.315493
0.302951 0.352958 -0.272646
0.311727 0.348390 -0.279895
0.325102 0.344426 -0.272917
0.334675 0.226795 -0.316075
0.334190 0.227860 -0.307886
0.340226 0.247307 -0.323919
0.363566 0.221880 -0.326502
0.351778 0.238639 -0.326269
0.334111 0.231288 -0.288124
0.334110 0.245184 -0.295382
0.334284 0.246965 -0.274364
0.339361 0.266845 -0.323691
0.335553 0.276316 -0.317654
0.334240 0.284651 -0.311593
0.355170 0.268882 -0.326336
0.334110 0.262566 -0.294675
0.334251 0.259641 -0.276477
0.334111 0.276984 -0.289014
0.369484 0.236376 -0.326455
0.386060 0.221295 -0.319428
0.387239 0.226447 -0.311544
0.378570 0.247867 -0.325888
0.387212 0.219911 -0.289044
0.386744 0.225800 -0.281909
0.386695 0.239289 -0.281465
0.364509 0.258754 -0.326514
0.385894 0.263746 -0.320029
0.387326 0.265060 -0.308064
0.380017 0.285835 -0.325381
0.387163 0.264539 -0.286660
0.386776 0.264650 -0.282200
0.385841 0.274595 -0.273672
0.336475 0.227894 -0.269557
0.338134 0.238579 -0.266914
0.351399 0.252517 -0.263971
0.344951 0.253218 -0.264712
0.344879 0.274383 -0.264725
0.359324 0.256203 -0.263821
0.369818 0.229887 -0.264147
0.375432 0.237873 -0.264574
0.384341 0.236145 -0.268873
0.369088 0.255342 -0.264092
0.385615 0.264492 -0.272944
0.379565 0.271493 -0.265456
0.340164 0.298600 -0.323902
0.338096 0.319012 -0.322224
0.334304 0.312697 -0.312374
0.349359 0.292422 -0.326221
0.334110 0.288951 -0.301128
0.334289 0.288042 -0.274052
0.334167 0.314510 -0.285978
0.335080 0.329474 -0.320792
0.332792 0.322626 -0.312765
0.346150 0.346572 -0.326219
0.354751 0.332608 -0.326329
0.329998 0.328858 -0.303529
0.328469 0.337632 -0.279381
0.365148 0.299121 -0.326506
0.385255 0.298345 -0.322346
0.387144 0.294206 -0.315380
0.387465 0.303594 -0.302479
0.387266 0.294231 -0.291667
0.387382 0.304961 -0.297279
0.385913 0.304278 -0.274327
0.376517 0.338492 -0.326371
0.385856 0.331398 -0.320167
0.387412 0.333818 -0.304602
0.387439 0.342085 -0.303534
0.387469 0.327499 -0.301527
0.387172 0.338017 -0.287123
0.387101 0.345875 -0.285162
0.336873 0.286657 -0.268924
0.337698 0.312894 -0.267613
0.351118 0.315639 -0.263976
0.348487 0.334068 -0.264097
0.340129 0.349687 -0.264140
0.353423 0.333247 -0.263929
0.352648 0.341322 -0.263879
0.369156 0.316890 -0.264097
0.381105 0.294622 -0.265835
0.364827 0.328275 -0.263768
0.364845 0.335865 -0.263770
0.385150 0.335863 -0.271457
0.321469 0.357619 -0.326272
0.325924 0.371814 -0.330347
0.321824 0.401696 -0.331925
0.314893 0.413505 -0.333382
0.309928 0.376603 -0.258044
0.325383 0.357515 -0.263499
0.315125 0.371388 -0.258645
0.315132 0.409383 -0.257307
0.323858 0.422578 -0.332065
0.324392 0.445632 -0.332390
0.317605 0.456364 -0.333834
0.326294 0.435311 -0.258523
0.324555 0.447455 -0.257547
0.323485 0.457534 -0.256973
0.343839 0.355750 -0.326914
0.344407 0.385324 -0.328452
0.355435 0.362312 -0.326865
0.341455 0.390676 -0.328876
0.343240 0.406954 -0.328885
0.352735 0.398246 -0.327678
0.358266 0.415938 -0.327180
0.373107 0.370659 -0.326411
0.379486 0.363353 -0.325567
0.385754 0.383060 -0.320537
0.387251 0.382228 -0.311100
0.387233 0.369022 -0.290085
0.387268 0.379535 -0.291770
0.376774 0.389647 -0.326368
0.364885 0.410354 -0.326503
0.387436 0.386533 -0.303639
0.385288 0.416108 -0.322226
0.387152 0.413787 -0.315079
0.385897 0.395649 -0.274187
0.387341 0.413771 -0.295296
0.341951 0.369888 -0.261968
0.332395 0.384528 -0.260473
0.355400 0.358696 -0.263457
0.337872 0.394885 -0.260942
0.345008 0.417273 -0.261523
0.360926 0.394908 -0.263415
0.358101 0.409363 -0.263088
0.370542 0.378742 -0.264201
0.382934 0.356849 -0.266286
0.368715 0.397378 -0.264062
0.385426 0.385969 -0.272342
0.385154 0.406645 -0.271472
0.331812 0.427542 -0.330801
0.335368 0.441601 -0.330460
0.359319 0.441155 -0.327132
0.339736 0.455214 -0.329942
0.332900 0.475026 -0.331228
0.348709 0.464754 -0.328613
0.371151 0.420380 -0.326432
0.375722 0.450368 -0.326380
0.387296 0.421787 -0.309291
0.379242 0.439634 -0.325652
0.387391 0.421545 -0.297729
0.386017 0.423726 -0.275278
0.387211 0.449490 -0.288999
0.366092 0.452597 -0.326487
0.386953 0.464030 -0.316188
0.387376 0.456021 -0.306069
0.383790 0.480088 -0.324061
0.387154 0.460779 -0.286259
0.385988 0.466025 -0.275016
0.387390 0.482524 -0.297668
0.340442 0.422000 -0.260847
0.345930 0.442241 -0.261086
0.363883 0.423198 -0.263676
0.334237 0.459084 -0.258641
0.333760 0.479042 -0.257707
0.346992 0.461589 -0.260618
0.356083 0.472954 -0.261573
0.372147 0.446744 -0.264324
0.377921 0.416945 -0.265051
0.364469 0.467283 -0.263001
0.365414 0.471535 -0.263084
0.383628 0.476405 -0.266593
0.325841 0.489451 -0.332609
0.326481 0.515378 -0.332548
0.318913 0.526519 -0.334139
0.317802 0.496714 -0.255857
0.316910 0.503227 -0.255737
0.319047 0.544887 -0.255853
0.317568 0.554465 -0.334341
0.323673 0.585669 -0.332958
0.331167 0.614948 -0.331278
0.321048 0.552587 -0.256037
0.323881 0.597752 -0.257632
0.327996 0.617032 -0.258596
0.338183 0.495229 -0.330383
0.336286 0.515773 -0.330775
0.363747 0.505089 -0.326563
0.340549 0.521971 -0.330065
0.334765 0.544303 -0.331165
0.348966 0.526335 -0.328685
0.375156 0.494203 -0.326386
0.372634 0.517179 -0.326366
0.387420 0.498611 -0.304266
0.384989 0.511350 -0.323311
0.387250 0.508722 -0.311114
0.386577 0.484809 -0.280387
0.387473 0.513599 -0.301694
0.374924 0.527883 -0.326359
0.375279 0.550623 -0.326376
0.387469 0.531696 -0.302313
0.384750 0.544438 -0.323725
0.387346 0.523638 -0.295558
0.386493 0.522711 -0.279442
0.387436 0.537760 -0.299897
0.327881 0.491839 -0.256674
0.339258 0.508848 -0.258457
0.360419 0.486015 -0.261541
0.331323 0.529165 -0.257158
0.333230 0.541603 -0.257558
0.359843 0.529699 -0.261611
0.360004 0.540378 -0.261688
0.363260 0.514908 -0.262108
0.385061 0.494157 -0.271167
0.382774 0.502823 -0.266239
0.363710 0.548493 -0.262315
0.385137 0.526829 -0.271261
0.379058 0.535863 -0.265208
0.338798 0.573241 -0.330407
0.361182 0.561687 -0.326980
0.349223 0.574358 -0.328689
0.334177 0.592442 -0.331042
0.332265 0.613712 -0.331123
0.360824 0.604086 -0.327002
0.365456 0.554297 -0.326492
0.385444 0.554636 -0.321660
0.387151 0.556615 -0.315113
0.377336 0.579715 -0.326319
0.387143 0.565838 -0.285703
0.386432 0.566150 -0.275201
0.386957 0.569031 -0.282851
0.371400 0.598442 -0.326427
0.386658 0.600024 -0.317258
0.387391 0.598677 -0.305447
0.387295 0.605784 -0.309313
0.387472 0.585241 -0.301407
0.387102 0.597723 -0.282896
0.386788 0.601876 -0.277495
0.339778 0.552401 -0.258790
0.340312 0.578632 -0.259429
0.350940 0.583873 -0.261119
0.341705 0.592164 -0.260012
0.345143 0.611486 -0.261239
0.347911 0.616868 -0.261870
0.366756 0.564472 -0.262922
0.373900 0.572597 -0.264100
0.380364 0.550827 -0.265423
0.364641 0.598288 -0.263149
0.375070 0.609275 -0.264358
0.385845 0.600176 -0.271230
0.321669 0.629259 -0.332702
0.319136 0.642397 -0.332835
0.318590 0.663114 -0.332358
0.315347 0.622832 -0.256636
0.324153 0.635226 -0.258288
0.328421 0.651579 -0.259261
0.326506 0.689695 -0.330168
0.326314 0.700076 -0.326645
0.319124 0.709536 -0.289131
0.327530 0.692772 -0.259807
0.322413 0.700856 -0.263143
0.346165 0.647651 -0.328719
0.353327 0.619217 -0.327971
0.353127 0.641335 -0.327909
0.341041 0.664302 -0.329214
0.350090 0.653095 -0.328186
0.350460 0.674737 -0.327997
0.374089 0.636192 -0.326398
0.383951 0.621709 -0.324005
0.387349 0.628995 -0.307140
0.387394 0.640041 -0.305337
0.387476 0.621911 -0.298111
0.387473 0.639303 -0.289986
0.387212 0.645960 -0.281057
0.375606 0.668547 -0.326369
0.377487 0.661576 -0.326265
0.385959 0.675595 -0.319525
0.387471 0.662721 -0.288017
0.387351 0.651252 -0.283437
0.387245 0.667142 -0.281532
0.339384 0.620248 -0.260519
0.338016 0.635537 -0.260468
0.349902 0.641117 -0.262314
0.334929 0.656895 -0.260295
0.335829 0.668081 -0.260628
0.354447 0.652587 -0.262922
0.365298 0.630200 -0.264108
0.384574 0.616093 -0.266873
0.385801 0.641003 -0.270207
0.367548 0.654698 -0.264188
0.382182 0.659476 -0.265558
0.339765 0.683426 -0.329122
0.334429 0.703021 -0.320630
0.335652 0.703831 -0.314193
0.347062 0.682853 -0.328312
0.351702 0.697599 -0.307764
0.332485 0.707120 -0.297757
0.338686 0.703824 -0.290491
0.364298 0.692097 -0.278232
0.376259 0.683614 -0.325445
0.382748 0.688232 -0.323153
0.376226 0.691860 -0.298853
0.387129 0.681726 -0.295162
0.386767 0.682917 -0.284138
0.341072 0.695347 -0.264390
0.337786 0.694849 -0.263014
0.368471 0.690017 -0.267494
0.379557 0.682974 -0.265422
-0.388369 -0.098698 -0.307726
-0.378532 -0.086214 -0.326258
-0.373257 -0.081640 -0.326421
-0.388508 -0.111160 -0.294427
-0.388509 -0.084863 -0.298186
-0.387651 -0.093217 -0.274183
-0.383654 -0.061680 -0.324486
-0.386170 -0.040789 -0.322867
-0.388372 -0.057606 -0.307601
-0.372987 -0.059261 -0.326425
-0.388510 -0.069424 -0.287437
-0.388351 -0.078631 -0.283301
-0.387946 -0.050085 -0.277958
-0.352298 -0.071998 -0.326423
-0.365157 -0.050932 -0.326518
-0.342674 -0.066716 -0.324407
-0.331594 -0.076115 -0.311796
-0.347857 -0.051579 -0.325773
-0.332533 -0.068078 -0.285795
-0.333570 -0.067080 -0.275935
-0.335197 -0.056170 -0.297800
-0.385905 -0.096199 -0.256178
-0.386805 -0.090260 -0.263371
-0.387166 -0.046590 -0.267676
-0.388106 -0.037253 -0.315789
-0.388494 -0.040335 -0.302570
-0.388192 -0.015967 -0.314989
-0.371781 -0.035429 -0.326440
-0.388510 -0.035427 -0.292907
-0.387493 -0.034367 -0.271985
-0.388510 -0.024124 -0.292705
-0.386394 0.000534 -0.322048
-0.388373 0.000947 -0.307558
-0.381525 0.008805 -0.325223
-0.371302 -0.007652 -0.326446
-0.377820 0.011411 -0.326365
-0.388421 -0.005646 -0.283761
-0.388508 0.010202 -0.299540
-0.388148 0.006863 -0.276730
-0.360186 -0.025448 -0.326481
-0.337563 -0.031130 -0.319078
-0.335544 -0.031500 -0.313883
-0.348314 -0.021639 -0.325893
-0.335139 -0.040342 -0.289964
-0.335606 -0.033465 -0.279284
-0.335140 -0.020781 -0.299575
-0.350877 -0.006825 -0.326413
-0.355380 0.012820 -0.326446
-0.344803 -0.005085 -0.324967
-0.335566 -0.004850 -0.314528
-0.335175 0.015827 -0.303043
-0.335140 -0.009784 -0.297899
-0.335152 -0.008414 -0.285220
-0.335321 0.009248 -0.279175
-0.386951 -0.039264 -0.264845
-0.386075 -0.024982 -0.253498
-0.378485 0.005433 -0.251601
-0.387453 0.013280 -0.269964
-0.370499 0.004767 -0.242396
-0.337296 -0.016483 -0.257688
-0.359725 0.016884 -0.257025
-0.341726 -0.004663 -0.243461
-0.338759 0.003132 -0.259951
-0.386073 0.041550 -0.323220
-0.388353 0.026615 -0.308381
-0.381359 0.050121 -0.325280
-0.368438 0.022919 -0.326481
-0.377341 0.053075 -0.326371
-0.388488 0.024079 -0.284663
-0.388504 0.038671 -0.292990
-0.386250 0.072133 -0.322576
-0.388244 0.055925 -0.312860
-0.384358 0.085913 -0.324243
-0.365926 0.068522 -0.326512
-0.388506 0.061636 -0.296242
-0.388391 0.067746 -0.276787
-0.388503 0.077304 -0.292131
-0.351604 0.030802 -0.326417
-0.361215 0.048838 -0.326463
-0.347159 0.032912 -0.325588
-0.336343 0.038005 -0.316901
-0.335432 0.042800 -0.310571
-0.335140 0.025514 -0.297304
-0.335140 0.040748 -0.294610
-0.335224 0.045131 -0.280178
-0.353999 0.080670 -0.326298
-0.338429 0.066909 -0.320776
-0.335495 0.059329 -0.313071
-0.341692 0.084589 -0.324027
-0.335140 0.056888 -0.296376
-0.335146 0.063357 -0.285191
-0.335141 0.081582 -0.293484
-0.379860 0.029635 -0.263078
-0.387831 0.046527 -0.271434
-0.373943 0.053850 -0.263942
-0.387453 0.067937 -0.270199
-0.386797 0.070671 -0.268061
-0.371411 0.077866 -0.263951
-0.354621 0.022886 -0.260415
-0.337157 0.022130 -0.269631
-0.336642 0.040273 -0.270949
-0.360790 0.059736 -0.263809
-0.354206 0.081710 -0.263936
-0.344633 0.051635 -0.264951
-0.345240 0.072915 -0.264845
-0.388220 0.097460 -0.313829
-0.378933 0.108207 -0.326120
-0.369447 0.092065 -0.326468
-0.367785 0.117393 -0.326489
-0.388437 0.098865 -0.280528
-0.388502 0.105657 -0.289868
-0.386630 0.130286 -0.321185
-0.388400 0.132219 -0.306453
-0.380767 0.145768 -0.325485
-0.370907 0.127720 -0.326450
-0.378050 0.148535 -0.326362
-0.388493 0.135334 -0.285023
-0.388503 0.140541 -0.292390
-0.362899 0.087912 -0.326471
-0.359854 0.104736 -0.326412
-0.344123 0.088077 -0.324670
-0.335775 0.104641 -0.316184
-0.335198 0.113576 -0.306135
-0.335141 0.102308 -0.291198
-0.335140 0.105202 -0.298684
-0.335202 0.107509 -0.281631
-0.362533 0.128612 -0.326464
-0.335814 0.129229 -0.316253
-0.335176 0.128793 -0.304538
-0.341788 0.148015 -0.324052
-0.335275 0.142281 -0.311597
-0.335294 0.121118 -0.275760
-0.335140 0.145317 -0.298101
-0.384988 0.091519 -0.265664
-0.387482 0.115037 -0.270296
-0.378294 0.110162 -0.264388
-0.387488 0.134318 -0.270316
-0.387122 0.142776 -0.269122
-0.366282 0.143038 -0.264078
-0.351356 0.087713 -0.264011
-0.336498 0.096943 -0.271179
-0.336991 0.108940 -0.270412
-0.353953 0.130802 -0.264275
-0.352975 0.143178 -0.264294
-0.336402 0.138989 -0.271339
-0.386316 0.165493 -0.322333
-0.388331 0.165005 -0.309269
-0.383200 0.186735 -0.324643
-0.368024 0.157307 -0.326486
-0.374314 0.180941 -0.326408
-0.388456 0.169495 -0.282061
-0.388500 0.170897 -0.287459
-0.386097 0.204553 -0.323136
-0.388344 0.194373 -0.308730
-0.382313 0.220461 -0.324950
-0.368465 0.191617 -0.326481
-0.388506 0.197932 -0.296232
-0.388423 0.197362 -0.279370
-0.388504 0.204523 -0.294401
-0.352729 0.165730 -0.326273
-0.353675 0.186429 -0.326291
-0.346252 0.165990 -0.325232
-0.337065 0.173031 -0.318489
-0.335172 0.170221 -0.304297
-0.335140 0.159753 -0.298072
-0.335141 0.176705 -0.289404
-0.335285 0.185003 -0.276342
-0.350581 0.218526 -0.326231
-0.339248 0.199934 -0.322388
-0.335308 0.190382 -0.313987
-0.347130 0.219470 -0.325465
-0.335141 0.187461 -0.288475
-0.335192 0.199537 -0.282207
-0.335140 0.214701 -0.295557
-0.383266 0.155964 -0.265304
-0.386941 0.174392 -0.268533
-0.366917 0.186329 -0.263910
-0.387865 0.188612 -0.271545
-0.375112 0.195660 -0.263972
-0.368571 0.214613 -0.263803
-0.362375 0.174554 -0.263947
-0.335875 0.162123 -0.272166
-0.348451 0.185188 -0.264436
-0.350852 0.198560 -0.264046
-0.339387 0.189678 -0.266626
-0.338190 0.209196 -0.268502
-0.386854 0.224655 -0.320366
-0.388498 0.233669 -0.302442
-0.388225 0.238958 -0.313646
-0.377051 0.229385 -0.326375
-0.388509 0.235200 -0.301681
-0.388392 0.224999 -0.276856
-0.388499 0.236455 -0.286090
-0.387387 0.261293 -0.318417
-0.388403 0.253572 -0.306327
-0.388183 0.276101 -0.315342
-0.378135 0.258064 -0.326361
-0.388506 0.267322 -0.297118
-0.388413 0.257062 -0.278584
-0.388476 0.274348 -0.283677
-0.358171 0.229989 -0.326379
-0.358332 0.248628 -0.326382
-0.345614 0.229532 -0.325064
-0.338943 0.249642 -0.321844
-0.335235 0.250627 -0.308735
-0.335140 0.233527 -0.300044
-0.335141 0.238930 -0.286226
-0.335146 0.240767 -0.285187
-0.350227 0.284913 -0.326224
-0.344794 0.254389 -0.324847
-0.335229 0.263491 -0.308368
-0.345085 0.277732 -0.324924
-0.335141 0.253517 -0.287155
-0.335196 0.265127 -0.281999
-0.335189 0.271905 -0.282427
-0.388182 0.222953 -0.272577
-0.368534 0.234969 -0.263802
-0.368414 0.237368 -0.263799
-0.379956 0.283252 -0.264418
-0.378128 0.257444 -0.264050
-0.356844 0.231754 -0.263884
-0.356436 0.252147 -0.263892
-0.346230 0.229139 -0.264673
-0.347430 0.247109 -0.264464
-0.351920 0.261487 -0.263978
-0.335841 0.268791 -0.272214
-0.339625 0.280526 -0.266232
-0.379617 0.295383 -0.325883
-0.388473 0.293504 -0.303447
-0.388313 0.314334 -0.310037
-0.377515 0.296195 -0.326369
-0.388506 0.295799 -0.296674
-0.388445 0.287269 -0.281118
-0.388454 0.315250 -0.281872
-0.381306 0.329018 -0.325299
-0.386062 0.353123 -0.323263
-0.388371 0.346365 -0.307647
-0.372783 0.335090 -0.326427
-0.388507 0.333731 -0.299122
-0.388355 0.331352 -0.273858
-0.388392 0.348030 -0.276815
-0.360027 0.300531 -0.326415
-0.336965 0.287599 -0.318310
-0.335278 0.287510 -0.311822
-0.340403 0.303220 -0.323687
-0.335348 0.317986 -0.308974
-0.335295 0.289984 -0.275702
-0.335251 0.316997 -0.301531
-0.355830 0.326502 -0.326640
-0.359826 0.338959 -0.326810
-0.331963 0.332649 -0.318543
-0.330019 0.331167 -0.305073
-0.347670 0.348334 -0.327454
-0.333727 0.322527 -0.300199
-0.382754 0.299481 -0.265083
-0.380494 0.309973 -0.264545
-0.370700 0.288669 -0.263858
-0.383807 0.321467 -0.265334
-0.387654 0.350253 -0.270854
-0.370710 0.349812 -0.263859
-0.357134 0.288303 -0.263879
-0.338731 0.291971 -0.267645
-0.339677 0.306210 -0.266152
-0.365104 0.319880 -0.263713
-0.356227 0.341886 -0.263196
-0.343556 0.333665 -0.264219
-0.344396 0.349264 -0.262884
-0.321514 0.342335 -0.311140
-0.311828 0.350940 -0.317746
-0.317566 0.347194 -0.273237
-0.387574 0.361707 -0.317731
-0.388323 0.356662 -0.309624
-0.388275 0.379599 -0.311565
-0.376141 0.363740 -0.326385
-0.388509 0.368474 -0.301695
-0.388399 0.359907 -0.277405
-0.388504 0.376731 -0.293673
-0.388044 0.397560 -0.316013
-0.388449 0.390737 -0.304422
-0.388265 0.416686 -0.311969
-0.371877 0.401114 -0.326435
-0.388501 0.400048 -0.288219
-0.388365 0.398743 -0.274655
-0.388422 0.417731 -0.279294
-0.363950 0.360999 -0.326651
-0.363335 0.373033 -0.326730
-0.342749 0.370409 -0.328735
-0.352035 0.388010 -0.327923
-0.359192 0.415256 -0.327273
-0.343047 0.399473 -0.329137
-0.385307 0.358407 -0.265691
-0.381942 0.377075 -0.264890
-0.369126 0.355780 -0.263819
-0.384359 0.386177 -0.265465
-0.387503 0.415119 -0.270364
-0.372248 0.412567 -0.263901
-0.352736 0.355947 -0.262701
-0.348835 0.371631 -0.262188
-0.345241 0.380752 -0.261672
-0.362162 0.400748 -0.263359
-0.349217 0.405751 -0.261884
-0.341957 0.388328 -0.261183
-0.387227 0.435472 -0.319000
-0.388273 0.431985 -0.311672
-0.383628 0.454609 -0.324495
-0.369343 0.427904 -0.326464
-0.375807 0.443522 -0.326388
-0.388460 0.432188 -0.282407
-0.388506 0.439574 -0.297312
-0.386209 0.470924 -0.322725
-0.388412 0.458516 -0.305970
-0.382290 0.479883 -0.324958
-0.373445 0.457740 -0.326416
-0.388503 0.465562 -0.292168
-0.388438 0.461477 -0.280590
-0.388501 0.477611 -0.288014
-0.354370 0.422990 -0.327891
-0.361786 0.445110 -0.327005
-0.343435 0.426959 -0.329409
-0.357107 0.456009 -0.327657
-0.351370 0.471333 -0.328489
-0.335800 0.466125 -0.330945
-0.344769 0.482588 -0.329563
-0.385375 0.439203 -0.265707
-0.368815 0.429632 -0.263923
-0.385319 0.455812 -0.265693
-0.381451 0.474683 -0.264767
-0.369925 0.456281 -0.263083
-0.363874 0.483060 -0.261958
-0.358951 0.445328 -0.262485
-0.348677 0.427459 -0.261734
-0.346206 0.436428 -0.261389
-0.358497 0.478813 -0.261182
-0.343565 0.468119 -0.260041
-0.340188 0.472544 -0.259262
-0.313086 0.359902 -0.327746
-0.320300 0.385087 -0.331919
-0.306104 0.368131 -0.331323
-0.323565 0.388720 -0.331572
-0.322150 0.405550 -0.332229
-0.302987 0.402132 -0.333973
-0.314542 0.413423 -0.333526
-0.317112 0.356948 -0.263612
-0.317930 0.401647 -0.257744
-0.329644 0.405278 -0.259353
-0.324184 0.434108 -0.332519
-0.322618 0.447422 -0.333032
-0.309426 0.437401 -0.334499
-0.326306 0.466938 -0.332605
-0.329714 0.480483 -0.332099
-0.311414 0.478397 -0.334984
-0.321012 0.428678 -0.257593
-0.325812 0.468581 -0.257324
-0.316689 0.476302 -0.255974
-0.383936 0.502316 -0.324389
-0.387223 0.512167 -0.319017
-0.388304 0.507090 -0.310398
-0.372041 0.507280 -0.326431
-0.388505 0.491299 -0.295037
-0.388501 0.516936 -0.288433
-0.388388 0.508101 -0.276531
-0.383160 0.528753 -0.324657
-0.387819 0.537085 -0.316835
-0.388405 0.543636 -0.306223
-0.369466 0.545318 -0.326462
-0.388499 0.520752 -0.285669
-0.388509 0.543315 -0.301348
-0.388359 0.540717 -0.274157
-0.350266 0.512567 -0.328726
-0.335065 0.487488 -0.331204
-0.348344 0.511613 -0.329019
-0.362078 0.527870 -0.327001
-0.338074 0.520350 -0.330784
-0.339975 0.539406 -0.330441
-0.387610 0.500944 -0.270713
-0.386220 0.515449 -0.266181
-0.375168 0.510707 -0.263572
-0.380065 0.522219 -0.264435
-0.386201 0.550535 -0.266119
-0.378390 0.543629 -0.264045
-0.359470 0.494763 -0.261310
-0.356244 0.503035 -0.260835
-0.339611 0.490432 -0.258373
-0.330820 0.502458 -0.256937
-0.346587 0.550894 -0.259480
-0.335289 0.531803 -0.257599
-0.337610 0.539265 -0.257997
-0.381364 0.568809 -0.325259
-0.387688 0.579866 -0.317536
-0.388367 0.576589 -0.307866
-0.368898 0.571373 -0.326468
-0.388500 0.565261 -0.286830
-0.388504 0.578919 -0.292995
-0.388367 0.575865 -0.274828
-0.388356 0.599262 -0.310625
-0.387722 0.606413 -0.317376
-0.388463 0.605117 -0.304569
-0.367332 0.602021 -0.326475
-0.388500 0.597594 -0.286796
-0.388508 0.611871 -0.300001
-0.388350 0.608659 -0.273410
-0.351089 0.574148 -0.328514
-0.339174 0.560034 -0.330508
-0.348550 0.580233 -0.328855
-0.363558 0.588856 -0.326759
-0.339509 0.587295 -0.330291
-0.334173 0.601668 -0.331025
-0.387112 0.563849 -0.269090
-0.387693 0.572410 -0.270982
-0.371661 0.580931 -0.263449
-0.387793 0.595152 -0.271308
-0.386577 0.606351 -0.267344
-0.368267 0.615160 -0.263800
-0.356351 0.552030 -0.260874
-0.360158 0.569835 -0.261552
-0.338959 0.574866 -0.258443
-0.364161 0.593649 -0.263186
-0.359624 0.606814 -0.262994
-0.334616 0.586585 -0.258119
-0.332854 0.605417 -0.258639
-0.319061 0.505664 -0.334254
-0.312433 0.499852 -0.335077
-0.318352 0.525675 -0.334446
-0.319118 0.549913 -0.334251
-0.312183 0.534679 -0.335199
-0.315880 0.486966 -0.255704
-0.327778 0.533327 -0.256422
-0.321639 0.537623 -0.255951
-0.319442 0.569742 -0.334090
-0.311974 0.556038 -0.335151
-0.315695 0.596463 -0.334506
-0.316708 0.604007 -0.334194
-0.315446 0.599760 -0.334480
-0.311188 0.610317 -0.334572
-0.322595 0.579361 -0.256306
-0.322177 0.592619 -0.256447
-0.386848 0.636080 -0.320389
-0.388456 0.629583 -0.304129
-0.381402 0.649677 -0.325266
-0.366173 0.621214 -0.326503
-0.388506 0.629880 -0.297652
-0.388437 0.633998 -0.280518
-0.388499 0.643194 -0.285596
-0.387966 0.662905 -0.316290
-0.388191 0.651128 -0.315041
-0.388169 0.676492 -0.306986
-0.373732 0.668901 -0.326446
-0.388506 0.655012 -0.297050
-0.388350 0.673783 -0.298521
-0.388247 0.673969 -0.276207
-0.353561 0.640873 -0.327837
-0.334796 0.621079 -0.330672
-0.348143 0.650702 -0.328392
-0.361512 0.663338 -0.326891
-0.338897 0.659297 -0.329466
-0.342784 0.678314 -0.328738
-0.386206 0.633094 -0.266134
-0.373317 0.628412 -0.263928
-0.369665 0.634472 -0.263835
-0.379106 0.678877 -0.264476
-0.368944 0.655704 -0.263816
-0.364827 0.623703 -0.263655
-0.351864 0.634503 -0.262163
-0.335109 0.623393 -0.259753
-0.361323 0.656061 -0.263333
-0.348288 0.681106 -0.262017
-0.333551 0.660467 -0.260170
-0.378766 0.691520 -0.316772
-0.387709 0.682176 -0.310492
-0.369385 0.691959 -0.312290
-0.387471 0.683671 -0.292464
-0.377261 0.691895 -0.295074
-0.362518 0.691897 -0.321492
-0.355390 0.696385 -0.313960
-0.329810 0.706341 -0.316776
-0.335231 0.705842 -0.311020
-0.353553 0.696825 -0.295213
-0.363769 0.692733 -0.280132
-0.345532 0.700303 -0.287075
-0.341994 0.699883 -0.273942
-0.375126 0.686245 -0.265026
-0.351941 0.684104 -0.262481
-0.338327 0.694953 -0.262370
-0.330145 0.626852 -0.331333
-0.325371 0.642497 -0.331832
-0.302829 0.640454 -0.334455
-0.320126 0.653864 -0.332451
-0.318676 0.682183 -0.331732
-0.310478 0.664355 -0.333242
-0.319842 0.631764 -0.257424
-0.330393 0.643407 -0.259378
-0.317860 0.662201 -0.257907
-0.318283 0.668847 -0.258161
-0.319207 0.707193 -0.314550
-0.303981 0.689790 -0.331981
-0.302714 0.707169 -0.315581
-0.312718 0.707800 -0.311617
-0.328271 0.707208 -0.277775
-0.312599 0.709299 -0.285216
-0.316149 0.688828 -0.258818
-0.306976 0.704212 -0.266710
