ply
format ascii 1.0
element vertex 1000
property float x
property float y
property float z
end_header
-0.301100 0.350992 -0.314479
-0.313697 0.346140 -0.283967
-0.273585 0.350133 -0.306917
-0.295165 0.349494 -0.299992
-0.270188 0.349506 -0.295044
-0.281717 0.395454 -0.335423
-0.281173 0.413531 -0.336144
-0.275102 0.423678 -0.337204
-0.265228 0.440096 -0.340216
-0.286033 0.478174 -0.337318
-0.271235 0.465826 -0.339563
-0.282436 0.362225 -0.330099
-0.276853 0.361129 -0.330092
-0.286913 0.404088 -0.335194
-0.310057 0.381223 -0.257781
-0.310557 0.407618 -0.256920
-0.283153 0.359927 -0.261311
-0.281268 0.358034 -0.263261
-0.288729 0.395438 -0.255936
-0.266719 0.395686 -0.255140
-0.290677 0.442952 -0.336006
-0.312977 0.420723 -0.256870
-0.308172 0.458300 -0.255702
-0.291489 0.428959 -0.255169
-0.271356 0.434762 -0.254134
-0.293750 0.464760 -0.254599
-0.280619 0.466650 -0.253747
-0.196938 0.352040 -0.338403
-0.168106 0.350508 -0.338008
-0.157762 0.353347 -0.351669
-0.249233 0.349971 -0.309423
-0.239442 0.352900 -0.328873
-0.257605 0.353130 -0.272174
-0.243165 0.349654 -0.300788
-0.216287 0.350457 -0.325693
-0.198581 0.349845 -0.325739
-0.232180 0.351135 -0.287148
-0.210042 0.349773 -0.303419
-0.170549 0.349548 -0.327299
-0.192017 0.351649 -0.296011
-0.165412 0.349523 -0.326350
-0.148153 0.349525 -0.330186
-0.146347 0.349666 -0.319897
-0.266939 0.374688 -0.336947
-0.241859 0.369673 -0.343737
-0.253603 0.403916 -0.341780
-0.238438 0.413059 -0.347095
-0.223167 0.378173 -0.350407
-0.208293 0.354822 -0.341913
-0.231902 0.395187 -0.348463
-0.208130 0.403061 -0.355590
-0.249328 0.429391 -0.344060
-0.242337 0.417930 -0.345966
-0.261441 0.468338 -0.341735
-0.243690 0.456298 -0.346499
-0.221498 0.413737 -0.352289
-0.214705 0.449656 -0.355145
-0.210283 0.440950 -0.356156
-0.227315 0.487693 -0.352180
-0.206616 0.459044 -0.357525
-0.183578 0.356705 -0.352133
-0.172090 0.359189 -0.357372
-0.194406 0.387539 -0.358688
-0.177889 0.386245 -0.362614
-0.147815 0.363863 -0.366140
-0.132133 0.376888 -0.371442
-0.165609 0.375098 -0.364799
-0.141082 0.395169 -0.370564
-0.160451 0.394993 -0.366716
-0.190733 0.436563 -0.361117
-0.175059 0.436285 -0.364820
-0.196137 0.481681 -0.360669
-0.159883 0.456922 -0.368565
-0.155293 0.429310 -0.368904
-0.146598 0.453550 -0.371200
-0.149405 0.460133 -0.370760
-0.156372 0.487140 -0.369745
-0.263244 0.356164 -0.328012
-0.207819 0.357181 -0.279596
-0.257566 0.366083 -0.259284
-0.246351 0.361024 -0.262950
-0.262931 0.392858 -0.255576
-0.244801 0.396371 -0.258314
-0.234118 0.363108 -0.264834
-0.225232 0.376878 -0.265085
-0.231085 0.413305 -0.261518
-0.217742 0.399773 -0.266770
-0.251301 0.449280 -0.255231
-0.241243 0.437119 -0.257827
-0.254998 0.477649 -0.254366
-0.226957 0.434607 -0.262274
-0.207189 0.419395 -0.269348
-0.199468 0.448421 -0.270870
-0.230332 0.480384 -0.260116
-0.220044 0.467727 -0.263946
-0.213014 0.469579 -0.266184
-0.191586 0.379781 -0.275111
-0.175889 0.377749 -0.279256
-0.186361 0.413459 -0.275364
-0.181055 0.416899 -0.276661
-0.163845 0.356996 -0.290766
-0.135872 0.362576 -0.292701
-0.155353 0.398334 -0.283499
-0.165985 0.414368 -0.280473
-0.136334 0.412352 -0.287000
-0.176554 0.430904 -0.277336
-0.189972 0.464050 -0.273187
-0.175829 0.453223 -0.277152
-0.158338 0.432897 -0.281799
-0.161486 0.442716 -0.280711
-0.165099 0.464099 -0.279476
-0.159292 0.475157 -0.280627
-0.129497 0.490057 -0.286746
-0.119870 0.350651 -0.348261
-0.106595 0.354547 -0.363759
-0.097607 0.349472 -0.341658
-0.081194 0.349509 -0.343409
-0.060699 0.352667 -0.363415
-0.048372 0.352859 -0.364740
-0.017025 0.352523 -0.365067
-0.004539 0.352598 -0.365468
-0.122849 0.349547 -0.327321
-0.105048 0.349547 -0.329037
-0.089321 0.350262 -0.327034
-0.073937 0.351920 -0.317448
-0.060355 0.350027 -0.328471
-0.030613 0.352954 -0.316550
-0.012176 0.350573 -0.325541
-0.120413 0.381772 -0.373505
-0.099118 0.375137 -0.376203
-0.128481 0.397824 -0.372825
-0.114553 0.393714 -0.374859
-0.088764 0.367767 -0.376117
-0.068007 0.368575 -0.378313
-0.092972 0.392502 -0.377626
-0.082093 0.395205 -0.378966
-0.125266 0.433899 -0.374421
-0.109626 0.434647 -0.376784
-0.120229 0.454141 -0.375673
-0.102821 0.461673 -0.378282
-0.085669 0.421023 -0.379396
-0.069837 0.418966 -0.380906
-0.089408 0.456815 -0.379817
-0.077811 0.456708 -0.381051
-0.065580 0.354655 -0.368755
-0.044598 0.359182 -0.375068
-0.039069 0.382161 -0.381732
-0.063863 0.408833 -0.381101
-0.046630 0.411951 -0.382384
-0.019144 0.373169 -0.382060
-0.003546 0.379078 -0.382540
-0.028717 0.406964 -0.383079
-0.015535 0.403598 -0.383372
-0.056700 0.444991 -0.382596
-0.035411 0.447788 -0.383915
-0.055553 0.466425 -0.383099
-0.048814 0.462644 -0.383495
-0.027264 0.428014 -0.383741
-0.012437 0.430759 -0.384196
-0.026651 0.461261 -0.384501
-0.010985 0.461858 -0.384887
-0.128562 0.362095 -0.294075
-0.105273 0.368159 -0.295090
-0.131496 0.388253 -0.288722
-0.115368 0.388882 -0.291471
-0.066122 0.354523 -0.309491
-0.087353 0.373570 -0.296259
-0.076079 0.380010 -0.297227
-0.096695 0.410906 -0.293565
-0.080788 0.407587 -0.295656
-0.125450 0.450048 -0.288093
-0.106649 0.448600 -0.291131
-0.123302 0.484452 -0.287884
-0.102223 0.478600 -0.291299
-0.099008 0.450909 -0.292217
-0.082418 0.448446 -0.294384
-0.093857 0.480876 -0.292382
-0.073790 0.483752 -0.294734
-0.045476 0.358039 -0.308532
-0.064540 0.382397 -0.298276
-0.043242 0.368479 -0.301243
-0.051625 0.415617 -0.298128
-0.039105 0.414203 -0.298936
-0.019506 0.377648 -0.301733
-0.010532 0.382462 -0.301465
-0.024170 0.401301 -0.300230
-0.017182 0.403286 -0.300416
-0.065901 0.419982 -0.296848
-0.034462 0.427740 -0.298826
-0.055964 0.454561 -0.296811
-0.037278 0.455691 -0.298010
-0.020640 0.427962 -0.299430
-0.016196 0.423889 -0.299748
-0.024259 0.466195 -0.298401
-0.012159 0.468513 -0.298686
-0.299902 0.499879 -0.336057
-0.283830 0.505800 -0.337894
-0.274936 0.505385 -0.339408
-0.282481 0.523941 -0.338143
-0.267411 0.522901 -0.340920
-0.280264 0.537913 -0.338447
-0.299421 0.574676 -0.335992
-0.275400 0.568392 -0.339204
-0.279244 0.585923 -0.338274
-0.273371 0.616378 -0.338330
-0.304716 0.509911 -0.254803
-0.308806 0.538864 -0.255036
-0.291128 0.510248 -0.253913
-0.277814 0.511931 -0.253217
-0.292392 0.541736 -0.253970
-0.281951 0.546846 -0.253323
-0.314973 0.558570 -0.255529
-0.299695 0.570423 -0.254623
-0.306031 0.607026 -0.255554
-0.285434 0.577930 -0.253780
-0.267139 0.579346 -0.253203
-0.289978 0.607404 -0.254528
-0.274742 0.601830 -0.253729
-0.277489 0.650428 -0.336494
-0.281776 0.660161 -0.335442
-0.298987 0.639732 -0.334737
-0.290283 0.667132 -0.334612
-0.309968 0.622511 -0.256121
-0.307583 0.657355 -0.256884
-0.286922 0.620437 -0.254598
-0.270430 0.629622 -0.254220
-0.288235 0.652961 -0.255536
-0.268420 0.665208 -0.255208
-0.297904 0.693599 -0.331762
-0.283693 0.709109 -0.306233
-0.273697 0.697096 -0.332186
-0.298437 0.709706 -0.288683
-0.274774 0.709743 -0.291001
-0.302662 0.695593 -0.258821
-0.283771 0.696898 -0.258746
-0.252584 0.494100 -0.344440
-0.256455 0.512839 -0.343536
-0.248453 0.528605 -0.345716
-0.246823 0.521223 -0.346194
-0.220511 0.494654 -0.354221
-0.222509 0.512417 -0.353780
-0.209742 0.508062 -0.357305
-0.224786 0.542881 -0.353154
-0.204279 0.532621 -0.358832
-0.258613 0.558270 -0.342883
-0.239841 0.575074 -0.348239
-0.249218 0.608903 -0.344666
-0.242910 0.608218 -0.346656
-0.225028 0.580849 -0.352749
-0.211146 0.557062 -0.356891
-0.235902 0.581889 -0.349447
-0.219541 0.605494 -0.353884
-0.204023 0.615661 -0.357907
-0.186823 0.513353 -0.363178
-0.186788 0.522974 -0.363216
-0.176055 0.522771 -0.365733
-0.161129 0.491535 -0.368811
-0.154262 0.512705 -0.370374
-0.144297 0.510105 -0.372317
-0.160328 0.550085 -0.369106
-0.140601 0.531447 -0.373027
-0.191763 0.561160 -0.361892
-0.175867 0.568621 -0.365582
-0.187940 0.604017 -0.362225
-0.179862 0.610675 -0.364006
-0.160951 0.574779 -0.368772
-0.145066 0.557578 -0.372126
-0.170531 0.586402 -0.366586
-0.151996 0.608020 -0.370057
-0.143399 0.614581 -0.371536
-0.255844 0.508581 -0.253991
-0.240360 0.506788 -0.256973
-0.257875 0.540416 -0.253745
-0.235690 0.542617 -0.258057
-0.221346 0.516997 -0.262997
-0.208693 0.508882 -0.267189
-0.225324 0.521492 -0.261601
-0.214099 0.526141 -0.265297
-0.210641 0.542092 -0.266534
-0.256400 0.568484 -0.254060
-0.237376 0.568437 -0.257817
-0.251341 0.604768 -0.255109
-0.242705 0.604163 -0.257068
-0.222387 0.582658 -0.262850
-0.206291 0.567421 -0.267912
-0.229988 0.586127 -0.260350
-0.220386 0.589752 -0.263694
-0.215183 0.600055 -0.265690
-0.180239 0.497581 -0.275151
-0.191804 0.537469 -0.272034
-0.183133 0.531991 -0.274285
-0.154018 0.501750 -0.281621
-0.130524 0.501187 -0.286576
-0.141323 0.512352 -0.284240
-0.166397 0.540091 -0.278524
-0.146685 0.521756 -0.283162
-0.196122 0.567552 -0.270931
-0.177424 0.551910 -0.275857
-0.185952 0.594501 -0.274102
-0.175507 0.592315 -0.276728
-0.154901 0.556801 -0.281370
-0.152677 0.557071 -0.281892
-0.149191 0.569211 -0.282706
-0.166756 0.602933 -0.279082
-0.136917 0.604271 -0.285806
-0.248042 0.627796 -0.344535
-0.236216 0.626945 -0.348438
-0.251724 0.652773 -0.342699
-0.256377 0.686858 -0.339499
-0.244736 0.681609 -0.343679
-0.226907 0.639678 -0.350897
-0.198085 0.645220 -0.358688
-0.229115 0.670584 -0.349026
-0.210959 0.676470 -0.354046
-0.246193 0.693055 -0.342278
-0.236638 0.691512 -0.344835
-0.230209 0.689411 -0.347140
-0.198736 0.691984 -0.355423
-0.186246 0.628849 -0.362098
-0.171334 0.628112 -0.365472
-0.181579 0.655557 -0.362440
-0.167704 0.660116 -0.365321
-0.146533 0.634672 -0.370468
-0.135184 0.642356 -0.372322
-0.153033 0.662901 -0.368324
-0.153793 0.663691 -0.368136
-0.164604 0.669925 -0.365611
-0.189292 0.698084 -0.355824
-0.167492 0.705452 -0.350836
-0.141817 0.691109 -0.368983
-0.157187 0.706773 -0.348689
-0.141731 0.705673 -0.354651
-0.147512 0.707844 -0.345344
-0.265392 0.637480 -0.254405
-0.248375 0.640368 -0.256586
-0.265871 0.674161 -0.255539
-0.236407 0.668688 -0.260443
-0.224277 0.642870 -0.263834
-0.203773 0.638519 -0.270300
-0.224895 0.655516 -0.264043
-0.200510 0.656871 -0.271933
-0.250031 0.707179 -0.321071
-0.245345 0.705957 -0.327707
-0.263340 0.709809 -0.297225
-0.247039 0.709359 -0.292789
-0.227773 0.709363 -0.314476
-0.210938 0.709744 -0.316949
-0.221662 0.704788 -0.277476
-0.214390 0.704831 -0.280313
-0.259269 0.702601 -0.262662
-0.237806 0.696510 -0.262363
-0.227372 0.704870 -0.275643
-0.193375 0.651861 -0.273705
-0.170150 0.635526 -0.279048
-0.196898 0.671604 -0.273352
-0.177819 0.669712 -0.278245
-0.145506 0.642882 -0.285002
-0.143483 0.645309 -0.285501
-0.155330 0.675533 -0.284034
-0.135031 0.663329 -0.287776
-0.183171 0.709466 -0.312367
-0.181061 0.709879 -0.317651
-0.199772 0.709177 -0.302886
-0.169957 0.705605 -0.294256
-0.177842 0.696917 -0.280905
-0.139778 0.709844 -0.333001
-0.156792 0.684712 -0.284179
-0.165063 0.706760 -0.300198
-0.152588 0.701710 -0.291726
-0.120689 0.513779 -0.376326
-0.108135 0.509537 -0.378122
-0.124597 0.547228 -0.375699
-0.112399 0.542598 -0.377571
-0.097802 0.517398 -0.379538
-0.076528 0.508081 -0.381813
-0.089226 0.535659 -0.380539
-0.077316 0.539159 -0.381786
-0.123852 0.573535 -0.375605
-0.107118 0.568667 -0.378123
-0.122844 0.609386 -0.375178
-0.099889 0.602325 -0.378611
-0.085266 0.568773 -0.380805
-0.073027 0.577276 -0.381912
-0.086019 0.612053 -0.380020
-0.067109 0.615445 -0.381813
-0.062017 0.491574 -0.382963
-0.045400 0.501456 -0.384170
-0.054885 0.530534 -0.383672
-0.047596 0.530068 -0.384150
-0.031754 0.499083 -0.384831
-0.016360 0.498433 -0.385314
-0.031029 0.532766 -0.384975
-0.003523 0.527466 -0.385566
-0.055383 0.557066 -0.383538
-0.041542 0.553179 -0.384403
-0.064263 0.585505 -0.382589
-0.038899 0.589998 -0.384137
-0.019822 0.561150 -0.385214
-0.004067 0.556579 -0.385467
-0.016624 0.578226 -0.385129
-0.028054 0.614690 -0.384131
-0.012539 0.609665 -0.384643
-0.108645 0.500638 -0.290076
-0.124828 0.530483 -0.287441
-0.108593 0.520928 -0.289982
-0.086708 0.487688 -0.293226
-0.070019 0.494223 -0.295044
-0.091163 0.525066 -0.292423
-0.073197 0.531733 -0.294643
-0.121539 0.555260 -0.288000
-0.102421 0.552109 -0.290985
-0.125424 0.613450 -0.288148
-0.114126 0.611609 -0.290002
-0.095841 0.579586 -0.292139
-0.084199 0.580938 -0.293661
-0.100161 0.605226 -0.291996
-0.084105 0.603823 -0.294043
-0.063461 0.487170 -0.295698
-0.037868 0.488114 -0.297505
-0.060927 0.518349 -0.295677
-0.040376 0.527702 -0.297118
-0.024918 0.491728 -0.298095
-0.009703 0.493296 -0.298401
-0.030022 0.534074 -0.297734
-0.016437 0.522638 -0.298248
-0.054559 0.564780 -0.296506
-0.052014 0.576545 -0.296747
-0.047522 0.570227 -0.297030
-0.052749 0.608284 -0.297135
-0.049786 0.601735 -0.297208
-0.020810 0.575922 -0.298457
-0.015983 0.574205 -0.298572
-0.026033 0.617252 -0.298792
-0.008133 0.615343 -0.299190
-0.117812 0.638418 -0.375249
-0.100134 0.634599 -0.377822
-0.115927 0.669023 -0.374543
-0.105319 0.673675 -0.375806
-0.095506 0.636837 -0.378310
-0.067010 0.642475 -0.381114
-0.087973 0.667836 -0.378181
-0.075953 0.671735 -0.379273
-0.124849 0.703325 -0.365847
-0.099346 0.701832 -0.371346
-0.125057 0.709730 -0.337043
-0.087091 0.690464 -0.377170
-0.076494 0.686911 -0.378407
-0.088662 0.706827 -0.359808
-0.071666 0.708578 -0.353704
-0.063594 0.623308 -0.381892
-0.042633 0.629105 -0.383123
-0.066323 0.660227 -0.380608
-0.043183 0.660557 -0.382144
-0.028593 0.630658 -0.383725
-0.016910 0.627160 -0.384193
-0.021775 0.654877 -0.383233
-0.004683 0.654735 -0.383515
-0.055726 0.684796 -0.380319
-0.040992 0.692450 -0.380180
-0.060262 0.708195 -0.356190
-0.047219 0.709449 -0.351145
-0.019889 0.705979 -0.367638
-0.007530 0.703986 -0.373606
-0.029367 0.708944 -0.354382
-0.001616 0.709966 -0.341272
-0.128326 0.645102 -0.288394
-0.108236 0.644500 -0.291738
-0.128173 0.677083 -0.289523
-0.106530 0.682131 -0.293328
-0.100704 0.640838 -0.292806
-0.080819 0.649865 -0.295580
-0.094503 0.678760 -0.294910
-0.082392 0.680772 -0.296516
-0.124482 0.707936 -0.313857
-0.102321 0.706786 -0.311738
-0.131269 0.700511 -0.294117
-0.118787 0.698048 -0.294279
-0.093098 0.706394 -0.311474
-0.063712 0.702285 -0.303105
-0.106171 0.702196 -0.298597
-0.064004 0.621332 -0.296520
-0.049938 0.620329 -0.297603
-0.061211 0.663659 -0.298030
-0.045400 0.659633 -0.299070
-0.022291 0.633368 -0.299349
-0.003686 0.632820 -0.299667
-0.012582 0.645197 -0.300027
-0.010229 0.681534 -0.301453
-0.029694 0.657668 -0.299863
-0.057828 0.704982 -0.309717
-0.042642 0.705215 -0.312041
-0.042222 0.689094 -0.300742
-0.018671 0.687410 -0.301865
-0.029169 0.698310 -0.304889
-0.012346 0.707511 -0.320811
0.008983 0.352933 -0.366407
0.033695 0.350957 -0.359246
0.038168 0.350742 -0.357572
0.059125 0.350225 -0.353048
0.064174 0.349331 -0.338318
0.081952 0.349530 -0.346647
0.091992 0.349432 -0.343116
0.122882 0.349567 -0.338940
0.012037 0.351177 -0.323128
0.020506 0.349520 -0.335033
0.059176 0.350572 -0.323406
0.084013 0.349582 -0.331454
0.095907 0.351430 -0.315576
0.112826 0.350776 -0.315960
0.122765 0.349841 -0.319759
0.002330 0.375971 -0.382394
0.020722 0.374028 -0.382047
0.010237 0.404312 -0.383437
0.023446 0.404396 -0.383139
0.040367 0.363464 -0.377970
0.053560 0.366181 -0.378364
0.033165 0.395633 -0.382503
0.056118 0.395636 -0.381149
0.012172 0.434735 -0.384296
0.016063 0.422419 -0.383924
0.000896 0.456261 -0.384875
0.022677 0.467960 -0.384718
0.046122 0.419238 -0.382581
0.061639 0.430306 -0.381809
0.043378 0.458153 -0.383646
0.056467 0.452560 -0.382706
0.070917 0.358962 -0.373234
0.089153 0.355079 -0.367313
0.085370 0.382978 -0.378007
0.073163 0.418454 -0.380474
0.090942 0.414645 -0.378477
0.106409 0.377013 -0.375130
0.118129 0.373267 -0.373300
0.108223 0.410689 -0.376150
0.128896 0.402181 -0.372753
0.076011 0.431562 -0.380560
0.093729 0.433726 -0.378690
0.067385 0.458471 -0.381978
0.082832 0.453331 -0.380392
0.098743 0.428284 -0.377948
0.114745 0.422711 -0.375610
0.107731 0.462270 -0.377483
0.121688 0.468349 -0.375538
0.012221 0.362172 -0.306310
0.028228 0.363032 -0.305364
0.004225 0.411631 -0.300327
0.015905 0.400989 -0.300421
0.025268 0.410778 -0.299693
0.044111 0.377355 -0.300193
0.054974 0.365806 -0.300808
0.037497 0.393587 -0.299810
0.051583 0.391222 -0.299039
-0.000583 0.429894 -0.299677
0.023257 0.432579 -0.299105
0.001671 0.458155 -0.298964
0.020529 0.464931 -0.298527
0.026681 0.470521 -0.298188
0.043152 0.438852 -0.297960
0.060911 0.444530 -0.296547
0.047268 0.475116 -0.297023
0.050626 0.471759 -0.296858
0.081847 0.355735 -0.306888
0.083840 0.355218 -0.307444
0.072536 0.390845 -0.297030
0.094334 0.402500 -0.293998
0.107179 0.362510 -0.295868
0.129763 0.370393 -0.289936
0.107706 0.400611 -0.292105
0.110477 0.404703 -0.291530
0.068578 0.428185 -0.296283
0.069318 0.437721 -0.295954
0.098156 0.449929 -0.292216
0.082934 0.484220 -0.293609
0.088583 0.469106 -0.293101
0.109700 0.443712 -0.290639
0.122755 0.440839 -0.288582
0.113689 0.471068 -0.289509
0.138684 0.349842 -0.339423
0.162647 0.353185 -0.350207
0.197918 0.353181 -0.341711
0.142059 0.353141 -0.302000
0.149630 0.352673 -0.302198
0.171253 0.350126 -0.309343
0.195168 0.349174 -0.315940
0.197242 0.353779 -0.286575
0.212971 0.351502 -0.331531
0.224216 0.352514 -0.331833
0.200203 0.350499 -0.298137
0.238140 0.350584 -0.319532
0.253880 0.349881 -0.309149
0.240782 0.349266 -0.297197
0.260121 0.349386 -0.292278
0.134272 0.356741 -0.363850
0.139591 0.356740 -0.362035
0.163016 0.376678 -0.365067
0.153113 0.404722 -0.368393
0.157802 0.397183 -0.367141
0.167170 0.370837 -0.363744
0.182582 0.366943 -0.359323
0.175323 0.399402 -0.363431
0.186131 0.397053 -0.360816
0.132584 0.434140 -0.373046
0.159945 0.448216 -0.368161
0.135259 0.456473 -0.373076
0.166789 0.464090 -0.367018
0.157236 0.482026 -0.369306
0.174183 0.438702 -0.364818
0.182700 0.435588 -0.362831
0.176177 0.478471 -0.365131
0.195129 0.484501 -0.360699
0.212770 0.373607 -0.352741
0.226787 0.363290 -0.345478
0.199364 0.386486 -0.357078
0.198227 0.412020 -0.358285
0.237878 0.360583 -0.341309
0.264134 0.369531 -0.336809
0.253530 0.380768 -0.340735
0.239460 0.411987 -0.346329
0.250828 0.409116 -0.342891
0.200957 0.451187 -0.358605
0.225178 0.438917 -0.351625
0.206806 0.467892 -0.357357
0.221168 0.463205 -0.353306
0.219259 0.480058 -0.354112
0.258295 0.419341 -0.341176
0.247299 0.445976 -0.344818
0.255177 0.456024 -0.342907
0.145182 0.365849 -0.288810
0.152091 0.354785 -0.296547
0.163851 0.377275 -0.282134
0.142995 0.410564 -0.285528
0.157153 0.412387 -0.282410
0.183928 0.367132 -0.278331
0.198346 0.361456 -0.276796
0.169330 0.397084 -0.279861
0.192029 0.396401 -0.273889
0.133417 0.425331 -0.287066
0.158698 0.429894 -0.281506
0.152853 0.451706 -0.282518
0.137537 0.458458 -0.285567
0.156411 0.466572 -0.281134
0.173481 0.429590 -0.277807
0.188004 0.425149 -0.274189
0.180438 0.457177 -0.275426
0.195827 0.464388 -0.271307
0.204215 0.354539 -0.282945
0.256313 0.353338 -0.325280
0.231367 0.381912 -0.262232
0.199701 0.410332 -0.271289
0.215516 0.399783 -0.266724
0.244465 0.366353 -0.260443
0.253652 0.365019 -0.259617
0.235484 0.393017 -0.260335
0.250088 0.393541 -0.256793
0.212806 0.430305 -0.266667
0.217723 0.445220 -0.264665
0.226625 0.445026 -0.261671
0.202536 0.454956 -0.269458
0.219823 0.455760 -0.263772
0.235705 0.422511 -0.259312
0.251339 0.425167 -0.255690
0.236009 0.460564 -0.258346
0.253740 0.459584 -0.254677
0.279441 0.349899 -0.305317
0.287939 0.353207 -0.319741
0.265922 0.349878 -0.285652
0.287755 0.350980 -0.278365
0.261997 0.401997 -0.339249
0.282414 0.419953 -0.336043
0.277986 0.439936 -0.337297
0.263392 0.467192 -0.340994
0.297200 0.485197 -0.336083
0.271921 0.361832 -0.331932
0.300780 0.360257 -0.328116
0.296360 0.390756 -0.334060
0.306312 0.358231 -0.325801
0.313441 0.399695 -0.333124
0.268342 0.369335 -0.257046
0.291790 0.368598 -0.258285
0.290998 0.372387 -0.257099
0.279651 0.409172 -0.255069
0.294197 0.413545 -0.255800
0.299057 0.410522 -0.256189
0.294802 0.449101 -0.335700
0.309482 0.436868 -0.334382
0.299229 0.469827 -0.335744
0.276138 0.450931 -0.253939
0.284256 0.448646 -0.254312
0.270372 0.482684 -0.253284
0.284723 0.479412 -0.253835
0.306806 0.445482 -0.255826
0.298174 0.476228 -0.254751
0.001135 0.498477 -0.385455
0.016472 0.491530 -0.385229
0.000954 0.521415 -0.385578
0.017907 0.521499 -0.385368
0.044023 0.498630 -0.384163
0.049529 0.497165 -0.383851
0.046545 0.530112 -0.384153
0.061187 0.529881 -0.383140
0.013752 0.553371 -0.385386
0.025589 0.556104 -0.385029
0.010497 0.589236 -0.385026
0.022153 0.590646 -0.384749
0.039748 0.551976 -0.384453
0.034072 0.573620 -0.384561
0.057805 0.579988 -0.383057
0.037287 0.615858 -0.383676
0.057289 0.613106 -0.382515
0.079633 0.516945 -0.381468
0.086408 0.514604 -0.380719
0.070305 0.547690 -0.382328
0.088525 0.549436 -0.380452
0.109377 0.514551 -0.377839
0.115691 0.515235 -0.376955
0.107027 0.539718 -0.378170
0.130116 0.543382 -0.374677
0.078036 0.570804 -0.381417
0.092234 0.573841 -0.379818
0.078414 0.609961 -0.380754
0.096559 0.613295 -0.378657
0.110320 0.576627 -0.377447
0.127931 0.570240 -0.374837
0.107382 0.601841 -0.377461
0.125998 0.607170 -0.374563
0.003637 0.506473 -0.298350
0.027118 0.494990 -0.297874
0.008935 0.520103 -0.298300
0.026028 0.526081 -0.297766
0.047727 0.494614 -0.296765
0.057730 0.492470 -0.296027
0.035019 0.529273 -0.297366
0.051554 0.520656 -0.296347
0.001231 0.554335 -0.298412
0.020665 0.561052 -0.298221
0.001007 0.600369 -0.299099
0.003372 0.601374 -0.299097
0.030753 0.601897 -0.298266
0.043227 0.575339 -0.297146
0.061510 0.572346 -0.295778
0.036550 0.616186 -0.298246
0.055385 0.613843 -0.296959
0.082470 0.517940 -0.293403
0.088803 0.517109 -0.292604
0.075088 0.549181 -0.294254
0.091358 0.547847 -0.292303
0.103834 0.513021 -0.290587
0.119033 0.514681 -0.288214
0.107543 0.544194 -0.290020
0.118406 0.536950 -0.288321
0.077743 0.578367 -0.294226
0.096546 0.580132 -0.291920
0.080873 0.602932 -0.294267
0.087627 0.602004 -0.293422
0.110711 0.577659 -0.289811
0.102752 0.588798 -0.291169
0.121646 0.594376 -0.288266
0.007839 0.625261 -0.384321
0.028135 0.622193 -0.383919
0.014270 0.653659 -0.383447
0.028904 0.655629 -0.382940
0.042107 0.625031 -0.383199
0.042352 0.646698 -0.382588
0.057263 0.649588 -0.381550
0.043894 0.682387 -0.381172
0.051525 0.677748 -0.380917
0.006762 0.703133 -0.375295
0.023176 0.700147 -0.377263
0.003447 0.710016 -0.339385
0.042712 0.688709 -0.380686
0.060319 0.686402 -0.379822
0.040862 0.708093 -0.358584
0.055215 0.707522 -0.360490
0.074314 0.631478 -0.380634
0.084145 0.622566 -0.379874
0.068986 0.662008 -0.380199
0.086644 0.651411 -0.378778
0.113978 0.632392 -0.375857
0.117223 0.617991 -0.375713
0.112991 0.653736 -0.375350
0.122149 0.652158 -0.373984
0.071731 0.692174 -0.378458
0.096156 0.694618 -0.375680
0.074941 0.709160 -0.351714
0.095726 0.709421 -0.347333
0.100639 0.705482 -0.363558
0.125208 0.697136 -0.370409
0.103733 0.710160 -0.337714
0.013688 0.632540 -0.299552
0.011253 0.641461 -0.300003
0.023332 0.640470 -0.299543
0.022115 0.679603 -0.301272
0.041100 0.629545 -0.298302
0.047237 0.634809 -0.298069
0.060643 0.635905 -0.297083
0.044670 0.670378 -0.299558
0.051639 0.674949 -0.299299
0.003589 0.709004 -0.329080
0.026562 0.693555 -0.302946
0.022325 0.705259 -0.313537
0.042687 0.706473 -0.316143
0.052183 0.709047 -0.327338
0.034130 0.689283 -0.301519
0.082259 0.626478 -0.294650
0.095886 0.627739 -0.292938
0.079474 0.660673 -0.295979
0.090515 0.658050 -0.294540
0.106537 0.624544 -0.291278
0.120740 0.633234 -0.289182
0.105939 0.665882 -0.292633
0.123803 0.665379 -0.289669
0.075932 0.709520 -0.328512
0.077222 0.701486 -0.301358
0.077545 0.700653 -0.300688
0.088063 0.683861 -0.295865
0.113478 0.707710 -0.312989
0.122575 0.709232 -0.318188
0.101293 0.698382 -0.296892
0.116685 0.701357 -0.296642
0.136428 0.514185 -0.373553
0.159908 0.501841 -0.368950
0.141215 0.530675 -0.372729
0.158049 0.522452 -0.369433
0.147563 0.537258 -0.371554
0.194558 0.489147 -0.360884
0.171798 0.519319 -0.366485
0.183614 0.524007 -0.363741
0.130596 0.560336 -0.374497
0.150603 0.553037 -0.370878
0.146739 0.583162 -0.371355
0.134394 0.614219 -0.372982
0.167883 0.606121 -0.366613
0.173961 0.562266 -0.365852
0.187046 0.570987 -0.362691
0.171889 0.612980 -0.365543
0.182024 0.609886 -0.363274
0.202593 0.511452 -0.358953
0.227620 0.507171 -0.351945
0.204019 0.534852 -0.358619
0.229688 0.530770 -0.351389
0.220013 0.544293 -0.354202
0.239970 0.511488 -0.348093
0.256942 0.513464 -0.343131
0.257167 0.523075 -0.343100
0.209556 0.552670 -0.357069
0.230105 0.554908 -0.351178
0.217549 0.569301 -0.354719
0.201341 0.601756 -0.358643
0.211976 0.596507 -0.355885
0.244230 0.559849 -0.346600
0.251499 0.562252 -0.344490
0.240902 0.596115 -0.347229
0.259529 0.601773 -0.341783
0.131843 0.492961 -0.286086
0.138172 0.516025 -0.284680
0.162944 0.503195 -0.279107
0.144445 0.536274 -0.283308
0.167580 0.525846 -0.277931
0.175976 0.491153 -0.276029
0.191885 0.517769 -0.271768
0.177031 0.547441 -0.275636
0.186671 0.545832 -0.273157
0.142357 0.576007 -0.284129
0.162595 0.565881 -0.279358
0.149107 0.595445 -0.282990
0.149824 0.607809 -0.283044
0.150031 0.617300 -0.283181
0.181007 0.582644 -0.275097
0.192911 0.576309 -0.271738
0.175626 0.605817 -0.276828
0.208480 0.487007 -0.267150
0.217359 0.508295 -0.263863
0.233934 0.500298 -0.258316
0.197597 0.532534 -0.270174
0.198315 0.535276 -0.269961
0.231778 0.542039 -0.258986
0.260485 0.500856 -0.253446
0.234791 0.523217 -0.257996
0.253340 0.524483 -0.254085
0.211370 0.559325 -0.266271
0.219327 0.580138 -0.263797
0.227008 0.558609 -0.260915
0.197666 0.588766 -0.270524
0.205010 0.611584 -0.268792
0.237250 0.560980 -0.257594
0.255692 0.559006 -0.253950
0.243904 0.598175 -0.256434
0.251701 0.596189 -0.254815
0.155818 0.628070 -0.368632
0.146074 0.644275 -0.370097
0.160319 0.644095 -0.367231
0.143394 0.681661 -0.369332
0.155147 0.669187 -0.367451
0.172922 0.650063 -0.364302
0.193765 0.649556 -0.359381
0.168775 0.681903 -0.363969
0.182844 0.671389 -0.361287
0.142730 0.706689 -0.352518
0.152023 0.687210 -0.367056
0.154882 0.707691 -0.346921
0.173556 0.697111 -0.360772
0.180049 0.690769 -0.360795
0.188327 0.707871 -0.338201
0.205468 0.648198 -0.356305
0.228378 0.634405 -0.350318
0.199890 0.652639 -0.357673
0.204700 0.672471 -0.355642
0.236192 0.624772 -0.348155
0.252020 0.627036 -0.343045
0.231831 0.655294 -0.348548
0.269156 0.674950 -0.336812
0.209877 0.691247 -0.352681
0.205958 0.703944 -0.346602
0.216263 0.699777 -0.347131
0.267459 0.688565 -0.335787
0.135507 0.632143 -0.286535
0.163035 0.627133 -0.280398
0.151859 0.636302 -0.283252
0.158626 0.654879 -0.282290
0.159987 0.672054 -0.282580
0.176963 0.648614 -0.277489
0.194354 0.646342 -0.273088
0.180640 0.675124 -0.277488
0.196316 0.668309 -0.272960
0.134096 0.707740 -0.309118
0.157527 0.708366 -0.306536
0.137119 0.698280 -0.291824
0.147679 0.705002 -0.297309
0.180400 0.709482 -0.307847
0.198205 0.709946 -0.307502
0.168657 0.704471 -0.290633
0.198322 0.709053 -0.300335
0.202233 0.668737 -0.271357
0.205937 0.619672 -0.268712
0.229188 0.628247 -0.261214
0.211165 0.659293 -0.268402
0.231166 0.655022 -0.261346
0.239476 0.626848 -0.258112
0.261382 0.621161 -0.254307
0.249529 0.656749 -0.256541
0.257173 0.656002 -0.255707
0.205478 0.710161 -0.319531
0.221657 0.708708 -0.325316
0.206286 0.708921 -0.296980
0.218751 0.710048 -0.300577
0.237768 0.707193 -0.327059
0.250626 0.708363 -0.318470
0.239797 0.709837 -0.293214
0.259527 0.707764 -0.277663
0.227668 0.702283 -0.268635
0.235944 0.704141 -0.270479
0.253255 0.700617 -0.261857
0.274832 0.516542 -0.339282
0.303018 0.503606 -0.335756
0.273939 0.525248 -0.339467
0.295449 0.532907 -0.336430
0.286770 0.541791 -0.337400
0.267588 0.567666 -0.340468
0.280195 0.555725 -0.338219
0.283436 0.587418 -0.337386
0.284822 0.608413 -0.336696
0.311494 0.503950 -0.335096
0.305150 0.547269 -0.335631
0.274683 0.508935 -0.253178
0.283725 0.503755 -0.253533
0.277234 0.545102 -0.253224
0.283797 0.535076 -0.253456
0.308653 0.506931 -0.255147
0.311384 0.546983 -0.255300
0.314213 0.560075 -0.334852
0.309597 0.599365 -0.334832
0.280343 0.563650 -0.253412
0.297074 0.560474 -0.254441
0.279946 0.595806 -0.253799
0.282549 0.585503 -0.253756
0.311583 0.564715 -0.255419
0.305441 0.599145 -0.255442
0.282529 0.626589 -0.336488
0.274658 0.641377 -0.336978
0.263236 0.667714 -0.338437
0.287952 0.646379 -0.335322
0.297451 0.676808 -0.333634
0.311922 0.647480 -0.333602
0.309528 0.667931 -0.333141
0.277074 0.648226 -0.254930
0.292088 0.649108 -0.255740
0.278718 0.683441 -0.256155
0.293248 0.681912 -0.256897
0.298143 0.646672 -0.256054
0.306883 0.653542 -0.256797
0.271483 0.705464 -0.323523
0.293954 0.685836 -0.333337
0.285678 0.703458 -0.326188
0.277859 0.709473 -0.285543
0.293147 0.708200 -0.279831
0.311842 0.702072 -0.325937
0.307150 0.709648 -0.287766
0.277260 0.705920 -0.270188
0.293113 0.704566 -0.267240
0.308415 0.703212 -0.264670
