ply
format ascii 1.0
element vertex 1000
property float x
property float y
property float z
end_header
0.331445 -0.081262 -0.317891
0.338421 -0.086307 -0.323580
0.354773 -0.083849 -0.326353
0.338837 -0.067523 -0.323582
0.344202 -0.075810 -0.325028
0.332542 -0.068667 -0.314147
0.328655 -0.074800 -0.302252
0.336450 -0.054698 -0.319282
0.345087 -0.044634 -0.325198
0.334191 -0.060760 -0.302823
0.358663 -0.068357 -0.326414
0.358427 -0.060568 -0.326400
0.353586 -0.049787 -0.326305
0.334031 -0.062331 -0.290502
0.330303 -0.071234 -0.282680
0.327884 -0.077708 -0.280619
0.334114 -0.046648 -0.292001
0.334164 -0.054999 -0.291073
0.334217 -0.052140 -0.284628
0.369613 -0.093104 -0.326453
0.373182 -0.082104 -0.326411
0.385309 -0.080333 -0.322149
0.387328 -0.087673 -0.307975
0.387333 -0.084114 -0.307802
0.387478 -0.099281 -0.301927
0.386088 -0.101222 -0.269914
0.387325 -0.107164 -0.283701
0.387479 -0.087102 -0.293413
0.386279 -0.092336 -0.271489
0.387458 -0.089940 -0.285110
0.374000 -0.075156 -0.326401
0.369976 -0.056309 -0.326449
0.385568 -0.076261 -0.321209
0.383730 -0.073754 -0.324082
0.387259 -0.078082 -0.310463
0.386988 -0.059494 -0.316062
0.383194 -0.050550 -0.324270
0.387198 -0.059304 -0.308670
0.387398 -0.074686 -0.287139
0.387339 -0.066647 -0.300206
0.387132 -0.075394 -0.281254
0.387081 -0.054384 -0.286650
0.387256 -0.057234 -0.301427
0.385997 -0.054991 -0.269027
0.386966 -0.056702 -0.283492
0.332676 -0.070518 -0.261713
0.331932 -0.078919 -0.261335
0.337093 -0.062783 -0.246331
0.337645 -0.077122 -0.239846
0.335596 -0.050875 -0.266188
0.336659 -0.061716 -0.252146
0.337390 -0.058897 -0.242302
0.385674 -0.096328 -0.266510
0.385088 -0.095153 -0.261848
0.384281 -0.083646 -0.249325
0.385635 -0.075001 -0.261649
0.385892 -0.072663 -0.264752
0.384270 -0.071427 -0.244634
0.384792 -0.065756 -0.250573
0.385819 -0.053576 -0.266543
0.383974 -0.057006 -0.239179
0.384781 -0.057877 -0.250117
0.383627 -0.067952 -0.226075
0.383705 -0.062187 -0.222457
0.383706 -0.045819 -0.224927
0.334628 -0.038850 -0.315991
0.344618 -0.027238 -0.325075
0.334156 -0.043193 -0.305400
0.336696 -0.021853 -0.319710
0.343625 -0.011584 -0.324813
0.334252 -0.017258 -0.312509
0.355391 -0.043192 -0.326340
0.354643 -0.036696 -0.326325
0.354200 -0.015700 -0.326317
0.334110 -0.032238 -0.301868
0.334109 -0.043689 -0.292200
0.335177 -0.029332 -0.271355
0.334110 -0.015021 -0.296981
0.334110 -0.021119 -0.286908
0.334384 -0.017973 -0.281961
0.335112 -0.020295 -0.272595
0.345430 -0.007215 -0.325288
0.334216 -0.004430 -0.309843
0.334137 -0.012311 -0.304015
0.336492 0.011609 -0.319343
0.340702 0.022475 -0.324044
0.334176 0.011695 -0.306856
0.361962 -0.003532 -0.326470
0.359590 0.008559 -0.326423
0.350573 0.012095 -0.326245
0.334110 0.002490 -0.290409
0.334287 -0.001901 -0.282164
0.335148 -0.009931 -0.271339
0.334111 0.015524 -0.290720
0.334111 0.016027 -0.288298
0.334325 0.004953 -0.280900
0.369651 -0.042487 -0.326453
0.374240 -0.028259 -0.326398
0.386977 -0.045396 -0.316102
0.384714 -0.031934 -0.323738
0.387144 -0.036838 -0.306133
0.386378 -0.025174 -0.318272
0.378979 -0.025449 -0.325745
0.387144 -0.019933 -0.306547
0.386984 -0.041337 -0.290093
0.386878 -0.031671 -0.288623
0.386413 -0.045009 -0.276964
0.386827 -0.014565 -0.286120
0.386994 -0.016818 -0.294455
0.385786 -0.022345 -0.271946
0.386224 -0.021155 -0.277725
0.367573 0.001913 -0.326477
0.364828 0.013168 -0.326510
0.386253 -0.010300 -0.318725
0.380517 0.002668 -0.325206
0.387142 0.002914 -0.311678
0.385540 0.011036 -0.321313
0.382184 0.019607 -0.324623
0.387142 0.015577 -0.312345
0.386882 -0.001109 -0.289116
0.387098 0.003357 -0.299666
0.386725 -0.010481 -0.284308
0.387008 0.006688 -0.295307
0.387100 0.010521 -0.299785
0.386355 0.016104 -0.279581
0.335582 -0.037407 -0.266016
0.337441 -0.029601 -0.241496
0.337472 -0.044112 -0.241081
0.335499 -0.022184 -0.267467
0.336087 -0.021460 -0.260042
0.337622 -0.028189 -0.239190
0.337356 -0.000925 -0.263701
0.336432 -0.013793 -0.256722
0.342256 -0.001105 -0.241440
0.340506 -0.005972 -0.239097
0.337814 -0.013160 -0.242876
0.350518 0.007699 -0.252181
0.339050 0.012083 -0.262072
0.363135 0.008049 -0.249773
0.357368 0.013352 -0.254234
0.357570 0.009808 -0.251426
0.384909 -0.043022 -0.254330
0.384098 -0.044364 -0.241610
0.384421 -0.031418 -0.248061
0.385023 -0.028326 -0.259329
0.384110 -0.027894 -0.242999
0.383839 -0.015271 -0.239089
0.383706 -0.035936 -0.224713
0.383701 -0.028308 -0.232652
0.383668 -0.020888 -0.233794
0.367351 0.004144 -0.240710
0.376228 0.008663 -0.252178
0.385559 -0.008289 -0.269247
0.383138 -0.010122 -0.240257
0.382122 -0.002859 -0.244496
0.383840 0.006263 -0.260332
0.382892 0.001210 -0.255731
0.382425 -0.006236 -0.236614
0.337759 0.037173 -0.321621
0.346469 0.030957 -0.325562
0.334242 0.026236 -0.311762
0.336487 0.053039 -0.319334
0.345745 0.042295 -0.325371
0.334274 0.048235 -0.314093
0.334201 0.038210 -0.308746
0.352145 0.030777 -0.326276
0.362866 0.041394 -0.326488
0.352520 0.043255 -0.326284
0.334111 0.023000 -0.286278
0.334172 0.035236 -0.281533
0.334110 0.037620 -0.301810
0.334111 0.043573 -0.291216
0.334268 0.052614 -0.275417
0.335671 0.071728 -0.317867
0.344634 0.058311 -0.325079
0.334179 0.066612 -0.307081
0.338760 0.078755 -0.323420
0.343084 0.073812 -0.324671
0.334276 0.077086 -0.314273
0.334117 0.084996 -0.302513
0.358300 0.068898 -0.326398
0.355566 0.074315 -0.326344
0.334110 0.061062 -0.300847
0.334110 0.055100 -0.294920
0.334166 0.063876 -0.281940
0.334110 0.082613 -0.301633
0.334110 0.071492 -0.297141
0.334255 0.070897 -0.276226
0.371276 0.023930 -0.326433
0.367196 0.037857 -0.326482
0.376553 0.053316 -0.326371
0.380980 0.022655 -0.325044
0.387143 0.024545 -0.307332
0.387003 0.049768 -0.316005
0.380403 0.038229 -0.325246
0.387144 0.043101 -0.306057
0.386942 0.028231 -0.292204
0.387136 0.026990 -0.301526
0.386170 0.030608 -0.276878
0.386882 0.046487 -0.289303
0.387119 0.046146 -0.300698
0.386321 0.047400 -0.278591
0.375962 0.059815 -0.326378
0.373382 0.078864 -0.326408
0.386897 0.062626 -0.316391
0.380197 0.058917 -0.325318
0.387144 0.062330 -0.303910
0.387140 0.081530 -0.315510
0.384000 0.074187 -0.323988
0.387143 0.078476 -0.307889
0.386836 0.068010 -0.287123
0.387038 0.059962 -0.296819
0.386527 0.066650 -0.281524
0.386814 0.084498 -0.286063
0.387072 0.081033 -0.298451
0.386287 0.081872 -0.278024
0.346843 0.028720 -0.262861
0.338312 0.024187 -0.265924
0.343448 0.041183 -0.264977
0.336513 0.042401 -0.269498
0.355242 0.033990 -0.263100
0.356434 0.049353 -0.263879
0.360973 0.048372 -0.263795
0.348149 0.066926 -0.264156
0.337606 0.064857 -0.267755
0.343965 0.073288 -0.264884
0.362064 0.069019 -0.263769
0.354346 0.055213 -0.263915
0.358215 0.083408 -0.263842
0.370946 0.029040 -0.262276
0.373293 0.021228 -0.260557
0.376150 0.049371 -0.264194
0.385378 0.021179 -0.271243
0.384369 0.036439 -0.267438
0.376677 0.040629 -0.264233
0.369464 0.068511 -0.263930
0.368144 0.086121 -0.263878
0.384074 0.056916 -0.266264
0.379841 0.049142 -0.265001
0.378385 0.071780 -0.264634
0.335984 0.104925 -0.318428
0.343448 0.095976 -0.324767
0.334253 0.102341 -0.312605
0.337222 0.117044 -0.320655
0.344980 0.109363 -0.325170
0.334256 0.109879 -0.312815
0.334215 0.109270 -0.309798
0.353244 0.102420 -0.326298
0.361636 0.111857 -0.326463
0.349719 0.111696 -0.326228
0.334111 0.096663 -0.291494
0.334116 0.092989 -0.285150
0.334110 0.119048 -0.294292
0.334110 0.107230 -0.296944
0.334240 0.115785 -0.277185
0.335895 0.136478 -0.318268
0.341275 0.125742 -0.324195
0.334199 0.132361 -0.308613
0.338728 0.156430 -0.323363
0.346871 0.151179 -0.325668
0.334238 0.146470 -0.311450
0.334210 0.141772 -0.309404
0.357943 0.130336 -0.326391
0.362098 0.144776 -0.326473
0.352002 0.142373 -0.326273
0.334111 0.121752 -0.289582
0.334128 0.130175 -0.284399
0.334110 0.145720 -0.294170
0.334111 0.141678 -0.290365
0.334142 0.147600 -0.283504
0.367811 0.087431 -0.326474
0.369883 0.106007 -0.326450
0.367835 0.115287 -0.326474
0.378310 0.089340 -0.325979
0.387142 0.089651 -0.311870
0.387143 0.100584 -0.309883
0.381301 0.104875 -0.324932
0.387144 0.108574 -0.304004
0.386807 0.100736 -0.285713
0.386982 0.099286 -0.294138
0.386614 0.086846 -0.282774
0.386851 0.106595 -0.287805
0.386968 0.115862 -0.293448
0.386393 0.115096 -0.279560
0.376884 0.122052 -0.326367
0.373311 0.146920 -0.326409
0.385755 0.121297 -0.320534
0.381344 0.124900 -0.324917
0.387143 0.127978 -0.307524
0.387002 0.150507 -0.316012
0.384628 0.149338 -0.323768
0.387144 0.139521 -0.305577
0.386916 0.126199 -0.290939
0.386986 0.135759 -0.294290
0.386257 0.120164 -0.277841
0.387069 0.138997 -0.298300
0.387130 0.142886 -0.301205
0.386580 0.142266 -0.283425
0.346298 0.097924 -0.264478
0.336913 0.094391 -0.268859
0.342881 0.106464 -0.265073
0.357680 0.099746 -0.263852
0.358428 0.095293 -0.263838
0.356878 0.112298 -0.263867
0.341524 0.132769 -0.265309
0.338391 0.136136 -0.266505
0.339075 0.148398 -0.265735
0.336244 0.149733 -0.269924
0.357363 0.136088 -0.263858
0.356218 0.122873 -0.263880
0.362647 0.148406 -0.263758
0.372946 0.100321 -0.264066
0.366717 0.117556 -0.263822
0.385129 0.086607 -0.270144
0.380507 0.094914 -0.265162
0.385268 0.106649 -0.270663
0.364999 0.132961 -0.263766
0.375596 0.127582 -0.264278
0.370133 0.136800 -0.264061
0.377927 0.123276 -0.264610
0.384131 0.130185 -0.267300
0.382020 0.141595 -0.265795
0.334844 0.156451 -0.316380
0.339139 0.172766 -0.323632
0.334225 0.156769 -0.310535
0.337452 0.178168 -0.321069
0.338978 0.185003 -0.323590
0.334146 0.182160 -0.304654
0.363789 0.165180 -0.326506
0.357206 0.165685 -0.326376
0.351426 0.180133 -0.326262
0.334111 0.168761 -0.292992
0.334111 0.159008 -0.286277
0.334258 0.158409 -0.276047
0.334110 0.173611 -0.300284
0.334144 0.174875 -0.283343
0.334277 0.170109 -0.274821
0.337397 0.191990 -0.320969
0.344408 0.204024 -0.325019
0.334182 0.192420 -0.307326
0.334405 0.218980 -0.315591
0.347253 0.218123 -0.325768
0.334124 0.207477 -0.303037
0.363010 0.187750 -0.326491
0.350104 0.199086 -0.326236
0.350654 0.211631 -0.326247
0.334110 0.199022 -0.297501
0.334110 0.188442 -0.294341
0.334301 0.195234 -0.273296
0.334110 0.214093 -0.301919
0.334184 0.213050 -0.280771
0.334235 0.207991 -0.277495
0.369734 0.169960 -0.326452
0.366039 0.175592 -0.326495
0.386849 0.160547 -0.316565
0.384001 0.169055 -0.323987
0.387141 0.165071 -0.314344
0.385062 0.176356 -0.323045
0.377277 0.172380 -0.326340
0.387215 0.184278 -0.309608
0.386821 0.153516 -0.286370
0.387080 0.163580 -0.298811
0.386646 0.167650 -0.284094
0.387124 0.185249 -0.293593
0.386080 0.174881 -0.278940
0.371184 0.190416 -0.326434
0.364394 0.188437 -0.326515
0.372940 0.219275 -0.326414
0.385930 0.197338 -0.319898
0.381940 0.202967 -0.324709
0.387211 0.193074 -0.312670
0.385425 0.216622 -0.321729
0.387460 0.215003 -0.302665
0.387208 0.217585 -0.312804
0.387159 0.189828 -0.294595
0.386493 0.191430 -0.281224
0.387184 0.211584 -0.289653
0.387430 0.213810 -0.299614
0.386169 0.207569 -0.277710
0.345663 0.167440 -0.264589
0.334423 0.158737 -0.272825
0.345704 0.185176 -0.264581
0.337705 0.175328 -0.267597
0.348976 0.165216 -0.264016
0.355482 0.181055 -0.263893
0.364255 0.184026 -0.263728
0.343116 0.189218 -0.265032
0.336803 0.194275 -0.269035
0.347354 0.205507 -0.264294
0.355163 0.201756 -0.263899
0.353530 0.189868 -0.263930
0.354363 0.212473 -0.263915
0.365042 0.162012 -0.263785
0.370310 0.160913 -0.264189
0.374663 0.172291 -0.264522
0.380263 0.159967 -0.265607
0.383727 0.173165 -0.266972
0.380720 0.165507 -0.265733
0.374564 0.197969 -0.264511
0.371921 0.204919 -0.264309
0.384981 0.192082 -0.271579
0.383878 0.205968 -0.267481
0.377636 0.206646 -0.264984
0.311293 0.348223 -0.309967
0.314399 0.349809 -0.316047
0.329525 0.336458 -0.316789
0.318620 0.350389 -0.321859
0.308918 0.346501 -0.296185
0.298975 0.353229 -0.271573
0.304939 0.349209 -0.283316
0.321491 0.339538 -0.290429
0.317064 0.343544 -0.300884
0.325764 0.341213 -0.277089
0.338316 0.227460 -0.322622
0.343789 0.226988 -0.324856
0.334255 0.231782 -0.312726
0.334116 0.220049 -0.302463
0.334395 0.250001 -0.315571
0.341322 0.246084 -0.324207
0.334137 0.238916 -0.304006
0.363207 0.224634 -0.326494
0.363380 0.240818 -0.326498
0.353187 0.252281 -0.326297
0.334110 0.234598 -0.300401
0.334172 0.227302 -0.281571
0.334286 0.224631 -0.274244
0.334111 0.243658 -0.288280
0.334117 0.251032 -0.285120
0.338026 0.271343 -0.322101
0.344716 0.261675 -0.325101
0.334201 0.265596 -0.308747
0.334112 0.259439 -0.302158
0.335744 0.279770 -0.317998
0.347033 0.285835 -0.325710
0.334182 0.272883 -0.307307
0.356167 0.255751 -0.326356
0.356295 0.272021 -0.326358
0.350995 0.274081 -0.326253
0.334110 0.269049 -0.296376
0.334176 0.260981 -0.281286
0.334296 0.262716 -0.273620
0.334111 0.272410 -0.292969
0.334209 0.283400 -0.279164
0.374213 0.220369 -0.326399
0.372225 0.230907 -0.326422
0.368740 0.244474 -0.326463
0.386009 0.235751 -0.319613
0.377729 0.235234 -0.326182
0.387162 0.234190 -0.314681
0.385268 0.239396 -0.322300
0.387370 0.246180 -0.306283
0.387175 0.247355 -0.314128
0.387239 0.227340 -0.290374
0.386500 0.219162 -0.279684
0.387166 0.237922 -0.286842
0.387442 0.248960 -0.300208
0.386371 0.244535 -0.278511
0.375291 0.266236 -0.326386
0.374513 0.273673 -0.326395
0.372508 0.281935 -0.326419
0.384930 0.267336 -0.323525
0.387467 0.260973 -0.302403
0.387146 0.259826 -0.315296
0.383707 0.281904 -0.324090
0.387445 0.276982 -0.303297
0.387154 0.273314 -0.314998
0.387444 0.255739 -0.300317
0.386465 0.258457 -0.279362
0.387369 0.273416 -0.296643
0.387261 0.281924 -0.291426
0.387009 0.274533 -0.284327
0.345563 0.228120 -0.264606
0.337659 0.223459 -0.267671
0.346262 0.242818 -0.264484
0.337621 0.242601 -0.267732
0.359406 0.220253 -0.263819
0.351935 0.245030 -0.263961
0.354260 0.240499 -0.263917
0.344464 0.259594 -0.264797
0.342322 0.281200 -0.265170
0.336875 0.283062 -0.268920
0.352317 0.258508 -0.263953
0.360436 0.260068 -0.263800
0.364101 0.280943 -0.263731
0.368024 0.233459 -0.264011
0.369290 0.243045 -0.264107
0.384971 0.216407 -0.270892
0.378576 0.222794 -0.265213
0.385434 0.244179 -0.272366
0.373813 0.265870 -0.264451
0.376015 0.252346 -0.264619
0.373516 0.271112 -0.264429
0.376646 0.265764 -0.264737
0.383715 0.273465 -0.266870
0.383221 0.263396 -0.266356
0.334846 0.301283 -0.316383
0.344708 0.298984 -0.325098
0.334181 0.294923 -0.307230
0.336023 0.314997 -0.318451
0.339036 0.313541 -0.323620
0.334207 0.309251 -0.305719
0.357560 0.289726 -0.326383
0.351891 0.299836 -0.326271
0.356219 0.311500 -0.326357
0.334110 0.300937 -0.295083
0.334110 0.286470 -0.298986
0.334283 0.288088 -0.274405
0.334167 0.311813 -0.298217
0.334234 0.319022 -0.281622
0.334243 0.311473 -0.278017
0.334160 0.328655 -0.319264
0.338544 0.330918 -0.323912
0.334045 0.319718 -0.313032
0.333998 0.343291 -0.323515
0.339172 0.352015 -0.326127
0.354920 0.320904 -0.326331
0.353188 0.337807 -0.326300
0.349868 0.350300 -0.326800
0.327517 0.334537 -0.296981
0.333968 0.319535 -0.294004
0.330494 0.328822 -0.286022
0.376829 0.296929 -0.326368
0.366382 0.296737 -0.326491
0.367685 0.317528 -0.326476
0.384889 0.294750 -0.323675
0.387255 0.288535 -0.310931
0.387167 0.297274 -0.314446
0.386136 0.314221 -0.319151
0.387425 0.307565 -0.304088
0.387150 0.311481 -0.315156
0.387476 0.290567 -0.301839
0.386912 0.286831 -0.283438
0.387351 0.303788 -0.295801
0.387298 0.313242 -0.293241
0.386151 0.305329 -0.276497
0.371608 0.323971 -0.326429
0.373455 0.347066 -0.326408
0.365610 0.340294 -0.326501
0.381468 0.325719 -0.324874
0.387474 0.334265 -0.302127
0.387210 0.331712 -0.312719
0.383341 0.339904 -0.324218
0.387380 0.341950 -0.305908
0.387143 0.327746 -0.285728
0.387436 0.323983 -0.299907
0.386219 0.327776 -0.277117
0.387182 0.347234 -0.287582
0.387289 0.349354 -0.292801
0.386752 0.350317 -0.281978
0.347425 0.293852 -0.264282
0.338667 0.288240 -0.266066
0.348148 0.317035 -0.264156
0.336561 0.307328 -0.269421
0.351483 0.287291 -0.263969
0.357922 0.315421 -0.263847
0.340574 0.324506 -0.265347
0.345484 0.330034 -0.264617
0.338458 0.326453 -0.265628
0.339723 0.340262 -0.264646
0.330455 0.350313 -0.267227
0.351750 0.331394 -0.263961
0.363326 0.320740 -0.263745
0.357244 0.341851 -0.263858
0.370675 0.298484 -0.264213
0.369501 0.313540 -0.264123
0.374199 0.311478 -0.264481
0.376392 0.296939 -0.264675
0.384997 0.306086 -0.270970
0.368328 0.329339 -0.264034
0.372544 0.325358 -0.264355
0.373891 0.343158 -0.264457
0.380363 0.330573 -0.265652
0.384415 0.338101 -0.269110
0.381553 0.339622 -0.265945
0.329022 0.355579 -0.325947
0.323521 0.368840 -0.329790
0.327800 0.382177 -0.330417
0.326079 0.392533 -0.330988
0.317234 0.392978 -0.332382
0.323578 0.402685 -0.331668
0.317518 0.410994 -0.332861
0.313536 0.363762 -0.261185
0.308186 0.374858 -0.258015
0.319261 0.368045 -0.260343
0.328135 0.361582 -0.262723
0.327500 0.383186 -0.259892
0.316602 0.373291 -0.258780
0.321145 0.394171 -0.258677
0.320167 0.417105 -0.257900
0.330931 0.404636 -0.259852
0.329022 0.425857 -0.331237
0.316601 0.431852 -0.333548
0.317339 0.446162 -0.333706
0.321044 0.455865 -0.333186
0.315893 0.467112 -0.334329
0.331210 0.473017 -0.331492
0.326936 0.483760 -0.332403
0.330153 0.426953 -0.259320
0.318320 0.446919 -0.256776
0.329419 0.443200 -0.258592
0.323857 0.460257 -0.256847
0.317247 0.473181 -0.256050
0.341896 0.356280 -0.326864
0.336267 0.368493 -0.328621
0.334928 0.374886 -0.329271
0.363224 0.358301 -0.326548
0.361118 0.367969 -0.326709
0.358911 0.372737 -0.326951
0.342593 0.392717 -0.328761
0.333265 0.396563 -0.330030
0.336749 0.402928 -0.329703
0.331520 0.404197 -0.330421
0.349402 0.402127 -0.328067
0.362482 0.412700 -0.326710
0.354835 0.417010 -0.327580
0.367216 0.367731 -0.326481
0.375776 0.377470 -0.326380
0.387135 0.359838 -0.315529
0.378860 0.361978 -0.325786
0.387306 0.359865 -0.308865
0.386409 0.373671 -0.318162
0.379892 0.382076 -0.325425
0.387357 0.383819 -0.306817
0.387217 0.359586 -0.289317
0.387267 0.366870 -0.291717
0.386581 0.367614 -0.280420
0.387289 0.369888 -0.292796
0.386393 0.377213 -0.278711
0.386803 0.385055 -0.282446
0.374646 0.399674 -0.326393
0.367983 0.408326 -0.326468
0.385370 0.396049 -0.321930
0.378723 0.401698 -0.325834
0.387350 0.400690 -0.307090
0.384964 0.407699 -0.323401
0.381782 0.412995 -0.324764
0.387250 0.417478 -0.311136
0.387208 0.398818 -0.288861
0.386482 0.389482 -0.279522
0.386893 0.398066 -0.283269
0.387459 0.417754 -0.301048
0.386564 0.406125 -0.280267
0.338895 0.362839 -0.263245
0.344870 0.356860 -0.263358
0.337164 0.380674 -0.261139
0.361415 0.368453 -0.263532
0.357972 0.361000 -0.263535
0.349004 0.382299 -0.262367
0.351191 0.370824 -0.262675
0.339893 0.386735 -0.261291
0.339633 0.417624 -0.260788
0.333811 0.402998 -0.260257
0.350137 0.401716 -0.262279
0.348923 0.416443 -0.262021
0.355858 0.402424 -0.262859
0.372248 0.364018 -0.264331
0.365048 0.378801 -0.263782
0.383700 0.361505 -0.266823
0.382003 0.353199 -0.266056
0.384482 0.377823 -0.269322
0.370417 0.396680 -0.264192
0.364667 0.408100 -0.263753
0.367617 0.404883 -0.263978
0.376275 0.386674 -0.264646
0.383958 0.412459 -0.267648
0.377742 0.401018 -0.265007
0.331487 0.430086 -0.330893
0.337537 0.437776 -0.330094
0.336087 0.451169 -0.330482
0.351704 0.420415 -0.327954
0.363881 0.441337 -0.326574
0.349307 0.440079 -0.328378
0.347025 0.460911 -0.328836
0.334513 0.466114 -0.330886
0.340821 0.481303 -0.329966
0.353312 0.454706 -0.327945
0.362090 0.467686 -0.326818
0.354073 0.472882 -0.327910
0.377059 0.432027 -0.326365
0.368642 0.427103 -0.326460
0.366840 0.446086 -0.326479
0.385625 0.429541 -0.321003
0.380609 0.430026 -0.325174
0.387172 0.428649 -0.314262
0.386088 0.447500 -0.319324
0.387320 0.436102 -0.308295
0.387312 0.449370 -0.308632
0.387204 0.424289 -0.288669
0.385951 0.431063 -0.274679
0.386910 0.423712 -0.283426
0.387430 0.446219 -0.299628
0.386311 0.440066 -0.277960
0.369128 0.457058 -0.326453
0.377109 0.481302 -0.326364
0.364976 0.471482 -0.326499
0.384927 0.468049 -0.323537
0.387291 0.454365 -0.309473
0.387384 0.466201 -0.305742
0.383450 0.470827 -0.324180
0.387342 0.474921 -0.307439
0.387339 0.483642 -0.307538
0.387441 0.460520 -0.300137
0.386643 0.453031 -0.280990
0.387308 0.474370 -0.293724
0.387442 0.480669 -0.300189
0.386507 0.479057 -0.279749
0.332913 0.433055 -0.259631
0.342314 0.424391 -0.261080
0.340218 0.442467 -0.260253
0.351408 0.435193 -0.262168
0.358596 0.426245 -0.263083
0.347792 0.451617 -0.260890
0.355944 0.437685 -0.262713
0.331637 0.455184 -0.258344
0.331192 0.483005 -0.257258
0.339985 0.468881 -0.259235
0.356310 0.466631 -0.261843
0.354701 0.454102 -0.261966
0.354407 0.479638 -0.261006
0.371670 0.428219 -0.264287
0.373667 0.424400 -0.264440
0.374181 0.443109 -0.264479
0.380325 0.429377 -0.265643
0.383885 0.437799 -0.267413
0.382596 0.443167 -0.266202
0.374101 0.463865 -0.264473
0.373367 0.483510 -0.264089
0.384546 0.456787 -0.269526
0.383314 0.455326 -0.266379
0.378136 0.475300 -0.265100
0.325522 0.488200 -0.332675
0.326479 0.499581 -0.332477
0.330149 0.513690 -0.331801
0.315805 0.518470 -0.334724
0.321224 0.532050 -0.333698
0.329128 0.536096 -0.332181
0.323217 0.545001 -0.333300
0.324773 0.491026 -0.256411
0.319821 0.516650 -0.255898
0.316834 0.522121 -0.255656
0.316672 0.543516 -0.255664
0.326580 0.544670 -0.256438
0.319631 0.554280 -0.333950
0.317594 0.570759 -0.334225
0.315406 0.570517 -0.334629
0.328018 0.593111 -0.332095
0.316025 0.593086 -0.334270
0.315153 0.615868 -0.334076
0.323848 0.564755 -0.256336
0.321829 0.576986 -0.256709
0.322269 0.571578 -0.256446
0.323723 0.600049 -0.257639
0.314783 0.606301 -0.256214
0.318401 0.601732 -0.256747
0.342599 0.488298 -0.329685
0.343888 0.501367 -0.329394
0.341499 0.514180 -0.329929
0.363020 0.490592 -0.326703
0.350375 0.499809 -0.328396
0.349476 0.503106 -0.328490
0.347867 0.533693 -0.328778
0.332608 0.532670 -0.331505
0.346990 0.538751 -0.328963
0.335652 0.551408 -0.331004
0.358425 0.527786 -0.327274
0.358153 0.540645 -0.327316
0.357314 0.547110 -0.327503
0.373459 0.490416 -0.326404
0.375923 0.507302 -0.326377
0.386117 0.490637 -0.319220
0.380215 0.491115 -0.325312
0.387405 0.492858 -0.304872
0.386082 0.509608 -0.319345
0.383272 0.504691 -0.324242
0.387402 0.503481 -0.305005
0.387141 0.493542 -0.285625
0.387358 0.496334 -0.296119
0.386569 0.500600 -0.280307
0.387282 0.508065 -0.292445
0.387389 0.515577 -0.297637
0.386991 0.508380 -0.284149
0.367794 0.526599 -0.326344
0.371894 0.542815 -0.326352
0.386049 0.521941 -0.319467
0.377473 0.520842 -0.326269
0.387200 0.533802 -0.313143
0.385002 0.541391 -0.323262
0.382441 0.547402 -0.324533
0.387389 0.550370 -0.305535
0.387281 0.527846 -0.292405
0.387284 0.530983 -0.292533
0.386812 0.528545 -0.282390
0.387142 0.546925 -0.285644
0.386308 0.535531 -0.277370
0.334554 0.492648 -0.257740
0.332918 0.488143 -0.257501
0.332752 0.512818 -0.257387
0.343264 0.506710 -0.259098
0.358401 0.500475 -0.261271
0.345376 0.510869 -0.259417
0.356931 0.511953 -0.261076
0.331724 0.531243 -0.257228
0.330373 0.520769 -0.256991
0.340565 0.540613 -0.258836
0.346750 0.534720 -0.259771
0.347002 0.518992 -0.259660
0.349781 0.547330 -0.260290
0.360803 0.491702 -0.261605
0.375345 0.495626 -0.264452
0.374212 0.515580 -0.264223
0.369491 0.506016 -0.263304
0.379789 0.494077 -0.265504
0.385693 0.512283 -0.273161
0.363505 0.523173 -0.262175
0.364096 0.518061 -0.262275
0.368419 0.547782 -0.263135
0.372873 0.536191 -0.263958
0.376769 0.518902 -0.264738
0.384950 0.541880 -0.270087
0.339168 0.551940 -0.330405
0.333057 0.560431 -0.331415
0.347646 0.578210 -0.328908
0.333145 0.573658 -0.331340
0.364143 0.555230 -0.326547
0.355250 0.568960 -0.327832
0.347958 0.569131 -0.328883
0.332882 0.585100 -0.331308
0.340902 0.597955 -0.329922
0.333418 0.616765 -0.330910
0.351865 0.586269 -0.328286
0.355171 0.597746 -0.327794
0.360484 0.602664 -0.327048
0.376256 0.563359 -0.326374
0.366357 0.562399 -0.326482
0.365595 0.581144 -0.326491
0.385371 0.566402 -0.321924
0.387282 0.554010 -0.309821
0.387421 0.567789 -0.304233
0.386369 0.581926 -0.318304
0.387188 0.569511 -0.313608
0.387201 0.576164 -0.313088
0.387389 0.561722 -0.297624
0.386255 0.554175 -0.274538
0.387374 0.568259 -0.296895
0.387238 0.580415 -0.290327
0.386802 0.567924 -0.280602
0.374445 0.589790 -0.326394
0.368038 0.604415 -0.326464
0.375053 0.616880 -0.326387
0.384932 0.588452 -0.323518
0.387431 0.596964 -0.303851
0.387231 0.598889 -0.311878
0.383014 0.605602 -0.324333
0.387377 0.604054 -0.306029
0.387169 0.611893 -0.314392
0.387456 0.592113 -0.299888
0.386691 0.589828 -0.277859
0.387407 0.607084 -0.289640
0.387474 0.617036 -0.290482
0.387421 0.617162 -0.284920
0.331013 0.564785 -0.257262
0.343851 0.566251 -0.259591
0.334991 0.575450 -0.258331
0.350553 0.565902 -0.260549
0.355307 0.555779 -0.261126
0.350162 0.578020 -0.260731
0.357359 0.575386 -0.261541
0.334955 0.590271 -0.258812
0.340912 0.611185 -0.260679
0.340560 0.610572 -0.260609
0.355146 0.590722 -0.261856
0.351368 0.609752 -0.261956
0.362161 0.610775 -0.263451
0.364064 0.561425 -0.262453
0.366065 0.584078 -0.262881
0.372554 0.574641 -0.263885
0.384380 0.562025 -0.267781
0.384717 0.570258 -0.268419
0.381184 0.568716 -0.265512
0.364464 0.585508 -0.262630
0.364594 0.617266 -0.264050
0.373407 0.600839 -0.264195
0.378942 0.592020 -0.264990
0.385654 0.612957 -0.270415
0.324764 0.619279 -0.332341
0.319608 0.633659 -0.332943
0.329570 0.641826 -0.331144
0.323701 0.643874 -0.332081
0.329637 0.663339 -0.330715
0.318376 0.669755 -0.332225
0.322233 0.677565 -0.331534
0.324194 0.627623 -0.258126
0.317102 0.650027 -0.257565
0.328031 0.647737 -0.259108
0.327362 0.667252 -0.259453
0.318798 0.652775 -0.257874
0.315218 0.667434 -0.257815
0.323780 0.684710 -0.331018
0.326926 0.705032 -0.320400
0.321788 0.702326 -0.325354
0.318917 0.709252 -0.303866
0.315672 0.709616 -0.289142
0.315297 0.709303 -0.285654
0.322192 0.687618 -0.259149
0.318294 0.704367 -0.268187
0.338186 0.621523 -0.330144
0.340593 0.630815 -0.329687
0.339164 0.639796 -0.329800
0.337586 0.649191 -0.329878
0.351387 0.624195 -0.328208
0.357400 0.639691 -0.327387
0.349768 0.642422 -0.328293
0.347165 0.662276 -0.328435
0.340028 0.670766 -0.329279
0.336631 0.673642 -0.329703
0.356054 0.656634 -0.327488
0.353048 0.664483 -0.327762
0.351212 0.676965 -0.327912
0.375801 0.626013 -0.326379
0.372138 0.643456 -0.326420
0.368505 0.645560 -0.326461
0.384520 0.619712 -0.323806
0.387263 0.623232 -0.310598
0.386801 0.640265 -0.316740
0.381337 0.640417 -0.324920
0.387449 0.643885 -0.303129
0.387472 0.629266 -0.287314
0.387477 0.621536 -0.299368
0.386842 0.625127 -0.275705
0.387476 0.636132 -0.297459
0.387478 0.636914 -0.300904
0.387462 0.650243 -0.285354
0.365775 0.652454 -0.326491
0.369494 0.668676 -0.326441
0.386258 0.653680 -0.318705
0.381309 0.664587 -0.324925
0.387338 0.665297 -0.307421
0.385091 0.675374 -0.322699
0.387244 0.667736 -0.311100
0.387472 0.659817 -0.289412
0.387474 0.663146 -0.300339
0.387111 0.654487 -0.279247
0.387455 0.669136 -0.292846
0.387407 0.668679 -0.284389
0.334824 0.633203 -0.259933
0.335616 0.620181 -0.259890
0.334271 0.650821 -0.260116
0.345853 0.635928 -0.261719
0.355235 0.620385 -0.262880
0.354338 0.642642 -0.262842
0.360393 0.644176 -0.263581
0.335439 0.666557 -0.260556
0.338647 0.657270 -0.260835
0.345649 0.681752 -0.261995
0.351968 0.657131 -0.262652
0.348170 0.651305 -0.262193
0.357811 0.670309 -0.263398
0.370860 0.630547 -0.264307
0.366921 0.642057 -0.264166
0.384943 0.620088 -0.267902
0.377545 0.632317 -0.264668
0.386331 0.635530 -0.271879
0.368441 0.658682 -0.264220
0.375325 0.662061 -0.264466
0.367970 0.667609 -0.264202
0.378648 0.659026 -0.264876
0.386060 0.678247 -0.270829
0.337426 0.683447 -0.329467
0.335104 0.689409 -0.327801
0.331919 0.703081 -0.324638
0.347601 0.699349 -0.308483
0.337887 0.703547 -0.309080
0.352024 0.693259 -0.322963
0.356639 0.687761 -0.325789
0.354483 0.690410 -0.324897
0.350164 0.698231 -0.308255
0.349417 0.698107 -0.286315
0.331911 0.707389 -0.299471
0.344802 0.699418 -0.276290
0.333116 0.706102 -0.284222
0.362623 0.692948 -0.290961
0.352165 0.696788 -0.282109
0.350424 0.696812 -0.274256
0.367847 0.682862 -0.325746
0.372488 0.692255 -0.313391
0.384115 0.686048 -0.323814
0.387200 0.681144 -0.305761
0.370549 0.692046 -0.300756
0.365977 0.692188 -0.299503
0.366688 0.691860 -0.274150
0.382091 0.690224 -0.300200
0.385651 0.687007 -0.287233
0.329645 0.693301 -0.260241
0.336564 0.700280 -0.265762
0.334262 0.703668 -0.274959
0.335608 0.696157 -0.263101
0.352238 0.688570 -0.264065
0.368384 0.689986 -0.267347
0.374676 0.684515 -0.265274
0.375675 0.690055 -0.268941
