ply
format ascii 1.0
element vertex 1000
property float x
property float y
property float z
end_header
-0.387485 -0.108188 -0.318058
-0.388277 -0.099657 -0.311510
-0.388377 -0.111235 -0.307385
-0.380248 -0.090651 -0.325665
-0.388324 -0.079960 -0.309562
-0.370324 -0.080061 -0.326458
-0.388509 -0.098293 -0.297250
-0.388509 -0.108742 -0.297163
-0.388351 -0.110886 -0.282810
-0.388509 -0.085050 -0.294176
-0.388510 -0.085539 -0.285618
-0.388437 -0.090979 -0.284435
-0.386014 -0.065951 -0.323436
-0.380702 -0.063240 -0.325508
-0.388208 -0.062684 -0.314336
-0.386084 -0.049445 -0.323181
-0.380763 -0.048457 -0.325486
-0.388344 -0.057126 -0.308742
-0.371403 -0.070411 -0.326444
-0.373120 -0.055871 -0.326423
-0.372190 -0.049862 -0.326435
-0.388510 -0.077339 -0.287826
-0.388080 -0.069274 -0.279724
-0.387987 -0.072931 -0.278501
-0.388509 -0.052004 -0.293996
-0.388344 -0.050997 -0.283206
-0.387550 -0.051989 -0.272738
-0.355407 -0.078039 -0.326446
-0.355718 -0.059901 -0.326448
-0.365247 -0.048262 -0.326518
-0.335894 -0.064028 -0.316317
-0.340499 -0.070948 -0.323864
-0.329014 -0.077069 -0.299067
-0.334652 -0.064419 -0.305578
-0.339031 -0.057712 -0.321695
-0.349309 -0.053527 -0.326156
-0.335285 -0.046097 -0.306246
-0.329265 -0.075437 -0.292665
-0.334650 -0.063254 -0.295211
-0.333318 -0.066895 -0.280418
-0.335255 -0.061485 -0.290566
-0.335159 -0.049203 -0.297378
-0.335501 -0.048009 -0.280926
-0.386664 -0.101935 -0.262180
-0.386588 -0.082073 -0.260156
-0.386145 -0.082492 -0.254913
-0.386140 -0.068278 -0.254185
-0.387166 -0.057513 -0.267675
-0.386172 -0.060195 -0.254577
-0.386616 -0.036900 -0.321236
-0.388244 -0.033798 -0.312851
-0.388314 -0.045503 -0.309993
-0.378462 -0.026725 -0.326282
-0.388415 -0.012926 -0.305833
-0.388297 -0.023536 -0.310664
-0.375872 -0.030659 -0.326389
-0.370351 -0.013133 -0.326457
-0.388510 -0.029536 -0.287269
-0.388510 -0.043633 -0.292671
-0.387413 -0.032012 -0.270939
-0.388509 -0.020676 -0.301580
-0.388510 -0.027554 -0.287029
-0.387775 -0.020117 -0.275956
-0.386325 -0.002150 -0.322300
-0.379397 -0.002731 -0.325959
-0.388246 -0.001043 -0.312778
-0.386035 0.024060 -0.323360
-0.379415 0.014818 -0.325953
-0.388369 0.016931 -0.307734
-0.366000 -0.008948 -0.326511
-0.366736 0.009817 -0.326502
-0.376515 0.020596 -0.326381
-0.388508 -0.007905 -0.293324
-0.388184 0.000227 -0.279161
-0.387739 -0.007602 -0.273869
-0.388507 0.008076 -0.298687
-0.388424 0.019179 -0.279203
-0.388454 0.004503 -0.284286
-0.354760 -0.031769 -0.326441
-0.357941 -0.026576 -0.326464
-0.361614 -0.012689 -0.326491
-0.343148 -0.038793 -0.324530
-0.335205 -0.037688 -0.303900
-0.335355 -0.032517 -0.308318
-0.339589 -0.018072 -0.322691
-0.345596 -0.014323 -0.325176
-0.335477 -0.022186 -0.311900
-0.335139 -0.042630 -0.289594
-0.335140 -0.030729 -0.297759
-0.335485 -0.035881 -0.280879
-0.335140 -0.023233 -0.294976
-0.335140 -0.014485 -0.292206
-0.335669 -0.023537 -0.278553
-0.359231 -0.008251 -0.326474
-0.356348 0.001349 -0.326453
-0.352371 0.014138 -0.326423
-0.337162 -0.009431 -0.318362
-0.349158 -0.011760 -0.326116
-0.335214 -0.008009 -0.304167
-0.338552 0.007604 -0.320841
-0.341315 0.008731 -0.324046
-0.335393 0.010104 -0.309436
-0.335550 0.007800 -0.314056
-0.335140 -0.003882 -0.296623
-0.336139 -0.012918 -0.272394
-0.335512 -0.002632 -0.278203
-0.335140 0.011301 -0.286538
-0.335508 0.004037 -0.278107
-0.335158 0.013940 -0.284343
-0.386165 -0.033879 -0.254488
-0.386916 -0.018259 -0.264757
-0.386232 -0.026404 -0.255501
-0.386232 -0.009616 -0.260986
-0.377078 0.001840 -0.238729
-0.375903 0.007948 -0.251773
-0.386354 0.011916 -0.265823
-0.368382 0.007900 -0.249554
-0.372402 0.011201 -0.252800
-0.366676 0.009911 -0.251575
-0.353501 0.007400 -0.248948
-0.360704 0.007045 -0.246950
-0.356905 0.009767 -0.251427
-0.337627 -0.013785 -0.254174
-0.341116 -0.005681 -0.245084
-0.346163 0.000392 -0.241405
-0.338697 0.008732 -0.264583
-0.341851 0.012506 -0.259091
-0.387265 0.028893 -0.318864
-0.380305 0.034601 -0.325645
-0.388426 0.024878 -0.305393
-0.387727 0.041313 -0.317173
-0.383238 0.055102 -0.324630
-0.388379 0.039530 -0.307324
-0.370535 0.034435 -0.326455
-0.368595 0.039151 -0.326479
-0.388509 0.031046 -0.301680
-0.388505 0.024117 -0.295926
-0.388464 0.023703 -0.282668
-0.388507 0.046280 -0.298472
-0.388505 0.040206 -0.295581
-0.388430 0.043254 -0.279925
-0.386161 0.060034 -0.322900
-0.388181 0.064652 -0.315434
-0.388354 0.056281 -0.308341
-0.386891 0.079422 -0.320231
-0.388183 0.084834 -0.315372
-0.388279 0.073750 -0.311405
-0.368984 0.070098 -0.326474
-0.378169 0.078619 -0.326361
-0.388504 0.069926 -0.294508
-0.388506 0.056542 -0.297560
-0.388347 0.058437 -0.273185
-0.388502 0.086696 -0.289737
-0.388440 0.083356 -0.280782
-0.388386 0.081320 -0.276395
-0.363743 0.036857 -0.326507
-0.357245 0.037866 -0.326455
-0.364041 0.040641 -0.326501
-0.342504 0.027826 -0.324359
-0.335186 0.029458 -0.303353
-0.335453 0.031466 -0.311203
-0.337472 0.049793 -0.318941
-0.346737 0.046940 -0.325443
-0.335368 0.052503 -0.308735
-0.335141 0.034699 -0.285663
-0.335140 0.037228 -0.301088
-0.335162 0.032548 -0.284159
-0.335140 0.042014 -0.297211
-0.335304 0.040701 -0.275107
-0.335154 0.053898 -0.284643
-0.356747 0.067197 -0.326352
-0.354104 0.078753 -0.326300
-0.335572 0.068532 -0.315661
-0.342794 0.060065 -0.324376
-0.335259 0.054729 -0.305519
-0.335433 0.070146 -0.314129
-0.338872 0.077460 -0.321630
-0.347277 0.076845 -0.325504
-0.335320 0.080692 -0.311136
-0.335140 0.056003 -0.294706
-0.335318 0.059556 -0.274208
-0.335213 0.061408 -0.280929
-0.335141 0.085962 -0.291857
-0.335283 0.073138 -0.276466
-0.379750 0.034767 -0.264062
-0.388004 0.037004 -0.271996
-0.386031 0.040403 -0.265865
-0.386571 0.043203 -0.267328
-0.368612 0.027722 -0.261528
-0.377986 0.040529 -0.264052
-0.380745 0.069025 -0.264605
-0.386185 0.064461 -0.266066
-0.387519 0.083921 -0.270415
-0.377353 0.057521 -0.264030
-0.372396 0.086815 -0.264066
-0.368740 0.076015 -0.263863
-0.354865 0.020897 -0.259927
-0.363745 0.047701 -0.263760
-0.363057 0.039719 -0.263783
-0.336945 0.030887 -0.270473
-0.346037 0.020304 -0.261188
-0.336136 0.047093 -0.271748
-0.341095 0.041570 -0.265578
-0.355628 0.057352 -0.263908
-0.364342 0.079433 -0.263820
-0.355061 0.078064 -0.263919
-0.349039 0.068995 -0.264184
-0.336706 0.073385 -0.270847
-0.347755 0.074797 -0.264408
-0.386916 0.100888 -0.320138
-0.380788 0.103015 -0.325478
-0.388456 0.088206 -0.304142
-0.387762 0.108721 -0.317045
-0.385366 0.110882 -0.323894
-0.388387 0.113053 -0.306979
-0.372958 0.089216 -0.326425
-0.374554 0.104212 -0.326405
-0.388503 0.099858 -0.292094
-0.388504 0.090103 -0.293245
-0.388445 0.100600 -0.281127
-0.388507 0.117590 -0.298251
-0.388499 0.113352 -0.285915
-0.388373 0.116806 -0.275293
-0.387974 0.129214 -0.316268
-0.382807 0.134013 -0.324779
-0.388421 0.122522 -0.305590
-0.387194 0.146556 -0.319122
-0.388366 0.151600 -0.307862
-0.388405 0.141751 -0.306238
-0.378070 0.127719 -0.326362
-0.371909 0.143757 -0.326438
-0.388509 0.136209 -0.301323
-0.388504 0.122808 -0.294332
-0.388429 0.127158 -0.279826
-0.388508 0.141705 -0.300054
-0.388501 0.149000 -0.289327
-0.388448 0.141341 -0.281364
-0.356922 0.095263 -0.326354
-0.352898 0.112082 -0.326276
-0.353820 0.117165 -0.326294
-0.339452 0.095162 -0.322754
-0.346973 0.098303 -0.325423
-0.335304 0.094943 -0.313670
-0.339618 0.115846 -0.323050
-0.345736 0.113159 -0.325096
-0.335268 0.114875 -0.311115
-0.335141 0.090929 -0.286456
-0.335140 0.093847 -0.299898
-0.335163 0.103227 -0.284061
-0.335140 0.107373 -0.297675
-0.335328 0.116525 -0.273598
-0.335164 0.109387 -0.284044
-0.359373 0.131529 -0.326402
-0.351120 0.150194 -0.326241
-0.359595 0.148035 -0.326407
-0.338504 0.126789 -0.321060
-0.346962 0.128007 -0.325420
-0.335237 0.135175 -0.308906
-0.338526 0.149510 -0.321099
-0.343766 0.148729 -0.324575
-0.335254 0.147372 -0.310086
-0.335141 0.121665 -0.292453
-0.335140 0.124447 -0.300710
-0.335149 0.128036 -0.284966
-0.335140 0.138371 -0.294389
-0.335229 0.137525 -0.279874
-0.335237 0.146642 -0.279361
-0.387629 0.103165 -0.270773
-0.381515 0.109386 -0.264988
-0.386338 0.104942 -0.266564
-0.366880 0.088535 -0.263926
-0.372921 0.109206 -0.264234
-0.380433 0.126415 -0.264778
-0.386360 0.130279 -0.266638
-0.387059 0.151738 -0.268917
-0.371864 0.129520 -0.264222
-0.375284 0.151546 -0.264310
-0.364121 0.088586 -0.263913
-0.353588 0.088928 -0.264005
-0.360922 0.119513 -0.264135
-0.339151 0.083851 -0.266983
-0.347637 0.100384 -0.264539
-0.338229 0.104699 -0.268456
-0.348668 0.114886 -0.264497
-0.357815 0.133760 -0.264201
-0.351835 0.134120 -0.264316
-0.352256 0.139353 -0.264308
-0.335786 0.127518 -0.272305
-0.345256 0.123108 -0.265025
-0.338529 0.145623 -0.268000
-0.346271 0.135837 -0.264882
-0.379246 0.164012 -0.326011
-0.388381 0.167093 -0.307232
-0.388406 0.159402 -0.306212
-0.378869 0.176207 -0.326142
-0.388292 0.186027 -0.310895
-0.368752 0.156148 -0.326477
-0.372329 0.169968 -0.326433
-0.374100 0.181927 -0.326411
-0.388508 0.163032 -0.299515
-0.388439 0.166781 -0.280670
-0.388375 0.163836 -0.275507
-0.388501 0.176156 -0.288456
-0.388466 0.178610 -0.282856
-0.386013 0.197968 -0.323442
-0.378764 0.200210 -0.326178
-0.388311 0.194868 -0.310084
-0.386054 0.223201 -0.323290
-0.384124 0.210400 -0.324324
-0.388211 0.207857 -0.314224
-0.370933 0.195781 -0.326450
-0.372264 0.208458 -0.326434
-0.371978 0.215748 -0.326437
-0.388503 0.191589 -0.291616
-0.388468 0.192131 -0.282981
-0.388507 0.211652 -0.298068
-0.388501 0.213712 -0.288192
-0.388449 0.214348 -0.281470
-0.351709 0.160837 -0.326253
-0.364375 0.164763 -0.326500
-0.362495 0.181620 -0.326463
-0.337205 0.157520 -0.318738
-0.341203 0.162769 -0.323897
-0.335191 0.159763 -0.305616
-0.335772 0.183603 -0.316179
-0.344089 0.175827 -0.324660
-0.335210 0.171812 -0.306966
-0.335307 0.181616 -0.313908
-0.335140 0.157982 -0.298356
-0.335287 0.164588 -0.276218
-0.335141 0.182968 -0.288742
-0.335140 0.176503 -0.297421
-0.335304 0.175794 -0.275142
-0.355646 0.195506 -0.326330
-0.361564 0.192211 -0.326445
-0.361982 0.214506 -0.326453
-0.336632 0.187133 -0.317715
-0.345208 0.198313 -0.324956
-0.335202 0.187069 -0.306402
-0.335765 0.215391 -0.316166
-0.345074 0.206943 -0.324921
-0.335143 0.210767 -0.302211
-0.335141 0.189260 -0.286835
-0.335140 0.188675 -0.301794
-0.335219 0.191100 -0.280510
-0.335140 0.207153 -0.297931
-0.335141 0.217432 -0.289355
-0.335142 0.208076 -0.285421
-0.384145 0.155649 -0.265478
-0.387046 0.158394 -0.268875
-0.388028 0.176803 -0.272076
-0.376825 0.168644 -0.264197
-0.373613 0.182553 -0.264036
-0.385706 0.188010 -0.265786
-0.386574 0.200507 -0.267334
-0.379684 0.206617 -0.264353
-0.372518 0.202323 -0.263905
-0.374834 0.190466 -0.263972
-0.366050 0.214204 -0.263738
-0.365320 0.158232 -0.264010
-0.359464 0.180292 -0.264002
-0.358526 0.175236 -0.264042
-0.337333 0.160480 -0.269877
-0.344676 0.154074 -0.265107
-0.337458 0.175745 -0.269674
-0.342453 0.172301 -0.265419
-0.354224 0.196961 -0.263998
-0.362217 0.214202 -0.263782
-0.339156 0.195159 -0.266981
-0.340937 0.197731 -0.265600
-0.336885 0.205881 -0.270564
-0.344188 0.215053 -0.265028
-0.387958 0.235022 -0.316327
-0.385608 0.229149 -0.323810
-0.388492 0.228515 -0.302689
-0.388005 0.242677 -0.316157
-0.383791 0.255031 -0.324439
-0.388284 0.238779 -0.311197
-0.370591 0.229515 -0.326454
-0.366935 0.240188 -0.326499
-0.388507 0.230198 -0.298331
-0.388500 0.225235 -0.287365
-0.388464 0.225549 -0.282697
-0.388508 0.238180 -0.300388
-0.388501 0.237621 -0.289432
-0.388369 0.237382 -0.274999
-0.387789 0.261843 -0.316946
-0.383904 0.262558 -0.324400
-0.388432 0.263790 -0.305119
-0.387805 0.271425 -0.316887
-0.388432 0.284070 -0.305154
-0.388491 0.271347 -0.302719
-0.374949 0.259930 -0.326401
-0.368659 0.281458 -0.326478
-0.388508 0.258262 -0.300480
-0.388502 0.265336 -0.289703
-0.388462 0.256042 -0.282490
-0.388507 0.276139 -0.299093
-0.388500 0.272732 -0.286426
-0.388439 0.274871 -0.280627
-0.357182 0.229357 -0.326360
-0.361536 0.237851 -0.326445
-0.365277 0.244663 -0.326518
-0.339186 0.228666 -0.322278
-0.349581 0.229819 -0.326113
-0.335310 0.221487 -0.314092
-0.339539 0.252022 -0.322910
-0.342105 0.251758 -0.324136
-0.335294 0.242214 -0.312998
-0.335141 0.227400 -0.286703
-0.335140 0.227944 -0.294405
-0.335151 0.229509 -0.284852
-0.335141 0.238746 -0.286284
-0.335262 0.245199 -0.277813
-0.335174 0.240748 -0.283372
-0.364257 0.269304 -0.326498
-0.351681 0.283884 -0.326252
-0.363694 0.275112 -0.326487
-0.342259 0.263739 -0.324176
-0.335218 0.253900 -0.307530
-0.335286 0.258688 -0.312422
-0.338001 0.281622 -0.320160
-0.348517 0.284031 -0.325832
-0.335251 0.278123 -0.309894
-0.335140 0.257642 -0.294079
-0.335140 0.264497 -0.295828
-0.335152 0.259775 -0.284759
-0.335141 0.277500 -0.291417
-0.335312 0.276602 -0.274574
-0.335218 0.285923 -0.280557
-0.386732 0.234657 -0.267848
-0.380180 0.245884 -0.264471
-0.377104 0.229379 -0.264023
-0.373125 0.225799 -0.263921
-0.367770 0.241622 -0.263782
-0.384246 0.253010 -0.265438
-0.382631 0.278054 -0.265054
-0.387424 0.282071 -0.270106
-0.370927 0.269206 -0.263864
-0.369914 0.282080 -0.263838
-0.360159 0.230160 -0.263821
-0.355463 0.229791 -0.263911
-0.363810 0.246950 -0.263751
-0.338120 0.223685 -0.268612
-0.348093 0.234753 -0.264349
-0.337234 0.236856 -0.270012
-0.343776 0.245884 -0.265100
-0.356088 0.264465 -0.263899
-0.352280 0.255162 -0.263972
-0.350114 0.277005 -0.264013
-0.336397 0.265728 -0.271335
-0.341541 0.256922 -0.265489
-0.337722 0.280565 -0.269240
-0.347199 0.268868 -0.264504
-0.381482 0.289547 -0.325238
-0.388211 0.294120 -0.314214
-0.385949 0.321197 -0.323676
-0.382061 0.309621 -0.325037
-0.388342 0.315826 -0.308828
-0.368302 0.294809 -0.326483
-0.370780 0.297819 -0.326452
-0.366720 0.319094 -0.326502
-0.388504 0.297676 -0.293706
-0.388490 0.295617 -0.284775
-0.388488 0.286831 -0.284610
-0.388501 0.308055 -0.288537
-0.388456 0.315135 -0.282031
-0.386009 0.329063 -0.323457
-0.379710 0.321917 -0.325851
-0.388191 0.331978 -0.315040
-0.386131 0.357284 -0.323009
-0.378466 0.347161 -0.326281
-0.388273 0.342273 -0.311664
-0.374379 0.323016 -0.326407
-0.371719 0.340220 -0.326439
-0.370674 0.351688 -0.326451
-0.388501 0.321252 -0.288294
-0.388485 0.333565 -0.284398
-0.388507 0.344671 -0.299160
-0.388503 0.345156 -0.292613
-0.388435 0.350477 -0.280323
-0.353817 0.293065 -0.326294
-0.364630 0.290724 -0.326505
-0.361634 0.307874 -0.326445
-0.339260 0.287276 -0.322409
-0.344009 0.293200 -0.324639
-0.335149 0.289891 -0.302600
-0.336940 0.305093 -0.318253
-0.345029 0.310523 -0.324951
-0.335313 0.306333 -0.312300
-0.335140 0.291947 -0.294454
-0.335140 0.294521 -0.298335
-0.335286 0.294714 -0.276258
-0.335195 0.313148 -0.287188
-0.335218 0.313992 -0.297778
-0.335177 0.307926 -0.284609
-0.356081 0.328441 -0.326728
-0.364789 0.335534 -0.326534
-0.361990 0.345706 -0.326786
-0.328533 0.336460 -0.315495
-0.342226 0.320190 -0.324297
-0.340722 0.334583 -0.324785
-0.328263 0.336347 -0.310122
-0.332778 0.343510 -0.324116
-0.339579 0.349259 -0.326847
-0.330861 0.329284 -0.292017
-0.328762 0.334139 -0.292035
-0.331670 0.332512 -0.272925
-0.385336 0.296371 -0.265698
-0.386458 0.288607 -0.266957
-0.381663 0.311108 -0.264824
-0.377986 0.295737 -0.264046
-0.376071 0.307421 -0.263997
-0.369525 0.310952 -0.263828
-0.379343 0.324437 -0.264271
-0.380847 0.348911 -0.264630
-0.386357 0.339794 -0.266627
-0.370267 0.327075 -0.263847
-0.374351 0.349386 -0.263953
-0.360221 0.302683 -0.263820
-0.354431 0.296769 -0.263930
-0.353797 0.305551 -0.263942
-0.338240 0.284672 -0.268422
-0.342364 0.286946 -0.265346
-0.335468 0.313854 -0.272759
-0.344835 0.302501 -0.264916
-0.353468 0.332722 -0.263391
-0.363007 0.340669 -0.263536
-0.354782 0.345338 -0.262987
-0.332501 0.333469 -0.271465
-0.346581 0.328807 -0.264034
-0.331697 0.338984 -0.270529
-0.347582 0.340191 -0.263195
-0.337199 0.342192 -0.263949
-0.322467 0.341885 -0.312471
-0.328060 0.345675 -0.322141
-0.326346 0.336497 -0.292215
-0.324683 0.337702 -0.301070
-0.326419 0.337973 -0.282493
-0.321695 0.341338 -0.280718
-0.384435 0.357635 -0.324216
-0.388419 0.368755 -0.305668
-0.388405 0.359114 -0.306243
-0.378723 0.374415 -0.326192
-0.388314 0.384248 -0.309998
-0.365781 0.352902 -0.326511
-0.377351 0.367900 -0.326371
-0.377192 0.370686 -0.326372
-0.388507 0.363787 -0.298315
-0.388431 0.361239 -0.279995
-0.388356 0.366917 -0.273910
-0.388499 0.378364 -0.285963
-0.388481 0.382431 -0.284080
-0.386114 0.401269 -0.323072
-0.380906 0.396423 -0.325437
-0.388186 0.387005 -0.315242
-0.386718 0.421164 -0.320862
-0.382887 0.412064 -0.324752
-0.388192 0.417508 -0.314978
-0.369907 0.395129 -0.326458
-0.370798 0.407522 -0.326447
-0.373753 0.409910 -0.326413
-0.388500 0.400666 -0.286730
-0.388466 0.399227 -0.282880
-0.388502 0.415816 -0.290070
-0.388500 0.412874 -0.287048
-0.388467 0.410870 -0.282928
-0.353830 0.362202 -0.327560
-0.351228 0.368958 -0.327829
-0.350257 0.377134 -0.328006
-0.347926 0.353884 -0.327826
-0.341727 0.360882 -0.328695
-0.345061 0.370955 -0.328501
-0.346880 0.376167 -0.328365
-0.352699 0.401150 -0.327957
-0.348969 0.413091 -0.328473
-0.360514 0.407346 -0.327112
-0.332564 0.393129 -0.330369
-0.342949 0.403904 -0.329206
-0.341111 0.418299 -0.329629
-0.379280 0.353761 -0.264256
-0.386785 0.362899 -0.268022
-0.388250 0.381483 -0.272799
-0.371937 0.361385 -0.263892
-0.378253 0.384762 -0.264053
-0.369740 0.376558 -0.263836
-0.388156 0.390063 -0.272493
-0.383930 0.405659 -0.265363
-0.375142 0.401168 -0.263974
-0.373893 0.389276 -0.263942
-0.366694 0.410300 -0.263760
-0.350289 0.368969 -0.262347
-0.350914 0.357220 -0.262543
-0.355773 0.372948 -0.262804
-0.347672 0.355694 -0.262291
-0.333557 0.357844 -0.262354
-0.345612 0.382138 -0.261700
-0.356117 0.395373 -0.262684
-0.353013 0.397635 -0.262342
-0.354084 0.416892 -0.262361
-0.350915 0.416043 -0.261987
-0.338849 0.393664 -0.260712
-0.345068 0.416434 -0.261277
-0.334826 0.403646 -0.260086
-0.386800 0.426864 -0.320562
-0.388375 0.430478 -0.307458
-0.388439 0.427998 -0.304861
-0.387559 0.446317 -0.317788
-0.388186 0.440444 -0.315253
-0.388406 0.443934 -0.306187
-0.377747 0.419711 -0.326366
-0.371175 0.446452 -0.326442
-0.388503 0.430576 -0.291502
-0.388503 0.428558 -0.292319
-0.388419 0.421564 -0.279006
-0.388508 0.442836 -0.300518
-0.388391 0.448154 -0.276768
-0.388442 0.436457 -0.280925
-0.380068 0.459655 -0.325727
-0.388190 0.453924 -0.315065
-0.386552 0.485037 -0.321469
-0.378803 0.472755 -0.326164
-0.388471 0.483391 -0.303545
-0.373234 0.455996 -0.326418
-0.367134 0.467309 -0.326489
-0.377895 0.473518 -0.326364
-0.388508 0.455674 -0.300838
-0.388389 0.465648 -0.276608
-0.388366 0.457466 -0.274748
-0.388503 0.476434 -0.291395
-0.388490 0.485179 -0.284840
-0.357882 0.420739 -0.327447
-0.361590 0.424694 -0.327008
-0.349922 0.436895 -0.328524
-0.361973 0.447214 -0.326980
-0.343216 0.434753 -0.329498
-0.337219 0.439045 -0.330451
-0.340873 0.448987 -0.329991
-0.352281 0.462759 -0.328341
-0.350043 0.472796 -0.328679
-0.354961 0.479330 -0.328013
-0.333872 0.459435 -0.331185
-0.342913 0.460123 -0.329760
-0.346892 0.477217 -0.329191
-0.383757 0.428055 -0.265322
-0.386630 0.429182 -0.267518
-0.386202 0.451490 -0.266123
-0.370565 0.431676 -0.263960
-0.376656 0.438448 -0.263910
-0.369784 0.437355 -0.263826
-0.378678 0.455967 -0.264105
-0.381901 0.480954 -0.264875
-0.387692 0.469969 -0.270979
-0.377106 0.455663 -0.263861
-0.368818 0.482936 -0.262669
-0.363440 0.482483 -0.261896
-0.352640 0.433268 -0.262243
-0.350055 0.432868 -0.261919
-0.349228 0.448532 -0.260965
-0.334167 0.435316 -0.259667
-0.332208 0.433890 -0.259408
-0.336605 0.444941 -0.259898
-0.351497 0.468371 -0.260921
-0.354400 0.452014 -0.261516
-0.361352 0.478375 -0.261592
-0.339741 0.462404 -0.259390
-0.335393 0.455760 -0.259204
-0.343317 0.472851 -0.259739
-0.329611 0.350639 -0.325100
-0.314551 0.362506 -0.328763
-0.327018 0.362057 -0.328620
-0.325198 0.383876 -0.331197
-0.310931 0.359119 -0.326823
-0.306318 0.360553 -0.328013
-0.301537 0.373592 -0.333065
-0.312608 0.376449 -0.332403
-0.318238 0.399980 -0.332683
-0.328079 0.404168 -0.331287
-0.329170 0.414433 -0.331315
-0.307786 0.385873 -0.333134
-0.302397 0.403854 -0.334063
-0.315060 0.418527 -0.333637
-0.319314 0.370777 -0.259054
-0.327089 0.353723 -0.263212
-0.325209 0.380903 -0.259318
-0.329798 0.398541 -0.259500
-0.323731 0.391642 -0.258808
-0.326556 0.411907 -0.258831
-0.322914 0.404054 -0.258410
-0.322204 0.433124 -0.332843
-0.317336 0.441440 -0.333837
-0.330239 0.448444 -0.331681
-0.302278 0.430807 -0.334842
-0.304052 0.440784 -0.334961
-0.309371 0.450736 -0.334782
-0.324012 0.468199 -0.333037
-0.325954 0.469453 -0.332695
-0.328947 0.478390 -0.332225
-0.309142 0.451643 -0.334814
-0.307226 0.472841 -0.335256
-0.328318 0.426853 -0.258852
-0.317020 0.428854 -0.256978
-0.331680 0.440152 -0.259238
-0.329730 0.461767 -0.258262
-0.324865 0.452738 -0.257915
-0.323827 0.481794 -0.256528
-0.386223 0.493194 -0.322673
-0.382008 0.493864 -0.325056
-0.388193 0.498382 -0.314951
-0.387850 0.518100 -0.316722
-0.382699 0.514121 -0.324817
-0.388460 0.512015 -0.303999
-0.368492 0.486462 -0.326473
-0.371126 0.502008 -0.326442
-0.377160 0.514262 -0.326372
-0.388501 0.492323 -0.288572
-0.388420 0.493923 -0.279132
-0.388508 0.517680 -0.300181
-0.388500 0.514816 -0.287805
-0.388495 0.507951 -0.285211
-0.386120 0.534468 -0.323050
-0.384676 0.538954 -0.324133
-0.388455 0.528720 -0.304177
-0.387937 0.539266 -0.316406
-0.385529 0.555963 -0.323835
-0.388499 0.546150 -0.302390
-0.367961 0.525992 -0.326478
-0.366769 0.546679 -0.326493
-0.388507 0.525180 -0.298320
-0.388500 0.521597 -0.287154
-0.388493 0.528669 -0.285056
-0.388509 0.537175 -0.301885
-0.388501 0.535382 -0.288243
-0.388354 0.541218 -0.273771
-0.350451 0.495001 -0.328680
-0.364754 0.491920 -0.326610
-0.355175 0.514029 -0.328012
-0.332725 0.494800 -0.331629
-0.345208 0.489354 -0.329517
-0.333245 0.510445 -0.331594
-0.353001 0.527943 -0.328327
-0.352535 0.531813 -0.328394
-0.351558 0.538872 -0.328530
-0.352620 0.547997 -0.328359
-0.335561 0.532818 -0.331211
-0.336738 0.540776 -0.330991
-0.348478 0.539683 -0.328988
-0.378867 0.487343 -0.264148
-0.382800 0.510015 -0.265090
-0.387576 0.504731 -0.270602
-0.366652 0.500651 -0.262333
-0.365452 0.517654 -0.262149
-0.370626 0.502361 -0.262912
-0.380268 0.528249 -0.264484
-0.382856 0.549212 -0.265103
-0.387734 0.551494 -0.271117
-0.376957 0.531495 -0.263835
-0.365801 0.525511 -0.262202
-0.369002 0.537727 -0.262677
-0.357483 0.492959 -0.261032
-0.345523 0.490116 -0.259324
-0.357104 0.512547 -0.260944
-0.342767 0.496776 -0.258880
-0.332010 0.494984 -0.257148
-0.340312 0.511736 -0.258443
-0.338192 0.504668 -0.258122
-0.357929 0.518648 -0.261058
-0.357852 0.549472 -0.261082
-0.351207 0.543872 -0.260124
-0.339943 0.531745 -0.258367
-0.337134 0.524661 -0.257902
-0.329081 0.549546 -0.256620
-0.387082 0.566906 -0.319603
-0.385319 0.561082 -0.323897
-0.388255 0.551605 -0.312398
-0.386552 0.574812 -0.321704
-0.383552 0.580208 -0.324469
-0.388423 0.569252 -0.305546
-0.367192 0.562856 -0.326488
-0.366170 0.581911 -0.326500
-0.388508 0.554703 -0.299634
-0.388506 0.556407 -0.296247
-0.388375 0.567004 -0.275457
-0.388509 0.581904 -0.301530
-0.388506 0.571967 -0.296893
-0.388486 0.569202 -0.284510
-0.386716 0.591250 -0.320972
-0.382845 0.597036 -0.324731
-0.388474 0.588189 -0.303988
-0.387655 0.607920 -0.317604
-0.388275 0.606541 -0.314071
-0.388403 0.604769 -0.307935
-0.377264 0.592784 -0.326287
-0.366501 0.605923 -0.326491
-0.388508 0.590032 -0.300505
-0.388499 0.585543 -0.285781
-0.388363 0.585393 -0.274465
-0.388506 0.614739 -0.297393
-0.388500 0.605056 -0.287119
-0.388447 0.605586 -0.281315
-0.354739 0.554475 -0.328045
-0.350932 0.570832 -0.328550
-0.358566 0.579954 -0.327453
-0.340833 0.552973 -0.330261
-0.343542 0.563550 -0.329761
-0.340309 0.580397 -0.330205
-0.361284 0.588695 -0.327059
-0.363117 0.600908 -0.326818
-0.354796 0.610432 -0.327850
-0.336101 0.591911 -0.330802
-0.345742 0.597705 -0.329209
-0.338915 0.605320 -0.330221
-0.347840 0.614756 -0.328757
-0.387715 0.568067 -0.271054
-0.379618 0.569547 -0.264330
-0.386794 0.568167 -0.268052
-0.367154 0.562009 -0.262451
-0.367621 0.582630 -0.263086
-0.369683 0.572498 -0.263016
-0.388071 0.596681 -0.272214
-0.383329 0.617481 -0.265220
-0.387073 0.607705 -0.268960
-0.367139 0.596461 -0.263636
-0.367627 0.617293 -0.263784
-0.360007 0.553385 -0.261402
-0.352320 0.553610 -0.260308
-0.359538 0.572196 -0.261579
-0.337720 0.560687 -0.258110
-0.328667 0.565057 -0.256650
-0.333003 0.584587 -0.257702
-0.335824 0.572459 -0.257885
-0.363334 0.596135 -0.263148
-0.348281 0.584977 -0.260629
-0.361768 0.604968 -0.263271
-0.334039 0.599810 -0.258574
-0.333889 0.588455 -0.258070
-0.342299 0.610862 -0.260367
-0.331993 0.615257 -0.259064
-0.329799 0.496723 -0.332183
-0.318370 0.513822 -0.334423
-0.326376 0.513344 -0.332895
-0.315769 0.499407 -0.334810
-0.309150 0.511663 -0.335403
-0.323550 0.520817 -0.333449
-0.321513 0.530855 -0.333842
-0.331778 0.535904 -0.331866
-0.310300 0.522629 -0.335344
-0.308008 0.539152 -0.335516
-0.316155 0.501678 -0.255602
-0.326657 0.486078 -0.256481
-0.325461 0.504430 -0.256312
-0.323633 0.530056 -0.256100
-0.321665 0.550067 -0.255992
-0.323136 0.554597 -0.333462
-0.325045 0.565929 -0.333040
-0.328521 0.568421 -0.332360
-0.328156 0.580461 -0.332328
-0.310467 0.558731 -0.335261
-0.302680 0.579589 -0.335681
-0.320445 0.587823 -0.333722
-0.318273 0.600094 -0.333967
-0.318857 0.608157 -0.333709
-0.309986 0.583609 -0.335104
-0.313882 0.590147 -0.334725
-0.308538 0.606740 -0.334828
-0.308957 0.614896 -0.334634
-0.316877 0.554486 -0.255644
-0.322711 0.572943 -0.256245
-0.327189 0.597469 -0.257386
-0.327143 0.616453 -0.258299
-0.326560 0.601658 -0.257528
-0.387985 0.632124 -0.316230
-0.383027 0.632210 -0.324703
-0.388254 0.621457 -0.312448
-0.387911 0.644915 -0.316499
-0.388301 0.643293 -0.310517
-0.388456 0.644433 -0.304128
-0.375842 0.625113 -0.326388
-0.373972 0.637763 -0.326411
-0.388508 0.624986 -0.299968
-0.388504 0.618090 -0.294368
-0.388423 0.623631 -0.279379
-0.388505 0.650273 -0.294684
-0.388502 0.637324 -0.291182
-0.388352 0.650257 -0.273560
-0.387902 0.662264 -0.316528
-0.388230 0.657645 -0.313372
-0.388382 0.660893 -0.307131
-0.382999 0.672740 -0.324691
-0.388196 0.669991 -0.312311
-0.365593 0.657081 -0.326511
-0.369360 0.675135 -0.326661
-0.388503 0.661139 -0.292533
-0.388500 0.656590 -0.286442
-0.388436 0.653163 -0.280563
-0.388267 0.677316 -0.299917
-0.388271 0.675857 -0.283616
-0.352898 0.629800 -0.327979
-0.355876 0.628169 -0.327627
-0.358359 0.637260 -0.327311
-0.358342 0.649491 -0.327274
-0.348307 0.627872 -0.328578
-0.343569 0.637156 -0.329160
-0.347981 0.642763 -0.328487
-0.349326 0.666168 -0.328081
-0.349728 0.677845 -0.328088
-0.364213 0.672918 -0.326708
-0.336031 0.658733 -0.329867
-0.338067 0.673511 -0.329298
-0.345557 0.679243 -0.328489
-0.380808 0.628549 -0.264620
-0.381732 0.647861 -0.264840
-0.388017 0.640124 -0.272039
-0.377862 0.623224 -0.264043
-0.377808 0.646116 -0.264042
-0.385124 0.665354 -0.265643
-0.387159 0.663023 -0.269264
-0.387796 0.676064 -0.271828
-0.375605 0.657457 -0.263987
-0.370264 0.678060 -0.263742
-0.355751 0.628285 -0.262610
-0.350535 0.623784 -0.261938
-0.361668 0.650208 -0.263325
-0.363353 0.635122 -0.263491
-0.337961 0.627394 -0.260232
-0.340627 0.644792 -0.260838
-0.333351 0.641127 -0.259778
-0.363433 0.660040 -0.263535
-0.363763 0.677490 -0.263455
-0.352501 0.670661 -0.262475
-0.348060 0.664439 -0.262016
-0.339197 0.657336 -0.260841
-0.338825 0.672087 -0.261071
-0.386647 0.685060 -0.316902
-0.384485 0.689841 -0.307310
-0.369480 0.690221 -0.323511
-0.375835 0.682966 -0.325779
-0.375859 0.691998 -0.305540
-0.386164 0.688449 -0.294574
-0.380831 0.690795 -0.280280
-0.370553 0.692049 -0.299584
-0.376564 0.691895 -0.294036
-0.377600 0.691640 -0.277284
-0.356571 0.694993 -0.319228
-0.358538 0.690820 -0.324636
-0.362953 0.693166 -0.306574
-0.345162 0.686657 -0.327853
-0.339333 0.701908 -0.319197
-0.339803 0.696859 -0.324987
-0.336627 0.705412 -0.305365
-0.345600 0.701009 -0.303982
-0.364659 0.692433 -0.291208
-0.352811 0.696017 -0.276693
-0.331511 0.708180 -0.300545
-0.347556 0.699810 -0.297580
-0.345699 0.700247 -0.287633
-0.337468 0.702268 -0.275344
-0.382444 0.689620 -0.271100
-0.370111 0.691743 -0.270732
-0.374535 0.683246 -0.264456
-0.356455 0.691454 -0.264370
-0.346686 0.687624 -0.262512
-0.335034 0.701875 -0.267589
-0.343081 0.693890 -0.262971
-0.317972 0.621177 -0.333619
-0.329852 0.633767 -0.331272
-0.320822 0.650808 -0.332431
-0.305923 0.627445 -0.334559
-0.307388 0.626543 -0.334480
-0.301577 0.639513 -0.334564
-0.318784 0.652643 -0.332711
-0.328355 0.657367 -0.331010
-0.328846 0.668524 -0.330678
-0.328540 0.671649 -0.330609
-0.303900 0.663651 -0.333741
-0.310217 0.668355 -0.333129
-0.310217 0.676028 -0.332828
-0.324976 0.632548 -0.258280
-0.330577 0.640457 -0.259353
-0.320450 0.638426 -0.257673
-0.325931 0.662092 -0.259112
-0.319541 0.652646 -0.257875
-0.327258 0.668583 -0.259462
-0.323700 0.687664 -0.330377
-0.317332 0.705794 -0.318534
-0.324946 0.698824 -0.327039
-0.325172 0.708652 -0.307069
-0.301380 0.695250 -0.331265
-0.312138 0.703870 -0.324096
-0.301673 0.699706 -0.328247
-0.301482 0.709301 -0.304361
-0.317576 0.709735 -0.295892
-0.317664 0.707531 -0.277827
-0.306712 0.709813 -0.296202
-0.312246 0.709711 -0.292079
-0.300757 0.709186 -0.284436
-0.327654 0.689641 -0.260262
-0.326764 0.705357 -0.271048
-0.325694 0.697766 -0.261650
-0.315220 0.705293 -0.269912
