ply
format ascii 1.0
element vertex 1000
property float x
property float y
property float z
end_header
-0.335413 -0.085761 -0.319079
-0.149997 -0.092354 -0.316080
-0.216498 -0.088579 -0.317797
0.062321 -0.092404 -0.316058
-0.092784 -0.089350 -0.317447
-0.337298 -0.083841 -0.235350
-0.337298 -0.087743 -0.008428
-0.157679 -0.082597 -0.320480
0.036702 -0.080775 -0.321199
-0.040082 -0.081500 -0.320913
0.336268 -0.085160 -0.194072
0.336268 -0.088774 -0.172934
0.260900 -0.092804 0.110020
0.205986 -0.092804 -0.263629
0.237761 -0.092804 0.100412
0.275194 -0.092804 0.007420
0.241658 -0.092804 0.146632
0.202464 -0.092804 0.212410
0.160478 -0.092804 -0.221902
0.319102 -0.092804 0.062770
-0.215354 -0.092804 -0.194899
0.253789 -0.092804 0.125100
0.308756 -0.092804 -0.052616
0.278494 -0.092804 0.384918
0.150488 -0.092804 -0.029335
0.326489 -0.092804 0.336377
0.281468 -0.092804 -0.036929
0.071340 -0.092804 -0.222812
-0.117569 -0.092804 -0.266827
-0.099688 -0.092804 -0.217448
-0.192514 -0.092804 -0.254509
0.331829 -0.092804 0.046777
-0.056352 -0.092804 -0.110403
-0.013514 -0.092804 -0.229065
0.286933 -0.092804 0.078810
0.101278 -0.092804 0.171948
0.245208 -0.092804 0.165465
0.244249 -0.092804 -0.080061
-0.008473 -0.092804 0.029446
0.145527 -0.092804 -0.180997
-0.017262 -0.092804 -0.290091
0.295121 -0.092804 -0.263373
0.040658 -0.092804 0.106522
0.113432 -0.092804 0.131980
-0.108244 -0.092804 -0.158217
-0.249578 -0.092804 -0.261961
0.031057 -0.092804 -0.288286
0.059278 -0.092804 0.097155
0.091023 -0.092804 -0.139730
0.044317 -0.092804 -0.079512
0.292882 -0.092804 0.231995
0.189174 -0.092804 0.054908
-0.114195 -0.092804 -0.134640
0.314226 -0.092804 0.380068
0.255981 -0.092804 0.336249
0.326668 -0.092804 0.410375
0.212050 -0.092804 0.297894
0.296625 -0.092804 0.362169
0.246240 -0.092804 -0.020060
0.111421 -0.092804 0.130607
0.024289 -0.092804 -0.163268
0.248973 -0.092804 0.327665
0.131470 -0.092804 -0.161969
0.219342 -0.092804 0.002401
0.333876 -0.092804 0.338042
0.251732 -0.092804 -0.142450
-0.247558 -0.092804 -0.310957
-0.032819 -0.092804 -0.193390
0.287059 -0.092804 0.120741
0.112589 -0.092804 -0.234190
0.232699 -0.092804 -0.252448
-0.097674 -0.092804 -0.235628
0.297248 -0.092804 0.122089
0.204219 -0.092804 -0.307528
0.277569 -0.092804 0.170839
0.170166 -0.092804 0.216604
0.321663 -0.092804 0.319020
0.080031 -0.092804 -0.117984
0.119248 -0.092804 0.173830
0.186718 -0.092804 -0.134420
0.160450 -0.092804 0.095378
0.254641 -0.092804 0.186786
0.298647 -0.092804 0.290785
0.286641 -0.092804 0.299034
0.183570 -0.092804 -0.234146
0.285242 -0.092804 0.264951
0.151670 -0.092804 0.047634
0.239335 -0.092804 0.002435
-0.232772 -0.092804 -0.310236
0.037074 -0.092804 -0.107065
0.124374 -0.092804 -0.252777
0.098162 -0.092804 -0.275877
0.325466 -0.092804 0.180348
0.157267 -0.092804 0.136702
0.115188 -0.092804 -0.077135
-0.028410 -0.092804 0.051966
0.264381 -0.092804 0.098733
0.257950 -0.092804 -0.021374
0.151332 -0.092804 0.143092
0.048882 -0.092804 0.085537
0.336118 -0.092804 -0.092537
0.279225 -0.092804 0.225462
0.149620 -0.092804 0.168740
-0.209981 -0.092804 -0.312820
-0.026264 -0.092804 0.024964
0.107138 -0.092804 -0.288351
0.124784 -0.092804 -0.177263
0.164979 -0.092804 -0.146817
0.200977 -0.092804 -0.231339
0.210322 -0.092804 -0.112921
0.047456 -0.092804 0.076324
0.050262 -0.092804 -0.070707
0.290613 -0.092804 -0.249035
0.136612 -0.092804 0.150028
0.153191 -0.092804 0.031446
0.147140 -0.092804 0.234561
0.140622 -0.092804 -0.064661
0.133759 -0.092804 0.241278
0.048945 -0.092804 -0.220585
0.116680 -0.092804 0.217904
0.294495 -0.092804 0.156360
0.334665 -0.092804 -0.309348
0.025599 -0.092804 -0.205451
-0.075903 -0.092804 -0.201650
-0.014367 -0.092804 0.053843
0.304783 -0.092804 0.058679
0.198823 -0.092804 0.262175
0.240608 -0.092804 0.181253
0.278128 -0.092804 0.015576
-0.003806 -0.092804 0.086409
0.315911 -0.092804 -0.006253
0.099990 -0.092804 -0.297193
0.321421 -0.092804 -0.239606
-0.042310 -0.092804 -0.213691
-0.014041 -0.092804 -0.210095
-0.177258 -0.092804 -0.301169
0.082522 -0.092804 -0.075013
0.315093 -0.092804 -0.022947
0.107605 -0.092804 -0.273017
-0.086314 -0.092804 -0.286118
-0.063478 -0.092804 -0.173027
0.283940 -0.092804 0.110565
0.086485 -0.092804 0.022040
0.055284 -0.092804 -0.114614
0.001100 -0.092804 -0.183497
0.014975 -0.092804 -0.263787
0.271181 -0.092804 0.235501
0.131097 -0.092804 -0.290893
0.081320 -0.092804 0.145093
0.202940 -0.092804 -0.039996
0.223020 -0.092804 0.225607
0.224515 -0.092804 0.129345
0.062052 -0.092804 0.118104
0.217672 -0.092804 0.010792
0.006235 -0.092804 0.030550
0.010015 -0.092804 -0.078457
0.250327 -0.092804 -0.135887
-0.055518 -0.092804 -0.275869
0.289127 -0.092804 0.316941
-0.310178 -0.092804 -0.289250
0.248783 -0.092804 -0.133657
-0.034092 -0.092804 -0.205907
0.224603 -0.092804 -0.216062
0.304808 -0.092804 -0.308795
0.169084 -0.092804 -0.048483
0.223858 -0.092804 0.139943
0.084580 -0.092804 -0.054763
0.056290 -0.092804 -0.210353
-0.222755 -0.092804 -0.313660
-0.083819 -0.092804 -0.135555
0.064519 -0.092804 -0.201684
0.229211 -0.092804 -0.041954
0.048560 -0.092804 -0.095080
0.197360 -0.092804 -0.077975
0.099354 -0.092804 0.210519
0.305622 -0.092804 -0.120701
-0.065184 -0.092804 -0.275077
0.185050 -0.092804 -0.074646
0.120480 -0.092804 0.109535
0.086682 -0.092804 -0.121490
0.260972 -0.092804 0.269798
0.152293 -0.092804 -0.197993
0.273603 -0.092804 -0.079703
0.187781 -0.092804 0.144436
0.187228 -0.092804 -0.156458
0.242058 -0.092804 -0.307076
0.242333 -0.092804 0.169267
0.255962 -0.092804 0.266182
0.289954 -0.092804 -0.089438
0.299918 -0.092804 -0.103572
0.237884 -0.092804 -0.095197
-0.256412 -0.092804 -0.288271
0.057517 -0.092804 -0.169855
-0.337298 -0.090068 0.427205
-0.337298 -0.092555 0.009936
-0.337298 -0.092424 0.065803
-0.337298 -0.082303 0.008082
-0.337298 -0.081450 0.057422
-0.337298 -0.082891 -0.037204
-0.219772 -0.076354 -0.322944
-0.071903 -0.078279 -0.322184
0.336268 -0.079047 0.017069
0.336268 -0.080465 -0.272176
0.336268 -0.074637 -0.001123
0.336268 -0.090755 0.501650
0.336268 -0.091686 0.412128
-0.115925 -0.092804 -0.020897
-0.124963 -0.092804 0.452615
-0.196411 -0.092804 0.448692
-0.302922 -0.092804 0.214190
-0.061980 -0.092804 0.262366
0.187569 -0.092804 0.404687
-0.012522 -0.092804 0.190080
0.028447 -0.092804 0.492006
0.085591 -0.092804 0.234492
0.179387 -0.092804 0.421873
-0.220519 -0.092804 0.481468
-0.336462 -0.092804 -0.015818
-0.064507 -0.092804 0.104892
-0.173211 -0.092804 0.454933
0.022200 -0.092804 0.485743
-0.210120 -0.092804 0.402441
0.180723 -0.092804 0.419570
-0.232458 -0.092804 0.435457
-0.208936 -0.092804 0.363817
-0.220067 -0.092804 0.358970
0.147614 -0.092804 0.413804
0.080714 -0.092804 0.310093
-0.164805 -0.092804 0.459381
-0.096854 -0.092804 0.001833
-0.326857 -0.092804 0.035476
-0.087204 -0.092804 0.241646
-0.002704 -0.092804 0.225110
-0.304616 -0.092804 -0.013782
-0.190124 -0.092804 0.159427
0.116163 -0.092804 0.329157
0.003348 -0.092804 0.283238
-0.211139 -0.092804 -0.116638
-0.072711 -0.092804 0.412552
-0.094502 -0.092804 0.192544
-0.232669 -0.092804 0.167004
0.141892 -0.092804 0.369492
-0.292996 -0.092804 0.211694
-0.262898 -0.092804 -0.127745
-0.220275 -0.092804 0.004154
0.115398 -0.092804 0.428387
-0.177890 -0.092804 0.037770
0.067698 -0.092804 0.270607
-0.119902 -0.092804 0.054193
-0.333963 -0.092804 0.057406
-0.156264 -0.092804 0.258331
-0.326284 -0.092804 0.440198
-0.131326 -0.092804 0.321330
0.055977 -0.092804 0.438682
-0.169754 -0.092804 -0.068414
-0.179741 -0.092804 0.083497
-0.088364 -0.092804 0.424537
0.120652 -0.092804 0.417166
-0.252862 -0.092804 0.167228
0.021885 -0.092804 0.445769
-0.118362 -0.092804 0.279074
0.199302 -0.092804 0.378714
-0.311264 -0.092804 -0.149385
0.136757 -0.092804 0.372601
-0.061299 -0.092804 0.115041
-0.332019 -0.092804 -0.208825
0.099837 -0.092804 0.317128
0.024978 -0.092804 0.159189
-0.165100 -0.092804 -0.085286
-0.197985 -0.092804 0.317794
0.095305 -0.092804 0.444416
-0.235323 -0.092804 0.228313
0.254341 -0.092804 0.494419
0.048162 -0.092804 0.302523
0.072680 -0.092804 0.236501
-0.285756 -0.092804 -0.246287
-0.233933 -0.092804 0.074922
-0.159481 -0.092804 0.463006
0.262550 -0.092804 0.465874
-0.309221 -0.092804 0.060849
0.053448 -0.092804 0.479350
0.055207 -0.092804 0.281108
-0.206099 -0.092804 0.159666
0.171266 -0.092804 0.358251
-0.174244 -0.092804 -0.080287
-0.159917 -0.092804 0.428795
-0.140614 -0.092804 0.006863
-0.313658 -0.092804 0.301743
-0.081778 -0.092804 0.474841
-0.227709 -0.092804 0.352760
0.042514 -0.092804 0.366437
-0.255527 -0.092804 -0.018947
-0.294433 -0.092804 -0.032734
0.256074 -0.092804 0.409488
-0.081063 -0.092804 0.169363
0.116976 -0.092804 0.322341
-0.025884 -0.092804 0.115685
-0.249151 -0.092804 0.421227
-0.334546 -0.092804 -0.031301
-0.044325 -0.092804 0.069946
-0.091089 -0.092804 0.052505
-0.105631 -0.092804 0.448728
0.007814 -0.092804 0.166988
-0.050887 -0.092804 0.407635
-0.170853 -0.092804 0.089473
-0.101469 -0.092804 0.120745
-0.075807 -0.092804 0.483481
0.061027 -0.092804 0.373338
-0.185300 -0.092804 0.140203
-0.190663 -0.092804 0.145949
-0.073781 -0.092804 0.035492
-0.167787 -0.092804 0.063807
0.015954 -0.092804 0.249948
0.147332 -0.092804 0.388583
-0.165577 -0.092804 0.045679
-0.003396 -0.092804 0.366874
0.025427 -0.092804 0.440909
-0.023504 -0.092804 0.273010
0.086718 -0.092804 0.295057
0.160811 -0.092804 0.314519
-0.172366 -0.092804 0.062392
-0.045581 -0.092804 0.353294
0.076315 -0.092804 0.464116
-0.182712 -0.092804 0.072472
0.133330 -0.092804 0.323872
-0.175478 -0.092804 0.091086
0.178126 -0.092804 0.403135
-0.001130 -0.092804 0.389665
-0.029463 -0.092804 0.176621
0.208091 -0.092804 0.414352
-0.120074 -0.092804 -0.009357
-0.247785 -0.092804 0.360707
-0.322637 -0.092804 0.191417
-0.221807 -0.092804 -0.112290
0.033444 -0.092804 0.243641
0.326970 -0.092804 0.492818
-0.334964 -0.092804 -0.250776
-0.251155 -0.092804 0.482276
-0.320486 -0.092804 0.203927
0.229983 -0.092804 0.415636
0.138268 -0.092804 0.343148
-0.054919 -0.092804 0.123927
-0.233892 -0.092804 0.110180
-0.000226 -0.092804 0.262381
-0.247462 -0.092804 -0.040225
0.117796 -0.092804 0.322912
-0.134479 -0.092804 0.456886
0.037523 -0.092804 0.288290
-0.075167 -0.092804 0.275099
-0.161107 -0.092804 0.381191
0.207510 -0.092804 0.422293
-0.116614 -0.092804 0.501031
-0.053709 -0.092804 0.402424
0.028627 -0.092804 0.428071
-0.040867 -0.092804 0.305551
0.008433 -0.092804 0.302853
-0.315609 -0.092804 -0.085175
-0.120650 -0.092804 0.260394
-0.285353 -0.092804 0.469469
-0.336696 -0.092804 -0.215710
-0.063246 -0.092804 0.441004
-0.323607 -0.092804 0.379332
-0.117785 -0.092804 0.311750
-0.221533 -0.092804 -0.031922
-0.321419 -0.092804 -0.275982
-0.058847 -0.092804 0.287666
-0.122251 -0.092804 -0.041604
0.095419 -0.092804 0.468978
0.299714 -0.092804 0.465878
-0.135501 -0.092804 0.104445
-0.209309 -0.092804 -0.148881
-0.148116 -0.092804 -0.066543
-0.081856 -0.092804 0.125446
-0.065058 -0.092804 0.435268
-0.103249 -0.092804 0.294156
-0.265435 -0.092804 0.207126
-0.272721 -0.092804 -0.091991
-0.248703 -0.092804 -0.100220
0.115142 -0.092804 0.417055
-0.238971 -0.092804 -0.137649
0.105953 -0.092804 0.452776
-0.283260 -0.092804 -0.230220
-0.076296 -0.092804 0.416739
-0.215547 -0.092804 0.162113
-0.055843 -0.092804 0.463538
-0.229794 -0.092804 0.340441
-0.250482 -0.092804 0.181656
-0.110080 -0.088010 0.503261
-0.096128 -0.092527 0.501207
-0.121515 -0.092679 0.501138
-0.178163 -0.081776 0.506009
-0.285806 -0.078328 0.507370
-0.337298 -0.074073 -0.311379
-0.337298 -0.075284 -0.149456
-0.337298 -0.074429 0.237144
0.285653 -0.068454 -0.325777
0.290441 -0.073106 -0.324208
0.336268 -0.078943 0.493121
0.336268 -0.081597 0.164836
0.336268 -0.082808 -0.242799
0.336268 -0.071295 -0.113544
0.336268 -0.067967 0.240749
0.336268 -0.069139 0.054784
-0.023460 -0.084547 0.504836
0.200929 -0.084603 0.504811
-0.207973 -0.074430 0.508909
0.167824 -0.077873 0.507550
-0.337298 -0.071427 -0.025284
-0.337298 -0.069284 0.079547
-0.337298 -0.072875 -0.075505
-0.027669 -0.064542 -0.327097
-0.326690 -0.072612 -0.324375
0.336268 -0.065841 0.089586
0.336268 -0.072696 -0.300526
0.336268 -0.068817 -0.142662
0.152822 -0.066059 0.511790
0.074588 -0.068575 0.510942
0.239530 -0.064983 0.512153
-0.165038 -0.071228 0.510047
-0.205459 -0.069632 0.510586
-0.337298 -0.067620 -0.293172
-0.337298 -0.064629 0.284671
-0.337298 -0.068718 -0.281089
0.290845 -0.061461 -0.328031
0.185964 -0.058536 -0.328856
0.336268 -0.057304 0.412325
0.336268 -0.059813 0.141609
0.336268 -0.060320 0.059387
-0.016180 -0.059580 0.513767
-0.043060 -0.059487 0.513793
-0.337298 -0.055401 0.467107
-0.337298 -0.059339 0.485176
-0.337298 -0.062754 0.154076
-0.309781 -0.062530 -0.327729
-0.143683 -0.053195 -0.330363
0.336268 -0.054611 0.175589
0.336268 -0.057906 -0.153697
0.336268 -0.059658 -0.240722
-0.081744 -0.055729 0.514854
-0.148312 -0.055926 0.514798
0.202306 -0.059988 0.513652
-0.337298 -0.054587 0.366589
-0.337298 -0.053613 0.117818
0.120932 -0.046145 -0.331980
0.271917 -0.046207 -0.331965
0.088858 -0.048811 -0.331369
0.336268 -0.050176 0.276737
0.336268 -0.049116 0.342439
0.336268 -0.051361 -0.025097
0.162488 -0.052650 0.515696
-0.101428 -0.052384 0.515757
-0.337298 -0.047697 0.287721
-0.337298 -0.050921 0.201964
-0.337298 -0.044343 0.494467
0.047434 -0.046788 -0.331832
-0.326753 -0.043857 -0.332503
0.336268 -0.044260 0.166294
0.336268 -0.047108 0.129511
0.336268 -0.045892 -0.261677
0.248183 -0.045586 0.517313
0.278858 -0.048157 0.516724
0.080873 -0.048787 0.516580
-0.337298 -0.044468 -0.163998
-0.337298 -0.043389 -0.307475
-0.337298 -0.043185 0.245415
-0.066362 -0.039745 -0.333288
0.267479 -0.033704 -0.334357
0.336268 -0.039935 0.059010
0.336268 -0.039058 0.363861
0.336268 -0.041231 0.314327
-0.328067 -0.041596 0.518166
-0.244823 -0.041743 0.518140
-0.337298 -0.038267 0.414971
-0.337298 -0.038654 0.037667
-0.337298 -0.033672 0.496903
0.024779 -0.032887 -0.334502
-0.099430 -0.033855 -0.334331
0.336268 -0.033750 -0.025109
0.336268 -0.034390 0.179908
0.336268 -0.032741 0.454522
0.219088 -0.039117 0.518604
0.317409 -0.036346 0.519095
0.264074 -0.033551 0.519589
-0.337298 -0.032779 0.338989
-0.337298 -0.033182 -0.176716
-0.337298 -0.032922 0.404315
-0.112300 -0.029914 -0.334910
-0.178203 -0.030758 -0.334803
0.336268 -0.025984 -0.106414
0.336268 -0.032246 0.247226
0.336268 -0.031118 0.135579
-0.214492 -0.027820 0.520379
-0.185067 -0.028105 0.520343
-0.337298 -0.025467 0.351137
-0.337298 -0.025751 0.359951
-0.337298 -0.026180 0.229676
-0.210703 -0.029699 -0.334937
-0.068738 -0.026015 -0.335402
0.175086 -0.023719 -0.335692
0.336268 -0.030173 0.394195
0.336268 -0.022128 0.276336
0.336268 -0.022818 0.104007
-0.187843 -0.022384 0.521065
-0.116615 -0.022337 0.521071
-0.337298 -0.024234 -0.065565
-0.337298 -0.022355 0.193080
-0.337298 -0.025732 0.020947
0.256787 -0.017799 -0.336247
0.274528 -0.013434 -0.336579
0.176961 -0.017418 -0.336276
0.336268 -0.017826 -0.204140
0.336268 -0.018254 -0.126614
0.336268 -0.017857 -0.275832
-0.048471 -0.017370 0.521485
0.034520 -0.019531 0.521320
-0.337298 -0.016611 0.434153
-0.337298 -0.012409 0.429006
-0.337298 -0.012859 0.489831
-0.140003 -0.018171 -0.336218
0.041633 -0.012225 -0.336671
0.336268 -0.020603 0.488262
0.336268 -0.016132 0.371325
0.336268 -0.017195 0.380267
0.170362 -0.017483 0.521476
0.118827 -0.011573 0.521927
-0.048958 -0.013543 0.521777
-0.337298 -0.013080 -0.025046
-0.337298 -0.019034 -0.256819
-0.337298 -0.019578 -0.201590
0.149267 -0.006161 -0.336896
-0.239112 -0.009677 -0.336802
0.336268 -0.007036 0.162619
0.336268 -0.005948 -0.307889
0.336268 -0.010493 -0.140113
-0.026903 -0.010401 0.521988
-0.181218 -0.005740 0.522113
-0.204103 -0.002394 0.522202
-0.337298 -0.002921 0.391353
-0.337298 -0.004092 0.446131
-0.337298 -0.010488 -0.149635
0.006290 -0.001497 -0.337020
-0.329399 -0.008591 -0.336831
0.336268 -0.004747 0.416934
0.336268 -0.005587 0.395904
0.336268 -0.003946 0.502198
0.122077 -0.007535 0.522065
0.328882 -0.009918 0.522001
-0.337298 -0.007359 -0.131239
-0.337298 -0.003290 0.204213
-0.337298 -0.004026 -0.207876
0.061303 0.001763 -0.336923
0.336268 0.002016 -0.066796
-0.246182 0.002626 0.522073
-0.337298 0.001233 0.125894
-0.304325 0.001610 -0.336933
0.336268 0.000909 0.361887
-0.337298 0.002486 -0.185667
0.031541 0.004194 -0.336677
0.336268 0.005398 -0.185935
0.009763 0.003521 0.521988
-0.337298 0.003938 0.297095
-0.014537 0.006247 -0.336352
0.336268 0.005181 0.276632
-0.337298 0.006124 -0.201944
-0.168853 0.007034 -0.336194
0.336268 0.008024 -0.292323
0.003611 0.007417 0.521301
-0.337298 0.007701 0.080764
-0.089832 0.009574 -0.335546
0.336268 0.009209 0.117645
-0.337298 0.009292 0.019144
0.230061 0.012382 -0.334591
0.336268 0.011304 0.462851
-0.105990 0.011805 0.520003
-0.337298 0.012992 0.497302
-0.051673 0.012339 -0.334607
-0.119818 0.013265 0.519480
-0.337298 0.012580 -0.015764
0.060484 0.015039 -0.333449
0.336268 0.015762 0.409773
-0.275230 0.014038 0.519124
-0.014546 0.015223 -0.333362
0.336268 0.014904 -0.285314
0.160670 0.015947 0.518227
-0.337298 0.015351 0.053669
0.336268 0.018448 0.482538
0.130970 0.017251 0.517516
-0.337298 0.017553 0.449149
0.130443 0.018899 -0.331332
0.169369 0.019189 0.516366
-0.337298 0.018243 -0.028743
0.083110 0.021019 -0.329843
0.336268 0.021026 0.410419
-0.337298 0.020191 0.381915
0.163448 0.021668 -0.329365
0.336268 0.022041 0.390191
-0.337298 0.020877 -0.120624
0.104649 0.022672 -0.328534
-0.267503 0.023761 0.512758
-0.337298 0.023159 0.146106
-0.177893 0.023889 -0.327436
0.172500 0.023266 0.513204
-0.337298 0.023934 -0.290880
0.117264 0.025020 -0.326331
-0.142336 0.025201 0.511337
-0.083172 0.026060 -0.325179
-0.337298 0.025762 -0.233698
-0.297573 0.026589 0.509799
-0.020447 0.027310 -0.323670
0.336268 0.027391 0.169777
0.006670 0.027166 0.509073
-0.337298 0.028667 -0.072200
-0.158718 0.027376 0.508785
-0.307993 0.028826 -0.321575
-0.059807 0.029388 0.505810
0.336268 0.029623 0.178711
-0.337298 0.029505 -0.047778
0.336268 0.030366 0.393400
-0.207468 0.030722 -0.318134
-0.108566 0.030639 0.503526
0.243941 0.030706 -0.318170
0.083571 0.031431 0.501737
-0.228988 0.035074 -0.279933
-0.023583 0.034821 -0.282648
0.213109 0.031805 -0.314972
-0.301461 0.031841 -0.314585
-0.040880 0.033875 -0.292787
0.323112 0.031812 -0.314905
0.268934 0.032179 -0.310967
-0.311085 0.037709 -0.251700
-0.165967 0.033004 -0.302129
-0.316930 0.034624 -0.284762
-0.030107 0.032902 -0.303216
0.073331 0.033666 -0.295030
0.033613 0.033031 -0.301832
-0.246687 0.034863 -0.282200
0.231876 0.032358 -0.309047
-0.337298 0.035045 0.343920
-0.337298 0.037605 0.407244
0.219882 0.036280 0.452219
0.190318 0.031914 0.499017
0.186614 0.034848 0.467563
0.065533 0.032885 0.488608
0.191003 0.033781 0.478996
0.053860 0.032260 0.495299
0.161645 0.033920 0.477516
-0.208438 0.032572 0.491956
0.266212 0.031890 0.499265
-0.001122 0.034201 0.474501
0.003833 0.033106 0.486239
0.059276 0.033906 0.477659
0.022282 0.034062 0.475994
0.136438 0.032524 0.492474
0.081137 0.034899 0.467017
0.336268 0.033408 0.294887
0.336268 0.033205 -0.224583
0.006849 0.036069 -0.269273
0.207739 0.033815 -0.293434
0.225107 0.037971 -0.248886
0.304477 0.032157 -0.311207
-0.029183 0.036011 -0.269893
0.245139 0.036953 -0.259801
0.162676 0.036315 -0.266632
0.332757 0.034623 -0.284776
0.052611 0.035569 -0.274628
0.134188 0.034688 -0.284071
0.167628 0.037073 -0.258511
0.036322 0.036717 -0.262330
-0.157484 0.036770 -0.261757
-0.059688 0.037512 -0.253805
0.178584 0.033662 -0.295075
-0.337298 0.032673 -0.284721
-0.294609 0.034793 0.468151
-0.151800 0.036290 0.452110
-0.303059 0.036290 0.452107
-0.159625 0.036492 0.449945
-0.173943 0.036550 0.449323
-0.126157 0.036840 0.446218
-0.241031 0.037094 0.443489
-0.328304 0.036208 0.452988
-0.306224 0.037651 0.437525
0.014932 0.035067 0.465216
-0.172121 0.034415 0.472204
-0.186164 0.034648 0.469708
-0.267040 0.033149 0.485772
-0.059647 0.034442 0.471913
-0.327264 0.034770 0.468405
0.108583 0.037635 0.437694
0.336268 0.034854 0.141824
-0.094896 0.039433 -0.229929
0.002037 0.040004 -0.222441
-0.015960 0.039664 -0.226908
-0.155484 0.040075 -0.221509
0.046751 0.038938 -0.236420
-0.152226 0.039687 -0.226604
-0.309471 0.041504 -0.202783
-0.132184 0.038944 -0.236336
-0.265081 0.041814 -0.198722
-0.281542 0.041805 -0.198829
-0.083528 0.039763 -0.225608
-0.052524 0.041001 -0.209372
-0.319288 0.040355 -0.217839
0.073661 0.038064 -0.247884
0.019591 0.040150 -0.220536
-0.337298 0.040303 0.069781
0.174973 0.041443 0.388793
0.205695 0.040315 0.403575
-0.035292 0.039518 0.414025
0.265164 0.040486 0.401334
-0.063144 0.038595 0.426125
-0.101226 0.038886 0.422307
0.021191 0.039400 0.415568
0.270083 0.041129 0.392907
0.195138 0.038578 0.426349
0.176939 0.040108 0.406293
-0.173051 0.038822 0.423152
-0.184349 0.038880 0.422383
-0.097183 0.038388 0.428836
-0.241400 0.038429 0.428298
0.150501 0.039608 0.412839
0.336268 0.039829 0.144871
0.336268 0.041574 0.198139
-0.091883 0.043011 -0.183022
0.047252 0.040744 -0.212745
-0.103302 0.041564 -0.201988
0.123689 0.039964 -0.222974
-0.050891 0.042681 -0.187348
-0.125997 0.042040 -0.195759
0.077211 0.040396 -0.217308
0.325425 0.042189 -0.193799
0.208548 0.040671 -0.213705
0.202022 0.040049 -0.221861
0.331044 0.040017 -0.222276
0.104082 0.040816 -0.211806
0.158394 0.041364 -0.204616
0.174587 0.042709 -0.186982
0.085524 0.042968 -0.183594
-0.337298 0.042535 -0.129788
-0.054699 0.040994 0.394674
-0.273939 0.041990 0.381610
-0.330364 0.042132 0.379752
0.162252 0.041963 0.381963
-0.177914 0.041206 0.391890
-0.245508 0.043005 0.368313
-0.222195 0.040173 0.405434
-0.261231 0.042670 0.372699
-0.038350 0.042905 0.369618
-0.073848 0.040879 0.396186
-0.141286 0.040583 0.400064
-0.135018 0.041359 0.389893
-0.013423 0.041888 0.382947
0.068695 0.042033 0.381047
-0.098273 0.042265 0.378011
0.336268 0.042163 0.003790
-0.037062 0.045369 -0.144137
-0.228055 0.045700 -0.138559
0.008143 0.043846 -0.169831
0.012522 0.043807 -0.170486
0.062935 0.043624 -0.173565
-0.152297 0.043767 -0.171160
-0.179984 0.043856 -0.169660
0.116610 0.044102 -0.165513
-0.044346 0.043514 -0.175429
-0.230681 0.044801 -0.153712
-0.172961 0.044155 -0.164615
-0.221198 0.044895 -0.152135
-0.315653 0.044703 -0.155375
0.103645 0.044002 -0.167191
-0.243115 0.043655 -0.173052
-0.337298 0.043308 -0.160980
0.329137 0.046113 0.316787
0.210077 0.045897 0.320445
0.046304 0.043340 0.363565
0.295773 0.044234 0.348495
-0.161503 0.044077 0.351140
0.336227 0.045471 0.327625
0.309888 0.045471 0.327630
0.233420 0.043903 0.354073
0.086060 0.045283 0.330788
-0.123629 0.043332 0.363703
0.085809 0.044222 0.348699
0.107597 0.043931 0.353595
-0.066477 0.044616 0.342052
-0.156891 0.043829 0.355318
0.253136 0.046488 0.310470
0.210245 0.045577 -0.140636
-0.032143 0.046710 -0.121521
0.159362 0.044787 -0.153962
0.324019 0.044205 -0.163778
0.110182 0.045446 -0.142843
-0.005087 0.045576 -0.140639
0.302027 0.044256 -0.162912
0.324032 0.044551 -0.157936
0.218925 0.044915 -0.151800
0.048322 0.045643 -0.139516
0.313125 0.044580 -0.157450
-0.208058 0.046539 -0.124404
-0.059325 0.047032 -0.116080
0.263624 0.045514 -0.141696
0.221004 0.044951 -0.151185
0.282747 0.045291 -0.145454
-0.049284 0.046703 0.306849
-0.216825 0.045121 0.333527
-0.169655 0.045579 0.325804
-0.153938 0.046609 0.308426
0.027526 0.046066 0.317583
-0.098610 0.045262 0.331144
-0.232088 0.044269 0.347893
-0.322242 0.045227 0.331731
0.146254 0.046371 0.312451
-0.311084 0.044250 0.348217
-0.207967 0.044439 0.345025
-0.030475 0.046998 0.301870
-0.164383 0.046155 0.316083
-0.217089 0.045271 0.331003
-0.103577 0.045741 0.323065
0.336268 0.047127 -0.068579
-0.170094 0.047538 -0.105839
0.311554 0.047350 -0.110267
-0.036785 0.048163 -0.091071
-0.202319 0.048097 -0.092629
0.181536 0.047709 -0.101787
-0.227541 0.048968 -0.072052
0.051923 0.048032 -0.094161
-0.169918 0.048805 -0.075908
0.063019 0.047682 -0.102433
-0.170997 0.048914 -0.073336
-0.312444 0.048953 -0.072414
-0.328332 0.047917 -0.096889
-0.187047 0.047636 -0.103505
-0.187854 0.047909 -0.097064
-0.261945 0.048208 -0.090004
0.041955 0.048774 0.261843
0.332968 0.048441 0.269706
-0.002295 0.048260 0.273970
0.128578 0.048201 0.275379
0.233576 0.048140 0.276806
-0.023417 0.048024 0.279551
0.219210 0.049226 0.251154
-0.051341 0.047979 0.280615
0.107683 0.048162 0.276297
-0.093738 0.048090 0.278008
0.238380 0.047540 0.290995
0.268230 0.048259 0.274016
0.161204 0.047910 0.282241
-0.166434 0.047566 0.290363
0.283448 0.047747 0.286100
0.336268 0.048497 -0.081982
-0.047887 0.049103 -0.068864
0.036737 0.049351 -0.063009
0.233643 0.047863 -0.098161
-0.077435 0.050142 -0.044328
0.230382 0.047778 -0.100169
0.182845 0.048002 -0.094863
-0.039341 0.049604 -0.057038
0.233438 0.048580 -0.081222
-0.037972 0.049622 -0.056611
-0.215198 0.049979 -0.048168
-0.054098 0.050149 -0.044143
0.332668 0.049203 -0.066506
0.240766 0.049796 -0.052487
0.101641 0.049411 -0.061584
0.237453 0.048761 -0.076951
-0.194289 0.048977 0.257040
-0.006433 0.049041 0.255532
-0.231299 0.050150 0.229331
0.021883 0.049987 0.233181
-0.290905 0.048898 0.258914
-0.010163 0.048953 0.257619
0.126294 0.050166 0.228964
-0.195814 0.048182 0.275819
-0.092497 0.049278 0.249942
-0.319425 0.049750 0.238787
0.233614 0.050039 0.231957
-0.282023 0.050147 0.229399
0.220652 0.049763 0.238472
-0.169295 0.048360 0.271618
-0.050232 0.048645 0.264881
0.336268 0.049532 0.235116
-0.060077 0.050694 -0.022965
-0.261038 0.051233 -0.001758
-0.313842 0.051814 0.021116
-0.251461 0.051284 0.000268
-0.101922 0.050498 -0.030705
-0.263133 0.050544 -0.028897
-0.248100 0.050488 -0.031078
-0.244299 0.051370 0.003625
-0.117944 0.050334 -0.037138
-0.086837 0.051070 -0.008160
0.198571 0.050212 -0.041948
0.028509 0.050645 -0.024895
-0.234365 0.051527 0.009830
-0.228627 0.050373 -0.035624
-0.087326 0.050435 -0.033193
0.181696 0.050831 0.202776
-0.019452 0.050745 0.206167
0.260911 0.050976 0.197076
0.191292 0.050689 0.208398
0.171407 0.051150 0.190214
0.170488 0.051377 0.181280
0.090023 0.050544 0.214093
-0.250080 0.050286 0.224245
0.321421 0.050658 0.209615
0.033466 0.050693 0.208237
0.325378 0.050863 0.201532
0.295721 0.050654 0.209755
-0.047800 0.050647 0.210039
0.301756 0.051753 0.166478
0.295822 0.050395 0.219962
0.080342 0.051666 0.015289
-0.159178 0.051704 0.016806
-0.026007 0.051869 0.023284
0.040676 0.050958 -0.012572
0.292818 0.051243 -0.001368
0.297947 0.051760 0.019010
0.251391 0.050769 -0.020043
0.305849 0.051853 0.022668
0.060276 0.051472 0.007673
-0.214803 0.051698 0.016565
0.228953 0.051682 0.015909
-0.042937 0.051438 0.006319
-0.023514 0.051741 0.018248
0.138588 0.051232 -0.001788
0.233529 0.051697 0.016521
-0.294311 0.051212 0.187791
-0.215880 0.051846 0.162819
-0.146049 0.051188 0.188739
0.255518 0.051847 0.162774
-0.120987 0.051546 0.174639
0.068802 0.051262 0.185826
-0.325877 0.051849 0.162722
-0.187425 0.050600 0.211868
-0.326935 0.051001 0.196088
-0.026089 0.051115 0.191620
-0.335880 0.050644 0.210136
-0.178017 0.051196 0.188401
0.230020 0.051802 0.164566
-0.236960 0.050879 0.200905
-0.197687 0.051855 0.162473
0.089033 0.052099 0.048157
-0.066465 0.052098 0.048058
0.109535 0.052042 0.041500
-0.005192 0.052027 0.039643
-0.013103 0.052056 0.043067
-0.098256 0.052131 0.051989
-0.315821 0.052086 0.046614
0.003338 0.052086 0.046691
0.192145 0.052001 0.036581
0.084975 0.051962 0.032007
-0.069657 0.052165 0.056006
-0.186378 0.052018 0.038661
-0.021598 0.052085 0.046479
-0.273067 0.052152 0.054463
-0.186615 0.051927 0.027864
-0.277843 0.052081 0.046004
0.311027 0.052187 0.126606
0.002962 0.051921 0.158105
0.240962 0.052386 0.103161
0.091879 0.052060 0.141583
0.283304 0.052210 0.123951
0.165580 0.051986 0.150425
0.225619 0.052188 0.126537
-0.012836 0.052060 0.141584
0.131226 0.052252 0.118920
0.314580 0.051994 0.149449
0.247883 0.051904 0.160079
0.317171 0.051965 0.152880
-0.024925 0.052081 0.139177
0.102072 0.052173 0.128325
-0.131073 0.051936 0.156342
0.182494 0.052222 0.062693
-0.019449 0.052211 0.061425
0.066110 0.052398 0.083560
0.289265 0.052370 0.080201
0.115294 0.052143 0.053384
0.129277 0.052176 0.057294
0.090637 0.052327 0.075122
0.237881 0.052316 0.073832
0.280813 0.052406 0.084412
0.245519 0.052438 0.088194
0.189955 0.052124 0.051109
0.311414 0.051936 0.028894
0.053830 0.052288 0.070539
-0.095567 0.052369 0.080094
0.090551 0.052231 0.063812
-0.014598 0.052415 0.099680
-0.258690 0.052450 0.095615
-0.302913 0.052232 0.121266
-0.206860 0.052129 0.133442
-0.186578 0.052404 0.101007
-0.088276 0.052220 0.122724
0.115195 0.052348 0.107662
0.068182 0.052344 0.108131
-0.193910 0.052405 0.100854
-0.335480 0.052185 0.126833
-0.139504 0.052319 0.111073
-0.186103 0.052141 0.132103
-0.171361 0.052095 0.137541
-0.079359 0.052417 0.099414
-0.216164 0.052342 0.108331
