ply
format ascii 1.0
element vertex 1000
property float x
property float y
property float z
end_header
-0.158502 -0.085497 -0.319199
-0.030568 -0.091528 -0.316456
-0.153470 -0.084076 -0.319845
0.128338 -0.087380 -0.318343
0.014151 -0.092446 -0.316039
-0.337298 -0.088684 -0.115599
-0.337298 -0.089981 -0.257171
0.276316 -0.078685 -0.322024
0.256917 -0.075484 -0.323287
0.227470 -0.081124 -0.321061
0.336268 -0.087868 -0.308368
0.336268 -0.090645 -0.096391
0.302076 -0.092804 0.043803
0.025815 -0.092804 -0.214773
0.298126 -0.092804 0.346561
0.277676 -0.092804 -0.142811
-0.199368 -0.092804 -0.236633
0.166714 -0.092804 -0.224608
0.192916 -0.092804 0.122960
0.318770 -0.092804 -0.052702
0.224941 -0.092804 0.239848
0.068335 -0.092804 -0.182972
-0.179911 -0.092804 -0.295091
-0.025826 -0.092804 0.015676
0.080003 -0.092804 -0.055147
0.036738 -0.092804 -0.303586
0.271572 -0.092804 0.226972
0.293424 -0.092804 -0.273320
0.145060 -0.092804 -0.201552
0.041084 -0.092804 -0.220500
0.180965 -0.092804 -0.292627
-0.161568 -0.092804 -0.198637
0.216969 -0.092804 -0.152307
0.041646 -0.092804 0.080389
0.177254 -0.092804 -0.257416
0.268617 -0.092804 0.174970
-0.018587 -0.092804 -0.264949
-0.001184 -0.092804 -0.116935
0.054958 -0.092804 -0.214514
0.118502 -0.092804 -0.003194
0.239216 -0.092804 0.334091
0.115037 -0.092804 -0.199574
-0.010039 -0.092804 -0.252856
0.057850 -0.092804 -0.147625
0.118887 -0.092804 -0.033776
0.225141 -0.092804 -0.163603
0.100316 -0.092804 0.081270
0.005399 -0.092804 0.072049
0.048223 -0.092804 0.061448
0.110587 -0.092804 -0.009486
0.204824 -0.092804 0.152919
0.127552 -0.092804 0.022900
-0.116949 -0.092804 -0.277363
-0.187616 -0.092804 -0.172877
0.015693 -0.092804 0.015455
0.121431 -0.092804 -0.033451
0.189105 -0.092804 0.293519
0.312117 -0.092804 0.464605
-0.108532 -0.092804 -0.232595
0.003071 -0.092804 -0.236996
-0.024918 -0.092804 -0.142983
0.186935 -0.092804 0.109325
0.322887 -0.092804 0.130669
-0.215583 -0.092804 -0.225532
-0.203963 -0.092804 -0.166729
0.003204 -0.092804 -0.132837
-0.129717 -0.092804 -0.276531
0.068069 -0.092804 -0.062210
0.136347 -0.092804 0.053240
0.142945 -0.092804 0.095609
0.255794 -0.092804 -0.203929
0.034228 -0.092804 0.109094
-0.228137 -0.092804 -0.211406
-0.115238 -0.092804 -0.147029
0.058112 -0.092804 0.093381
0.168044 -0.092804 0.219494
0.166432 -0.092804 0.269436
0.257929 -0.092804 0.268011
0.078325 -0.092804 0.015128
0.320771 -0.092804 -0.275864
0.074796 -0.092804 -0.296374
-0.068174 -0.092804 -0.044013
-0.226970 -0.092804 -0.243066
0.281976 -0.092804 0.090021
0.128678 -0.092804 0.004264
0.152369 -0.092804 -0.054814
-0.122035 -0.092804 -0.099450
0.299967 -0.092804 0.211644
0.077748 -0.092804 -0.156930
0.170674 -0.092804 0.041377
0.171827 -0.092804 0.027601
0.241933 -0.092804 -0.269496
0.202376 -0.092804 0.077073
0.244049 -0.092804 0.047069
0.125377 -0.092804 0.223821
0.001370 -0.092804 -0.018701
-0.049827 -0.092804 0.018779
0.234301 -0.092804 0.262010
-0.000636 -0.092804 0.023818
0.147838 -0.092804 -0.115251
-0.184344 -0.092804 -0.166304
0.029594 -0.092804 0.002856
0.289674 -0.092804 0.028227
0.234222 -0.092804 0.003020
-0.094382 -0.092804 -0.062399
0.308574 -0.092804 -0.230764
-0.137760 -0.092804 -0.209500
0.248462 -0.092804 0.344424
0.118418 -0.092804 -0.187263
0.243902 -0.092804 -0.287215
0.146297 -0.092804 0.125773
0.239023 -0.092804 -0.114612
-0.104053 -0.092804 -0.058504
-0.235559 -0.092804 -0.235337
0.335910 -0.092804 -0.002242
0.204683 -0.092804 0.174510
0.140999 -0.092804 -0.193724
0.061926 -0.092804 -0.082077
0.230712 -0.092804 0.206222
0.210421 -0.092804 0.228083
0.327774 -0.092804 -0.223914
0.057617 -0.092804 0.145534
0.276607 -0.092804 0.227641
0.041605 -0.092804 0.007546
-0.088205 -0.092804 -0.076326
-0.124836 -0.092804 -0.201557
0.332869 -0.092804 0.330743
0.306875 -0.092804 0.002421
0.058501 -0.092804 0.020859
0.153194 -0.092804 -0.099276
0.086175 -0.092804 -0.243445
0.295399 -0.092804 -0.185388
0.173266 -0.092804 -0.161864
-0.032512 -0.092804 -0.275264
0.067663 -0.092804 -0.090948
0.105909 -0.092804 -0.284539
0.124354 -0.092804 -0.138426
-0.203097 -0.092804 -0.197345
0.108753 -0.092804 0.075821
0.264070 -0.092804 0.393427
0.040483 -0.092804 -0.186386
0.202927 -0.092804 0.189894
0.330687 -0.092804 -0.076053
0.116838 -0.092804 -0.100518
0.033155 -0.092804 -0.310631
0.222236 -0.092804 0.061257
0.284085 -0.092804 -0.283492
-0.206952 -0.092804 -0.189418
-0.120752 -0.092804 -0.309283
-0.137430 -0.092804 -0.108436
0.257728 -0.092804 0.116718
-0.001471 -0.092804 -0.299649
0.146001 -0.092804 0.040520
0.326505 -0.092804 0.142660
0.240400 -0.092804 0.243916
0.217411 -0.092804 0.157175
0.120574 -0.092804 -0.144887
0.071568 -0.092804 0.124346
-0.000643 -0.092804 -0.107792
0.084665 -0.092804 0.034262
0.053555 -0.092804 -0.057408
0.122359 -0.092804 0.032407
-0.155159 -0.092804 -0.207075
0.292218 -0.092804 -0.062297
-0.052583 -0.092804 -0.077000
-0.067776 -0.092804 -0.176513
-0.044515 -0.092804 0.034039
-0.204477 -0.092804 -0.189157
0.319840 -0.092804 0.194066
0.289357 -0.092804 -0.121906
0.247865 -0.092804 -0.244504
0.012812 -0.092804 -0.094843
0.104828 -0.092804 0.098573
-0.266621 -0.092804 -0.241811
0.311443 -0.092804 0.113507
0.022834 -0.092804 0.029536
0.136692 -0.092804 -0.079876
-0.029410 -0.092804 -0.273540
0.118101 -0.092804 -0.126741
-0.255017 -0.092804 -0.221939
-0.265568 -0.092804 -0.273078
0.079234 -0.092804 0.158841
-0.009275 -0.092804 -0.081752
0.140826 -0.092804 0.181608
0.007949 -0.092804 -0.089963
0.094849 -0.092804 0.112428
0.243963 -0.092804 0.126875
-0.263361 -0.092804 -0.254044
0.322807 -0.092804 0.466110
0.254006 -0.092804 0.072964
-0.100174 -0.092804 -0.121532
0.029987 -0.092804 -0.311026
0.046041 -0.092804 -0.085613
-0.337298 -0.092344 0.410554
-0.337298 -0.092767 -0.258377
-0.337298 -0.089989 0.318220
-0.337298 -0.074473 0.495739
-0.337298 -0.081532 0.474275
-0.337298 -0.077554 0.244403
-0.009517 -0.077488 -0.322496
0.162217 -0.074613 -0.323631
0.336268 -0.077866 -0.211454
0.336268 -0.077542 -0.281461
0.336268 -0.076211 0.065620
0.336268 -0.089830 0.388354
0.336268 -0.085721 0.270481
-0.170223 -0.092804 0.312255
-0.150021 -0.092804 0.137156
0.101417 -0.092804 0.450327
0.051444 -0.092804 0.177629
-0.304224 -0.092804 -0.133515
-0.331074 -0.092804 0.132443
-0.304631 -0.092804 0.498461
-0.112110 -0.092804 0.064543
0.027237 -0.092804 0.481938
-0.320361 -0.092804 0.176836
-0.060659 -0.092804 0.462804
-0.222668 -0.092804 0.018194
-0.010415 -0.092804 0.273458
-0.113629 -0.092804 0.152610
0.084682 -0.092804 0.208719
-0.284044 -0.092804 0.480606
-0.206846 -0.092804 0.198717
0.009049 -0.092804 0.198786
0.064308 -0.092804 0.455584
-0.008075 -0.092804 0.349395
-0.335190 -0.092804 -0.293941
-0.328439 -0.092804 -0.190720
-0.222707 -0.092804 -0.014786
-0.326829 -0.092804 0.282737
0.036753 -0.092804 0.444863
-0.038507 -0.092804 0.126083
0.011529 -0.092804 0.337554
0.267033 -0.092804 0.456739
-0.166832 -0.092804 0.334652
-0.333208 -0.092804 -0.210962
0.050874 -0.092804 0.177858
-0.270133 -0.092804 0.136107
-0.226665 -0.092804 -0.177225
-0.214294 -0.092804 0.171482
0.091429 -0.092804 0.257610
-0.307169 -0.092804 0.080961
-0.036050 -0.092804 0.379584
-0.067448 -0.092804 0.106977
-0.148527 -0.092804 0.366622
-0.015245 -0.092804 0.163047
-0.175313 -0.092804 0.155970
0.061361 -0.092804 0.413765
0.007574 -0.092804 0.201095
-0.331515 -0.092804 0.106815
-0.047163 -0.092804 0.231586
0.132753 -0.092804 0.453886
-0.277209 -0.092804 0.187169
-0.158081 -0.092804 0.064615
-0.050612 -0.092804 0.195062
-0.134725 -0.092804 0.363066
-0.235919 -0.092804 0.412974
-0.102538 -0.092804 0.445540
-0.317404 -0.092804 -0.144425
-0.102059 -0.092804 0.470467
0.255270 -0.092804 0.431860
0.157073 -0.092804 0.307500
-0.297717 -0.092804 0.388269
-0.237960 -0.092804 -0.172414
0.013753 -0.092804 0.157654
-0.308575 -0.092804 0.111342
-0.079354 -0.092804 0.396598
0.116807 -0.092804 0.452381
-0.331303 -0.092804 0.113841
0.117522 -0.092804 0.308813
-0.321334 -0.092804 0.401117
-0.263076 -0.092804 -0.173720
-0.273421 -0.092804 0.497058
0.044542 -0.092804 0.477025
-0.076945 -0.092804 0.113565
-0.293477 -0.092804 0.077600
-0.113817 -0.092804 0.296472
0.145487 -0.092804 0.401429
-0.091430 -0.092804 0.174028
-0.089044 -0.092804 0.467005
-0.303800 -0.092804 0.232497
-0.310423 -0.092804 0.118986
-0.034686 -0.092804 0.225712
-0.211685 -0.092804 0.163151
-0.156279 -0.092804 0.492168
0.043693 -0.092804 0.221872
-0.255811 -0.092804 0.063504
-0.184796 -0.092804 0.034548
-0.247134 -0.092804 0.102342
-0.295677 -0.092804 0.122329
-0.279356 -0.092804 0.274450
0.053088 -0.092804 0.233215
-0.187848 -0.092804 0.415252
-0.140402 -0.092804 0.021153
-0.100778 -0.092804 0.296310
-0.316937 -0.092804 0.459146
-0.319145 -0.092804 -0.247638
-0.048340 -0.092804 0.204742
-0.143289 -0.092804 0.098057
-0.058833 -0.092804 0.422653
0.011469 -0.092804 0.422417
0.021547 -0.092804 0.300476
0.030831 -0.092804 0.190573
-0.242310 -0.092804 0.076401
-0.098088 -0.092804 0.087446
0.230584 -0.092804 0.429924
-0.037053 -0.092804 0.340239
-0.260798 -0.092804 0.222709
-0.240242 -0.092804 0.105517
-0.233682 -0.092804 0.225734
-0.309393 -0.092804 -0.242534
0.099730 -0.092804 0.235556
0.190794 -0.092804 0.385933
-0.018496 -0.092804 0.086618
-0.286145 -0.092804 0.004649
-0.225658 -0.092804 0.217426
-0.051667 -0.092804 0.315809
0.199388 -0.092804 0.439385
-0.289042 -0.092804 0.353055
-0.161181 -0.092804 0.130882
0.031807 -0.092804 0.198732
-0.330824 -0.092804 0.382455
-0.112033 -0.092804 0.136814
-0.141189 -0.092804 0.057934
-0.201742 -0.092804 0.453751
-0.327397 -0.092804 -0.055800
-0.163199 -0.092804 0.375801
-0.300843 -0.092804 0.113284
-0.273535 -0.092804 0.289601
-0.247648 -0.092804 0.363343
-0.217968 -0.092804 -0.125280
0.010837 -0.092804 0.402459
-0.324887 -0.092804 -0.059983
-0.258420 -0.092804 0.236798
-0.059190 -0.092804 0.432390
-0.335429 -0.092804 -0.235046
0.184120 -0.092804 0.362113
-0.334576 -0.092804 0.066519
-0.124799 -0.092804 0.369809
0.151919 -0.092804 0.494437
-0.287315 -0.092804 0.130795
0.151329 -0.092804 0.466679
0.098061 -0.092804 0.231893
0.109187 -0.092804 0.464130
-0.324633 -0.092804 0.312931
-0.191812 -0.092804 0.081979
-0.099371 -0.092804 0.479243
-0.211488 -0.092804 0.437006
-0.266570 -0.092804 0.320998
-0.221461 -0.092804 0.100475
-0.259485 -0.092804 0.331917
0.071412 -0.092804 0.393517
-0.086135 -0.092804 0.326489
-0.080062 -0.092804 0.335413
-0.085775 -0.092804 0.363106
-0.267597 -0.092804 0.350046
-0.080746 -0.092804 0.303982
-0.240356 -0.092804 0.145467
-0.331764 -0.092804 -0.270032
0.024683 -0.092804 0.404969
-0.201155 -0.092804 0.314092
0.176663 -0.092804 0.365685
0.120454 -0.092804 0.378029
-0.288625 -0.092804 0.241095
-0.175565 -0.092804 -0.101190
-0.182355 -0.092804 -0.010812
-0.210053 -0.092804 -0.018037
-0.202974 -0.092804 0.307583
-0.143714 -0.092804 0.140104
0.247253 -0.092804 0.437089
-0.205454 -0.092804 -0.084859
-0.282939 -0.092804 0.122204
-0.101819 -0.092804 0.472836
0.097152 -0.092804 0.499736
0.185570 -0.092804 0.373275
-0.195315 -0.092804 0.163789
0.114066 -0.092804 0.439250
-0.105331 -0.092804 0.065363
-0.159963 -0.092804 0.170101
-0.157288 -0.092804 0.194201
-0.251257 -0.092804 0.366211
-0.234695 -0.092804 -0.159092
0.032522 -0.092804 0.241720
-0.116109 -0.092804 0.100334
-0.322324 -0.092804 -0.092024
0.053911 -0.092804 0.437363
-0.172351 -0.092804 -0.067100
-0.241817 -0.085422 0.504438
0.141540 -0.091558 0.501648
-0.164433 -0.091105 0.501853
-0.111869 -0.080398 0.506553
0.004679 -0.081649 0.506059
-0.337298 -0.073823 0.118015
-0.337298 -0.076474 0.195518
-0.337298 -0.076409 -0.149771
-0.041225 -0.072024 -0.324573
0.199427 -0.071317 -0.324812
0.336268 -0.073948 0.477916
0.336268 -0.083093 -0.199388
0.336268 -0.077748 0.169911
0.336268 -0.066957 0.464735
0.336268 -0.068585 0.367622
0.336268 -0.069522 0.210666
-0.189310 -0.084070 0.505053
0.130828 -0.088594 0.502996
-0.101373 -0.075186 0.508610
0.333187 -0.074688 0.508807
-0.337298 -0.071825 0.003062
-0.337298 -0.070237 0.233624
-0.337298 -0.065938 0.392636
0.135385 -0.063729 -0.327371
0.138969 -0.066158 -0.326552
0.336268 -0.072157 -0.324485
0.336268 -0.071955 -0.271776
0.336268 -0.064495 -0.117511
0.291539 -0.066929 0.511497
0.143168 -0.069000 0.510799
0.324035 -0.071382 0.509996
-0.285648 -0.069437 0.510651
-0.032027 -0.070184 0.510399
-0.337298 -0.063990 0.322126
-0.337298 -0.068039 -0.145128
-0.337298 -0.065167 0.263579
-0.030759 -0.063262 -0.327523
0.067023 -0.062224 -0.327816
0.336268 -0.057770 0.225200
0.336268 -0.059455 0.482350
0.336268 -0.061891 -0.000041
-0.227161 -0.062371 0.512979
-0.247292 -0.057003 0.514494
-0.337298 -0.059692 0.113304
-0.337298 -0.060275 0.415862
-0.337298 -0.060475 0.449395
-0.192936 -0.056982 -0.329294
-0.201197 -0.059370 -0.328621
0.336268 -0.060226 -0.245702
0.336268 -0.053908 -0.153068
0.336268 -0.057142 -0.039976
0.151560 -0.058274 0.514135
0.146491 -0.055042 0.515047
0.309150 -0.062873 0.512837
-0.337298 -0.057116 0.136509
-0.337298 -0.060383 -0.179236
0.142314 -0.050732 -0.330929
-0.082640 -0.053054 -0.330398
0.309729 -0.049768 -0.331150
0.336268 -0.048831 0.449905
0.336268 -0.045715 0.333661
0.336268 -0.049543 0.257317
-0.051200 -0.052148 0.515811
-0.284905 -0.048186 0.516718
-0.337298 -0.050863 0.115195
-0.337298 -0.051928 -0.190160
-0.337298 -0.053093 0.237737
-0.107599 -0.044101 -0.332448
-0.271314 -0.045635 -0.332096
0.336268 -0.044642 -0.316760
0.336268 -0.046042 0.085335
0.336268 -0.043720 0.433702
0.167697 -0.046177 0.517178
-0.053910 -0.046594 0.517082
0.281797 -0.047670 0.516836
-0.337298 -0.045070 -0.198827
-0.337298 -0.044195 -0.288148
-0.337298 -0.049710 -0.115197
0.015653 -0.038150 -0.333570
0.326170 -0.034691 -0.334183
0.336268 -0.038421 0.386948
0.336268 -0.039091 0.004806
0.336268 -0.040547 -0.101411
-0.132713 -0.038992 0.518626
-0.322893 -0.039900 0.518466
-0.337298 -0.042712 0.068968
-0.337298 -0.035603 0.424344
-0.337298 -0.037968 0.293400
-0.294244 -0.035344 -0.334067
0.001997 -0.033267 -0.334435
0.336268 -0.034622 0.223854
0.336268 -0.032605 0.265066
0.336268 -0.040547 -0.267494
-0.110206 -0.035658 0.519217
0.226784 -0.039689 0.518503
0.296139 -0.037532 0.518885
-0.337298 -0.039842 -0.297751
-0.337298 -0.035383 0.033595
-0.337298 -0.033695 -0.208104
0.153550 -0.030699 -0.334811
-0.101966 -0.030290 -0.334862
0.336268 -0.029346 -0.210586
0.336268 -0.030491 0.337570
0.336268 -0.026761 -0.131783
0.078632 -0.028309 0.520317
-0.214244 -0.023859 0.520879
-0.337298 -0.027616 0.347751
-0.337298 -0.030509 0.203235
-0.337298 -0.031308 -0.173925
-0.085443 -0.023881 -0.335671
0.124342 -0.024886 -0.335544
0.074512 -0.022688 -0.335822
0.336268 -0.025478 0.324771
0.336268 -0.022021 -0.009827
0.336268 -0.021872 0.100927
0.112171 -0.022339 0.521071
0.278800 -0.028744 0.520262
-0.337298 -0.022429 -0.157618
-0.337298 -0.023891 0.200671
-0.337298 -0.024321 0.267749
0.164627 -0.015423 -0.336428
-0.033759 -0.019397 -0.336125
-0.077436 -0.019440 -0.336122
0.336268 -0.018097 -0.309474
0.336268 -0.021517 0.061690
0.336268 -0.021040 0.303624
-0.119798 -0.016159 0.521577
0.103351 -0.020074 0.521279
-0.337298 -0.016281 0.404588
-0.337298 -0.017917 0.285007
-0.337298 -0.019358 0.018523
-0.177967 -0.011442 -0.336731
-0.043074 -0.011550 -0.336723
0.336268 -0.011181 -0.141673
0.336268 -0.013037 0.516541
0.336268 -0.011466 0.030209
0.279244 -0.015557 0.521623
-0.114666 -0.014395 0.521712
-0.133639 -0.011220 0.521954
-0.337298 -0.012437 -0.285660
-0.337298 -0.017283 -0.247076
-0.337298 -0.011825 0.143218
0.193714 -0.006344 -0.336891
0.017950 -0.008562 -0.336831
0.336268 -0.007128 0.146071
0.336268 -0.007222 -0.011196
0.336268 -0.010357 0.439966
-0.248995 -0.005883 0.522109
-0.064672 -0.008003 0.522052
-0.107835 -0.008435 0.522041
-0.337298 -0.006783 0.065637
-0.337298 -0.003049 0.515210
-0.337298 -0.006386 0.286353
-0.321125 -0.007359 -0.336864
-0.289348 -0.000991 -0.337034
0.336268 -0.008148 0.500574
0.336268 -0.005697 0.436524
0.336268 -0.002766 -0.076478
0.105760 -0.006026 0.522105
-0.072685 -0.002858 0.522190
-0.337298 -0.002076 0.233071
-0.337298 -0.003095 -0.001485
-0.337298 -0.008753 -0.255336
-0.105524 -0.000209 -0.337049
0.336268 0.000207 -0.334084
-0.090058 0.000674 0.522198
-0.337298 0.001619 0.482330
-0.152746 0.001396 -0.336946
0.336268 0.002016 0.306680
-0.337298 0.002494 0.242920
0.182164 0.004439 -0.336638
0.336268 0.004962 -0.315412
-0.205340 0.004485 0.521836
-0.337298 0.005040 0.233570
-0.316964 0.004594 -0.336614
0.336268 0.005369 0.338895
-0.337298 0.004707 -0.009508
-0.262182 0.007019 -0.336198
0.336268 0.007515 0.250441
-0.035570 0.007095 0.521384
-0.337298 0.007004 0.434238
-0.234370 0.009879 -0.335468
0.336268 0.009451 -0.018076
-0.337298 0.009688 0.366906
-0.281328 0.010162 -0.335387
0.336268 0.010350 0.321071
-0.173036 0.010359 0.520521
-0.337298 0.012474 0.301580
-0.062731 0.011649 -0.334854
-0.007964 0.012453 0.519771
-0.337298 0.012360 0.133576
0.326116 0.014173 -0.333856
0.336268 0.013829 0.287614
-0.304129 0.013419 0.519415
-0.029590 0.014900 -0.333514
0.336268 0.015444 -0.128764
0.229077 0.013851 0.519212
-0.337298 0.016355 -0.177345
0.336268 0.019133 0.493748
0.030471 0.017444 0.517401
-0.337298 0.017037 -0.082430
-0.169033 0.018066 -0.331827
0.165609 0.018466 0.516795
-0.337298 0.018332 0.163200
0.159902 0.020931 -0.329907
0.336268 0.020264 0.185848
-0.337298 0.019897 0.448859
-0.064354 0.020890 -0.329937
0.336268 0.022092 0.179942
-0.337298 0.020893 0.046164
0.091244 0.022157 -0.328999
-0.292412 0.022718 0.513699
-0.337298 0.022839 0.508463
-0.233053 0.024606 -0.326788
0.151328 0.024233 0.512331
-0.337298 0.023217 -0.119500
-0.306654 0.025334 -0.325983
0.168008 0.024919 0.511648
0.216462 0.025864 -0.325396
-0.337298 0.026342 -0.111929
-0.299769 0.025694 0.510790
0.171906 0.027203 -0.323817
0.336268 0.027205 -0.086256
0.101965 0.027462 0.508668
-0.337298 0.027870 -0.162894
-0.281055 0.027658 0.508399
-0.077285 0.029247 -0.320847
-0.076968 0.029179 0.506172
0.336268 0.029028 0.152455
-0.337298 0.030108 0.229936
0.336268 0.029563 0.027823
-0.300131 0.030464 -0.318716
0.309580 0.031192 0.502277
0.197112 0.031401 -0.316598
-0.141507 0.030887 0.502966
-0.247767 0.033257 -0.299415
-0.297389 0.035049 -0.280206
-0.288921 0.035242 -0.278140
-0.314032 0.033550 -0.296273
-0.289905 0.031879 -0.314178
-0.050000 0.034192 -0.289388
0.004063 0.034512 -0.285956
0.283419 0.031865 -0.314328
-0.137483 0.033125 -0.300829
-0.198056 0.033680 -0.294884
-0.258322 0.033305 -0.298899
0.014062 0.032848 -0.303797
-0.320571 0.037310 -0.255972
0.156126 0.032572 -0.306751
-0.327146 0.037546 -0.253443
-0.337298 0.037255 0.412879
-0.337298 0.031903 0.490912
0.110288 0.035485 0.460740
0.016384 0.033084 0.486470
0.098669 0.034974 0.466216
-0.199414 0.032289 0.494989
-0.087022 0.033760 0.479221
0.229813 0.032028 0.497786
0.142239 0.032576 0.491914
-0.047149 0.032860 0.488877
0.284785 0.037412 0.440079
0.077087 0.034528 0.470993
0.009178 0.033636 0.480552
0.290567 0.035753 0.457861
-0.286968 0.032146 0.496530
0.093484 0.032528 0.492426
0.256689 0.034934 0.466645
0.336268 0.031769 0.281481
0.336268 0.035185 -0.117197
-0.146399 0.036834 -0.261079
0.177447 0.036723 -0.262261
-0.291169 0.037636 -0.252483
0.227650 0.036460 -0.265077
0.074892 0.034924 -0.281543
0.322880 0.032991 -0.302263
0.248008 0.037890 -0.249751
-0.003375 0.035142 -0.279210
0.277205 0.037821 -0.250491
0.288472 0.032858 -0.303689
-0.066468 0.036637 -0.263190
-0.041743 0.038044 -0.248107
0.025881 0.035619 -0.274096
0.202107 0.036548 -0.264142
-0.171099 0.037838 -0.250314
-0.337298 0.037007 0.284515
-0.083496 0.034478 0.471529
-0.117686 0.035668 0.458781
-0.324318 0.032580 0.491874
-0.242069 0.032688 0.490721
-0.134380 0.037491 0.439237
-0.007076 0.034983 0.466120
-0.144081 0.034782 0.468274
-0.241438 0.033131 0.485966
-0.018293 0.036739 0.447293
-0.023517 0.037935 0.434473
-0.301012 0.033277 0.484404
0.041642 0.037551 0.438596
-0.094176 0.035049 0.465407
-0.153428 0.037664 0.437386
-0.119222 0.035276 0.462981
0.233360 0.037744 0.436529
0.336268 0.036738 0.143980
-0.132018 0.040696 -0.213377
0.046084 0.038474 -0.242498
-0.099377 0.041176 -0.207077
-0.291686 0.042703 -0.187065
-0.168926 0.040334 -0.218124
0.045385 0.039127 -0.233945
-0.092358 0.040304 -0.218509
-0.215276 0.041906 -0.197512
-0.071398 0.039814 -0.224942
0.053666 0.039639 -0.227237
0.017995 0.040310 -0.218436
-0.293941 0.041985 -0.196471
0.110023 0.038427 -0.243116
-0.251622 0.040070 -0.221582
-0.193451 0.041066 -0.208525
-0.337298 0.040783 0.177683
0.013630 0.039357 0.416127
-0.137295 0.038723 0.424446
-0.016559 0.038155 0.431893
0.233586 0.039176 0.418509
-0.101164 0.038983 0.421033
0.048232 0.038545 0.426776
0.129174 0.040518 0.400907
0.157208 0.040737 0.398045
0.267136 0.039811 0.410176
0.231119 0.040988 0.394757
0.125687 0.040665 0.398988
0.049612 0.039762 0.410826
0.062594 0.040903 0.395868
0.207424 0.039380 0.415835
0.247019 0.041904 0.382742
0.336268 0.038435 0.182306
0.336268 0.040221 0.075987
-0.078243 0.042674 -0.187449
0.236391 0.042649 -0.187775
0.031196 0.042958 -0.183715
0.062760 0.040596 -0.214690
0.069399 0.043215 -0.180355
-0.042001 0.042140 -0.194442
0.334533 0.040233 -0.219441
-0.313846 0.043113 -0.181682
0.197833 0.041866 -0.198042
-0.056762 0.042329 -0.191966
0.218920 0.042474 -0.190070
0.045215 0.040763 -0.212500
0.168280 0.040101 -0.221180
0.061862 0.040972 -0.209749
0.092823 0.042920 -0.184220
-0.337298 0.043170 0.339457
-0.287670 0.041657 0.385977
-0.314866 0.039326 0.416537
-0.129877 0.042515 0.374732
-0.223913 0.041758 0.384655
-0.206881 0.041808 0.384008
0.039237 0.041082 0.393523
0.029321 0.042252 0.378181
-0.014328 0.042819 0.370746
-0.211119 0.039811 0.410181
-0.042568 0.040493 0.401237
0.099492 0.041743 0.384858
-0.247992 0.042376 0.376557
-0.058497 0.042455 0.375520
-0.307865 0.042321 0.377280
-0.053802 0.041055 0.393878
0.336268 0.043076 0.300922
0.050214 0.043351 -0.178172
-0.276901 0.045475 -0.142353
-0.196948 0.043666 -0.172864
-0.228723 0.045142 -0.147974
0.005168 0.043679 -0.172645
0.156532 0.043351 -0.178184
-0.145523 0.043965 -0.167812
0.252913 0.043279 -0.179386
-0.099743 0.044960 -0.151045
-0.073816 0.044679 -0.155772
0.182664 0.043774 -0.171039
-0.337175 0.043427 -0.176901
-0.026722 0.044552 -0.157919
-0.253064 0.043503 -0.175620
0.097881 0.043921 -0.168567
-0.337298 0.043531 0.075615
0.148084 0.043374 0.362992
-0.136487 0.044254 0.348144
-0.135197 0.044391 0.345845
0.303369 0.046882 0.303825
0.314460 0.045392 0.328960
0.029868 0.043614 0.358942
-0.066118 0.044247 0.348273
0.123218 0.044820 0.338605
0.045316 0.043392 0.362690
0.331065 0.046023 0.318307
0.061624 0.043815 0.355554
-0.031517 0.043760 0.356487
0.327803 0.044365 0.346271
0.289453 0.045201 0.332174
0.241151 0.043633 0.358632
0.290125 0.047245 -0.112502
0.147016 0.045836 -0.136254
0.211291 0.046427 -0.126295
-0.252872 0.046780 -0.120338
-0.096450 0.046536 -0.124457
-0.058318 0.046500 -0.125069
0.182777 0.046480 -0.125407
0.253586 0.045904 -0.135120
0.110453 0.047210 -0.113083
-0.021123 0.045662 -0.139190
-0.069164 0.045832 -0.136329
0.296623 0.044475 -0.159212
-0.022274 0.045570 -0.140749
0.069285 0.046367 -0.127300
0.057528 0.046540 -0.124378
0.282882 0.043843 -0.169876
-0.240883 0.045205 0.332118
-0.310101 0.046627 0.308117
-0.060726 0.047218 0.298153
-0.075386 0.046513 0.310040
-0.007759 0.045361 0.329472
-0.323781 0.046512 0.310068
-0.199697 0.045868 0.320928
0.016518 0.046802 0.305179
0.100418 0.046913 0.303301
-0.225131 0.045304 0.330445
-0.198719 0.045161 0.332850
0.019595 0.046907 0.303407
-0.304681 0.045009 0.335418
0.004858 0.047024 0.301430
-0.130798 0.045551 0.326277
0.336268 0.047156 0.043379
-0.247654 0.048871 -0.074344
-0.106280 0.048406 -0.085334
0.070566 0.048175 -0.090790
0.085542 0.047519 -0.106275
-0.318057 0.048626 -0.080122
-0.177485 0.047807 -0.099473
0.026579 0.047699 -0.102024
0.027562 0.048481 -0.083554
0.137766 0.047350 -0.110280
0.187286 0.047416 -0.108722
-0.201808 0.047948 -0.096134
-0.020323 0.047973 -0.095543
-0.055465 0.048600 -0.080749
-0.188995 0.047598 -0.104416
-0.101963 0.048612 -0.080464
0.107206 0.048837 0.260352
0.260991 0.049000 0.256512
0.328991 0.048706 0.263447
0.250483 0.049537 0.243820
-0.005376 0.048268 0.273800
0.146150 0.048145 0.276697
0.111242 0.047382 0.294725
-0.144932 0.047664 0.288062
-0.195089 0.047445 0.293242
-0.266216 0.047470 0.292637
0.120772 0.049088 0.254434
0.094862 0.047491 0.292143
-0.153499 0.047367 0.295070
0.320106 0.048983 0.256898
0.139554 0.048605 0.265843
0.336268 0.048809 0.089242
-0.165367 0.049517 -0.059081
0.086349 0.049973 -0.048302
-0.058914 0.049259 -0.065175
0.130851 0.048823 -0.075465
0.264409 0.048673 -0.079019
-0.003368 0.050037 -0.046797
-0.063647 0.049266 -0.065023
0.220912 0.048729 -0.077707
0.046057 0.049933 -0.049246
0.113390 0.049141 -0.067970
0.290565 0.049448 -0.060710
0.216590 0.049326 -0.063590
0.275208 0.049204 -0.066481
0.243994 0.048238 -0.089292
-0.009331 0.049634 -0.056317
-0.033352 0.050041 0.231912
-0.069992 0.049445 0.245987
0.068348 0.049649 0.241172
-0.156855 0.048251 0.274205
-0.165090 0.048365 0.271495
0.167272 0.049577 0.242879
-0.128841 0.049173 0.252426
-0.210147 0.050065 0.231349
-0.111190 0.049502 0.244641
-0.161642 0.048435 0.269844
0.031460 0.048983 0.256901
-0.044326 0.048617 0.265543
-0.157979 0.048384 0.271059
-0.236175 0.049395 0.247170
-0.020910 0.049496 0.244780
0.336268 0.050070 0.203166
-0.245205 0.051616 0.013313
-0.186644 0.050929 -0.013707
0.030903 0.050350 -0.036528
-0.326355 0.050566 -0.028033
0.161959 0.050300 -0.038493
-0.047445 0.050845 -0.017052
-0.325705 0.051283 0.000198
-0.320644 0.051052 -0.008899
-0.223291 0.051059 -0.008595
-0.018478 0.050958 -0.012574
-0.232343 0.050694 -0.022998
0.173530 0.050395 -0.034734
-0.067221 0.050770 -0.019997
-0.182415 0.051058 -0.008651
0.091131 0.050595 -0.026865
0.108535 0.051111 0.191752
0.222150 0.050449 0.217817
0.286516 0.050959 0.197739
-0.043324 0.050917 0.199407
0.189326 0.050269 0.224927
0.157487 0.050647 0.210050
0.223262 0.050514 0.215285
0.129221 0.051309 0.183954
0.261905 0.050208 0.227338
0.132189 0.051052 0.194092
0.092413 0.050460 0.217392
-0.114326 0.050702 0.207876
0.319379 0.051038 0.194627
-0.010430 0.050395 0.219969
0.290360 0.050187 0.228130
0.304489 0.050501 -0.030589
0.087477 0.050948 -0.012995
0.279767 0.051320 0.001670
0.253079 0.051862 0.022996
0.225494 0.050481 -0.031370
0.193467 0.050860 -0.016444
-0.208814 0.051726 0.017663
0.280776 0.050403 -0.034426
0.312271 0.051230 -0.001885
-0.209663 0.051883 0.023842
0.213881 0.050775 -0.019795
0.092490 0.051876 0.023582
0.136606 0.051597 0.012563
0.023167 0.051492 0.008439
0.280627 0.051330 0.002059
0.236739 0.051650 0.170550
-0.017832 0.051799 0.164664
0.108735 0.051777 0.165534
0.019583 0.051574 0.173531
-0.287679 0.051799 0.164668
-0.207211 0.050913 0.199560
-0.282878 0.050362 0.221264
-0.308999 0.050487 0.216326
-0.244790 0.050543 0.214134
0.257210 0.051871 0.161835
-0.144360 0.051506 0.176217
-0.162631 0.050712 0.207487
-0.135580 0.051032 0.194876
0.046366 0.051659 0.170179
-0.216723 0.051399 0.180418
-0.011329 0.052196 0.059601
-0.184427 0.051957 0.031353
0.155157 0.052000 0.036437
-0.289459 0.052178 0.057453
-0.071288 0.052008 0.037444
-0.276704 0.052276 0.069093
0.128217 0.051968 0.032709
-0.284534 0.052088 0.046827
-0.152237 0.052008 0.037434
-0.217152 0.052171 0.056698
-0.203326 0.051909 0.025705
-0.077509 0.052025 0.039413
-0.071749 0.052049 0.042307
-0.303708 0.051945 0.029976
0.026679 0.051933 0.028524
-0.320377 0.052454 0.090066
-0.004213 0.052063 0.141293
0.296950 0.052330 0.109750
-0.053600 0.052113 0.135371
0.053240 0.052173 0.128278
0.171301 0.052281 0.115544
0.291760 0.052071 0.140333
0.329317 0.052334 0.109282
0.231113 0.052126 0.133827
0.175414 0.051985 0.150494
0.088434 0.052229 0.121680
0.189426 0.052311 0.112037
0.332838 0.052281 0.115567
0.292668 0.051984 0.150661
0.166036 0.052052 0.142605
0.068945 0.051942 0.155521
0.057729 0.052371 0.080359
-0.015056 0.052339 0.076536
0.273237 0.052006 0.037161
0.230384 0.052197 0.059734
0.001052 0.052316 0.073829
0.278726 0.052456 0.090365
0.003052 0.052343 0.076948
0.278875 0.052059 0.043473
0.296422 0.052420 0.086072
0.159371 0.052323 0.074670
0.113814 0.052275 0.069028
0.209975 0.052358 0.078749
0.057342 0.052338 0.076462
-0.094255 0.052286 0.070302
0.052734 0.052367 0.079834
-0.277775 0.052294 0.113994
-0.288757 0.052205 0.124489
-0.321849 0.052261 0.117899
-0.094462 0.052418 0.099311
-0.058553 0.052432 0.097629
-0.118714 0.052240 0.120403
-0.073580 0.052395 0.101997
-0.238076 0.052341 0.108438
0.092222 0.052370 0.104956
-0.137237 0.052100 0.136938
-0.194168 0.052470 0.093241
-0.254758 0.052301 0.113145
-0.075674 0.052371 0.104920
-0.200606 0.052123 0.134216
-0.189240 0.052083 0.138867
